<svg xmlns="http://www.w3.org/2000/svg" viewBox="0 0 2208.1423 2231.0861"><defs><style>.cls-1{fill:#96c;}.cls-2{fill:#f280a1;}.cls-3{fill:none;stroke:#f280a1;stroke-linecap:round;stroke-miterlimit:10;stroke-width:55px;}</style></defs><g id="Layer_2" data-name="Layer 2"><g id="inner"><g id="light"><g id="brim"><path id="under" class="cls-1" d="M631.4849,1470.9634c-23.2529,1.2868-51.0839-15-55.1608-35.316-8.3865-41.7913,81.7679-110.4817,173.2658-118.0577a217.9721,217.9721,0,0,1,80.4446,8.7427c-53.5856,18.0542-87.9687,43.4317-109.93,64.2053C677.6416,1430.704,665.3019,1469.092,631.4849,1470.9634Z" transform="translate(-52.8879 -40.896)"/><path id="top" class="cls-2" d="M597.9906,1339.2268c-3.4034,5.0734,3.0948,10.9083,7.764,6.9686a248.7041,248.7041,0,0,1,79.5213-45.3374,257.8172,257.8172,0,0,1,81.2711-13.3406c44.354-.2261,99.6682,12.4377,173.5248,57.0312,227.6527,137.4534,277.3334,183.3962,525.0086-60.6094a10.78,10.78,0,0,0-3.7981-17.7768c-73.0833-27.2966-382.4656-138.4421-534.9564-122.9837-4.781.4847-14.4487,1.4732-27.0193,3.82-42.5673,7.946-75.3713,23.3752-146.7155,67.5977-109.12,67.6381-130.2245,92.1921-140.775,105.61C606.6757,1326.7433,602.0824,1333.1275,597.9906,1339.2268Z" transform="translate(-52.8879 -40.896)"/></g><path id="cap" class="cls-2" d="M1708.1336,1306.671a18.4469,18.4469,0,0,1-25.62,15.6186c-75.81-32.2187-139.0548-57.151-183.9679-74.3809l-.0031-.0013s-273.989-110.5284-501.3042-133.8054c-25.8325-2.6453-71.8146-6.1778-126.2718,9.3438A304.9928,304.9928,0,0,0,840.91,1133.74a9.3735,9.3735,0,0,1-12.6464-10.7344c13.9663-62.8266,70.4084-257.6987,248.38-339.2313,102.1887-46.8148,207.0631-38.1757,240.1649-35.6879,84.6776,6.364,143.6679,33.804,179.7416,55.8124C1646.2724,895.2436,1723.796,1089.8185,1708.1336,1306.671Z" transform="translate(-52.8879 -40.896)"/><path id="button" class="cls-1" d="M1361.6762,725.5388a451.5739,451.5739,0,0,0-108.4-6.3987c-1.9116-3.8345-3.1894-8.327-2.1294-12.8732C1255,689.7394,1287.28,683.1142,1309.7157,684.4c22.5636,1.2925,53.945,11.6569,55.769,28.447C1366.0308,717.8724,1363.8233,722.3589,1361.6762,725.5388Z" transform="translate(-52.8879 -40.896)"/></g></g><g id="outer"><g id="light-2" data-name="light"><g id="text"><path d="M210.4131,1238.9014c16.7729-2.7676,25.0224,4.2314,27.8725,21.498,1.3838,8.3858-.6015,16.3154-7.268,21.9766l-102.5191,89.64.0816.4932,105.3227-17.3828c13.0733-2.1582,20.7076,4.1836,22.7022,16.27s-3.1968,20.5449-16.27,22.7022l-139.3623,23.0009c-16.0327,2.6465-26.2988-2.7539-29.1079-19.7734-2.1172-12.8262-.0957-17.4668,7.189-23.99l99.394-88.6172-.0815-.4932L76.0034,1301.1191c-13.0727,2.1582-20.7075-4.1836-22.7021-16.2695s3.1967-20.5449,16.27-22.7021Z" transform="translate(-52.8879 -40.896)"/><path d="M294.3545,1486.2676c20.7456,55.2334-4.7466,98.9922-54.1289,117.54-47.51,17.8447-100.7119,6.3145-122.3369-51.2588-22.68-60.3818,7.3213-99.958,58.3418-119.122C225.6128,1414.8789,273.6089,1431.0342,294.3545,1486.2676Zm-145.5723,54.6777c13.0977,34.8721,44.73,36.61,77.0269,24.4795s49.4316-36.1924,37.6523-67.5537-40.5171-38.1924-72.8144-26.0615S135.2446,1504.9033,148.7822,1540.9453Z" transform="translate(-52.8879 -40.896)"/><path d="M315.0356,1590.7363c10.56-6.21,21.7261-3.4961,28.0625,7.2793s3.28,21.8526-7.28,28.0625l-110.5513,65.01,34.7226,59.0469c5.9556,10.1279,5.5992,21.3584-4.0981,27.0615s-19.6851.5547-25.6411-9.5742l-43.34-73.7c-7.35-12.499-7.2089-23.6035,8.5225-32.8535Z" transform="translate(-52.8879 -40.896)"/><path d="M385.7964,1707.8945c9.5586-7.6631,21-6.581,28.8183,3.1729s6.3853,21.1562-3.1728,28.8183l-100.07,80.2188,42.8457,53.4482c7.35,9.169,8.61,20.334-.168,27.3711s-19.4018,3.377-26.751-5.792l-53.4795-66.7129c-9.0693-11.3144-10.5253-22.3232,3.7149-33.7382Z" transform="translate(-52.8879 -40.896)"/><path d="M469,1817.1631c11.3257-12.6787,22.1416-12.4033,35.1929-.7442,6.3393,5.6622,9.7676,13.0821,8.1269,21.6739l-23.602,134.125.373.333,71.1167-79.6133c8.8272-9.8818,18.751-9.7324,27.8868-1.5713s10.3989,18.0049,1.5717,27.8867l-94.1006,105.3418c-10.8256,12.1192-22.2085,14.3545-35.0732,2.8623-9.6953-8.66-11.0327-13.542-9.4521-23.1924l21.81-131.3681-.373-.333-69.1182,77.375c-8.8272,9.8818-18.751,9.7334-27.8867,1.5722s-10.3989-18.0048-1.5718-27.8867Z" transform="translate(-52.8879 -40.896)"/><path d="M608.9653,1930.5947c6.9283-10.1025,18.1914-12.3818,28.5-5.3125s12.2407,18.3975,5.3125,28.5l-82.2876,119.9951c-6.9282,10.1026-18.1914,12.3819-28.5,5.3125s-12.2407-18.3974-5.3125-28.5Z" transform="translate(-52.8879 -40.896)"/><path d="M658.022,1971.291c7.7446-15.1328,18.2778-17.6064,33.8564-9.6338,7.5664,3.8721,12.7627,10.1826,13.3516,18.9092l11.14,135.7266.4448.2285,48.6319-95.0293c6.0361-11.7949,15.6738-14.1641,26.5786-8.584s14.6206,14.7842,8.584,26.5791l-64.3487,125.74c-7.4028,14.4659-17.8481,19.5118-33.2041,11.6534-11.5727-5.9229-14.103-10.3067-15.0185-20.043l-12.1753-132.6065-.4448-.2275-47.2652,92.3584c-6.0361,11.7949-15.6738,14.1641-26.5791,8.584s-14.62-14.7842-8.5835-26.5791Z" transform="translate(-52.8879 -40.896)"/><path d="M938.6387,2240.6709a13.6141,13.6141,0,0,1-17.2432,9.3682c-11.2969-3.2334-12.4267-11.0977-10.4282-27.169-15.355,10.9483-33.5918,15.6113-58.1084,8.5947-61.05-17.4716-72.3272-66.207-58.4326-114.7587,16.7153-58.4063,62.4668-80.1582,116.0664-64.8194,43.7446,12.5195,59.5615,45.3906,55.1592,60.7735-3.9209,13.7-15.0474,14.416-23.46,12.0087-19.4688-5.5712-4.4854-30.6679-42.9424-41.6738-27.16-7.7734-53.6421,3.8916-66.1611,47.6358-9.7681,34.1308.3159,62.5009,32.5239,71.7187,20.9106,5.9844,43.2363-2.97,51.2124-23.57l-25.7183-7.36c-8.4126-2.4072-16.892-8.2148-13.4526-20.2324,2.7515-9.6142,9.8618-13.56,19.7163-10.74l48.5523,13.8945c11.5371,3.3018,14.4526,10.378,11.3574,21.1934Z" transform="translate(-52.8879 -40.896)"/><path d="M1088.0732,2163.8936c36.48,12.15,43.7432,35.2275,41.6758,56.125-3.2,32.3408-29.9673,54.0605-79.2256,49.1875-51.7461-5.1192-72.3232-33.2813-70.4033-52.6866.9844-9.9511,8.8882-16.2031,18.8394-15.2187,22.1416,2.19,13.22,33.9658,54.5171,38.0517,21.1464,2.0918,33.9956-8.4443,35.1772-20.3857.7139-7.2139-1.9814-15.52-15.5688-20.3809l-44.8672-16.2461c-36.1328-13.121-40.8316-34.1855-38.9366-53.3408,3.938-39.8047,42.2339-51.0888,76.8145-47.6679,31.8438,3.15,67.6372,24.7793,65.2744,48.6621-1.0093,10.1992-10.3071,15.3086-20.2583,14.3242-18.9072-1.87-12.79-28.1455-50.854-31.9112-18.9072-1.87-30.2173,5.8028-31.4477,18.2422s13.3022,17.8965,25.9433,22.1612Z" transform="translate(-52.8879 -40.896)"/><path d="M1152.5444,2110.7529c-.8935-12.2177,6.4834-21.0293,18.9493-21.94s21.0468,6.7324,21.94,18.9492l7.1846,98.2354c1.7871,24.4345,16.3017,34.4023,39.7392,32.6884s36.3477-13.6875,34.5606-38.122l-7.1846-98.2354c-.8936-12.2168,6.4834-21.0283,18.95-21.94s21.0469,6.7334,21.9394,18.95l6.9473,94.9941c3.6113,49.3672-25.1846,73.7823-72.8066,77.2647s-79.6621-16.4834-83.2725-65.85Z" transform="translate(-52.8879 -40.896)"/><path d="M1377.3608,2100.5771l-37.5693,9.4874c-11.3926,2.8759-22.0723-.6153-24.8262-11.5225s4.9873-19.0508,16.38-21.9268l114.8906-29.0107c11.3926-2.876,22.0723.6152,24.8262,11.5225s-4.9873,19.0507-16.38,21.9267l-37.57,9.4863,31.3975,124.3438c2.999,11.8769-2.7373,21.835-14.8565,24.8945s-21.8955-2.9795-24.8945-14.8564Z" transform="translate(-52.8879 -40.896)"/><path d="M1587.356,2071.6309c37.7714-7.2012,55.375,9.3964,63.77,28.6455,12.9932,29.79.23,61.8125-45.1426,81.6025-47.6641,20.7881-79.37,6.251-87.166-11.623-3.9981-9.167-.15-18.4815,9.0156-22.4795,20.3946-8.8946,28.1172,23.1943,66.1572,6.6035,19.4786-8.4951,25.5508-23.9629,20.754-34.9629-2.8985-6.6455-9.3047-12.5791-23.5372-10.19l-47.0908,7.72c-37.9424,6.1836-52.3252-9.9092-60.0215-27.5537-15.9912-36.6651,11.9278-65.2061,43.78-79.0987,29.332-12.7929,71.1309-11.3857,80.7256,10.6133,4.0977,9.3955-1.5244,18.3936-10.69,22.3916-17.416,7.5957-24.9014-18.3232-59.9629-3.0322-17.416,7.5957-23.542,19.8145-18.5449,31.2725s20.3457,9.1269,33.4609,6.68Z" transform="translate(-52.8879 -40.896)"/><path d="M1619.2378,1991.9072c-6.668-10.2763-4.4473-21.5517,6.0391-28.3554s21.6865-4.2383,28.3544,6.038l32.3868,49.9131,15.4609-94.6679c1.2627-6.7793,2.6514-12.4483,8.7324-16.3946,8.18-5.3076,19.624-5.581,25.3389,3.2266,3.4023,5.2432,2.9893,10.5771,1.958,15.4189l-11.1465,59.98,82.9658,36.4648c6.2754,2.7823,12.4883,5.0088,15.3457,9.4131,8.3008,12.793,1.3135,22.6914-6.8662,27.9981-6.92,4.4912-11.7842,5.2627-21.16.916l-79.3711-35.5186-6.628,31.1221,22.1807,34.1836c6.668,10.2754,4.4473,21.5508-6.0381,28.3545s-21.6875,4.2383-28.3554-6.0381Z" transform="translate(-52.8879 -40.896)"/><path d="M1791.7466,1837.3066c43.123-40.2666,93.3-33.4189,129.3008,5.1358,34.6367,37.0928,44.3,90.665-.65,132.6387-47.1426,44.02-95.1768,31.4091-132.3721-8.4249C1752.0229,1928.1016,1748.6235,1877.5742,1791.7466,1837.3066Zm106.1279,113.6543c27.2256-25.4228,16.752-55.32-6.7939-80.5361s-52.3272-31.8623-76.8116-8.998-19.8242,52.0312,3.7227,77.247S1869.7349,1977.2373,1897.8745,1950.9609Z" transform="translate(-52.8879 -40.896)"/><path d="M1917.3,1758.3281l-23.377,30.9053c-7.0879,9.3711-17.6045,13.3281-26.5771,6.541s-8.0264-17.9834-.9375-27.3545l71.4873-94.5088c7.0889-9.3711,17.6045-13.3281,26.5771-6.542s8.0264,17.9834.9385,27.3545l-23.3769,30.9053L2044.32,1802.998c9.77,7.3907,11.5235,18.7481,3.9824,28.7168s-18.9462,11.3731-28.7168,3.9834Z" transform="translate(-52.8879 -40.896)"/><path d="M2006.9849,1622.8047l-17.8565,34.3906c-5.415,10.4287-15.1172,16.0947-25.1025,10.9111s-10.9317-16.3808-5.5166-26.8085l54.6064-105.17c5.4141-10.4287,15.1172-16.0957,25.1016-10.9111s10.9316,16.3809,5.5176,26.8086l-17.8565,34.3916,113.8233,59.1c10.872,5.6445,14.5078,16.5469,8.747,27.6406s-16.7685,14.3916-27.6406,8.7471Z" transform="translate(-52.8879 -40.896)"/><path d="M2046.145,1520.6367c-17.3418-5.6855-19.8467-16.5039-15.3291-30.2832l29.9834-91.4619c3.7383-11.4033,9.79-18.6279,22.1436-14.5781s12.9541,13.4551,9.2158,24.8584L2067.47,1484.48l37.06,12.1494,21.6514-66.043c3.3486-10.2148,8.8476-17.3574,20.9628-13.3857s12.3184,12.9834,8.97,23.1992l-21.65,66.043,41.3359,13.5508,25.3115-77.208c3.7383-11.4034,9.79-18.628,22.1426-14.5782s12.9541,13.4551,9.2158,24.8584l-30.6074,93.3623c-4.5176,13.7793-12.94,21.0147-30.2832,15.33Z" transform="translate(-52.8879 -40.896)"/><path d="M2110.5913,1325.5439l-5.7539,38.3194c-1.7451,11.6191-9.0889,20.123-20.2148,18.4521s-15.6475-11.956-13.9024-23.5752l17.5967-117.1836c1.7451-11.62,9.09-20.123,20.2148-18.4531s15.6475,11.9561,13.9024,23.5762l-5.7539,38.3193,126.8252,19.0449c12.1133,1.8194,19.084,10.9551,17.2275,23.3165s-11.2021,19.0468-23.3164,17.2285Z" transform="translate(-52.8879 -40.896)"/><path d="M391.4673,376.5034c-12.7163-15.06-8.8833-26.4243,3.082-36.5273l41.26-34.8389c36.9277-31.1807,84.3476-43.6572,133.4707,14.519,39.7158,47.0362,36.51,96.39-8.67,134.5386l-40.6407,34.3164c-11.9653,10.1031-23.811,11.9781-36.5273-3.082Zm119.5366,72.9312,28.4692-24.0391c27.0254-22.8193,15.3091-54.2725-4.0263-77.1714-24.7359-29.2944-50.8565-37.63-75.6123-16.7265l-28.2632,23.8647Z" transform="translate(-52.8879 -40.896)"/><path d="M656.52,273.521c10.4263-6.2378,21.2622-7.0581,28.3321,4.7578s1.2246,20.9775-9.2017,27.2153l-38.2285,22.8736c-10.4263,6.2383-21.2622,7.0581-28.332-4.7578s-1.2247-20.9771,9.2016-27.2154Z" transform="translate(-52.8879 -40.896)"/><path d="M729.0513,179.6484c27.4736-11.9746,59.9419-13.1665,67.17,3.417,3.668,8.4151,1.2114,18.3218-8.1939,22.4214-14.1084,6.1489-21.8315-10.2187-44.6025-.2934-12.623,5.5019-19.2808,12.5268-15.9365,20.2,3.6679,8.4155,12.6987,6.8354,24.9155,4.456l16.6089-3.1152c22.5933-4.2515,50.8726-6.2686,61.8765,18.9775,12.8379,29.4541-9.6929,55.4737-36.9195,67.34-32.6714,14.24-66.2627,11.5039-74.03-6.3174-3.4522-7.92-2.1255-17.04,8.0224-21.4629,15.5933-6.7964,26.7876,14.8325,53.5191,3.1811,12.8706-5.6093,18.5576-14.8623,15.3212-22.2876-3.9917-9.1582-12.5595-7.1909-26.8325-4.7988l-23.5517,4.08c-23.3037,3.9722-43.4156,2.4292-53.9878-21.8271C679.5923,214.1646,704.0522,190.5444,729.0513,179.6484Z" transform="translate(-52.8879 -40.896)"/><path d="M876.67,211.4648c5.2661,20.1123,22.1558,31.32,44.3579,25.5069,28.732-7.5225,23.8076-26.3291,39.2188-30.3643,9.1421-2.3935,17.7236,3.7329,19.57,10.7852,6.0181,22.9858-28.0068,43.3379-50.9927,49.3559-53.2846,13.9517-82.8349-16.8276-91.52-50-11.6265-44.4038,7.481-81.2246,52.6685-93.0561,43.8818-11.49,77.0952,13.0278,85.3017,44.3721,3.42,13.06.3907,17.4814-12.4082,20.8325Zm61.1226-39.4482c-6.6719-16.9536-23.083-26.333-40.0611-21.8877-19.0673,4.9927-27.4829,19.7559-26.8061,39.3955Z" transform="translate(-52.8879 -40.896)"/><path d="M991.9946,67.0527c-1.3008-12.8945,5.812-20.396,17.6319-21.5883s20.2876,4.7373,21.5883,17.6318l8.9971,89.1855,38.64-52.7436c3.5961-4.7046,8.375-8.4434,14.2846-9.04,8.8648-.894,19.3213,5.92,20.3242,15.86.7046,6.9844-1.4965,9.3774-4.6093,13.4907l-25.95,33.2818,46.36,50.6816a21.5134,21.5134,0,0,1,5.3027,12.2192c1.003,9.94-6.1347,19.8858-16.6113,20.9429-9.67.9756-15.2622-3.3452-18.6509-7.3452l-42.3554-48.6431-12.481,13.47,3.0083,29.8184c1.3008,12.894-5.812,20.396-17.6318,21.5884s-20.2876-4.7378-21.5884-17.6319Z" transform="translate(-52.8879 -40.896)"/><path d="M1158.7505,118.3628l-6.7485-.1411c-11.0679-.2315-15.5665-4.6465-15.3858-13.2847s4.86-12.8613,15.9277-12.63l6.7486.1411.5024-24.0249c.271-12.9575,8.2407-19.5424,20.1177-19.2939s19.5654,7.1606,19.2939,20.1182l-.5019,24.0249,11.8769.2485c11.6075.2427,17.7432,3.8818,17.5459,13.33s-6.48,12.8276-18.0878,12.5849l-11.877-.2485-1.6484,78.8233c-.125,5.9389,3.0468,9.246,10.0654,9.3925l5.6689.1187c8.6377.1806,13.6651,5.147,13.49,13.5151-.2373,11.3379-10.085,17.3433-28.9805,16.9478-28.6143-.5982-40.2437-12.7241-39.7578-35.9395Z" transform="translate(-52.8879 -40.896)"/><path d="M1250.8394,112.5542c1.0878-10.4736,6.3339-19.1577,21.6416-17.5669s18.6552,11.168,17.5673,21.6416l-11.247,108.2275c-1.0889,10.4737-6.335,19.1582-21.6426,17.5674s-18.6553-11.1684-17.5664-21.6421ZM1278.09,41.0078a20.52,20.52,0,1,1-22.5312,18.2891A20.5111,20.5111,0,0,1,1278.09,41.0078Z" transform="translate(-52.8879 -40.896)"/><path d="M1397.2358,115.45c46.3545,10.4521,63.9864,47.6406,54.8409,88.2017-8.6709,38.4536-35.0313,68.2133-87.4444,56.3955s-63.4521-50.0113-54.7822-88.4649C1318.9956,131.0215,1350.88,104.998,1397.2358,115.45Zm-26.19,116.1519c22.915,5.1665,37.292-13.18,42.5772-36.6211,5.6416-25.021-.4131-46.0376-22.8008-51.0855s-36.876,11.3364-42.5176,36.3574C1343.019,203.6938,1348.1313,226.4351,1371.0454,231.6021Z" transform="translate(-52.8879 -40.896)"/><path d="M1497.41,161.7676c4.5039-10.9932,12.4687-16.1919,23.9619-11.4834s13.5215,14.001,9.0176,24.9941l-1.9444,4.7471.5.2051c15.7705-9.2954,32.9024-13.3648,53.64-4.8692,21.9863,9.0074,41.4677,29.8267,26.3193,66.8042l-29.0693,70.9566c-3.9912,9.7441-11.4688,16.6015-25.711,10.7671s-14.7588-15.9668-10.7666-25.711l26.1006-63.7109c6.0391-14.7412,3.0928-28.2031-12.6474-34.6514a30.6117,30.6117,0,0,0-39.5039,17.3711L1492.6382,277.4c-3.9922,9.7441-11.47,16.6011-25.711,10.7671s-14.7587-15.9668-10.7666-25.7109Z" transform="translate(-52.8879 -40.896)"/><path d="M1652.9253,300.9663c-10.9473,17.6743-7.4326,37.6377,12.0781,49.7232,25.249,15.64,35.4863-.8868,49.0283,7.5019,8.0342,4.9761,9.5079,15.417,5.668,21.6143-12.5117,20.2-50.706,9.563-70.9053-2.9488-46.8252-29.0053-44.8789-71.6294-26.8222-100.7807,24.1709-39.0215,64.0224-50.544,103.7324-25.9468,38.5625,23.8867,43.6787,64.8511,26.6162,92.3955-7.1084,11.4771-12.4,12.3281-23.6475,5.3613Zm70.7051,17.1172c7.69-16.5161,3.1806-34.8726-11.74-44.1147-16.7558-10.379-33.2539-6.3057-47.0214,7.7163Z" transform="translate(-52.8879 -40.896)"/><path d="M1803.3394,325.3438c7.8281-8.9366,17.05-11.2676,26.3925-3.0835s8.2442,17.6323.416,26.5683l-3.3808,3.8589.4062.356c17.9346-3.6724,35.46-1.96,52.3164,12.8066,17.8721,15.6567,29.5411,41.6728,3.209,71.731L1832.17,495.26c-6.9385,7.9209-16.2373,11.98-27.8135,1.8379s-8.7773-19.8931-1.8379-27.814l45.3682-51.7891c10.4971-11.9824,12.08-25.6718-.7148-36.8808a30.6125,30.6125,0,0,0-43.0039,3.6069l-42.878,48.9458c-6.9384,7.9209-16.2373,11.98-27.8144,1.8379s-8.7764-19.8931-1.8379-27.814Z" transform="translate(-52.8879 -40.896)"/></g><g id="circle"><path d="M1160.5825,380.45A776.7159,776.7159,0,0,1,1596.995,513.7345a783.0563,783.0563,0,0,1,282.8829,343.4983,779.5181,779.5181,0,0,1-71.9625,740.2471,783.0547,783.0547,0,0,1-343.4983,282.8832A779.5181,779.5181,0,0,1,724.17,1808.4006,783.057,783.057,0,0,1,441.2868,1464.902a779.5181,779.5181,0,0,1,71.9625-740.2471A783.0586,783.0586,0,0,1,856.7479,441.772,775.68,775.68,0,0,1,1160.5825,380.45m0-55c-461.4989,0-835.6178,374.1185-835.6178,835.6174s374.1189,835.6178,835.6178,835.6178S1996.2,1622.5663,1996.2,1161.0674,1622.0814,325.45,1160.5825,325.45Z" transform="translate(-52.8879 -40.896)"/></g><g id="arcs"><path id="arc_base" data-name="arc base" class="cls-3" d="M164.14,1146.8752A992.1725,992.1725,0,0,1,381.9865,539.008" transform="translate(-52.8879 -40.896)"/><path id="arc_base-2" data-name="arc base" class="cls-3" d="M1939.1789,539.0085a992.1722,992.1722,0,0,1,217.8466,607.8667" transform="translate(-52.8879 -40.896)"/></g></g></g></g></svg>