<svg xmlns="http://www.w3.org/2000/svg" viewBox="0 0 2048.0841 2233.5846"><defs><style>.cls-1{fill:#f280a1;}.cls-2{fill:#fff;}.cls-3{fill:#96c;}.cls-4{fill:none;stroke:#f280a1;stroke-linecap:round;stroke-miterlimit:10;stroke-width:55px;}</style></defs><g id="Layer_2" data-name="Layer 2"><g id="inner"><g id="light"><path id="plate" class="cls-1" d="M1392.2946,1546.1588c2.9827,33.3678-18.6411,54.2459-43.3406,56.39H634.4373a100.1961,100.1961,0,0,1-33.5541-5.1263,45.298,45.298,0,0,1-27.9618-51.7293Z" transform="translate(0 -40.896)"/><path id="cup" class="cls-1" d="M1335.439,1091.3956c9.3206,1.1184,17.4294,1.6776,25.6316,3.2623a146.7991,146.7991,0,0,1,81.928,42.5018,114.55,114.55,0,0,1,28.987,111.2879c-11.8372,47.0691-42.3154,79.8776-83.8853,103.0858a184.6415,184.6415,0,0,1-125.7349,20.3188,9.3206,9.3206,0,0,0-11.0915,4.66c-16.2179,23.5811-32.5289,47.2555-49.3992,70.4637a443.4715,443.4715,0,0,1-49.0262,55.1778,15.0061,15.0061,0,0,1-12.1168,3.6351H855.4285a29.0823,29.0823,0,0,1-13.4217-3.2623,273.0947,273.0947,0,0,1-96.2817-89.0117A472.5511,472.5511,0,0,1,680.481,1265.97a729.6821,729.6821,0,0,1-18.6412-96.0953,423.4342,423.4342,0,0,1-4.1943-70.37,58.1605,58.1605,0,0,1,31.0376-52.3817,57.4183,57.4183,0,0,1,17.8024-4.94,121.75,121.75,0,0,1,16.4974,0h555.0413a52.7546,52.7546,0,0,1,53.78,37.2824A100.6227,100.6227,0,0,0,1335.439,1091.3956Zm-51.45,228.3547a220.6246,220.6246,0,0,0,40.265-.4661,111.0084,111.0084,0,0,0,78.293-53.9662,77.0812,77.0812,0,0,0-3.5419-85.2833,87.1471,87.1471,0,0,0-52.3817-32.2493c-3.8215-.9322-7.643-1.3049-11.1847-1.8641-3.2622,20.8781-5.3128,41.0105-9.3206,60.4907a443.4811,443.4811,0,0,1-17.0567,56.8556c-7.0837,18.8274-16.1247,36.7229-24.7928,56.4825Z" transform="translate(0 -40.896)"/><path id="relfection" class="cls-2" d="M879.6621,1453.4075l1.4913.7457-.7457-1.398c-4.8467-10.3459-10.1594-20.4122-14.3537-30.9445-12.0236-29.6394-24.42-59.1858-35.0455-89.2913a460.1586,460.1586,0,0,1-27.9617-143.1643,215.5826,215.5826,0,0,1,10.9983-82.4873,45.1217,45.1217,0,0,0,1.4913-7.8292h-84.631c0,4.4738-.7457,7.3632-.6524,10.2527,0,12.4895.6524,24.9791,1.7709,37.2823,2.1438,23.0219,3.5418,46.603,7.4565,68.9724a436.6716,436.6716,0,0,0,48.6535,145.5876,234.6939,234.6939,0,0,0,84.631,89.5709A45.5726,45.5726,0,0,0,879.6621,1453.4075Z" transform="translate(0 -40.896)"/><g id="smoke"><path class="cls-3" d="M1088.9093,605.823c-116.0413,145.6809,210.1794,230.4051-35.5114,385.593,47.6282-60.6771,47.8147-123.6844-19.2937-190.7926C974.3593,740.7852,1000.83,612.2542,1088.9093,605.823Z" transform="translate(0 -40.896)"/><path class="cls-3" d="M924.4009,990.1111C957.21,942.39,958.0483,888.8894,911.2589,842.1c-41.7563-41.7563-35.7911-154.9083,40.0785-164.0424C856.2674,795.3107,1118.642,868.757,925.24,990.95Z" transform="translate(0 -40.896)"/></g></g></g><g id="outer"><g id="light-2" data-name="light"><g id="text"><path d="M273.4522,1701.91c27.0542,38.4345,17.7529,76.4726,3.4424,86.5459-9.4043,6.6191-18.7261,5.538-25.7774-4.48-13.6714-19.4219,16.9351-32.4053-4.6509-63.07-14.8222-21.0576-45.249-25.6269-77.1416-3.1777-26.7812,18.8516-42.604,45.8877-22.1694,74.918,18.564,26.3721,46.3447,5.9,57.7134,22.0508,5.7558,8.1777,6.81,19.665-1.3672,25.4209-21.2617,14.9658-60.4507,4.0293-83.3315-28.4766-32.3789-45.998-25.146-91.752,25.5546-127.44C187.2251,1654.9883,240.066,1654.4814,273.4522,1701.91Z" transform="translate(0 -40.896)"/><path d="M341.938,1806.1611c9.0244-4.0459,15.9136-1.7334,22.9693,5.3535l6.8794,6.9083c6.5263,6.5556,10.7529,13.9892,4.893,26.1738l-62.6865,132.2685c-1.7764,3.8848-5.15,10.7715-8.3389,13.9463-7.0859,7.0557-18.9287,6.5-26.3369-.94-6.35-6.377-8.6333-13.2764-5.081-21.0469l13.85-28.6074-46.5674-46.7686-28.8433,13.5489c-7.6094,3.6963-13.97,1.914-20.8486-4.9942-7.938-7.9726-8.4458-18.4033-.6509-26.164,3.189-3.1748,10.09-6.52,13.9829-8.2784Zm-5.2129,40.1172-.353-.3545-68.3076,33.793,33.8672,34.0137Z" transform="translate(0 -40.896)"/><path d="M412.4673,1894.6768c10.8125-14.7032,21.8726-13.7061,33.5537-5.1153l72.7056,53.47c9.6675,7.1094,14.6426,15.1133,6.94,25.586s-16.8247,8.1084-26.4917.999l-59.01-43.3984-24.8838,33.8359,49.9473,36.7324c8.66,6.3692,13.73,13.8223,6.1762,24.0938s-16.1787,7.6523-24.8388,1.2832L396.6182,1985.43l-33.3262,45.3154c-7.2578,9.8682-18.59,11.7744-28.6606,4.3692s-11.627-18.792-4.3692-28.66Z" transform="translate(0 -40.896)"/><path d="M528.0616,1977.9453c8.3911-16.207,19.4716-16.9463,32.3486-10.2793l85.4756,44.2539c10.6567,5.5176,16.8183,12.6485,10.8408,24.1934s-15.3564,10.63-26.0132,5.1123l-70.3789-36.4375-17.9316,34.6348,61.72,31.955c9.5469,4.9424,15.7158,11.5147,9.854,22.8369s-14.79,10.0791-24.3369,5.1368l-61.72-31.9551-20,38.6308,72.1552,37.3575c10.6568,5.5166,16.8179,12.6484,10.8409,24.1933s-15.357,10.63-26.0137,5.1123l-87.252-45.1728c-12.8769-6.667-18.67-16.1416-10.2788-32.3487Zm99.5859-28.6767c6.2793-1.253,13.4551-2.6055,18.7832.1533,8.8809,4.5976,7.9658,13.9775,5.667,18.4179-2.1841,4.2178-7.2539,6.9424-14.4219,7.7354l-26.9927,3.1982c-7.5044.9-10.0615-.1416-12.2817-1.291-5.1064-2.6435-9.5986-9.1924-5.69-16.7412,2.0688-3.9961,5.0024-5.8555,11.9555-7.3232Z" transform="translate(0 -40.896)"/><path d="M668.0127,2042.9951c4.649-15.832,16.5-16.26,27.0537-13.1611l11.5137,3.3808c12.2334,3.5928,16.5811,10.08,16.7852,24.47l1.76,120.8916.48.1406,66.3623-100.8877c7.9512-11.9951,15.1172-15.1016,27.35-11.51l11.0342,3.24c10.5542,3.0986,20.2915,9.8662,15.6431,25.6972L804.7911,2235.58c-2.8882,9.8349-10.4327,17.78-23.1456,14.0478s-14.7631-14.497-11.8754-24.331l31.4135-106.9815-.4795-.1406-70.3676,103.88c-5.0332,7.3808-12.0162,8.9785-20.1714,6.584s-13.166-7.5147-13.41-16.4444l-3.0322-125.4336-.48-.1406-31.4141,106.9805c-2.8877,9.8349-10.4316,17.7812-23.145,14.0478s-14.7632-14.4961-11.8755-24.331Z" transform="translate(0 -40.896)"/><path d="M909.47,2092.9785c4.3662-8.873,11.1464-11.4883,21.101-10.5342l9.7051.93c9.2075.8828,17.2051,3.9092,20.4683,17.03l36.1323,141.8418c1.1118,4.125,2.9087,11.58,2.48,16.06-.9541,9.9541-10.4273,17.083-20.8794,16.081-8.9585-.8584-15.1187-4.7138-17.3418-12.9638l-7.59-30.8643-65.6978-6.2959L874.2847,2253.1c-3.501,7.7012-9.5347,10.3877-19.24,9.458-11.1988-1.0732-18.2452-8.7812-17.1958-19.7305.4292-4.4794,3.6093-11.458,5.4838-15.2959Zm4.3364-58.3515a18.25,18.25,0,1,1-19.9077,16.4257A18.3528,18.3528,0,0,1,913.8067,2034.627Zm17.2475,92.5664-.498-.0479-31.0313,69.6065,47.78,4.5791Zm33.5191-87.7a18.2492,18.2492,0,1,1-19.9077,16.4248A18.3513,18.3513,0,0,1,964.5733,2039.4932Z" transform="translate(0 -40.896)"/><path d="M1119.4414,2161.9922c37.9834,5.9844,48.9444,27.5527,50.3428,48.5068,2.1641,32.4287-20.667,58.2569-70.0586,61.5528-51.8857,3.4628-76.8159-20.9317-78.1142-40.3887-.6661-9.9785,6.1025-17.4453,16.08-18.1113,22.2012-1.4815,18.628,31.33,60.0372,28.5664,21.2031-1.4151,32.1445-13.9219,31.3457-25.8955-.4825-7.2344-4.5079-14.9834-18.71-17.544l-46.9307-8.6435c-37.8008-6.9991-45.9013-27.0049-47.1831-46.212-2.6635-39.9121,33.2564-57.3437,67.93-59.6572,31.93-2.1308,70.7949,13.3154,72.3936,37.2627.6826,10.2275-7.6495,16.7969-17.627,17.4629-18.958,1.2656-17.2471-25.6592-55.4131-23.1113-18.959,1.2646-28.8525,10.6943-28.0205,23.167s16.0654,15.4648,29.2373,17.5927Z" transform="translate(0 -40.896)"/><path d="M1221.9746,2104.7l-37.7539,8.7295c-11.4482,2.6474-22.0556-1.0586-24.59-12.02s5.3691-18.9463,16.8174-21.5938l115.4551-26.6953c11.4482-2.6475,22.0556,1.0586,24.59,12.02s-5.3691,18.9463-16.8174,21.5938l-37.7549,8.73,28.8926,124.9541c2.76,11.9355-3.1758,21.7754-15.3545,24.5918s-21.832-3.42-24.5918-15.3545Z" transform="translate(0 -40.896)"/><path d="M1325.13,2068.1865c-6.9306-16.8838-.3262-25.81,13.0879-31.3174l89.042-36.5517c11.1016-4.5567,20.5254-4.6426,25.4619,7.3847s-1.8281,18.587-12.93,23.1436l-73.3154,30.0967,14.8115,36.0791,64.2949-26.3936c9.9444-4.082,18.9473-4.5351,23.7891,7.26s-1.8818,17.7988-11.8271,21.8809l-64.295,26.3935,16.52,40.2422,75.165-30.8555c11.1016-4.5566,20.5254-4.6416,25.4629,7.3848s-1.8291,18.5869-12.9307,23.1445l-90.8916,37.3115c-13.414,5.5059-24.3867,3.794-31.3174-13.0888Z" transform="translate(0 -40.896)"/><path d="M1467.8,2008.167c-9.7011-15.457-4.7119-25.3779,7.5694-33.0859l57.8066-36.2832c41.29-25.9161,66.5225-10.1709,78.8819,9.5214,10.3671,16.5166,10.86,38.9346-3.2637,53.1123l.2656.4239c19.3818-8.6231,30.665,2.3,40.3672,17.7578,11.03,17.5742,19.81,21.2148,24.3281,28.414,5.05,8.0469.2481,18.7354-7.7988,23.7852-19.0566,11.9619-32.1016-5.53-35.9561-11.6709-16.7461-26.68-28.3945-34.4219-47.4511-22.4609l-34.3037,21.5312,28.0429,44.6777c6.5127,10.376,4.1221,21.6163-6.4648,28.2618s-21.749,3.91-28.2617-6.4649Zm64.4971,25.6348,34.7266-21.7959c13.1279-8.24,24.13-19.8682,13.3652-37.02-10.2344-16.3047-22.8437-14.2929-38.09-4.7236l-35.7852,22.4609Z" transform="translate(0 -40.896)"/><path d="M1606.1768,1907.7422c-7.7441-9.4912-6.7617-20.94,2.9228-28.8428s21.0987-6.5683,28.8428,2.9229l91.9854,112.73c7.7451,9.4912,6.7617,20.94-2.9229,28.8428s-21.0986,6.5684-28.8428-2.9228Z" transform="translate(0 -40.896)"/><path d="M1661.1465,1873.1982c-13.0722-12.7343-10.5625-23.5507-.4453-33.9375l67.1592-68.9443c8.373-8.5957,16.9853-12.4219,26.2969-3.3506s5.7138,17.78-2.6592,26.376l-55.2969,56.7676,27.9365,27.2119,48.4932-49.7832c7.501-7.7,15.5811-11.6953,24.7139-2.7988s5.3505,17.0781-2.15,24.7783l-48.4932,49.7832,31.1592,30.3525,56.6924-58.2c8.373-8.5957,16.9853-12.4209,26.2978-3.3506s5.7139,17.7813-2.6592,26.377l-68.5546,70.3769c-10.1172,10.3868-20.8653,13.18-33.9375.4454Z" transform="translate(0 -40.896)"/><path d="M1804.9082,1726.4473,1782.83,1758.291c-6.6943,9.6563-17.0381,14.0449-26.2832,7.6348s-8.7627-17.6358-2.0683-27.291l67.5175-97.3809c6.6944-9.6553,17.0381-14.0439,26.2832-7.6338s8.7627,17.6348,2.0674,27.291l-22.0781,31.8438,105.3935,73.0722c10.0665,6.9795,12.2881,18.254,5.1661,28.5264s-18.46,12.1455-28.5264,5.166Z" transform="translate(0 -40.896)"/><path d="M254.9268,376.5034c-12.7163-15.06-8.8833-26.4243,3.082-36.5273l41.26-34.8389c36.9277-31.1807,84.3476-43.6572,133.4707,14.519,39.7158,47.0362,36.51,96.39-8.67,134.5386l-40.6407,34.3164c-11.9653,10.1031-23.811,11.9781-36.5273-3.082Zm119.5366,72.9312,28.4693-24.0391c27.0253-22.8193,15.309-54.2725-4.0264-77.1714C374.17,318.93,348.05,310.5942,323.294,331.4976l-28.2632,23.8647Z" transform="translate(0 -40.896)"/><path d="M519.979,273.521c10.4263-6.2378,21.2622-7.0581,28.3321,4.7578s1.2246,20.9775-9.2017,27.2153l-38.2285,22.8736c-10.4263,6.2383-21.2622,7.0581-28.332-4.7578s-1.2246-20.9771,9.2016-27.2154Z" transform="translate(0 -40.896)"/><path d="M592.5108,179.6484c27.4736-11.9746,59.9419-13.1665,67.17,3.417,3.668,8.4151,1.2114,18.3218-8.1938,22.4214-14.1084,6.1489-21.8316-10.2187-44.6026-.2934-12.623,5.5019-19.2807,12.5268-15.9365,20.2,3.668,8.4155,12.6987,6.8354,24.9155,4.456l16.6089-3.1152c22.5933-4.2515,50.8726-6.2686,61.8765,18.9775,12.8379,29.4541-9.6929,55.4737-36.9195,67.34-32.6714,14.24-66.2627,11.5039-74.03-6.3174-3.4522-7.92-2.1255-17.04,8.0224-21.4629,15.5933-6.7964,26.7876,14.8325,53.5191,3.1811,12.8706-5.6093,18.5576-14.8623,15.3213-22.2876-3.9917-9.1582-12.56-7.1909-26.8326-4.7988l-23.5517,4.08c-23.3037,3.9722-43.4155,2.4292-53.9878-21.8271C543.0518,214.1646,567.5118,190.5444,592.5108,179.6484Z" transform="translate(0 -40.896)"/><path d="M740.1294,211.4648c5.2661,20.1123,22.1558,31.32,44.3579,25.5069,28.732-7.5225,23.8077-26.3291,39.2188-30.3643,9.1421-2.3935,17.7236,3.7329,19.57,10.7852,6.0181,22.9858-28.0068,43.3379-50.9927,49.3559-53.2846,13.9517-82.8349-16.8276-91.52-50-11.6264-44.4038,7.481-81.2246,52.6685-93.0561,43.8818-11.49,77.0952,13.0278,85.3017,44.3721,3.42,13.06.3907,17.4814-12.4082,20.8325Zm61.1226-39.4482c-6.6719-16.9536-23.083-26.333-40.061-21.8877-19.0674,4.9927-27.483,19.7559-26.8062,39.3955Z" transform="translate(0 -40.896)"/><path d="M855.4541,67.0527c-1.3007-12.8945,5.812-20.396,17.6319-21.5883s20.2876,4.7373,21.5884,17.6318l8.997,89.1855,38.64-52.7436c3.5962-4.7046,8.375-8.4434,14.2846-9.04,8.8648-.894,19.3213,5.92,20.3242,15.86.7046,6.9844-1.4965,9.3774-4.6093,13.4907l-25.95,33.2818,46.36,50.6816a21.514,21.514,0,0,1,5.3028,12.2192c1.0029,9.94-6.1348,19.8858-16.6114,20.9429-9.67.9756-15.2622-3.3452-18.6509-7.3452l-42.3554-48.6431-12.481,13.47,3.0083,29.8184c1.3008,12.894-5.812,20.396-17.6318,21.5884s-20.2876-4.7378-21.5884-17.6319Z" transform="translate(0 -40.896)"/><path d="M1022.21,118.3628l-6.7485-.1411c-11.0679-.2315-15.5664-4.6465-15.3858-13.2847s4.86-12.8613,15.9278-12.63l6.7485.1411.5024-24.0249c.271-12.9575,8.2408-19.5424,20.1177-19.2939s19.5654,7.1606,19.294,20.1182l-.502,24.0249,11.877.2485c11.6074.2427,17.7431,3.8818,17.5459,13.33s-6.48,12.8276-18.0879,12.5849l-11.877-.2485-1.6484,78.8233c-.125,5.9389,3.0468,9.246,10.0654,9.3925l5.6689.1187c8.6377.1806,13.6651,5.147,13.49,13.5151-.2373,11.3379-10.085,17.3433-28.9805,16.9478-28.6142-.5982-40.2436-12.7241-39.7578-35.9395Z" transform="translate(0 -40.896)"/><path d="M1114.2989,112.5542c1.0879-10.4736,6.3339-19.1577,21.6416-17.5669s18.6552,11.168,17.5673,21.6416l-11.247,108.2275c-1.0889,10.4737-6.335,19.1582-21.6426,17.5674s-18.6553-11.1684-17.5664-21.6421ZM1141.55,41.0078a20.52,20.52,0,1,1-22.5312,18.2891A20.5111,20.5111,0,0,1,1141.55,41.0078Z" transform="translate(0 -40.896)"/><path d="M1260.6953,115.45c46.3545,10.4521,63.9864,47.6406,54.8409,88.2017-8.6709,38.4536-35.0313,68.2133-87.4444,56.3955s-63.4521-50.0113-54.7822-88.4649C1182.4551,131.0215,1214.34,104.998,1260.6953,115.45Zm-26.19,116.1519c22.9151,5.1665,37.292-13.18,42.5772-36.6211,5.6416-25.021-.4131-46.0376-22.8008-51.0855s-36.876,11.3364-42.5176,36.3574C1206.4786,203.6938,1211.5909,226.4351,1234.5049,231.6021Z" transform="translate(0 -40.896)"/><path d="M1360.8692,161.7676c4.5039-10.9932,12.4687-16.1919,23.9619-11.4834s13.5215,14.001,9.0176,24.9941l-1.9444,4.7471.5.2051c15.7705-9.2954,32.9024-13.3648,53.64-4.8692,21.9863,9.0074,41.4678,29.8267,26.3193,66.8042l-29.0693,70.9566c-3.9912,9.7441-11.4688,16.6015-25.711,10.7671s-14.7587-15.9668-10.7666-25.711l26.1006-63.7109c6.0391-14.7412,3.0928-28.2031-12.6474-34.6514a30.6117,30.6117,0,0,0-39.5039,17.3711L1356.0977,277.4c-3.9922,9.7441-11.47,16.6011-25.7109,10.7671S1315.628,272.2,1319.62,262.4561Z" transform="translate(0 -40.896)"/><path d="M1516.3848,300.9663c-10.9473,17.6743-7.4326,37.6377,12.0781,49.7232,25.2491,15.64,35.4864-.8868,49.0283,7.5019,8.0342,4.9761,9.5079,15.417,5.668,21.6143-12.5117,20.2-50.706,9.563-70.9053-2.9488-46.8252-29.0053-44.8789-71.6294-26.8222-100.7807,24.1709-39.0215,64.0224-50.544,103.7324-25.9468,38.5625,23.8867,43.6787,64.8511,26.6162,92.3955-7.1084,11.4771-12.4,12.3281-23.6475,5.3613Zm70.7051,17.1172c7.69-16.5161,3.1806-34.8726-11.74-44.1147-16.7558-10.379-33.2539-6.3057-47.0214,7.7163Z" transform="translate(0 -40.896)"/><path d="M1666.7989,325.3438c7.8281-8.9366,17.05-11.2676,26.3925-3.0835s8.2442,17.6323.4161,26.5683l-3.3809,3.8589.4062.356c17.9346-3.6724,35.46-1.96,52.3165,12.8066,17.872,15.6567,29.541,41.6728,3.2089,71.731L1695.63,495.26c-6.9385,7.9209-16.2373,11.98-27.8135,1.8379s-8.7773-19.8931-1.8378-27.814l45.3681-51.7891c10.4971-11.9824,12.08-25.6718-.7148-36.8808a30.6125,30.6125,0,0,0-43.0039,3.6069l-42.878,48.9458c-6.9384,7.9209-16.2373,11.98-27.8144,1.8379s-8.7764-19.8931-1.8379-27.814Z" transform="translate(0 -40.896)"/></g><g id="circle"><path d="M1024.042,380.45a776.7159,776.7159,0,0,1,436.4125,133.2847,783.0563,783.0563,0,0,1,282.8829,343.4983,779.5181,779.5181,0,0,1-71.9625,740.2471,783.0547,783.0547,0,0,1-343.4983,282.8832,779.5176,779.5176,0,0,1-740.247-71.9625A783.0565,783.0565,0,0,1,304.7463,1464.902a779.5181,779.5181,0,0,1,71.9625-740.2471A783.06,783.06,0,0,1,720.2074,441.772,775.68,775.68,0,0,1,1024.042,380.45m0-55c-461.4989,0-835.6178,374.1185-835.6178,835.6174s374.1189,835.6178,835.6178,835.6178S1859.66,1622.5663,1859.66,1161.0674,1485.5409,325.45,1024.042,325.45Z" transform="translate(0 -40.896)"/></g><g id="arcs"><path id="arc_base" data-name="arc base" class="cls-4" d="M114.8109,1569.5838A992.9842,992.9842,0,0,1,27.5,1161.0674c0-235.31,81.5571-451.5717,217.946-622.0594" transform="translate(0 -40.896)"/><path id="arc_base-2" data-name="arc base" class="cls-4" d="M1802.6384,539.0085c136.3887,170.4876,217.9457,386.7489,217.9457,622.0589a992.984,992.984,0,0,1-87.3112,408.517" transform="translate(0 -40.896)"/></g></g></g></g></svg>