<svg xmlns="http://www.w3.org/2000/svg" viewBox="0 0 2208.1421 2231.0861"><defs><style>.cls-1{fill:#96c;}.cls-2{fill:#f280a1;}.cls-3{fill:#fff;}.cls-4{fill:none;stroke:#f280a1;stroke-linecap:round;stroke-miterlimit:10;stroke-width:55px;}</style></defs><g id="Layer_2" data-name="Layer 2"><g id="inner"><g id="dark"><g id="brim"><path id="under" class="cls-1" d="M631.4847,1470.9634c-23.2528,1.2868-51.0839-15-55.1608-35.316-8.3864-41.7913,81.7679-110.4817,173.2658-118.0577a217.9719,217.9719,0,0,1,80.4446,8.7427c-53.5856,18.0542-87.9687,43.4317-109.93,64.2053C677.6414,1430.704,665.3017,1469.092,631.4847,1470.9634Z" transform="translate(-52.8876 -40.896)"/><path id="top" class="cls-2" d="M597.99,1339.2268c-3.4034,5.0734,3.0948,10.9083,7.764,6.9686a248.7041,248.7041,0,0,1,79.5213-45.3374,257.8178,257.8178,0,0,1,81.2711-13.3406c44.354-.2261,99.6682,12.4377,173.5248,57.0312,227.6527,137.4534,277.3334,183.3962,525.0086-60.6094a10.78,10.78,0,0,0-3.7981-17.7768c-73.0833-27.2966-382.4656-138.4421-534.9564-122.9837-4.781.4847-14.4487,1.4732-27.0192,3.82-42.5673,7.946-75.3714,23.3752-146.7156,67.5977-109.12,67.6381-130.2245,92.1921-140.775,105.61C606.6756,1326.7433,602.0822,1333.1275,597.99,1339.2268Z" transform="translate(-52.8876 -40.896)"/></g><path id="cap" class="cls-2" d="M1708.1334,1306.671a18.4469,18.4469,0,0,1-25.62,15.6186c-75.81-32.2187-139.0548-57.151-183.9679-74.3809l-.0031-.0013S1224.5532,1137.379,997.238,1114.102c-25.8325-2.6453-71.8146-6.1778-126.2718,9.3438A304.9928,304.9928,0,0,0,840.91,1133.74a9.3735,9.3735,0,0,1-12.6464-10.7344c13.9663-62.8266,70.4084-257.6987,248.38-339.2313,102.1887-46.8148,207.0631-38.1757,240.165-35.6879,84.6775,6.364,143.6679,33.804,179.7415,55.8124C1646.2722,895.2436,1723.7958,1089.8185,1708.1334,1306.671Z" transform="translate(-52.8876 -40.896)"/><path id="button" class="cls-1" d="M1361.7255,725.5388a451.5731,451.5731,0,0,0-108.4-6.3987c-1.9116-3.8345-3.1894-8.327-2.1293-12.8732,3.8534-16.5275,36.1332-23.1527,58.5691-21.8674,22.5635,1.2925,53.945,11.6569,55.7689,28.447C1366.08,717.8724,1363.8727,722.3589,1361.7255,725.5388Z" transform="translate(-52.8876 -40.896)"/></g></g><g id="outer"><g id="dark-2" data-name="dark"><g id="text"><path class="cls-3" d="M210.4131,1238.9014c16.7724-2.7676,25.0224,4.2314,27.8721,21.498,1.3837,8.3858-.6016,16.3154-7.2676,21.9766l-102.52,89.64.0821.4932,105.3222-17.3828c13.0733-2.1582,20.7081,4.1836,22.7022,16.27s-3.1963,20.5449-16.2695,22.7022l-139.3623,23.0009c-16.0323,2.6465-26.2989-2.7539-29.1075-19.7734-2.1172-12.8262-.0957-17.4668,7.1885-23.99l99.3945-88.6172-.082-.4932L76.0029,1301.1191c-13.0722,2.1582-20.707-4.1836-22.7021-16.2695s3.1972-20.5449,16.27-22.7021Z" transform="translate(-52.8876 -40.896)"/><path class="cls-3" d="M294.3545,1486.2676c20.7451,55.2334-4.7471,98.9922-54.1289,117.54-47.51,17.8447-100.7119,6.3145-122.3369-51.2588-22.68-60.3818,7.3213-99.958,58.3418-119.122C225.6123,1414.8789,273.6084,1431.0342,294.3545,1486.2676Zm-145.5723,54.6777c13.0977,34.8721,44.73,36.61,77.0264,24.4795s49.4316-36.1924,37.6523-67.5537-40.5166-38.1924-72.8144-26.0615S135.2441,1504.9033,148.7822,1540.9453Z" transform="translate(-52.8876 -40.896)"/><path class="cls-3" d="M315.0352,1590.7363c10.56-6.21,21.7265-3.4961,28.0625,7.2793s3.28,21.8526-7.2793,28.0625l-110.5518,65.01,34.7227,59.0469c5.956,10.1279,5.6,21.3584-4.0977,27.0615s-19.6855.5547-25.6416-9.5742l-43.34-73.7c-7.35-12.499-7.209-23.6035,8.5224-32.8535Z" transform="translate(-52.8876 -40.896)"/><path class="cls-3" d="M385.7959,1707.8945c9.5586-7.6631,21-6.581,28.8184,3.1729s6.3857,21.1562-3.1729,28.8183l-100.07,80.2188,42.8457,53.4482c7.35,9.169,8.61,20.334-.168,27.3711s-19.4013,3.377-26.7509-5.792l-53.48-66.7129c-9.0694-11.3144-10.5254-22.3232,3.7148-33.7382Z" transform="translate(-52.8876 -40.896)"/><path class="cls-3" d="M468.999,1817.1631c11.3262-12.6787,22.1416-12.4033,35.1934-.7442,6.3388,5.6622,9.7676,13.0821,8.1269,21.6739l-23.6025,134.125.373.333,71.1172-79.6133c8.8272-9.8818,18.751-9.7324,27.8868-1.5713s10.3984,18.0049,1.5712,27.8867l-94.1,105.3418c-10.8252,12.1192-22.2081,14.3545-35.0733,2.8623-9.6953-8.66-11.0322-13.542-9.4521-23.1924l21.81-131.3681-.373-.333-69.1182,77.375c-8.8272,9.8818-18.751,9.7334-27.8867,1.5722s-10.3994-18.0048-1.5723-27.8867Z" transform="translate(-52.8876 -40.896)"/><path class="cls-3" d="M608.9648,1930.5947c6.9288-10.1025,18.1914-12.3818,28.501-5.3125s12.24,18.3975,5.3125,28.5L560.49,2073.7773c-6.9277,10.1026-18.1914,12.3819-28.5,5.3125s-12.2412-18.3974-5.3125-28.5Z" transform="translate(-52.8876 -40.896)"/><path class="cls-3" d="M658.0215,1971.291c7.7451-15.1328,18.2783-17.6064,33.8564-9.6338,7.5664,3.8721,12.7627,10.1826,13.3516,18.9092L716.37,2116.293l.4444.2285,48.6318-95.0293c6.0361-11.7949,15.6738-14.1641,26.5791-8.584s14.62,14.7842,8.584,26.5791l-64.3487,125.74c-7.4033,14.4659-17.8486,19.5118-33.2041,11.6534-11.5732-5.9229-14.1035-10.3067-15.0185-20.043l-12.1758-132.6065-.4443-.2275-47.2657,92.3584c-6.0361,11.7949-15.6738,14.1641-26.5791,8.584s-14.62-14.7842-8.583-26.5791Z" transform="translate(-52.8876 -40.896)"/><path class="cls-3" d="M938.6387,2240.6709a13.6143,13.6143,0,0,1-17.2432,9.3682c-11.2969-3.2334-12.4267-11.0977-10.4287-27.169-15.3545,10.9483-33.5918,15.6113-58.1084,8.5947-61.05-17.4716-72.3272-66.207-58.4326-114.7587,16.7158-58.4063,62.4668-80.1582,116.0664-64.8194,43.7451,12.5195,59.5615,45.3906,55.1592,60.7735-3.9209,13.7-15.0469,14.416-23.46,12.0087-19.4687-5.5712-4.4853-30.6679-42.9424-41.6738-27.16-7.7734-53.6416,3.8916-66.1611,47.6358-9.7676,34.1308.3164,62.5009,32.5244,71.7187,20.91,5.9844,43.2363-2.97,51.2119-23.57l-25.7178-7.36c-8.413-2.4072-16.8925-8.2148-13.4531-20.2324,2.752-9.6142,9.8623-13.56,19.7168-10.74l48.5518,13.8945c11.5371,3.3018,14.4531,10.378,11.3574,21.1934Z" transform="translate(-52.8876 -40.896)"/><path class="cls-3" d="M1088.0732,2163.8936c36.4795,12.15,43.7432,35.2275,41.6758,56.125-3.2,32.3408-29.9678,54.0605-79.2256,49.1875-51.7461-5.1192-72.3232-33.2813-70.4033-52.6866.9844-9.9511,8.8877-16.2031,18.8389-15.2187,22.1416,2.19,13.22,33.9658,54.5176,38.0517,21.1464,2.0918,33.9951-8.4443,35.1767-20.3857.7139-7.2139-1.9814-15.52-15.5683-20.3809l-44.8672-16.2461c-36.1328-13.121-40.8321-34.1855-38.9366-53.3408,3.9376-39.8047,42.2334-51.0888,76.8145-47.6679,31.8438,3.15,67.6367,24.7793,65.2744,48.6621-1.01,10.1992-10.3076,15.3086-20.2588,14.3242-18.9072-1.87-12.79-28.1455-50.8535-31.9112-18.9072-1.87-30.2178,5.8028-31.4482,18.2422s13.3027,17.8965,25.9433,22.1612Z" transform="translate(-52.8876 -40.896)"/><path class="cls-3" d="M1152.5439,2110.7529c-.8935-12.2177,6.4834-21.0293,18.9493-21.94s21.0468,6.7324,21.94,18.9492l7.1846,98.2354c1.7871,24.4345,16.3017,34.4023,39.7392,32.6884s36.3477-13.6875,34.5606-38.122l-7.1846-98.2354c-.8936-12.2168,6.4834-21.0283,18.95-21.94s21.0469,6.7334,21.9394,18.95l6.9473,94.9941c3.6113,49.3672-25.1846,73.7823-72.8066,77.2647s-79.6621-16.4834-83.2725-65.85Z" transform="translate(-52.8876 -40.896)"/><path class="cls-3" d="M1377.36,2100.5771l-37.5694,9.4874c-11.3926,2.8759-22.0722-.6153-24.8262-11.5225s4.9873-19.0508,16.38-21.9268l114.8907-29.0107c11.3925-2.876,22.0722.6152,24.8261,11.5225s-4.9873,19.0507-16.38,21.9267l-37.57,9.4863,31.3975,124.3438c2.999,11.8769-2.7373,21.835-14.8565,24.8945s-21.8955-2.9795-24.8945-14.8564Z" transform="translate(-52.8876 -40.896)"/><path class="cls-3" d="M1587.3555,2071.6309c37.7715-7.2012,55.375,9.3964,63.77,28.6455,12.9932,29.79.23,61.8125-45.1426,81.6025-47.664,20.7881-79.37,6.251-87.166-11.623-3.998-9.167-.15-18.4815,9.0156-22.4795,20.3946-8.8946,28.1172,23.1943,66.1573,6.6035,19.4785-8.4951,25.5507-23.9629,20.7539-34.9629-2.8985-6.6455-9.3047-12.5791-23.5371-10.19l-47.0909,7.72c-37.9423,6.1836-52.3252-9.9092-60.0214-27.5537-15.9913-36.6651,11.9277-65.2061,43.78-79.0987,29.3321-12.7929,71.1309-11.3857,80.7256,10.6133,4.0977,9.3955-1.5244,18.3936-10.69,22.3916-17.416,7.5957-24.9014-18.3232-59.9629-3.0322-17.416,7.5957-23.542,19.8145-18.5449,31.2725s20.3457,9.1269,33.4609,6.68Z" transform="translate(-52.8876 -40.896)"/><path class="cls-3" d="M1619.2373,1991.9072c-6.668-10.2763-4.4473-21.5517,6.0391-28.3554s21.6865-4.2383,28.3545,6.038l32.3867,49.9131,15.4609-94.6679c1.2627-6.7793,2.6514-12.4483,8.7324-16.3946,8.18-5.3076,19.6241-5.581,25.3389,3.2266,3.4023,5.2432,2.9893,10.5771,1.958,15.4189l-11.1465,59.98,82.9658,36.4648c6.2754,2.7823,12.4883,5.0088,15.3458,9.4131,8.3007,12.793,1.3134,22.6914-6.8663,27.9981-6.92,4.4912-11.7841,5.2627-21.16.916l-79.3711-35.5186-6.6279,31.1221,22.1806,34.1836c6.668,10.2754,4.4473,21.5508-6.0381,28.3545s-21.6875,4.2383-28.3554-6.0381Z" transform="translate(-52.8876 -40.896)"/><path class="cls-3" d="M1791.7461,1837.3066c43.123-40.2666,93.3-33.4189,129.3008,5.1358,34.6367,37.0928,44.3,90.665-.65,132.6387-47.1426,44.02-95.1768,31.4091-132.3721-8.4249C1752.0225,1928.1016,1748.623,1877.5742,1791.7461,1837.3066Zm106.1279,113.6543c27.2256-25.4228,16.752-55.32-6.7939-80.5361s-52.3272-31.8623-76.8115-8.998-19.8243,52.0312,3.7226,77.247S1869.7344,1977.2373,1897.874,1950.9609Z" transform="translate(-52.8876 -40.896)"/><path class="cls-3" d="M1917.3,1758.3281l-23.3769,30.9053c-7.0879,9.3711-17.6045,13.3281-26.5772,6.541s-8.0264-17.9834-.9375-27.3545l71.4873-94.5088c7.0889-9.3711,17.6045-13.3281,26.5772-6.542s8.0263,17.9834.9384,27.3545l-23.3769,30.9053,102.2851,77.3691c9.7705,7.3907,11.5235,18.7481,3.9825,28.7168s-18.9463,11.3731-28.7168,3.9834Z" transform="translate(-52.8876 -40.896)"/><path class="cls-3" d="M2006.9844,1622.8047l-17.8565,34.3906c-5.415,10.4287-15.1172,16.0947-25.1025,10.9111s-10.9316-16.3808-5.5166-26.8085l54.6064-105.17c5.4141-10.4287,15.1172-16.0957,25.1016-10.9111s10.9316,16.3809,5.5176,26.8086l-17.8565,34.3916,113.8233,59.1c10.872,5.6445,14.5078,16.5469,8.747,27.6406s-16.7685,14.3916-27.6406,8.7471Z" transform="translate(-52.8876 -40.896)"/><path class="cls-3" d="M2046.1445,1520.6367c-17.3418-5.6855-19.8466-16.5039-15.3291-30.2832l29.9834-91.4619c3.7383-11.4033,9.79-18.6279,22.1436-14.5781s12.9541,13.4551,9.2158,24.8584L2067.47,1484.48l37.06,12.1494,21.6514-66.043c3.3486-10.2148,8.8476-17.3574,20.9629-13.3857s12.3183,12.9834,8.97,23.1992l-21.65,66.043,41.3359,13.5508,25.3116-77.208c3.7382-11.4034,9.79-18.628,22.1425-14.5782s12.9541,13.4551,9.2159,24.8584l-30.6075,93.3623c-4.5175,13.7793-12.94,21.0147-30.2832,15.33Z" transform="translate(-52.8876 -40.896)"/><path class="cls-3" d="M2110.5908,1325.5439l-5.7539,38.3194c-1.7451,11.6191-9.0889,20.123-20.2148,18.4521s-15.6475-11.956-13.9024-23.5752l17.5967-117.1836c1.7451-11.62,9.09-20.123,20.2148-18.4531s15.6475,11.9561,13.9024,23.5762l-5.7539,38.3193,126.8252,19.0449c12.1133,1.8194,19.084,10.9551,17.2275,23.3165s-11.2021,19.0468-23.3164,17.2285Z" transform="translate(-52.8876 -40.896)"/><path class="cls-3" d="M391.4668,376.5034c-12.7158-15.06-8.8828-26.4243,3.082-36.5273l41.26-34.8389c36.9277-31.1807,84.3476-43.6572,133.4707,14.519,39.7158,47.0362,36.51,96.39-8.67,134.5386l-40.6406,34.3164c-11.9649,10.1031-23.8106,11.9781-36.5274-3.082Zm119.5371,72.9312,28.4688-24.0391c27.0253-22.8193,15.3095-54.2725-4.0264-77.1714-24.7354-29.2944-50.8565-37.63-75.6123-16.7265l-28.2627,23.8647Z" transform="translate(-52.8876 -40.896)"/><path class="cls-3" d="M656.52,273.521c10.4258-6.2378,21.2617-7.0581,28.3321,4.7578s1.2246,20.9775-9.2022,27.2153l-38.2285,22.8736c-10.4258,6.2383-21.2617,7.0581-28.332-4.7578s-1.2246-20.9771,9.2021-27.2154Z" transform="translate(-52.8876 -40.896)"/><path class="cls-3" d="M729.0508,179.6484c27.4736-11.9746,59.9424-13.1665,67.17,3.417,3.668,8.4151,1.2119,18.3218-8.1934,22.4214-14.1084,6.1489-21.832-10.2187-44.6025-.2934-12.623,5.5019-19.2812,12.5268-15.9365,20.2,3.6679,8.4155,12.6982,6.8354,24.915,4.456l16.6094-3.1152c22.5928-4.2515,50.8721-6.2686,61.876,18.9775,12.8379,29.4541-9.6924,55.4737-36.919,67.34-32.6718,14.24-66.2627,11.5039-74.03-6.3174-3.4522-7.92-2.126-17.04,8.0224-21.4629,15.5928-6.7964,26.7871,14.8325,53.5186,3.1811,12.8711-5.6093,18.5576-14.8623,15.3213-22.2876-3.9913-9.1582-12.56-7.1909-26.8321-4.7988l-23.5517,4.08c-23.3037,3.9722-43.416,2.4292-53.9883-21.8271C679.5918,214.1646,704.0518,190.5444,729.0508,179.6484Z" transform="translate(-52.8876 -40.896)"/><path class="cls-3" d="M876.67,211.4648c5.2656,20.1123,22.1553,31.32,44.3574,25.5069,28.7325-7.5225,23.8077-26.3291,39.2188-30.3643,9.1426-2.3935,17.7236,3.7329,19.57,10.7852,6.0186,22.9858-28.0068,43.3379-50.9922,49.3559-53.2851,13.9517-82.8349-16.8276-91.52-50-11.6269-44.4038,7.4805-81.2246,52.668-93.0561,43.8818-11.49,77.0957,13.0278,85.3017,44.3721,3.42,13.06.3907,17.4814-12.4082,20.8325Zm61.1221-39.4482c-6.6719-16.9536-23.083-26.333-40.0606-21.8877-19.0673,4.9927-27.4834,19.7559-26.8066,39.3955Z" transform="translate(-52.8876 -40.896)"/><path class="cls-3" d="M991.9941,67.0527c-1.3007-12.8945,5.8125-20.396,17.6319-21.5883s20.2881,4.7373,21.5888,17.6318l8.9971,89.1855,38.64-52.7436c3.5966-4.7046,8.375-8.4434,14.2851-9.04,8.8643-.894,19.3213,5.92,20.3242,15.86.7041,6.9844-1.497,9.3774-4.6093,13.4907l-25.95,33.2818,46.36,50.6816a21.5106,21.5106,0,0,1,5.3028,12.2192c1.0029,9.94-6.1348,19.8858-16.6114,20.9429-9.67.9756-15.2617-3.3452-18.65-7.3452l-42.3554-48.6431-12.4815,13.47,3.0088,29.8184c1.3008,12.894-5.8125,20.396-17.6318,21.5884s-20.2881-4.7378-21.5889-17.6319Z" transform="translate(-52.8876 -40.896)"/><path class="cls-3" d="M1158.75,118.3628l-6.748-.1411c-11.0684-.2315-15.5665-4.6465-15.3858-13.2847s4.8594-12.8613,15.9277-12.63l6.7481.1411.5029-24.0249c.27-12.9575,8.24-19.5424,20.1172-19.2939s19.5654,7.1606,19.294,20.1182l-.502,24.0249,11.877.2485c11.6074.2427,17.7431,3.8818,17.5459,13.33s-6.48,12.8276-18.0879,12.5849l-11.877-.2485-1.6484,78.8233c-.125,5.9389,3.0468,9.246,10.0654,9.3925l5.6689.1187c8.6377.1806,13.6651,5.147,13.49,13.5151-.2373,11.3379-10.085,17.3433-28.98,16.9478-28.6142-.5982-40.2432-12.7241-39.7578-35.9395Z" transform="translate(-52.8876 -40.896)"/><path class="cls-3" d="M1250.8389,112.5542c1.0879-10.4736,6.334-19.1577,21.6416-17.5669s18.6552,11.168,17.5674,21.6416l-11.2471,108.2275c-1.0889,10.4737-6.335,19.1582-21.6426,17.5674s-18.6553-11.1684-17.5664-21.6421ZM1278.09,41.0078a20.52,20.52,0,1,1-22.5312,18.2891A20.5111,20.5111,0,0,1,1278.09,41.0078Z" transform="translate(-52.8876 -40.896)"/><path class="cls-3" d="M1397.2354,115.45c46.3544,10.4521,63.9863,47.6406,54.8408,88.2017-8.6709,38.4536-35.0313,68.2133-87.4444,56.3955s-63.4521-50.0113-54.7822-88.4649C1318.9951,131.0215,1350.88,104.998,1397.2354,115.45Zm-26.19,116.1519c22.9151,5.1665,37.292-13.18,42.5772-36.6211,5.6416-25.021-.4131-46.0376-22.8008-51.0855s-36.876,11.3364-42.5176,36.3574C1343.0186,203.6938,1348.1309,226.4351,1371.0449,231.6021Z" transform="translate(-52.8876 -40.896)"/><path class="cls-3" d="M1497.4092,161.7676c4.5039-10.9932,12.4687-16.1919,23.9619-11.4834s13.5215,14.001,9.0176,24.9941l-1.9444,4.7471.5.2051c15.77-9.2954,32.9024-13.3648,53.64-4.8692,21.9863,9.0074,41.4678,29.8267,26.3193,66.8042l-29.0693,70.9566c-3.9912,9.7441-11.4688,16.6015-25.711,10.7671s-14.7587-15.9668-10.7666-25.711l26.1006-63.7109c6.0391-14.7412,3.0928-28.2031-12.6474-34.6514a30.6117,30.6117,0,0,0-39.5039,17.3711L1492.6377,277.4c-3.9922,9.7441-11.47,16.6011-25.7109,10.7671S1452.168,272.2,1456.16,262.4561Z" transform="translate(-52.8876 -40.896)"/><path class="cls-3" d="M1652.9248,300.9663c-10.9473,17.6743-7.4326,37.6377,12.0781,49.7232,25.2491,15.64,35.4864-.8868,49.0283,7.5019,8.0342,4.9761,9.5079,15.417,5.668,21.6143-12.5117,20.2-50.706,9.563-70.9053-2.9488-46.8251-29.0053-44.8789-71.6294-26.8222-100.7807,24.1709-39.0215,64.0224-50.544,103.7324-25.9468,38.5625,23.8867,43.6787,64.8511,26.6162,92.3955-7.1084,11.4771-12.4,12.3281-23.6474,5.3613Zm70.7051,17.1172c7.69-16.5161,3.1806-34.8726-11.74-44.1147-16.7558-10.379-33.2539-6.3057-47.0214,7.7163Z" transform="translate(-52.8876 -40.896)"/><path class="cls-3" d="M1803.3389,325.3438c7.8281-8.9366,17.05-11.2676,26.3925-3.0835s8.2442,17.6323.4161,26.5683l-3.3809,3.8589.4063.356c17.9345-3.6724,35.46-1.96,52.3164,12.8066,17.872,15.6567,29.541,41.6728,3.2089,71.731L1832.17,495.26c-6.9385,7.9209-16.2373,11.98-27.8135,1.8379s-8.7773-19.8931-1.8378-27.814l45.3681-51.7891c10.4971-11.9824,12.08-25.6718-.7148-36.8808a30.6125,30.6125,0,0,0-43.0039,3.6069l-42.878,48.9458c-6.9384,7.9209-16.2373,11.98-27.8144,1.8379s-8.7764-19.8931-1.8379-27.814Z" transform="translate(-52.8876 -40.896)"/></g><g id="circle"><path class="cls-3" d="M1160.5823,380.45a776.7131,776.7131,0,0,1,436.4123,133.2847,783.0521,783.0521,0,0,1,282.8833,343.4983,779.5189,779.5189,0,0,1-71.9624,740.2471,783.0606,783.0606,0,0,1-343.4985,282.8832A779.5172,779.5172,0,0,1,724.17,1808.4006a783.0559,783.0559,0,0,1-282.883-343.4986,779.5189,779.5189,0,0,1,71.9624-740.2471A783.0592,783.0592,0,0,1,856.7476,441.772,775.6814,775.6814,0,0,1,1160.5823,380.45m0-55c-461.4988,0-835.6177,374.1185-835.6177,835.6174s374.1189,835.6178,835.6177,835.6178S1996.2,1622.5663,1996.2,1161.0674,1622.0811,325.45,1160.5823,325.45Z" transform="translate(-52.8876 -40.896)"/></g><g id="arcs"><path id="arc_base" data-name="arc base" class="cls-4" d="M164.1393,1146.8752A992.1725,992.1725,0,0,1,381.9863,539.008" transform="translate(-52.8876 -40.896)"/><path id="arc_base-2" data-name="arc base" class="cls-4" d="M1939.1787,539.0085a992.1729,992.1729,0,0,1,217.8467,607.8667" transform="translate(-52.8876 -40.896)"/></g></g></g></g></svg>