<svg xmlns="http://www.w3.org/2000/svg" viewBox="0 0 668.7068 1154.106"><g id="Layer_2" data-name="Layer 2"><g id="inner"><g id="silhouette"><path id="medal" d="M668.7068,819.7526c0,184.6583-149.6951,334.3534-334.3534,334.3534S0,1004.4109,0,819.7526,149.6951,485.3992,334.3534,485.3992,668.7068,635.0943,668.7068,819.7526Zm-398.8447-94.372L125.6552,746.3351,230.0043,848.05,205.3708,991.6746l128.9826-67.81,128.9826,67.81L438.7025,848.05,543.0516,746.3351,398.8447,725.3806,334.3534,594.707Z"/><g id="ribbon"><path id="right" d="M666.5129,0V378.8942l-74.7961,169.883a371.8258,371.8258,0,0,0-87.8543-62.1908V0Z"/><path id="middle" d="M463.1532,0V468.8346a375.4577,375.4577,0,0,0-241.1859-5.5992V0Z"/><path id="left" d="M180.9529,0V478.8718a371.1921,371.1921,0,0,0-92.4693,59.4255L18.3025,378.8942V0Z"/></g></g></g></g></svg>