<svg xmlns="http://www.w3.org/2000/svg" viewBox="0 0 668.7002 1154.1036"><defs><style>.cls-1{fill:#f280a1;}.cls-2{fill:#fff;}.cls-3{fill:#96c;}</style></defs><g id="Layer_2" data-name="Layer 2"><g id="inner"><g id="dark"><g id="medal"><circle id="base" class="cls-1" cx="334.3501" cy="819.7536" r="334.3501"/><polygon id="star" class="cls-2" points="334.35 594.707 398.841 725.381 543.048 746.335 438.699 848.05 463.333 991.675 334.35 923.864 205.368 991.675 230.001 848.05 125.652 746.335 269.859 725.381 334.35 594.707"/></g><g id="ribbon"><path id="right" class="cls-3" d="M666.51,0V378.8942l-74.7961,169.883a371.8258,371.8258,0,0,0-87.8543-62.1908V0Z"/><path id="middle" class="cls-1" d="M463.15,0V468.8346a375.4577,375.4577,0,0,0-241.1859-5.5992V0Z"/><path id="left" class="cls-3" d="M180.95,0V478.8718A371.1939,371.1939,0,0,0,88.48,538.2973L18.2992,378.8942V0Z"/></g></g></g></g></svg>