<svg xmlns="http://www.w3.org/2000/svg" viewBox="0 0 2227.0268 2230.2511"><defs><style>.cls-1{fill:#f280a1;}.cls-2{fill:#fff;}.cls-3{fill:#96c;}.cls-4{fill:none;stroke:#f280a1;stroke-linecap:round;stroke-miterlimit:10;stroke-width:55px;}</style></defs><g id="Layer_2" data-name="Layer 2"><g id="inner"><g id="light"><g id="medal"><circle id="base" class="cls-1" cx="1113.6397" cy="1392.1004" r="334.3534"/><polygon id="star" class="cls-2" points="1049.148 1297.728 904.941 1318.683 1009.291 1420.398 984.657 1564.022 1113.64 1496.212 1242.622 1564.022 1217.989 1420.398 1322.338 1318.683 1178.131 1297.728 1113.64 1167.055 1049.148 1297.728"/></g><g id="ribbon"><path id="right" class="cls-3" d="M1494.8973,613.2439V992.1381l-74.7961,169.883a371.8258,371.8258,0,0,0-87.8543-62.1908V613.2439Z" transform="translate(-49.0981 -40.896)"/><path id="middle" class="cls-1" d="M1291.5376,613.2439v468.8346a375.4559,375.4559,0,0,0-241.1859-5.5992V613.2439Z" transform="translate(-49.0981 -40.896)"/><path id="left" class="cls-3" d="M1009.3373,613.2439v478.8718a371.1917,371.1917,0,0,0-92.4693,59.4254l-70.1811-159.403V613.2439Z" transform="translate(-49.0981 -40.896)"/></g></g></g><g id="outer"><g id="light-2" data-name="light"><g id="text"><path d="M215.0181,1084.9053c16.4975-.2842,20.4409,10.9,20.63,21.8984l.2066,11.9985c.2192,12.7486-4.6768,18.834-18.3521,23.32l-114.8706,37.7334.0088.5,116.0928,33.2578c13.8213,4.0127,18.9238,9.9267,19.1435,22.6748l.1978,11.499c.1894,10.9981-3.3667,22.3115-19.8648,22.5957l-146.2319,2.5166c-10.2485.1768-20.0835-4.6553-20.3115-17.9033s9.4346-18.415,19.6831-18.5918l111.4863-1.9189-.0083-.5-120.144-36.1885c-8.5459-2.6035-12.1533-8.793-12.2993-17.292s3.2456-14.8076,11.6972-17.7041l118.8267-40.3023-.0083-.4995-111.4863,1.919c-10.2491.1762-20.0835-4.6553-20.312-17.9038s9.435-18.4156,19.6835-18.5918Z" transform="translate(-49.0981 -40.896)"/><path d="M216.436,1294.3818c17.8575-3.7636,25.4434,4.3457,28.4336,18.5342l19.8506,94.1826c2.4751,11.7422.8545,21.0254-11.8662,23.7071s-17.95-5.1592-20.4248-16.9014l-16.3442-77.5479-38.1621,8.044,14.3334,68.0068c2.2168,10.5186,1.0347,19.4551-11.4414,22.084s-17.165-5.0683-19.3818-15.5879L147.1,1350.8965l-42.5654,8.9717,16.7568,79.5039c2.4746,11.7422.8545,21.0263-11.8662,23.707s-17.95-5.1582-20.4248-16.9l-20.2632-96.14c-2.99-14.1885.6768-24.67,18.5352-28.4346Z" transform="translate(-49.0981 -40.896)"/><path d="M249.5034,1445.6592c16.9356-6.8,25.8106-.126,31.2129,13.33l18.6279,46.3984c16.6719,41.5273,13.8516,86.8389-51.5713,113.1045-52.8945,21.2363-95.3466,4.0674-115.7441-46.7393L113.68,1526.05c-5.4024-13.456-3.6055-24.4141,13.33-31.2129ZM150.6372,1529.53l12.853,32.0156c12.2012,30.3916,43.2564,29.2383,69.0078,18.8994,32.9434-13.2256,47.8653-33.7637,36.6885-61.6025l-12.76-31.7832Z" transform="translate(-49.0981 -40.896)"/><path d="M349.3149,1630.1377c9.7159-1.8477,15.8829,1.9971,21.107,10.5244l5.0932,8.3135c4.8321,7.8877,7.2237,16.0986-1.2978,26.5967l-91.604,114.17c-2.627,3.3691-7.5034,9.2881-11.3408,11.6387-8.5269,5.2236-19.92,1.9423-25.4048-7.0118-4.7017-7.6748-5.3262-14.915-.0713-21.6523l20.0962-24.626-34.4785-56.2793-31.1973,6.5049c-8.2583,1.835-14.0337-1.3711-19.127-9.6846-5.8769-9.5937-3.9565-19.8584,5.4234-25.6054,3.8374-2.3506,11.3257-4.0059,15.52-4.8164ZM334.957,1667.959l-.2612-.4258-74.2773,17.0645,25.0752,40.9306Z" transform="translate(-49.0981 -40.896)"/><path d="M402.3164,1727.6836c9.3579-7.9053,20.8223-7.1172,28.8882,2.4316s6.9258,20.9844-2.4326,28.8887L330.8,1841.7588l44.2007,52.3281c7.582,8.9766,9.1284,20.1055.5342,27.3643s-19.3076,3.874-26.8892-5.1026l-55.17-65.3144c-9.356-11.0772-11.0938-22.0449,2.8477-33.82Z" transform="translate(-49.0981 -40.896)"/><path d="M504.5244,1984.749c-25.02,28.2666-55.8227,31.3828-86.1479,4.54-36.8775-32.6416-22.0977-63.295-10.3335-76.586,10.1074-11.4189,21.811-14.08,31.1709-5.7949,11.0444,9.7754,6.23,20.8721-1.8887,30.0449-7.7876,8.7979-9.3032,18.8076,1.5542,28.418,10.1084,8.9473,22.352,6.4307,35.2764-8.1709l70.2548-79.37c8.1192-9.1729,19.5772-10.0479,28.9371-1.7627s9.8818,19.7637,1.7631,28.9365Z" transform="translate(-49.0981 -40.896)"/><path d="M588.7485,1925.042c9.9478-15.3008,21.0469-14.9424,33.2032-7.0391L702.646,1970.47c10.0605,6.541,15.4883,14.2451,8.4019,25.1436s-16.33,9.0644-26.3907,2.5224l-66.4414-43.1992-21.2593,32.6963,58.2676,37.8848c9.0127,5.86,14.5034,13.0088,7.5532,23.6982s-15.7114,8.5713-24.7241,2.711l-58.2671-37.8848-23.7124,36.47,68.1187,44.29c10.06,6.541,15.4883,14.2451,8.4018,25.1435s-16.33,9.0635-26.3906,2.5225l-82.3706-53.5567c-12.1567-7.9033-16.9868-17.9033-7.0386-33.2031Z" transform="translate(-49.0981 -40.896)"/><path d="M722.3413,2001.0674c5.0274-11.1709,15.709-15.4112,27.1079-10.2813s15.3086,15.9366,10.2813,27.1075l-52.6338,116.9541,62.4668,28.1132c10.7153,4.8223,16.916,14.1924,12.2988,24.4512s-15.7427,11.832-26.4575,7.01l-77.97-35.0889c-13.2232-5.9512-19.5264-15.0937-12.0367-31.7363Z" transform="translate(-49.0981 -40.896)"/><path d="M846.2964,2062.9551c4.8364-17.5977,15.5205-20.624,29.5019-16.7813l92.8077,25.5078c11.5708,3.18,19.08,8.8741,15.6347,21.4092s-12.8095,13.5908-24.38,10.41l-76.4156-21.002-10.3354,37.6045,67.0141,18.419c10.3653,2.8486,17.7666,7.9941,14.3877,20.288s-12.37,12.9346-22.7358,10.085l-67.0142-18.418-11.5283,41.9434,78.3442,21.5332c11.5708,3.18,19.08,8.874,15.6353,21.4082s-12.81,13.5918-24.3809,10.4111l-94.7358-26.038c-13.9814-3.8418-21.6177-11.9043-16.7812-29.502Z" transform="translate(-49.0981 -40.896)"/><path d="M996.6987,2094.832c1.3965-12.17,10.2852-19.4541,22.7036-18.0293s19.4253,10.5332,18.0289,22.7032l-14.6226,127.413,68.0527,7.81c11.6734,1.34,20.4273,8.3838,19.1446,19.5606s-11.4048,16.0537-23.0782,14.7138l-84.9414-9.748c-14.4052-1.6533-23.188-8.4483-21.1069-26.5791Z" transform="translate(-49.0981 -40.896)"/><path d="M1133.5386,2116.125c-.6851-18.2363,8.5918-24.3389,23.081-24.8828l96.18-3.6133c11.9912-.45,20.8662,2.7188,21.3545,15.709s-8.125,16.8164-20.1152,17.2666l-79.1924,2.9756,1.4639,38.9707,69.4492-2.6084c10.7422-.4033,19.3486,2.2754,19.8271,15.0156s-7.9023,16.0576-18.6445,16.4609l-69.4492,2.6094,1.6328,43.4678,81.19-3.05c11.9912-.45,20.8662,2.7187,21.3545,15.709s-8.125,16.8164-20.1162,17.2666l-98.1777,3.6885c-14.4893.5439-24.1983-4.8448-24.8833-23.0821Z" transform="translate(-49.0981 -40.896)"/><path d="M1287.2925,2101.8369c-2.4453-12.0039,3.7471-21.6846,15.9961-24.1787s21.7334,3.9922,24.1777,15.9951l11.876,58.3018,49.03-82.4434c3.6562-5.8467,7.0224-10.6152,14.1259-12.0615,9.5537-1.9463,20.3047,1.9873,22.4,12.2754,1.2481,6.124-1.0888,10.9375-3.8193,15.0654l-32.3223,51.7412,63.8662,64.2949c4.8223,4.8858,9.7891,9.2315,10.8369,14.376,3.044,14.9424-7.081,21.5977-16.6347,23.543-8.084,1.6475-12.8926.585-20.0283-6.8906l-60.8682-62.1-17.5557,26.538,8.1328,39.9288c2.4454,12.0039-3.747,21.6835-15.9951,24.1787s-21.7343-3.9922-24.1787-15.9952Z" transform="translate(-49.0981 -40.896)"/><path d="M1504.3511,2020.957c54.8261-21.7978,99.0635,2.8535,118.5517,51.8721,18.75,47.16,8.2383,100.5723-48.9111,123.293-59.9375,23.8291-100.0791-5.4092-120.2139-56.0537C1434.29,2091.05,1449.5249,2042.7539,1504.3511,2020.957Zm57.4492,144.5c34.6152-13.7617,35.749-45.4209,23.0029-77.48s-37.13-48.73-68.26-36.3545-37.4122,41.2392-24.6661,73.2988S1526.0239,2179.6807,1561.8,2165.457Z" transform="translate(-49.0981 -40.896)"/><path d="M1609.4839,2000.5879c-9.1465-13.7324-1.8623-23.09,7.293-29.1875l9.9873-6.6514c10.6113-7.0674,18.3769-6.2324,29.5361,2.8555l93.7773,76.3105.4161-.2763-34.6866-115.668c-4.084-13.8-1.8623-21.2871,8.7491-28.3545l9.5712-6.375c9.1553-6.0976,20.5967-9.2119,29.7432,4.5205l81.0693,121.72c5.6817,8.5313,6.9248,19.417-4.1025,26.7618s-20.5937,2.0019-26.2754-6.5284l-61.8066-92.7988-.416.2764,34.4062,120.66c2.4238,8.5987-.8379,14.9766-7.9121,19.6875s-14.2168,5.2637-21.2168-.2861L1659.5405,2009l-.416.2764,61.8067,92.7988c5.6816,8.5312,6.9248,19.417-4.1026,26.7617s-20.5937,2.002-26.2754-6.5283Z" transform="translate(-49.0981 -40.896)"/><path d="M1781.1431,1883.2754c-11.9014-11.4277-6.8145-22.14.8047-30.0742l8.3115-8.6563c8.831-9.1963,16.5928-10.0615,29.4551-3.6035l108.0722,54.2119.3467-.3613-58.8965-105.4238c-6.9746-12.59-6.4248-20.3809,2.4053-29.5772l7.9658-8.2959c7.6192-7.9336,18.1162-13.4512,30.0176-2.0234l105.4922,101.2969c7.3935,7.1,10.9629,17.4589,1.7851,27.0166s-19.6728,6.4111-27.0664-.6885l-80.4267-77.2276-.3457.36,59.7041,110.3594c4.2265,7.8711,2.4218,14.8027-3.4659,20.9345s-12.74,8.2149-20.7763,4.3116l-112.6905-55.1788-.3457.36,80.4258,77.2275c7.3936,7.1,10.9639,17.459,1.7862,27.0166s-19.6729,6.4112-27.0664-.6884Z" transform="translate(-49.0981 -40.896)"/><path d="M1920.1831,1729.1377c-9.9512-7.1436-11.9873-18.4541-4.6973-28.6074s18.6573-11.8418,28.6084-4.6973l118.1914,84.8545c9.9512,7.1436,11.9873,18.4541,4.6973,28.6074s-18.6572,11.8418-28.6074,4.6973Z" transform="translate(-49.0981 -40.896)"/><path d="M1994.3345,1648.9229l-18.9209,33.8164c-5.7373,10.2539-15.6123,15.6142-25.43,10.1211s-10.416-16.7129-4.6777-26.9668l57.8613-103.4131c5.7363-10.2539,15.6113-15.6143,25.43-10.1221,9.8174,5.4941,10.415,16.7139,4.6777,26.9678l-18.9209,33.8164,111.9209,62.622c10.69,5.9815,13.9834,16.9913,7.88,27.8995s-17.209,13.8623-27.8994,7.8808Z" transform="translate(-49.0981 -40.896)"/><path d="M2064.564,1502.332l-12.9414,36.5244c-3.9248,11.0752-12.753,18.0254-23.3565,14.2686s-13.0869-14.7158-9.1621-25.791l39.5772-111.6944c3.9238-11.0742,12.7519-18.0253,23.3564-14.2675s13.0859,14.7158,9.1621,25.79l-12.9424,36.5244,120.8848,42.834c11.5459,4.0918,16.65,14.3867,12.4756,26.169s-14.6231,16.5673-26.169,12.4765Z" transform="translate(-49.0981 -40.896)"/><path d="M2032.4624,1309.05c-3.05-5.6309-6.459-12.0879-5.3945-17.9922,1.7734-9.8418,11.0058-11.7344,15.9258-10.8467,4.6748.8418,8.7734,4.8829,11.6455,11.4971l11.0175,24.8477c3.0733,6.9052,2.8321,9.6552,2.3887,12.1162-1.0205,5.6582-5.9521,11.8828-14.3174,10.375-4.4287-.7989-7.07-3.0528-10.5234-9.2637Zm56.7715,86.6934c-17.96-3.2373-21.9336-13.6065-19.3613-27.877l17.0712-94.7217c2.128-11.81,7.125-19.8007,19.919-17.4941s14.6855,11.5371,12.5576,23.3467l-14.0566,77.9922,38.3808,6.9179,12.3272-68.3974c1.9072-10.5791,6.3672-18.4121,18.914-16.15s13.9932,11.1582,12.086,21.7373l-12.3272,68.3974,42.81,7.7159,14.4111-79.961c2.1289-11.81,7.125-19.8,19.919-17.4941s14.6865,11.5381,12.5576,23.3476l-17.4268,96.69c-2.5713,14.27-9.915,22.6-27.875,19.3623Z" transform="translate(-49.0981 -40.896)"/><path d="M2111.4663,1243.8711c-16.998-.2764-23.8633-8.6387-23.5791-26.1367.1387-8.499,3.51-15.9453,11.082-20.3233l116.9-69.8618.0088-.5-106.7373-1.7329c-13.248-.2153-19.626-7.82-19.4267-20.0684s6.8193-19.642,20.0683-19.4267l141.2324,2.293c16.2481.2641,25.3828,7.413,25.1036,24.6611-.212,12.9985-3.03,17.2031-11.3643,22.3188l-113.6436,69.4146-.0078.5,103.7373,1.6846c13.2491.2148,19.626,7.8193,19.4268,20.0683s-6.8193,19.6416-20.0684,19.4268Z" transform="translate(-49.0981 -40.896)"/><path d="M393.6226,376.5034c-12.7164-15.06-8.8833-26.4243,3.082-36.5273l41.26-34.8389c36.9277-31.1807,84.3476-43.6572,133.4707,14.519,39.7158,47.0362,36.51,96.39-8.67,134.5386l-40.6406,34.3164c-11.9653,10.1031-23.811,11.9781-36.5273-3.082Zm119.5366,72.9312,28.4692-24.0391c27.0254-22.8193,15.3091-54.2725-4.0263-77.1714-24.7359-29.2944-50.8565-37.63-75.6124-16.7265l-28.2631,23.8647Z" transform="translate(-49.0981 -40.896)"/><path d="M658.6748,273.521c10.4263-6.2378,21.2622-7.0581,28.332,4.7578s1.2246,20.9775-9.2016,27.2153l-38.2285,22.8736c-10.4263,6.2383-21.2622,7.0581-28.3321-4.7578s-1.2246-20.9771,9.2017-27.2154Z" transform="translate(-49.0981 -40.896)"/><path d="M731.2065,179.6484c27.4737-11.9746,59.9419-13.1665,67.17,3.417,3.6679,8.4151,1.2114,18.3218-8.1939,22.4214-14.1084,6.1489-21.8315-10.2187-44.6025-.2934-12.6231,5.5019-19.2808,12.5268-15.9365,20.2,3.6679,8.4155,12.6987,6.8354,24.9155,4.456l16.6089-3.1152c22.5932-4.2515,50.8725-6.2686,61.8764,18.9775,12.8379,29.4541-9.6928,55.4737-36.9194,67.34-32.6714,14.24-66.2627,11.5039-74.03-6.3174-3.4521-7.92-2.1255-17.04,8.0225-21.4629,15.5932-6.7964,26.7876,14.8325,53.519,3.1811,12.8706-5.6093,18.5576-14.8623,15.3213-22.2876-3.9917-9.1582-12.56-7.1909-26.8325-4.7988l-23.5518,4.08c-23.3037,3.9722-43.4155,2.4292-53.9878-21.8271C681.7476,214.1646,706.2075,190.5444,731.2065,179.6484Z" transform="translate(-49.0981 -40.896)"/><path d="M878.8252,211.4648c5.2661,20.1123,22.1558,31.32,44.3579,25.5069,28.7319-7.5225,23.8076-26.3291,39.2188-30.3643,9.142-2.3935,17.7236,3.7329,19.57,10.7852,6.018,22.9858-28.0069,43.3379-50.9927,49.3559-53.2847,13.9517-82.835-16.8276-91.5205-50-11.6265-44.4038,7.4809-81.2246,52.6684-93.0561,43.8819-11.49,77.0953,13.0278,85.3018,44.3721,3.42,13.06.3906,17.4814-12.4082,20.8325Zm61.1226-39.4482c-6.6719-16.9536-23.0831-26.333-40.0611-21.8877-19.0674,4.9927-27.4829,19.7559-26.8061,39.3955Z" transform="translate(-49.0981 -40.896)"/><path d="M994.15,67.0527c-1.3008-12.8945,5.812-20.396,17.6318-21.5883s20.2876,4.7373,21.5884,17.6318l8.9971,89.1855,38.64-52.7436c3.5962-4.7046,8.375-8.4434,14.2847-9.04,8.8647-.894,19.3213,5.92,20.3242,15.86.7046,6.9844-1.4966,9.3774-4.6094,13.4907l-25.95,33.2818,46.36,50.6816a21.514,21.514,0,0,1,5.3027,12.2192c1.0029,9.94-6.1348,19.8858-16.6113,20.9429-9.67.9756-15.2622-3.3452-18.6509-7.3452l-42.3555-48.6431-12.4809,13.47,3.0083,29.8184c1.3008,12.894-5.812,20.396-17.6319,21.5884s-20.2876-4.7378-21.5883-17.6319Z" transform="translate(-49.0981 -40.896)"/><path d="M1160.9058,118.3628l-6.7486-.1411c-11.0678-.2315-15.5664-4.6465-15.3857-13.2847s4.86-12.8613,15.9277-12.63l6.7486.1411.5024-24.0249c.271-12.9575,8.2407-19.5424,20.1177-19.2939s19.5654,7.1606,19.2939,20.1182l-.5019,24.0249,11.8769.2485c11.6074.2427,17.7432,3.8818,17.5459,13.33s-6.48,12.8276-18.0879,12.5849l-11.8769-.2485-1.6485,78.8233c-.125,5.9389,3.0469,9.246,10.0655,9.3925l5.6689.1187c8.6377.1806,13.665,5.147,13.49,13.5151-.2373,11.3379-10.0849,17.3433-28.98,16.9478-28.6143-.5982-40.2437-12.7241-39.7578-35.9395Z" transform="translate(-49.0981 -40.896)"/><path d="M1252.9946,112.5542c1.0879-10.4736,6.334-19.1577,21.6416-17.5669s18.6553,11.168,17.5674,21.6416l-11.2471,108.2275c-1.0888,10.4737-6.3349,19.1582-21.6425,17.5674s-18.6553-11.1684-17.5664-21.6421Zm27.251-71.5464a20.52,20.52,0,1,1-22.5312,18.2891A20.5111,20.5111,0,0,1,1280.2456,41.0078Z" transform="translate(-49.0981 -40.896)"/><path d="M1399.3911,115.45c46.3545,10.4521,63.9863,47.6406,54.8408,88.2017-8.6709,38.4536-35.0312,68.2133-87.4443,56.3955s-63.4522-50.0113-54.7822-88.4649C1321.1509,131.0215,1353.0356,104.998,1399.3911,115.45Zm-26.19,116.1519c22.915,5.1665,37.292-13.18,42.5771-36.6211,5.6416-25.021-.4131-46.0376-22.8007-51.0855s-36.876,11.3364-42.5176,36.3574C1345.1743,203.6938,1350.2866,226.4351,1373.2007,231.6021Z" transform="translate(-49.0981 -40.896)"/><path d="M1499.5649,161.7676c4.5039-10.9932,12.4688-16.1919,23.962-11.4834s13.5214,14.001,9.0175,24.9941l-1.9443,4.7471.5.2051c15.77-9.2954,32.9023-13.3648,53.64-4.8692,21.9864,9.0074,41.4678,29.8267,26.3194,66.8042L1581.99,313.1221c-3.9912,9.7441-11.4687,16.6015-25.7109,10.7671s-14.7588-15.9668-10.7666-25.711l26.1006-63.7109c6.0391-14.7412,3.0928-28.2031-12.6475-34.6514a30.6117,30.6117,0,0,0-39.5039,17.3711L1494.7935,277.4c-3.9922,9.7441-11.47,16.6011-25.711,10.7671s-14.7588-15.9668-10.7666-25.7109Z" transform="translate(-49.0981 -40.896)"/><path d="M1655.0806,300.9663c-10.9473,17.6743-7.4327,37.6377,12.0781,49.7232,25.249,15.64,35.4863-.8868,49.0283,7.5019,8.0342,4.9761,9.5078,15.417,5.668,21.6143-12.5117,20.2-50.7061,9.563-70.9053-2.9488-46.8252-29.0053-44.8789-71.6294-26.8223-100.7807,24.1709-39.0215,64.0225-50.544,103.7325-25.9468,38.5625,23.8867,43.6787,64.8511,26.6162,92.3955-7.1084,11.4771-12.4,12.3281-23.6475,5.3613Zm70.705,17.1172c7.6905-16.5161,3.1807-34.8726-11.74-44.1147-16.7558-10.379-33.2539-6.3057-47.0215,7.7163Z" transform="translate(-49.0981 -40.896)"/><path d="M1805.4946,325.3438c7.8282-8.9366,17.05-11.2676,26.3926-3.0835s8.2441,17.6323.416,26.5683l-3.3808,3.8589.4062.356c17.9346-3.6724,35.46-1.96,52.3164,12.8066,17.8721,15.6567,29.541,41.6728,3.209,71.731L1834.3257,495.26c-6.9385,7.9209-16.2373,11.98-27.8135,1.8379s-8.7773-19.8931-1.8379-27.814l45.3682-51.7891c10.4971-11.9824,12.08-25.6718-.7149-36.8808a30.6125,30.6125,0,0,0-43.0039,3.6069l-42.8779,48.9458c-6.9385,7.9209-16.2373,11.98-27.8145,1.8379s-8.7763-19.8931-1.8378-27.814Z" transform="translate(-49.0981 -40.896)"/></g><g id="circle"><path d="M1162.7378,380.45A776.7159,776.7159,0,0,1,1599.15,513.7345a783.0563,783.0563,0,0,1,282.8829,343.4983,779.5181,779.5181,0,0,1-71.9625,740.2471,783.0547,783.0547,0,0,1-343.4983,282.8832,779.5177,779.5177,0,0,1-740.2471-71.9625A783.057,783.057,0,0,1,443.4421,1464.902a779.5181,779.5181,0,0,1,71.9625-740.2471A783.0593,783.0593,0,0,1,858.9031,441.772,775.68,775.68,0,0,1,1162.7378,380.45m0-55c-461.4989,0-835.6179,374.1185-835.6179,835.6174s374.119,835.6178,835.6179,835.6178,835.6174-374.1189,835.6174-835.6178S1624.2367,325.45,1162.7378,325.45Z" transform="translate(-49.0981 -40.896)"/></g><g id="arcs"><path id="arc_base" data-name="arc base" class="cls-4" d="M181.4139,986.6154A992.2186,992.2186,0,0,1,384.1418,539.008" transform="translate(-49.0981 -40.896)"/><path id="arc_base-2" data-name="arc base" class="cls-4" d="M1941.3342,539.0085a992.218,992.218,0,0,1,202.7274,447.6066" transform="translate(-49.0981 -40.896)"/></g></g></g></g></svg>