<svg xmlns="http://www.w3.org/2000/svg" viewBox="0 0 990.2447 994.0569"><defs><style>.cls-1{fill:none;stroke:#f280a1;stroke-linecap:round;stroke-miterlimit:10;stroke-width:115px;}.cls-2{fill:#f280a1;}.cls-3{fill:#96c;}.cls-4{fill:#fff;}</style></defs><g id="Layer_2" data-name="Layer 2"><g id="inner"><g id="dark"><g id="ball"><g id="stand"><line class="cls-1" x1="57.5" y1="936.5569" x2="932.7447" y2="936.5569"/><path class="cls-2" d="M916.5988,830.648a61.57,61.57,0,0,1-1.8759,15.1257H75.5218a61.73,61.73,0,0,1,59.8315-76.8331H854.8914A61.7109,61.7109,0,0,1,916.5988,830.648Z"/></g><path id="crystal" class="cls-3" d="M939.26,444.1372a442.3409,442.3409,0,0,1-107.4908,289.7H158.4758a442.3413,442.3413,0,0,1-107.4907-289.7C50.9851,198.8482,249.8332,0,495.1223,0S939.26,198.8482,939.26,444.1372Z"/><g id="stars"><path class="cls-4" d="M312.398,259.6785c-35.3557,8.6288-46.82,20.0933-55.4491,55.449a4.8646,4.8646,0,0,1-9.4569,0c-8.6288-35.3557-20.0934-46.82-55.4491-55.449a4.8647,4.8647,0,0,1,0-9.457c35.3557-8.6288,46.82-20.0933,55.4491-55.449a4.8646,4.8646,0,0,1,9.4569,0c8.6288,35.3557,20.0934,46.82,55.4491,55.449A4.8647,4.8647,0,0,1,312.398,259.6785Z"/><path class="cls-4" d="M375.774,161.1785c-14.476,3.9019-20.4458,9.4542-24.699,22.8061a3.943,3.943,0,0,1-7.5059,0c-4.2532-13.3519-10.223-18.9042-24.699-22.8061a3.7048,3.7048,0,0,1,0-7.16c14.476-3.902,20.4458-9.4542,24.699-22.8062a3.943,3.943,0,0,1,7.5059,0c4.2532,13.352,10.223,18.9042,24.699,22.8062A3.7048,3.7048,0,0,1,375.774,161.1785Z"/><path class="cls-4" d="M433.6214,267.8272c-14.476,3.902-20.4458,9.4542-24.699,22.8062a3.943,3.943,0,0,1-7.506,0c-4.2532-13.352-10.223-18.9042-24.699-22.8062a3.7048,3.7048,0,0,1,0-7.1595c14.476-3.902,20.4458-9.4542,24.699-22.8062a3.943,3.943,0,0,1,7.506,0c4.2532,13.352,10.223,18.9042,24.699,22.8062A3.7048,3.7048,0,0,1,433.6214,267.8272Z"/></g></g></g></g></g></svg>