<svg xmlns="http://www.w3.org/2000/svg" viewBox="0 0 2168.6787 2233.383"><defs><style>.cls-1,.cls-5{fill:none;stroke:#f280a1;stroke-linecap:round;stroke-miterlimit:10;}.cls-1{stroke-width:115px;}.cls-2{fill:#f280a1;}.cls-3{fill:#96c;}.cls-4{fill:#fff;}.cls-5{stroke-width:55px;}</style></defs><g id="Layer_2" data-name="Layer 2"><g id="inner"><g id="light"><g id="ball"><g id="stand"><line class="cls-1" x1="651.9975" y1="1516.1173" x2="1527.2422" y2="1516.1173"/><path class="cls-2" d="M1569.2836,1451.1045a61.57,61.57,0,0,1-1.8759,15.1257H728.2066a61.73,61.73,0,0,1,59.8315-76.8331h719.5381A61.7109,61.7109,0,0,1,1569.2836,1451.1045Z" transform="translate(-58.1873 -40.896)"/></g><path id="crystal" class="cls-3" d="M1591.9444,1064.5937a442.3411,442.3411,0,0,1-107.4908,289.7H811.1606a442.3415,442.3415,0,0,1-107.4907-289.7c0-245.2891,198.8481-444.1372,444.1372-444.1372S1591.9444,819.3046,1591.9444,1064.5937Z" transform="translate(-58.1873 -40.896)"/><g id="stars"><path class="cls-4" d="M965.0828,870.678c-35.3558-8.6288-46.82-20.0933-55.4491-55.4491a4.8647,4.8647,0,0,0-9.4569,0c-8.6288,35.3558-20.0934,46.82-55.4491,55.4491a4.8647,4.8647,0,0,0,0,9.4569c35.3557,8.6289,46.82,20.0934,55.4491,55.4491a4.8646,4.8646,0,0,0,9.4569,0c8.6288-35.3557,20.0933-46.82,55.4491-55.4491A4.8647,4.8647,0,0,0,965.0828,870.678Z" transform="translate(-58.1873 -40.896)"/><path class="cls-4" d="M1028.4588,774.4754c-14.476-3.902-20.4458-9.4542-24.699-22.8062a3.943,3.943,0,0,0-7.5059,0c-4.2532,13.352-10.223,18.9042-24.6991,22.8062a3.7048,3.7048,0,0,0,0,7.1595c14.4761,3.902,20.4459,9.4542,24.6991,22.8062a3.943,3.943,0,0,0,7.5059,0c4.2532-13.352,10.223-18.9042,24.699-22.8062A3.7048,3.7048,0,0,0,1028.4588,774.4754Z" transform="translate(-58.1873 -40.896)"/><path class="cls-4" d="M1086.3062,881.1241c-14.476-3.9019-20.4458-9.4542-24.699-22.8061a3.943,3.943,0,0,0-7.506,0c-4.2532,13.3519-10.223,18.9042-24.699,22.8061a3.7048,3.7048,0,0,0,0,7.16c14.476,3.902,20.4458,9.4542,24.699,22.8062a3.943,3.943,0,0,0,7.506,0c4.2532-13.352,10.223-18.9042,24.699-22.8062A3.7048,3.7048,0,0,0,1086.3062,881.1241Z" transform="translate(-58.1873 -40.896)"/></g></g></g></g><g id="outer"><g id="light-2" data-name="light"><g id="text"><path d="M208.5391,1335.0527c17.7094-4.4082,25.5844,3.4209,29.0869,17.4922l21.8027,87.5781c2.8989,11.6446,1.6162,20.9815-10.999,24.1221s-18.1255-4.5049-21.0244-16.15l-17.6953-71.081L168.9531,1387.16l14.9781,60.164c2.5966,10.4317,1.7387,19.4053-10.6338,22.4854s-17.337-4.4434-19.9341-14.875L138.3857,1394.77l-54.5849,13.5889c-11.8872,2.959-21.8257-2.8115-24.8457-14.9414s3.0537-21.8858,14.9409-24.8447Z" transform="translate(-58.1873 -40.896)"/><path d="M243.6733,1472.8223c16.7408-7.2666,25.7979-.8428,31.5718,12.458l27.1768,62.6064c19.4121,44.7178.0508,67.294-21.2764,76.5528-17.8872,7.7646-40.1245,4.8808-52.0171-11.2149l-.459.1992c5.61,20.458-6.8852,29.97-23.6259,37.2373-19.0337,8.2627-23.9527,16.3936-31.75,19.7784-8.7144,3.7822-18.5591-2.5733-22.3418-11.2872-8.9595-20.64,10.2949-30.9052,16.9453-33.7919,28.895-12.543,38.3008-22.8946,29.3413-43.5342l-16.1265-37.15-48.3877,21.0049c-11.2368,4.8779-21.99.8242-26.9673-10.6416s-.5952-22.09,10.6416-26.9678Zm-35.0424,59.9082,16.3256,37.6093c6.1719,14.2178,16.0132,26.8428,34.5884,18.7793,17.6582-7.665,17.5659-20.4345,10.3985-36.9453L253.12,1513.418Z" transform="translate(-58.1873 -40.896)"/><path d="M350.44,1656.8887c9.649-2.169,15.94,1.4687,21.4444,9.8183l5.3667,8.14c5.0913,7.7226,7.7539,15.85-.4146,26.624l-87.7617,117.1475c-2.5142,3.4541-7.1909,9.5312-10.9482,12.0088-8.3487,5.5039-19.8443,2.6015-25.6236-6.1651-4.9536-7.5137-5.8178-14.7295-.79-21.6377l19.2676-25.2783-36.3272-55.1035L203.689,1729.98c-8.1929,2.1074-14.0708-.9043-19.4375-9.0449-6.1924-9.3926-4.6138-19.7158,4.57-25.7705,3.7568-2.4766,11.186-4.38,15.3511-5.3291Zm-13.0942,38.2773-.2749-.418L263.4014,1714.27l26.42,40.0752Z" transform="translate(-58.1873 -40.896)"/><path d="M404.6616,1754.1836c11.8291-11.5029,22.36-6.0518,30.0293,1.834l8.3657,8.6035c8.8887,9.1406,9.4869,16.9277,2.5918,29.56l-57.8813,106.15.3486.3584,107.3784-55.249c12.8208-6.5391,20.5879-5.7226,29.4766,3.418l8.0171,8.2441c7.6689,7.8858,12.8232,18.5654.9941,30.0684l-104.85,101.958c-7.3481,7.1455-17.8237,10.3574-27.061.8584s-5.7329-19.8809,1.6152-27.0264l79.9365-77.7314-.3486-.3584L370.937,1940.7588c-8.0107,3.9541-14.8774,1.9131-20.8032-4.1807s-7.7734-13.0146-3.5967-20.9121l59.0059-110.73-.3487-.3584-79.9365,77.7315c-7.3481,7.1455-17.8237,10.3584-27.061.8594s-5.7329-19.8809,1.6157-27.0274Z" transform="translate(-58.1873 -40.896)"/><path d="M578.5713,1939.1182l-31.7354-22.2364c-9.623-6.7431-13.96-17.1084-7.5039-26.3213s17.6792-8.6757,27.3018-1.9335l97.0478,68.0019c9.6231,6.7432,13.96,17.1084,7.5044,26.3213s-17.6792,8.6758-27.3022,1.9336l-31.7349-22.2373L538.5522,2067.68c-7.03,10.0322-18.3159,12.1982-28.5527,5.0244s-12.0547-18.5205-5.0249-28.5527Z" transform="translate(-58.1873 -40.896)"/><path d="M678.145,1983.2734c5.8535-10.7607,16.8233-14.1855,27.8042-8.2129s14.0669,17.043,8.2134,27.8047l-69.5264,127.8184c-5.8535,10.7617-16.8237,14.1865-27.8047,8.2129s-14.0669-17.043-8.2128-27.8047Z" transform="translate(-58.1873 -40.896)"/><path d="M730.292,2021.6455c6.6421-16.998,17.583-18.8955,31.0884-13.6182l46.57,18.1973c41.68,16.2871,72.77,49.3711,47.1113,115.0342-20.7451,53.09-62.3271,72.2705-113.3213,52.3437l-45.8711-17.9238c-13.5053-5.2773-20.2612-14.0908-13.6191-31.0889ZM723.7129,2151.13l32.1333,12.5556c30.5034,11.92,50.9287-11.5019,61.0283-37.3486,12.92-33.0644,8.1714-58.0029-19.77-68.9209l-31.9-12.4658Z" transform="translate(-58.1873 -40.896)"/><path d="M976.0093,2151.832c35.0913,15.7168,40.0244,39.4014,35.89,59.99-6.3994,31.8632-35.1943,50.8134-83.7246,41.0673-50.9809-10.2392-68.6562-40.3076-64.8164-59.4257,1.9688-9.8037,10.4551-15.2393,20.2593-13.27,21.814,4.3809,9.7773,35.1114,50.4643,43.2832,20.8335,4.1836,34.667-5.0224,37.03-16.7871,1.4278-7.1084-.4287-15.6406-13.4653-21.8281l-43.03-20.6269c-34.6494-16.6485-37.2309-38.0752-33.44-56.9483,7.876-39.2168,47.1045-46.6377,81.1733-39.7949,31.3731,6.3008,64.8394,31.3808,60.1138,54.9111-2.0181,10.0488-11.7783,14.208-21.582,12.2393-18.628-3.7412-9.9292-29.2774-47.43-36.81-18.6274-3.7412-30.6445,2.7705-33.106,15.0254s11.4576,19.13,23.6119,24.6309Z" transform="translate(-58.1873 -40.896)"/><path d="M1045.3428,2105.3145c.3081-12.2461,8.5127-20.292,21.0093-19.9786s20.2861,8.7637,19.978,21.01l-2.4771,98.47c-.6157,24.4922,12.8535,35.835,36.3462,36.4258s37.5161-10.06,38.1314-34.5527l2.4775-98.47c.3076-12.2461,8.5127-20.292,21.0088-19.9776s20.2861,8.7627,19.9785,21.0088l-2.3955,95.2207c-1.2441,49.4854-32.2949,70.9609-80.0308,69.7607s-77.6665-24.2109-76.4218-73.6962Z" transform="translate(-58.1873 -40.896)"/><path d="M1270.1655,2117.3613l-38.3291,5.6905c-11.623,1.7255-21.9-2.8145-23.5527-13.9424s6.8633-18.4571,18.4863-20.1826l117.2119-17.4024c11.6231-1.7246,21.9,2.8145,23.5528,13.9424s-6.8633,18.458-18.4864,20.1836l-38.3291,5.69,18.834,126.8565c1.7989,12.1172-4.9023,21.4521-17.2666,23.2881s-21.4892-5.15-23.2881-17.2676Z" transform="translate(-58.1873 -40.896)"/><path d="M1482.0015,2109.56c38.3027-3.3858,54.1572,14.8886,60.5849,34.8818,9.9483,30.94-5.9541,61.5264-53.0791,76.6777-49.5049,15.917-79.5986-1.7187-85.5674-20.2832-3.0605-9.5205,1.6993-18.4043,11.2188-21.4648,21.1826-6.8106,25.6572,25.8906,65.166,13.1875,20.2305-6.5049,27.82-21.2871,24.1475-32.7119-2.22-6.9024-8-13.4473-22.4-12.4932l-47.627,2.97c-38.3711,2.3575-51.0722-15.0927-56.9648-33.4189-12.2432-38.0811,18.3906-63.6865,51.4726-74.3232,30.4649-9.795,71.9141-4.2139,79.26,18.6347,3.1377,9.7588-3.3555,18.1485-12.876,21.21-18.0888,5.8154-22.9443-20.7227-59.3593-9.0147-18.0889,5.8155-25.4063,17.36-21.58,29.2608s19.33,11.1162,32.625,9.9931Z" transform="translate(-58.1873 -40.896)"/><path d="M1521.72,2033.4111c-5.6123-10.8877-2.2822-21.8867,8.8291-27.6142s22.001-2.06,27.6143,8.8291l27.2627,52.8867,24.7988-92.6621c1.9316-6.6211,3.876-12.1231,10.32-15.4453,8.667-4.4678,20.082-3.6016,24.8936,5.7314,2.8632,5.5557,1.9218,10.8223.414,15.5371l-17.0566,58.5752,78.9287,44.5362c5.9678,3.3925,11.9287,6.2265,14.334,10.8925,6.9873,13.5557-.95,22.71-9.6162,27.1768-7.333,3.78-12.25,4.0644-21.1475-1.1924l-75.4463-43.2373-9.69,30.3086,18.6719,36.2207c5.6123,10.8887,2.2822,21.8867-8.8291,27.6143s-22.001,2.0595-27.6143-8.8282Z" transform="translate(-58.1873 -40.896)"/><path d="M1708.6987,1896.7012c46.8936-35.8057,96.1465-24.0293,128.1592,17.8965,30.7988,40.3359,35.1172,94.6005-13.7637,131.9228-51.2646,39.1436-97.8154,21.8438-130.89-21.4726C1660.1919,1983.1221,1661.8062,1932.5068,1708.6987,1896.7012Zm94.3692,123.5908c29.6064-22.6055,22.1406-53.3926,1.2031-80.8125s-48.9189-36.88-75.5449-16.55-24.8721,49.8164-3.9346,77.2363S1772.4683,2043.6572,1803.0679,2020.292Z" transform="translate(-58.1873 -40.896)"/><path d="M1841.4155,1830.5361l-26.3183,28.44c-7.9815,8.624-18.8369,11.5214-27.0938,3.8808s-6.209-18.6894,1.7725-27.3125l80.4844-86.9736c7.9814-8.6231,18.8369-11.5205,27.0937-3.88s6.208,18.6885-1.7725,27.3125l-26.3183,28.44,94.1289,87.1075c8.99,8.32,9.6123,19.7949,1.1221,28.97s-19.9786,9.4424-28.97,1.1221Z" transform="translate(-58.1873 -40.896)"/><path d="M1944.0972,1704.5459l-21.1866,32.4443c-6.4248,9.8379-16.6425,14.5118-26.0615,8.36s-9.249-17.3858-2.8252-27.2236l64.791-99.2178c6.4239-9.8379,16.6416-14.5117,26.0616-8.36s9.249,17.3858,2.8242,27.2237l-21.1865,32.4443,107.3808,70.1211c10.2569,6.6982,12.79,17.9072,5.9561,28.373s-18.1162,12.6534-28.3731,5.9561Z" transform="translate(-58.1873 -40.896)"/><path d="M1993.2261,1606.7842c-16.6865-7.3916-18.0957-18.4063-12.2227-31.6641l38.9844-88.0019c4.86-10.9717,11.6045-17.5547,23.49-12.2891s11.542,14.6836,6.6817,25.6553l-32.0987,72.458,35.6582,15.7969,28.1495-63.545c4.3535-9.8281,10.54-16.3847,22.1972-11.2207s10.957,14.15,6.6035,23.9795l-28.1494,63.544,39.7725,17.6191,32.9082-74.2871c4.86-10.9717,11.6045-17.5547,23.49-12.2891s11.542,14.6827,6.6817,25.6543l-39.794,89.8311c-5.873,13.2578-14.9775,19.6142-31.664,12.2226Z" transform="translate(-58.1873 -40.896)"/><path d="M2076.85,1419.1211l-9.5508,37.5557c-2.8955,11.3877-11.0517,19.1162-21.9551,16.3437s-14.3769-13.459-11.4814-24.8467l29.206-114.8476c2.8956-11.3877,11.0518-19.1162,21.9551-16.3438s14.377,13.459,11.4815,24.8467l-9.5508,37.5557,124.2969,31.6084c11.873,3.02,17.8964,12.8056,14.8164,24.9209s-13.0489,17.8349-24.9209,14.8154Z" transform="translate(-58.1873 -40.896)"/><path d="M378.6919,376.5034c-12.7163-15.06-8.8833-26.4243,3.082-36.5273l41.26-34.8389c36.9272-31.1807,84.3476-43.6572,133.47,14.519,39.7168,47.0362,36.51,96.39-8.6689,134.5386l-40.6412,34.3164c-11.9653,10.1031-23.811,11.9781-36.5273-3.082Zm119.5366,72.9312,28.4693-24.0391c27.0249-22.8193,15.309-54.2725-4.0269-77.1714-24.7354-29.2944-50.8564-37.63-75.6123-16.7265l-28.2627,23.8647Z" transform="translate(-58.1873 -40.896)"/><path d="M643.7437,273.521c10.4262-6.2378,21.2622-7.0581,28.332,4.7578s1.2246,20.9775-9.2017,27.2153l-38.2285,22.8736c-10.4263,6.2383-21.2622,7.0581-28.332-4.7578s-1.2246-20.9771,9.2016-27.2154Z" transform="translate(-58.1873 -40.896)"/><path d="M716.2754,179.6484c27.4736-11.9746,59.9419-13.1665,67.17,3.417,3.668,8.4151,1.2114,18.3218-8.1938,22.4214-14.1084,6.1489-21.8316-10.2187-44.6026-.2934-12.623,5.5019-19.2807,12.5268-15.9365,20.2,3.668,8.4155,12.6987,6.8354,24.9155,4.456l16.6089-3.1152c22.5933-4.2515,50.8726-6.2686,61.8765,18.9775,12.8379,29.4541-9.6929,55.4737-36.9195,67.34-32.6713,14.24-66.2626,11.5039-74.03-6.3174-3.4522-7.92-2.1255-17.04,8.0224-21.4629,15.5933-6.7964,26.7876,14.8325,53.5191,3.1811,12.8706-5.6093,18.5576-14.8623,15.3213-22.2876-3.9917-9.1582-12.56-7.1909-26.8326-4.7988l-23.5517,4.08c-23.3037,3.9722-43.4155,2.4292-53.9878-21.8271C666.8164,214.1646,691.2764,190.5444,716.2754,179.6484Z" transform="translate(-58.1873 -40.896)"/><path d="M863.894,211.4648c5.2662,20.1123,22.1558,31.32,44.358,25.5069,28.7319-7.5225,23.8076-26.3291,39.2187-30.3643,9.1421-2.3935,17.7236,3.7329,19.57,10.7852,6.0181,22.9858-28.0068,43.3379-50.9927,49.3559-53.2846,13.9517-82.8349-16.8276-91.5205-50-11.6264-44.4038,7.481-81.2246,52.6685-93.0561,43.8818-11.49,77.0952,13.0278,85.3017,44.3721,3.42,13.06.3907,17.4814-12.4082,20.8325Zm61.1226-39.4482c-6.6719-16.9536-23.083-26.333-40.061-21.8877-19.0674,4.9927-27.4829,19.7559-26.8062,39.3955Z" transform="translate(-58.1873 -40.896)"/><path d="M979.2188,67.0527c-1.3008-12.8945,5.812-20.396,17.6318-21.5883s20.2876,4.7373,21.5884,17.6318l8.997,89.1855,38.64-52.7436c3.5962-4.7046,8.375-8.4434,14.2846-9.04,8.8648-.894,19.3213,5.92,20.3243,15.86.7045,6.9844-1.4966,9.3774-4.6094,13.4907l-25.95,33.2818,46.36,50.6816a21.514,21.514,0,0,1,5.3028,12.2192c1.0029,9.94-6.1348,19.8858-16.6114,20.9429-9.67.9756-15.2622-3.3452-18.6508-7.3452l-42.3555-48.6431-12.481,13.47,3.0083,29.8184c1.3008,12.894-5.812,20.396-17.6318,21.5884s-20.2876-4.7378-21.5884-17.6319Z" transform="translate(-58.1873 -40.896)"/><path d="M1145.9746,118.3628l-6.7485-.1411c-11.0679-.2315-15.5664-4.6465-15.3858-13.2847s4.86-12.8613,15.9278-12.63l6.7485.1411.5024-24.0249c.271-12.9575,8.2413-19.5424,20.1182-19.2939s19.5654,7.1606,19.294,20.1182l-.502,24.0249,11.877.2485c11.6074.2427,17.7431,3.8818,17.5459,13.33s-6.4805,12.8276-18.0879,12.5849l-11.877-.2485-1.6484,78.8233c-.125,5.9389,3.0468,9.246,10.0654,9.3925l5.6689.1187c8.6377.1806,13.6651,5.147,13.49,13.5151-.2373,11.3379-10.085,17.3433-28.9805,16.9478-28.6142-.5982-40.2441-12.7241-39.7583-35.9395Z" transform="translate(-58.1873 -40.896)"/><path d="M1238.064,112.5542c1.0879-10.4736,6.3339-19.1577,21.6416-17.5669s18.6552,11.168,17.5673,21.6416l-11.247,108.2275c-1.0889,10.4737-6.335,19.1582-21.6426,17.5674s-18.6553-11.1684-17.5664-21.6421Zm27.2509-71.5464a20.52,20.52,0,1,1-22.5312,18.2891A20.5111,20.5111,0,0,1,1265.3149,41.0078Z" transform="translate(-58.1873 -40.896)"/><path d="M1384.46,115.45c46.3545,10.4521,63.9864,47.6406,54.8409,88.2017-8.6709,38.4536-35.0313,68.2133-87.4444,56.3955s-63.4521-50.0113-54.7822-88.4649C1306.22,131.0215,1338.105,104.998,1384.46,115.45Zm-26.19,116.1519c22.9151,5.1665,37.292-13.18,42.5772-36.6211,5.6416-25.021-.4131-46.0376-22.8008-51.0855s-36.876,11.3364-42.5176,36.3574C1330.2437,203.6938,1335.356,226.4351,1358.27,231.6021Z" transform="translate(-58.1873 -40.896)"/><path d="M1484.6343,161.7676c4.5039-10.9932,12.4687-16.1919,23.9619-11.4834s13.5215,14.001,9.0185,24.9941l-1.9453,4.7471.5.2051c15.7705-9.2954,32.9024-13.3648,53.64-4.8692,21.9863,9.0074,41.4678,29.8267,26.3193,66.8042l-29.0693,70.9566c-3.9912,9.7441-11.4688,16.6015-25.711,10.7671s-14.7587-15.9668-10.7666-25.711l26.1006-63.7109c6.0391-14.7412,3.0928-28.2031-12.6474-34.6514a30.6117,30.6117,0,0,0-39.5039,17.3711L1479.8628,277.4c-3.9922,9.7441-11.47,16.6011-25.7109,10.7671s-14.7588-15.9668-10.7666-25.7109Z" transform="translate(-58.1873 -40.896)"/><path d="M1640.15,300.9663c-10.9473,17.6743-7.4326,37.6377,12.0781,49.7232,25.2491,15.64,35.4864-.8868,49.0293,7.5019,8.0332,4.9761,9.5059,15.417,5.667,21.6143-12.5117,20.2-50.706,9.563-70.9053-2.9488-46.8252-29.0053-44.8789-71.6294-26.8222-100.7807,24.1709-39.0215,64.0224-50.544,103.7324-25.9468,38.5625,23.8867,43.6787,64.8511,26.6162,92.3955-7.1084,11.4771-12.4,12.3281-23.6475,5.3613Zm70.7051,17.1172c7.69-16.5161,3.18-34.8726-11.74-44.1147-16.7558-10.379-33.2539-6.3057-47.0214,7.7163Z" transform="translate(-58.1873 -40.896)"/><path d="M1790.564,325.3438c7.8281-8.9366,17.05-11.2676,26.3925-3.0835s8.2442,17.6323.4161,26.5683l-3.3809,3.8589.4062.356c17.9346-3.6724,35.46-1.96,52.3165,12.8066,17.872,15.6567,29.541,41.6728,3.2089,71.731L1819.395,495.26c-6.9385,7.9209-16.2373,11.98-27.8135,1.8379s-8.7773-19.8931-1.8378-27.814l45.3681-51.7891c10.4971-11.9824,12.08-25.6718-.7148-36.8808a30.6125,30.6125,0,0,0-43.0039,3.6069l-42.878,48.9458c-6.9384,7.9209-16.2373,11.98-27.8144,1.8379s-8.7764-19.8931-1.8379-27.814Z" transform="translate(-58.1873 -40.896)"/></g><g id="circle"><path d="M1147.8071,380.45A776.7159,776.7159,0,0,1,1584.22,513.7345a783.0563,783.0563,0,0,1,282.8829,343.4983A779.5181,779.5181,0,0,1,1795.14,1597.48a783.0547,783.0547,0,0,1-343.4983,282.8832,779.5176,779.5176,0,0,1-740.247-71.9625A783.0565,783.0565,0,0,1,428.5114,1464.902a779.5181,779.5181,0,0,1,71.9625-740.2471A783.06,783.06,0,0,1,843.9725,441.772,775.68,775.68,0,0,1,1147.8071,380.45m0-55c-461.4989,0-835.6178,374.1185-835.6178,835.6174s374.1189,835.6178,835.6178,835.6178,835.6175-374.1189,835.6175-835.6178S1609.306,325.45,1147.8071,325.45Z" transform="translate(-58.1873 -40.896)"/></g><g id="arcs"><path id="arc_base" data-name="arc base" class="cls-5" d="M154.1978,1238.0945q-2.9148-38.1312-2.9327-77.0271c0-235.31,81.5571-451.5717,217.946-622.0594" transform="translate(-58.1873 -40.896)"/><path id="arc_base-2" data-name="arc base" class="cls-5" d="M1926.4035,539.0085c136.3887,170.4876,217.9457,386.7489,217.9457,622.0589q0,38.8781-2.9328,77.0272" transform="translate(-58.1873 -40.896)"/></g></g></g></g></svg>