<svg xmlns="http://www.w3.org/2000/svg" viewBox="0 0 2048.0841 2233.5085"><defs><style>.cls-1,.cls-3{fill:#f280a1;}.cls-1,.cls-2,.cls-4,.cls-6{fill-rule:evenodd;}.cls-2{fill:#fff;}.cls-4,.cls-6,.cls-7,.cls-8{fill:none;stroke:#f280a1;stroke-linecap:round;}.cls-4,.cls-6,.cls-7{stroke-width:18px;}.cls-5{fill:#96c;}.cls-6,.cls-7,.cls-8{stroke-miterlimit:10;}.cls-8{stroke-width:55px;}</style></defs><g id="Layer_2" data-name="Layer 2"><g id="inner"><g id="light"><g id="right"><g id="glass"><path id="base" class="cls-1" d="M1570.8582,1444.1616c-102.2051,59.0127-199.8334,81.2132-218.0812,49.5722-1.6312-2.8111-6.3036-9.9682-9.3832-16.4057-.758-1.0746-1.4583-2.1971-2.12-3.3579q-64.1116-112.4514-134.2106-241.7879-70.2995-129.6486-127.5711-241.0013a45.1161,45.1161,0,0,1,17.5666-59.6938l266.6364-153.974a45.0871,45.0871,0,0,1,60.4806,14.6212q67.81,105.2988,144.9362,231.0043,76.9631,125.3886,142.2887,237.1059a46.3436,46.3436,0,0,1,3.348,7.0613c3.6076,5.1135,6.7065,10.3711,8.1072,12.7983C1741.1132,1311.6973,1673.0628,1385.1489,1570.8582,1444.1616Z" transform="translate(0 -40.896)"/><path id="beer" class="cls-2" d="M1647.84,1200.1767,1407.117,803.0044Q1152.771,955.9662,1115.1719,970.41a19.6633,19.6633,0,0,0-8.1645,5.2288c-4.634-1.2376-9.0279-2.2931-13.2494-3.3q99.1107,180.3336,154.2523,284.0591,37.4019,70.3575,72.5785,133.251a67.148,67.148,0,0,0,5.0275,7.6944c2.5807,7.1091,9.44,17.6338,11.4838,21.1931,18.2478,31.5931,106.6086,14.6693,197.4447-37.7427,90.8263-52.4505,149.6565-120.5486,131.4087-152.1416-1.6042-2.7758-5.4835-9.33-9.6969-15.1258a112.5814,112.5814,0,0,1-7.6365-11.9307Z" transform="translate(0 -40.896)"/></g><path id="_6" data-name="6" class="cls-3" d="M1230.7587,1307.4212q-34.5918-10.03-68.5833,8.9586a88.8555,88.8555,0,0,0-30.0052,26.276,82.9138,82.9138,0,0,0-14.0167,36.392l-5.1438-8.7872q-26.3618-47.13-24.6042-83.243,1.7359-36.1348,31.2054-52.5948c11.7021-6.5154,32.5771-12.2164,59.4961-4.5437q26.94,7.6512,54.2237,32.8771l-57.5672-99.96q-20.1891,24.3044-26.7046,29.3623a417.3822,417.3822,0,0,1-43.8933,29.7051c-14.4883,9.0873-30.9911,19.7606-43.9362,40.5071a111.59,111.59,0,0,0-15.2169,41.6215q-8.8086,54.0093,26.6617,117.4918,33.6273,60.1176,78.5708,78.8708,44.9435,18.7748,92.2874-7.6727,39.414-22.0539,51.0946-62.1536,11.6378-40.1212-10.1161-78.9994Q1265.4147,1317.4515,1230.7587,1307.4212Zm6.43,168.2863q-21.9253,12.2164-47.2368-2.529-25.3329-14.7239-46.0794-51.7375c-8.8729-15.9456-12.045-30.5624-9.3873-43.8933s10.7162-23.79,24.2614-31.3768q19.9963-11.1876,41.4929.3,21.4754,11.4448,38.9639,42.736,17.103,30.5411,16.46,53.495t-18.5174,33.0057Z" transform="translate(0 -40.896)"/><g id="reflections"><path id="right-2" data-name="right" class="cls-4" d="M1509.3285,1039.0906c40.212,69.3684,60.3725,104.1478,100.5845,173.5162" transform="translate(0 -40.896)"/><path id="middle" class="cls-4" d="M1352.7675,1245.8334l54.8086,97.7021" transform="translate(0 -40.896)"/><path id="left" class="cls-4" d="M1243.15,1168.19q45.7025,80.7791,91.4043,161.5579" transform="translate(0 -40.896)"/></g><path id="foam" class="cls-5" d="M1088.3455,842.4823c5.4564-9.7667,26.503-46.22,72.035-60.205,40.4882-12.4261,74.6487.7337,84.4154,4.9063,2.7052-6.6487,22.9723-53.7855,73.9609-68.55,36.774-10.6838,67.3122,1.88,76.85,5.9608,56.2616,24.0729,72.4936,82.6271,74.6486,90.8807,7.1989.1375,24.2563,1.6965,38.7,14.26,26.0445,22.5138,22.1928,62.36,14.9939,72.356-1.8517,2.5712-2.5675,4.9418-4.9063,7.1988-11.354,10.9576-28.1836,2.1681-49.3834,7.7034-6.0469,1.5789-14.8517,4.95-24.6232,13.16-6.557,5.594-4.9979,16.5988-4.2185,21.5968,4.2644,27.6493,31.2717,60.9386,20.588,79.6466-.8254,1.4215-4.31,7.52-10.0876,8.3452-18.57,2.7511-25.2191-53.51-65.8908-71.0262-16.9655-7.2906-44.2021-9.7208-52.7768,1.6965-19.9461,26.4572,54.29,130.8644,47.412,146.6836-2.1551,4.9979-5.6857,6.3278-5.6857,6.3278-4.2185,1.5589-8.8955-1.284-10.4546-2.2467-14.49-8.8039-25.0358-49.292-25.0358-49.292-2.7052-7.9784-22.1469-81.435-62.6809-84.6905-12.197-1.0086-22.5139,4.6313-26.87,6.97-12.5492,6.7366-12.6676,15.825-26.778,28.9792a105.0173,105.0173,0,0,1-25.8946,17.4344c-3.3772,1.7042-17.6121,8.6869-45.3015,12.9154-25.2671,3.8587-37.9006,5.788-50.0425,2.383-26.299-7.3752-47.5365-33.2188-53.4613-61.85-9.1182-44.0632,21.9256-75.9155,24.3022-78.271A133.28,133.28,0,0,1,1088.3455,842.4823Z" transform="translate(0 -40.896)"/></g><g id="left-2" data-name="left"><g id="glass-2" data-name="glass"><path id="base-2" data-name="base" class="cls-1" d="M336.6235,1260.5874q65.25-111.54,142.09-236.78,77.0548-125.55,144.74-230.64a45.0275,45.0275,0,0,1,60.39-14.61l266.32,153.76a45.0656,45.0656,0,0,1,17.54,59.62q-57.2248,111.21-127.44,240.67-70.05,129.21-134.02,241.45c-.63,1.11-1.3,2.18-2.02,3.21-3.08,6.45-7.79,13.66-9.43,16.48-18.23,31.6-115.71,9.44-217.78-49.49-102.06-58.94-170.02-132.29-151.79-163.84Z" transform="translate(0 -40.896)"/><path id="beer-2" data-name="beer" class="cls-2" d="M710.4035,1418.6574c-18.22,31.55-106.46,14.65-197.17-37.69-90.71-52.38-149.46-120.38-131.23-151.93a158.4538,158.4538,0,0,1,12.54-18.84l238.75-390.66q119.37,89.715,210.86,75.47c21.98-3.44,87.05-2.71,83.11,67.63-.13,2.52-1.78,6.5-4.99,12.09,6.14-1.73,11.13-2.66,14.91-2.66,6.92,0,9.8,3.1,8.26,10.03-.46,1.97-91.03,171.16-146.11,274.74q-37.3648,70.26-72.49,133.06Z" transform="translate(0 -40.896)"/></g><path id="D" class="cls-3" d="M1035.9342,1294.0386a70.1571,70.1571,0,0,0-13.3309-39.3867c-9.7385-13.5906-23.3723-23.9783-37.6988-32.3317a169.7647,169.7647,0,0,0-31.8123-14.7593l2.294-4.1983-4.2849-2.3372-99.8085-6.8818-10.6041,19.4769a22.2277,22.2277,0,0,1,8.9161,29.9946l-86.694,159.0183,1.082-1.7746a22.4147,22.4147,0,0,1-30.2109,8.9162l-2.4238-1.2985-11.7728,21.5977,112.4469,61.2442c20.9918,11.4264,45.5761,20.1695,69.8141,15.5815,17.7889-3.376,32.1153-14.0667,44.191-27.0513,15.4517-16.5771,27.96-35.8808,39.43-55.3577,13.6772-23.1993,26.3588-47.2641,36.4869-72.1946,6.7952-16.8367,13.0279-34.7555,13.98-53.0205.0865-1.7313.13-3.4626.0865-5.2372C1035.3715,1264.39,1036.41,1318.8392,1035.9342,1294.0386ZM871.6787,1481.4068l-.26.4328a15.1317,15.1317,0,0,1-20.4724,6.1894l-9.1758-5.0208,6.1894-11.3832-10.4743-5.7132a22.2976,22.2976,0,0,1-8.6564-30.2975.3279.3279,0,0,0,.0865-.173l113.529-208.4466q7.9856-9.6087,18.6546-3.8089l26.3155,14.3264a15.0931,15.0931,0,0,1,6.1461,20.17Z" transform="translate(0 -40.896)"/><g id="reflections-2" data-name="reflections"><path id="right-3" data-name="right" class="cls-6" d="M718.2143,1333.3228q44.5531-80.8086,89.1062-161.6171" transform="translate(0 -40.896)"/><path id="middle-2" data-name="middle" class="cls-6" d="M645,1349.1661q26.82-47.5812,53.64-95.1626" transform="translate(0 -40.896)"/><line id="left-3" data-name="left" class="cls-7" x1="443.0312" y1="1180.8591" x2="580.0875" y2="944.1714"/></g><g id="foam-2" data-name="foam"><path class="cls-5" d="M920.5379,1093.2131c-12.2716-4.49-22.5628-17.2606-20.8566-24.6229a31.6577,31.6577,0,0,0,.7417-10.0605,9.3194,9.3194,0,0,0-.7219-2.8042c-2.4463-5.927-7.9973-8.5667-13.5278-11.1686a42.2081,42.2081,0,0,0-9.55-3.1636c-7.9219-2.7933-16.4387,3.8921-20.2849,6.96-21.2466,17.08-36.22,56.0925-57.1917,56.1841-1.6025,0-8.4252.0459-11.9968-4.4416-11.3562-14.3324,32.877-47.3468,27.84-90.2519-2.1064-17.8582-13.3249-42.0811-27.1533-43.73-32.053-3.938-84.0247,109.6211-100.7381,111.4985-5.3115.5953-8.1044-1.74-8.1044-1.74-3.3887-2.8388-3.2513-8.1047-3.2054-9.9364.4119-16.53,29.4427-45.1488,29.4427-45.1488,5.4033-6.1817,57.9243-58.3823,40.9362-94.19-5.1284-10.7607-14.8816-16.7592-19.0029-19.2777-14.6985-8.9749-42.3555-24.4518-63.0068,11.31-14.24,24.6807-18.0413,65.9375-33.06,57.2375-10.8525-6.2732,13.3706-32.0988,8.8831-56.5963-2.793-15.1108-22.3455-24.4519-26.8787-26.0087-15.297-5.2532-34.3032,8.5879-42.905,29.0765l-14.5613,23.3529c-12.8647,24.54-28.0015,39.9328-38.8279,49.0774-8.219,6.9423-31.4923,26.6-42.5151,19.7242a10.8778,10.8778,0,0,1-4.1467-5.3367c-9.0206-22.025,39.0585-51.56,46.5224-74.1339,14.0117-42.2641,5.1743-50.3689,38.2346-87.8708,28.9851-32.8773,29.26-70.0585,54.4441-94.2816,51.5137-49.4989,95.7928-33.93,97.7156-33.4265a130.5131,130.5131,0,0,1,69.6924-21.8419c10.8979-.1831,51.9258-.1372,85.9475,31.5035,30.2214,28.1609,35.7622,63.3733,36.9983,73.6761,6.9143-.9158,56.5964-6.8227,93.9609,29.0307,26.9246,25.8256,31.1831,57.7412,32.4195,67.7692,7.0974,59.2063-34.4341,101.47-40.3868,107.2858,3.3357,6.14,10.3771,21.3056,6.8228,39.6082-5.7357,29.5352-34.7057,44.7991-53.8035,47.8964C929.2286,1095.9105,923.3789,1094.2527,920.5379,1093.2131Z" transform="translate(0 -40.896)"/></g></g></g></g><g id="outer"><g id="light-2" data-name="light"><g id="text"><path d="M270.1851,1826.3135c17.5215,34.2265,6.5381,55.7832-9.5772,69.248-24.94,20.8379-59.2587,17.585-90.9965-20.4-33.3413-39.9052-28.2964-74.417-13.3321-86.92,7.6739-6.4121,17.6944-5.3369,24.106,2.3369,14.2661,17.0752-14.3608,33.501,12.2475,65.3477,13.625,16.3066,30.1758,17.79,39.3848,10.0957,5.5635-4.6485,9.4585-12.4639,3.168-25.4512l-20.6377-43.0254c-16.5933-34.6767-5.19-53.001,9.5825-65.3437,30.6958-25.6465,65.93-6.8711,88.2114,19.7959,20.5176,24.5566,30.9087,65.0674,12.4912,80.455-7.8657,6.5723-18.0805,3.7051-24.4921-3.97-12.1827-14.58,10.5893-29.0459-13.9356-58.3984-12.1821-14.58-25.6294-17.0283-35.2217-9.0137s-3.0444,22.0908,2.9888,33.99Z" transform="translate(0 -40.896)"/><path d="M351.2124,1839.5264c11.9366-13.8047,22.8838-11.9414,33.8526-2.4571l72.81,62.9522c9.0777,7.8486,13.4078,16.2187,4.9053,26.0537s-17.4111,6.7588-26.4888-1.09l-59.95-51.834-25.5083,29.5019,52.5748,45.4571c8.1323,7.0312,12.6,14.8593,4.2607,24.5048s-16.7315,6.3545-24.8633-.6757l-52.5747-45.4571-28.4512,32.9063,61.4629,53.1416c9.0777,7.8486,13.4077,16.22,4.9053,26.0537s-17.4111,6.7588-26.4888-1.09l-74.3232-64.2607c-10.9688-9.4834-14.3945-20.0469-2.458-33.8525Z" transform="translate(0 -40.896)"/><path d="M469.458,2013.4072,467.08,1942.793c-.147-4.5049.4746-8.8262,2.979-12.8623,5.6675-9.1348,17.584-11.7442,27.5684-5.55,8.2851,5.1406,9.2895,12.53,9.1733,17.46l-1.7407,59.2334,53.999-26.81c7.17-3.4941,11.8579-4.4111,19.5054.334,8.4975,5.2725,13.8823,15.086,7.0288,26.1328a21.49,21.49,0,0,1-8.9863,7.37L508.97,2037.9238l2.3344,73.53c.1841,7.7637.5952,11.8438-1.9092,15.88-6.9858,11.2588-18.7485,12.1982-28.5205,6.1348-5.7358-3.5586-9.831-7.8643-9.6494-17.167l1.0879-64.3457-60.0854,29.5058c-6.0054,3.041-12.5025,1.6572-17.8135-1.6377-10.1968-6.3262-12.8276-16.7851-7.5557-25.2832,2.2407-3.6113,5.25-7.039,12.9776-10.4834Z" transform="translate(0 -40.896)"/><path d="M592.0093,2008.2881c6.03-15.3594,17.8731-14.7383,28.1123-10.7178l11.17,4.3858c11.8687,4.6591,15.626,11.5068,14.5572,25.8593l-8.9351,120.5782.4653.1826,75.0249-94.63c8.9815-11.2451,16.3941-13.707,28.2623-9.0469l10.705,4.2031c10.2393,4.0205,19.3409,11.6221,13.31,26.9815L711.23,2212.2207c-3.7461,9.541-11.9639,16.7891-24.2973,11.9463s-13.4249-15.7451-9.6783-25.2871l40.75-103.7891-.4653-.1826L638.26,2192.165c-5.6665,6.9073-12.7637,7.8809-20.6758,4.7745s-12.4507-8.6495-11.9043-17.5665l8.07-125.2158-.4653-.1826-40.751,103.7891c-3.7461,9.541-11.9634,16.79-24.2973,11.9472s-13.4244-15.7461-9.6783-25.2871Z" transform="translate(0 -40.896)"/><path d="M828.104,2079.416c5.1285-8.457,12.1119-10.4668,21.9444-8.6426l9.5864,1.7774c9.0947,1.6875,16.7959,5.4043,18.895,18.7607l23.5474,144.4658c.7451,4.2061,1.8808,11.79,1.06,16.2149-1.8237,9.832-11.8857,16.1016-22.2094,14.1875-8.8487-1.6416-14.647-6.0225-16.1377-14.4356l-4.8526-31.4111-64.8921-12.0371-16.041,27.5361c-4.1626,7.3643-10.4087,9.5108-19.9951,7.7334-11.0615-2.0517-17.4048-10.3476-15.3984-21.1631.8208-4.4248,4.6006-11.0966,6.8052-14.7568Zm18.4991,35.9766-.4917-.0918-37.02,66.6152,47.1944,8.7539ZM837.544,2021.67a18.2494,18.2494,0,1,1-21.272,14.6153A18.3515,18.3515,0,0,1,837.544,2021.67Zm50.144,9.3008a18.25,18.25,0,1,1-21.2719,14.6152A18.3519,18.3519,0,0,1,887.688,2030.9707Z" transform="translate(0 -40.896)"/><path d="M1031.0264,2166.44c37.3213,9.2568,46.37,31.6943,45.9463,52.69-.6572,32.4941-25.6426,56.2451-75.1333,55.2441-51.9907-1.05-74.7109-27.5146-74.3169-47.0117.2017-9.998,7.5918-16.8506,17.59-16.6484,22.2461.45,15.8409,32.8281,57.333,33.666,21.2461.43,33.2315-11.0811,33.4737-23.0791.1465-7.2481-3.1914-15.3174-17.1177-19.1l-46.0044-12.6826c-37.0513-10.251-43.3857-30.8829-42.9971-50.13.8081-39.9922,38.1045-54.2422,72.8482-53.54,31.9946.6465,69.3735,19.4053,68.8891,43.4014-.207,10.248-9.0771,16.07-19.0751,15.8682-18.9961-.3838-14.9571-27.0586-53.2-27.8311-18.9965-.3838-29.6713,8.1524-29.9238,20.65s14.6636,16.8,27.6006,20.0615Z" transform="translate(0 -40.896)"/><path d="M1138.3868,2118.34l-38.376,5.3682c-11.6367,1.6279-21.877-2.998-23.4356-14.1387s7.0186-18.4,18.6553-20.0283l117.3574-16.418c11.6367-1.6279,21.876,2.9981,23.4346,14.14s-7.0176,18.3994-18.6543,20.0273l-38.377,5.3692,17.77,127.0127c1.6972,12.1318-5.083,21.4111-17.4619,23.1426s-21.4463-5.33-23.1426-17.462Z" transform="translate(0 -40.896)"/><path d="M1244.334,2091.082c-5.4111-17.4287,1.9571-25.7373,15.8047-30.0361l91.92-28.5391c11.46-3.5586,20.8545-2.8105,24.709,9.6055s-3.4639,18.3516-14.9238,21.91l-75.6856,23.498,11.5645,37.2461,66.373-20.6074c10.2666-3.1875,19.2745-2.8428,23.0547,9.333s-3.4482,17.5625-13.7138,20.75l-66.3741,20.6074,12.8985,41.543,77.5947-24.0918c11.46-3.5576,20.8545-2.81,24.709,9.6054s-3.4639,18.3526-14.9238,21.91l-93.8311,29.1318c-13.8477,4.3-24.625,1.625-30.0361-15.8037Z" transform="translate(0 -40.896)"/><path d="M1391.7754,2043.8945c-8.3066-16.2509-2.4648-25.6943,10.4473-32.2939l60.7725-31.0635c43.4091-22.1875,67.1591-4.2851,77.7412,16.418,8.8759,17.3633,7.3974,39.7383-7.919,52.62l.2276.4453c20.0654-6.8867,30.3447,4.9863,38.6513,21.2363,9.4444,18.4776,17.8692,22.875,21.7373,30.4434,4.3242,8.459-1.3994,18.6846-9.8584,23.0088-20.0351,10.24-31.4922-8.33-34.792-14.7861-14.3369-28.0489-25.26-36.7852-45.2949-26.544l-36.0635,18.4326,24.0088,46.9707c5.5752,10.9082,2.2071,21.8955-8.9238,27.585s-22.0088,1.9844-27.584-8.9238Zm61.9951,31.2041,36.5088-18.6611c13.8018-7.0547,25.7832-17.6709,16.5664-35.7021-8.7617-17.1407-21.5-16.2452-37.5273-8.0528l-37.6221,19.2295Z" transform="translate(0 -40.896)"/><path d="M1538.4346,1956.001c-6.8848-10.1328-4.9033-21.4522,5.4356-28.4776s21.5937-4.6972,28.4775,5.4356l81.7734,120.35c6.8838,10.1328,4.9034,21.4531-5.4355,28.4775s-21.5928,4.6973-28.4776-5.4345Z" transform="translate(0 -40.896)"/><path d="M1596.2256,1926.39c-11.9121-13.8271-8.4678-24.3837,2.5176-33.8486l72.9219-62.8232c9.0918-7.8321,18.0058-10.8916,26.49-1.043s4.1406,18.2119-4.95,26.0449l-60.043,51.7276,25.4561,29.5468,52.6553-45.3632c8.1445-7.0166,16.5429-10.2911,24.8642-.6319s3.8409,17.48-4.3037,24.4971l-52.6553,45.3633,28.3926,32.957,61.5576-53.0322c9.0918-7.833,18.0049-10.8926,26.49-1.043s4.1406,18.2119-4.9512,26.0449l-74.4365,64.1289c-10.9863,9.4639-21.9365,11.3086-33.8487-2.5185Z" transform="translate(0 -40.896)"/><path d="M1752.2412,1792.76l-24.7792,29.791c-7.5137,9.0332-18.2012,12.5-26.85,5.3066s-7.1875-18.3349.3262-27.3681l75.7764-91.1026c7.5146-9.0332,18.2021-12.5,26.8506-5.3066s7.1875,18.3349-.3262,27.3681l-24.7793,29.7911,98.5977,82.0107c9.4179,7.834,10.6455,19.26,2.6513,28.87s-19.4512,10.4844-28.8691,2.6514Z" transform="translate(0 -40.896)"/><path d="M254.9268,376.5034c-12.7163-15.06-8.8833-26.4243,3.082-36.5273l41.26-34.8389c36.9277-31.1807,84.3476-43.6572,133.4707,14.519,39.7158,47.0362,36.51,96.39-8.67,134.5386l-40.6407,34.3164c-11.9653,10.1031-23.811,11.9781-36.5273-3.082Zm119.5366,72.9312,28.4693-24.0391c27.0253-22.8193,15.309-54.2725-4.0264-77.1714C374.17,318.93,348.05,310.5942,323.294,331.4976l-28.2632,23.8647Z" transform="translate(0 -40.896)"/><path d="M519.979,273.521c10.4263-6.2378,21.2622-7.0581,28.3321,4.7578s1.2246,20.9775-9.2017,27.2153l-38.2285,22.8736c-10.4263,6.2383-21.2622,7.0581-28.332-4.7578s-1.2246-20.9771,9.2016-27.2154Z" transform="translate(0 -40.896)"/><path d="M592.5108,179.6484c27.4736-11.9746,59.9419-13.1665,67.17,3.417,3.668,8.4151,1.2114,18.3218-8.1938,22.4214-14.1084,6.1489-21.8316-10.2187-44.6026-.2934-12.623,5.5019-19.2807,12.5268-15.9365,20.2,3.668,8.4155,12.6987,6.8354,24.9155,4.456l16.6089-3.1152c22.5933-4.2515,50.8726-6.2686,61.8765,18.9775,12.8379,29.4541-9.6929,55.4737-36.9195,67.34-32.6714,14.24-66.2627,11.5039-74.03-6.3174-3.4522-7.92-2.1255-17.04,8.0224-21.4629,15.5933-6.7964,26.7876,14.8325,53.5191,3.1811,12.8706-5.6093,18.5576-14.8623,15.3213-22.2876-3.9917-9.1582-12.56-7.1909-26.8326-4.7988l-23.5517,4.08c-23.3037,3.9722-43.4155,2.4292-53.9878-21.8271C543.0518,214.1646,567.5118,190.5444,592.5108,179.6484Z" transform="translate(0 -40.896)"/><path d="M740.1294,211.4648c5.2661,20.1123,22.1558,31.32,44.3579,25.5069,28.732-7.5225,23.8077-26.3291,39.2188-30.3643,9.1421-2.3935,17.7236,3.7329,19.57,10.7852,6.0181,22.9858-28.0068,43.3379-50.9927,49.3559-53.2846,13.9517-82.8349-16.8276-91.52-50-11.6264-44.4038,7.481-81.2246,52.6685-93.0561,43.8818-11.49,77.0952,13.0278,85.3017,44.3721,3.42,13.06.3907,17.4814-12.4082,20.8325Zm61.1226-39.4482c-6.6719-16.9536-23.083-26.333-40.061-21.8877-19.0674,4.9927-27.483,19.7559-26.8062,39.3955Z" transform="translate(0 -40.896)"/><path d="M855.4541,67.0527c-1.3007-12.8945,5.812-20.396,17.6319-21.5883s20.2876,4.7373,21.5884,17.6318l8.997,89.1855,38.64-52.7436c3.5962-4.7046,8.375-8.4434,14.2846-9.04,8.8648-.894,19.3213,5.92,20.3242,15.86.7046,6.9844-1.4965,9.3774-4.6093,13.4907l-25.95,33.2818,46.36,50.6816a21.514,21.514,0,0,1,5.3028,12.2192c1.0029,9.94-6.1348,19.8858-16.6114,20.9429-9.67.9756-15.2622-3.3452-18.6509-7.3452l-42.3554-48.6431-12.481,13.47,3.0083,29.8184c1.3008,12.894-5.812,20.396-17.6318,21.5884s-20.2876-4.7378-21.5884-17.6319Z" transform="translate(0 -40.896)"/><path d="M1022.21,118.3628l-6.7485-.1411c-11.0679-.2315-15.5664-4.6465-15.3858-13.2847s4.86-12.8613,15.9278-12.63l6.7485.1411.5024-24.0249c.271-12.9575,8.2408-19.5424,20.1177-19.2939s19.5654,7.1606,19.294,20.1182l-.502,24.0249,11.877.2485c11.6074.2427,17.7431,3.8818,17.5459,13.33s-6.48,12.8276-18.0879,12.5849l-11.877-.2485-1.6484,78.8233c-.125,5.9389,3.0468,9.246,10.0654,9.3925l5.6689.1187c8.6377.1806,13.6651,5.147,13.49,13.5151-.2373,11.3379-10.085,17.3433-28.9805,16.9478-28.6142-.5982-40.2436-12.7241-39.7578-35.9395Z" transform="translate(0 -40.896)"/><path d="M1114.2989,112.5542c1.0879-10.4736,6.3339-19.1577,21.6416-17.5669s18.6552,11.168,17.5673,21.6416l-11.247,108.2275c-1.0889,10.4737-6.335,19.1582-21.6426,17.5674s-18.6553-11.1684-17.5664-21.6421ZM1141.55,41.0078a20.52,20.52,0,1,1-22.5312,18.2891A20.5111,20.5111,0,0,1,1141.55,41.0078Z" transform="translate(0 -40.896)"/><path d="M1260.6953,115.45c46.3545,10.4521,63.9864,47.6406,54.8409,88.2017-8.6709,38.4536-35.0313,68.2133-87.4444,56.3955s-63.4521-50.0113-54.7822-88.4649C1182.4551,131.0215,1214.34,104.998,1260.6953,115.45Zm-26.19,116.1519c22.9151,5.1665,37.292-13.18,42.5772-36.6211,5.6416-25.021-.4131-46.0376-22.8008-51.0855s-36.876,11.3364-42.5176,36.3574C1206.4786,203.6938,1211.5909,226.4351,1234.5049,231.6021Z" transform="translate(0 -40.896)"/><path d="M1360.8692,161.7676c4.5039-10.9932,12.4687-16.1919,23.9619-11.4834s13.5215,14.001,9.0176,24.9941l-1.9444,4.7471.5.2051c15.7705-9.2954,32.9024-13.3648,53.64-4.8692,21.9863,9.0074,41.4678,29.8267,26.3193,66.8042l-29.0693,70.9566c-3.9912,9.7441-11.4688,16.6015-25.711,10.7671s-14.7587-15.9668-10.7666-25.711l26.1006-63.7109c6.0391-14.7412,3.0928-28.2031-12.6474-34.6514a30.6117,30.6117,0,0,0-39.5039,17.3711L1356.0977,277.4c-3.9922,9.7441-11.47,16.6011-25.7109,10.7671S1315.628,272.2,1319.62,262.4561Z" transform="translate(0 -40.896)"/><path d="M1516.3848,300.9663c-10.9473,17.6743-7.4326,37.6377,12.0781,49.7232,25.2491,15.64,35.4864-.8868,49.0283,7.5019,8.0342,4.9761,9.5079,15.417,5.668,21.6143-12.5117,20.2-50.706,9.563-70.9053-2.9488-46.8252-29.0053-44.8789-71.6294-26.8222-100.7807,24.1709-39.0215,64.0224-50.544,103.7324-25.9468,38.5625,23.8867,43.6787,64.8511,26.6162,92.3955-7.1084,11.4771-12.4,12.3281-23.6475,5.3613Zm70.7051,17.1172c7.69-16.5161,3.1806-34.8726-11.74-44.1147-16.7558-10.379-33.2539-6.3057-47.0214,7.7163Z" transform="translate(0 -40.896)"/><path d="M1666.7989,325.3438c7.8281-8.9366,17.05-11.2676,26.3925-3.0835s8.2442,17.6323.4161,26.5683l-3.3809,3.8589.4062.356c17.9346-3.6724,35.46-1.96,52.3165,12.8066,17.872,15.6567,29.541,41.6728,3.2089,71.731L1695.63,495.26c-6.9385,7.9209-16.2373,11.98-27.8135,1.8379s-8.7773-19.8931-1.8378-27.814l45.3681-51.7891c10.4971-11.9824,12.08-25.6718-.7148-36.8808a30.6125,30.6125,0,0,0-43.0039,3.6069l-42.878,48.9458c-6.9384,7.9209-16.2373,11.98-27.8144,1.8379s-8.7764-19.8931-1.8379-27.814Z" transform="translate(0 -40.896)"/></g><g id="circle"><path d="M1024.042,380.45a776.7159,776.7159,0,0,1,436.4125,133.2847,783.0563,783.0563,0,0,1,282.8829,343.4983,779.5181,779.5181,0,0,1-71.9625,740.2471,783.0547,783.0547,0,0,1-343.4983,282.8832,779.5176,779.5176,0,0,1-740.247-71.9625A783.0565,783.0565,0,0,1,304.7463,1464.902a779.5181,779.5181,0,0,1,71.9625-740.2471A783.06,783.06,0,0,1,720.2074,441.772,775.68,775.68,0,0,1,1024.042,380.45m0-55c-461.4989,0-835.6178,374.1185-835.6178,835.6174s374.1189,835.6178,835.6178,835.6178S1859.66,1622.5663,1859.66,1161.0674,1485.5409,325.45,1024.042,325.45Z" transform="translate(0 -40.896)"/></g><g id="arcs"><path id="arc_base" data-name="arc base" class="cls-8" d="M157.1754,1652.9853C74.64,1507.8521,27.5,1339.965,27.5,1161.0679c0-235.31,81.5571-451.5717,217.946-622.0594" transform="translate(0 -40.896)"/><path id="arc_base-2" data-name="arc base" class="cls-8" d="M1802.6384,539.009c136.3887,170.4876,217.9457,386.7489,217.9457,622.0589,0,178.8965-47.1394,346.783-129.6745,491.9159" transform="translate(0 -40.896)"/></g></g></g></g></svg>