<?xml version="1.0" encoding="utf-8"?>
<!-- Generator: Adobe Illustrator 26.0.2, SVG Export Plug-In . SVG Version: 6.00 Build 0)  -->
<svg version="1.1" id="Layer_1" xmlns="http://www.w3.org/2000/svg" xmlns:xlink="http://www.w3.org/1999/xlink" x="0px" y="0px"
	 viewBox="0 0 17.8 24" style="enable-background:new 0 0 17.8 24;" xml:space="preserve">
<style type="text/css">
	.st0{fill:#F280A1;}
</style>
<path class="st0" d="M13,3.9c0-0.3,0-0.6,0-0.9h1.9c0.2,0.2,0.4,0.5,0.6,0.8L13,3.9L13,3.9z M16.4,3.2c-1.1-2-3.3-3-6.5-3
	C9,0.2,8.3,0.3,7.6,0.4V0H7.2l-7,3.2v1.7c0.5,0,0.9,0.2,1.2,0.5c0.3,0.3,0.5,0.7,0.5,1.2v13.9l0-0.2c0,0.5-0.2,0.9-0.5,1.2
	c-0.3,0.3-0.7,0.5-1.2,0.5H0V24h9.9c3.2,0,5.4-1,6.5-3c0.9-1.6,1.4-4.6,1.4-8.9C17.8,7.8,17.3,4.8,16.4,3.2L16.4,3.2z M13.1,5.9
	c0-0.4,0-0.7,0-0.8h3c0.1,0.4,0.2,0.7,0.2,0.8H13.1L13.1,5.9z M13.1,7.8V7l3.5,0c0,0.2,0.1,0.5,0.1,0.9L13.1,7.8L13.1,7.8z
	 M13.1,9.8V9h3.7c0,0.2,0,0.5,0,0.9H13.1L13.1,9.8z M13.1,11.8l0-0.9h3.8v0.9H13.1L13.1,11.8z M16.8,13.8h-3.7v-0.9h3.7
	C16.8,13.5,16.8,13.8,16.8,13.8L16.8,13.8z M3.4,3.2l-0.9,0l1.4-0.7C3.7,2.7,3.6,3,3.4,3.2L3.4,3.2z M16.8,15.8h-3.7v-0.9h3.7
	C16.8,15.3,16.8,15.6,16.8,15.8L16.8,15.8z M11.8,22.7c-0.2,0.2-0.5,0.4-0.8,0.4h-0.8v-1H9.3c-0.5,0-0.9-0.2-1.2-0.5
	s-0.5-0.7-0.5-1.2c0,0,0,0,0,0V2.1c0.1-0.6,0.5-0.9,1.1-0.9H11c0.3,0,0.6,0.1,0.8,0.3c0.2,0.2,0.3,0.5,0.3,0.8v19.6v0
	C12.2,22.2,12.1,22.5,11.8,22.7L11.8,22.7z M2.6,5.1C2.4,4.8,2.2,4.6,1.9,4.3h1C2.7,4.7,2.7,4.9,2.6,5.1L2.6,5.1z M16.5,17.8h-3.4
	c0-0.4,0-0.7,0-0.9h3.6C16.6,17.3,16.5,17.6,16.5,17.8L16.5,17.8z M16,19.8h-2.9c0-0.4,0-0.7,0-0.9h3.2C16.2,19.2,16.1,19.5,16,19.8
	L16,19.8z M14.6,21.7h-1.6c0-0.2,0-0.5,0.1-0.9h2.4C15.1,21.2,14.8,21.5,14.6,21.7L14.6,21.7z M2.9,21.3C3,21,3.1,20.8,3.1,20.5
	c0.2,0.4,0.3,0.7,0.4,0.8L2.9,21.3L2.9,21.3z M1.1,23.1l0-0.1c0.2-0.1,0.5-0.2,0.9-0.5h2.5c0.3,0.2,0.6,0.5,0.8,0.6L1.1,23.1
	L1.1,23.1z"/>
</svg>
