<?xml version="1.0" encoding="utf-8"?>
<!-- Generator: Adobe Illustrator 26.0.2, SVG Export Plug-In . SVG Version: 6.00 Build 0)  -->
<svg version="1.1" id="Layer_1" xmlns="http://www.w3.org/2000/svg" xmlns:xlink="http://www.w3.org/1999/xlink" x="0px" y="0px"
	 viewBox="0 0 1700.8 1700.8" style="enable-background:new 0 0 1700.8 1700.8;" xml:space="preserve">
<style type="text/css">
	.st0{fill:#F280A1;stroke:#000000;stroke-width:28;}
	.st1{fill:#FFFFFF;stroke:#000000;stroke-width:28;}
	.st2{fill:#F280A1;}
</style>
<g>
	<g>
		
			<ellipse transform="matrix(0.7071 -0.7071 0.7071 0.7071 -353.2255 852.0109)" class="st0" cx="851.9" cy="852.4" rx="822" ry="822"/>
		<circle class="st1" cx="851.9" cy="852.4" r="578.8"/>
		<g>
			<path d="M1123.5,500.2c-41.1-71.9-120-107.9-236.7-107.9c-30.5,0-57.9,2.2-82.2,6.5v-13.4h-13.7L536.7,501.9v62
				c17.1,0,31.7,6,43.8,18c12.1,12,18.1,26.6,18.1,43.7v506l0.3-5.7c0,17.1-6.1,31.8-18.2,44c-12.1,12.2-26.8,18.3-44.1,18.3H529
				v68.8h357.8c116.7,0,195.6-36.1,236.7-108.2c34.3-59.9,51.4-168,51.4-324.1S1157.7,560.4,1123.5,500.2z M958.6,1210.9
				c-8.3,8.4-18.2,12.5-29.8,12.5h-29.1v-36.2h-33.4c-17.1,0-31.7-6-43.7-18.1c-12-12.1-18-26.7-18-43.9c0-0.5,0-1,0-1.4v-663
				c4.6-22.8,18.1-34.3,40.5-34.3h83.7c11.4,0,21.3,4,29.5,12.2c8.3,8.1,12.4,17.8,12.4,29v711.8v1.4
				C970.9,1192.5,966.9,1202.5,958.6,1210.9z"/>
			<g>
				<path class="st2" d="M1002.1,526.2c-0.4-10.7-0.8-21-1.1-31.1h69.7c8.4,9.1,16,19.4,22.8,30.8L1002.1,526.2z"/>
				<path class="st2" d="M1003.6,598.1c0-13.9,0-24.2,0-30.8h109.1c4,13.5,6.9,23.8,8.6,30.8H1003.6z"/>
				<path class="st2" d="M1003.6,670.1v-30.9l128.2-0.3c1.2,8,2.4,18.4,3.7,31.1H1003.6z"/>
				<path class="st2" d="M1003.6,742.4v-31.1h135.4c0.4,8.2,0.7,18.6,1.1,31.1H1003.6z"/>
				<polygon class="st2" points="1004.1,814.3 1003.6,783.5 1140.6,783.5 1140.6,814.3 				"/>
				<path class="st2" d="M1140.6,886.3h-136.2v-30.9h136.2C1140.6,875.4,1140.6,885.7,1140.6,886.3z"/>
				<path class="st2" d="M652.9,502.2l-34.5-0.3l52.3-24.3C664.7,484.5,658.8,492.7,652.9,502.2z"/>
				<path class="st2" d="M1137.8,958.5h-134.2v-31.1h135.9C1138.9,941.3,1138.3,951.7,1137.8,958.5z"/>
				<path class="st2" d="M624.1,569.9c-6.5-9.9-15.3-18.7-26.3-26.6h36.3C628.7,556.5,625.4,565.3,624.1,569.9z"/>
				<path class="st2" d="M1127.8,1030.5h-124.2c0-13.7,0-24,0-30.9h131.1C1131.9,1013.3,1129.7,1023.6,1127.8,1030.5z"/>
				<path class="st2" d="M1109.8,1102.4h-106.2c0-13.5,0-23.8,0-30.8h117.4C1117.7,1082.2,1114,1092.5,1109.8,1102.4z"/>
				<path class="st2" d="M1058.4,1174.4h-60c0.8-8.2,1.5-18.5,2.3-30.9h86C1076.9,1156.5,1067.5,1166.8,1058.4,1174.4z"/>
				<path class="st2" d="M634.4,1157.5c3.8-9.1,6.3-18.5,7.4-28.3c7,15.4,11.8,25,14.3,28.8L634.4,1157.5z"/>
				<path class="st2" d="M568.4,1222.6l0.6-4.8c9.1-2.9,19.6-8.6,31.4-17.4h90c10.3,9,20.3,16.4,30.2,22.3H568.4z"/>
			</g>
		</g>
	</g>
	<g>
		<g>
			<path d="M840.1,79.5c-3.6,15.7-1.3,31.4-1.9,47.1c7,3.6,14.7-3.1,21.1,1.9c-6.6,5.4-9.7,17.4-20.2,15.4l-1.9,1.9v61.5l9.6,9.6
				c-4.4,5-6.1,14.5-14.4,14.4c-5.4-3.8-11.7-7.3-15.4-13.5v-68.2c-5-6.1-14.1-0.7-21.1-1l-1.9-1.9c5.7-7,10.9-17.4,21.1-17.3
				l1.9-2.9c5.1-19.1-9.2-52.1,21.1-54.8L840.1,79.5z"/>
			<path d="M632.5,113.1c6.6,13.6,10.2,28.5,14.4,43.2c9.9-2.6,19.3-6.5,29.8-7.7c-1,7-2.3,18.8-11.5,21.1
				c-4.7,0.4-8.5,2.8-12.5,4.8c-1.6,11.5,6.4,19,6.7,29.8c4.1,13.5,6.9,27.5,12.5,40.4c3.8,2.9,15.3,0.4,11.5,8.6
				c-6.1,2.1-3.6,9.5-9.6,12.5c-6.3,0.6-11.6-1.3-16.3-4.8c-10.9-24.8-17.5-51.3-24-77.8c-6.4-5.5-13.2,5.4-19.2,1
				c2.1-7.3,3-17.6,12.5-19.2c1.5-15-15.5-28.2-3.8-41.3C628.1,121,626.8,114.7,632.5,113.1z"/>
			<path d="M914.1,221.7c-5.4-9-21.3-12.9-19.2-25.9c15.3-14.5,33.1-27.2,49-42.3c-3-11.5-13.2-20.1-18.3-30.8
				c-8.3,1.5-14.3,8.1-22.1,10.6c-39.6,9.1-20,54.5-27.9,82.6c6.9,8.6,15.5,21.4,26.9,23.1l25.9-23.1l-1-1
				C923,217.2,919,220.4,914.1,221.7z M900.6,141c3.1-2,5.9-4.4,9.6-4.8c2.8,11,18.4,20.3,11.5,31.7l-24,19.2
				C898.7,173.7,899.6,156.3,900.6,141z"/>
			<path d="M1041.9,173.6c-0.4-13.3-9.4-23.9-16.3-33.6c-11,2.5-20.8,11-31.7,10.6c1.6-23.6,11.8-44.9,13.5-67.3
				c-1.6-20.1-18.5-3-26,0c-3.6,8.3,7,14.1,1.9,23.1c-8.4,41-18.1,81.4-25,123c4.8,5.8,7.1,13.4,14.4,17.3c2.3-0.3,3.5-3.7,5.8-3.8
				c18.2-9.2-6.2-18.8,1-30.8c2.5-6.9,1.5-19,12.5-18.3c12.9-6.2,14.1,11.9,20.2,18.3c-1.9,15.4-13.9,33.7,2.9,46.1
				c6.3-0.3,12.9-4.2,15.4-9.6c-9.8-9.9-3.8-23.9,0-34.6c3.8-11.3-8.5-18.4-9.6-28.8C1027.4,180.3,1035.2,178.5,1041.9,173.6z
				 M986.1,190c1.7-11.6,4-22.9,7.7-33.6c6.1-1.6,11.6-4.6,18.3-4.8c2.6,8.9,7.1,17.1,7.7,26.9C1009.1,183.7,997.9,187.6,986.1,190z
				"/>
			<path d="M773.7,220.7c-4.8-18.6-2.4-40.3-5.8-59.6c-1.9-15.4-19.9-16.5-31.7-20.2c-12.9,12.4-27.2,23.4-35.6,38.4l8.7,60.5
				l9.6,8.6c11,15.3,19-4.7,27.9-10.6c9.2-8.8,15.7,6.8,24,8.6l9.6-10.6C789.7,229.8,776.1,225.8,773.7,220.7z M740.1,234.2
				c-24.8-5.1-12.2-35.8-18.3-53.8c-0.7-5.8-2.7-12.1-1.9-17.3c2.7-3.3,6.5-6.6,10.6-3.8c4.2,5.2,12.6,3,15.4,9.6
				c3.3,19.6,5.6,40.8,5.8,60.5C747.8,231,744.8,237.4,740.1,234.2z"/>
			<path d="M1216.8,178.4c-5.1,5-12.1,5.4-18.3,7.7c-2.2-7.7-13.2-19.5,1.9-23.1c4.9,0.5,10.9-6.7,13.5,1
				C1213.8,169.2,1217.8,172.8,1216.8,178.4z"/>
			<path d="M1095.7,174.6l-1,6.7c14.5-0.6,29.4-6,44.2-8.6c5,12.6,22.9,24.5,10.6,39.4c-5.9,8.6-3.8,20.6-10.6,28.8
				c-3.5,15.8-16,29-13.5,46.1c-4.9,4.9-11.9,4.7-17.3,8.6c-5.6-3-1.2-10.2-3.8-14.4c-1.7-11.1,6.5-20.6,7.7-31.7
				c0.2-23.3,33.2-46.1,6.7-67.3c-9.7,0.4-18.8,2.3-26.9,6.7c-8.8,19.5-13.1,40.9-19.2,61.5c5.1,6.2,3.7,14.8-4.8,17.3
				c-3,0.9-4.7,4.9-7.7,5.8c-26.7-16.7,1.2-41,1.9-61.5c1.9-12.8,16.8-25.1,5.8-38.4c-0.9-10.1,10.7-6.7,15.4-11.5
				C1090.2,160.9,1093,169.9,1095.7,174.6z"/>
			<path d="M1206.2,202.5c5.6,16.4-10,26.5-13.5,40.4c-6.4,14.1-14.1,29.5-21.1,44.2c-6.6,6.2,1.2,13.4-4.8,19.2
				c-5.8,1.6-11,4.6-17.3,4.8c-9.5-12.8,3.2-22.8,5.8-34.6c9.6-19.9,19.2-39.7,28.8-59.6l-1-13.5
				C1190.4,202.1,1201.5,193.4,1206.2,202.5z"/>
			<path d="M625.7,253.4c-9-16.2-12-35-17.3-52.9c-2.6-7.7-10.9-9.6-16.3-14.4c-7.2-2.8-16-10.6-23.1-4.8l-24,48
				c8.2,21.7,14,44.3,25.9,64.4c9.3,0.9,17.7,4.1,27.9,2.9c5.1-2,6.1-7.3,7.7-11.5c3.3-15.5,13.8-1.2,22.1-2.9
				c6.2-4.2,7.2-12.4,11.5-18.3C636,258.9,629.1,258.4,625.7,253.4z M603.6,278.4l-22.1-3.8c-10.5-18.5-14.6-39.8-22.1-59.6
				c-2.2-6.5,3.5-10.7,5.8-14.4c11.1,5.4,28.7,7.1,30.8,22.1c1.4,16.3,8.9,30.1,13.5,45.2C610.6,272.6,606.6,275.2,603.6,278.4z"/>
			<path d="M537.3,268.8c-10.7-25.9-29.5-54.2-57.7-64.4c-12.1-3.2-27.1-8-39.4-1.9c-15.6,2.1-31.2,28.6-45.2,10.6
				c-2.7,6.2-6.9,12.9-3.8,20.2c-10.8,22.7-15.7,50.1-10.6,76.9c6.6,23.5,20.3,48.4,44.2,60.5c29,9.8,59.9,0.8,81.7-18.3
				C527.6,329,545.8,302,537.3,268.8z M400.9,328.4c-14.7-18.8-21.3-43.3-15.4-68.2c16,29.8,44.6,53.4,66.3,81.7l1.9,8.7
				C433,355.6,413.5,343.7,400.9,328.4z M525.8,318.7c-14.8,17.5-35.6,29-58.6,30.8c3-23.9-21.6-36.5-27.9-56.7
				c6.3-0.4,14.6-2,15.4-9.6c-0.7-6.6,3.9-15.7-5.8-17.3c-5,2.3-12.6-1.5-16.3,3.8c0.2,4.4-1.6,7.9-1,12.5h-2.9
				c-10.6-13.7-25.2-25.9-31.7-41.3c18-0.2,33-17.6,51.9-20.2c24.6-3.4,43.7,10.6,57.7,28.8C517.3,270.8,529.5,292.7,525.8,318.7z"
				/>
			<path d="M1285,273.6l-34.6-4.8c-3.7-2-13.4,1-9.6-7.7c10.2-7.6,12.6-21,22.1-28.8c4.4-14.8,20.9-25.9,16.3-43.2
				c-2.1-2-3.9-4.4-6.7-4.8c-5.8,1.2-12.1,1.2-17.3,3.8c0.3,5.8,3.6,11.5,1,17.3c-14.2,30.4-38.6,56.6-51.9,87.5
				c-6.9,13.8-24.8,24.4-19.2,42.3c4.4,8.1,11.9,0.8,18.3,1.9c5.3-4.6,1.9-12.8,2.9-19.2c6.6-5.9,9.1-24.8,23.1-16.3
				c4.7,1.2,13.7,0.6,11.5,8.6c9.3,23.3-31.3,32.9-14.4,55.7c4.8-0.7,10.9,1.6,14.4-1.9c-4.5-16.4,10.2-27.3,19.2-39.4
				c1.4-5.9-2.9-12.8,0-19.2l18.3,1c4.4-3.3,3.3-8.9,4.8-13.5C1283.7,286.4,1290.1,278.8,1285,273.6z M1261,300.5
				c-13.1,0.2-26.1,0.3-37.5-3.8c4.1-8.7,7.2-17.9,15.4-25l27.9,2.9C1266.3,283.8,1264.3,292.4,1261,300.5z"/>
		</g>
		<g>
			<path d="M211.6,787.7c14.4,10.2,21.7,26,18.3,43.2c-4.6,9.5-14.5,18.5-25,20.2c-13.9-0.5-24.4-9.3-35.6-16.3
				c3.7-4.2,7.3,3.5,11.5,3.8c13.1-0.3,27.5-1.3,33.6-14.4c-1.9-9.2,7.7-14.8,2.9-24c-20.9-17.3-51.2-2.9-76.9-8.7
				c-6.2,0.3-10.5-4.1-16.3-4.8c2.2,14.6-7,26.9-10.6,40.4c-8.2,13.5-13.5,31.9-2.9,46.1c-6.8,2.8-8.9-7-13.5-10.6
				c-7.7-26,9.1-46.8,11.5-71.1c-1.2-6.6,6.4-12.2,1-18.3l1.9-4.8C139.9,790.8,183,764,211.6,787.7z"/>
			<path d="M195.2,898.2c-2.4,11.1-14.3,11.4-23.1,13.5l-44.2,3.8c-5,9.7-9.9,19.3-10.6,30.8c4.9,4.3,10.9,0,16.3,0
				c15.4,1.3,33.7,1.2,49-2.9c3.2-2.6,4.6-10.5,9.6-7.7c2.9,5.5,15.7,9.2,8.6,16.3l-10.6,10.6c-20.9,1.6-41.6,3.2-62.5,4.8
				c-3,3.9-5.5,8.1-9.6,11.5c-5.2-2.5-11.4-4.6-14.4-10.6c2.5-6.5,8.1-11.8,10.6-18.3c-4.2-7-16.7-13.5-11.5-24
				c3.9-9.2,4.2-21.6,13.5-26.9c19.5-1.6,40.3-0.3,58.6-4.8C180.1,880.5,191.2,892,195.2,898.2z"/>
			<path d="M202.9,990.5c-1,6.9-4.8,15.3-11.5,17.3v4.8c5.5,9.3,23.5,17.1,12.5,29.8c-3.8,4.8-3.4,13.9-11.5,14.4
				c-18.5,4.5-38.3,6.1-55.7,13.5c-4.1,3.2-5,16-12.5,9.6c-5.5-4.4-10.1-10.4-6.7-17.3c1.8-3.9,2.5-11,8.6-10.6
				c18.6-5.6,40.3-4,57.7-12.5c2.6-6.4,8.2-11.5,7.7-19.2c-5.9-20.9-25.9-4.6-38.4-5.8l-19.2,5.8c-4.5,6.1-6.3,13.4-11.5,19.2
				c-6.3-1.4-11.2-8.6-15.4-13.5c2.7-36.3,45.2-25.5,69.2-34.6c4.6-2.7,5.4-8.7,9.6-12.5C192.1,981,197.4,986.1,202.9,990.5z"/>
			<path d="M230.8,1098.1c-5.1,1.2-10.3-3.2-15.4-4.8c-15.4,5.1-31.3,8.8-46.1,15.4c0.5,10.8-14.2,26.6,1.9,32.7
				c23.9-4.6,47-11.1,68.2-22.1l17.3-39.4c5.4-3.4,9.6,1.9,14.4,2.9c7.1,9.8-5.6,16.2-6.7,25c-0.3,39.3-45.5,31.4-68.2,47.1
				c-18.4-0.8-32.9-16.4-50-23.1c-5.3-11.1,2.9-21.4,2.9-32.7c2.5-12.6,17.3-11.5,25.9-17.3c10.2-2.1,20.3-10.2,30.8-5.8
				C214.7,1082,225.1,1088.6,230.8,1098.1z"/>
			<path d="M267.3,1176.9c5.5,5.1,14.8,6.9,16.3,15.4c0.2,11.7-1.3,26.5,5.8,36.5c-15.6-5.4-26.1-22.9-26.9-39.4
				c-6.2-5.6-16-5.5-24-3.8c-3.6,2.9-7.4,4.7-10.6,8.6c15.7,10.7,28.6,27.4,30.8,46.1c-0.6,19.6-15.8,36.6-33.6,43.2l-16.3-10.6
				c-5.3-26.7-5.6-58.8-32.7-73c13.9,2.4,28.6,11,38.4,24l11.5,28.8c4.2-2.5,10.2-5.2,11.5-10.6c0.8-23-12.1-43.6-32.7-51.9
				c-1.5-1.5-4.4-3.7-1.9-5.8C219.5,1164.5,246,1173.8,267.3,1176.9z"/>
		</g>
		<g>
			<path d="M1616.1,919.4c19.9-3.3,1.4-18.7-2.1-25.9c-8.5-2.9-13.5,8.2-22.8,3.8c-41.6-4.9-82.6-11.3-124.7-14.7
				c-5.4,5.3-12.7,8.2-16.1,15.8c0.5,2.3,3.9,3.1,4.3,5.4c10.7,17.3,18.3-7.7,30.7-1.6C1492.6,904.2,1593.6,919.6,1616.1,919.4z"/>
			<path d="M1588.3,788.3c-18.9,3.7-40.3-0.1-59.8,2.1c-15.5,1-17.7,18.8-22.1,30.4c11.6,13.6,21.6,28.6,36.2,37.8l61-4.9l9.2-9.1
				c15.9-10-3.5-19.3-8.8-28.5c-8.3-9.7,7.8-15.2,10.1-23.5l-10-10.2C1598.3,772.9,1593.5,786.3,1588.3,788.3z M1599.7,822.7
				c-6.6,24.4-36.5,10-54.8,14.9c-5.8,0.3-12.2,1.9-17.4,0.9c-3.1-2.9-6.2-6.9-3.2-10.8c5.4-3.9,3.7-12.4,10.5-14.8
				c19.8-2.1,41.1-3.1,60.8-2C1597,814.8,1603.2,818.2,1599.7,822.7z"/>
			<path d="M1498.7,1054.8l1.6,34.9c-1.3,4.1,3.4,13-5.8,10.9c-9.3-8.6-22.9-8.5-32.4-16.4c-15.4-1.6-29.3-15.9-45.5-8.1
				c-1.6,2.4-3.6,4.7-3.5,7.5c2.3,5.4,3.4,11.7,7,16.3c5.6-1.3,10.7-5.6,16.8-4.1c32.5,8.4,62.7,27.6,95.5,35
				c14.9,4.3,28.5,19.9,45.1,11.1c7.1-5.8-1.4-11.9-1.5-18.3c-5.5-4.3-12.9,0.5-19.4,0.7c-7-5.4-26-4.4-20.3-19.7
				c0.3-4.8-2-13.6,6.4-12.9c21.2-13.4,38.1,24.8,57.4,3.9c-1.5-4.6-0.4-11-4.5-13.8c-15.3,7.5-28.7-5-42.3-11.7
				c-6-0.3-12,5.2-18.9,3.5l-2.4-18.1c-4-3.7-9.4-1.6-14.1-2.3C1511.5,1053.7,1502.9,1048.8,1498.7,1054.8z M1529.6,1073.5
				c2.6,12.8,5.1,25.6,3.1,37.5c-9.4-2.5-18.9-3.8-27.4-10.5l-2.3-27.9C1512.2,1071.3,1521.1,1071.6,1529.6,1073.5z"/>
			<path d="M1481,1306.7l-60.5-55.7c-5-4.9-13.5-5.9-18.3-13.5c-12.2,0-25.6,2.9-36.5,8.7l-5.8,51.9l1.9,5.8
				c16.4,13.6,30.2,31.9,48,44.2l29.8-5.8c5.8-10.7,4.3-24.3,8.6-35.6c6.8,4,12.8,10.3,19.2,15.4v3.8c-11.1,9.3-19.3,21.5-25.9,33.6
				c-0.3,9.2-3.9,19.4,1,26.9c1.7-1.3,0.7-3.8,1-5.8c6.6-10.9,5.6-24.9,17.3-33.6c7.9-2.1,13.7-9.4,21.1-12.5
				C1483.2,1325.8,1488.5,1314.2,1481,1306.7z M1438.8,1322c-7.4,2.7-16.6,6.9-24,3.8c-16-13.4-30.1-27.6-45.2-41.3
				c2.6-7-6.4-23.9,7.7-21.1c8.1,1.4,18.5-2.9,25.9,0C1414.4,1282.3,1455.5,1292.1,1438.8,1322z"/>
			<path d="M1310.9,1314.3c-3.6,4.8-3.7,13.5-10.6,14.4c-6.1-2.3-13.2-2.7-18.3-7.7c2.1-8,2.7-17.4,10.6-22.1
				C1297.9,1306.1,1316,1301.6,1310.9,1314.3z"/>
			<path d="M1285,1346.1c-2.6,8.7-2.2,18.5-7.7,25.9c-6.7-2.9-16-1.4-20.2-8.7c1.9-8.6,3.5-18.1,9.6-24
				C1273.4,1340.1,1280.1,1341,1285,1346.1z"/>
			<path d="M1360.9,1354.7c-14.7-7-18.4-28.4-39.4-20.2c-28-4.7-20.2,27.4-29.8,41.3c-1,10.3-6.2,21-2.9,30.8l43.2,50l6.7,1
				c11.8-3.8,28.2,1,35.6-11.5c0.4-20.7,11.6-36.8,11.5-57.7C1387,1373.5,1369.3,1365.9,1360.9,1354.7z M1371.5,1422.9l-32.7,7.7
				c-11.6-10.2-22.8-21.4-33.6-33.6l-9.6-13.5l4.8-22.1c8.9-2.6,18.8-2.7,27.9-4.8l10.6,12.5c12.5,11.8,25.6,22.3,37.5,35.6
				L1371.5,1422.9z"/>
			<path d="M1554.2,939.8c-16.2,1.4-30.3-15.1-44.2,2.7c-26.5,10.2-3.4,33.8-4.6,50.7c4.4,9.3,5.3,21.3,13.2,27.9l62.7,21l6.3-2.6
				c8.2-9.3,24.7-13.5,24.7-28c-10.2-18-8.7-37.6-19.4-55.5C1586.2,942.7,1567.1,945.2,1554.2,939.8z M1598,993.1l-24.2,23.2
				c-15.2-2.9-30.5-6.9-46.1-11.8l-15.1-6.7l-7.1-21.5c6.4-6.8,14.8-11.9,21.5-18.3l15.5,5.4c16.8,3.8,33.4,6.2,50.4,11.5
				L1598,993.1z"/>
			<path d="M1220.6,1378.7c-3.6,6.1-4.1,14.2-10.6,18.3c-16.4-3.3-38.5-21.5-52.9-1c-6.7,23.4-17.8,54.7,5.8,74l4.8-5.8
				c9.3-17.3,15.7-35.8,27.9-51.9c18-1.5,39.3-12.2,55.7,0c18.5,17.2,25.7,39.1,38.4,58.6c0.5,17.5-7.7,31.4-11.5,47.1l-1.9,1.9
				c0.2-11.2,0.3-24.9-3.8-35.6c-9.8-17.7-19.8-35.5-32.7-51.9c-14.8-2.4-30.2-3.4-46.1-2.9c-10.5,14.6-17.9,30.5-25.9,46.1
				c5,16.1,16.7,29.5,23.1,45.2c5.5,8.2,17,5.9,25.9,7.7c4.4,5.7-0.7,12.2-1,18.3c-5.2,12.8-19.8,4-28.8,3.8
				c-13.5-10.1-16.9-26-26.9-38.4c-12.7-20.1-30.4-39.3-25.9-65.3c5-21.4,12.8-41.6,19.2-62.5c11.3-12.5,28-21.8,45.2-16.3
				C1206.3,1370.8,1213.7,1374.1,1220.6,1378.7z"/>
			<path d="M1452.3,1147.9c7.8,7.4,11.3,20.7,7,30.7c-2.2,9.4-12.3,10.4-16.6,17.8c3.8,8.1,9.8,14,18.2,17.9
				c14.9-16.7-12.1-43.9,14.5-54.7c22-4.3,47.6,9.1,61.1,25.9c2.4,7.6,11.1,11.3,9.7,20.3c-19.5,9.9-42,21.3-40.2,46
				c-0.8,6.7,3,13.8,1.1,20.6c-8.9-5-16.8-16.9-16.4-28.7c-5.5-25.6,18.4-41.9,37-52.8c3.6-3.1-1.5-4.3-2.4-6.4
				c-13.8-5.3-28-17.1-41.5-6.4c-5.4,13.6-2.9,27.5-2.1,41.3c-0.5,6.8-5.5,13-12.5,13.3c-22.1-7.4-28.8-32-38.3-52.5
				C1442.4,1174.1,1447.3,1157.7,1452.3,1147.9z"/>
		</g>
		<g>
			<path d="M428.7,1319.1c15,16.2,32.1,31.7,51.9,38.4c-17.3,5.8-38.2,2.9-51.9-8.6c-3.2-3.8-5.4-8.1-9.6-11.5
				c-18.4,15.6-32.9,36-50,53.8c-11.3,4.2-23.8,8.6-36.5,6.7c17.9-8.5,27.6-28.8,41.3-43.2c-0.7-7.8-7.8-14.7-14.4-18.3
				c4.2-3.8,10.9-4.8,16.3-2.9c4.6,0.6,7.5,8.1,12.5,4.8c3.8-9.9,29.1-18.2,11.5-29.8c-13.7-8-20.6-35-39.4-22.1
				c-22.3,8.4-39.5,30.9-48,51.9c-7.2,33,2.3,63.7,27.9,85.5c23,17.5,56.3,27.1,84.6,14.4l1,1c-11.4,17.5-34,14.7-52.9,13.5
				c-32.3-4.8-63.7-30.3-75-61.5c-10.3-25.4,1.2-53.6,12.5-75.9c14.3-19.4,34.9-27.8,54.8-35.6c-0.3-5.4-7.9-5.2-11.5-8.7
				c-2.6-4.8-8.3-2.4-11.5-5.8c14.1-7.7,28.7-2.4,42.3,2.9C403.6,1280.9,418.1,1300.5,428.7,1319.1z"/>
			<path d="M512.4,1463.3c-2.7-9.8-4-20.1-4.8-30.8l-2.9-2.9c-14.5,0.5-32.5-1.9-45.2,5.8l-30.8,50.9c-0.7,11.8,2.5,24.6,6.7,35.6
				l3.8,3.8l40.4-4.8l4.8-4.8c-7.1-0.2-16,4.1-24,1.9c-4.4-7.8-6.8-16.5-9.6-25c1.8-20.1,23.5-12.1,36.5-15.4
				C495.1,1471.5,513.9,1479.6,512.4,1463.3z M465.3,1474.8c0-12.5,10.1-24.9,17.3-36.5c0.8-2.3,4.2-1.9,6.7-1.9
				c2.7,10.7,2.6,22.4,3.8,33.6C484.3,1472.7,475,1474.1,465.3,1474.8z"/>
			<path d="M752.6,1499.8c-2.4,4.1,6.2,4.9,1.9,8.7c-5.2,5.4-11.4,8.3-18.3,9.6c-3.9-5.4-10.7-10.7-8.6-17.3
				C735.2,1498.8,749.5,1480.8,752.6,1499.8z"/>
			<path d="M608.5,1503.7c-3.9-6.9-3.4-16.4-10.6-21.1c-13.4,2.6-25.8,10.2-38.4,11.5c8.3-25.2,26.6-46.1,30.8-73l-6.7-11.5
				c-7.6-1.2-14.2,5.4-21.1,8.7c-1.6,5.5,4.7,10,3.8,16.3c-15.2,40.7-36.5,78.8-54.8,118.2c-3.7,8.7,3.5,15.1,6.7,22.1
				c7-2.3,14.2-3.9,20.2-8.7c-5-10.7,0.2-24.2,6.7-33.6c4.9-1.5,10.2-5,15.4-2.9c1,7.3,5.7,13,6.7,20.2c4.6,10.5-3.7,17.9-7.7,25.9
				c-5.7,7.7,1.9,14.6,4.8,21.1c7.3-0.9,14-2.7,19.2-8.6c0.5-3.5-0.5-6.3-2.9-8.6c-0.5-3.7,0.5-7,2.9-9.6
				c12.7-14.7-0.7-30.6-1.9-46.1l22.1-6.7C611.1,1515.6,609.7,1509.3,608.5,1503.7z M547.9,1523.8c5.1-8.7,3.6-25.3,18.3-25
				c4.9-1.3,8.9-4.8,14.4-4.8l6.7,22.1C574.2,1516.9,562,1523.6,547.9,1523.8z"/>
			<path d="M657.5,1516.2v4.8c9.7-0.8,19.9-6,30.8-6.7c5.5,10.9,19.9,19.2,16.3,32.7c-5.1,19.2-13.2,37.2-15.4,57.7
				c3,3.7,5.9,7.5,5.8,12.5c-3.3,5.6-8.6,7.4-13.5,10.6c-9.2,1.4-11.7-7.5-15.4-13.5c2-20.9,10.4-39,15.4-58.6
				c4.1-10.7-6.8-17.5-8.6-26.9c-5.5-6.1-13.5-1.1-19.2,1c-5.7,19.3-11.4,38.6-20.2,56.7c-3.1,7.1,6.1,9.2,2.9,16.3
				c-5.2,6.1-12.2,7.6-18.3,11.5c-4.9-7.1-14.3-13.6-10.6-23.1l25.9-65.3c-1.6-6.1-4.6-11.6-4.8-18.3c6.2-4.7,12.6-8.6,20.2-9.6
				L657.5,1516.2z"/>
			<path d="M1038,1569c-7.3-13.4-5.4-30.6-9.6-45.2l-3.8-4.8c-10.9-3.2-19.1-12.6-29.8-16.3c-9.1,15.4-29.9,25.1-36.5,42.3
				c3.3,24.6,12.1,46.8,18.3,70.2c5.6,4.9,12.3,6.9,19.2,8.6c3.6,5,10.9,0.8,14.4,5.8c3.9-4.7,9-10.7,10.6-17.3
				c6-14.6,14.7,2.6,22.1,3.8c7.6-2.8,8-12.1,11.5-18.3C1047.4,1589.7,1034.9,1583,1038,1569z M993.8,1597.8
				c-7.6-20.6-14.3-41.4-18.3-63.4c1.6-4.9,3.5-9.3,8.6-11.5c8.8,2.8,15.2,11.6,24,14.4c4.5,20.2,10.4,39.8,13.5,60.5
				C1018.4,1614.6,1003.9,1596,993.8,1597.8z"/>
			<path d="M756.4,1536.3c-1.2,26.9-12.7,52-12.5,80.7c1.6,4.5,6.2,7.7,4.8,13.5c-5.9,2.8-9.2,11.7-16.3,11.5
				c-6.9-6.7-15.7-13.9-11.5-24c5.4-23.2,8.7-47.3,12.5-71.1c-2.3-2.5-6.4-5.4-3.8-8.6c5.8-4.5,11.1-10,17.3-13.5L756.4,1536.3z"/>
			<path d="M854.5,1535.4c-3.5,10.2-14.1,18.9-25,19.2c-9.5,1.9-14.6-6.8-23.1-7.7c-5.8,6.8-8.6,14.8-8.6,24
				c21.4,6.5,34.9-29.3,55.7-9.6c13.1,18.2,11.6,47.1,1.9,66.3c-5.9,5.4-5.7,14.8-14.4,17.3c-17.1-13.5-36.9-29.2-58.6-17.3
				c-6.4,2.1-11.3,8.5-18.3,9.6c0.8-10.2,8.4-22.3,19.2-26.9c21-15.7,45.7-0.8,63.4,11.5c4.3,2,3.3-3.2,4.8-4.8
				c-1-14.7,3.8-32.6-11.5-40.4c-14.6,0.8-26.2,8.8-38.4,15.4c-6.3,2.4-14.1,0.5-17.3-5.8c-2.5-23.2,17.1-39.5,31.7-56.7
				C826.5,1537.3,843.4,1534.9,854.5,1535.4z"/>
			<path d="M956.3,1627.6c-16.5-5.5-13.1-22.7-13.5-36.5l-16.3-19.2l14.4-16.3c0.3-10.7-12.6-20-20.2-26.9
				c-7.4,4.7-13.6,15.5-21.1,17.3c-8.6-22.4,11.5-56.6-17.3-67.3c-5,3.9-5.6,10.4-10.6,13.5c-5.9,6.3,2.8,11.2,5.8,16.3
				c3.7,42.6,0.6,85.8,2.9,127.8l1.9,2.9c5.7,3.2,10.1,12.1,17.3,8.6c3.5-6.3,8.8-11.8,9.6-19.2c-13.9-6.9-7.6-22.2-10.6-33.6
				c1.3-5.4,7.3-8.1,11.5-10.6c22.2,9.5,12.6,32,16.3,50.9c6.1,4.9,12.8,7.7,19.2,11.5C947.5,1639.7,959.5,1636.9,956.3,1627.6z
				 M919.8,1568l-19.2,14.4c-0.7-10-4.1-26.8,6.7-33.6c6.2,2.6,8.1,10.4,12.5,15.4V1568z"/>
		</g>
	</g>
</g>
<g>
	<g>
		<path d="M2017.7,887c0.4,0,0.5-6,0-6C2017.3,881.1,2017.2,887,2017.7,887L2017.7,887z"/>
	</g>
</g>
</svg>
