<svg xmlns="http://www.w3.org/2000/svg" viewBox="0 0 1032.1 810.8989"><defs><style>.cls-1{fill:none;stroke:#000;stroke-linecap:round;stroke-linejoin:round;stroke-width:65px;}</style></defs><g id="Layer_2" data-name="Layer 2"><g id="inner"><g id="silhouette"><g id="briefcase"><path id="bottom" d="M603.28,476.0488l428.82-113.42v393.12a55.1461,55.1461,0,0,1-55.14,55.15H55.14A55.146,55.146,0,0,1,0,755.7488v-393.12l428.82,113.42v24.01a49.2117,49.2117,0,0,0,49.16,49.16h76.14a49.2117,49.2117,0,0,0,49.16-49.16Z"/><path id="top" d="M1032.1,194.2287v142.92l-428.88,110.38a49.2238,49.2238,0,0,0-49.1-46.77H477.98a49.2238,49.2238,0,0,0-49.1,46.77L0,337.1489v-142.92a55.1459,55.1459,0,0,1,55.14-55.15H976.96A55.146,55.146,0,0,1,1032.1,194.2287Z"/><rect id="handle" class="cls-1" x="384.1249" y="32.5" width="263.8502" height="182.5615" rx="55.9683"/></g><g id="clip"><rect x="453.8211" y="425.7636" width="124.4577" height="98.4531" rx="24.1596"/></g></g></g></g></svg>