<svg xmlns="http://www.w3.org/2000/svg" viewBox="0 0 1032.0999 810.8989"><defs><style>.cls-1{fill:#f280a1;}.cls-2{fill:none;stroke:#f280a1;stroke-linecap:round;stroke-linejoin:round;stroke-width:65px;}.cls-3{fill:#96c;}</style></defs><g id="Layer_2" data-name="Layer 2"><g id="inner"><g id="dark"><g id="briefcase"><path id="bottom" class="cls-1" d="M1032.1,362.6289v393.12a55.1481,55.1481,0,0,1-55.15,55.15H55.14A55.146,55.146,0,0,1,0,755.7488v-393.12l428.99,113.46v23.97a49.2116,49.2116,0,0,0,49.16,49.16h76.14a49.2117,49.2117,0,0,0,49.16-49.16v-24.06Z"/><path id="top" class="cls-1" d="M1032.1,194.2287v142.92l-428.71,110.33a49.2224,49.2224,0,0,0-49.1-46.72H478.15a49.2325,49.2325,0,0,0-49.11,46.81L0,337.1588v-142.93a55.1458,55.1458,0,0,1,55.14-55.15H976.95A55.148,55.148,0,0,1,1032.1,194.2287Z"/><rect id="handle" class="cls-2" x="384.1243" y="32.5" width="263.8502" height="182.5615" rx="55.9683"/></g><g id="clip"><rect class="cls-3" x="453.9911" y="425.7636" width="124.4577" height="98.4531" rx="24.1596"/></g></g></g></g></svg>