<svg xmlns="http://www.w3.org/2000/svg" viewBox="0 0 754.7895 1046.4518"><defs><style>.cls-1{fill:#f280a1;}.cls-2{fill:#fff;}.cls-3{fill:none;stroke:#96c;stroke-linecap:round;stroke-miterlimit:10;stroke-width:45px;}</style></defs><g id="Layer_2" data-name="Layer 2"><g id="inner"><g id="dark"><path id="bag" class="cls-1" d="M710.5392,966.5093c-27.4061,36.0847-68.4918,59.2157-113.4391,64.9553-70.5157,9.0048-168.6272,14.9872-224.027,14.9872-68.3355,0-135.3091-2.9447-202.3468-11.8255C8.0392,1013.1086-23.1543,883.0284,14.1674,734.665A796.61,796.61,0,0,1,106.7087,524.99,766.626,766.626,0,0,1,244.2263,361.6759c77.9837-9.4487,148.0407-11.6632,213.9481-6.7707,18.4359,1.3682,37.0389,3.2461,55.3337,5.5533A794.3581,794.3581,0,0,1,647.4828,518.8978c112.5834,165.8776,140.71,342.4292,64.6452,445.49Q711.348,965.4441,710.5392,966.5093Z"/><g id="D"><path class="cls-2" d="M514.6483,609.2916Q497.0662,569.3282,467.4,548.9478a96.1331,96.1331,0,0,0-17.4168-9.4452,113.0041,113.0041,0,0,0-13.2057-4.6731q-6.2346-1.7484-12.6121-2.9908c1.4954.2419,2.9909.5168,4.4862.8027v-51.02H380.4032v46.9513H340.6211v-46.83H292.3835v46.83H240.3743v49.755h9.6872c8.5325,0,14.1182.7917,16.7352,2.5069a14.1374,14.1374,0,0,1,5.6846,7.1692c1.1436,3.1887,1.7154,10.2478,1.7154,21.2874V805.9147c0,11.05-.5718,18.11-1.5943,21.4084-1.5943,4.1014-3.76,7.0592-6.2674,8.7635-2.6171,1.7153-7.9718,2.6279-16.1636,2.6279h-9.6761v49.7441h51.8882V933.42h48.2376V888.4586h29.6661q5.0632-.0662,10.116-.44V933.42h48.2485V879.3323c2.7929-.77,5.5748-1.6054,8.3567-2.4851a131.2372,131.2372,0,0,0,13.2058-5.1239,87.95,87.95,0,0,0,8.6533-4.5522c13.5467-8.3127,26.3017-20.6058,38.0229-37a178.96,178.96,0,0,0,26.6423-55.33c5.9266-20.4959,8.9943-43.7184,8.9943-69.6791C532.2961,667.9311,526.49,635.9339,514.6483,609.2916Zm-64.665,154.3889c-1.2537,4.2114-2.6171,8.3128-4.2114,12.2933a125.9784,125.9784,0,0,1-8.9943,18.4505c-6.0366,10.017-13.0959,17.8678-21.0677,23.4536h-.11a62.5422,62.5422,0,0,1-11.5015,6.2565c-9.7861,4.1013-21.7382,6.2675-35.6367,6.7183-1.4734,0-2.9578.11-4.5521.11-7.9718,0-12.8649-.4508-15.031-1.3634a10.06,10.06,0,0,1-4.7831-5.3439q-1.0227-2.573-1.0226-14.0083V586.0689h30.9746c11.49,0,21.3974,1.3635,29.8309,4.1014a51.59,51.59,0,0,1,13.4257,6.3773,21.5948,21.5948,0,0,1,2.1662,1.4735c6.2675,4.6731,11.9521,11.3914,16.9662,20.045a128.6567,128.6567,0,0,1,9.6761,20.9466c1.2534,3.5295,2.5069,7.0591,3.53,10.8086,4.8929,16.9663,7.29,36.0985,7.29,57.6169C457.2732,728.3849,454.8763,747.1763,449.9833,763.6805Z"/></g><path id="rope" class="cls-3" d="M237.5382,308.4053c63.2661-8.7845,139.8349-15.0184,221.7889-8.2723,19.5861,1.6123,38.4627,3.759,56.597,6.32"/><path id="fray" class="cls-1" d="M629.0119,132.0857a770.0792,770.0792,0,0,0-58.5411,62.5329c-15.71,18.6484-30.7217,37.9215-45.2192,57.5371-.5389-.0979-1.0776-.1837-1.6285-.257-19.7505-2.7918-39.8684-5.0448-59.778-6.6857-67.7491-5.5712-138.89-3.5018-216.9735,6.38L144.8131,109.1883a63.668,63.668,0,0,1-5.4365-25.64,64.3583,64.3583,0,0,1,31.9217-55.2473c14.02-8.1426,30.9665-9.6,46.5293-5.0449l61.137,17.89,1.1876.3183A122.6325,122.6325,0,0,0,359.3256,35.55L425.7645,3.983,427.43,3.42c41.864-14.1669,85.1242,17.4853,84.2671,61.6881l-3.3182,82.4793a1.134,1.134,0,0,0,2.0815.6735L528.6188,121.09A63.3371,63.3371,0,0,1,592.67,96.7723a127.7811,127.7811,0,0,1,31.9216,11.363l1.2245.649A14.4883,14.4883,0,0,1,629.0119,132.0857Z"/></g></g></g></svg>