<svg xmlns="http://www.w3.org/2000/svg" viewBox="0 0 1216.9187 1063.8337"><defs><style>.cls-1{fill:#f280a1;}.cls-2{fill:#96c;}.cls-3{fill:#fff;}.cls-4{fill:none;stroke:#fff;stroke-miterlimit:10;stroke-width:25px;}</style></defs><g id="Layer_2" data-name="Layer 2"><g id="inner"><g id="dark"><g id="ball"><circle id="base" class="cls-1" cx="608.4593" cy="503.8853" r="448.0723"/><g id="reflections"><g id="purple"><polygon class="cls-2" points="887.638 583.529 988.327 557.393 1056.532 528.311 1024.842 630.949 922.013 713.125 853.494 739.524 887.638 583.529"/><polygon class="cls-2" points="708.502 599.099 887.638 583.529 855.173 744.817 681.693 783.29 708.502 599.099"/><polygon class="cls-2" points="532.129 787.081 684.205 787.081 641.157 927.396 598.204 958.013 565.791 913.765 532.129 787.081"/><polygon class="cls-2" points="891.655 434.098 891.655 577.077 985.268 552.566 1055.404 516.822 1052.242 489.103 1012.113 459.49 928.949 438.706 891.655 434.098"/><polygon class="cls-2" points="853.494 753.758 930.119 713.928 982.204 683.409 1024.842 630.949 1026.012 666.739 983.347 749.388 887.638 854.372 784.666 915.974 727.906 929.417 758.544 880.396 814.567 817.246 845.353 780.183 853.494 753.758"/></g><g id="white"><polygon class="cls-3" points="850.982 261.383 891.655 428.139 1056.532 474.855 1023.503 388.278 981.183 332.226 907.32 286.479 850.982 261.383"/><polygon class="cls-3" points="703.673 410.611 703.673 597.16 891.655 579.631 891.655 428.139 703.673 410.611"/><polygon class="cls-3" points="532.135 783.395 515.185 599.099 703.673 597.16 684.79 783.386 532.135 783.395"/><polygon class="cls-3" points="374.194 749.388 532.135 783.395 573.131 942.197 482.732 912.172 421.138 850.817 374.194 749.388"/><polygon class="cls-3" points="636.073 941.817 691.925 783.395 850.982 758.132 786.648 862.566 703.673 941.817 636.073 941.817"/><polygon class="cls-3" points="374.194 258.383 532.129 224.387 513.245 410.611 325.264 428.141 348.125 318.105 374.194 258.383"/><polygon class="cls-3" points="183.011 362.946 284.396 194.449 439.107 88.014 519.973 74.313 440.848 135.009 390.801 205.502 374.194 258.383 272.883 306.455 183.011 395.29 183.011 362.946"/></g></g><g id="lines"><g id="vertical"><ellipse id="middle" class="cls-4" cx="608.4593" cy="503.8853" rx="283.1952" ry="448.0723"/><ellipse id="inner-2" data-name="inner" class="cls-4" cx="608.4593" cy="503.8853" rx="95.214" ry="448.0723"/></g><g id="horizontal"><circle id="outer" class="cls-4" cx="608.4593" cy="503.8853" r="448.0723"/><ellipse id="middle-2" data-name="middle" class="cls-4" cx="608.4593" cy="503.8853" rx="448.0723" ry="283.1952"/><ellipse id="inner-3" data-name="inner" class="cls-4" cx="608.4593" cy="503.8853" rx="448.0723" ry="95.214"/></g></g></g><g id="stars"><path class="cls-3" d="M162.1275,211.7161c-49.5664,14.5533-63.4415,28.4284-77.9948,77.9948a2.3247,2.3247,0,0,1-4.4637,0c-14.5533-49.5664-28.4283-63.4415-77.9948-77.9948a2.3247,2.3247,0,0,1,0-4.4637c49.5665-14.5533,63.4415-28.4283,77.9948-77.9948a2.3247,2.3247,0,0,1,4.4637,0c14.5533,49.5665,28.4284,63.4415,77.9948,77.9948A2.3247,2.3247,0,0,1,162.1275,211.7161Z"/><path class="cls-3" d="M243.5893,80.103c-33.189,10.0207-43.24,20.0718-53.2609,53.2609a2.3243,2.3243,0,0,1-4.4509,0c-10.0207-33.1891-20.0718-43.24-53.2609-53.2609a2.3243,2.3243,0,0,1,0-4.4509c33.1891-10.0207,43.24-20.0718,53.2609-53.2609a2.3243,2.3243,0,0,1,4.4509,0C200.3491,55.58,210.4,65.6314,243.5893,75.6521A2.3243,2.3243,0,0,1,243.5893,80.103Z"/><path class="cls-3" d="M1078.0268,984.1647c-49.5664,14.5533-63.4415,28.4283-77.9948,77.9948a2.3247,2.3247,0,0,1-4.4637,0c-14.5533-49.5665-28.4283-63.4415-77.9947-77.9948a2.3247,2.3247,0,0,1,0-4.4637c49.5664-14.5533,63.4414-28.4283,77.9947-77.9948a2.3247,2.3247,0,0,1,4.4637,0c14.5533,49.5665,28.4284,63.4415,77.9948,77.9948A2.3247,2.3247,0,0,1,1078.0268,984.1647Z"/><path class="cls-3" d="M220.8447,901.3786c-49.5665,14.5533-63.4415,28.4284-77.9948,77.9948a2.3247,2.3247,0,0,1-4.4637,0c-14.5533-49.5664-28.4284-63.4415-77.9948-77.9948a2.3247,2.3247,0,0,1,0-4.4637c49.5664-14.5533,63.4415-28.4283,77.9948-77.9948a2.3247,2.3247,0,0,1,4.4637,0c14.5533,49.5665,28.4283,63.4415,77.9948,77.9948A2.3247,2.3247,0,0,1,220.8447,901.3786Z"/><path class="cls-3" d="M1124.8507,84.1327c-49.5665,14.5533-63.4415,28.4284-77.9948,77.9948a2.3247,2.3247,0,0,1-4.4637,0c-14.5533-49.5664-28.4284-63.4415-77.9948-77.9948a2.3247,2.3247,0,0,1,0-4.4637c49.5664-14.5533,63.4415-28.4283,77.9948-77.9948a2.3247,2.3247,0,0,1,4.4637,0c14.5533,49.5665,28.4283,63.4415,77.9948,77.9948A2.3247,2.3247,0,0,1,1124.8507,84.1327Z"/><path class="cls-3" d="M1173.1218,842.655c-33.189,10.0207-43.24,20.0719-53.2609,53.2609a2.3243,2.3243,0,0,1-4.4509,0c-10.0207-33.189-20.0718-43.24-53.2609-53.2609a2.3243,2.3243,0,0,1,0-4.4509c33.1891-10.0207,43.24-20.0718,53.2609-53.2609a2.3243,2.3243,0,0,1,4.4509,0c10.0207,33.1891,20.0719,43.24,53.2609,53.2609A2.3243,2.3243,0,0,1,1173.1218,842.655Z"/><path class="cls-3" d="M1215.265,242.1717c-33.1891,10.0207-43.24,20.0718-53.2609,53.2609a2.3243,2.3243,0,0,1-4.4509,0c-10.0207-33.1891-20.0718-43.24-53.2609-53.2609a2.3243,2.3243,0,0,1,0-4.4509c33.1891-10.0207,43.24-20.0718,53.2609-53.2609a2.3243,2.3243,0,0,1,4.4509,0c10.0207,33.1891,20.0718,43.24,53.2609,53.2609A2.3243,2.3243,0,0,1,1215.265,242.1717Z"/></g></g></g></g></svg>