<svg xmlns="http://www.w3.org/2000/svg" viewBox="0 0 1085.1286 903.7828"><g id="Layer_2" data-name="Layer 2"><g id="inner"><g id="silhouette"><g id="arrow"><polygon id="line" points="70.711 841.206 0 770.495 448.057 322.439 627.975 502.357 898.806 231.528 969.516 302.239 627.975 643.779 448.057 463.86 70.711 841.206"/><polygon id="head" points="1020.625 356.712 1085.129 115.915 844.331 180.419 1020.625 356.712"/></g><g id="stonks"><path d="M154.6781,573.3905,334.597,393.4723V338.9186H154.6781ZM448.057,280.0128l0-.0005,179.918,179.9185,0,0V169.4594H448.057ZM741.4359,0V346.4708l113.26-113.26-68.3243-68.3239,134.9829-36.1584V0Zm0,903.7828H921.3548V392.827L741.4359,572.7455ZM448.0575,506.2867l0,0V903.7828H627.9759V686.2052l0,0ZM154.6781,903.7828H334.597V619.7469L154.6781,799.6653Z"/></g></g></g></g></svg>