<?xml version="1.0" encoding="UTF-8"?>
<svg id="Lager_2" xmlns="http://www.w3.org/2000/svg" viewBox="0 0 1276.37 1273.18">
  <g id="outer">
    <g id="bw">
      <g id="logga">
        <g>
          <path d="M1012.63,596.01c-6.41,0-12.81-2.45-17.69-7.34-9.75-9.77-9.74-25.6.03-35.36l86.37-86.21c4.69-4.68,11.04-7.31,17.66-7.31h98.25c13.81,0,25,11.19,25,25s-11.19,25-25,25h-87.91l-79.05,78.9c-4.88,4.87-11.27,7.31-17.66,7.31Z"/>
          <path d="M709.81,291.37c-6.17,0-12.35-2.27-17.18-6.84-10.03-9.49-10.46-25.32-.97-35.34l38.99-41.19c9.49-10.03,25.32-10.46,35.34-.97,10.03,9.49,10.46,25.32.97,35.34l-38.99,41.19c-4.92,5.19-11.53,7.81-18.16,7.81Z"/>
          <path d="M914.03,498.16c-6.17,0-12.35-2.27-17.18-6.85-10.03-9.49-10.46-25.31-.97-35.34l38.99-41.19c9.49-10.03,25.32-10.46,35.34-.97,10.03,9.49,10.46,25.31.97,35.34l-38.99,41.19c-4.92,5.19-11.53,7.81-18.16,7.81Z"/>
          <path d="M816.61,399.41c-6.41,0-12.81-2.45-17.69-7.34-9.75-9.77-9.74-25.6.03-35.36l79.03-78.88v-97.6c0-13.81,11.19-25,25-25s25,11.19,25,25v107.97c0,6.64-2.64,13-7.34,17.69l-86.37,86.21c-4.88,4.87-11.27,7.31-17.66,7.31Z"/>
          <circle cx="900.52" cy="147.09" r="49.61"/>
          <circle cx="983.13" cy="395.57" r="49.61"/>
          <circle cx="1226.76" cy="484.8" r="49.61"/>
        </g>
        <g>
          <path d="M563.27,288.74c-6.41,0-12.81-2.45-17.69-7.34l-86.21-86.36c-4.68-4.69-7.31-11.04-7.31-17.66v-98.25c0-13.81,11.19-25,25-25s25,11.19,25,25v87.91l78.9,79.04c9.75,9.77,9.74,25.6-.03,35.36-4.88,4.87-11.27,7.31-17.66,7.31Z"/>
          <path d="M258.63,591.55c-6.17,0-12.35-2.27-17.18-6.84l-41.19-38.99c-10.03-9.49-10.46-25.32-.97-35.34,9.49-10.03,25.32-10.46,35.34-.97l41.19,38.99c10.03,9.49,10.46,25.32.97,35.34-4.92,5.19-11.53,7.81-18.16,7.81Z"/>
          <path d="M465.42,387.34c-6.17,0-12.35-2.27-17.18-6.84l-41.19-38.99c-10.03-9.49-10.46-25.32-.97-35.34s25.32-10.46,35.34-.97l41.19,38.99c10.03,9.49,10.46,25.32.97,35.34-4.92,5.19-11.53,7.81-18.16,7.81Z"/>
          <path d="M366.67,484.76c-6.41,0-12.81-2.45-17.69-7.34l-78.88-79.03h-97.6c-13.81,0-25-11.19-25-25s11.19-25,25-25h107.97c6.64,0,13,2.64,17.69,7.34l86.21,86.36c9.75,9.77,9.74,25.6-.03,35.36-4.88,4.87-11.27,7.31-17.66,7.31Z"/>
          <circle cx="139.36" cy="375.85" r="49.61"/>
          <circle cx="387.83" cy="293.24" r="49.61"/>
          <circle cx="477.07" cy="49.61" r="49.61"/>
        </g>
        <g>
          <path d="M177.37,813.38h-98.25c-13.81,0-25-11.19-25-25s11.19-25,25-25h87.91l79.05-78.9c9.77-9.75,25.6-9.74,35.36.03,9.75,9.77,9.74,25.6-.03,35.36l-86.37,86.21c-4.69,4.68-11.04,7.31-17.66,7.31Z"/>
          <path d="M527.56,1073c-6.17,0-12.35-2.27-17.18-6.84-10.03-9.49-10.46-25.32-.97-35.34l38.99-41.19c9.49-10.03,25.32-10.46,35.34-.97,10.03,9.49,10.46,25.32.97,35.34l-38.99,41.19c-4.92,5.19-11.53,7.81-18.16,7.81Z"/>
          <path d="M323.34,866.21c-6.17,0-12.35-2.27-17.18-6.84-10.03-9.49-10.46-25.32-.97-35.34l38.99-41.19c9.49-10.03,25.32-10.46,35.34-.97,10.03,9.49,10.46,25.32.97,35.34l-38.99,41.19c-4.92,5.19-11.53,7.81-18.16,7.81Z"/>
          <path d="M373.4,1117.95c-13.81,0-25-11.19-25-25v-107.97c0-6.64,2.64-13,7.34-17.69l86.37-86.21c9.77-9.75,25.6-9.74,35.35.03,9.75,9.77,9.74,25.6-.03,35.35l-79.03,78.88v97.6c0,13.81-11.19,25-25,25Z"/>
          <circle cx="375.85" cy="1126.09" r="49.61"/>
          <circle cx="293.24" cy="877.61" r="49.61"/>
          <circle cx="49.61" cy="788.38" r="49.61"/>
        </g>
        <g>
          <path d="M799.3,1219.06c-13.81,0-25-11.19-25-25v-87.91l-78.9-79.05c-9.75-9.77-9.74-25.6.03-35.36,9.77-9.75,25.6-9.74,35.36.03l86.21,86.37c4.68,4.69,7.31,11.04,7.31,17.66v98.25c0,13.81-11.19,25-25,25Z"/>
          <path d="M1058.92,770.62c-6.17,0-12.35-2.27-17.18-6.84l-41.19-38.99c-10.03-9.49-10.46-25.32-.97-35.34,9.49-10.03,25.32-10.46,35.34-.97l41.19,38.99c10.03,9.49,10.46,25.32.97,35.34-4.92,5.19-11.53,7.81-18.16,7.81Z"/>
          <path d="M852.13,974.83c-6.17,0-12.35-2.27-17.18-6.84l-41.19-38.99c-10.03-9.49-10.46-25.32-.97-35.34s25.32-10.46,35.34-.97l41.19,38.99c10.03,9.49,10.46,25.32.97,35.34-4.92,5.19-11.53,7.81-18.16,7.81Z"/>
          <path d="M1103.88,924.79h-107.97c-6.64,0-13-2.64-17.69-7.34l-86.21-86.37c-9.75-9.77-9.74-25.6.03-35.35,9.77-9.76,25.6-9.74,35.36.03l78.88,79.03h97.6c13.81,0,25,11.19,25,25s-11.19,25-25,25Z"/>
          <circle cx="1137.01" cy="897.33" r="49.61"/>
          <circle cx="888.54" cy="979.94" r="49.61"/>
          <circle cx="799.3" cy="1223.58" r="49.61"/>
        </g>
        <g>
          <g id="dark">
            <g id="brackets">
              <path d="M967.09,658.05l-127.78,125.89h-102.19l147.65-145.47-147.65-145.47h102.19l127.78,125.89c10.92,10.76,10.92,28.38,0,39.14Z"/>
              <path d="M313.27,658.05l127.78,125.89h102.19l-147.65-145.47,147.65-145.47h-102.19l-127.78,125.89c-10.92,10.76-10.92,28.38,0,39.14Z"/>
            </g>
            <g id="slash">
              <polygon points="750.12 580.5 575.47 752.57 524.38 702.24 699.03 530.16 750.12 580.5"/>
            </g>
          </g>
          <path d="M479.13,453.4l142.84-141.83c10.73-10.65,28.05-10.64,38.76.04l142.2,141.79h-323.8Z"/>
          <path d="M478.28,823.55l142.84,141.83c10.73,10.65,28.05,10.64,38.76-.04l142.2-141.79h-323.8Z"/>
        </g>
      </g>
    </g>
  </g>
</svg>