<?xml version="1.0" encoding="UTF-8"?>
<svg id="Lager_2" xmlns="http://www.w3.org/2000/svg" viewBox="0 0 1276.37 1273.18">
  <defs>
    <style>
      .cls-1 {
        fill: #96c;
      }

      .cls-2 {
        fill: none;
        stroke: #96c;
        stroke-linecap: round;
        stroke-linejoin: round;
        stroke-width: 50px;
      }

      .cls-3 {
        fill: #f280a1;
      }

      .cls-4 {
        fill: #96c;
      }
    </style>
  </defs>
  <g id="outer">
    <g id="light">
      <g id="logga">
        <g>
          <polyline class="cls-2" points="1012.63 571.01 1099 484.8 1197.25 484.8"/>
          <line class="cls-2" x1="748.81" y1="225.18" x2="709.82" y2="266.37"/>
          <line class="cls-2" x1="953.02" y1="431.97" x2="914.03" y2="473.16"/>
          <polyline class="cls-2" points="816.61 374.41 902.98 288.2 902.98 180.23"/>
          <circle class="cls-1" cx="900.52" cy="147.09" r="49.61"/>
          <circle class="cls-1" cx="983.13" cy="395.57" r="49.61"/>
          <circle class="cls-1" cx="1226.76" cy="484.8" r="49.61"/>
        </g>
        <g>
          <polyline class="cls-2" points="563.27 263.74 477.07 177.37 477.07 79.12"/>
          <line class="cls-2" x1="217.45" y1="527.56" x2="258.63" y2="566.55"/>
          <line class="cls-2" x1="424.24" y1="323.35" x2="465.42" y2="362.34"/>
          <polyline class="cls-2" points="366.67 459.76 280.46 373.4 172.49 373.4"/>
          <circle class="cls-1" cx="139.36" cy="375.85" r="49.61"/>
          <circle class="cls-1" cx="387.83" cy="293.24" r="49.61"/>
          <circle class="cls-1" cx="477.07" cy="49.61" r="49.61"/>
        </g>
        <g>
          <polyline class="cls-2" points="263.74 702.17 177.37 788.38 79.12 788.38"/>
          <line class="cls-2" x1="527.56" y1="1048" x2="566.55" y2="1006.81"/>
          <line class="cls-2" x1="323.35" y1="841.21" x2="362.34" y2="800.02"/>
          <polyline class="cls-2" points="459.76 898.77 373.4 984.98 373.4 1092.95"/>
          <circle class="cls-1" cx="375.85" cy="1126.09" r="49.61"/>
          <circle class="cls-1" cx="293.24" cy="877.61" r="49.61"/>
          <circle class="cls-1" cx="49.61" cy="788.38" r="49.61"/>
        </g>
        <g>
          <polyline class="cls-2" points="713.1 1009.44 799.3 1095.81 799.3 1194.06"/>
          <line class="cls-2" x1="1058.93" y1="745.62" x2="1017.74" y2="706.63"/>
          <line class="cls-2" x1="852.13" y1="949.83" x2="810.95" y2="910.84"/>
          <polyline class="cls-2" points="909.7 813.42 995.91 899.79 1103.88 899.79"/>
          <circle class="cls-1" cx="1137.01" cy="897.33" r="49.61"/>
          <circle class="cls-1" cx="888.54" cy="979.94" r="49.61"/>
          <circle class="cls-1" cx="799.3" cy="1223.58" r="49.61"/>
        </g>
        <g>
          <g id="dark">
            <g id="brackets">
              <path class="cls-3" d="M967.09,658.05l-127.78,125.89h-102.19l147.65-145.47-147.65-145.47h102.19l127.78,125.89c10.92,10.76,10.92,28.38,0,39.14Z"/>
              <path class="cls-3" d="M313.27,658.05l127.78,125.89h102.19l-147.65-145.47,147.65-145.47h-102.19l-127.78,125.89c-10.92,10.76-10.92,28.38,0,39.14Z"/>
            </g>
            <g id="slash">
              <polygon class="cls-4" points="750.12 580.5 575.47 752.57 524.38 702.24 699.03 530.16 750.12 580.5"/>
            </g>
          </g>
          <path class="cls-3" d="M479.13,453.4l142.84-141.83c10.73-10.65,28.05-10.64,38.76.04l142.2,141.79h-323.8Z"/>
          <path class="cls-3" d="M478.28,823.55l142.84,141.83c10.73,10.65,28.05,10.64,38.76-.04l142.2-141.79h-323.8Z"/>
        </g>
      </g>
    </g>
  </g>
</svg>