<?xml version="1.0" encoding="UTF-8"?>
<svg id="Lager_2" xmlns="http://www.w3.org/2000/svg" viewBox="0 0 2325.47 2323.8">
  <defs>
    <style>
      .cls-1 {
        fill: none;
        stroke: #000;
        stroke-linecap: round;
        stroke-miterlimit: 10;
        stroke-width: 55px;
      }

      .cls-2 {
        font-size: 270px;
      }

      .cls-2, .cls-3 {
        font-family: HelveticaRounded-Bold, 'Helvetica Rounded';
        font-weight: 700;
      }

      .cls-3 {
        font-size: 250px;
      }
    </style>
  </defs>
  <g id="outer">
    <g id="bw">
      <g id="silhouette">
        <g id="text">
          <text class="cls-3" transform="translate(126.98 753.12) rotate(106.83)"><tspan x="0" y="0">C</tspan></text>
          <text class="cls-3" transform="translate(72.2 939.85) rotate(97)"><tspan x="0" y="0">E</tspan></text>
          <text class="cls-3" transform="translate(49.91 1122.79) rotate(87)"><tspan x="0" y="0">N</tspan></text>
          <text class="cls-3" transform="translate(63.08 1329.92) rotate(77.01)"><tspan x="0" y="0">T</tspan></text>
          <text class="cls-3" transform="translate(103.61 1504.43) rotate(67.25)"><tspan x="0" y="0">R</tspan></text>
          <text class="cls-3" transform="translate(183.58 1689.34) rotate(57.31)"><tspan x="0" y="0">A</tspan></text>
          <text class="cls-3" transform="translate(279.63 1836.72) rotate(48.62)"><tspan x="0" y="0">L</tspan></text>
          <text class="cls-3" transform="translate(386.89 1958.73) rotate(39.7)"><tspan x="0" y="0">P</tspan></text>
          <text class="cls-3" transform="translate(529.83 2076.86) rotate(29.92)"><tspan x="0" y="0">R</tspan></text>
          <text class="cls-3" transform="translate(704.02 2176.46) rotate(19.06)"><tspan x="0" y="0">O</tspan></text>
          <text class="cls-3" transform="translate(910.42 2245.24) rotate(8.39)"><tspan x="0" y="0">C</tspan></text>
          <text class="cls-3" transform="translate(1102.49 2271.98) rotate(-1.29)"><tspan x="0" y="0">E</tspan></text>
          <text class="cls-3" transform="translate(1283.88 2267.11) rotate(-10.61)"><tspan x="0" y="0">S</tspan></text>
          <text class="cls-3" transform="translate(1462.86 2232.65) rotate(-20.06)"><tspan x="0" y="0">S</tspan></text>
          <text class="cls-3" transform="translate(1633.64 2170.37) rotate(-30.06)"><tspan x="0" y="0">U</tspan></text>
          <text class="cls-3" transform="translate(1811.66 2064.66) rotate(-40.01)"><tspan x="0" y="0">T</tspan></text>
          <text class="cls-3" transform="translate(1947.97 1949.22) rotate(-49.29)"><tspan x="0" y="0">S</tspan></text>
          <text class="cls-3" transform="translate(2066.08 1810.62) rotate(-58.65)"><tspan x="0" y="0">K</tspan></text>
          <text class="cls-3" transform="translate(2160.25 1657.41) rotate(-68.79)"><tspan x="0" y="0">O</tspan></text>
          <text class="cls-3" transform="translate(2234.47 1460.04) rotate(-78.77)"><tspan x="0" y="0">T</tspan></text>
          <text class="cls-3" transform="translate(2269.25 1275.84) rotate(-88.41)"><tspan x="0" y="0">T</tspan></text>
          <text class="cls-3" transform="translate(2273.6 1099.17) rotate(-97.54)"><tspan x="0" y="0">E</tspan></text>
          <text class="cls-3" transform="translate(2247.44 913.36) rotate(-107.15)"><tspan x="0" y="0">T</tspan></text>
          <text class="cls-2" transform="translate(486.64 518.47) rotate(-40.18)"><tspan x="0" y="0">D</tspan></text>
          <text class="cls-2" transform="translate(640.24 393.1) rotate(-30.89)"><tspan x="0" y="0">-</tspan></text>
          <text class="cls-2" transform="translate(726.16 339.72) rotate(-23.55)"><tspan x="0" y="0">s</tspan></text>
          <text class="cls-2" transform="translate(847.29 285.03) rotate(-14.67)"><tspan x="0" y="0">e</tspan></text>
          <text class="cls-2" transform="translate(996.45 245.92) rotate(-5.76)"><tspan x="0" y="0">k</tspan></text>
          <text class="cls-2" transform="translate(1132.58 233.09) rotate(1.2)"><tspan x="0" y="0">t</tspan></text>
          <text class="cls-2" transform="translate(1222.35 235.05) rotate(5.93)"><tspan x="0" y="0">i</tspan></text>
          <text class="cls-2" transform="translate(1286.96 238.45) rotate(12.71)"><tspan x="0" y="0">o</tspan></text>
          <text class="cls-2" transform="translate(1437.68 271.51) rotate(22.28)"><tspan x="0" y="0">n</tspan></text>
          <text class="cls-2" transform="translate(1580.03 328.8) rotate(31.77)"><tspan x="0" y="0">e</tspan></text>
          <text class="cls-2" transform="translate(1711.34 409.06) rotate(41.22)"><tspan x="0" y="0">n</tspan></text>
        </g>
        <g id="circle">
          <path d="M1162.74,380.45c105.41,0,207.63,20.63,303.83,61.32,46.24,19.56,90.85,43.77,132.58,71.96,41.35,27.93,80.23,60.01,115.57,95.35,35.34,35.34,67.42,74.22,95.35,115.57,28.19,41.73,52.4,86.33,71.96,132.58,40.69,96.2,61.32,198.43,61.32,303.83s-20.63,207.63-61.32,303.83c-19.56,46.24-43.77,90.85-71.96,132.58-27.93,41.35-60.01,80.23-95.35,115.57-35.34,35.34-74.22,67.42-115.57,95.35-41.73,28.19-86.33,52.4-132.58,71.96-96.2,40.69-198.43,61.32-303.83,61.32s-207.63-20.63-303.83-61.32c-46.24-19.56-90.85-43.77-132.58-71.96-41.35-27.93-80.23-60.01-115.57-95.35-35.34-35.34-67.42-74.22-95.35-115.57-28.19-41.73-52.4-86.33-71.96-132.58-40.69-96.2-61.32-198.43-61.32-303.83s20.63-207.63,61.32-303.83c19.56-46.24,43.77-90.85,71.96-132.58,27.93-41.35,60.01-80.23,95.35-115.57,35.34-35.34,74.22-67.42,115.57-95.35,41.73-28.19,86.33-52.4,132.58-71.96,96.2-40.69,198.43-61.32,303.83-61.32M1162.74,325.45c-461.5,0-835.62,374.12-835.62,835.62s374.12,835.62,835.62,835.62,835.62-374.12,835.62-835.62-374.12-835.62-835.62-835.62h0Z"/>
        </g>
        <path id="arc_base" class="cls-1" d="M288.17,682.93c27.85-50.83,60-98.97,95.97-143.93"/>
        <path id="arc_base-2" data-name="arc_base" class="cls-1" d="M1941.33,539.01c35.96,44.96,68.12,93.09,95.96,143.93"/>
      </g>
      <g id="logga">
        <g>
          <path d="M1556.44,1120.49c-6.41,0-12.81-2.45-17.69-7.34-9.75-9.77-9.74-25.6.03-35.36l86.37-86.21c4.69-4.68,11.04-7.31,17.66-7.31h98.25c13.81,0,25,11.19,25,25s-11.19,25-25,25h-87.91l-79.05,78.9c-4.88,4.87-11.27,7.31-17.66,7.31Z"/>
          <path d="M1253.62,815.84c-6.17,0-12.35-2.27-17.18-6.84-10.03-9.49-10.46-25.32-.97-35.34l38.99-41.19c9.49-10.03,25.32-10.46,35.34-.97,10.03,9.49,10.46,25.32.97,35.34l-38.99,41.19c-4.92,5.19-11.53,7.81-18.16,7.81Z"/>
          <path d="M1457.83,1022.63c-6.17,0-12.35-2.27-17.18-6.85-10.03-9.49-10.46-25.31-.97-35.34l38.99-41.19c9.49-10.03,25.32-10.46,35.34-.97,10.03,9.49,10.46,25.31.97,35.34l-38.99,41.19c-4.92,5.19-11.53,7.81-18.16,7.81Z"/>
          <path d="M1360.41,923.88c-6.41,0-12.81-2.45-17.69-7.34-9.75-9.77-9.74-25.6.03-35.36l79.03-78.88v-97.6c0-13.81,11.19-25,25-25s25,11.19,25,25v107.97c0,6.64-2.64,13-7.34,17.69l-86.37,86.21c-4.88,4.87-11.27,7.31-17.66,7.31Z"/>
          <circle cx="1444.32" cy="671.57" r="49.61"/>
          <circle cx="1526.94" cy="920.04" r="49.61"/>
          <circle cx="1770.57" cy="1009.28" r="49.61"/>
        </g>
        <g>
          <path d="M1107.08,813.21c-6.41,0-12.81-2.45-17.69-7.34l-86.21-86.36c-4.68-4.69-7.31-11.04-7.31-17.66v-98.25c0-13.81,11.19-25,25-25s25,11.19,25,25v87.91l78.9,79.04c9.75,9.77,9.74,25.6-.03,35.36-4.88,4.87-11.27,7.31-17.66,7.31Z"/>
          <path d="M802.43,1116.03c-6.17,0-12.35-2.27-17.18-6.84l-41.19-38.99c-10.03-9.49-10.46-25.32-.97-35.34,9.49-10.03,25.32-10.46,35.34-.97l41.19,38.99c10.03,9.49,10.46,25.32.97,35.34-4.92,5.19-11.53,7.81-18.16,7.81Z"/>
          <path d="M1009.22,911.81c-6.17,0-12.35-2.27-17.18-6.84l-41.19-38.99c-10.03-9.49-10.46-25.32-.97-35.34s25.32-10.46,35.34-.97l41.19,38.99c10.03,9.49,10.46,25.32.97,35.34-4.92,5.19-11.53,7.81-18.16,7.81Z"/>
          <path d="M910.47,1009.24c-6.41,0-12.81-2.45-17.69-7.34l-78.88-79.03h-97.6c-13.81,0-25-11.19-25-25s11.19-25,25-25h107.97c6.64,0,13,2.64,17.69,7.34l86.21,86.36c9.75,9.77,9.74,25.6-.03,35.36-4.88,4.87-11.27,7.31-17.66,7.31Z"/>
          <circle cx="683.16" cy="900.33" r="49.61"/>
          <circle cx="931.64" cy="817.71" r="49.61"/>
          <circle cx="1020.87" cy="574.08" r="49.61"/>
        </g>
        <g>
          <path d="M721.18,1337.86h-98.25c-13.81,0-25-11.19-25-25s11.19-25,25-25h87.91l79.05-78.9c9.77-9.75,25.6-9.74,35.36.03,9.75,9.77,9.74,25.6-.03,35.36l-86.37,86.21c-4.69,4.68-11.04,7.31-17.66,7.31Z"/>
          <path d="M1071.36,1597.48c-6.17,0-12.35-2.27-17.18-6.84-10.03-9.49-10.46-25.32-.97-35.34l38.99-41.19c9.49-10.03,25.32-10.46,35.34-.97,10.03,9.49,10.46,25.32.97,35.34l-38.99,41.19c-4.92,5.19-11.53,7.81-18.16,7.81Z"/>
          <path d="M867.15,1390.69c-6.17,0-12.35-2.27-17.18-6.84-10.03-9.49-10.46-25.32-.97-35.34l38.99-41.19c9.49-10.03,25.32-10.46,35.34-.97,10.03,9.49,10.46,25.32.97,35.34l-38.99,41.19c-4.92,5.19-11.53,7.81-18.16,7.81Z"/>
          <path d="M917.2,1642.43c-13.81,0-25-11.19-25-25v-107.97c0-6.64,2.64-13,7.34-17.69l86.37-86.21c9.77-9.75,25.6-9.74,35.35.03,9.75,9.77,9.74,25.6-.03,35.35l-79.03,78.88v97.6c0,13.81-11.19,25-25,25Z"/>
          <circle cx="919.65" cy="1650.56" r="49.61"/>
          <circle cx="837.04" cy="1402.09" r="49.61"/>
          <circle cx="593.41" cy="1312.86" r="49.61"/>
        </g>
        <g>
          <path d="M1343.11,1743.53c-13.81,0-25-11.19-25-25v-87.91l-78.9-79.05c-9.75-9.77-9.74-25.6.03-35.36,9.77-9.75,25.6-9.74,35.36.03l86.21,86.37c4.68,4.69,7.31,11.04,7.31,17.66v98.25c0,13.81-11.19,25-25,25Z"/>
          <path d="M1602.72,1295.09c-6.17,0-12.35-2.27-17.18-6.84l-41.19-38.99c-10.03-9.49-10.46-25.32-.97-35.34,9.49-10.03,25.32-10.46,35.34-.97l41.19,38.99c10.03,9.49,10.46,25.32.97,35.34-4.92,5.19-11.53,7.81-18.16,7.81Z"/>
          <path d="M1395.93,1499.31c-6.17,0-12.35-2.27-17.18-6.84l-41.19-38.99c-10.03-9.49-10.46-25.32-.97-35.34s25.32-10.46,35.34-.97l41.19,38.99c10.03,9.49,10.46,25.32.97,35.34-4.92,5.19-11.53,7.81-18.16,7.81Z"/>
          <path d="M1647.68,1449.26h-107.97c-6.64,0-13-2.64-17.69-7.34l-86.21-86.37c-9.75-9.77-9.74-25.6.03-35.35,9.77-9.76,25.6-9.74,35.36.03l78.88,79.03h97.6c13.81,0,25,11.19,25,25s-11.19,25-25,25Z"/>
          <circle cx="1680.82" cy="1421.81" r="49.61"/>
          <circle cx="1432.34" cy="1504.42" r="49.61"/>
          <circle cx="1343.11" cy="1748.05" r="49.61"/>
        </g>
        <g>
          <g id="dark">
            <g id="brackets">
              <path d="M1510.89,1182.52l-127.78,125.89h-102.19l147.65-145.47-147.65-145.47h102.19l127.78,125.89c10.92,10.76,10.92,28.38,0,39.14Z"/>
              <path d="M857.08,1182.52l127.78,125.89h102.19l-147.65-145.47,147.65-145.47h-102.19l-127.78,125.89c-10.92,10.76-10.92,28.38,0,39.14Z"/>
            </g>
            <g id="slash">
              <polygon points="1293.93 1104.98 1119.27 1277.05 1068.18 1226.71 1242.83 1054.64 1293.93 1104.98"/>
            </g>
          </g>
          <path d="M1022.93,977.87l142.84-141.83c10.73-10.65,28.05-10.64,38.76.04l142.2,141.79h-323.8Z"/>
          <path d="M1022.09,1348.03l142.84,141.83c10.73,10.65,28.05,10.64,38.76-.04l142.2-141.79h-323.8Z"/>
        </g>
      </g>
    </g>
  </g>
</svg>