<?xml version="1.0" encoding="UTF-8"?>
<svg id="Lager_2" data-name="Lager 2" xmlns="http://www.w3.org/2000/svg" viewBox="0 0 2226.22 2230.11">
  <g id="outer">
    <g id="bw">
      <g id="silhouette">
        <g id="text">
          <g>
            <path d="M225.41,862.49c-13.61,44.99-49.3,61.09-66.05,56.02-11.01-3.33-15.9-11.34-12.35-23.06,6.88-22.73,35.96-6.62,46.82-42.52,7.46-24.65-7.69-51.43-45.02-62.72-31.35-9.48-62.39-5.29-72.67,28.69-9.34,30.87,23.9,40.14,18.18,59.04-2.9,9.57-11.29,17.48-20.87,14.58-24.89-7.53-40.41-45.13-28.9-83.18,16.29-53.84,56.78-76.33,116.13-58.38,48.58,14.69,81.53,56,64.73,111.52Z"/>
            <path d="M175.99,937.81c18.12,2.22,22.66,12.35,20.9,26.75l-11.73,95.53c-1.46,11.91-6,20.17-18.9,18.59-12.9-1.58-15.31-10.69-13.85-22.61l9.65-78.66-38.71-4.75-8.47,68.98c-1.31,10.67-5.32,18.74-17.98,17.19-12.65-1.55-14.6-10.36-13.29-21.03l8.47-68.98-43.18-5.3-9.9,80.65c-1.46,11.91-6,20.17-18.91,18.59s-15.31-10.69-13.85-22.61l11.97-97.52c1.77-14.39,8.63-23.12,26.75-20.9l131.02,16.08Z"/>
            <path d="M161.29,1091.78c16.98-.89,24.4,6.98,25.32,24.46.45,8.49-2.41,16.15-9.66,21.04l-111.84,77.71.03.5,106.61-5.59c13.23-.69,20.12,6.46,20.76,18.69.64,12.23-5.46,20.06-18.69,20.76l-141.06,7.4c-16.23.85-25.83-5.66-26.74-22.88-.68-12.98,1.84-17.37,9.81-23.05l108.62-77.05-.03-.5-103.61,5.43c-13.23.69-20.12-6.46-20.76-18.69-.64-12.23,5.46-20.06,18.69-20.76l142.56-7.48Z"/>
            <path d="M170.41,1317.69l-8.71-37.76c-2.64-11.45,1.07-22.06,12.03-24.59,10.96-2.53,18.95,5.38,21.59,16.83l26.65,115.47c2.64,11.45-1.07,22.06-12.03,24.58s-18.95-5.38-21.59-16.83l-8.71-37.76-124.97,28.84c-11.94,2.75-21.78-3.19-24.59-15.37-2.81-12.18,3.43-21.83,15.37-24.59l124.97-28.84Z"/>
            <path d="M206.21,1420.72c16.83-7.06,25.81-.52,31.42,12.85l26.4,62.94c18.86,44.96-.78,67.29-22.23,76.28-17.98,7.54-40.18,4.38-51.87-11.86l-.46.19c5.36,20.53-7.26,29.88-24.09,36.94-19.13,8.03-24.15,16.09-31.99,19.38-8.76,3.67-18.53-2.8-22.2-11.56-8.7-20.75,10.68-30.78,17.36-33.58,29.05-12.18,38.58-22.42,29.88-43.17l-15.67-37.35-48.64,20.4c-11.3,4.74-22,.55-26.83-10.98-4.83-11.53-.32-22.1,10.98-26.83l127.95-53.67ZM170.42,1480.19l15.86,37.81c6,14.29,15.68,27.04,34.35,19.21,17.75-7.45,17.82-20.21,10.86-36.81l-16.34-38.96-44.73,18.76Z"/>
            <path d="M310.67,1606.09c9.68-2.05,15.92,1.67,21.32,10.08l5.27,8.21c5,7.78,7.56,15.94-.74,26.62l-89.2,116.06c-2.56,3.42-7.31,9.44-11.09,11.87-8.42,5.4-19.88,2.36-25.55-6.48-4.86-7.58-5.64-14.8-.52-21.65l19.58-25.04-35.65-55.55-31.05,7.16c-8.22,2.01-14.06-1.08-19.33-9.28-6.08-9.47-4.37-19.77,4.89-25.71,3.79-2.43,11.24-4.24,15.42-5.14l146.66-31.14ZM297.11,1644.2l-.27-.42-73.9,18.61,25.92,40.4,48.25-58.59Z"/>
            <path d="M365.7,1702.51c9.19-8.1,20.67-7.55,28.93,1.83,8.26,9.38,7.36,20.84-1.83,28.93l-96.23,84.77,45.28,51.4c7.77,8.82,9.54,19.91,1.1,27.35s-19.22,4.27-26.99-4.54l-56.52-64.16c-9.58-10.88-11.55-21.81,2.14-33.87l104.11-91.71Z"/>
            <path d="M452.53,1809.93c11.66-14.04,22.64-12.4,33.79-3.14l48.29,40.08c26.55,22.03,37.04,52.84,11.49,83.62-20.92,25.2-53.91,29.33-84.5,3.94l-35.01-29.06-31.13,37.51c-7.82,9.43-19.25,10.67-28.87,2.68s-10.5-19.44-2.68-28.87l88.62-106.76ZM446.72,1881.13l29.43,24.43c12.7,10.54,28.51,10.67,38.41-1.26,11.5-13.85,6.48-27.76-9.11-40.7l-26.16-21.71-32.57,39.24Z"/>
            <path d="M575.5,1910.23c9.1-15.82,20.21-16.06,32.77-8.83l59.16,34.04c42.25,24.32,40.18,53.99,28.58,74.14-9.73,16.9-29.29,27.85-48.44,22.02l-.25.43c16.71,13.08,12.35,28.16,3.25,43.98-10.35,17.99-9.45,27.45-13.69,34.81-4.74,8.23-16.43,9-24.67,4.27-19.5-11.22-10.17-30.95-6.55-37.23,15.71-27.3,17.09-41.22-2.42-52.44l-35.1-20.2-26.31,45.72c-6.11,10.62-17.16,13.78-27.99,7.54-10.83-6.23-13.65-17.38-7.54-27.99l69.21-120.26ZM583.11,1979.22l35.54,20.45c13.43,7.73,28.86,11.99,38.96-5.56,9.6-16.68,1.91-26.88-13.69-35.86l-36.62-21.07-24.19,42.04Z"/>
            <path d="M811.97,1994.71c55.77,19.26,73.2,66.81,55.98,116.67-16.57,47.97-59.39,81.58-117.52,61.5-60.96-21.06-72.3-69.41-54.51-120.92,17.22-49.86,60.28-76.51,116.05-57.25ZM761.21,2141.69c35.21,12.16,56.73-11.09,67.99-43.7s3.67-61.15-28-72.09c-31.66-10.94-55.26,6.83-66.52,39.44-11.26,32.61-9.86,63.77,26.53,76.34Z"/>
            <path d="M988.87,2036.84c46.5,6.86,67.67,39.8,65.11,57.11-1.68,11.38-8.88,17.39-21,15.6-23.5-3.47-11.83-34.6-48.93-40.07-25.47-3.76-49.75,15.15-55.44,53.74-4.78,32.4,3.92,62.49,39.04,67.67,31.91,4.71,36.2-29.53,55.74-26.65,9.89,1.46,18.95,8.61,17.49,18.5-3.79,25.72-38.71,46.6-78.04,40.8-55.65-8.21-83.84-44.97-74.79-106.3,7.41-50.21,43.43-88.87,100.81-80.4Z"/>
            <path d="M1070.36,2074.67c-.41-18.25,8.96-24.21,23.45-24.54l96.23-2.17c12-.27,20.82,3.03,21.12,16.03.29,13-8.38,16.69-20.37,16.96l-79.23,1.79.88,38.99,69.48-1.57c10.75-.24,19.31,2.57,19.6,15.31.29,12.75-8.14,15.94-18.89,16.18l-69.48,1.57.98,43.49,81.23-1.83c12-.27,20.82,3.03,21.12,16.03s-8.38,16.69-20.37,16.96l-98.23,2.21c-14.5.33-24.12-5.21-24.54-23.45l-2.97-131.97Z"/>
            <path d="M1327.39,2102.89c38.42,1.45,51.86,21.57,55.73,42.21,5.98,31.94-13.63,60.29-62.29,69.41-51.11,9.58-78.75-11.7-82.34-30.87-1.84-9.83,4-18.04,13.83-19.89,21.87-4.1,22.2,28.91,62.99,21.26,20.89-3.91,30.27-17.63,28.06-29.42-1.33-7.13-6.25-14.34-20.65-15.21l-47.62-3.03c-38.36-2.48-48.77-21.38-52.32-40.31-7.37-39.32,26.24-60.87,60.4-67.27,31.45-5.89,71.87,4.85,76.29,28.44,1.89,10.08-5.61,17.58-15.44,19.42-18.68,3.5-20.16-23.44-57.76-16.39-18.67,3.5-27.38,14.03-25.08,26.32,2.3,12.29,17.78,13.46,31.11,14.01l35.09,1.31Z"/>
            <path d="M1484.87,2054.98c38.14-4.88,54.7,12.76,61.9,32.49,11.15,30.53-3.54,61.71-50.04,78.69-48.85,17.84-79.6,1.39-86.29-16.92-3.43-9.39.98-18.46,10.37-21.89,20.9-7.63,26.65,24.87,65.63,10.63,19.96-7.29,26.97-22.36,22.85-33.63-2.49-6.81-8.52-13.12-22.87-11.61l-47.48,4.83c-38.25,3.86-51.62-13.08-58.23-31.17-13.72-37.57,15.89-64.36,48.53-76.28,30.06-10.98,71.69-7.02,79.93,15.52,3.52,9.63-2.64,18.27-12.04,21.7-17.85,6.52-23.74-19.81-59.67-6.69-17.85,6.52-24.71,18.34-20.42,30.08,4.29,11.74,19.75,10.35,32.99,8.71l34.83-4.47Z"/>
            <path d="M1519.94,1979.1c-6.14-10.6-3.35-21.75,7.47-28.01,10.82-6.26,21.88-3.13,28.01,7.47l49.35,85.25c12.27,21.21,29.68,23.84,50.02,12.06,20.34-11.77,26.73-28.18,14.45-49.39l-49.35-85.25c-6.14-10.6-3.35-21.75,7.47-28.01,10.82-6.26,21.88-3.13,28.01,7.47l47.72,82.44c24.8,42.84,9.55,77.38-31.78,101.3-41.33,23.92-78.87,19.94-103.67-22.9l-47.72-82.44Z"/>
            <path d="M1717.75,1871.82l-29.68,24.91c-9,7.55-20.13,9.07-27.37.45s-3.81-19.32,5.18-26.87l90.75-76.19c9-7.55,20.13-9.07,27.37-.45,7.23,8.62,3.82,19.32-5.18,26.87l-29.68,24.91,82.46,98.22c7.88,9.38,7.05,20.84-2.52,28.88-9.57,8.04-21,6.86-28.88-2.52l-82.46-98.22Z"/>
            <path d="M1894.21,1754.48c30.9-22.88,53.97-15.57,69.88-1.87,24.63,21.2,27.04,55.59-5.25,93.11-33.92,39.42-68.79,40.08-83.57,27.36-7.58-6.52-8.16-16.58-1.63-24.17,14.51-16.87,35.4,8.69,62.47-22.76,13.86-16.11,12.62-32.68,3.52-40.5-5.5-4.73-13.84-7.29-25.63,1.03l-39.07,27.39c-31.5,22.04-51.44,13.78-66.03,1.23-30.32-26.09-17.56-63.92,5.11-90.26,20.87-24.26,59.14-41.13,77.33-25.47,7.77,6.69,6.61,17.23.09,24.81-12.39,14.4-30.39-5.7-55.34,23.29-12.39,14.4-12.61,28.07-3.13,36.22,9.48,8.15,22.29-.61,33.04-8.5l28.21-20.91Z"/>
            <path d="M1888.37,1668.83c-10.46-6.37-13.34-17.5-6.84-28.17,6.5-10.67,17.71-13.21,28.17-6.84l50.81,30.96-27.08-92.02c-1.8-6.66-3-12.37.77-18.56,5.07-8.33,15.27-13.53,24.24-8.07,5.34,3.25,7.28,8.24,8.44,13.05l15.94,58.89,90.57-3.08c6.86-.21,13.43-.9,17.91,1.84,13.02,7.93,11.01,19.88,5.94,28.21-4.29,7.05-8.34,9.85-18.67,9.99l-86.92,2.37,7.51,30.92,34.8,21.2c10.46,6.37,13.34,17.5,6.84,28.17-6.5,10.67-17.71,13.21-28.17,6.84l-124.26-75.7Z"/>
            <path d="M1976.77,1454.76c21.35-55,69.52-70.63,118.69-51.55,47.31,18.36,79.29,62.42,57.04,119.75-23.34,60.13-72.08,69.64-122.89,49.92-49.18-19.09-74.19-63.12-52.84-118.12ZM2121.74,1511.02c13.48-34.73-8.95-57.1-41.11-69.59-32.16-12.48-60.97-5.96-73.09,25.27s4.75,55.48,36.91,67.96c32.16,12.48,63.36,12.25,77.29-23.64Z"/>
            <path d="M2055.42,1329.01l-7.55,38.01c-2.29,11.52-10.02,19.67-21.06,17.48-11.03-2.19-15.07-12.68-12.78-24.2l23.09-116.23c2.29-11.52,10.03-19.67,21.06-17.48,11.03,2.19,15.07,12.68,12.78,24.2l-7.55,38.01,125.79,24.99c12.01,2.39,18.55,11.84,16.11,24.1-2.43,12.26-12.08,18.5-24.1,16.11l-125.79-24.99Z"/>
            <path d="M2076.95,1167.92l-1.08,38.74c-.33,11.75-6.59,21.08-17.83,20.76-11.25-.31-16.98-9.98-16.65-21.72l3.29-118.46c.33-11.75,6.59-21.08,17.83-20.76,11.25.31,16.98,9.98,16.65,21.72l-1.08,38.74,128.2,3.56c12.25.34,20.27,8.57,19.92,21.06-.35,12.5-8.82,20.26-21.06,19.92l-128.2-3.56Z"/>
            <path d="M2067.72,1058.93c-18.09,2.4-25.04-6.27-26.94-20.64l-12.64-95.42c-1.58-11.9.75-21.03,13.63-22.74,12.89-1.71,17.51,6.51,19.08,18.4l10.4,78.56,38.66-5.12-9.12-68.9c-1.41-10.66.45-19.48,13.09-21.15s16.73,6.36,18.14,17.02l9.12,68.9,43.12-5.71-10.67-80.55c-1.58-11.9.75-21.03,13.63-22.74,12.89-1.71,17.51,6.51,19.08,18.4l12.9,97.4c1.9,14.37-2.55,24.55-20.64,26.94l-130.86,17.33Z"/>
            <path d="M2041.22,855.18l11.43,37.03c3.46,11.23.53,22.07-10.22,25.39-10.75,3.32-19.28-3.99-22.75-15.22l-34.95-113.23c-3.47-11.23-.53-22.07,10.21-25.39,10.75-3.32,19.28,3.99,22.75,15.22l11.43,37.03,122.54-37.82c11.71-3.61,21.95,1.6,25.63,13.54s-1.84,22.02-13.54,25.63l-122.54,37.82Z"/>
          </g>
          <g>
            <path d="M345.01,335.61c-12.72-15.06-8.88-26.42,3.08-36.53l41.26-34.84c36.93-31.18,84.35-43.66,133.47,14.52,39.72,47.04,36.51,96.39-8.67,134.54l-40.64,34.32c-11.97,10.1-23.81,11.98-36.53-3.08l-91.97-108.93ZM464.55,408.54l28.47-24.04c27.02-22.82,15.31-54.27-4.03-77.17-24.74-29.29-50.86-37.63-75.61-16.73l-28.26,23.86,79.43,94.07Z"/>
            <path d="M610.06,232.62c10.43-6.24,21.26-7.06,28.33,4.76,7.07,11.82,1.22,20.98-9.2,27.22l-38.23,22.87c-10.43,6.24-21.26,7.06-28.33-4.76-7.07-11.82-1.22-20.98,9.2-27.22l38.23-22.87Z"/>
            <path d="M682.59,138.75c27.47-11.97,59.94-13.17,67.17,3.42,3.67,8.42,1.21,18.32-8.19,22.42-14.11,6.15-21.83-10.22-44.6-.29-12.62,5.5-19.28,12.53-15.94,20.2,3.67,8.42,12.7,6.84,24.92,4.46l16.61-3.12c22.59-4.25,50.87-6.27,61.88,18.98,12.84,29.45-9.69,55.47-36.92,67.34-32.67,14.24-66.26,11.5-74.03-6.32-3.45-7.92-2.13-17.04,8.02-21.46,15.59-6.8,26.79,14.83,53.52,3.18,12.87-5.61,18.56-14.86,15.32-22.29-3.99-9.16-12.56-7.19-26.83-4.8l-23.55,4.08c-23.3,3.97-43.42,2.43-53.99-21.83-12.84-29.45,11.62-53.07,36.62-63.97Z"/>
            <path d="M830.21,170.57c5.27,20.11,22.16,31.32,44.36,25.51,28.73-7.52,23.81-26.33,39.22-30.36,9.14-2.39,17.72,3.73,19.57,10.79,6.02,22.99-28.01,43.34-50.99,49.36-53.28,13.95-82.83-16.83-91.52-50-11.63-44.4,7.48-81.22,52.67-93.06,43.88-11.49,77.1,13.03,85.3,44.37,3.42,13.06.39,17.48-12.41,20.83l-86.2,22.57ZM891.33,131.12c-6.67-16.95-23.08-26.33-40.06-21.89-19.07,4.99-27.48,19.76-26.81,39.4l66.87-17.51Z"/>
            <path d="M945.54,26.16c-1.3-12.89,5.81-20.4,17.63-21.59,11.82-1.19,20.29,4.74,21.59,17.63l9,89.19,38.64-52.74c3.6-4.7,8.37-8.44,14.28-9.04,8.86-.89,19.32,5.92,20.32,15.86.7,6.98-1.5,9.38-4.61,13.49l-25.95,33.28,46.36,50.68c1.53,1.75,4.65,5.77,5.3,12.22,1,9.94-6.13,19.89-16.61,20.94-9.67.98-15.26-3.35-18.65-7.35l-42.36-48.64-12.48,13.47,3.01,29.82c1.3,12.89-5.81,20.4-17.63,21.59s-20.29-4.74-21.59-17.63l-16.26-161.18Z"/>
            <path d="M1112.29,77.47l-6.75-.14c-11.07-.23-15.57-4.65-15.39-13.28s4.86-12.86,15.93-12.63l6.75.14.5-24.02c.27-12.96,8.24-19.54,20.12-19.29s19.56,7.16,19.29,20.12l-.5,24.02,11.88.25c11.61.24,17.74,3.88,17.54,13.33-.2,9.45-6.48,12.83-18.09,12.58l-11.88-.25-1.65,78.82c-.12,5.94,3.05,9.25,10.07,9.39l5.67.12c8.64.18,13.67,5.15,13.49,13.52-.24,11.34-10.08,17.34-28.98,16.95-28.61-.6-40.24-12.72-39.76-35.94l1.75-83.68Z"/>
            <path d="M1204.38,71.66c1.09-10.47,6.33-19.16,21.64-17.57s18.66,11.17,17.57,21.64l-11.25,108.23c-1.09,10.47-6.33,19.16-21.64,17.57s-18.66-11.17-17.57-21.64l11.25-108.23ZM1231.63.11c11.28,1.17,19.46,11.25,18.29,22.53s-11.25,19.46-22.53,18.29c-11.28-1.17-19.46-11.25-18.29-22.53s11.25-19.46,22.53-18.29Z"/>
            <path d="M1350.78,74.55c46.35,10.45,63.99,47.64,54.84,88.2-8.67,38.45-35.03,68.21-87.44,56.4-52.41-11.82-63.45-50.01-54.78-88.46,9.15-40.56,41.03-66.58,87.39-56.13ZM1324.59,190.71c22.92,5.17,37.29-13.18,42.58-36.62,5.64-25.02-.41-46.04-22.8-51.09s-36.88,11.34-42.52,36.36c-5.29,23.44-.17,46.18,22.74,51.35Z"/>
            <path d="M1450.95,120.87c4.5-10.99,12.47-16.19,23.96-11.48s13.52,14,9.02,24.99l-1.95,4.75.5.2c15.77-9.3,32.9-13.36,53.64-4.87,21.99,9.01,41.47,29.83,26.32,66.8l-29.07,70.96c-3.99,9.74-11.47,16.6-25.71,10.77-14.24-5.83-14.76-15.97-10.77-25.71l26.1-63.71c6.04-14.74,3.09-28.2-12.65-34.65-12.74-5.22-32.03-.87-39.5,17.37l-24.67,60.21c-3.99,9.74-11.47,16.6-25.71,10.77-14.24-5.83-14.76-15.97-10.77-25.71l41.25-100.69Z"/>
            <path d="M1606.47,260.07c-10.95,17.67-7.43,37.64,12.08,49.72,25.25,15.64,35.49-.89,49.03,7.5,8.03,4.98,9.51,15.42,5.67,21.61-12.51,20.2-50.71,9.56-70.91-2.95-46.83-29.01-44.88-71.63-26.82-100.78,24.17-39.02,64.02-50.54,103.73-25.95,38.56,23.89,43.68,64.85,26.62,92.4-7.11,11.48-12.4,12.33-23.65,5.36l-75.75-46.92ZM1677.17,277.19c7.69-16.52,3.18-34.87-11.74-44.11-16.76-10.38-33.25-6.31-47.02,7.72l58.76,36.4Z"/>
            <path d="M1756.88,284.45c7.83-8.94,17.05-11.27,26.39-3.08,9.34,8.18,8.24,17.63.42,26.57l-3.38,3.86.41.36c17.93-3.67,35.46-1.96,52.32,12.81,17.87,15.66,29.54,41.67,3.21,71.73l-50.53,57.68c-6.94,7.92-16.24,11.98-27.81,1.84-11.58-10.14-8.78-19.89-1.84-27.81l45.37-51.79c10.5-11.98,12.08-25.67-.71-36.88-10.36-9.07-30.02-11.22-43,3.61l-42.88,48.95c-6.94,7.92-16.24,11.98-27.81,1.84-11.58-10.14-8.78-19.89-1.84-27.81l71.7-81.85Z"/>
          </g>
        </g>
        <g id="circle">
          <path d="M1114.13,339.55c105.41,0,207.63,20.63,303.83,61.32,46.24,19.56,90.85,43.77,132.58,71.96,41.35,27.93,80.23,60.01,115.57,95.35,35.34,35.34,67.42,74.22,95.35,115.57,28.19,41.73,52.4,86.33,71.96,132.58,40.69,96.2,61.32,198.43,61.32,303.83s-20.63,207.63-61.32,303.83c-19.56,46.24-43.77,90.85-71.96,132.58-27.93,41.35-60.01,80.23-95.35,115.57-35.34,35.34-74.22,67.42-115.57,95.35-41.73,28.19-86.33,52.4-132.58,71.96-96.2,40.69-198.43,61.32-303.83,61.32s-207.63-20.63-303.83-61.32c-46.24-19.56-90.85-43.77-132.58-71.96-41.35-27.93-80.23-60.01-115.57-95.35-35.34-35.34-67.42-74.22-95.35-115.57-28.19-41.73-52.4-86.33-71.96-132.58-40.69-96.2-61.32-198.43-61.32-303.83s20.63-207.63,61.32-303.83c19.56-46.24,43.77-90.85,71.96-132.58,27.93-41.35,60.01-80.23,95.35-115.57,35.34-35.34,74.22-67.42,115.57-95.35,41.73-28.19,86.33-52.4,132.58-71.96,96.2-40.69,198.43-61.32,303.83-61.32M1114.13,284.55c-461.5,0-835.62,374.12-835.62,835.62s374.12,835.62,835.62,835.62,835.62-374.12,835.62-835.62-374.12-835.62-835.62-835.62h0Z"/>
        </g>
        <g id="arc_base" data-name="arc base">
          <path d="M239.54,669.54c-4.47,0-9-1.09-13.19-3.39-13.32-7.3-18.2-24.01-10.91-37.33,28.41-51.86,61.59-101.61,98.61-147.89,9.49-11.86,26.79-13.78,38.65-4.29,11.86,9.49,13.78,26.79,4.29,38.65-35.04,43.8-66.44,90.89-93.32,139.96-5,9.13-14.42,14.29-24.14,14.29Z"/>
        </g>
        <g id="arc_base-2" data-name="arc base">
          <path d="M1988.71,669.54c-9.72,0-19.14-5.16-24.14-14.29-26.89-49.07-58.28-96.16-93.32-139.96-9.49-11.86-7.56-29.17,4.3-38.65,11.86-9.49,29.16-7.57,38.65,4.3,37.02,46.28,70.2,96.03,98.61,147.89,7.3,13.32,2.42,30.03-10.9,37.33-4.19,2.3-8.72,3.39-13.19,3.39Z"/>
        </g>
      </g>
      <g id="logga">
        <g>
          <path d="M1485.52,1084.64c-6.41,0-12.81-2.45-17.69-7.34-9.75-9.77-9.74-25.6.03-35.36l86.37-86.21c4.69-4.68,11.04-7.31,17.66-7.31h98.25c13.81,0,25,11.19,25,25s-11.19,25-25,25h-87.91l-79.05,78.9c-4.88,4.87-11.27,7.31-17.66,7.31Z"/>
          <path d="M1182.7,779.99c-6.17,0-12.35-2.27-17.18-6.84-10.03-9.49-10.46-25.31-.97-35.34l38.99-41.19c9.49-10.03,25.32-10.46,35.34-.97,10.03,9.49,10.46,25.31.97,35.34l-38.99,41.19c-4.92,5.19-11.53,7.81-18.16,7.81Z"/>
          <path d="M1386.92,986.78c-6.17,0-12.35-2.27-17.18-6.84-10.03-9.49-10.46-25.31-.97-35.34l38.99-41.19c9.49-10.03,25.32-10.46,35.34-.97,10.03,9.49,10.46,25.31.97,35.34l-38.99,41.19c-4.92,5.19-11.53,7.81-18.16,7.81Z"/>
          <path d="M1289.5,888.03c-6.41,0-12.81-2.45-17.69-7.34-9.75-9.77-9.74-25.6.03-35.36l79.03-78.88v-97.6c0-13.81,11.19-25,25-25s25,11.19,25,25v107.97c0,6.64-2.64,13-7.34,17.69l-86.37,86.21c-4.88,4.87-11.27,7.31-17.66,7.31Z"/>
          <circle cx="1373.41" cy="635.72" r="49.61"/>
          <circle cx="1456.02" cy="884.19" r="49.61"/>
          <circle cx="1699.65" cy="973.43" r="49.61"/>
        </g>
        <g>
          <path d="M1036.16,777.36c-6.41,0-12.81-2.45-17.69-7.34l-86.21-86.37c-4.68-4.69-7.31-11.04-7.31-17.66v-98.25c0-13.81,11.19-25,25-25s25,11.19,25,25v87.91l78.9,79.05c9.75,9.77,9.74,25.6-.03,35.35-4.88,4.87-11.27,7.31-17.66,7.31Z"/>
          <path d="M731.52,1080.18c-6.17,0-12.35-2.27-17.18-6.84l-41.19-38.99c-10.03-9.49-10.46-25.31-.97-35.34,9.49-10.03,25.32-10.46,35.34-.97l41.19,38.99c10.03,9.49,10.46,25.31.97,35.34-4.92,5.19-11.53,7.81-18.16,7.81Z"/>
          <path d="M938.31,875.96c-6.17,0-12.35-2.27-17.18-6.84l-41.19-38.99c-10.03-9.49-10.46-25.32-.97-35.34,9.49-10.03,25.32-10.46,35.34-.97l41.19,38.99c10.03,9.49,10.46,25.32.97,35.34-4.92,5.19-11.53,7.81-18.16,7.81Z"/>
          <path d="M839.56,973.39c-6.41,0-12.81-2.45-17.69-7.34l-78.88-79.03h-97.6c-13.81,0-25-11.19-25-25s11.19-25,25-25h107.97c6.64,0,13,2.64,17.69,7.34l86.21,86.37c9.75,9.77,9.74,25.6-.03,35.36-4.88,4.87-11.27,7.31-17.66,7.31Z"/>
          <circle cx="612.25" cy="864.48" r="49.61"/>
          <circle cx="860.72" cy="781.86" r="49.61"/>
          <circle cx="949.96" cy="538.23" r="49.61"/>
        </g>
        <g>
          <path d="M650.26,1302.01h-98.25c-13.81,0-25-11.19-25-25s11.19-25,25-25h87.91l79.05-78.9c9.77-9.75,25.6-9.74,35.36.03,9.75,9.77,9.74,25.6-.03,35.36l-86.37,86.21c-4.69,4.68-11.04,7.31-17.66,7.31Z"/>
          <path d="M1000.45,1561.63c-6.17,0-12.35-2.27-17.18-6.84-10.03-9.49-10.46-25.32-.97-35.34l38.99-41.19c9.49-10.03,25.32-10.46,35.34-.97,10.03,9.49,10.46,25.32.97,35.34l-38.99,41.19c-4.92,5.19-11.53,7.81-18.16,7.81Z"/>
          <path d="M796.23,1354.84c-6.17,0-12.35-2.27-17.18-6.84-10.03-9.49-10.46-25.32-.97-35.34l38.99-41.19c9.49-10.03,25.32-10.46,35.34-.97,10.03,9.49,10.46,25.32.97,35.34l-38.99,41.19c-4.92,5.19-11.53,7.81-18.16,7.81Z"/>
          <path d="M846.28,1606.58c-13.81,0-25-11.19-25-25v-107.97c0-6.64,2.64-13,7.34-17.69l86.36-86.21c9.77-9.75,25.6-9.74,35.35.03,9.75,9.77,9.74,25.6-.03,35.35l-79.03,78.88v97.6c0,13.81-11.19,25-25,25Z"/>
          <circle cx="848.74" cy="1614.71" r="49.61"/>
          <circle cx="766.13" cy="1366.24" r="49.61"/>
          <circle cx="522.5" cy="1277.01" r="49.61"/>
        </g>
        <g>
          <path d="M1272.19,1707.68c-13.81,0-25-11.19-25-25v-87.91l-78.9-79.05c-9.75-9.77-9.74-25.6.03-35.35,9.77-9.75,25.6-9.74,35.36.03l86.21,86.37c4.68,4.69,7.31,11.04,7.31,17.66v98.25c0,13.81-11.19,25-25,25Z"/>
          <path d="M1531.81,1259.25c-6.17,0-12.35-2.27-17.18-6.84l-41.19-38.99c-10.03-9.49-10.46-25.32-.97-35.34,9.49-10.03,25.32-10.46,35.34-.97l41.19,38.99c10.03,9.49,10.46,25.32.97,35.34-4.92,5.19-11.53,7.81-18.16,7.81Z"/>
          <path d="M1325.02,1463.46c-6.17,0-12.35-2.27-17.18-6.84l-41.19-38.99c-10.03-9.49-10.46-25.32-.97-35.34,9.49-10.03,25.32-10.46,35.34-.97l41.19,38.99c10.03,9.49,10.46,25.32.97,35.34-4.92,5.19-11.53,7.81-18.16,7.81Z"/>
          <path d="M1576.77,1413.41h-107.97c-6.64,0-13-2.64-17.69-7.34l-86.21-86.37c-9.75-9.77-9.74-25.6.03-35.35,9.77-9.75,25.6-9.74,35.36.03l78.88,79.03h97.6c13.81,0,25,11.19,25,25s-11.19,25-25,25Z"/>
          <circle cx="1609.9" cy="1385.96" r="49.61"/>
          <circle cx="1361.43" cy="1468.57" r="49.61"/>
          <circle cx="1272.19" cy="1712.2" r="49.61"/>
        </g>
        <g>
          <g id="dark">
            <g id="brackets">
              <path d="M1435.68,1150.9l-123.49,121.66h-102.19l147.65-145.47-147.65-145.47h102.19l123.49,121.66c13.28,13.09,13.28,34.52,0,47.6Z"/>
              <path d="M790.45,1150.9l123.49,121.66h102.19l-147.65-145.47,147.65-145.47h-102.19l-123.49,121.66c-13.28,13.09-13.28,34.52,0,47.6Z"/>
            </g>
            <g id="slash">
              <polygon points="1223.01 1069.13 1048.35 1241.2 997.26 1190.86 1171.92 1018.79 1223.01 1069.13"/>
            </g>
          </g>
          <path d="M952.02,942.02l138.65-137.67c13.05-12.96,34.11-12.93,47.13.05l138.02,137.62h-323.8Z"/>
          <path d="M951.17,1312.18l138.65,137.67c13.05,12.96,34.11,12.93,47.13-.05l138.02-137.62h-323.8Z"/>
        </g>
      </g>
    </g>
  </g>
</svg>