<?xml version="1.0" encoding="UTF-8"?>
<svg id="Lager_2" xmlns="http://www.w3.org/2000/svg" viewBox="0 0 2325.47 2323.8">
  <defs>
    <style>
      .cls-1 {
        stroke: #f280a1;
        stroke-miterlimit: 10;
        stroke-width: 55px;
      }

      .cls-1, .cls-2 {
        fill: none;
        stroke-linecap: round;
      }

      .cls-3 {
        fill: #96c;
      }

      .cls-2 {
        stroke: #96c;
        stroke-linejoin: round;
        stroke-width: 50px;
      }

      .cls-4 {
        fill: #f280a1;
      }

      .cls-5 {
        font-size: 270px;
      }

      .cls-5, .cls-6 {
        font-family: HelveticaRounded-Bold, 'Helvetica Rounded';
        font-weight: 700;
      }

      .cls-7 {
        fill: #96c;
      }

      .cls-6 {
        font-size: 250px;
      }
    </style>
  </defs>
  <g id="outer">
    <g id="light">
      <g id="light-2" data-name="light">
        <g id="text">
          <text class="cls-6" transform="translate(126.98 753.12) rotate(106.83)"><tspan x="0" y="0">C</tspan></text>
          <text class="cls-6" transform="translate(72.2 939.85) rotate(97)"><tspan x="0" y="0">E</tspan></text>
          <text class="cls-6" transform="translate(49.91 1122.79) rotate(87)"><tspan x="0" y="0">N</tspan></text>
          <text class="cls-6" transform="translate(63.08 1329.92) rotate(77.01)"><tspan x="0" y="0">T</tspan></text>
          <text class="cls-6" transform="translate(103.61 1504.43) rotate(67.25)"><tspan x="0" y="0">R</tspan></text>
          <text class="cls-6" transform="translate(183.58 1689.34) rotate(57.31)"><tspan x="0" y="0">A</tspan></text>
          <text class="cls-6" transform="translate(279.63 1836.72) rotate(48.62)"><tspan x="0" y="0">L</tspan></text>
          <text class="cls-6" transform="translate(386.89 1958.73) rotate(39.7)"><tspan x="0" y="0">P</tspan></text>
          <text class="cls-6" transform="translate(529.83 2076.86) rotate(29.92)"><tspan x="0" y="0">R</tspan></text>
          <text class="cls-6" transform="translate(704.02 2176.46) rotate(19.06)"><tspan x="0" y="0">O</tspan></text>
          <text class="cls-6" transform="translate(910.42 2245.24) rotate(8.39)"><tspan x="0" y="0">C</tspan></text>
          <text class="cls-6" transform="translate(1102.49 2271.98) rotate(-1.29)"><tspan x="0" y="0">E</tspan></text>
          <text class="cls-6" transform="translate(1283.88 2267.11) rotate(-10.61)"><tspan x="0" y="0">S</tspan></text>
          <text class="cls-6" transform="translate(1462.86 2232.65) rotate(-20.06)"><tspan x="0" y="0">S</tspan></text>
          <text class="cls-6" transform="translate(1633.64 2170.37) rotate(-30.06)"><tspan x="0" y="0">U</tspan></text>
          <text class="cls-6" transform="translate(1811.66 2064.66) rotate(-40.01)"><tspan x="0" y="0">T</tspan></text>
          <text class="cls-6" transform="translate(1947.97 1949.22) rotate(-49.29)"><tspan x="0" y="0">S</tspan></text>
          <text class="cls-6" transform="translate(2066.08 1810.62) rotate(-58.65)"><tspan x="0" y="0">K</tspan></text>
          <text class="cls-6" transform="translate(2160.25 1657.41) rotate(-68.79)"><tspan x="0" y="0">O</tspan></text>
          <text class="cls-6" transform="translate(2234.47 1460.04) rotate(-78.77)"><tspan x="0" y="0">T</tspan></text>
          <text class="cls-6" transform="translate(2269.25 1275.84) rotate(-88.41)"><tspan x="0" y="0">T</tspan></text>
          <text class="cls-6" transform="translate(2273.6 1099.17) rotate(-97.54)"><tspan x="0" y="0">E</tspan></text>
          <text class="cls-6" transform="translate(2247.44 913.36) rotate(-107.15)"><tspan x="0" y="0">T</tspan></text>
          <text class="cls-5" transform="translate(486.64 518.47) rotate(-40.18)"><tspan x="0" y="0">D</tspan></text>
          <text class="cls-5" transform="translate(640.24 393.1) rotate(-30.89)"><tspan x="0" y="0">-</tspan></text>
          <text class="cls-5" transform="translate(726.16 339.72) rotate(-23.55)"><tspan x="0" y="0">s</tspan></text>
          <text class="cls-5" transform="translate(847.29 285.03) rotate(-14.67)"><tspan x="0" y="0">e</tspan></text>
          <text class="cls-5" transform="translate(996.45 245.92) rotate(-5.76)"><tspan x="0" y="0">k</tspan></text>
          <text class="cls-5" transform="translate(1132.58 233.09) rotate(1.2)"><tspan x="0" y="0">t</tspan></text>
          <text class="cls-5" transform="translate(1222.35 235.05) rotate(5.93)"><tspan x="0" y="0">i</tspan></text>
          <text class="cls-5" transform="translate(1286.96 238.45) rotate(12.71)"><tspan x="0" y="0">o</tspan></text>
          <text class="cls-5" transform="translate(1437.68 271.51) rotate(22.28)"><tspan x="0" y="0">n</tspan></text>
          <text class="cls-5" transform="translate(1580.03 328.8) rotate(31.77)"><tspan x="0" y="0">e</tspan></text>
          <text class="cls-5" transform="translate(1711.34 409.06) rotate(41.22)"><tspan x="0" y="0">n</tspan></text>
        </g>
        <g id="circle">
          <path d="M1162.74,380.45c105.41,0,207.63,20.63,303.83,61.32,46.24,19.56,90.85,43.77,132.58,71.96,41.35,27.93,80.23,60.01,115.57,95.35,35.34,35.34,67.42,74.22,95.35,115.57,28.19,41.73,52.4,86.33,71.96,132.58,40.69,96.2,61.32,198.43,61.32,303.83s-20.63,207.63-61.32,303.83c-19.56,46.24-43.77,90.85-71.96,132.58-27.93,41.35-60.01,80.23-95.35,115.57-35.34,35.34-74.22,67.42-115.57,95.35-41.73,28.19-86.33,52.4-132.58,71.96-96.2,40.69-198.43,61.32-303.83,61.32s-207.63-20.63-303.83-61.32c-46.24-19.56-90.85-43.77-132.58-71.96-41.35-27.93-80.23-60.01-115.57-95.35-35.34-35.34-67.42-74.22-95.35-115.57-28.19-41.73-52.4-86.33-71.96-132.58-40.69-96.2-61.32-198.43-61.32-303.83s20.63-207.63,61.32-303.83c19.56-46.24,43.77-90.85,71.96-132.58,27.93-41.35,60.01-80.23,95.35-115.57,35.34-35.34,74.22-67.42,115.57-95.35,41.73-28.19,86.33-52.4,132.58-71.96,96.2-40.69,198.43-61.32,303.83-61.32M1162.74,325.45c-461.5,0-835.62,374.12-835.62,835.62s374.12,835.62,835.62,835.62,835.62-374.12,835.62-835.62-374.12-835.62-835.62-835.62h0Z"/>
        </g>
        <path id="arc_base" class="cls-1" d="M288.17,682.94c27.85-50.83,60-98.97,95.97-143.93"/>
        <path id="arc_base-2" data-name="arc_base" class="cls-1" d="M1941.33,539.01c35.96,44.96,68.12,93.09,95.96,143.92"/>
      </g>
      <g id="logga">
        <g>
          <polyline class="cls-2" points="1552.92 1100.53 1639.28 1014.32 1737.53 1014.32"/>
          <line class="cls-2" x1="1289.09" y1="754.7" x2="1250.1" y2="795.89"/>
          <line class="cls-2" x1="1493.31" y1="961.49" x2="1454.32" y2="1002.68"/>
          <polyline class="cls-2" points="1356.89 903.93 1443.26 817.72 1443.26 709.75"/>
          <circle class="cls-3" cx="1440.81" cy="676.62" r="49.61"/>
          <circle class="cls-3" cx="1523.42" cy="925.09" r="49.61"/>
          <circle class="cls-3" cx="1767.05" cy="1014.32" r="49.61"/>
        </g>
        <g>
          <polyline class="cls-2" points="1103.56 793.26 1017.35 706.89 1017.35 608.65"/>
          <line class="cls-2" x1="757.73" y1="1057.09" x2="798.92" y2="1096.08"/>
          <line class="cls-2" x1="964.52" y1="852.87" x2="1005.71" y2="891.86"/>
          <polyline class="cls-2" points="906.96 989.28 820.75 902.92 712.78 902.92"/>
          <circle class="cls-3" cx="679.64" cy="905.37" r="49.61"/>
          <circle class="cls-3" cx="928.12" cy="822.76" r="49.61"/>
          <circle class="cls-3" cx="1017.35" cy="579.13" r="49.61"/>
        </g>
        <g>
          <polyline class="cls-2" points="804.02 1231.7 717.66 1317.9 619.41 1317.9"/>
          <line class="cls-2" x1="1067.85" y1="1577.52" x2="1106.84" y2="1536.34"/>
          <line class="cls-2" x1="863.63" y1="1370.73" x2="902.62" y2="1329.55"/>
          <polyline class="cls-2" points="1000.04 1428.3 913.68 1514.5 913.68 1622.48"/>
          <circle class="cls-3" cx="916.13" cy="1655.61" r="49.61"/>
          <circle class="cls-3" cx="833.52" cy="1407.14" r="49.61"/>
          <circle class="cls-3" cx="589.89" cy="1317.9" r="49.61"/>
        </g>
        <g>
          <polyline class="cls-2" points="1253.38 1538.97 1339.59 1625.33 1339.59 1723.58"/>
          <line class="cls-2" x1="1599.21" y1="1275.14" x2="1558.02" y2="1236.15"/>
          <line class="cls-2" x1="1392.42" y1="1479.36" x2="1351.23" y2="1440.37"/>
          <polyline class="cls-2" points="1449.98 1342.94 1536.19 1429.31 1644.16 1429.31"/>
          <circle class="cls-3" cx="1677.3" cy="1426.85" r="49.61"/>
          <circle class="cls-3" cx="1428.82" cy="1509.47" r="49.61"/>
          <circle class="cls-3" cx="1339.59" cy="1753.1" r="49.61"/>
        </g>
        <g>
          <g id="dark">
            <g id="brackets">
              <path class="cls-4" d="M1507.37,1187.57l-127.78,125.89h-102.19l147.65-145.47-147.65-145.47h102.19l127.78,125.89c10.92,10.76,10.92,28.38,0,39.14Z"/>
              <path class="cls-4" d="M853.56,1187.57l127.78,125.89h102.19l-147.65-145.47,147.65-145.47h-102.19l-127.78,125.89c-10.92,10.76-10.92,28.38,0,39.14Z"/>
            </g>
            <g id="slash">
              <polygon class="cls-7" points="1290.41 1110.03 1115.75 1282.09 1064.66 1231.76 1239.31 1059.68 1290.41 1110.03"/>
            </g>
          </g>
          <path class="cls-4" d="M1019.41,982.92l142.84-141.83c10.73-10.65,28.05-10.64,38.76.04l142.2,141.79h-323.8Z"/>
          <path class="cls-4" d="M1018.57,1353.08l142.84,141.83c10.73,10.65,28.05,10.64,38.76-.04l142.2-141.79h-323.8Z"/>
        </g>
      </g>
    </g>
  </g>
</svg>