<svg xmlns="http://www.w3.org/2000/svg" viewBox="0 0 2048.0841 2234.4273"><defs><style>.cls-1,.cls-2{fill:none;stroke:#000;stroke-linecap:round;stroke-width:55px;}.cls-1{stroke-linejoin:round;}.cls-2{stroke-miterlimit:10;}</style></defs><g id="Layer_2" data-name="Layer 2"><g id="inner"><g id="silhouette"><g id="outer"><polyline id="branch_left" data-name="branch left" class="cls-1" points="535.165 737.458 625.371 827.664 759.988 827.664 850.194 917.87"/><polyline id="branch_right" data-name="branch right" class="cls-1" points="1536.241 737.458 1446.035 827.664 1311.418 827.664 1221.212 917.87"/><polyline id="twig" class="cls-1" points="682.23 655.278 718.766 691.814 718.766 743.484"/><circle id="fruit" cx="1413.3402" cy="691.3881" r="45.1915"/></g><g id="middle"><g id="trunk"><g id="left"><polyline class="cls-1" points="850.194 645.278 850.194 791.95 937.269 875.916 937.269 1305.491 852.166 1387.825 720.895 1387.825"/><circle cx="720.8947" cy="1387.8252" r="45.1915"/></g><g id="right"><polyline class="cls-1" points="1110.815 1108.916 1110.815 1387.655 1227.96 1507.909 1327.189 1507.909"/><circle cx="1327.1893" cy="1507.9094" r="45.1915"/></g></g><circle id="fruit-2" data-name="fruit" cx="850.1939" cy="526.1636" r="45.1915"/></g><g id="inner-2" data-name="inner"><g id="root"><polyline class="cls-1" points="1138.955 1736.112 1138.955 1608.291 1048.572 1517.908"/><circle cx="1138.9548" cy="1736.1121" r="45.1915"/></g><g id="trunk-2" data-name="trunk"><polyline class="cls-1" points="1278.082 601.152 1188.315 690.919 1188.315 826.725 1024.051 990.989"/><polyline class="cls-1" points="935.807 1659.606 935.807 1514.185 1024.042 1425.95 1024.042 480.972"/><circle cx="935.8075" cy="1659.6059" r="45.1915"/></g></g><g id="ground"><line class="cls-2" x1="414.7488" y1="1198.9985" x2="845.2668" y2="1198.9985"/><line class="cls-2" x1="1202.8173" y1="1198.9985" x2="1633.3353" y2="1198.9985"/></g></g></g><g id="outer-2" data-name="outer"><g id="silhouette-2" data-name="silhouette"><g id="text"><path d="M192.8037,1618.0547c15.3037-9.9443,25.3018-5.11,33.2022,7.0488l37.1875,57.2315c26.56,40.88,11.2128,66.3564-8.2832,79.0244-16.3526,10.625-38.7608,11.47-53.1582-2.43l-.42.2724c8.9258,19.2442-1.8183,30.6973-17.122,40.6417-17.4,11.3056-20.9024,20.1406-28.03,24.7714-7.9668,5.1768-18.7295.542-23.9063-7.4248-12.2588-18.8672,5.0264-32.1855,11.1055-36.1357,26.416-17.1631,33.9746-28.9317,21.7149-47.8l-22.0665-33.961L98.793,1728.0352c-10.2735,6.6748-21.55,4.4609-28.36-6.0215s-4.251-21.6856,6.0205-28.3594Zm-24.62,64.8935,22.34,34.3809c8.4454,12.9971,20.2442,23.8154,37.2246,12.7822,16.1426-10.4883,13.9336-23.0664,4.126-38.16l-23.02-35.4287Z" transform="translate(-8.4599 -40.896)"/><path d="M364.873,1801.0039c40.8223,42.5967,34.625,92.8574-3.4609,129.3545-36.6406,35.1143-90.082,45.47-132.6328,1.0674-44.6279-46.5684-32.64-94.76,6.709-132.4688C273.5723,1762.46,324.0508,1758.4062,364.873,1801.0039ZM252.6035,1908.5928c25.7735,26.8945,55.5332,16.0351,80.4414-7.836s31.1817-52.7343,8.002-76.9209c-23.1778-24.1865-52.2832-19.1474-77.1914,4.7227S225.9668,1880.7969,252.6035,1908.5928Z" transform="translate(-8.4599 -40.896)"/><path d="M504.3086,1920.3389c48.3945,33.7451,52.1934,84.2431,22.0215,127.5107-29.0264,41.6279-79.3906,62.2822-129.836,27.1065-52.9062-36.8916-50.6211-86.4991-19.4492-131.2032C407.2158,1900.4854,455.9131,1886.5928,504.3086,1920.3389Zm-88.94,127.5488c30.5547,21.3057,57.6,4.81,77.332-23.4883s20.2119-57.832-7.2666-76.9922-55.0254-8.5019-74.7578,19.7969S383.7891,2025.8672,415.3682,2047.8877Z" transform="translate(-8.4599 -40.896)"/><path d="M607.8457,2026.5488l-35.1289-16.3564c-10.6514-4.96-16.7305-14.41-11.9824-24.6084s15.8945-11.6279,26.5459-6.668l107.4267,50.0205c10.6524,4.96,16.7325,14.41,11.9825,24.6084-4.7481,10.1992-15.8936,11.628-26.545,6.668l-35.1289-16.3565-54.1367,116.2657c-5.1719,11.1045-15.9062,15.207-27.2383,9.9306s-15.1015-16.1328-9.9316-27.2382Z" transform="translate(-8.4599 -40.896)"/><path d="M712.1445,2056.457c4.0108-16.0058,15.835-16.9091,26.5059-14.2353l11.6406,2.916c12.3672,3.1,16.9727,9.4072,17.7529,23.7783l6.6075,120.7276.4853.121,62.2647-103.4707c7.4638-12.3056,14.499-15.6972,26.8681-12.5986l11.1543,2.7949c10.6709,2.6739,20.6719,9.0459,16.6621,25.0508L856.541,2243.4082c-2.4912,9.9434-9.7109,18.1856-22.5644,14.9658s-15.333-13.8935-12.8418-23.8369l27.1-108.1582-.4854-.1211L781.6016,2232.88c-4.7325,7.5771-11.6465,9.4531-19.8916,7.3867s-13.458-6.9795-14.06-15.8936L739.59,2099.1582l-.4843-.1211-27.1,108.1582c-2.49,9.9424-9.711,18.1856-22.5635,14.9649s-15.333-13.8936-12.8428-23.836Z" transform="translate(-8.4599 -40.896)"/><path d="M955.42,2096.7539c4.0127-9.0391,10.6836-11.92,20.668-11.36l9.7344.5459c9.2363.5175,17.3466,3.2255,21.1259,16.207l41.712,140.3017c1.2734,4.0782,3.3632,11.4561,3.1113,15.9493-.5586,9.9843-9.7422,17.4814-20.2266,16.8935-8.9853-.5029-15.2929-4.1123-17.8408-12.2676l-8.8037-30.54-65.8965-3.6934-12.4111,29.3506c-3.1934,7.833-9.1162,10.7559-18.8506,10.211-11.2324-.63-18.5781-8.0528-17.9629-19.0352.2519-4.4932,3.1543-11.5918,4.875-15.501Zm2.0264-58.4766a18.2494,18.2494,0,1,1-19.2422,17.1993A18.3527,18.3527,0,0,1,957.4463,2038.2773Zm20.8935,91.8116-.499-.0284-28.2549,70.7784,47.9239,2.6865Zm30.0254-88.9571a18.2493,18.2493,0,1,1-19.2422,17.1993A18.3506,18.3506,0,0,1,1008.3652,2041.1318Z" transform="translate(-8.4599 -40.896)"/><path d="M1167.9785,2157.4434c38.1895,4.4736,49.9981,25.5908,52.2246,46.4736,3.4473,32.3174-18.3418,59.03-67.5644,64.2812-51.7071,5.5157-77.586-17.872-79.6543-37.2627-1.0606-9.9433,5.4062-17.6728,15.35-18.7343,22.125-2.36,19.8555,30.5674,61.123,26.165,21.1309-2.2539,31.5684-15.1846,30.295-27.1172-.77-7.209-5.0977-14.7929-19.3907-16.7881l-47.2363-6.7783c-38.0488-5.4951-46.9355-25.164-48.9785-44.3056-4.2422-39.7754,30.959-58.6163,65.5137-62.3028,31.82-3.3945,71.2675,10.5,73.8125,34.3653,1.0878,10.1923-6.9766,17.0869-16.92,18.1484-18.8925,2.0146-18.25-24.9561-56.2851-20.8984-18.8946,2.0156-28.4063,11.83-27.08,24.26,1.3242,12.43,16.666,14.8164,29.91,16.4209Z" transform="translate(-8.4599 -40.896)"/><path d="M1268.168,2096.1123l-37.375,10.2334c-11.3321,3.1035-22.0782-.1748-25.0508-11.0244-2.9707-10.8506,4.6074-19.1465,15.9394-22.25l114.2911-31.2949c11.332-3.1035,22.08.1738,25.0507,11.0244s-4.6074,19.1465-15.9394,22.25l-37.3731,10.2334,33.8711,123.6943c3.2344,11.8145-2.3027,21.8848-14.3574,25.1856-12.0566,3.3017-21.9512-2.543-25.1875-14.3575Z" transform="translate(-8.4599 -40.896)"/><path d="M1369.7715,2055.4883c-7.6016-16.5918-1.3594-25.7764,11.8223-31.8154l87.5019-40.0879c10.91-4.9981,20.3223-5.461,25.7363,6.3574,5.416,11.8183-1.082,18.6455-11.9922,23.6435l-72.0468,33.0079,16.2441,35.455,63.1836-28.9463c9.7734-4.4775,18.75-5.291,24.06,6.3008s-1.1679,17.8584-10.9414,22.336l-63.1836,28.9472,18.1192,39.5469,73.8652-33.8418c10.91-4.998,20.3223-5.46,25.7364,6.3584s-1.0821,18.6445-11.9922,23.6426l-89.32,40.9219c-13.1817,6.039-24.2149,4.7685-31.8145-11.8233Z" transform="translate(-8.4599 -40.896)"/><path d="M1509.9023,1989.8105c-10.3105-15.0605-5.7187-25.1709,6.2461-33.3623l56.32-38.5527c40.2285-27.5381,66.0664-12.8076,79.1992,6.3779,11.0156,16.0918,12.4,38.4727-1.1485,53.2012l.2813.4131c19.0234-9.3877,30.7324,1.0791,41.041,16.1387,11.7227,17.123,20.6387,20.4111,25.4394,27.4248,5.3672,7.84.9922,18.7109-6.8457,24.0771-18.5683,12.71-32.2968-4.249-36.3925-10.2324-17.795-25.9932-29.7422-33.2666-48.3086-20.5566l-33.42,22.8779,29.7968,43.5283c6.92,10.1094,4.9785,21.4356-5.3359,28.4971s-21.5762,4.7724-28.4961-5.3369Zm65.4649,23.0508,33.834-23.16c12.791-8.7559,23.3222-20.8125,11.8828-37.5225-10.875-15.8848-23.3945-13.374-38.2481-3.206l-34.8652,23.8662Z" transform="translate(-8.4599 -40.896)"/><path d="M1644.1992,1883.957c-8.1133-9.1767-7.5859-20.6562,1.7793-28.9365,9.3633-8.28,20.8223-7.3994,28.9356,1.7783l96.3828,109c8.1133,9.1778,7.5859,20.6573-1.7793,28.9375-9.3633,8.28-20.8223,7.3985-28.9375-1.7783Z" transform="translate(-8.4599 -40.896)"/><path d="M1697.7461,1847.2783c-13.5664-12.207-11.4863-23.1152-1.7871-33.8935l64.3808-71.5469c8.0254-8.9209,16.4805-13.084,26.1446-4.3877,9.6621,8.6953,6.4121,17.54-1.6153,26.4609l-53.0078,58.91,28.99,26.0859,46.4863-51.6621c7.1914-7.9912,15.1074-12.3027,24.584-3.7744,9.4785,8.5283,6.0234,16.8535-1.168,24.8438l-46.4883,51.663,32.336,29.0967,54.3476-60.3974c8.0254-8.92,16.48-13.083,26.1446-4.3877s6.4121,17.541-1.6153,26.4609l-65.7168,73.0342c-9.6992,10.7783-20.3281,13.9941-33.8945,1.7871Z" transform="translate(-8.4599 -40.896)"/><path d="M1835.59,1694.9326l-20.7949,32.6973c-6.3066,9.915-16.4687,14.7109-25.9609,8.6738s-9.457-17.2744-3.15-27.1894l63.5957-99.9913c6.3066-9.915,16.4668-14.7109,25.9609-8.6738,9.4922,6.0381,9.4571,17.2744,3.15,27.1895l-20.7968,32.6972,108.2187,68.83c10.3379,6.5742,13.0059,17.752,6.2969,28.3s-17.9629,12.87-28.3008,6.2959Z" transform="translate(-8.4599 -40.896)"/><path d="M263.7031,376.5034c-12.7158-15.06-8.8828-26.4243,3.0821-36.5273l41.26-34.8389c36.9278-31.1807,84.3477-43.6572,133.4707,14.519,39.7168,47.0362,36.51,96.39-8.67,134.5386l-40.6406,34.3164c-11.9649,10.1031-23.8106,11.9781-36.5274-3.082ZM383.24,449.4346l28.4688-24.0391c27.0254-22.8193,15.31-54.2725-4.0254-77.1714-24.7363-29.2944-50.8574-37.63-75.6133-16.7265l-28.2627,23.8647Z" transform="translate(-8.4599 -40.896)"/><path d="M528.7559,273.521c10.4257-6.2378,21.2617-7.0581,28.332,4.7578s1.2246,20.9775-9.2012,27.2153l-38.2285,22.8736c-10.4268,6.2383-21.2627,7.0581-28.332-4.7578s-1.2246-20.9771,9.2011-27.2154Z" transform="translate(-8.4599 -40.896)"/><path d="M601.2871,179.6484c27.4736-11.9746,59.9414-13.1665,67.17,3.417,3.668,8.4151,1.211,18.3218-8.1933,22.4214-14.1094,6.1489-21.8321-10.2187-44.6035-.2934-12.6231,5.5019-19.28,12.5268-15.9356,20.2,3.668,8.4155,12.6983,6.8354,24.915,4.456l16.6084-3.1152c22.5938-4.2515,50.8731-6.2686,61.877,18.9775,12.8379,29.4541-9.6934,55.4737-36.92,67.34-32.6709,14.24-66.2617,11.5039-74.0293-6.3174-3.4531-7.92-2.126-17.04,8.0215-21.4629,15.5937-6.7964,26.7881,14.8325,53.5195,3.1811,12.8711-5.6093,18.5576-14.8623,15.32-22.2876-3.99-9.1582-12.5586-7.1909-26.832-4.7988l-23.5508,4.08c-23.3047,3.9722-43.416,2.4292-53.9883-21.8271C551.8281,214.1646,576.2881,190.5444,601.2871,179.6484Z" transform="translate(-8.4599 -40.896)"/><path d="M748.9053,211.4648c5.2666,20.1123,22.1552,31.32,44.3584,25.5069,28.7314-7.5225,23.8066-26.3291,39.2187-30.3643,9.1416-2.3935,17.7227,3.7329,19.57,10.7852,6.0176,22.9858-28.0078,43.3379-50.9931,49.3559-53.2842,13.9517-82.835-16.8276-91.5205-50-11.627-44.4038,7.48-81.2246,52.6679-93.0561,43.8828-11.49,77.0957,13.0278,85.3028,44.3721,3.42,13.06.3906,17.4814-12.4082,20.8325Zm61.122-39.4482c-6.6718-16.9536-23.082-26.333-40.06-21.8877-19.0674,4.9927-27.4824,19.7559-26.8066,39.3955Z" transform="translate(-8.4599 -40.896)"/><path d="M864.2305,67.0527c-1.3008-12.8945,5.8115-20.396,17.6308-21.5883s20.2881,4.7373,21.5889,17.6318l8.9971,89.1855,38.6406-52.7436c3.5957-4.7046,8.375-8.4434,14.2842-9.04,8.8642-.894,19.3213,5.92,20.3242,15.86.7041,6.9844-1.4971,9.3774-4.6094,13.4907l-25.95,33.2818,46.3613,50.6816a21.5167,21.5167,0,0,1,5.3028,12.2192c1.0019,9.94-6.1348,19.8858-16.6113,20.9429-9.6709.9756-15.2627-3.3452-18.6514-7.3452l-42.3555-48.6431-12.4814,13.47,3.0088,29.8184c1.3007,12.894-5.8116,20.396-17.6319,21.5884s-20.2871-4.7378-21.5879-17.6319Z" transform="translate(-8.4599 -40.896)"/><path d="M1030.9863,118.3628l-6.749-.1411c-11.0674-.2315-15.5664-4.6465-15.3857-13.2847s4.8593-12.8613,15.9277-12.63l6.748.1411.503-24.0249c.2705-12.9575,8.2412-19.5424,20.1181-19.2939s19.5645,7.1606,19.293,20.1182l-.5019,24.0249,11.8769.2485c11.6074.2427,17.7441,3.8818,17.5469,13.33-.1992,9.4482-6.48,12.8276-18.0879,12.5849l-11.877-.2485L1068.75,198.01c-.125,5.9389,3.0469,9.246,10.0645,9.3925l5.67.1187c8.6367.1806,13.664,5.147,13.49,13.5151-.2383,11.3379-10.0859,17.3433-28.9805,16.9478-28.6152-.5982-40.2441-12.7241-39.7578-35.9395Z" transform="translate(-8.4599 -40.896)"/><path d="M1123.0742,112.5542c1.0879-10.4736,6.334-19.1577,21.6426-17.5669,15.3066,1.5908,18.6543,11.168,17.5664,21.6416l-11.2461,108.2275c-1.09,10.4737-6.3359,19.1582-21.6426,17.5674-15.3086-1.5908-18.6562-11.1684-17.5664-21.6421Zm27.252-71.5464a20.52,20.52,0,1,1-22.5313,18.2891A20.511,20.511,0,0,1,1150.3262,41.0078Z" transform="translate(-8.4599 -40.896)"/><path d="M1269.4707,115.45c46.3555,10.4521,63.9863,47.6406,54.8418,88.2017-8.6719,38.4536-35.0313,68.2133-87.4453,56.3955-52.4121-11.8184-63.4512-50.0113-54.7813-88.4649C1191.2305,131.0215,1223.1152,104.998,1269.4707,115.45Zm-26.19,116.1519c22.9141,5.1665,37.2911-13.18,42.5762-36.6211,5.6426-25.021-.4121-46.0376-22.8008-51.0855-22.3867-5.0478-36.875,11.3364-42.5175,36.3574C1215.2539,203.6938,1220.3672,226.4351,1243.2812,231.6021Z" transform="translate(-8.4599 -40.896)"/><path d="M1369.6445,161.7676c4.5039-10.9932,12.4688-16.1919,23.9629-11.4834,11.4922,4.7085,13.5215,14.001,9.0176,24.9941l-1.9453,4.7471.5.2051c15.7715-9.2954,32.9023-13.3648,53.6406-4.8692,21.9863,9.0074,41.4668,29.8267,26.3184,66.8042L1452.07,313.1221c-3.9922,9.7441-11.4687,16.6015-25.7109,10.7671s-14.76-15.9668-10.7676-25.711l26.1016-63.7109c6.039-14.7412,3.0918-28.2031-12.6485-34.6514a30.612,30.612,0,0,0-39.5039,17.3711L1364.873,277.4c-3.9921,9.7441-11.4687,16.6011-25.7109,10.7671-14.24-5.8345-14.7578-15.9668-10.7656-25.7109Z" transform="translate(-8.4599 -40.896)"/><path d="M1525.16,300.9663c-10.9473,17.6743-7.4317,37.6377,12.0781,49.7232,25.25,15.64,35.4863-.8868,49.0293,7.5019,8.0332,4.9761,9.5078,15.417,5.6679,21.6143-12.5117,20.2-50.707,9.563-70.9062-2.9488-46.8242-29.0053-44.8789-71.6294-26.8223-100.7807,24.1719-39.0215,64.0235-50.544,103.7325-25.9468,38.5625,23.8867,43.68,64.8511,26.6171,92.3955-7.1093,11.4771-12.4,12.3281-23.6484,5.3613Zm70.705,17.1172c7.6914-16.5161,3.1817-34.8726-11.74-44.1147-16.7559-10.379-33.2539-6.3057-47.0215,7.7163Z" transform="translate(-8.4599 -40.896)"/><path d="M1675.5684,325.3433c7.8261-8.9361,17.0488-11.2681,26.3906-3.0845s8.2441,17.6313.418,26.5674l-3.3809,3.8589.4062.3559c17.9336-3.6733,35.4571-1.9619,52.3145,12.8037,17.873,15.6558,29.541,41.67,3.2129,71.7285l-50.5254,57.6788c-6.9375,7.92-16.2363,11.9794-27.8125,1.8388s-8.7773-19.8921-1.8379-27.8125l45.3633-51.789c10.498-11.983,12.08-25.6719-.7149-36.88a30.6137,30.6137,0,0,0-43.0039,3.6089l-42.873,48.9458c-6.9395,7.92-16.2363,11.9795-27.8125,1.8388-11.5781-10.14-8.7774-19.8921-1.84-27.8125Z" transform="translate(-8.4599 -40.896)"/></g><g id="circle"><path d="M1032.502,380.45a776.7188,776.7188,0,0,1,436.4126,133.2847,783.0546,783.0546,0,0,1,282.8828,343.4983A779.5189,779.5189,0,0,1,1679.835,1597.48a783.0526,783.0526,0,0,1-343.4986,282.8832,779.5189,779.5189,0,0,1-740.247-71.9625A783.0564,783.0564,0,0,1,313.2065,1464.902a779.5189,779.5189,0,0,1,71.9624-740.2471A783.0556,783.0556,0,0,1,728.6675,441.772,775.6794,775.6794,0,0,1,1032.502,380.45m0-55c-461.4991,0-835.6177,374.1185-835.6177,835.6174s374.1186,835.6178,835.6177,835.6178S1868.12,1622.5663,1868.12,1161.0674,1494.001,325.45,1032.502,325.45Z" transform="translate(-8.4599 -40.896)"/></g><g id="arcs"><path id="arc_base" data-name="arc base" class="cls-2" d="M105.5658,1527.6953A993.92,993.92,0,0,1,35.96,1161.0674c0-235.31,81.5571-451.5717,217.9461-622.0594" transform="translate(-8.4599 -40.896)"/><path id="arc_base-2" data-name="arc base" class="cls-2" d="M1811.0983,539.0085c136.3888,170.4876,217.9457,386.7489,217.9457,622.0589a993.92,993.92,0,0,1-69.6059,366.6278" transform="translate(-8.4599 -40.896)"/></g></g></g></g></svg>