<svg xmlns="http://www.w3.org/2000/svg" viewBox="0 0 2048.0841 2234.4273"><defs><style>.cls-1,.cls-4,.cls-5{fill:none;stroke-linecap:round;stroke-width:55px;}.cls-1,.cls-5{stroke:#f280a1;}.cls-1{stroke-linejoin:round;}.cls-2{fill:#96c;}.cls-3{fill:#f280a1;}.cls-4{stroke:#96c;}.cls-4,.cls-5{stroke-miterlimit:10;}</style></defs><g id="Layer_2" data-name="Layer 2"><g id="inner"><g id="light"><g id="outer"><polyline id="branch_left" data-name="branch left" class="cls-1" points="535.165 737.458 625.371 827.664 759.988 827.664 850.194 917.87"/><polyline id="branch_right" data-name="branch right" class="cls-1" points="1536.241 737.458 1446.035 827.664 1311.418 827.664 1221.212 917.87"/><polyline id="twig" class="cls-1" points="682.23 655.278 718.766 691.814 718.766 743.484"/><circle id="fruit" class="cls-2" cx="1413.3402" cy="691.3881" r="45.1915"/></g><g id="middle"><g id="trunk"><g id="left"><polyline class="cls-1" points="850.194 645.278 850.194 791.95 937.269 875.916 937.269 1305.491 852.166 1387.825 720.895 1387.825"/><circle class="cls-3" cx="720.8947" cy="1387.8252" r="45.1915"/></g><g id="right"><polyline class="cls-1" points="1110.815 1108.916 1110.815 1387.655 1227.96 1507.909 1327.189 1507.909"/><circle class="cls-3" cx="1327.1893" cy="1507.9094" r="45.1915"/></g></g><circle id="fruit-2" data-name="fruit" class="cls-2" cx="850.1939" cy="526.1636" r="45.1915"/></g><g id="inner-2" data-name="inner"><g id="root"><polyline class="cls-1" points="1138.955 1736.112 1138.955 1608.291 1048.572 1517.908"/><circle class="cls-3" cx="1138.9548" cy="1736.1121" r="45.1915"/></g><g id="trunk-2" data-name="trunk"><polyline class="cls-1" points="1278.082 601.152 1188.315 690.919 1188.315 826.725 1024.051 990.989"/><polyline class="cls-1" points="935.807 1659.606 935.807 1514.185 1024.042 1425.95 1024.042 480.972"/><circle class="cls-3" cx="935.8075" cy="1659.6059" r="45.1915"/></g></g><g id="ground"><line class="cls-4" x1="414.7488" y1="1198.9985" x2="845.2668" y2="1198.9985"/><line class="cls-4" x1="1202.8173" y1="1198.9985" x2="1633.3353" y2="1198.9985"/></g></g></g><g id="outer-2" data-name="outer"><g id="light-2" data-name="light"><g id="text"><path d="M192.8032,1618.0547c15.3037-9.9443,25.3018-5.11,33.2022,7.0488l37.187,57.2315c26.5615,40.88,11.2134,66.3564-8.2832,79.0244-16.3521,10.625-38.76,11.47-53.1582-2.43l-.4195.2724c8.9263,19.2442-1.8183,30.6973-17.122,40.6417-17.4,11.3056-20.9024,20.1406-28.03,24.7714-7.9663,5.1768-18.7295.542-23.9058-7.4248-12.2592-18.8672,5.0259-32.1855,11.1055-36.1357,26.415-17.1631,33.9736-28.9317,21.7144-47.8l-22.0669-33.961L98.792,1728.0352c-10.2725,6.6748-21.5493,4.4609-28.36-6.0215s-4.2514-21.6856,6.02-28.3594Zm-24.62,64.8935,22.3394,34.3809c8.4453,12.9971,20.2451,23.8154,37.2255,12.7822,16.1426-10.4883,13.9332-23.0664,4.1255-38.16l-23.02-35.4287Z" transform="translate(-8.4594 -40.896)"/><path d="M364.8726,1801.0039c40.8217,42.5967,34.6245,92.8574-3.46,129.3545-36.6406,35.1143-90.0825,45.47-132.6338,1.0674-44.6274-46.5684-32.6391-94.76,6.709-132.4688C273.5723,1762.46,324.0508,1758.4062,364.8726,1801.0039ZM252.6035,1908.5928c25.7735,26.8945,55.5327,16.0351,80.4409-7.836s31.1812-52.7343,8.0025-76.9209-52.2832-19.1474-77.1919,4.7227S225.9658,1880.7969,252.6035,1908.5928Z" transform="translate(-8.4594 -40.896)"/><path d="M504.3076,1920.3389c48.395,33.7451,52.1934,84.2431,22.0225,127.5107-29.0269,41.6279-79.3916,62.2822-129.8369,27.1065-52.9063-36.8916-50.6206-86.4991-19.4488-131.2032C407.2153,1900.4854,455.9126,1886.5928,504.3076,1920.3389Zm-88.94,127.5488c30.5547,21.3057,57.6,4.81,77.332-23.4883s20.2119-57.832-7.2666-76.9922-55.0259-8.5019-74.7583,19.7969S383.7881,2025.8672,415.3677,2047.8877Z" transform="translate(-8.4594 -40.896)"/><path d="M607.8457,2026.5488l-35.1289-16.3564c-10.6519-4.96-16.7314-14.41-11.9829-24.6084s15.894-11.6279,26.5459-6.668l107.4267,50.0205c10.6524,4.96,16.732,14.41,11.983,24.6084s-15.8941,11.628-26.5459,6.668l-35.129-16.3565-54.1367,116.2657c-5.1709,11.1045-15.9062,15.207-27.2378,9.9306s-15.102-16.1328-9.9311-27.2382Z" transform="translate(-8.4594 -40.896)"/><path d="M712.1445,2056.457c4.01-16.0058,15.8345-16.9091,26.5049-14.2353l11.6406,2.916c12.3677,3.1,16.9727,9.4072,17.7535,23.7783l6.6074,120.7276.4848.121,62.2652-103.4707c7.4643-12.3056,14.5-15.6972,26.8677-12.5986l11.1552,2.7949c10.67,2.6739,20.6719,9.0459,16.6616,25.0508l-35.5449,141.8672c-2.4912,9.9434-9.7109,18.1856-22.5639,14.9658s-15.3335-13.8935-12.8423-23.8369l27.0991-108.1582-.4849-.1211L781.6016,2232.88c-4.7334,7.5771-11.647,9.4531-19.8921,7.3867s-13.4575-6.9795-14.0591-15.8936L739.59,2099.1582l-.4848-.1211-27.0991,108.1582c-2.4913,9.9424-9.711,18.1856-22.564,14.9649s-15.3335-13.8936-12.8423-23.836Z" transform="translate(-8.4594 -40.896)"/><path d="M955.42,2096.7539c4.0122-9.0391,10.6836-11.92,20.6675-11.36l9.7349.5459c9.2353.5175,17.3462,3.2255,21.1255,16.207l41.7119,140.3017c1.2744,4.0782,3.3642,11.4561,3.1123,15.9493-.56,9.9843-9.7432,17.4814-20.2276,16.8935-8.9853-.5029-15.2934-4.1123-17.8408-12.2676l-8.8042-30.54-65.8955-3.6934-12.4116,29.3506c-3.1934,7.833-9.1162,10.7559-18.8511,10.211-11.2319-.63-18.5776-8.0528-17.9624-19.0352.252-4.4932,3.1538-11.5918,4.8755-15.501Zm2.0259-58.4766a18.2494,18.2494,0,1,1-19.2422,17.1993A18.3516,18.3516,0,0,1,957.4458,2038.2773Zm20.8936,91.8116-.4991-.0284-28.2553,70.7784,47.9238,2.6865Zm30.0258-88.9571a18.2493,18.2493,0,1,1-19.2426,17.1993A18.3512,18.3512,0,0,1,1008.3652,2041.1318Z" transform="translate(-8.4594 -40.896)"/><path d="M1167.978,2157.4434c38.19,4.4736,49.9981,25.5908,52.2256,46.4736,3.4473,32.3174-18.3428,59.03-67.5644,64.2812-51.708,5.5157-77.586-17.872-79.6543-37.2627-1.0606-9.9433,5.4062-17.6728,15.35-18.7343,22.125-2.36,19.8554,30.5674,61.122,26.165,21.1309-2.2539,31.5684-15.1846,30.295-27.1172-.7686-7.209-5.0977-14.7929-19.3907-16.7881l-47.2363-6.7783c-38.0488-5.4951-46.9355-25.164-48.9775-44.3056-4.2432-39.7754,30.958-58.6163,65.5127-62.3028,31.82-3.3945,71.2675,10.5,73.8134,34.3653,1.0879,10.1923-6.9765,17.0869-16.9209,18.1484-18.8925,2.0146-18.25-24.9561-56.2851-20.8984-18.8936,2.0156-28.4063,11.83-27.08,24.26s16.666,14.8164,29.9111,16.4209Z" transform="translate(-8.4594 -40.896)"/><path d="M1268.1675,2096.1123l-37.374,10.2334c-11.3321,3.1035-22.0791-.1748-25.0508-11.0244s4.6074-19.1465,15.9394-22.25l114.291-31.2949c11.3321-3.1035,22.0791.1738,25.0508,11.0244s-4.6074,19.1465-15.9394,22.25l-37.3741,10.2334,33.8711,123.6943c3.2354,11.8145-2.3017,21.8848-14.3574,25.1856s-21.9512-2.543-25.1865-14.3575Z" transform="translate(-8.4594 -40.896)"/><path d="M1369.771,2055.4883c-7.6016-16.5918-1.3594-25.7764,11.8223-31.8154l87.5029-40.0879c10.9092-4.9981,20.3223-5.461,25.7363,6.3574s-1.082,18.6455-11.9922,23.6435l-72.0468,33.0079,16.2431,35.455,63.1836-28.9463c9.7735-4.4775,18.75-5.291,24.0606,6.3008s-1.167,17.8584-10.94,22.336l-63.1836,28.9472,18.1182,39.5469,73.8652-33.8418c10.91-4.998,20.3223-5.46,25.7373,6.3584s-1.083,18.6445-11.9921,23.6426l-89.3213,40.9219c-13.1817,6.039-24.2139,4.7685-31.8145-11.8233Z" transform="translate(-8.4594 -40.896)"/><path d="M1509.9019,1989.8105c-10.31-15.0605-5.7178-25.1709,6.247-33.3623l56.3194-38.5527c40.2285-27.5381,66.0664-12.8076,79.2,6.3779,11.0156,16.0918,12.3994,38.4727-1.1495,53.2012l.2823.4131c19.0234-9.3877,30.7324,1.0791,41.041,16.1387,11.7217,17.123,20.6377,20.4111,25.4394,27.4248,5.3662,7.84.9922,18.7109-6.8466,24.0771-18.5674,12.71-32.2969-4.249-36.3926-10.2324-17.794-25.9932-29.7412-33.2666-48.3076-20.5566l-33.4209,22.8779,29.7978,43.5283c6.92,10.1094,4.9785,21.4356-5.3369,28.4971s-21.5762,4.7724-28.4961-5.3369Zm65.4658,23.0508,33.833-23.16c12.791-8.7559,23.3222-20.8125,11.8828-37.5225-10.874-15.8848-23.3945-13.374-38.2481-3.206l-34.8642,23.8662Z" transform="translate(-8.4594 -40.896)"/><path d="M1644.2,1883.957c-8.1143-9.1767-7.5859-20.6562,1.7783-28.9365s20.8223-7.3994,28.9366,1.7783l96.3818,109c8.1142,9.1778,7.5859,20.6573-1.7783,28.9375s-20.8223,7.3985-28.9375-1.7783Z" transform="translate(-8.4594 -40.896)"/><path d="M1697.7456,1847.2783c-13.5654-12.207-11.4853-23.1152-1.7871-33.8935l64.3809-71.5469c8.0263-8.9209,16.48-13.084,26.1445-4.3877s6.4121,17.54-1.6143,26.4609l-53.0088,58.91,28.99,26.0859,46.4873-51.6621c7.19-7.9912,15.1064-12.3027,24.584-3.7744s6.0224,16.8535-1.169,24.8438l-46.4873,51.663,32.336,29.0967,54.3466-60.3974c8.0264-8.92,16.4815-13.083,26.1446-4.3877s6.413,17.541-1.6143,26.4609l-65.7178,73.0342c-9.6982,10.7783-20.3271,13.9941-33.8935,1.7871Z" transform="translate(-8.4594 -40.896)"/><path d="M1835.59,1694.9326l-20.7959,32.6973c-6.3066,9.915-16.4677,14.7109-25.96,8.6738s-9.458-17.2744-3.1514-27.1894l63.5967-99.9913c6.3056-9.915,16.4668-14.7109,25.96-8.6738s9.4571,17.2744,3.1514,27.1895l-20.7969,32.6972,108.2188,68.83c10.3369,6.5742,13.0049,17.752,6.2969,28.3s-17.9639,12.87-28.3008,6.2959Z" transform="translate(-8.4594 -40.896)"/><path d="M263.7031,376.5034c-12.7163-15.06-8.8833-26.4243,3.0821-36.5273l41.26-34.8389c36.9278-31.1807,84.3477-43.6572,133.4707,14.519,39.7158,47.0362,36.51,96.39-8.67,134.5386l-40.6406,34.3164c-11.9654,10.1031-23.8111,11.9781-36.5274-3.082ZM383.24,449.4346l28.4693-24.0391c27.0254-22.8193,15.3091-54.2725-4.0264-77.1714-24.7358-29.2944-50.8564-37.63-75.6123-16.7265l-28.2632,23.8647Z" transform="translate(-8.4594 -40.896)"/><path d="M528.7554,273.521c10.4262-6.2378,21.2622-7.0581,28.332,4.7578s1.2246,20.9775-9.2017,27.2153l-38.2285,22.8736c-10.4262,6.2383-21.2622,7.0581-28.332-4.7578s-1.2246-20.9771,9.2017-27.2154Z" transform="translate(-8.4594 -40.896)"/><path d="M601.2866,179.6484c27.4737-11.9746,59.9419-13.1665,67.17,3.417,3.668,8.4151,1.2115,18.3218-8.1938,22.4214-14.1084,6.1489-21.8315-10.2187-44.6025-.2934-12.6231,5.5019-19.2808,12.5268-15.9366,20.2,3.668,8.4155,12.6988,6.8354,24.9156,4.456l16.6088-3.1152c22.5933-4.2515,50.8726-6.2686,61.8765,18.9775,12.8379,29.4541-9.6929,55.4737-36.9194,67.34-32.6714,14.24-66.2627,11.5039-74.03-6.3174-3.4521-7.92-2.1255-17.04,8.0225-21.4629,15.5932-6.7964,26.7876,14.8325,53.519,3.1811,12.8706-5.6093,18.5576-14.8623,15.3208-22.2876-3.9912-9.1582-12.5591-7.1909-26.832-4.7988l-23.5518,4.08c-23.3037,3.9722-43.4155,2.4292-53.9878-21.8271C551.8276,214.1646,576.2876,190.5444,601.2866,179.6484Z" transform="translate(-8.4594 -40.896)"/><path d="M748.9053,211.4648c5.2661,20.1123,22.1557,31.32,44.3579,25.5069,28.7319-7.5225,23.8081-26.3291,39.2187-30.3643,9.1421-2.3935,17.7237,3.7329,19.57,10.7852,6.0181,22.9858-28.0073,43.3379-50.9926,49.3559-53.2847,13.9517-82.835-16.8276-91.5205-50-11.6265-44.4038,7.4809-81.2246,52.6684-93.0561,43.8814-11.49,77.0952,13.0278,85.3018,44.3721,3.42,13.06.3906,17.4814-12.4082,20.8325Zm61.1225-39.4482c-6.6718-16.9536-23.083-26.333-40.061-21.8877-19.0674,4.9927-27.4829,19.7559-26.8062,39.3955Z" transform="translate(-8.4594 -40.896)"/><path d="M864.23,67.0527c-1.3008-12.8945,5.812-20.396,17.6318-21.5883s20.2876,4.7373,21.5884,17.6318l8.9971,89.1855,38.64-52.7436c3.5962-4.7046,8.375-8.4434,14.2847-9.04,8.8647-.894,19.3213,5.92,20.3242,15.86.7046,6.9844-1.4966,9.3774-4.6094,13.4907l-25.95,33.2818,46.36,50.6816a21.514,21.514,0,0,1,5.3027,12.2192c1.0029,9.94-6.1348,19.8858-16.6113,20.9429-9.67.9756-15.2622-3.3452-18.6509-7.3452l-42.3555-48.6431-12.4809,13.47,3.0083,29.8184c1.3008,12.894-5.812,20.396-17.6319,21.5884s-20.2876-4.7378-21.5883-17.6319Z" transform="translate(-8.4594 -40.896)"/><path d="M1030.9854,118.3628l-6.7486-.1411c-11.0679-.2315-15.5664-4.6465-15.3857-13.2847s4.86-12.8613,15.9277-12.63l6.7485.1411.5025-24.0249c.271-12.9575,8.2412-19.5424,20.1181-19.2939s19.5655,7.1606,19.294,20.1182l-.502,24.0249,11.877.2485c11.6074.2427,17.7432,3.8818,17.5459,13.33s-6.4805,12.8276-18.0879,12.5849l-11.877-.2485L1068.75,198.01c-.125,5.9389,3.0469,9.246,10.0654,9.3925l5.669.1187c8.6377.1806,13.665,5.147,13.49,13.5151-.2373,11.3379-10.0849,17.3433-28.98,16.9478-28.6143-.5982-40.2442-12.7241-39.7583-35.9395Z" transform="translate(-8.4594 -40.896)"/><path d="M1123.0747,112.5542c1.0879-10.4736,6.334-19.1577,21.6416-17.5669s18.6553,11.168,17.5674,21.6416l-11.2471,108.2275c-1.0888,10.4737-6.3349,19.1582-21.6426,17.5674s-18.6552-11.1684-17.5664-21.6421Zm27.251-71.5464a20.52,20.52,0,1,1-22.5313,18.2891A20.511,20.511,0,0,1,1150.3257,41.0078Z" transform="translate(-8.4594 -40.896)"/><path d="M1269.4712,115.45c46.3545,10.4521,63.9863,47.6406,54.8408,88.2017-8.6709,38.4536-35.0312,68.2133-87.4443,56.3955s-63.4522-50.0113-54.7823-88.4649C1191.231,131.0215,1223.1157,104.998,1269.4712,115.45Zm-26.19,116.1519c22.915,5.1665,37.292-13.18,42.5771-36.6211,5.6416-25.021-.4131-46.0376-22.8008-51.0855s-36.8759,11.3364-42.5175,36.3574C1215.2544,203.6938,1220.3667,226.4351,1243.2808,231.6021Z" transform="translate(-8.4594 -40.896)"/><path d="M1369.645,161.7676c4.5039-10.9932,12.4688-16.1919,23.9619-11.4834s13.5215,14.001,9.0176,24.9941l-1.9443,4.7471.5.2051c15.7705-9.2954,32.9023-13.3648,53.64-4.8692,21.9864,9.0074,41.4678,29.8267,26.3194,66.8042L1452.07,313.1221c-3.9912,9.7441-11.4687,16.6015-25.7109,10.7671s-14.7588-15.9668-10.7666-25.711l26.1006-63.7109c6.039-14.7412,3.0927-28.2031-12.6475-34.6514a30.6117,30.6117,0,0,0-39.5039,17.3711L1364.8735,277.4c-3.9922,9.7441-11.47,16.6011-25.7109,10.7671s-14.7588-15.9668-10.7666-25.7109Z" transform="translate(-8.4594 -40.896)"/><path d="M1525.1606,300.9663c-10.9472,17.6743-7.4326,37.6377,12.0782,49.7232,25.249,15.64,35.4863-.8868,49.0283,7.5019,8.0342,4.9761,9.5078,15.417,5.668,21.6143-12.5118,20.2-50.7061,9.563-70.9053-2.9488-46.8252-29.0053-44.8789-71.6294-26.8223-100.7807,24.1709-39.0215,64.0225-50.544,103.7324-25.9468,38.5625,23.8867,43.6788,64.8511,26.6163,92.3955-7.1084,11.4771-12.4,12.3281-23.6475,5.3613Zm70.7051,17.1172c7.69-16.5161,3.1807-34.8726-11.74-44.1147-16.7559-10.379-33.2539-6.3057-47.0215,7.7163Z" transform="translate(-8.4594 -40.896)"/><path d="M1675.5679,325.3433c7.8271-8.9361,17.0488-11.2681,26.3906-3.0845s8.2451,17.6313.418,26.5674l-3.3809,3.8589.4063.3559c17.9335-3.6733,35.458-1.9619,52.3154,12.8037,17.8721,15.6558,29.541,41.67,3.2119,71.7285l-50.5244,57.6788c-6.9385,7.92-16.2363,11.9794-27.8125,1.8388s-8.7774-19.8921-1.8389-27.8125l45.3643-51.789c10.497-11.983,12.0791-25.6719-.7158-36.88a30.6127,30.6127,0,0,0-43.003,3.6089l-42.874,48.9458c-6.9385,7.92-16.2363,11.9795-27.8125,1.8388s-8.7773-19.8921-1.84-27.8125Z" transform="translate(-8.4594 -40.896)"/></g><g id="circle"><path d="M1032.5015,380.45a776.715,776.715,0,0,1,436.4124,133.2847,783.0558,783.0558,0,0,1,282.883,343.4983,779.5181,779.5181,0,0,1-71.9625,740.2471,783.0562,783.0562,0,0,1-343.4983,282.8832,779.5177,779.5177,0,0,1-740.2471-71.9625A783.0587,783.0587,0,0,1,313.2057,1464.902a779.5173,779.5173,0,0,1,71.9626-740.2471A783.0593,783.0593,0,0,1,728.6668,441.772,775.68,775.68,0,0,1,1032.5015,380.45m0-55c-461.4989,0-835.6179,374.1185-835.6179,835.6174s374.119,835.6178,835.6179,835.6178,835.6174-374.1189,835.6174-835.6178S1494,325.45,1032.5015,325.45Z" transform="translate(-8.4594 -40.896)"/></g><g id="arcs"><path id="arc_base" data-name="arc base" class="cls-5" d="M105.5653,1527.6953a993.92,993.92,0,0,1-69.6059-366.6279c0-235.31,81.5571-451.5717,217.9461-622.0594" transform="translate(-8.4594 -40.896)"/><path id="arc_base-2" data-name="arc base" class="cls-5" d="M1811.0978,539.0085c136.3888,170.4876,217.9457,386.7489,217.9457,622.0589a993.92,993.92,0,0,1-69.6059,366.6278" transform="translate(-8.4594 -40.896)"/></g></g></g></g></svg>