<?xml version="1.0" encoding="utf-8"?>
<!-- Generator: Adobe Illustrator 26.0.3, SVG Export Plug-In . SVG Version: 6.00 Build 0)  -->
<!DOCTYPE svg PUBLIC "-//W3C//DTD SVG 1.1//EN" "http://www.w3.org/Graphics/SVG/1.1/DTD/svg11.dtd" [
	<!ENTITY ns_extend "http://ns.adobe.com/Extensibility/1.0/">
	<!ENTITY ns_ai "http://ns.adobe.com/AdobeIllustrator/10.0/">
	<!ENTITY ns_graphs "http://ns.adobe.com/Graphs/1.0/">
	<!ENTITY ns_vars "http://ns.adobe.com/Variables/1.0/">
	<!ENTITY ns_imrep "http://ns.adobe.com/ImageReplacement/1.0/">
	<!ENTITY ns_sfw "http://ns.adobe.com/SaveForWeb/1.0/">
	<!ENTITY ns_custom "http://ns.adobe.com/GenericCustomNamespace/1.0/">
	<!ENTITY ns_adobe_xpath "http://ns.adobe.com/XPath/1.0/">
]>
<svg version="1.1" xmlns:x="&ns_extend;" xmlns:i="&ns_ai;" xmlns:graph="&ns_graphs;"
	 xmlns="http://www.w3.org/2000/svg" xmlns:xlink="http://www.w3.org/1999/xlink" x="0px" y="0px" viewBox="0 0 283.5 283.5"
	 enable-background="new 0 0 283.5 283.5" xml:space="preserve">
<metadata>
	<sfw  xmlns="&ns_sfw;">
		<slices></slices>
		<sliceSourceBounds  bottomLeftOrigin="true" height="268.7" width="788.4" x="89" y="-275.3"></sliceSourceBounds>
	</sfw>
</metadata>
<g id="rosa">
	<path fill-rule="evenodd" clip-rule="evenodd" fill="#F17FA0" d="M43.9,59.6c-1,0.4-1.5,0.9-2.6,2.3c-0.5,0.7-1.3,1.7-1.8,2.3
		c-0.4,0.6-0.8,1-0.8,1.1c0,0.1-0.6,1-0.8,1.1c-0.4,0.3-4.7,6.7-5.4,8c-0.3,0.5-0.6,1-0.8,1.3c-0.3,0.4-2.2,3.7-2.2,3.8
		c0,0-0.5,0.9-1.1,2c-0.6,1.1-1.3,2.4-1.5,2.9c-0.2,0.5-0.9,2-1.5,3.2c-1.2,2.5-1.6,3.6-3.4,8.1c-1.5,3.7-4.7,13.9-4.7,14.9
		c0,0.1-0.1,0.8-0.3,1.5c-1.8,7.1-2.7,13.5-3.2,22.7c-0.8,13.5,1.4,34.1,4,36.7c1.5,1.6,4.4,1.7,6,0c1.6-1.6,1.7-2.6,0.8-6.7
		c-0.6-2.9-1.2-6.7-1.4-9c-0.1-0.9-0.2-2.4-0.3-3.5c-1.2-12.4-0.1-26.9,2.7-38.4c0.3-1.1,0.6-2.4,0.7-2.9c0.3-1.2,1.3-4.6,2.2-7.3
		c0.4-1.2,0.8-2.4,0.9-2.7c0.1-0.6,1.2-3.2,2.2-5.5c0.4-1,0.7-1.8,0.7-1.8c0-0.4,3.7-7.8,4.9-10c0.5-0.8,0.9-1.6,0.9-1.6
		c0-0.1,1.9-3.3,2.7-4.5c0.4-0.6,0.9-1.4,1.1-1.8c1.3-2.1,4.4-6.4,6.6-9.1c2.1-2.6,1.7-5.4-0.9-6.9C46.7,59.3,44.9,59.2,43.9,59.6"
		/>
	<path fill-rule="evenodd" clip-rule="evenodd" fill="#F17FA0" d="M238.9,60.8c-3.3,0.8-4.4,4.9-2,7.7c0.6,0.7,1.9,2.4,3.3,4.5
		c2.7,3.9,3.7,5.5,6.4,10.2c1,1.7,4.4,8.5,4.9,9.8c0.2,0.5,0.7,1.7,1.1,2.6c1,2.4,2,4.9,2.1,5.5c0.1,0.2,0.5,1.5,0.9,2.7
		c1,2.8,1.9,6,2.1,7c0.1,0.4,0.4,1.8,0.7,3c1.5,6.2,2.3,11.1,3,19.3c0.5,5.6,0.3,14.5-0.3,20.7c-0.1,1-0.2,2.2-0.3,2.7
		c-0.1,2-1,6.7-1.8,10.5c-0.5,2.3-0.5,3.2,0.2,4.4c1.6,3,6.5,2.8,7.8-0.2c0.5-1.3,1.7-6.9,2.3-11.3c0.4-2.6,0.4-2.7,0.5-4.5
		c0.1-0.9,0.2-2.7,0.3-4c0.3-3,0.4-12.9,0.2-16.3c-0.5-9.5-1.2-14.3-3.3-23.3c-0.1-0.6-0.4-1.5-0.5-2c-0.7-3-3-10.4-4.5-14
		c-1.7-4.4-2.2-5.5-3.5-8.2c-0.6-1.3-1.3-2.8-1.6-3.4c-0.2-0.5-0.9-1.8-1.4-2.7c-0.5-1-1-1.8-1-1.9c0-0.1-1.9-3.3-2.4-4.1
		c-0.3-0.4-0.6-0.9-0.7-1.2c-0.5-0.9-4.9-7.5-5.2-7.8c-0.1-0.1-0.8-1-0.8-1.1s-1.1-1.6-2.1-2.7C242.2,61,240.5,60.4,238.9,60.8"/>
	<polygon fill="#F17FA0" points="85.9,188.9 90.4,209.3 176.1,216.2 175.8,194.4 	"/>
	<g>
		<path fill="#F17FA0" d="M138.8,75.2l8.6,1.8l7.2,4.5l3.9,8.6l2.4,9.2l-1.7,5.9l-1.8,5.9l-7.6,5.9l-6.3,3.3l-7.2-0.2l-7.8-1.1
			l-0.1-0.1l-5.1-3.5l-3.5-4.7l-3.3-6.4l-1.4-6l0.1-0.1l0.3-0.5l0.1-0.6l2.4-9.9l5.3-7.4l9.9-4.2L138.8,75.2 M138.9,72.3l-6.3,0.6
			l-11,4.7l-6.1,8.5L113,96.7l-0.9,1.2l1.8,7.7l3.6,6.9l3.9,5.3l5.5,3.7l0.4,0.4l8.8,1.3l8.1,0.2l7.2-3.7l8.6-6.6l2-6.8l1.9-6.7
			l-2.6-10.2l-4.4-9.6l-8.4-5.2L138.9,72.3L138.9,72.3z"/>
	</g>
	<polygon fill="#F17FA0" points="158.2,149.8 157.6,154 162.5,159 163.7,160.3 162.4,161.5 158.5,165.1 154.5,168.7 150.5,172.3 
		149.7,173 148.8,172.6 143.4,170.9 143.3,170.8 143.3,170.8 138.2,168.6 132.6,167.2 129.5,166.5 131.9,164.3 135.5,160.9 
		137.5,158.4 136.2,157 135.4,156.1 136,155 138.3,150.9 137.2,149 125.9,148.6 108.2,165.1 111.2,164.9 111.5,164.9 111.7,164.9 
		115,165.5 116.4,165.7 116.6,167.2 117.1,172.2 117.3,173.5 116.1,174.1 113.1,175.8 113.1,175.8 113.1,175.8 110.1,177.3 
		109.9,177.4 109.6,177.5 106.4,178 106.2,178.1 106,178.1 102.7,177.9 102.6,177.9 102.5,177.9 99.1,177.4 97.6,177.2 97.4,175.7 
		97.4,175.2 85.7,186.1 176.1,191 200.7,151.5 	"/>
	<g>
		<polygon fill="#F17FA0" points="150.2,121.4 151.1,129.6 151.7,137.5 148.9,140.8 147.1,133.2 145.6,125.5 		"/>
	</g>
</g>
<g id="lila">
	<g>
		<path fill="#8E68AD" d="M179.2,193.6c0,0,0.6,22,0.5,21.5c-0.1-0.5,21.3-35.5,21.3-35.5l0.3-23.8L179.2,193.6z"/>
	</g>
	<g>
		<polygon fill="#8E68AD" points="132.9,165.6 138.7,167 143.9,169.2 149.3,171 153.3,167.4 157.2,163.9 161.1,160.2 155.7,154.6 
			156.5,148.9 156.2,143.3 156.4,137.9 152.5,140.5 148.7,143.5 141.9,143 135,142.9 137.8,146.8 140.1,150.9 137.4,155.8 
			139.7,158.3 136.7,162.1 		"/>
	</g>
	<g>
		<polygon fill="#8E68AD" points="96.9,179.5 102,180.5 106.9,180.1 111.5,178.1 115.1,174.8 115.5,171.2 115,167.5 111,166.7 
			106.9,167 102.7,167.4 99.2,169.6 96.4,172.4 96.8,175.9 		"/>
	</g>
	<g>
		<polygon fill="#8E68AD" points="144.2,125.6 145.7,133.6 147.3,141.6 138.9,141 137.5,132.9 135.8,124.9 141.5,126.1 		"/>
	</g>
	<g>
		<g>
			<g>
				<polygon fill="#8E68AD" points="132.8,88.8 126.1,96.2 133.1,105.3 141.3,103.5 142.8,94.1 				"/>
			</g>
			<g>
				<polygon fill="#8E68AD" points="131.1,112.3 130.1,121 128.9,121.5 127.6,121.8 127.4,121.9 121.7,117.9 117,112.8 117,111.9 
					118.1,108.8 126.6,108.1 				"/>
			</g>
			<g>
				<polygon fill="#8E68AD" points="120.1,85.9 119.4,94.1 115.6,99.3 112.9,97.5 112.2,97.1 115.2,86 116,86 				"/>
			</g>
			<g>
				<polygon fill="#8E68AD" points="136.2,74.9 133.5,82.1 126.7,84.8 121.6,81.8 121.6,79 121.8,77.9 132.6,72.7 133.6,73.5 				
					"/>
			</g>
			<g>
				<polygon fill="#8E68AD" points="161.8,89 161.6,89.7 156.6,93.9 150,89 151.8,79.9 155.1,80.1 156.6,80 				"/>
			</g>
			<g>
				<polygon fill="#8E68AD" points="159.4,112.6 151.8,120.1 150.7,119.5 146.4,116.9 144.5,110.2 149.5,106 156.6,107.9 
					158.7,111.9 				"/>
			</g>
		</g>
	</g>
	<g>
		<g>
			<polygon fill="#8E68AD" points="159.1,183 164,184.7 169,185.1 173.5,182.9 177.2,179.7 177.3,176 176.8,172.3 172.9,171 
				168.8,171.2 164.8,172.1 161.6,174.7 158.5,177.2 			"/>
		</g>
	</g>
</g>
<g id="svart">
	<path id="path1" fill-rule="evenodd" clip-rule="evenodd" fill="#060606" d="M145.9,7.3c-0.6,0.4-1.6,0.9-2.1,1.2l-1,0.5l0,1.6
		l0,1.6h-0.9h-0.9v1c0,0.5,0,1.3-0.1,1.8l-0.1,0.8h0.6c0.3,0,0.7,0,1,0.1l0.4,0.1l0,5c0,6.2,0.1,6.6,2,7.5c1.1,0.5,4.4,0.4,5.3-0.1
		c0.1-0.1-0.1-3.3-0.2-3.5c0,0-0.3,0-0.7,0.1c-2,0.6-2.1,0.4-2-4.9l0.1-3.9l1.4,0l1.4,0l0-1.7c0-0.9,0-1.7,0-1.8
		c0-0.1-0.4-0.2-1.4-0.2l-1.4,0l0.1-2.8c0.1-1.7,0-2.8,0-2.8C147.1,6.7,146.5,6.9,145.9,7.3 M154.2,8.2c-0.1,0.9-0.2,1.8-0.2,2.1
		l-0.1,0.5l2.1,0.2c1.2,0.1,2.2,0.2,2.2,0.2c0.1-0.1,0.4-4,0.4-4c0,0-3.8-0.5-4.1-0.5C154.4,6.7,154.3,7.2,154.2,8.2 M124.9,7.2
		c-0.9,0.1-1.6,0.2-1.7,0.2c0,0,0.3,3.6,1.3,15.2c0.3,3.7,0.6,6.7,0.6,6.7c0.1,0.1,4.3-0.4,4.4-0.4c0,0,0-1.2-0.2-2.5l-0.2-2.5
		l0.5-0.7c0.3-0.4,0.7-0.9,0.8-1l0.2-0.3l0.6,0.8c0.3,0.4,0.9,1.4,1.4,2.1c2.2,3.3,2.6,3.8,3,3.7c0.2,0,1.2-0.1,2.3-0.2
		c2.1-0.2,2.2-0.2,1.5-1c-0.2-0.2-0.4-0.5-0.4-0.5c0-0.1-0.4-0.7-0.9-1.4c-1.3-1.7-1.9-2.7-2.5-3.6c-0.3-0.4-0.9-1.3-1.4-2
		c-0.9-1.2-0.9-1.2-0.6-1.5c0.1-0.2,0.7-0.9,1.3-1.6c0.6-0.7,1.1-1.5,1.2-1.7c0.1-0.2,0.2-0.4,0.3-0.4c0.2-0.1,1.8-2.1,1.8-2.3
		c0-0.2-0.1-0.2-2.9,0.1l-2.4,0.2l-0.9,1.1c-0.5,0.6-1.3,1.8-1.8,2.5c-1.1,1.6-1.5,2-1.5,1.7c-0.1-0.2-1-10.3-1-10.7
		C127.6,7,127.3,7,124.9,7.2 M153.8,12.6c0,0.2-1.6,15.9-1.6,15.9c0.1,0.1,3.4,0.4,3.9,0.4l0.5,0l0.3-3.3c0.4-5.2,1-11.7,1.1-12.2
		l0.1-0.5l-1.7-0.2c-0.9-0.1-1.9-0.2-2.2-0.2C154.1,12.6,153.8,12.6,153.8,12.6 M167.3,14.8c-6.9,1.8-8.4,12.1-2.2,15.4
		c5.2,2.7,10.6,0.7,12.3-4.6c1.5-4.5-0.8-9-5.2-10.5C170.9,14.7,168.4,14.5,167.3,14.8 M111.8,15.3c-5.6,0.9-8.1,6.8-5.2,12.6
		c2.3,4.7,8.6,5.5,12.6,1.6c0.9-0.8,2.1-4,1.7-4.2c0,0-1,0-2.2,0.1l-2.2,0.1l-0.1,0.7c-0.5,2.4-3.5,2.9-5.1,0.9
		c-0.5-0.7-0.9-1.5-0.8-1.6c0.1-0.1,6-1.5,9.1-2.2l1-0.2l-0.1-0.5C119.7,17.7,116,14.6,111.8,15.3 M171.1,18.7
		c2,0.9,2.6,3.3,1.7,6.2c-1.5,4.8-7.6,3.2-7-1.8C166.2,19.5,168.6,17.5,171.1,18.7 M183.9,19.6c-0.7,1.9-2.1,5.5-2.4,6.4
		c-0.1,0.4-0.8,2.2-1.5,3.9s-1.2,3.2-1.3,3.4c-0.1,0.2,2.8,1.5,3.9,1.7c0.2,0,1.5-3.2,1.9-4.5c1.5-5.4,3.9-7.7,6.3-6.2
		c1.6,1,1.4,2.1-1.4,9.4c-1.3,3.4-1.3,3.3-1,3.5c0.1,0,1,0.4,2,0.8c1,0.4,1.8,0.7,1.9,0.7c0.1-0.1,1.2-3.2,1.3-3.6
		c0.1-0.2,0.6-1.7,1.2-3.4c1.7-4.3,1.6-4.2,1.6-5.7c0-1.6-0.2-2-1.3-3.1c-2-2-5-2.5-7.3-1.3l-0.5,0.3l0.1-0.4c0-0.2,0.2-0.6,0.3-0.8
		c0.2-0.5,0.2-0.7-0.1-0.8c-0.4-0.2-3.5-1.3-3.5-1.3C184.3,18.4,184.1,19,183.9,19.6 M113.9,19c0.7,0.3,1.3,1.1,1.6,2l0.2,0.5
		l-2.9,0.7c-3.2,0.7-3.1,0.8-3.1-0.2C109.7,19.6,111.9,18.1,113.9,19 M95.7,20.4c-5.7,0.4-9.5,4.4-7.8,8.1c1.2,2.5,3,3,8.8,2.2
		c2.4-0.3,2.7-0.3,2.9,0.5c0.2,0.8-0.1,1.3-1.1,1.9c-2,1.1-3.2,1-4.5-0.2l-0.4-0.4l-0.7,0.3c-1.1,0.5-3.1,1.7-3.1,1.9
		c0,0.7,2.2,2.2,3.6,2.5c2.9,0.6,7.8-1.1,9.3-3.3c1.2-1.8,1.4-3.6,0.6-5.3c-1.1-2.2-2.9-2.7-7.5-2.1c-1.1,0.1-2.5,0.3-3,0.3
		c-2.1,0-1.9-1.3,0.2-2.4c1.6-0.8,2.8-0.7,3.5,0.2C97,25,97.1,25,100.3,23c0.4-0.3,0.4-0.4-0.4-1.2C98.7,20.7,97.5,20.3,95.7,20.4
		 M204.3,28c-3.6,0.8-6.8,5.2-6.8,9.3c0,5.6,7.1,9.4,11.7,6.2c1-0.7,1.1-0.8,0.4-1.3c-0.3-0.2-0.6-0.4-0.6-0.4
		c-0.2-0.2-2.2-1.8-2.3-1.8c-0.1,0-0.2,0.1-0.4,0.3c-2.2,2.1-5.4-0.6-4.3-3.7c0.3-0.8,0.1-0.8,2.6,0.6c1.1,0.6,2.4,1.3,2.8,1.5
		c0.4,0.2,1.5,0.8,2.3,1.3c1.9,1.1,1.7,1.1,2.5-0.7c2.1-4.9,1.1-8.3-3-10.6C207.7,27.9,206,27.6,204.3,28 M63.7,30.1
		c-0.5,0.1-1.2,0.4-1.6,0.6c-1.1,0.5-8.9,5.9-9.2,6.2c-0.1,0.2,2.3,4,3.3,5.1c0.2,0.3,0.5,0.7,0.6,0.9c0.1,0.2,0.5,0.9,0.9,1.4
		c1.2,1.6,2.2,3.1,2.2,3.1c0,0.1,2.4,3.5,2.5,3.6c0.1,0,0.3,0.5,0.6,1c0.8,1.3,2,2.9,2.2,2.9c0.1,0,0.4-0.2,0.7-0.4
		c0.3-0.2,0.6-0.4,0.7-0.4c0.1,0,2.1-1.4,2.2-1.5c0.1-0.1,2.1-1.5,2.2-1.5c0.2,0,3-2.2,3.5-2.8c2.5-2.8,2.8-6.3,0.9-10.3
		C72.9,32.1,68.1,29,63.7,30.1 M84.6,31.2c-0.8,0.5-2.4,1.3-3.6,1.8c-1.1,0.5-2.1,1.1-2.1,1.2c-0.1,0.2,1.8,3.9,2,3.9
		c0.1,0,0.9-0.4,1.9-0.9c1-0.5,2.6-1.3,3.6-1.8c2.1-1,2-1,1.4-2c-0.2-0.4-0.4-0.8-0.4-0.9c0-0.3-0.9-2-1.1-2
		C86.1,30.4,85.4,30.7,84.6,31.2 M207.8,31.9c1.3,0.7,1.8,1.9,1.3,3.6c-0.1,0.4-0.2,0.7-0.2,0.7c-0.1,0.1-2.7-1.3-2.9-1.5
		c-0.1-0.1-0.6-0.4-1.2-0.7l-1.1-0.6l0.2-0.3C204.9,31.7,206.4,31.2,207.8,31.9 M66.6,34.7c0.9,0.4,2.2,1.4,2.5,1.9
		c0.1,0.2,0.6,0.9,1.1,1.6c1.5,2.1,2.5,4.6,2.3,5.6c-0.3,1-0.4,1.3-0.8,1.8c-0.4,0.5-2.5,2.1-3.9,3l-0.9,0.6l-0.2-0.3
		c-0.1-0.2-0.7-0.9-1.2-1.7c-0.5-0.8-1.3-1.8-1.6-2.3c-0.4-0.5-0.7-1-0.8-1.2c-0.1-0.2-0.5-0.8-0.9-1.4c-1.1-1.5-3-4.3-3.1-4.5
		c-0.1-0.2,1.4-1.3,2.4-1.8c0.2-0.1,0.8-0.4,1.1-0.7C64.1,34.2,65.3,34.1,66.6,34.7 M220.2,36c-0.4,0.4-2,2.5-2,2.7
		c0,0.1-0.1,0.2-0.2,0.2c-0.2,0.1-4.2,5.5-5.7,7.5c-0.5,0.7-1,1.4-1.2,1.5c-0.4,0.4-0.4,0.6,0.1,0.9c0.2,0.2,0.6,0.5,0.9,0.7
		c0.7,0.6,2,1.5,2.1,1.4c0.1,0,0.4-0.4,0.8-0.9c0.3-0.5,1-1.4,1.5-2c0.5-0.6,1.2-1.6,1.6-2.1c2.3-3.4,4.3-4.5,6-3.4
		c1.7,1,1.9,2.3,0.4,4.3c-0.2,0.3-0.4,0.6-0.4,0.7c0,0.1-0.1,0.2-0.2,0.3c-0.2,0.2-5.1,6.7-5.1,6.8c0,0,0.3,0.3,0.6,0.5
		c0.3,0.2,1,0.8,1.6,1.2c0.6,0.5,1.1,0.8,1.3,0.8c0.2,0,1.2-1.3,1.9-2.3c0.2-0.2,0.4-0.6,0.6-0.8c0.2-0.2,0.7-0.9,1.2-1.5
		c0.5-0.6,1.4-1.9,2.1-2.8c0.7-0.9,1.4-2,1.7-2.5c1.8-3.7-2-8.2-6.4-7.6c-0.4,0.1-0.8,0.1-0.8,0.1c0,0,0.2-0.3,0.5-0.7
		c0.7-0.9,0.8-0.7-0.9-2C220.3,35.7,220.5,35.8,220.2,36 M135.7,41.5c-8.8,0.6-12.7,1.3-22.5,3.8c-0.9,0.2-4.4,1.4-8.1,2.7
		c-4.6,1.7-13.3,5.9-17.2,8.5c-0.5,0.3-1.1,0.7-1.3,0.8c-0.2,0.1-0.8,0.5-1.3,0.8c-0.5,0.3-1.5,1-2.2,1.5c-2.2,1.5-6.9,5.1-7.7,5.8
		c-0.2,0.2-0.6,0.5-1,0.8c-2.1,1.6-9.7,9.2-10.9,10.9c-0.2,0.3-0.7,0.9-1.2,1.5c-1.1,1.2-4.7,6-5.9,7.7c-0.5,0.7-1.2,1.8-1.6,2.4
		S54,90.1,54,90.3c0,0.1-0.2,0.4-0.4,0.6c-2.1,2.9-7.1,13.1-8.9,18.4c-2.2,6.4-2.8,8.4-4.1,14.1c-3,13.7-2.9,30.8,0.3,44.3
		c0.3,1.2,0.6,2.5,0.7,3c0.5,2.4,1.3,4.7,2.8,9.3c0.8,2.2,1.5,4.1,2.4,6c0.5,1,0.9,2.1,1,2.4c0.2,0.7,2.3,4.8,2.8,5.4
		c0.2,0.2,0.3,0.5,0.3,0.6c0,0.3,3.6,6.3,4.7,7.9c0.3,0.4,1,1.4,1.5,2.1c4.6,6.7,11.9,14.7,18.5,20.2c2.7,2.2,7.2,5.7,7.7,5.8
		c0.1,0.1,0.7,0.4,1.1,0.7c1.7,1.3,6.9,4.4,9.5,5.7c0.9,0.5,2.2,1.1,2.7,1.4c1,0.6,1.3,0.7,5,2.3c4.6,2,12.8,4.7,15.4,5.1
		c0.3,0.1,1.6,0.3,2.9,0.6c14.2,3.3,30.3,3.3,44.5,0c1.2-0.3,2.5-0.6,2.9-0.6c0.9-0.1,4.7-1.2,7-2c1-0.4,2.2-0.7,2.5-0.8
		c1.2-0.4,3.7-1.3,5.9-2.3c3.8-1.6,4-1.7,5-2.3c0.6-0.3,1.8-0.9,2.7-1.4c2.6-1.3,7.8-4.4,9.5-5.7c0.5-0.3,1-0.7,1.1-0.7
		c0.5-0.2,5-3.6,7.7-5.8c6.6-5.5,14-13.5,18.5-20.2c0.5-0.7,1.1-1.7,1.5-2.1c1.1-1.6,4.7-7.6,4.7-7.9c0-0.1,0.1-0.3,0.3-0.6
		c0.4-0.6,2.5-4.8,2.8-5.4c0.1-0.3,0.6-1.4,1-2.4c1.8-4,4.3-11.1,5.2-15.3c0.1-0.5,0.4-1.8,0.7-3c3.2-13.6,3.3-30.6,0.3-44.3
		c-1.3-5.7-1.8-7.7-4.1-14.1c-1.8-5.2-6.8-15.5-8.9-18.4c-0.2-0.2-0.3-0.5-0.4-0.6c0-0.1-0.4-0.7-0.8-1.3c-0.4-0.6-1.1-1.7-1.6-2.4
		c-1.2-1.8-4.8-6.6-5.9-7.7c-0.5-0.5-1-1.2-1.2-1.5c-1.3-1.7-8.9-9.3-10.9-10.9c-0.4-0.3-0.8-0.6-1-0.8c-0.8-0.8-5.5-4.4-7.7-5.8
		c-0.7-0.5-1.7-1.1-2.2-1.5c-0.5-0.3-1.1-0.7-1.3-0.8c-0.2-0.1-0.8-0.5-1.3-0.8c-4-2.6-12.5-6.8-17.2-8.5c-3.4-1.2-8.3-2.9-9-3
		c-0.4-0.1-1.8-0.4-3.2-0.8c-8.1-2.1-15.6-2.9-25.1-2.9C139.3,41.4,136.5,41.5,135.7,41.5 M147.9,49c3.9,0.2,7.8,0.7,11.9,1.5
		c1.1,0.2,2.4,0.4,2.8,0.5c1.4,0.2,4.5,1.1,8.7,2.4c1.2,0.4,2.5,0.8,2.8,0.9c0.3,0.1,1.6,0.6,2.9,1.1c1.2,0.5,2.7,1.1,3.2,1.3
		c0.8,0.3,6.5,3.1,7.5,3.6c1.1,0.6,3,1.7,3.4,2c0.3,0.2,0.9,0.6,1.4,0.8c1.1,0.6,4,2.6,6,4.1c2.8,2,3,2.3,3.6,2.8
		c0.3,0.3,1.2,1,1.8,1.5c1.9,1.6,7.4,6.8,8.1,7.7c0.1,0.2,0.9,1,1.6,1.7c0.7,0.8,1.4,1.5,1.5,1.7c0.2,0.3,1.4,1.7,1.6,2
		c0.2,0.2,1.1,1.3,1.4,1.8c0.2,0.3,0.8,1.1,1.4,1.9c1.1,1.5,4.4,6.3,4.5,6.7c0,0.1,0.4,0.7,0.7,1.3c0.9,1.5,2.3,4,2.3,4.1
		c0,0,0.6,1.3,1.4,2.9c0.8,1.6,1.5,3.2,1.7,3.7c0.2,0.5,0.7,1.9,1.2,3.1c1,2.5,1.3,3.4,2.4,7c4.3,14.3,5.3,29.4,2.8,43.8
		c-0.2,1.2-0.4,2.6-0.5,3c-0.2,1.7-1.3,5.8-2.4,9.4c-0.3,1.1-0.6,2.1-0.6,2.1c0,0.2-1.2,3.4-2,5.4c-0.4,1-0.9,2.2-1.1,2.7
		c-0.5,1.3-3.6,7.5-4.9,9.7c-2,3.4-3.9,6.3-7.1,10.6c-0.7,0.9-2.3,2.8-2.4,2.9c-0.1,0-0.3,0.3-0.5,0.6c-1.3,1.8-9.5,10-11,11.1
		c-0.2,0.1-0.7,0.5-1.1,0.9c-1.2,1.1-2.6,2.1-3.9,3.1c-0.7,0.5-1.6,1.2-2.1,1.5c-0.5,0.4-0.9,0.7-1,0.7s-0.8,0.5-1.8,1.1
		c-3.4,2.3-12.7,7.3-14.8,7.9c-0.2,0.1-1.4,0.5-2.8,1.1c-5.2,2.1-14.1,4.6-17.5,5c-0.4,0-1.6,0.2-2.7,0.4c-9.8,1.5-19.4,1.5-29.2,0
		c-1.1-0.2-2.3-0.3-2.7-0.4c-3.5-0.4-12.3-2.9-17.5-5c-1.4-0.5-2.6-1-2.8-1.1c-2-0.6-11.3-5.6-14.8-7.9c-0.9-0.6-1.7-1.1-1.8-1.1
		s-0.3-0.2-0.5-0.4c-0.2-0.2-1.2-0.9-2.1-1.5c-1.7-1.3-3-2.3-4.4-3.4c-0.5-0.4-1-0.8-1.1-0.9c-1.6-1.1-9.7-9.2-11-11.1
		c-0.2-0.3-0.4-0.6-0.5-0.6c-0.1-0.1-1.7-2-2.4-2.9c-3.2-4.3-5.2-7.2-7.1-10.6c-1.3-2.2-4.4-8.4-4.9-9.7c-0.2-0.4-0.6-1.6-1.1-2.7
		c-0.8-2-2-5.2-2-5.4c0-0.1-0.3-1-0.6-2.1c-1.1-3.6-2.2-7.7-2.4-9.4c-0.1-0.4-0.3-1.8-0.5-3c-2.5-14.4-1.5-29.5,2.8-43.8
		c1.1-3.5,1.4-4.5,2.4-7c0.5-1.3,1.1-2.7,1.2-3.1c0.2-0.5,0.9-2.1,1.7-3.7c0.8-1.6,1.4-2.9,1.4-2.9c0-0.1,1.4-2.6,2.3-4.1
		c0.4-0.6,0.7-1.2,0.7-1.3c0.1-0.4,3.4-5.2,4.5-6.7c0.6-0.8,1.2-1.7,1.4-1.9c0.4-0.5,1.2-1.6,1.4-1.8c0.2-0.2,1.4-1.6,1.6-2
		c0.1-0.2,0.8-0.9,1.5-1.7c0.7-0.8,1.4-1.5,1.5-1.7c0.5-0.7,6.3-6.2,8.2-7.8c0.7-0.6,1.5-1.2,1.8-1.5c0.6-0.5,0.9-0.7,3.6-2.8
		c2-1.5,5-3.5,6-4.1c0.5-0.3,1.1-0.6,1.4-0.8c0.4-0.3,2.3-1.4,3.4-2c1-0.5,6.7-3.3,7.5-3.6c0.6-0.2,2-0.8,3.2-1.3
		c1.2-0.5,2.5-1,2.9-1.1c0.3-0.1,1.6-0.5,2.8-0.9c5.4-1.7,8.1-2.4,14.3-3.4C133.8,48.9,140.8,48.6,147.9,49 M245.4,185
		c-0.6,1.2-2.7,6-2.8,6.2c-0.1,0.2-0.6,1.5-1.3,2.9c-0.6,1.4-1.3,3-1.5,3.4c-0.2,0.5-0.6,1.3-1,1.8c-0.3,0.5-1.3,2.1-2.2,3.6
		c-0.9,1.5-1.9,3.1-2.3,3.7c-0.4,0.6-0.8,1.3-1,1.6c-0.2,0.3-0.6,1-0.8,1.4c-0.3,0.4-0.5,0.8-0.5,0.9c0,0.1-2.5,3.3-3.9,4.9
		c-0.4,0.4-0.8,1-1,1.3c-0.2,0.3-0.9,1.1-1.5,1.8c-0.6,0.7-1.3,1.6-1.6,2c-0.5,0.7-2.9,3.1-4.8,4.8c-1.2,1.1-2.4,2.2-4.2,4
		c-0.9,0.8-1.9,1.8-2.3,2.1c-0.4,0.3-0.7,0.6-0.7,0.7c0,0.1,2.3,2.5,2.4,2.5c0.1,0,0.8-0.6,2.8-2.6l1.3-1.3l0.4,0.4
		c1,1.1,8.1,8.7,9.3,9.9c0.7,0.8,1.4,1.4,1.4,1.4c0,0,0.8-0.6,1.6-1.4l1.5-1.4l-1.4-1.5c-0.8-0.8-2.2-2.3-3.1-3.3
		c-0.9-1-2.2-2.3-2.9-3c-0.7-0.7-1.8-1.9-2.4-2.6l-1.2-1.3l0.4-0.2c0.7-0.4,4-3.8,4.8-4.8c0.4-0.6,1-1.2,1.2-1.5
		c0.3-0.3,0.5-0.5,0.5-0.6c0-0.3,0.7,0.2,3.4,2.4c0.6,0.5,1.8,1.5,2.7,2.2c0.9,0.8,1.9,1.6,2.1,1.8c0.2,0.2,0.5,0.4,0.6,0.5
		c0.1,0.1,0.7,0.5,1.3,1c2.8,2.3,2.4,2.2,3.3,1.1c0.3-0.5,0.9-1.2,1.2-1.6l0.6-0.7l-0.4-0.3c-0.2-0.2-0.7-0.6-1.1-0.9
		c-0.4-0.3-1.1-0.9-1.6-1.3c-0.5-0.4-1.2-0.9-1.5-1.2c-0.3-0.3-0.9-0.8-1.4-1.2c-0.5-0.4-1.3-1-1.8-1.5c-0.5-0.5-1.7-1.4-2.5-2.1
		c-0.9-0.7-1.7-1.3-1.8-1.5c-0.2-0.2-0.2-0.3,0.7-1.4c1.4-1.7,2.2-2.7,2.4-3.1l0.2-0.3l0.9,0.6c0.5,0.3,2,1.3,3.3,2
		c1.3,0.8,2.8,1.7,3.4,2.1c0.6,0.4,1.4,0.9,1.8,1.1c0.4,0.2,1.1,0.6,1.5,0.9c1.3,0.9,2.6,1.6,2.7,1.5c0.1,0,0.3-0.4,0.6-0.9
		c0.3-0.4,0.8-1.3,1.1-1.8c0.4-0.6,0.8-1.3,0.9-1.6c0.2-0.3,0.5-0.9,0.8-1.4c0.8-1.2,2.1-3.4,2.4-3.9c0.1-0.2,0.6-1,1-1.7
		c1-1.5,1-1.3-0.5-2.2c-1.7-1.1-1.6-1.1-2.6,0.5c-0.5,0.7-1.4,2.3-2.1,3.4c-0.7,1.1-1.5,2.5-1.8,3c-0.9,1.6-0.7,1.4-1.5,1
		c-1.4-0.9-3.5-2.2-3.5-2.2c0,0,0.3-0.6,0.8-1.3c0.4-0.7,0.9-1.5,1.1-1.8c0.1-0.3,0.9-1.4,1.6-2.6c1.5-2.4,1.5-2.5,1-2.9
		c-0.4-0.3-2.4-1.4-2.4-1.3c0,0-0.2,0.3-0.5,0.7c-1,1.5-2.6,4.2-2.6,4.3c0,0.1-0.4,0.8-1,1.6l-1,1.5l-1.3-0.8
		c-0.7-0.4-1.3-0.8-1.4-0.8c-0.1,0-0.3-0.1-0.4-0.2l-0.3-0.2l1-1.6c0.6-0.9,1.3-2.2,1.8-2.9c0.4-0.7,1.1-1.9,1.6-2.6
		c0.9-1.4,1.3-2.2,2.6-5c0.5-1.1,0.9-1.8,1-1.8c0.1,0,1.2,0.5,2.5,1c1.3,0.6,2.6,1.1,2.9,1.3c0.3,0.1,1.7,0.8,3,1.4
		c1.3,0.6,2.7,1.2,3.1,1.4c0.4,0.1,1.1,0.4,1.6,0.7c1.5,0.7,1.4,0.7,1.9-0.4c0.5-1,0.9-2.2,1-2.7c0-0.2,0-0.3-0.3-0.4
		c-0.2,0-1.3-0.5-2.5-1.1c-2.1-1-3.8-1.7-5.3-2.3c-0.4-0.2-1-0.4-1.5-0.6c-1.2-0.6-3.9-1.8-4.4-2c-0.3-0.1-0.5-0.2-0.5-0.2
		c0,0,0.3-0.9,0.8-1.9c1.6-3.6,1.6-3.4,0.5-3.8C245.5,184.3,245.7,184.4,245.4,185 M25.4,185.9c-6.5,0-7.9,0.1-8,0.2
		c0,0.1,0.3,1,0.7,2.1l0.8,1.9l2.3,0l2.3,0l0.8,2c0.4,1.1,1.1,2.7,1.4,3.5l0.6,1.5l-0.3,0.2c-0.5,0.3-2.5,2.2-2.8,2.6
		c-0.3,0.4-0.3,0.4-0.1,1c0.4,1.3,1.3,3.3,1.4,3.3c0.2,0,0.2-0.1,8-7.5c3.3-3.1,6.3-6,6.6-6.3l0.6-0.6l-0.7-1.8
		c-0.4-1-0.8-1.9-0.8-2c-0.1-0.3-0.1-0.3-2.6-0.3C34.5,185.8,29.8,185.9,25.4,185.9 M33.8,190.3c-0.4,0.4-1.6,1.4-2.6,2.4l-1.9,1.7
		l-0.9-2.2c-0.5-1.2-0.9-2.2-0.9-2.3c0,0,1.6-0.1,3.5-0.1c1.9-0.1,3.5-0.1,3.5-0.1C34.5,189.6,34.2,189.9,33.8,190.3 M41.6,196.4
		c-0.4,0.3-0.9,0.6-1.1,0.7c-0.2,0.1-1.4,0.8-2.6,1.6c-1.2,0.8-2.6,1.6-3,1.8c-0.4,0.2-1.4,0.8-2.1,1.3c-0.8,0.5-1.7,1-2,1.2
		c-1.2,0.7-4.4,2.7-5,3.1c0,0,0.1,0.4,0.4,0.8c1,1.7,1.6,2.7,1.7,2.7c0.2,0,3.8-2.1,4.6-2.7c0.2-0.1,0.4-0.2,0.5-0.2
		c0.2,0,3.9,0.9,4,1c0,0-0.3,0.6-0.7,1.3c-0.4,0.7-0.7,1.3-0.7,1.4c0,0.1-0.5,1-1.1,2c-0.6,1-1.4,2.5-1.7,3.2l-0.7,1.3l0.3,0.5
		c0.8,1.5,2.4,3.9,2.5,3.9c0.1,0,0.2-0.1,0.2-0.3c0.1-0.3,1.8-3.8,4.7-9.7l1.3-2.6l0.7,0.2c0.4,0.1,1.2,0.3,1.8,0.4
		c0.6,0.1,2,0.4,3,0.7l1.9,0.4l-0.5,0.5c-0.5,0.5-0.5,0.5-0.3,0.8c0.2,0.3,2.4,3,3.2,3.8c0.2,0.3-3,3.2-7.2,6.5
		c-0.5,0.4-1.3,1.1-1.8,1.5c-0.5,0.5-1.2,1-1.5,1.2c-1.9,1.4-1.8,1.3-0.7,2.5c0.5,0.5,1.1,1.2,1.3,1.5l0.5,0.6l1.1-0.9
		c0.6-0.5,1.6-1.3,2.2-1.8c0.6-0.5,1.4-1.2,1.7-1.5c0.3-0.3,1.3-1.1,2.2-1.8c0.9-0.7,1.9-1.6,2.3-2c1.1-0.9,2.4-2,2.6-2.2
		c0.1-0.1,0.4,0.1,1.3,1.2c0.6,0.8,1.3,1.5,1.5,1.7c0.2,0.2,0.4,0.4,0.4,0.5c0,0.2,0.5,0.7,0.7,0.7c0.1,0,0.9-0.6,2.2-1.7l0.4-0.4
		l-0.2-0.4c-0.3-0.4-1.3-1.7-1.6-2c-0.3-0.2-1.4-1.6-1.8-2.2c-0.2-0.2-0.5-0.6-0.7-0.8c-0.3-0.3-1.2-1.4-2.6-3.1
		c-0.1-0.1-0.8-1-1.5-1.8c-0.7-0.9-1.7-2.1-2.1-2.9c-0.4-0.7-0.9-1.4-1-1.6c-0.2-0.2-0.9-0.4-5.5-1.4c-6.6-1.4-6.1-1.2-4.8-1.8
		c0.5-0.3,1.8-1.1,2.9-1.7c1-0.7,2-1.2,2.1-1.3c0.1,0,0.4-0.2,0.7-0.4l0.5-0.3l-0.3-0.6c-0.6-1.1-1.9-2.9-1.9-2.9
		C42.4,195.9,42,196.1,41.6,196.4 M58.7,223c-1,1.1-3.2,3.2-4.7,4.8c-1.6,1.6-3.8,3.8-4.9,5l-2,2.1l0.5,0.6c0.3,0.3,0.9,1,1.5,1.5
		l1,0.9l2.6-2.6c1.4-1.4,4.2-4.3,6.2-6.4l3.7-3.8l-1.2,3.5c-0.7,1.9-1.6,4.5-2,5.8c-0.4,1.3-1.1,3.3-1.5,4.4c-1.7,5-1.8,4.3,0.3,5.9
		c1.7,1.4,1.6,1.4,5.5-1.1c0.4-0.3,1-0.7,1.4-0.9c0.7-0.4,2.9-1.8,4-2.5c0.4-0.3,1-0.6,1.3-0.8c0.3-0.2,1-0.6,1.6-1
		c1.3-0.8,5-3.1,5-3c0,0-0.3,0.6-0.8,1.2c-0.4,0.6-0.8,1.2-0.8,1.2c0,0-0.3,0.5-0.7,1.1c-1.5,2.3-2.4,3.6-2.4,3.6
		c0,0-0.7,1.1-1.5,2.3c-0.8,1.3-1.5,2.3-1.5,2.4c0,0-0.5,0.9-1.2,1.8c-1.5,2.2-1.5,1.9-0.1,2.6c0.3,0.2,1,0.6,1.4,0.9
		c1,0.7,1,0.8,2-0.8c0.5-0.8,1.6-2.4,2.4-3.7c0.8-1.3,2.2-3.4,3-4.7c0.8-1.3,2.1-3.3,2.9-4.4c0.7-1.1,1.3-2.1,1.3-2.1
		c-0.6-0.5-3.3-2.2-3.5-2.1c-0.2,0.1-1-0.4-2.5-1.7c-0.9-0.8-0.9-0.8-1.8-0.1c-0.4,0.3-0.9,0.6-1.1,0.7c-0.4,0.2-2.2,1.4-3.7,2.4
		c-0.5,0.3-1,0.6-1.1,0.7c-0.1,0-1.2,0.7-2.4,1.6c-1.2,0.8-2.4,1.6-2.7,1.7l-0.5,0.3l0.3-0.7c0.1-0.4,0.7-1.9,1.2-3.3
		c0.5-1.5,1.4-3.9,1.9-5.4c0.6-1.5,1-2.8,1-2.9c0-0.1,0.1-0.5,0.3-0.8c0.2-0.6,0.2-0.7,0.1-0.9c-0.2-0.3-2-1.7-2.1-1.7
		c-0.2,0-0.7-0.5-0.6-0.7c0.1-0.2-2.6-2.9-2.9-2.9C60.7,221,59.7,221.9,58.7,223 M208.7,234.6c-1.5,0.4-2.6,1-4.7,2.5
		c-3.2,2.4-3.9,7.7-1.5,11.6c0.3,0.4,0.5,0.8,0.5,0.9c0,0.5,2.6,3.2,4,4c6.6,4,15.8-2.9,13.9-10.4
		C219.4,237.3,213.7,233.3,208.7,234.6 M80.3,238.7c-0.9,1.7-1,1.6,0.5,2.4c1.3,0.7,3.4,1.8,3.6,1.9c0.2,0.1-0.3,0.9-1.6,3.3
		c-0.5,0.9-1.3,2.3-1.7,3.2c-0.4,0.8-0.9,1.8-1.2,2.2c-1.2,2-2.9,5.6-2.8,5.7c0.1,0.1,0.7,0.4,1.3,0.7c0.6,0.3,1.3,0.7,1.6,0.8
		c0.6,0.4,0.7,0.3,1-0.3c0.1-0.3,0.7-1.3,1.2-2.2c0.5-0.9,1.3-2.5,1.8-3.5c0.9-1.7,2.2-4.2,2.9-5.4c0.2-0.3,0.3-0.6,0.3-0.7
		c0-0.1,0.9-1.7,1-1.7c0,0,0.3,0.1,0.6,0.3c0.3,0.2,0.6,0.3,0.7,0.3c0.1,0,0.9,0.4,1.8,1c2.1,1.1,1.9,1.1,2.4,0.1
		c0.6-1.3,0.7-1.2,0.2,0.1c-0.2,0.6-0.4,1.1-0.4,1.2c0,0.1-0.3,0.8-0.6,1.6c-2.1,5.4-2.5,6.3-2.5,6.4c0,0.1-0.6,1.6-1.3,3.4
		c-0.7,1.8-1.3,3.3-1.2,3.4c0,0.1,0.7,0.4,1.6,0.7c0.8,0.3,3.1,1.2,5,1.9c1.9,0.7,3.7,1.4,4,1.5c0.3,0.1,1.1,0.4,1.8,0.7
		c1.1,0.4,1.7,0.6,1.7,0.4c0,0,0.2-0.7,0.5-1.5c0.3-0.8,0.5-1.5,0.5-1.6c0-0.1-1.6-0.8-1.9-0.8c-0.1,0-1.6-0.6-3.3-1.3
		c-1.7-0.7-3.5-1.4-4-1.5L93,261l0.4-1.2c0.4-1.1,1.3-3.4,1.4-3.5c0,0,0.9,0.3,1.8,0.7c1,0.4,2.1,0.8,2.4,0.9c0.3,0.1,1.5,0.5,2.7,1
		c1.1,0.5,2.1,0.8,2.1,0.8c0.2-0.2,1.3-3.2,1.2-3.2c-0.1-0.1-3.8-1.5-3.9-1.5c-0.2,0-4.8-1.9-4.9-2c-0.1-0.1,1.1-3.5,1.3-3.7
		c0,0,1.5,0.5,3.2,1.2c1.8,0.7,3.3,1.3,3.3,1.3c0.1,0,0.8,0.3,1.6,0.6c1.3,0.5,1.5,0.6,1.6,0.4c0.1-0.1,0.1-0.1,0.1,0.1
		c0,0.2,0.3,0.3,2.7,1c1.5,0.4,2.7,0.8,2.7,0.8c0,0.2-1.1,4.8-2.5,10c-0.8,2.9-1.3,5.4-1.3,5.4c0.2,0.1,3.8,1.1,3.9,1
		c0.1-0.1,1.3-4.8,1.6-5.9c0.4-1.8,2.5-9.6,2.6-9.6c0.1,0,1.3,0.3,2.7,0.7c1.4,0.4,2.6,0.7,2.6,0.6c0.1-0.1,0.9-3.3,0.8-3.4
		c-0.1-0.1-5.4-1.5-6.2-1.6c-1.1-0.2-8.5-2.2-9-2.4c-0.3-0.1-0.8-0.3-1.2-0.5c-0.8-0.3-2.6-1-5.9-2.3c-1.3-0.5-2.5-1-2.6-1
		c-0.4,0-3.9-1.5-5.2-2.2c-0.8-0.4-1.5-0.8-1.6-0.8c-0.1,0-2.8-1.4-4.8-2.6c-0.5-0.3-0.9-0.5-1-0.5c-0.1,0-0.8-0.4-1.6-0.8
		c-0.8-0.5-1.9-1-2.3-1.3l-0.8-0.4L80.3,238.7 M211.8,238.5c1,0.3,2.7,1.8,3.3,2.7c0.1,0.2,0.4,0.7,0.7,1.1
		c3.7,5.8-2.7,11.5-7.7,6.8c-3.4-3.2-3.9-7.6-1.2-9.6C208.7,238.2,210.2,237.9,211.8,238.5 M197.3,241.9c-1,0.5-2,1-2.4,1.1
		c-0.6,0.2-1,1-1,1.7c0,0.2-2.9,9.3-3,9.4c0,0-0.1-0.2-0.2-0.4c-0.1-0.3-0.8-1.7-1.5-3.2c-0.7-1.5-1.4-2.9-1.5-3.2
		c-0.2-0.7-0.3-0.7-2.3,0.3l-1.8,0.9l0.5,1c0.3,0.5,0.5,1.1,0.6,1.3c0.1,0.2,0.8,1.7,1.6,3.4c0.8,1.7,1.5,3.1,1.5,3.2s0.6,1.4,1.4,3
		c0.8,1.6,1.6,3.4,1.9,4c0.7,1.7,0.8,1.8,1,1.8c0.3,0,3.6-1.7,3.6-1.8c0-0.1-0.4-1-0.9-2.1c-1.6-3.4-1.5-3.1-1.2-3.8
		c0.1-0.4,0.4-1.3,0.7-2c0.5-1.6,0.3-1.6,2.7,0.1c1.1,0.8,2.1,1.5,2.2,1.5c0.1,0.1,0.5,0.3,0.8,0.5c0.3,0.2,1.2,0.9,2,1.4l1.4,1
		l2.4-1.1c2.6-1.3,2.6-1.3,1.7-1.7c-0.3-0.2-1-0.6-1.6-0.9c-0.5-0.3-2-1.2-3.2-2c-1.3-0.8-2.7-1.7-3.2-2c-0.5-0.3-1.2-0.8-1.6-1
		c-1-0.5-1.7-1.1-1.7-1.2c0-0.1,0.2-0.7,0.4-1.3c0.2-0.6,0.9-2.8,1.6-4.8c0.7-2,1.2-3.7,1.2-3.7C199.4,240.9,199,241.1,197.3,241.9
		 M177.6,250.1c-6.2,0.7-9.5,5.6-6.5,9.6c1.3,1.7,2.3,2,6.9,2c4.1,0,4.4,0.1,5,0.7c1.3,1.5-0.4,3.8-3.2,4.3
		c-1.5,0.3-2.7-0.3-3.7-1.8c-0.6-1-0.4-0.9-2.4-0.1c-2.1,0.9-2,0.7-1.3,2c1.3,2.4,3.1,3.5,5.9,3.5c7,0,11.4-5.3,8.3-10.2
		c-1.3-2.1-2.5-2.5-7.4-2.5c-3.8,0-4.3,0-4.9-0.6c-1.3-1.1,0.3-2.9,3.1-3.4c1-0.2,2.6,0.7,2.9,1.6c0.1,0.3,0.3,0.3,1.2-0.1
		c0.4-0.2,1.2-0.4,1.8-0.6c1.2-0.4,1.2-0.3,0.7-1.3C183,250.9,180.6,249.7,177.6,250.1 M167.1,253.2c-8.5,1.5-12.3,2-13.9,2
		c-0.6,0-1.5,0-2.1,0.1l-1.1,0.1l0,7c0,7.9,0.1,7.6-0.9,8.5c-1.4,1.3-4.1,1.2-5.5-0.3c-0.8-0.8-1-2.2-1-7.4c0-1.4,0-3.8-0.1-5.2
		l-0.1-2.6h-2h-2l0,1.4c0,9.3,0.4,14.2,1.1,15.4c2.1,3.6,9.5,4.3,13,1.2c1.6-1.4,1.7-1.9,1.7-9.9c0-3.6,0-6.2,0.1-5.7
		c0.1,1-0.1,1,2.8,0.5c1.3-0.2,2.6-0.4,2.8-0.4h0.4l0.1,1c0.1,0.9,0.5,3.3,1.7,11.1c0.6,4,0.6,3.7,1,3.7c0.7,0,3.6-0.6,3.6-0.7
		c0-0.1-0.1-0.7-0.2-1.4s-0.6-4.2-1.2-7.7c-0.7-4.3-1-6.4-0.9-6.5c0.1,0,1.3-0.3,2.8-0.5l2.6-0.4l-0.1-0.6c0-0.3-0.1-1.1-0.2-1.8
		C169.3,252.7,169.6,252.7,167.1,253.2 M127.4,254.1c-3.2,0.5-4.9,2.4-4.9,5.3c0,3,1.4,4.4,6.4,6.4c2.8,1.1,3.6,1.8,3.5,2.8
		c-0.2,1.4-1.5,2.2-3.4,2.1c-2.5-0.1-3.9-1.3-4.1-3.4c-0.1-0.8,0.1-0.7-2.2-0.8l-1.9-0.1l0.1,1.3c0.3,3.6,2.4,5.8,6.5,6.4
		c5.8,1,9.4-1.5,9.2-6.2c-0.2-3-1.4-4.3-6.3-6.2c-2.5-1-3.1-1.3-3.4-1.8c-1.1-1.7,1.1-2.8,3.9-2.1c1.3,0.3,2.2,1.3,2.2,2.4
		c0,0.6,0.1,0.7,1.5,0.8c0.7,0,1.6,0.1,2,0.1l0.7,0.1l-0.1-1.1c-0.1-1-0.1-1.3-0.7-2.3c-0.8-1.6-1.3-2-3.3-2.8
		C131.7,254.2,128.7,253.9,127.4,254.1"/>
</g>
</svg>
