<svg xmlns="http://www.w3.org/2000/svg" viewBox="0 0 283.46 283.46"><g id="rosa"><path d="M131.6,124c.07-.08.13-.17.2-.26l.09.09-.31.16Z" fill="#9a68cd"/><path d="M131.58,124l0,.09,0-.08Z" fill="#9a68cd"/><path d="M254.3,141.86c-.12-2.94-.14-5.89-.38-8.83a113.31,113.31,0,0,0-2.2-14.86,111.28,111.28,0,0,0-5.55-18,109.72,109.72,0,0,0-15.06-26.25c-1.9-2.44-3.94-4.78-6-7.12a4.25,4.25,0,0,1,1.79-7,3.94,3.94,0,0,1,4.36,1.11c2.4,2.81,4.84,5.6,7.1,8.53A118.31,118.31,0,0,1,260.33,118c.7,3.66,1.29,7.35,1.74,11,.34,2.69.39,5.42.55,8.13.08,1.35.15,2.71.16,4.07,0,4.11-.23,8.21-.6,12.31A115.51,115.51,0,0,1,259,172a111.81,111.81,0,0,1-7,19.71c-1.2,2.57-2.48,5.09-3.79,7.6a4.2,4.2,0,0,1-7.63-.55,4.16,4.16,0,0,1,.11-3.3c.34-.72.72-1.42,1.09-2.12a110.42,110.42,0,0,0,9.84-27,106.35,106.35,0,0,0,2-12C254,150.15,254.27,146,254.3,141.86Z" fill="#f281a1"/><path d="M22.11,142c.12-3.06.14-6.09.37-9.1A121.44,121.44,0,0,1,25.19,115a119.85,119.85,0,0,1,6.43-19.89A115.77,115.77,0,0,1,46.4,69.59c2.27-3,4.72-5.79,7.13-8.65a4.18,4.18,0,0,1,4.94-1.09,4.14,4.14,0,0,1,2.47,4.41,5,5,0,0,1-1,2.22c-1.53,1.93-3.19,3.74-4.74,5.64a107.61,107.61,0,0,0-9.76,14.29,110.75,110.75,0,0,0-9.73,22.27,98.47,98.47,0,0,0-3.51,15c-.48,3.24-.82,6.51-1.15,9.77a72.68,72.68,0,0,0-.38,10.74c.17,3.69.46,7.37.82,11a100.14,100.14,0,0,0,3.88,18.91,102,102,0,0,0,5,13.36c1.13,2.47,2.44,4.86,3.54,7.35a4.24,4.24,0,1,1-7.71,3.55c-1.71-3.58-3.47-7.13-5-10.78a107.94,107.94,0,0,1-5.59-17.2,104,104,0,0,1-2.45-13.68c-.26-2.55-.5-5.1-.67-7.65C22.26,146.68,22.21,144.31,22.11,142Z" fill="#f281a1"/><path d="M175.9,133.62c1,.12,1.87.18,2.75.35a15.75,15.75,0,0,1,8.79,4.56,12.29,12.29,0,0,1,3.11,11.94c-1.27,5.05-4.54,8.57-9,11.06a19.81,19.81,0,0,1-13.49,2.18,1,1,0,0,0-1.19.5c-1.74,2.53-3.49,5.07-5.3,7.56a47.58,47.58,0,0,1-5.26,5.92,1.61,1.61,0,0,1-1.3.39H133.77c-3.12,0-6.25,0-9.37,0a3.12,3.12,0,0,1-1.44-.35,29.3,29.3,0,0,1-10.33-9.55,50.7,50.7,0,0,1-7-15.83,78.29,78.29,0,0,1-2-10.31,45.43,45.43,0,0,1-.45-7.55,6.24,6.24,0,0,1,3.33-5.62,6.16,6.16,0,0,1,1.91-.53,13.06,13.06,0,0,1,1.77,0h59.55a5.66,5.66,0,0,1,5.77,4C175.59,132.7,175.72,133.12,175.9,133.62ZM127,172.46l.16.08-.08-.15c-.52-1.11-1.09-2.19-1.54-3.32-1.29-3.18-2.62-6.35-3.76-9.58a49.37,49.37,0,0,1-3-15.36,23.13,23.13,0,0,1,1.18-8.85,4.84,4.84,0,0,0,.16-.84c-3.08,0-6.06,0-9.08,0,0,.48-.08.79-.07,1.1,0,1.34.07,2.68.19,4,.23,2.47.38,5,.8,7.4a46.85,46.85,0,0,0,5.22,15.62,25.18,25.18,0,0,0,9.08,9.61A4.89,4.89,0,0,0,127,172.46Zm43.38-14.34a23.67,23.67,0,0,0,4.32-.05,11.91,11.91,0,0,0,8.4-5.79,8.27,8.27,0,0,0-.38-9.15,9.35,9.35,0,0,0-5.62-3.46c-.41-.1-.82-.14-1.2-.2-.35,2.24-.57,4.4-1,6.49a47.58,47.58,0,0,1-1.83,6.1C172.31,154.08,171.34,156,170.41,158.12Z" fill="#f281a1"/><path d="M182,180.57c.32,3.58-2,5.82-4.65,6.05-.43,0-.87,0-1.3,0H100.69a10.75,10.75,0,0,1-3.6-.55,4.86,4.86,0,0,1-3-5.55Z" fill="#f281a1"/></g><g id="lila"><path d="M149.45,82.52C137,98.15,172,107.24,145.64,123.89c5.11-6.51,5.13-13.27-2.07-20.47C137.16,97,140,83.21,149.45,82.52Z" fill="#9a68cd"/><path d="M131.8,123.75c3.52-5.12,3.61-10.86-1.41-15.88-4.48-4.48-3.84-16.62,4.3-17.6-10.2,12.58,17.95,20.46-2.8,33.57Z" fill="#9a68cd"/></g><g id="svart"><path d="M113.59,251.4,106,264l-3.76-1.1c.17-4.95.47-9.92.68-14.88l0-.91-.21,0-.21.92-4.16,13.7-3.65-1.09,5.88-19.43,5.86,1.77q-.23,6.9-.43,13.7l.17.05s.08,0,.09,0c2.39-3.84,4.77-7.69,7.2-11.61l5.87,1.77c-2,6.48-3.9,12.92-5.87,19.43l-3.65-1.1L114,251.44l.31-.95-.21-.07Z" fill="#030303"/><path d="M200.14,245.22c3.82.37,6.64,2.87,10.09,4.52-1.46.8-2.72,1.52-4,2.17a1.24,1.24,0,0,1-.93-.12c-1.45-.72-2.88-1.49-4.32-2.24-.6-.31-1.23-.57-1.81-.92-1.91-1.17-3.65-.79-5.38.55l4,7.34-3.58,2q-4.86-8.9-9.67-17.73a2.24,2.24,0,0,1,.3-.28c2.92-1.58,5.83-3.17,8.77-4.71a14.41,14.41,0,0,1,2.21-.85,4.5,4.5,0,0,1,3.9.56,5.59,5.59,0,0,1,1.05,8.92,7.89,7.89,0,0,1-.7.57Zm-8,1c1.22-.67,2.35-1.28,3.46-1.91a17.17,17.17,0,0,0,1.92-1.2,2.2,2.2,0,0,0,.72-2.92,2.31,2.31,0,0,0-3.37-1.23c-1.49.72-2.94,1.54-4.4,2.33-.26.13-.49.31-.76.48C190.56,243.28,191.33,244.7,192.18,246.24Z" fill="#030303"/><path d="M59.13,38.17c2.76-1.84,5.41-3.71,8.16-5.42a6.65,6.65,0,0,1,7.31,0A13.75,13.75,0,0,1,81.33,43a6.77,6.77,0,0,1-2,5.67A8.47,8.47,0,0,1,78,49.8c-2.4,1.69-4.82,3.37-7.34,5.13Zm13,11.62c1.38-1,2.7-1.88,3.93-2.87a3.32,3.32,0,0,0,1.27-3.82,13.77,13.77,0,0,0-4.5-6.65,3.66,3.66,0,0,0-4.35-.32c-1.34.76-2.61,1.65-4,2.54Z" fill="#030303"/><path d="M169.76,245.75,184,240.86l1.12,3.24-10.33,3.58,1.45,4.22,9.62-3.29,1.12,3.22-9.61,3.33,1.79,5.2,10.69-3.68L191,259.9l-14.6,5C174.17,258.53,172,252.2,169.76,245.75Z" fill="#030303"/><path d="M215.85,218.55c.27.31.48.57.71.82l1.58,1.75L210,228.45l3,3.32,7.56-6.81,2.29,2.55-7.55,6.82,3.69,4.08,8.41-7.58,2.3,2.54-11.46,10.34-13.6-15.06Z" fill="#030303"/><path d="M152.39,254.47l-3.84.25c-.12-.13-.19-.18-.21-.24-.61-2-1.4-2.57-3.43-2.61a5.2,5.2,0,0,0-2.74.55,1.55,1.55,0,0,0,0,2.87,16.46,16.46,0,0,0,2.77,1c1.52.46,3.08.78,4.56,1.33,4,1.49,4.46,6,2.86,8.66a5.81,5.81,0,0,1-3.2,2.57,12.45,12.45,0,0,1-7.47.21c-3.13-.88-4.49-3.21-5-6.37l3.94-.48c.14.43.26.78.38,1.13a3.7,3.7,0,0,0,3.12,2.62,5.93,5.93,0,0,0,3-.26,2.91,2.91,0,0,0,1.69-1.43,1.93,1.93,0,0,0-.84-2.78,19.05,19.05,0,0,0-2.68-.87c-1.34-.39-2.7-.72-4-1.14a5.84,5.84,0,0,1-2.48-1.54,5.27,5.27,0,0,1,1-8.21,8.21,8.21,0,0,1,2.63-1,11.59,11.59,0,0,1,6,.3A5.56,5.56,0,0,1,152.39,254.47Z" fill="#030303"/><path d="M86.86,234.09c.32.07,9,4.55,13.12,6.63.06,0,.11.1.27.23l-1.5,3L89,239.05l-2,4L96,247.62l-1.52,3.06-9.09-4.56L83,251l10.11,5.11c-.52,1-1,2-1.54,3.05l-13.73-6.9c.13-.3.22-.57.35-.82C80.74,246.26,86.86,234.09,86.86,234.09Z" fill="#030303"/><path d="M115.47,266.74c3.53-6.5,7-12.79,10.41-19.13l4.31.55c1.81,7,3.63,14,5.48,21.16l-4.42-.56L130.06,264l-8-1-2.27,4.35Zm12-13.84h-.21l-3.51,6.8,5.46.7Z" fill="#030303"/><path d="M67.18,218.11l3.17,3.07c-2.87,6.62-5.75,13.24-8.6,19.8l-3.16-3.1,1.89-4.25-5.92-5.72-4,1.81-3.21-3Zm-1.91,5.13-.14-.19-6.74,3.1c1.31,1.29,2.56,2.5,3.8,3.71Z" fill="#030303"/><path d="M50.37,218.06,51.53,222c-2.79,1-5.43,1-7.79-.8-4.71-3.65-5.57-9.88-1-14.28a14,14,0,0,1,6.85-3.78,8,8,0,0,1,4.58.26A9.59,9.59,0,0,1,60.49,211a6.91,6.91,0,0,1-2,6.16l-3-2.74a3.36,3.36,0,0,1,.25-.41,4.15,4.15,0,0,0,.08-5.15,4.49,4.49,0,0,0-4.93-2,12.28,12.28,0,0,0-6.55,4.42,4.4,4.4,0,0,0-.18,5.19,4.19,4.19,0,0,0,4.71,1.88C49.34,218.33,49.77,218.21,50.37,218.06Z" fill="#030303"/><path d="M124.65,10.74l3.87-.33c.32,3.5.63,6.94,1,10.58.31-.36.5-.56.66-.79,1-1.33,2-2.67,3-4a1.37,1.37,0,0,1,1.09-.68c1.28-.09,2.55-.21,3.82-.31a.69.69,0,0,1,.06.13s0,.08,0,.1L133.81,21c2,2.88,4,5.77,6.15,8.8l-4.16.39c-1.39-2-2.78-4.08-4.27-6.25-.51.64-1,1.15-1.37,1.74A1.9,1.9,0,0,0,130,26.7c.08,1.24.21,2.48.33,3.82a21.78,21.78,0,0,1-3.88.4C125.83,24.2,125.24,17.53,124.65,10.74Z" fill="#030303"/><path d="M84.59,236.67,76.69,231l-2.79,3.88,6.88,4.94-2,2.79-6.88-4.91-5,7-3.34-2.39,11.81-16.48,1,.66c3.19,2.28,10.13,7.33,10.36,7.53C86.43,234.25,85.16,236.05,84.59,236.67Z" fill="#030303"/><path d="M167.73,32.93c-4.49,0-7.7-3.14-7.66-7.35,0-4.69,3.15-8.08,7.4-8.07,4.56,0,7.9,3.27,7.83,7.63S172,33,167.73,32.93ZM164,25.5c0,2.38,1.18,3.87,2.87,4.17a3.44,3.44,0,0,0,3.89-2.37,9.4,9.4,0,0,0,.59-2.62,3.53,3.53,0,0,0-2.55-3.8,3.45,3.45,0,0,0-4.16,2.25A17.13,17.13,0,0,0,164,25.5Z" fill="#030303"/><path d="M198.22,37.13c-.91,1.75-.79,3.27.37,4.23,1.4,1.16,2.3,1,3.83-.17l3,2.39A5.93,5.93,0,0,1,199.31,45,10.63,10.63,0,0,1,197,43.86a6.1,6.1,0,0,1-2.86-7,10,10,0,0,1,3.11-5.29c4.51-4,10.3-.35,11,3.4a6.92,6.92,0,0,1,.14.77,10.24,10.24,0,0,1-1.71,6Zm6.16.63a3,3,0,0,0-1.08-4.48,2.87,2.87,0,0,0-3.82,1.8Z" fill="#030303"/><path d="M122,25.3l-9.41,2.17c.39,1.83,1.51,2.89,3,2.93s2.33-.67,2.83-2.68l3.78-.22a5.61,5.61,0,0,1-1.61,3.79A8.12,8.12,0,0,1,112.5,33a5.81,5.81,0,0,1-2.61-2.11,10,10,0,0,1-1.66-7.44,6.37,6.37,0,0,1,5.63-5.26,6.28,6.28,0,0,1,7,3.77,17.94,17.94,0,0,1,.77,2A13.18,13.18,0,0,1,122,25.3Zm-4.34-1.46c-.47-2.22-2.24-3.18-3.85-2.61a2.81,2.81,0,0,0-1.62,3.87Z" fill="#030303"/><path d="M217.35,41a6,6,0,0,1,5.72,2,4.07,4.07,0,0,1,.52,5.21,19.07,19.07,0,0,1-1.14,1.68c-1.63,2.19-3.26,4.36-4.9,6.53-.15.21-.33.4-.55.67L214,54.74c.22-.33.4-.61.6-.87,1.42-1.91,2.86-3.81,4.27-5.72a12.45,12.45,0,0,0,1.09-1.72,2.1,2.1,0,0,0-.69-2.81,2.93,2.93,0,0,0-3.84.15,19,19,0,0,0-1.86,2.14c-1.36,1.76-2.68,3.55-4.09,5.42L206.31,49l8.82-11.75L218,39.37l-.89,1.34L217,41Z" fill="#030303"/><path d="M180.07,36.24l-3.65-1.36c1.72-4.61,3.41-9.16,5.12-13.76l3.33,1.22-.56,1.9c.5-.21.86-.39,1.24-.52a5.78,5.78,0,0,1,6.17,1.38,3.62,3.62,0,0,1,1.1,3.61,17.39,17.39,0,0,1-.61,2.17c-1,2.66-2,5.31-3,8-.08.2-.18.4-.31.7l-3.56-1.32c.1-.33.17-.61.27-.88.87-2.37,1.75-4.74,2.6-7.12a9.52,9.52,0,0,0,.47-1.74,2.09,2.09,0,0,0-1.44-2.4,2.87,2.87,0,0,0-3.64,1.2,17.14,17.14,0,0,0-1.14,2.46C181.7,31.85,180.92,34,180.07,36.24Z" fill="#030303"/><path d="M100.34,26.83a3.75,3.75,0,0,0-5,.3A1,1,0,0,0,95,28.24a.85.85,0,0,0,1,.59c1.36-.11,2.71-.27,4.06-.36a16.69,16.69,0,0,1,3.16,0,3.9,3.9,0,0,1,3.26,4.63,4.94,4.94,0,0,1-1.82,3.16,10.18,10.18,0,0,1-6.81,2.34,5.42,5.42,0,0,1-4.29-2.41l3.49-2a6,6,0,0,0,.61.8,2.2,2.2,0,0,0,1.77.6,5.15,5.15,0,0,0,2.79-1.14,2.46,2.46,0,0,0,.31-.33,1.25,1.25,0,0,0,.19-1.37,1,1,0,0,0-1.13-.57c-1.24.12-2.47.28-3.71.39a18.79,18.79,0,0,1-2.37.1,4.05,4.05,0,0,1-3.38-6.22,4.62,4.62,0,0,1,1.11-1.26,10.93,10.93,0,0,1,6.05-2.28A4.73,4.73,0,0,1,103.42,25Z" fill="#030303"/><path d="M223.33,214.79l-3.69,4.75-2.72-2.11,9.88-12.76,2.72,2.1-3.66,4.76,13.31,10.33-2.5,3.24Z" fill="#030303"/><path d="M158.56,251.22l-5.92.94-.56-3.39L168,246.2c.19,1.14.37,2.23.56,3.39l-5.91,1c.89,5.55,1.77,11,2.66,16.59l-4,.69C160.36,262.31,159.47,256.82,158.56,251.22Z" fill="#030303"/><path d="M146.75,15.27l2.57.12v3h-2.56a8.53,8.53,0,0,0-.09.93c-.06,2-.12,4.07-.15,6.11,0,1.57.38,1.88,1.9,1.58l.7-.14.3,3a6.71,6.71,0,0,1-5.15.06,2.33,2.33,0,0,1-1.44-1.77,11.15,11.15,0,0,1-.2-1.91c0-2.56,0-5.13,0-7.8l-1.57-.12v-3l1.76-.08V12.34l3.94-2.19Z" fill="#030303"/><path d="M215.07,245.89l-3.35,2.38c-3.95-5.53-7.83-11-11.75-16.47.16-.14.26-.25.38-.34l2.93-2.09Z" fill="#030303"/><path d="M151.73,30.3c.47-4.93.93-9.72,1.4-14.63L157,16c-.46,4.9-.91,9.73-1.38,14.65Z" fill="#030303"/><path d="M85.05,39.17,83.28,35.7l6.8-3.49,1.78,3.47Z" fill="#030303"/><path d="M92,235.42c1.27-1,2.38-1.89,3.56-2.84l3.9,2c-1.79.68-3.37,1.29-5,1.87a1.12,1.12,0,0,1-.73-.11C93.24,236.07,92.71,235.78,92,235.42Z" fill="#030303"/><path d="M153.31,13.67l.35-3.57,3.86.35c-.11,1.22-.21,2.36-.32,3.59Z" fill="#030303"/><path d="M132.66,247.31l-3.29-.42.4-3.3,3.33.42Z" fill="#030303"/><path d="M126.76,246.56l-3.3-.41c.14-1.11.26-2.14.4-3.3l3.31.39C127,244.35,126.91,245.37,126.76,246.56Z" fill="#030303"/><path d="M76.31,226.51c3.19,2.28,10.13,7.33,10.36,7.53-.26.3-1.51,2-2.08,2.63" fill="#030303"/><path d="M238.74,139A96.56,96.56,0,1,1,142.4,42.35,96.63,96.63,0,0,1,238.74,139Zm-6.8-.1a89.75,89.75,0,1,0-89.77,89.77A89.79,89.79,0,0,0,231.94,138.88Z" fill="#030303"/></g></svg>