<?xml version="1.0" encoding="utf-8"?>
<!-- Generator: Adobe Illustrator 26.0.3, SVG Export Plug-In . SVG Version: 6.00 Build 0)  -->
<!DOCTYPE svg PUBLIC "-//W3C//DTD SVG 1.1//EN" "http://www.w3.org/Graphics/SVG/1.1/DTD/svg11.dtd" [
	<!ENTITY ns_extend "http://ns.adobe.com/Extensibility/1.0/">
	<!ENTITY ns_ai "http://ns.adobe.com/AdobeIllustrator/10.0/">
	<!ENTITY ns_graphs "http://ns.adobe.com/Graphs/1.0/">
	<!ENTITY ns_vars "http://ns.adobe.com/Variables/1.0/">
	<!ENTITY ns_imrep "http://ns.adobe.com/ImageReplacement/1.0/">
	<!ENTITY ns_sfw "http://ns.adobe.com/SaveForWeb/1.0/">
	<!ENTITY ns_custom "http://ns.adobe.com/GenericCustomNamespace/1.0/">
	<!ENTITY ns_adobe_xpath "http://ns.adobe.com/XPath/1.0/">
]>
<svg version="1.1" xmlns:x="&ns_extend;" xmlns:i="&ns_ai;" xmlns:graph="&ns_graphs;"
	 xmlns="http://www.w3.org/2000/svg" xmlns:xlink="http://www.w3.org/1999/xlink" x="0px" y="0px" viewBox="0 0 2048 2048"
	 enable-background="new 0 0 2048 2048" xml:space="preserve">
<metadata>
	<sfw  xmlns="&ns_sfw;">
		<slices></slices>
		<sliceSourceBounds  bottomLeftOrigin="true" height="2048" width="2048" x="0" y="0"></sliceSourceBounds>
	</sfw>
</metadata>
<g id="rosa">
	<rect y="0" fill-rule="evenodd" clip-rule="evenodd" fill="#FFFFFF" width="2048" height="2048"/>
	<path id="Ellipse-4-copy" fill="none" stroke="#ED80A2" stroke-width="45" stroke-linecap="round" d="M223,930
		c1.2-9.1,2.6-18.1,4.1-27.1c26.6-157.2,98.7-299.1,202.3-411.5 M1621.3,491c108,117.1,181.8,266.2,205.7,431.4"/>
	<path id="Combined-Shape" fill-rule="evenodd" clip-rule="evenodd" fill="#F17FA1" d="M1155.8,671.3l202.7,477.5
		c6.1,14.4-0.6,31.1-15,37.2c-14.4,6.1-31.1-0.6-37.2-15l-13.2-31.1l-291.9,30.2c2.2,6.5,3.7,14.2,4.5,23.4
		c5.3,61-39.8,114.8-100.8,120.2c-61,5.3-114.8-39.8-120.1-100.8c-0.7-7.6-0.3-14.4,1-20.4l-60.2,6.2l5.7,13.5
		c6.1,14.4-0.6,31.1-15,37.2c-14.4,6.1-31.1-0.6-37.2-15l-56.7-133.6c-6.1-14.4,0.6-31.1,15-37.2c14.4-6.1,31.1,0.6,37.2,15l6.4,15
		l435.8-368.9l-13.2-31.2c-6.1-14.4,0.6-31.1,15-37.2C1133,650.1,1149.6,656.9,1155.8,671.3z M940.4,1176.3l-95,9.8
		c-2.3,6.7-3.2,14-2.6,21.5c2.5,28.9,28,50.3,56.9,47.8c28.9-2.5,50.3-28,47.8-56.9C946.8,1190.4,944.2,1182.9,940.4,1176.3z
		 M1124.3,812.4L717.4,1108l10.7,25.3l442.6-211.4L1124.3,812.4z"/>
</g>
<g id="lila">
	<path id="Ellipse-9-path" fill="none" stroke="#9966CC" stroke-width="45" stroke-linecap="round" d="M1361,757
		c46.2,49.7,76.9,114.7,83.3,187.8c1,11.9,1.4,23.6,1.1,35.2"/>
</g>
<g id="svart">
	<path id="Ellipse-7" fill-rule="evenodd" clip-rule="evenodd" d="M1023.5,346c371.7,0,673.5,300.7,673.5,671
		c0,370.3-301.8,671-673.5,671c-371.7,0-673.5-300.7-673.5-671C350,646.7,651.8,346,1023.5,346z M1023.5,393.3
		c345.5,0,626,279.5,626,623.7c0,344.2-280.5,623.7-626,623.7c-345.5,0-626-279.5-626-623.7C397.5,672.8,678,393.3,1023.5,393.3z"/>
	<g id="Ellipse-71" transform="translate(552.359684, 0.000000)">
		
			<g id="Group" transform="translate(90.805984, 276.132494) rotate(-37.333957) translate(-90.805984, -276.132494) translate(30.917095, 205.082180)">
			<path id="Shape" d="M-156.6,1.3l52.1,0c11.8,0,20.7,1,27,2.8c8.3,2.4,15.4,6.7,21.3,13c5.9,6.1,10.3,13.8,13.4,22.9
				c3.2,8.9,4.5,20.1,4.5,33.3c0,11.6-1.4,21.7-4.3,29.9c-3.6,10.2-8.5,18.7-15,25c-4.9,4.7-11.6,8.5-20.1,11.2
				c-6.3,2-14.6,3-25.3,3l-53.7,0L-156.6,1.3z M-127.9,25.1l0,93.4l21.3,0c7.9,0,13.6-0.4,17.2-1.2c4.7-1.2,8.5-3.2,11.4-5.9
				c3.2-2.8,5.7-7.3,7.5-13.6c2-6.3,3-15,3-25.8c0-11-1-19.3-3-25.2c-1.8-5.7-4.5-10.4-8.1-13.6c-3.4-3.3-7.9-5.5-13.2-6.7
				c-3.9-0.8-11.6-1.4-23.3-1.4L-127.9,25.1z"/>
		</g>
		
			<g id="Group_00000084508652956716752310000000896872908109723048_" transform="translate(197.171747, 229.098393) rotate(-29.392082) translate(-197.171747, -229.098393) translate(169.703910, 215.158141)">
			
				<rect id="Rectangle" x="-154.6" y="23.1" transform="matrix(-1 3.036576e-06 -3.036576e-06 -1 -255.9044 73.2684)" width="53.3" height="27"/>
		</g>
		
			<g id="Group_00000019659726462895054010000001634389169331793568_" transform="translate(274.577267, 190.964289) rotate(-23.336046) translate(-274.577267, -190.964289) translate(175.512939, 92.033472)">
			<path id="Path" d="M-101.2,159.7l27.2-4.1c1.2,5.3,3.6,9.3,7.1,12c3.6,2.8,8.5,4.1,14.8,4.1c6.9,0,12.2-1.4,15.8-3.9
				c2.4-1.8,3.6-4.1,3.6-7.3c0-2-0.6-3.7-2-4.9c-1.2-1.4-4.3-2.6-9.1-3.7c-21.7-4.7-35.5-9.1-41.4-13c-8.1-5.5-12.2-13.2-12.2-23.1
				c0-8.9,3.6-16.4,10.7-22.3c6.9-6.1,17.8-9.1,32.6-9.1c14,0,24.3,2.2,31.2,6.7c6.7,4.7,11.4,11.4,14,20.3l-25.5,4.7
				c-1.2-3.9-3.2-7.1-6.3-9.3c-3-2-7.3-3.2-13-3.2c-7.1,0-12.2,1-15.2,3c-2.2,1.6-3.2,3.3-3.2,5.5c0,2,0.8,3.5,2.8,4.9
				c2.4,1.8,10.9,4.3,25.3,7.7c14.4,3.2,24.5,7.3,30.2,12c5.5,4.7,8.5,11.4,8.5,20.1c0,9.3-3.9,17.3-11.8,24
				c-7.7,6.9-19.3,10.2-34.7,10.2c-14,0-25.1-3-33.2-8.5C-93.3,177.1-98.6,169.4-101.2,159.7z"/>
		</g>
		
			<g id="Group_00000168818281343585612490000015338598295707602820_" transform="translate(386.672994, 152.154749) rotate(-14.955637) translate(-386.672994, -152.154749) translate(338.491708, 98.642171)">
			<path id="Shape_00000040554909991885295960000002556869527459520393_" d="M-77.5,132.7l27,4.5c-3.6,9.9-9.1,17.3-16.4,22.5
				c-7.5,5.3-17,7.9-28.2,7.9c-17.8,0-31-5.9-39.5-17.5c-6.7-9.3-10.1-20.9-10.1-35.1c0-16.9,4.3-30.3,13.2-39.8
				c8.9-9.7,20.1-14.4,33.7-14.4c15.2,0,27.2,4.9,35.9,15c8.9,10,13,25.4,12.6,46.1H-117c0.2,8.1,2.4,14.4,6.7,18.7
				c4.1,4.5,9.3,6.7,15.6,6.7c4.1,0,7.7-1.2,10.7-3.3C-81.1,141.6-78.9,137.8-77.5,132.7z M-76,105.3c-0.2-7.7-2.2-13.8-6.1-17.7
				c-3.7-4.1-8.5-6.1-14-6.1c-5.9,0-10.9,2.2-14.6,6.3c-3.9,4.3-5.9,10.2-5.7,17.5L-76,105.3z"/>
		</g>
		
			<g id="Group_00000049188994755151320510000004153674150488567192_" transform="translate(506.402826, 109.838703) rotate(-6.213470) translate(-506.402826, -109.838703) translate(407.338499, 10.907885)">
			<polygon id="Path_00000032612511403941387110000008226555805135874969_" points="-82.3,251.7 -82.3,110.6 -55.2,110.6 
				-55.2,185.5 -23.5,149.4 9.9,149.4 -25.2,186.9 12.3,251.7 -16.9,251.7 -42.6,205.8 -55.2,219 -55.2,251.7 			"/>
		</g>
		
			<g id="Group_00000067235368275315449680000003931865994984481664_" transform="translate(595.501428, 107.445391) rotate(-0.136278) translate(-595.501428, -107.445391) translate(496.437100, 8.514573)">
			<path id="Path_00000064316534315307957910000003948776620524058792_" d="M2.8,160.6l0,21.7h-18.6l0,41.2c0,8.3,0.2,13.2,0.6,14.6
				c0.2,1.4,1,2.6,2.4,3.3c1.2,1,2.8,1.4,4.5,1.4c2.6,0,6.1-0.8,10.9-2.6L5,261.1c-6.3,2.8-13.4,4.1-21.5,4.1c-4.7,0-9.3-0.8-13-2.6
				c-3.9-1.6-6.9-3.7-8.7-6.3c-1.8-2.6-3.2-6.1-3.7-10.4c-0.6-3.2-1-9.7-1-19.1l0-44.5l-12.4,0l0-21.7l12.4,0l0-20.3l27.2-15.8
				l0,36.1H2.8z"/>
		</g>
		
			<g id="Group_00000009560353072517485050000018170301571011690421_" transform="translate(661.392643, 107.678161) rotate(4.311673) translate(-661.392643, -107.678161) translate(647.433578, 36.627847)">
			<path id="Shape_00000088109902279420971040000012489909049855159189_" d="M-116.3,130.5v-25h27l0,25H-116.3z M-116.3,246.5
				l0-102.3h27l0,102.3H-116.3z"/>
		</g>
		
			<g id="Group_00000176016066070438587280000015822707583305815438_" transform="translate(753.192471, 139.374221) rotate(10.903404) translate(-753.192471, -139.374221) translate(700.057968, 85.861642)">
			<path id="Shape_00000147940152442649872890000014977530110269194649_" d="M-103.7,169.7c0-8.9,2.2-17.5,6.7-26
				c4.3-8.5,10.7-14.8,18.7-19.3c8.1-4.3,17.2-6.5,27.2-6.5c15.6,0,28.2,4.9,38.1,15s14.8,22.7,14.8,38c0,15.6-4.9,28.4-15,38.4
				c-9.9,10.2-22.5,15.4-37.7,15.4c-9.3,0-18.4-2.2-26.8-6.5c-8.5-4.1-15-10.2-19.3-18.5C-101.5,191.6-103.7,181.6-103.7,169.7z
				 M-75.9,171.3c0,10,2.4,17.9,7.1,23.2c4.9,5.3,10.9,8.1,18,8.1c6.9,0,12.8-2.8,17.8-8.1c4.7-5.3,7.1-13.2,7.1-23.4
				c0-10-2.4-17.7-7.1-23.1c-4.9-5.5-10.9-8.1-17.8-8.1c-7.1,0-13,2.6-18,8.1C-73.5,153.4-75.9,161.1-75.9,171.3z"/>
		</g>
		
			<g id="Group_00000139999541206021929150000017645618163355391152_" transform="translate(877.177357, 172.342268) rotate(19.970664) translate(-877.177357, -172.342268) translate(778.113029, 72.961765)">
			<path id="Path_00000031166828556809483850000014917430519458222741_" d="M61.6,284.3h-27l0-52.2c0-11-0.6-18.1-1.8-21.3
				c-1-3.3-3-5.9-5.5-7.7c-2.6-1.8-5.7-2.6-9.5-2.6c-4.5,0-8.9,1.2-12.6,3.7c-3.7,2.6-6.1,6.1-7.5,10.2c-1.4,4.1-2.2,12-2.2,23.4
				l0,46.3h-27l0-102.3h25.1l0,15.2c8.9-11.6,20.1-17.3,33.7-17.3c5.9,0,11.4,1,16.4,3.2c4.9,2.2,8.7,4.9,11.2,8.3
				c2.6,3.3,4.3,7.1,5.3,11.2c1,4.3,1.4,10.4,1.4,18.3L61.6,284.3z"/>
		</g>
		
			<g id="Group_00000000198789187768158200000008116035429573020591_" transform="translate(987.685461, 223.321668) rotate(28.525141) translate(-987.685461, -223.321668) translate(939.504175, 169.809089)">
			<path id="Shape_00000063623757589427392320000017118046285554210970_" d="M4,215.8l27,4.5c-3.6,9.9-9.1,17.3-16.4,22.5
				c-7.5,5.3-17,7.9-28.2,7.9c-17.8,0-31-5.9-39.5-17.5c-6.7-9.3-10.1-20.9-10.1-35.1c0-16.9,4.3-30.3,13.2-39.8
				c8.9-9.7,20.1-14.4,33.7-14.4c15.2,0,27.2,4.9,35.9,15c8.9,10,13,25.4,12.6,46.1l-67.9,0c0.2,8.1,2.4,14.4,6.7,18.7
				c4.1,4.5,9.3,6.7,15.6,6.7c4.1,0,7.7-1.2,10.7-3.3C0.4,224.7,2.6,220.9,4,215.8z M5.5,188.4c-0.2-7.7-2.2-13.8-6.1-17.7
				c-3.7-4.1-8.5-6.1-14-6.1c-5.9,0-10.9,2.2-14.6,6.3c-3.9,4.3-5.9,10.2-5.7,17.5L5.5,188.4z"/>
		</g>
		
			<g id="Group_00000177454384796170542910000003707374235251060410_" transform="translate(1092.341309, 289.458865) rotate(37.205250) translate(-1092.341309, -289.458865) translate(993.276982, 190.078362)">
			<path id="Path_00000147915017389017826130000002795054071249545360_" d="M104.7,303.3h-27l0-52.2c0-11-0.6-18.1-1.8-21.3
				c-1-3.3-3-5.9-5.5-7.7c-2.6-1.8-5.7-2.6-9.5-2.6c-4.5,0-8.9,1.2-12.6,3.7c-3.7,2.6-6.1,6.1-7.5,10.2c-1.4,4.1-2.2,12-2.2,23.4
				l0,46.3h-27l0-102.3l25.1,0l0,15.2c8.9-11.6,20.1-17.3,33.7-17.3c5.9,0,11.4,1,16.4,3.2s8.7,4.9,11.2,8.3
				c2.6,3.3,4.3,7.1,5.3,11.2c1,4.3,1.4,10.4,1.4,18.3L104.7,303.3z"/>
		</g>
	</g>
	
		<g id="Ellipse-72" transform="translate(1109.899590, 1127.975790) rotate(31.331939) translate(-1109.899590, -1127.975790) translate(254.098852, 399.577266)">
		
			<g id="Group_00000004512890314797152260000009222719706087568563_" transform="translate(82.958320, 962.769032) rotate(58.144305) translate(-82.958320, -962.769032) translate(68.102232, 891.639881)">
			
				<rect id="Rectangle_00000147899244159117928760000006991471777761590176_" x="39.3" y="181.8" transform="matrix(1.964232e-06 1 -1 1.964232e-06 305.9797 86.2636)" width="141.1" height="28.6"/>
		</g>
		
			<g id="Group_00000008113171301611958390000002672881457353235107_" transform="translate(139.415482, 1042.011408) rotate(51.425093) translate(-139.415482, -1042.011408) translate(40.374891, 942.970818)">
			<polygon id="Path_00000145751338360576104240000010036688983535225515_" points="122.4,305.2 122.4,164.1 150.2,164.1 208,258.3 
				208,164.1 234.4,164.1 234.4,305.2 205.8,305.2 148.8,213.2 148.8,305.2 			"/>
		</g>
		
			<g id="Group_00000031196565732642579950000006264763172145227658_" transform="translate(229.246509, 1137.826318) rotate(42.355285) translate(-229.246509, -1137.826318) translate(130.205919, 1038.785728)">
			<polygon id="Path_00000142893645223274496240000005750356581110438547_" points="107.6,316.1 107.6,174.9 204.3,174.9 
				204.3,198.8 136.1,198.8 136.1,232.3 195,232.3 195,256.2 136.1,256.2 136.1,316.1 			"/>
		</g>
		
			<g id="Group_00000158028350086968372950000001917137056694808463_" transform="translate(332.542008, 1218.062970) rotate(33.277695) translate(-332.542008, -1218.062970) translate(263.213595, 1144.682896)">
			<path id="Shape_00000152261345658407206830000003801681946219885440_" d="M34.3,227.7c0-14.2,2.2-26.4,6.5-36.1
				c3.2-7.3,7.7-13.6,13.2-19.3c5.5-5.7,11.6-10.1,18.2-12.8c8.9-3.7,18.9-5.5,30.6-5.5c20.7,0,37.5,6.5,49.9,19.3
				c12.4,13,18.7,30.9,18.7,53.8s-6.3,40.6-18.5,53.4c-12.4,13-29,19.3-49.7,19.3c-21.1,0-37.7-6.3-50.1-19.1
				C40.6,267.9,34.3,250.2,34.3,227.7z M63.7,226.9c0,16,3.7,28,11.2,36.3c7.3,8.3,16.6,12.4,28,12.4c11.4,0,20.7-4.1,28-12.4
				c7.3-8.1,10.9-20.3,10.9-36.7c0-16.2-3.6-28.4-10.7-36.3c-7.1-7.9-16.4-11.8-28.2-11.8c-11.6,0-21.1,3.9-28.4,12
				C67.4,198.6,63.7,210.6,63.7,226.9z"/>
		</g>
		
			<g id="Group_00000096751600080544537570000001888322079928069304_" transform="translate(464.062613, 1288.524603) rotate(22.853617) translate(-464.062613, -1288.524603) translate(400.136413, 1217.395451)">
			<path id="Shape_00000036934798958889849650000016333426777839296675_" d="M5.8,298.5l0-141.1l60,0c15.2,0,26.2,1.4,32.9,3.7
				c6.9,2.6,12.4,7.1,16.4,13.6c4.1,6.5,6.3,14,6.3,22.3c0,10.6-3.2,19.3-9.5,26.2c-6.1,6.9-15.4,11.2-27.8,13
				c6.1,3.5,11.2,7.5,15.2,11.8c3.9,4.3,9.5,12,16.2,22.9l17.4,27.6l-34.1,0L78,267.7c-7.3-10.8-12.2-17.9-15-20.7
				c-2.6-2.8-5.5-4.7-8.5-5.9c-3-1-7.9-1.6-14.4-1.6h-5.7l0,58.9H5.8z M34.4,217.1h21.1c13.6,0,22.1-0.6,25.6-1.8
				c3.4-1.2,5.9-3.2,7.9-5.9c2-2.8,3-6.3,3-10.6c0-4.7-1.4-8.5-3.9-11.4c-2.4-3-6.1-4.7-10.7-5.5c-2.4-0.4-9.3-0.6-20.7-0.6H34.4
				L34.4,217.1z"/>
		</g>
		
			<g id="Group_00000165920666243125780180000007211419559556180665_" transform="translate(599.322323, 1331.750257) rotate(12.899657) translate(-599.322323, -1331.750257) translate(500.281732, 1232.709667)">
			<polygon id="Path_00000036214060998191630320000008443697446242036623_" points="8.9,325.3 8.9,184.2 51.5,184.2 77.2,280.4 
				102.4,184.2 145.2,184.2 145.2,325.3 118.8,325.3 118.8,214.3 90.8,325.3 63.4,325.3 35.3,214.3 35.3,325.3 			"/>
		</g>
		
			<g id="Group_00000086668747406264736280000006378422398224823989_" transform="translate(746.452061, 1352.087438) rotate(2.588246) translate(-746.452061, -1352.087438) translate(675.322910, 1280.958286)">
			<path id="Shape_00000147202690416208897550000013172068320348013187_" d="M92,290.5h-31l-12.2-32.1H-7.8l-11.6,32.1h-30.2
				l55-141.1l30.2,0L92,290.5z M39.6,234.7l-19.3-52.4L1.1,234.7L39.6,234.7z"/>
		</g>
		
			<g id="Group_00000083797590160364143350000008581100620158369152_" transform="translate(861.795735, 1348.904118) rotate(-5.330937) translate(-861.795735, -1348.904118) translate(762.755144, 1249.863528)">
			<polygon id="Path_00000044155614562585985920000004983978029881699969_" points="14.9,310.6 14.9,193.3 -27.2,193.3 -27.2,169.4 
				85.1,169.4 85.1,193.3 43.3,193.3 43.3,310.6 			"/>
		</g>
		
			<g id="Group_00000071543849578148108160000008614560227443653517_" transform="translate(948.755349, 1336.463866) rotate(-11.487305) translate(-948.755349, -1336.463866) translate(933.899260, 1265.334715)">
			
				<rect id="Rectangle_00000160871144449629000990000002939747800020644747_" x="-140" y="189.1" transform="matrix(2.123970e-06 1 -1 2.123970e-06 134.0182 272.7921)" width="141.1" height="28.6"/>
		</g>
		
			<g id="Group_00000145744228923434723740000005755153742533151422_" transform="translate(1048.172805, 1309.380534) rotate(-18.710692) translate(-1048.172805, -1309.380534) translate(978.844392, 1236.000460)">
			<path id="Shape_00000111876996513967093400000005850351424316977042_" d="M-99.5,195.1c0-14.2,2.2-26.4,6.5-36.1
				c3.2-7.3,7.7-13.6,13.2-19.3c5.5-5.7,11.6-10.1,18.2-12.8c8.9-3.7,18.9-5.5,30.6-5.5c20.7,0,37.5,6.5,49.9,19.3
				c12.4,13,18.7,30.9,18.7,53.8s-6.3,40.6-18.5,53.4c-12.4,13-29,19.3-49.7,19.3c-21.1,0-37.7-6.3-50.1-19.1
				C-93.2,235.3-99.5,217.5-99.5,195.1z M-70.1,194.3c0,16,3.7,28,11.2,36.3c7.3,8.3,16.6,12.4,28,12.4c11.4,0,20.7-4.1,28-12.4
				C4.4,222.5,8,210.3,8,193.9c0-16.2-3.6-28.4-10.7-36.3c-7.1-7.9-16.4-11.8-28.2-11.8c-11.6,0-21.1,3.9-28.4,12
				C-66.4,165.9-70.1,177.9-70.1,194.3z"/>
		</g>
		
			<g id="Group_00000150818989477606103300000007551854246029796238_" transform="translate(1178.752173, 1251.994688) rotate(-28.676906) translate(-1178.752173, -1251.994688) translate(1079.711582, 1152.954097)">
			<polygon id="Path_00000040562822635586224110000013039305722109318313_" points="-77,271.4 -77,130.3 -49.2,130.3 8.7,224.5 
				8.7,130.3 35.1,130.3 35.1,271.4 6.5,271.4 -50.5,179.4 -50.5,271.4 			"/>
		</g>
		
			<g id="Group_00000078752765600115028490000011748009024883594412_" transform="translate(1289.979544, 1178.958004) rotate(-37.911794) translate(-1289.979544, -1178.958004) translate(1190.938954, 1079.917414)">
			<path id="Path_00000165210121238442903200000003729981400343439754_" d="M-93.2,205l27.8-2.8c1.6,9.5,4.9,16.2,10.1,20.5
				c5.1,4.5,12,6.7,20.7,6.7c9.3,0,16.2-2,20.7-5.9c4.7-3.9,7.1-8.5,7.1-13.6c0-3.4-1-6.1-3-8.5c-2-2.4-5.5-4.3-10.3-6.1
				c-3.4-1.2-11-3.4-22.9-6.1c-15.2-3.9-26-8.5-32.2-14c-8.7-7.9-13-17.3-13-28.4c0-7.3,2-14,6.1-20.3c4.1-6.1,9.9-11,17.6-14.2
				c7.7-3.4,17-4.9,27.8-4.9c17.8,0,31.2,3.9,40.1,11.6c9.1,7.7,13.6,18.1,14.2,31.1l-28.6,1.2c-1.2-7.3-3.7-12.4-7.9-15.6
				c-3.9-3.2-10.1-4.7-18-4.7c-8.3,0-14.8,1.6-19.5,4.9c-3,2.4-4.5,5.1-4.5,8.9c0,3.4,1.4,6.1,4.3,8.5c3.6,3.2,12.2,6.3,26,9.5
				c14,3.4,24.3,6.7,30.8,10.3c6.7,3.4,12,8.3,15.8,14.2c3.7,6.1,5.5,13.6,5.5,22.7c0,8.1-2.2,15.6-6.7,22.7
				c-4.5,7.1-10.9,12.2-19.1,15.8c-8.1,3.4-18.3,5.1-30.6,5.1c-18,0-31.6-4.1-41.2-12.4C-85.5,232.8-91.2,220.7-93.2,205z"/>
		</g>
		
			<g id="Group_00000054241966737899115540000003055925573877186706_" transform="translate(1389.324212, 1089.100923) rotate(-47.154121) translate(-1389.324212, -1089.100923) translate(1290.283622, 990.060333)">
			<path id="Path_00000026863606887351590390000012095809495018407082_" d="M-103.4,86.1l28.4,0l0,76.5c0,12,0.4,19.9,1.2,23.7
				c1.2,5.7,4.1,10.3,8.7,13.8c4.5,3.5,10.9,5.3,18.7,5.3c8.1,0,14.2-1.8,18.3-4.9c4.1-3.4,6.5-7.5,7.5-12.2
				c0.8-4.9,1.2-12.8,1.2-24l0-78.1l28.6,0l0,74.1c0,17-0.8,29-2.4,35.9c-1.6,7.1-4.3,13-8.5,17.7c-4.1,4.9-9.7,8.7-16.8,11.4
				c-6.9,3-16,4.3-27,4.3c-13.6,0-23.7-1.6-30.8-4.5c-6.9-3.2-12.4-7.3-16.6-12.2c-3.9-4.9-6.7-10.3-7.9-15.6
				c-2-8.1-2.8-20.1-2.8-35.9L-103.4,86.1z"/>
		</g>
		
			<g id="Group_00000038406878930389551030000002435237655930789566_" transform="translate(1468.650501, 987.462639) rotate(-56.077124) translate(-1468.650501, -987.462639) translate(1369.609911, 888.422049)">
			<polygon id="Path_00000042699899755142660410000002488626308885119907_" points="-68.6,204.9 -68.6,87.6 -110.6,87.6 
				-110.6,63.8 1.7,63.8 1.7,87.6 -40.2,87.6 -40.2,204.9 			"/>
		</g>
		
			<g id="Group_00000183949465941115714770000002800590639575801267_" transform="translate(1528.959910, 881.678963) rotate(-64.564449) translate(-1528.959910, -881.678963) translate(1429.919319, 782.638373)">
			<path id="Path_00000047041125302021906670000013284559155717084033_" d="M-115.3,136l27.8-2.8c1.6,9.5,4.9,16.2,10.1,20.5
				c5.1,4.5,12,6.7,20.7,6.7c9.3,0,16.2-2,20.7-5.9c4.7-3.9,7.1-8.5,7.1-13.6c0-3.4-1-6.1-3-8.5c-2-2.4-5.5-4.3-10.3-6.1
				c-3.4-1.2-11-3.4-22.9-6.1c-15.2-3.9-26-8.5-32.2-14c-8.7-7.9-13-17.3-13-28.4c0-7.3,2-14,6.1-20.3c4.1-6.1,9.9-11,17.6-14.2
				c7.7-3.4,17-4.9,27.8-4.9c17.8,0,31.2,3.9,40.1,11.6C-9.5,57.7-5,68.2-4.4,81.2L-33,82.4c-1.2-7.3-3.7-12.4-7.9-15.6
				c-3.9-3.2-10.1-4.7-18-4.7c-8.3,0-14.8,1.6-19.5,4.9c-3,2.4-4.5,5.1-4.5,8.9c0,3.4,1.4,6.1,4.3,8.5c3.6,3.2,12.2,6.3,26,9.5
				c14,3.4,24.3,6.7,30.8,10.3c6.7,3.4,12,8.3,15.8,14.2c3.7,6.1,5.5,13.6,5.5,22.7c0,8.1-2.2,15.6-6.7,22.7
				c-4.5,7.1-10.9,12.2-19.1,15.8c-8.1,3.4-18.3,5.1-30.6,5.1c-18,0-31.6-4.1-41.2-12.4C-107.6,163.8-113.3,151.8-115.3,136z"/>
		</g>
		
			<g id="Group_00000080900374819267577420000013040280053611032236_" transform="translate(1578.276802, 749.742480) rotate(-74.464827) translate(-1578.276802, -749.742480) translate(1479.236212, 650.701889)">
			<polygon id="Path_00000119796858413118545790000007843657159729347215_" points="-121,154.8 -121,13.7 -92.6,13.7 -92.6,76.3 
				-35,13.7 3.5,13.7 -49.8,68.7 6.2,154.8 -30.7,154.8 -69.5,88.6 -92.6,112.2 -92.6,154.8 			"/>
		</g>
		
			<g id="Group_00000049202722190049482920000004086131493048002441_" transform="translate(1603.846099, 615.632300) rotate(-84.035341) translate(-1603.846099, -615.632300) translate(1534.517685, 542.252226)">
			<path id="Shape_00000084500036916138539060000007331555778454314666_" d="M-150.9,33.5c0-14.2,2.2-26.4,6.5-36.1
				c3.2-7.3,7.7-13.6,13.2-19.3c5.5-5.7,11.6-10.1,18.2-12.8c8.9-3.7,18.9-5.5,30.6-5.5c20.7,0,37.5,6.5,49.9,19.3
				c12.4,13,18.7,30.9,18.7,53.8c0,22.9-6.3,40.6-18.5,53.4c-12.4,13-29,19.3-49.7,19.3c-21.1,0-37.7-6.3-50.1-19.1
				S-150.9,55.9-150.9,33.5z M-121.5,32.7c0,16,3.7,28,11.2,36.3c7.3,8.3,16.6,12.4,28,12.4c11.4,0,20.7-4.1,28-12.4
				c7.3-8.1,10.9-20.3,10.9-36.7C-43.3,16.1-46.9,3.9-54-4c-7.1-7.9-16.4-11.8-28.2-11.8c-11.6,0-21.1,3.9-28.4,12
				C-117.7,4.3-121.5,16.3-121.5,32.7z"/>
		</g>
		
			<g id="Group_00000023991262788015609400000013306560937551254167_" transform="translate(1606.927596, 482.055439) rotate(-93.200768) translate(-1606.927596, -482.055439) translate(1507.887005, 383.014848)">
			<polygon id="Path_00000172404827077994204370000013487690391983006612_" points="-58.7,105.4 -58.7,-11.9 -100.8,-11.9 
				-100.8,-35.8 11.5,-35.8 11.5,-11.9 -30.3,-11.9 -30.3,105.4 			"/>
		</g>
		
			<g id="Group_00000181801335073493720360000018438406375368333212_" transform="translate(1591.880660, 364.997960) rotate(-101.419959) translate(-1591.880660, -364.997960) translate(1492.840070, 265.957370)">
			<polygon id="Path_00000140016889798643338580000008543456907611498887_" points="-48.1,85.5 -48.1,-31.8 -90.1,-31.8 
				-90.1,-55.6 22.2,-55.6 22.2,-31.8 -19.7,-31.8 -19.7,85.5 			"/>
		</g>
		
			<g id="Group_00000142892743056455794240000012485059062557527991_" transform="translate(1557.711179, 244.630512) rotate(-110.213365) translate(-1557.711179, -244.630512) translate(1458.670589, 145.589921)">
			<polygon id="Path_00000005256006534391266550000013106652367399959457_" points="-73,66.3 -73,-74.9 31.7,-74.9 31.7,-51 
				-44.6,-51 -44.6,-19.7 26.4,-19.7 26.4,4.2 -44.6,4.2 -44.6,42.4 34.3,42.4 34.3,66.3 			"/>
		</g>
		
			<g id="Group_00000021092572020802505270000002390045184516558980_" transform="translate(1507.561859, 134.528171) rotate(-118.676906) translate(-1507.561859, -134.528171) translate(1408.521269, 35.487581)">
			<polygon id="Path_00000026844755286174717650000000064308291484096687_" points="-17.1,50 -17.1,-67.3 -59.1,-67.3 -59.1,-91.2 
				53.1,-91.2 53.1,-67.3 11.3,-67.3 11.3,50 			"/>
		</g>
	</g>
</g>
</svg>
