<?xml version="1.0" encoding="utf-8"?>
<!-- Generator: Adobe Illustrator 26.0.3, SVG Export Plug-In . SVG Version: 6.00 Build 0)  -->
<svg version="1.1" xmlns="http://www.w3.org/2000/svg" xmlns:xlink="http://www.w3.org/1999/xlink" x="0px" y="0px"
	 viewBox="0 0 425.2 425.2" enable-background="new 0 0 425.2 425.2" xml:space="preserve">
<g id="Layer_1">
	<path fill="#050404" d="M212.6,341.7c-73,0-131.8-59.4-131.7-132C81,137,140.1,78.1,212.8,78.1c73,0.1,131.8,59.4,131.7,132
		C344.3,282.9,285.4,341.8,212.6,341.7z M239.7,90.4c-0.3,0-0.5-0.1-0.8-0.1c-6.9-1.5-14-2.4-21.1-2.7c-7.3-0.3-14.5,0-21.7,1
		c-2.8,0.4-5.6,0.7-8.3,1.5c-3.1,0.4-6.1,1.3-9.2,2.2c-6.9,1.9-13.6,4.6-20,7.7c-38.4,18.9-66,57.5-68.3,103.8
		c-0.6,11.9,0.5,23.6,3.3,35.1c12.1,49.9,55.1,88.6,108.9,93.1c11.6,1,23.2,0.3,34.6-2c21.3-4.4,40.2-13.6,56.5-28.1
		c25.5-22.8,39.4-51.4,41.4-85.6c0.7-12.1-0.5-24.1-3.4-35.9c-9.6-38.4-37-69.7-73.8-84.4c-3.8-1.5-7.6-2.9-11.6-3.9
		C244.1,91.3,241.9,91,239.7,90.4z"/>
	<path fill="#050404" d="M199.9,389.2c-0.2,0.6-0.5,0.8-1.1,0.7c-1.1-0.1-2.3-0.3-3.4-0.3c-0.9,0-1.3-0.4-1.4-1.3
		c-0.4-2.8-0.9-5.6-1.3-8.4c-0.5-3.5-1.1-7-1.6-10.5c-0.1-0.4-0.2-0.8-0.4-1.2c-0.5,5.1-0.9,10.2-1.4,15.2c-0.1,1.5-0.3,3.1-0.4,4.6
		c-0.1,0.7-0.3,1-1.1,0.9c-1-0.2-2.1-0.2-3.1-0.3c-1.1-0.1-1.1-0.1-1-1.2c0.2-2.8,0.5-5.6,0.7-8.5c0.5-5.4,1-10.8,1.5-16.2
		c0.2-1.9,0.1-1.9,2-1.7c1.7,0.2,3.5,0.3,5.2,0.4c1.1,0.1,1.3,0.1,1.5,1.3c0.8,5.3,1.8,10.6,2.7,15.8c0.1,0.6,0.2,1.1,0.3,1.7
		c0.5-0.3,0.5-0.8,0.7-1.2c1.9-5.1,3.7-10.2,5.5-15.2c0.5-1.3,0.5-1.3,1.8-1.2c2.1,0.2,4.1,0.4,6.2,0.6c0.6,0,0.9,0.2,0.8,0.9
		c-0.7,7-1.3,14.1-2,21.1c-0.1,1.6-0.3,3.2-0.4,4.8c0,0.7-0.2,0.9-0.9,0.8c-1.1-0.1-2.3-0.2-3.4-0.3c-1-0.1-1-0.1-0.9-1.2
		c0.2-2.1,0.4-4.1,0.6-6.2c0.4-4.2,1.4-13.4,1.1-13.9C206.5,369.9,202,383,199.9,389.2z"/>
	<path fill="#050404" d="M317.6,336.3c2.9-0.6,5.6,0.1,8.3,0.9c2.1,0.6,4.2,1.2,6.2,1.8c0.1,0.5-0.3,0.6-0.5,0.9
		c-1.1,1-2.3,2-3.4,3.1c-0.5,0.5-1,0.6-1.7,0.4c-3.1-0.8-6.3-1.5-9.4-2.4c-2.2-0.6-4.1-0.1-5.7,1.5c-0.3,0.3-0.6,0.6-1,0.9
		c2.5,2.8,5.1,5.7,7.7,8.6c-1.4,1.2-2.7,2.4-4.2,3.7c-6.2-6.9-12.3-13.7-18.5-20.6c1.4-1.3,2.8-2.5,4.1-3.7c2-1.8,4-3.6,6-5.3
		c0.9-0.8,1.9-1.5,3-2.1c1.8-1,3.7-1.2,5.7-0.5c4.9,1.7,6.7,7.1,4,11.5C318,335.4,317.6,335.7,317.6,336.3z M307.4,340.1
		c2.1-1.9,4.1-3.6,5.9-5.5c1-1.1,1.4-2.3,0.7-3.7c-1.1-2.3-3.4-2.9-5.3-1.3c-1.9,1.5-3.6,3.2-5.5,4.8c-0.5,0.4-0.4,0.7,0,1.1
		C304.6,337,305.9,338.5,307.4,340.1z"/>
	<path fill="#050404" d="M165.2,371.8c-1,3.7-2.1,7.3-3.2,11.1c-1.5-0.4-2.9-0.8-4.3-1.2c-1-0.3-1-0.3-0.7-1.4
		c1.3-4.8,2.7-9.5,4-14.3c1-3.4,1.9-6.8,2.9-10.2c0.3-1,0.3-1.1,1.3-0.8c4,1.1,7.9,2.2,11.9,3.4c0.9,0.3,1.9,0.6,2.7,1
		c3.5,1.6,5.1,4.8,4.2,8.6c-0.9,3.6-3.6,5.8-7.3,5.9c-0.5,0-0.9,0-1.4,0c-0.2,0.5,0.2,0.6,0.4,0.9c1,1.3,1.8,2.8,2.3,4.4
		c0.9,2.9,1.8,5.8,2.7,8.9c-1.6-0.2-3-0.9-4.4-1.1c-1.6-0.2-2.3-1.1-2.7-2.6c-0.7-2.6-1.7-5.2-2.5-7.8c-0.8-2.5-2.3-4.1-4.9-4.5
		C165.8,372,165.6,371.9,165.2,371.8z M174.8,369.6c1.6,0,2.7-0.7,3.2-2.1c0.8-2,0.1-3.8-2-4.5c-2.3-0.8-4.7-1.4-7.1-2.1
		c-0.6-0.2-0.8,0.1-1,0.6c-0.5,1.7-0.9,3.4-1.4,5.1c-0.3,0.8,0,1,0.7,1.1c1.7,0.4,3.5,1,5.2,1.4
		C173.3,369.4,174.1,369.6,174.8,369.6z"/>
	<path fill="#050404" d="M115.1,95.3c-5.3-7.7-10.5-15.2-15.7-22.7c0.2-0.2,0.3-0.3,0.4-0.4c3.1-2.2,6.3-4.3,9.4-6.4
		c1.6-1.1,3.3-1.9,5.3-2c2.6-0.2,5,0.5,7.1,2.1c3.9,3,6.6,6.7,7.7,11.6c0.9,3.9-0.1,7.2-3.1,10c-0.5,0.5-1.1,1-1.7,1.4
		C121.5,90.9,118.3,93,115.1,95.3z M117,88.3c1.9-1.3,3.8-2.5,5.4-3.9c1.7-1.5,2.3-3.3,1.6-5.5c-1.1-3.3-3-6.1-5.6-8.4
		c-2.1-1.8-4.3-2-6.7-0.6c-1.8,1-3.4,2.1-5.1,3.4C110.1,78.2,113.5,83.2,117,88.3z"/>
	<path fill="#050404" d="M98.1,303.1c-2.7-0.7-5.2-1.4-7.7-2.1c-1.9-0.5-3.8-1-5.7-1.5c-1.1-0.3-1.1-0.3-1.7,0.7
		c-2.8,5.2-5.6,10.4-8.4,15.7c-0.1,0.3-0.3,0.5-0.4,0.8c-0.5,0-0.6-0.4-0.7-0.7c-0.8-1.4-1.5-2.9-2.4-4.3c-0.4-0.7-0.4-1.2,0-1.9
		c2.2-3.5,4.2-7.1,6.4-10.6c0.2-0.3,0.4-0.6,0.5-0.9s0-0.5-0.3-0.6c-1.8-0.5-3.6-1-5.3-1.5c-0.5-0.1-0.8,0.2-1.1,0.4
		c-1.9,1-3.8,2.1-5.7,3.1c-0.6,0.3-0.9,0.4-1.3-0.3c-0.7-1.4-1.5-2.7-2.3-4.2c8.1-4.5,16.1-8.9,24.2-13.3c1,1.4,1.6,2.9,2.5,4.3
		c0.3,0.5,0,0.7-0.4,0.9c-1.9,1-3.7,2-5.5,3c-1.4,0.8-2.8,1.5-4.2,2.3c0.2,0.5,0.6,0.4,1,0.5c4.5,1.1,9.1,2.3,13.6,3.3
		c0.9,0.2,1.4,0.6,1.8,1.4C96.1,299.4,97.1,301.1,98.1,303.1z"/>
	<path fill="#050404" d="M341.3,328.4c-7.6-5.3-15.1-10.6-22.5-15.8c0.1-0.6,0.4-0.9,0.7-1.2c3.4-4.9,6.9-9.8,10.3-14.7
		c0.7-1,0.7-1,1.6-0.3c0.8,0.6,1.7,1.2,2.5,1.8c0.1,0.1,0.1,0.2,0.3,0.4c-2.8,4-5.6,8-8.5,12.1c1.6,1.2,3.2,2.3,4.8,3.4
		c0.5-0.2,0.7-0.6,0.9-1c2.2-3.1,4.4-6.2,6.6-9.4c0.6-0.9,0.7-0.9,1.5-0.3c0.8,0.5,1.5,1.1,2.3,1.6c0.6,0.4,0.5,0.7,0.2,1.2
		c-2.2,3-4.3,6.1-6.4,9.1c-0.3,0.5-0.6,0.9-1,1.5c1.3,1.2,2.8,2.1,4.2,3.1c1.9,1.3,1.9,1.3,3.1-0.5c2.3-3.2,4.5-6.4,6.8-9.6
		c0.3-0.4,0.5-0.7,0.9-1.2c1.3,0.9,2.5,1.7,3.8,2.7C349.4,317,345.3,322.7,341.3,328.4z"/>
	<path fill="#050404" d="M294.7,335.5c0.7,1.1,1.3,2.2,2,3.1c0.5,0.7,0.4,1-0.3,1.4c-3.1,1.9-6.1,3.9-9.1,5.8
		c-0.8,0.6-1.8,0.9-2.5,1.8c0.5,0.8,1,1.7,1.5,2.5c0.4,0.6,0.8,1.1,1.1,1.7c0.4,0.8,0.8,0.7,1.4,0.3c3.1-2.1,6.3-4.1,9.5-6.1
		c0.4-0.3,0.8-0.6,1.4-0.8c0.7,1,1.3,2,2,3c0.5,0.7,0.4,1-0.3,1.4c-3.1,2-6.3,4-9.4,6c-0.5,0.3-1,0.5-1.4,1c1.2,1.8,2.3,3.6,3.5,5.5
		c0.4,0.6,0.7,0.7,1.3,0.3c3.6-2.3,7.2-4.6,10.8-6.9c0.4-0.3,0.9-0.5,1.4-0.9c0.8,1.3,1.6,2.5,2.5,3.9c-5.9,3.8-11.8,7.5-17.6,11.3
		c-0.9-1-13.5-20.6-15-23.3C283.2,342.9,288.9,339.3,294.7,335.5z"/>
	<path fill="#050404" d="M258.3,363.5c-1.6,0.5-3.1,0.9-4.6,1.4c-0.6,0.2-0.8,0-1.1-0.5c-1-1.9-2.7-2.4-4.7-2.1
		c-1.3,0.2-2.6,0.6-3.7,1.5c-0.8,0.6-1.3,1.4-1,2.4s1,1.5,2,1.7c1.3,0.3,2.7,0.3,4,0.3c2.1,0,4.2-0.1,6.3,0.3
		c3.4,0.6,5.6,2.5,6.5,5.9c0.9,3.3,0,6.2-2.6,8.5c-2,1.7-4.5,2.5-7,3c-1.9,0.4-3.9,0.5-5.8,0c-3.2-0.9-5.1-3.2-6.4-6.1
		c-0.2-0.4,0-0.6,0.3-0.7c1.4-0.5,2.7-1,4.1-1.5c0.4-0.2,0.7-0.1,0.8,0.4c0,0,0,0.1,0.1,0.1c2.3,3.5,5.8,4.2,9.3,1.9
		c0.8-0.5,1.4-1.2,1.7-2.1c0.6-1.8-0.2-3.3-2-3.8c-1-0.3-1.9-0.2-2.9-0.2c-2.4,0-4.8,0.1-7.3-0.3c-4-0.7-6.6-3.8-6.5-7.6
		c0.1-2,0.8-3.8,2.4-5c3.6-2.9,7.8-4.1,12.4-3.1C255.7,358.5,257.4,360.6,258.3,363.5z"/>
	<path fill="#050404" d="M153.7,380.5c-1.7-0.8-3.1-1.5-4.6-2.2c-0.6-0.3-0.8-0.6-0.8-1.3c0.2-1.6,0.2-3.2,0.4-4.8
		c0.1-0.8-0.1-1.2-0.9-1.5c-2.8-1.3-5.5-2.6-8.2-3.9c-0.6-0.3-1-0.2-1.5,0.2c-1.1,1.2-2.4,2.3-3.5,3.5c-0.4,0.4-0.8,0.5-1.3,0.2
		c-1.5-0.7-3-1.4-4.4-2.2c0.1-0.5,0.5-0.7,0.8-1c6.5-6.1,13.1-12.3,19.6-18.4c1.1-1,1.1-1,2.5-0.4c1,0.5,2,1,3.1,1.5
		c0.7,0.3,0.9,0.7,0.8,1.4c-0.3,4.2-0.5,8.4-0.8,12.7c-0.3,4.5-0.6,9-0.9,13.4C153.9,378.6,153.8,379.4,153.7,380.5z M150.1,355.7
		c-0.1,0-0.2-0.1-0.3-0.1c-2.4,2.5-4.7,5-7.1,7.5c2,1,4.2,2,6.5,3.1C149.5,362.5,149.8,359.1,150.1,355.7z"/>
	<path fill="#050404" d="M91.6,338.9c-1.2-1.5-2.3-2.9-3.4-4.2c-0.4-0.5-0.3-0.8,0-1.2c0.9-1.5,1.7-2.9,2.6-4.4
		c0.3-0.5,0.3-0.9-0.1-1.4c-2-2.4-3.9-4.9-5.9-7.4c-0.4-0.5-0.7-0.6-1.3-0.4c-1.5,0.6-3.1,1.1-4.7,1.6c-0.4,0.1-0.9,0.3-1.2-0.2
		c-1.1-1.4-2.2-2.7-3.3-4.2c4.1-1.3,8-2.5,12-3.7c5.1-1.6,10.1-3.2,15.2-4.7c1.5-0.5,1.1-0.5,2,0.6c0.7,0.9,1.4,1.9,2.2,2.8
		c0.6,0.6,0.6,1.1,0.1,1.9c-3.6,6.3-7.2,12.6-10.8,18.9C94,334.8,92.8,336.8,91.6,338.9z M99.3,315c-0.1-0.1-0.1-0.2-0.2-0.2
		c-3.3,1.1-6.5,2.2-9.9,3.3c1.6,2,3.1,3.9,4.7,5.9C95.7,320.9,97.5,318,99.3,315z"/>
	<path fill="#050404" d="M240.5,388.6c-1.7,0.2-3.5,0.3-5.2,0.5c-0.6,0.1-0.8-0.2-1-0.7c-0.7-1.4-1.4-2.8-2.1-4.3
		c-0.4-0.8-0.8-1-1.7-0.9c-3,0.3-6,0.6-9.1,0.9c-0.6,0.1-0.9,0.3-1,0.9c-0.4,1.6-0.8,3.2-1.2,4.8c-0.2,0.6-0.4,0.9-1.1,1
		c-1.6,0.1-3.2,0.3-4.7,0.4c-0.4-0.4-0.1-0.6-0.1-0.9c2.5-8.8,5.1-17.6,7.6-26.4c0.4-1.2,0.4-1.2,1.6-1.3c1.2-0.1,2.4-0.2,3.5-0.3
		c0.9-0.1,1.3,0.2,1.6,0.9c3,6,6.1,12,9.2,18c1,2,2.1,4,3.1,6.1C240.2,387.6,240.6,388,240.5,388.6z M229.5,378.6
		c-1.6-3.4-3.1-6.4-4.7-9.8c-1,3.7-1.8,7-2.8,10.5C224.6,379,226.9,378.8,229.5,378.6z"/>
	<path fill="#050404" d="M209.6,60.8c-1.7,0.4-3.4,0.3-4.9,0.6c-0.7,0.1-0.9-0.3-1.2-0.7c-1.4-2.1-2.9-4.3-4.4-6.4
		c-0.3-0.4-0.5-0.9-1-1.3c-0.6,0.7-1.1,1.4-1.7,2.1c-0.3,0.4-0.4,0.8-0.3,1.3c0.2,1.6,0.3,3.2,0.4,4.8c0.1,0.7-0.2,0.9-0.8,0.9
		c-1.2,0-2.4,0.2-3.5,0.3c-0.6,0.1-0.9-0.1-1-0.8c-0.2-3.1-0.6-6.3-0.8-9.4c-0.5-5.4-0.9-10.8-1.4-16.2c-0.1-1.2-0.1-1.1,1-1.3
		c1-0.1,2.1-0.2,3.1-0.3c1.1-0.1,1.1,0,1.2,1.1c0.2,2.7,0.5,5.4,0.7,8.2c0.1,1.4,0.2,2.9,0.4,4.3c0,0.2,0,0.4,0.3,0.6
		c0.8-0.8,1.4-1.8,2.1-2.8c0.9-1.2,1.8-2.4,2.7-3.6c0.3-0.4,0.6-0.8,1.2-0.9c1.8-0.1,3.7-0.3,5.6-0.4c0,0.6-0.4,0.9-0.7,1.2
		c-1.5,1.9-2.9,3.9-4.5,5.7c-0.6,0.7-0.6,1.1-0.1,1.9c2.4,3.3,4.8,6.7,7.1,10.1C209.1,60.2,209.3,60.5,209.6,60.8z"/>
	<path fill="#050404" d="M247.7,65.3c-6.1,0-10.7-4.2-10.7-9.8c0-6.4,4.3-11.2,10.1-11.2c6.1,0,10.8,4.4,10.8,10.1
		C257.9,60.5,253.5,65.3,247.7,65.3z M242.5,55.6c0,2.8,1.4,4.7,3.9,5.2c2.2,0.4,4.4-0.9,5.4-3.4c0.5-1.3,0.8-2.7,0.7-4.1
		c-0.1-2.3-1.5-4.1-3.6-4.6s-4.2,0.5-5.3,2.5C242.8,52.7,242.5,54.1,242.5,55.6z"/>
	<path fill="#050404" d="M289.1,71c-0.8,1.5-1.1,3-0.4,4.4c1,2.3,3.4,3,5.5,1.6c0.6-0.4,0.9-0.4,1.5,0c1.1,0.9,2.2,1.8,3.4,2.8
		c-2.5,2.1-5.1,2.9-8.1,2c-0.3-0.1-0.6-0.2-0.9-0.3c-6.3-2.4-8.4-7.9-5.4-13.9c0.9-1.7,1.9-3.3,3.4-4.5c2.8-2.2,5.8-2.8,9.1-1.4
		c3.4,1.4,5.6,3.9,5.9,7.7c0.2,2.7-0.8,5.1-2.1,7.5c-0.3,0.5-0.6,0.3-0.9,0.1c-1.2-0.6-2.3-1.3-3.5-1.9
		C294.1,73.7,291.7,72.4,289.1,71z M290.8,68.1c1.5,0.8,2.8,1.6,4.2,2.3c0.7,0.4,1.5,0.8,2.2,1.2c0.4,0.2,0.7,0.2,0.8-0.2
		c0.6-1.5,0.8-3-0.3-4.4c-1-1.3-2.4-1.8-4-1.4C292.3,65.9,291.5,66.8,290.8,68.1z"/>
	<path fill="#050404" d="M172.3,57.9c0.5,2.4,2,3.8,3.9,4c1.9,0.1,3.3-0.9,3.8-2.9c0.1-0.6,0.4-0.9,1-0.9c1.5,0,3-0.3,4.5-0.2
		c-0.3,4-3,7.3-8.6,8c-4.5,0.5-7.8-1.5-9.5-5.7c-1-2.5-1.5-5.1-1-7.9c0.8-3.8,3.5-6.5,7.4-7.1c4.6-0.7,8,1.1,10,5.4
		c0.5,1.1,0.9,2.2,1.2,3.3c0.2,0.9,0.2,1-0.8,1.2c-3.6,0.8-7.1,1.6-10.7,2.5C173.1,57.6,172.7,57.8,172.3,57.9z M179.1,52.9
		c0-0.6-0.2-1-0.4-1.4c-0.9-2-2.8-2.8-4.7-2.3c-1.8,0.5-2.9,2.4-2.7,4.5c0.1,0.7,0.4,0.9,1,0.7C174.6,53.9,176.8,53.4,179.1,52.9z"
		/>
	<path fill="#050404" d="M312.3,71.1c1.3,1,2.6,1.9,3.9,2.9c-0.2,0.8-1,1.3-1.3,2.1c0.6,0.2,1.1-0.1,1.5-0.1
		c3.2-0.1,5.6,1.2,7.4,3.7c1.2,1.8,1.3,3.8,0.3,5.7c-0.4,0.8-0.9,1.5-1.4,2.2c-2.4,3.3-4.9,6.5-7.3,9.8c-0.2,0.2-0.3,0.4-0.6,0.6
		c-1.4-1-2.7-2.1-4.1-3.1c0-0.6,0.4-0.9,0.7-1.2c2-2.6,3.9-5.3,5.9-7.9c0.6-0.7,1.1-1.5,1.5-2.4c0.6-1.4,0.3-2.8-1-3.7
		c-1.6-1.3-3.7-1.2-5.2,0.1c-0.9,0.7-1.6,1.6-2.3,2.5c-1.7,2.2-3.3,4.4-4.9,6.5c-0.3,0.4-0.5,0.9-1.1,1.2c-1.3-1-2.7-2-4.2-3.1
		C304.2,81.9,308.2,76.6,312.3,71.1z"/>
	<path fill="#050404" d="M266.4,49.1c1.5,0.5,2.7,1,4.1,1.5c0.4,0.2,0.5,0.3,0.4,0.8c-0.2,0.6-0.6,1.1-0.5,1.8c0.6,0,1-0.4,1.4-0.5
		c2.9-1,5.5-0.5,7.9,1.3c2,1.5,2.6,3.5,2.1,5.9c-0.1,0.7-0.3,1.3-0.6,1.9c-1.4,3.9-2.9,7.7-4.3,11.6c-0.3,0.7-0.5,1-1.3,0.6
		c-1-0.5-2.1-0.9-3.2-1.2c-0.7-0.2-0.8-0.5-0.5-1.2c1.2-3.2,2.4-6.4,3.5-9.5c0.2-0.6,0.4-1.3,0.6-1.9c0.4-1.3,0.4-2.6-0.7-3.5
		c-1.1-1-2.5-1.2-3.9-0.7c-1,0.3-1.8,1-2.3,1.9c-0.6,1.1-1.1,2.2-1.5,3.4c-1,2.6-1.9,5.1-2.8,7.7c-0.3,0.7-0.6,1-1.3,0.6
		c-1-0.4-2.1-0.8-3.2-1.2c-0.7-0.2-0.8-0.6-0.5-1.2c1.9-5,3.7-10,5.6-15C265.7,51.1,266,50.2,266.4,49.1z"/>
	<path fill="#050404" d="M159.8,54.4c-1.4,0.8-2.6,1.6-3.9,2.4c-0.3,0.2-0.6,0.1-0.8-0.1c-0.7-0.7-1.6-1.1-2.7-0.9
		c-1.4,0.3-2.8,0.8-3.8,1.9c-0.3,0.3-0.5,0.8-0.3,1.3c0.2,0.6,0.7,0.8,1.4,0.8c1.7,0.1,3.3-0.2,4.9-0.5c1.4-0.2,2.8-0.3,4.2-0.2
		c3.7,0.2,6.1,3.5,5.1,7.1c-0.5,1.6-1.3,2.9-2.7,3.9c-2.5,1.8-5.2,2.9-8.3,2.9c-2.6,0.1-4.8-1-6.5-3.2c1.3-1,2.8-1.7,4.2-2.5
		c0.3-0.2,0.5,0,0.8,0.2c2.1,1.8,4.8,1.7,6.9-0.2c0.8-0.7,1-1.5,0.6-2.2c-0.4-0.9-1.2-0.9-2-0.8c-1.8,0.2-3.6,0.4-5.4,0.6
		c-1,0.1-2.1,0.2-3.1,0c-4.1-0.6-6.2-4.8-4.1-8.4c0.3-0.5,0.7-1,1.1-1.4c2.7-2.3,5.8-3.4,9.4-3.4C156.8,51.6,158.4,52.6,159.8,54.4z
		"/>
	<path fill="#050404" d="M341.2,284.3c3.3,1.6,6.5,3.1,9.7,4.7c3.3,1.6,6.7,3.2,10,4.8c1,0.5,1,0.5,0.5,1.5
		c-0.5,1.1-1.1,2.1-1.5,3.2c-0.3,0.8-0.7,0.8-1.4,0.5c-6.1-3-12.1-5.9-18.2-8.8c-0.2-0.1-0.5-0.2-0.7-0.3c-0.7-0.4-1-0.3-1.4,0.5
		c-1,2.1-2,4.3-3.1,6.5c-1.3-0.6-2.5-1.2-3.7-1.7c-0.6-0.3-0.4-0.6-0.2-1c0.4-0.9,0.8-1.8,1.3-2.6c2.5-5.1,4.9-10.3,7.4-15.4
		c0.5-1.1,0.5-1.1,1.6-0.6c1,0.5,2.1,0.9,3,1.5c-0.1,1.2-0.9,2.1-1.3,3.1C342.7,281.4,342,282.8,341.2,284.3z"/>
	<path fill="#050404" d="M277.9,351.8c-2.6,1.1-5,2.1-7.5,3.2c0.2,0.5,0.4,0.9,0.5,1.3c2.7,6.2,5.4,12.5,8,18.7
		c0.5,1.1,0.5,1.1-0.7,1.6c-0.9,0.4-1.9,0.8-2.8,1.2c-1.2,0.5-1.2,0.5-1.7-0.6c-1.6-3.8-3.3-7.7-4.9-11.5c-1-2.3-2-4.6-3-7
		c-0.8-1.9-0.5-1.6-2.3-0.9c-1.7,0.7-3.4,1.5-5.1,2.2c-0.5,0.2-0.9,0.3-1.2-0.4c-0.3-0.9-0.7-1.8-1.2-2.7c-0.3-0.7-0.2-1,0.5-1.2
		c2.7-1.1,5.3-2.3,8-3.4c3.5-1.5,7-3,10.5-4.5c0.7-0.3,1.1-0.3,1.4,0.5C276.9,349.5,277.4,350.6,277.9,351.8z"/>
	<path fill="#050404" d="M127.3,334c1.3,0.9,2.5,1.8,3.8,2.6c0.7,0.4,0.5,0.8,0.2,1.3c-3.8,5.5-7.6,11-11.4,16.5
		c-0.3,0.4-0.6,0.8-1,1.4c3.8,2.6,7.6,5.2,11.4,7.9c-0.8,1.1-1.5,2-2.1,3.1c-0.5,0.8-0.8,0.7-1.5,0.2c-3.3-2.3-6.7-4.6-10-6.9
		c-1.5-1-3-2-4.5-3.1c-0.4-0.3-0.7-0.5-0.3-1.1c5-7.2,10-14.5,15-21.8C127.1,334.1,127.2,334.1,127.3,334z"/>
	<path fill="#050404" d="M94,340.9c6.3-6.8,12.4-13.5,18.6-20.2c1.4,1.3,2.7,2.5,4.1,3.8c-5.1,5.6-10.2,11.1-15.4,16.8
		c3.4,3.1,6.8,6.3,10.2,9.4c-1.1,1.2-2.1,2.3-3.2,3.4C103.6,349.8,98.9,345.4,94,340.9z"/>
	<path fill="#050404" d="M222.1,57c0.3,1.1,0.3,2,0.4,2.9c0.1,1.3,0.1,1.3-1.1,1.6c-1.8,0.4-3.6,0.5-5.3-0.1
		c-1.5-0.6-2.3-1.6-2.6-3.2c-0.2-1.4-0.2-2.9-0.2-4.3c0.1-2.5,0.1-4.9,0.2-7.4c0-0.8-0.2-1.2-1-1.1c-0.2,0-0.4,0-0.6,0
		c-0.6,0-0.9-0.2-0.8-0.8c0-0.8,0.1-1.6,0-2.5c0-0.7,0.2-1,1-1c1.5,0,1.5,0,1.5-1.4c0.1-2.5,0.1-2.5,2.3-3.7c1-0.5,2-1.1,3.1-1.7
		c0,1.8,0,3.4,0,5c0,2,0,2,1.9,2c1.9,0.1,1.7-0.1,1.6,1.7c0,0.8,0.3,1.8-0.2,2.4c-0.5,0.6-1.6,0.1-2.4,0.2c-1.1,0.1-1.1,0-1.1,1.1
		c0,2.9-0.1,5.8-0.1,8.7c0,2,0.5,2.4,2.4,2C221.4,57.1,221.7,57.1,222.1,57z"/>
	<path fill="#050404" d="M313.2,318.3c1.3-1.5,2.5-2.8,3.7-4.2c7,6.1,13.8,12.2,20.8,18.3c-1.3,1.4-2.5,2.8-3.7,4.2
		C327,330.5,320.2,324.5,313.2,318.3z"/>
	<path fill="#050404" d="M227.7,41.7c1.6,0.1,3.1,0.3,4.6,0.4c0.7,0.1,0.6,0.6,0.5,1c-0.2,2.1-0.4,4.2-0.6,6.3
		c-0.4,3.8-0.8,7.7-1.1,11.5c-0.1,1.2,0,1.2-1.4,1.1c-0.9-0.1-1.8-0.2-2.8-0.3c-1.2-0.1-1.2-0.1-1.1-1.4c0.2-2.4,0.4-4.8,0.7-7.2
		c0.3-3.3,0.6-6.6,0.9-9.8C227.5,42.8,227.6,42.3,227.7,41.7z"/>
	<path fill="#050404" d="M132.3,69.1c3.1-1.6,6.1-3.1,9.2-4.7c0.9,1.3,1.4,2.7,2.2,4.1c0.3,0.5,0.1,0.7-0.3,1c-1.3,0.7-2.7,1.4-4,2
		c-1.3,0.7-2.6,1.3-3.8,2c-0.7,0.4-1,0.2-1.3-0.4C133.6,71.7,133,70.5,132.3,69.1z"/>
	<path fill="#050404" d="M233.5,34.7c0.1,1.5-0.3,2.9-0.3,4.2c0,0.5-0.3,0.6-0.7,0.5c-1.5-0.3-3-0.1-4.5-0.5
		c-0.2-1.4,0.2-2.8,0.3-4.2c0-0.5,0.3-0.6,0.7-0.5C230.5,34.4,232,34.3,233.5,34.7z"/>
	<path fill="#050404" d="M229.8,355.6c0.3,1.3,0.3,2.5,0.4,3.7c0.1,0.6-0.1,0.9-0.8,1c-0.9,0-1.8,0.1-2.8,0.3c-0.6,0.1-1-0.1-1-0.7
		c-0.1-1.1-0.2-2.1-0.3-3.2c0-0.4,0.1-0.6,0.5-0.6C227.1,355.8,228.4,355.7,229.8,355.6z"/>
	<path fill="#050404" d="M222.1,360.9c-1.3,0.1-2.5,0.2-3.8,0.3c-0.5,0.1-0.7-0.2-0.8-0.7c-0.1-1.1-0.2-2.1-0.3-3.2
		c-0.1-0.5,0.2-0.6,0.6-0.7c1.1-0.1,2.2-0.2,3.4-0.3c0.4,0,0.6,0.2,0.6,0.5C221.9,358.2,222.2,359.4,222.1,360.9z"/>
	<path fill="#050404" d="M105.4,301.7c1,1.3,1.9,2.4,2.8,3.6c-1.1,0.9-2.1,1.6-3.1,2.5c-0.4,0.3-0.6,0.3-0.9-0.1
		c-0.7-0.9-1.3-1.7-2-2.5c-0.4-0.4-0.3-0.7,0.1-1C103.4,303.4,104.3,302.6,105.4,301.7z"/>
	<path fill="#050404" d="M109.7,314.5c-1-1.2-1.9-2.4-2.8-3.6c1.2-1,2.3-2,3.6-2.8c0.8,1,1.6,2.1,2.4,3c0.3,0.4,0.3,0.6-0.1,0.9
		C111.8,312.9,110.8,313.7,109.7,314.5z"/>
</g>
<g id="Layer_2">
	<g id="rosa">
		<path fill="#F180A1" d="M48.1,216c-0.1-38.9,11.7-73.7,35.8-104.4c2.4-3,4.9-6,7.5-8.8c2.6-2.7,6.7-2.6,8.9,0.2
			c1.7,2.2,1.6,5.2-0.2,7.4c-2,2.4-4.1,4.6-6.1,7c-15.7,19.4-26.2,41.2-31.2,65.7c-1.7,8-2.6,16.1-3,24.2
			c-0.3,6.9-0.1,13.7,0.5,20.6c1.2,13.9,4.3,27.4,9.3,40.4c0.2,0.6,0.5,1.1,0.6,1.8c0.4,3-1.3,5.8-4.1,6.6c-2.9,0.8-5.8-0.6-7-3.4
			c-1.1-2.8-2.1-5.6-3-8.4c-3.4-10.4-5.7-21-6.9-31.8C48.5,227.4,48.1,221.7,48.1,216z"/>
		<path fill="#F180A1" d="M377.1,213.3c-0.1,20.6-3.5,39.9-10.5,58.6c-0.2,0.6-0.4,1.2-0.7,1.7c-1.3,2.6-4.4,3.8-7.1,2.8
			s-4.3-3.8-3.7-6.7c0.2-0.8,0.5-1.6,0.8-2.3c4-10.9,6.8-22.1,8.3-33.7c1.2-8.9,1.5-17.8,1.1-26.7c-1.6-31.4-11.8-59.7-30.7-84.9
			c-2.9-3.9-6-7.6-9.3-11.2c-1.1-1.2-1.8-2.6-1.8-4.3c0.1-2.5,1.2-4.3,3.5-5.2c2.2-0.9,4.4-0.6,6.2,1c0.5,0.5,1,1,1.5,1.6
			c19.5,21.7,32.4,46.7,38.6,75.2C375.8,190.1,377.1,202.6,377.1,213.3z"/>
		<path fill="#F180A1" d="M187.8,90c0,31.8,0,63.5,0,95.3c0,0.5,0.1,1,0.1,1.5c0.2,2-0.5,3.6-2.2,4.6c-1.6,1-3.3,1-5,0
			s-2.4-2.6-2.2-4.6c0.1-0.7,0.1-1.3,0.1-2c0-30.3,0-60.6,0-91c0-0.6-0.1-1.1-0.1-1.7C181.7,91.4,184.7,90.5,187.8,90z"/>
		<path fill="#F180A1" d="M184.8,225.6c2.2,0,4.3,0,6.5,0c3.9,0,7.3,2.9,7.9,6.7c0.7,4.5,2.1,8.7,4.3,12.7c1.4,2.6,2.9,5.1,4.6,7.5
			c12,17.4,2.3,41.5-18.4,45.7c-16.6,3.4-32.7-7.9-35.2-24.7c-1.2-8.1,0.8-15.4,5.6-22c2.6-3.6,4.7-7.5,6.4-11.6
			c0.7-1.6,0.9-3.4,1.3-5.1c0.5-2,1.1-3.9,2.5-5.6c2.1-2.5,4.7-3.6,7.8-3.7C180.2,225.6,182.5,225.6,184.8,225.6z"/>
		<path fill="#F180A1" d="M183.8,220.9c-2.7,0-5.5,0-8.2,0c-1.8,0-2.9-0.8-3-2.2c0-1.4,1.2-2.4,3-2.4c5.5,0,10.9,0,16.4,0
			c0.2,0,0.4,0,0.6,0c1.4,0.2,2.3,1.2,2.3,2.4c0,1.3-1,2.1-2.5,2.2c-2.4,0-4.8,0-7.3,0C184.7,220.9,184.2,220.9,183.8,220.9z"/>
		<path fill="#F180A1" d="M183.8,197.7c2.9,0,5.8,0,8.7,0c1.4,0,2.2,0.7,2.4,1.7c0.2,1.1-0.3,2.1-1.3,2.5c-0.6,0.3-1.3,0.4-1.9,0.4
			c-5.3,0-10.6,0-15.9,0c-0.5,0-0.9,0-1.4-0.1c-1-0.4-1.7-1.3-1.7-2.3c0.1-1.1,0.9-2,2.1-2.1c0.8-0.1,1.6,0,2.5,0
			C179.4,197.7,181.6,197.7,183.8,197.7L183.8,197.7z"/>
		<path fill="#F180A1" d="M182.9,207.1c3.2,0,5.9,0,8.5,0c0.4,0,0.7,0,1.1,0c1.2,0.2,2,1.3,2,2.4c-0.1,1.2-1,2.1-2.2,2.2
			c-1.2,0.1-2.4,0-3.6,0c-4.3,0-8.6,0-12.8,0c-0.4,0-0.7,0-1.1,0c-1.4-0.1-2.4-1.2-2.3-2.6c0.1-1.3,1.1-2.2,2.5-2.1
			C177.8,207.2,180.6,207,182.9,207.1z"/>
	</g>
</g>
<g id="Layer_3">
	<g id="lila">
		<path fill="#8E68AD" d="M246.2,92.2c0,0.6-0.1,1.1-0.1,1.7c0,34.4,0,68.7,0,103.1c0,1.1,0.2,1.8,1.4,2.3c4.6,2.3,6.9,7.5,5.5,12.5
			c-1.3,4.9-6,8.2-11.2,7.9c-4.9-0.3-9.1-4.1-10-9.1c-0.8-5,1.9-9.9,6.7-11.9c1.3-0.6,1.4-0.6,1.4-1.9c0-34.9,0-69.8,0-104.8
			c0-0.6,0.1-1.1-0.2-1.7C241.9,91,244.1,91.3,246.2,92.2z"/>
	</g>
</g>
</svg>
