<?xml version="1.0" encoding="utf-8"?>
<!-- Generator: Adobe Illustrator 26.0.2, SVG Export Plug-In . SVG Version: 6.00 Build 0)  -->
<svg version="1.1" id="Layer_1" xmlns="http://www.w3.org/2000/svg" xmlns:xlink="http://www.w3.org/1999/xlink" x="0px" y="0px"
	 viewBox="0 0 2500 2500" style="enable-background:new 0 0 2500 2500;" xml:space="preserve">
<style type="text/css">
	.st0{fill:#030202;}
	.st1{fill:none;stroke:#F280A1;stroke-width:55.9289;stroke-linecap:round;stroke-linejoin:round;stroke-miterlimit:10;}
	.st2{fill:#F280A1;}
	.st3{fill:none;stroke:#9966CC;stroke-width:55.9289;stroke-linecap:round;stroke-linejoin:round;stroke-miterlimit:10;}
	.st4{fill:#9966CC;}
</style>
<g id="svart">
	<path class="st0" d="M576.2,442.8c20.1-13.7,39.2-26.8,58.4-39.8c6.3-4.3,13.1-7.7,20.4-10.1c12.4-4,24.7-3,36.8,1.4
		c32,11.6,63.3,56,64.3,90.2c0.5,16.5-5.2,30.4-16.1,42.4c-4.7,5.2-10.2,9.7-15.9,13.7c-16.8,11.6-33.6,23.2-50.4,34.8
		c-1.2,0.9-2.4,1.9-4.8,1.7C638.2,532.8,607.5,488.2,576.2,442.8z M620,447c2.1,3.2,3.7,5.7,5.4,8.1c16.6,24.1,33.2,48.2,49.8,72.3
		c1.2,1.8,2.5,3.5,3.6,5.3c1.3,2.1,2.7,3.1,5.1,1.3c10.3-7.5,21.6-13.8,30.9-22.7c8-7.7,11.8-17,8.3-28.1
		c-6.7-21.9-19-40.2-36.7-54.5c-10.7-8.6-23-8.9-35.2-2.3C640.6,432.2,630.8,439.4,620,447z"/>
	<path class="st0" d="M1216.3,256.6c-12.7,16.4-24.5,31.4-36.5,46.9c8.2,11.7,16.4,23.5,24.6,35.2s16.3,23.4,25.2,36.1
		c-10.3,0.9-19.2,1.6-28.1,2.6c-4.5,0.5-7.2-1-9.7-4.8c-8.7-13.3-17.8-26.2-26.7-39.3c-1-1.5-2.1-2.9-3.5-4.9
		c-5.3,4-8.7,9.5-12.4,14.5c-2.1,2.8-0.7,6.5-0.4,9.8c0.7,8.2,1.5,16.4,2.5,24.5c0.5,3.8-1.1,4.8-4.5,5.1c-7.3,0.5-14.6,1-21.9,2
		c-4.8,0.7-5.5-1.4-5.9-5.5c-1.6-20.3-3.5-40.7-5.4-61c-2.4-27.3-4.8-54.6-7.2-81.9c-0.2-2.4-0.3-4.9-0.5-7.3
		c-0.4-7.8-0.4-7.8,7.8-8.6c6.1-0.5,12.2-0.8,18.2-1.6c4.1-0.6,5.2,0.8,5.5,4.8c1.7,21,3.6,41.9,5.5,62.8c0.5,5.3,1.2,10.6,2,18
		c4.4-5.9,7.6-10.2,10.8-14.5c4.5-6.1,9-12.3,13.5-18.4c8.1-11,8.1-11.1,21.2-12.4C1198.3,257.8,1206.2,257.3,1216.3,256.6z"/>
	<path class="st0" d="M1391.6,341.2c0.2-38.5,24.9-65.5,60-65.3c36.6,0.1,63.4,25.6,63.3,60.2c-0.1,36.6-26.6,64.9-60.5,64.6
		C1425.6,400.4,1390.2,381.1,1391.6,341.2z M1452.9,374c6.4,0.2,12.9-2.5,17.7-8c11.6-13.4,14.8-29.2,9.8-46
		c-3.1-10.5-11.3-16.4-22.2-17.7c-10.9-1.3-19.7,3.2-25.9,12.1c-6.5,9.3-9,20.1-8.6,31.2C1424.3,362.9,1436,374.1,1452.9,374z"/>
	<path class="st0" d="M1086.3,357.6c-1.4,14.9-7.8,27.4-20.5,35.6c-15.7,10.2-33.1,13.7-51.6,9.7c-10.2-2.2-18.7-7.6-25.1-15.7
		c-15.5-19.6-20.5-42.2-15.6-66.3c4.7-23.2,24.1-38.6,48.2-40.6c24-2,42,8,53,29.4c3.8,7.3,6.5,15.1,8.3,23.1c1.3,5.8,1.4,6-4.3,7.3
		c-16.9,3.9-33.8,7.7-50.8,11.5c-5.3,1.2-10.6,2.6-16,3.6c-3.4,0.6-3.7,2.3-3,5.1c3.5,13.3,17.1,21.7,30.4,18.5
		c7.8-1.9,13-6.8,14.3-14.8c0.8-5.4,3.6-6.8,8.5-6.8c7.3,0,14.6-0.5,21.9-0.7C1084.6,356.5,1085.1,357,1086.3,357.6z M1048.4,326.8
		c-3.7-16.4-14.4-24.6-27.6-21.7c-14.1,3.1-20.1,14.4-16.6,31.8C1019,333.5,1033.7,330.2,1048.4,326.8z"/>
	<path class="st0" d="M1758.6,486.3c-14.2,12.8-29.9,17-47.8,12.3c-7.8-2-14.8-5.6-21.4-10.1c-20.7-13.9-28.6-33.8-22.3-57.9
		c4.1-15.9,12.1-30,24.3-41.1c35.9-32.6,83.2-4.3,89.8,26.7c2.2,10.4,1.5,20.6-1.7,30.7c-1.9,5.8-4.1,11.5-6.8,16.9
		c-4.9,9.9-4.1,8-11.7,3.9c-17.6-9.6-35.3-19.2-52.9-28.8c-2.6-1.4-5.1-3.3-8.1-3.9c-7.1,11.4-6.3,24.2,2.1,32.6
		c8.3,8.2,17.7,9.4,27.1,2.4c3.9-2.9,6-2.3,9.2,0.3C1744.9,475.6,1751.6,480.7,1758.6,486.3z M1749.6,439
		c8.1-14.5,5.6-27.7-6.2-34.5c-12.4-7.1-25-2.6-33.6,12.7C1723,424.5,1736.3,431.8,1749.6,439z"/>
	<path class="st0" d="M1765.1,530.1c21.5-28.6,42.3-56.4,63.2-84.2c8.3-11,8.3-11.1,19.4-2.7c3.9,2.9,9.4,5.3,10.9,9.2
		c1.7,4.4-5.2,7.4-6.7,12.5c3.5,1,6.7-0.2,9.8-0.4c18.8-0.9,33,7.1,43.3,22.4c7.1,10.5,7.6,21.7,1.8,33c-2.4,4.6-5.1,9-8.2,13.2
		c-14.2,19.1-28.5,38.1-42.8,57.1c-3.9,5.2-4,5.2-9,1.5c-6.6-4.9-13.1-9.9-19.7-14.8c0.7-3.6,3.1-5.6,4.9-7.9
		c11.4-15.4,23-30.8,34.5-46.2c3.5-4.6,6.9-9.3,9.1-14.8c2.9-7.3,1.5-13.8-4-19.2c-9-8.8-22.7-9.4-32.4-1.3
		c-5.7,4.7-10.1,10.6-14.6,16.4c-11.2,14.8-22.4,29.7-33.9,45.1C1781.7,543.3,1774,536.6,1765.1,530.1z"/>
	<path class="st0" d="M881.5,410.5c4.1,4.6,8.1,8.8,14,10.3c8.9,2.2,25.7-4.1,31.3-11.7c2.6-3.6,2.8-7.4,0.9-11.2
		c-1.6-3.4-4.9-4.5-8.5-4.1c-7.3,0.8-14.5,1.6-21.8,2.6c-9.4,1.2-18.8,1.7-28.3,1.4c-12.6-0.5-22.2-6-27.9-17.5
		c-5.9-11.9-4.9-23.6,2.4-34.6c1.8-2.8,4.1-5.4,6.7-7.5c14.7-11.8,31.6-18.1,50.3-19.4c13.9-0.9,24.5,5.5,33.6,17.1
		c-8.1,4.9-15.8,9.5-23.4,14.3c-2,1.3-3.1,0.4-4.7-0.8c-11.1-7.8-28.8-5.4-37.9,5c-4.8,5.5-2.8,11.6,4.5,12.6c7,1,14-0.7,20.9-1.3
		c7.3-0.6,14.5-1.8,21.8-2.6c7-0.8,14-0.1,20.9,1.4c14.2,3.2,24.8,19.8,22.7,35.3c-1.1,8-3.7,15.7-9.5,21.4
		c-18.8,18.8-41.4,27.7-68,23.6C870,443,860.8,436.6,854,426C863.5,420.7,872.4,415.7,881.5,410.5z"/>
	<path class="st0" d="M1587.5,329.8c4.4-1.8,7.6-3.2,10.9-4.3c18.6-6.2,34.9-1.7,48.9,11.3c8.8,8.1,11.6,18.4,9.1,30
		c-1.2,5.6-2.8,11.2-4.7,16.7c-7.8,21.4-15.8,42.8-23.8,64.2c-0.7,1.9-1,4.2-3.4,6c-9-3.3-18.4-6.8-27.8-10.3
		c-0.5-3.1,0.9-5.5,1.8-8c7.1-19.1,14.1-38.3,21.1-57.4c1.9-5.2,3.6-10.4,3.7-15.9c0.2-7.9-3.6-13.3-10.7-16.5
		c-10.8-4.8-23.3-1.4-29.9,8.4c-4.1,6.1-6.7,13-9.3,19.8c-6,15.9-12.1,31.9-17.8,47.9c-1.6,4.6-3.2,5.7-7.8,3.6
		c-6.3-2.9-13-5.3-19.6-7.3c-4.3-1.3-4-3.2-2.8-6.7c12.7-33.9,25.3-67.8,37.8-101.8c1.4-3.7,3-4.7,6.7-3.2
		c5.9,2.4,11.8,4.8,17.9,6.7c3.8,1.2,4.9,3,3.3,6.7C1589.9,322.6,1589,325.7,1587.5,329.8z"/>
	<path class="st0" d="M1284.1,216.1c0,12.7,0.2,24.3-0.1,35.8c-0.1,4.2,1,6.3,5.6,5.9c3.3-0.2,6.7,0.4,10,0.1c5.1-0.4,6.2,2,5.9,6.5
		c-0.3,4.6-0.4,9.2-0.1,13.7c0.3,4.7-1.9,6-6,5.4c-0.3,0-0.6,0-0.9,0c-4.8,0.3-10.8-2.5-13.9,0.9c-3.1,3.3-0.8,9.3-1,14.1
		c-0.5,13.4-0.5,26.8-1.3,40.2c-0.8,12.8,5.1,17.1,16.7,13c1.1-0.4,2.4-0.4,4.4-0.7c0.7,7,1.4,13.9,2.2,20.7c0.3,2.7-0.9,4-3.2,4.7
		c-12.3,3.5-24.5,4.6-36.8,0c-8.9-3.4-13.3-10.4-14.3-19.5c-0.7-5.7-0.7-11.6-0.6-17.3c0.1-16.5,0.4-32.9,0.6-49.4
		c0.1-8.3,0.6-8.1-7.8-8c-1.8,0-3.6,0.5-5.8-0.9c0-6.3,0.2-13-0.1-19.6c-0.2-4.1,1.5-5.5,5.4-5c1.8,0.2,3.7,0,5.5,0.1
		c2.7,0.1,3.9-1,3.9-3.7c-0.1-5.2,0.2-10.4,0.1-15.5c0-2.7,0.8-4.4,3.4-5.8C1265.2,226.7,1274.4,221.5,1284.1,216.1z"/>
	<path class="st0" d="M1366.5,263.5c0.4,12.7-1.7,24.4-2.7,36.2c-2,24.8-4.7,49.6-7,74.4c-0.8,7.9-0.7,7.9-8.5,7.2
		c-6.4-0.6-12.7-1.4-19.1-1.7c-4-0.2-5.1-1.8-4.7-5.7c2-19.7,3.8-39.3,5.7-59c1.5-15.4,3.2-30.8,4.6-46.3c0.8-8,0.7-8,9.1-7.2
		C1351.2,262,1358.4,262.7,1366.5,263.5z"/>
	<path class="st0" d="M785.7,450.8c-4.5-8.8-8.5-16.6-12.7-24.3c-1.8-3.4-0.6-4.8,2.4-6.3c15.4-7.8,30.9-15.6,46.2-23.6
		c3.3-1.8,5.3-2,7.1,1.9c3.7,7.9,7.9,15.6,12.1,24C822.5,431.9,804.5,441.2,785.7,450.8z"/>
	<path class="st0" d="M1361.7,247.2c-7.2-0.7-13.6-1.4-19.9-1.8c-3.5-0.2-4.9-1.5-4.5-5c0.7-6.9,1.4-13.9,1.9-20.8
		c0.2-2.5,1.1-4,3.9-3.7c8.5,0.8,16.9,1.4,25.4,2.2c3,0.3,3,2.4,2.8,4.6c-0.6,5.7-1.2,11.5-1.7,17.2
		C1368.9,247.7,1368.9,247.7,1361.7,247.2z"/>
	<path class="st0" d="M1246.7,2036.5c-431.1-0.1-782.3-350.9-779.6-785.2c2.7-430.7,354.7-778.7,787.1-775
		c427.6,3.6,777.3,353.3,773.2,788C2023.2,1691.7,1675.1,2036.8,1246.7,2036.5z M1247.2,531.3c-399.5,0.8-724.9,322.1-724.9,725
		c-0.1,402.3,324.6,724.9,724.8,725c400,0.1,724.9-322.3,724.9-724.8C1972.1,853.6,1646.8,532.1,1247.2,531.3z"/>
	<path class="st0" d="M1097.7,2153.7c-15.9,33.6-31.9,67.2-47.8,100.8c-3.5,7.4-3.6,7.4-11.5,5.7c-0.9-0.2-1.7-0.5-2.6-0.8
		c-6.4-1.7-15.4-0.4-18.6-5.5c-3.1-4.9-1.3-13-1.3-19.7c-0.1-30.2,0-60.4,0-90.7c0-3,0-6,0-9c-3.6,0.4-2.8,2.6-3.2,4.1
		c-7.7,34.5-15.4,69-23.2,103.5c-1.5,6.7-1.6,6.7-8.3,5.3c-5.4-1.1-10.7-2.3-16.1-3.6c-6.1-1.4-6.1-1.5-4.7-8.1
		c6.8-30.6,13.7-61.2,20.5-91.9c1.5-6.8,2.8-13.8,4.5-20.5c1-3.8-0.4-5.5-3.8-6.7c-11.9-4.5-23.8-9.3-35.6-13.9
		c-3.1,2.5-3.5,6-4.7,9.1c-13.2,33.4-26.3,66.9-39.5,100.4c-2.9,7.3-3,7.3-10.2,4.5c-5.7-2.2-11.3-4.5-17-6.8
		c-5.7-2.4-5.8-2.4-3.5-8.4c11.4-29.2,22.9-58.4,34.4-87.6c2.4-6.2,4.7-12.5,7.4-18.7c1.6-3.7,0.6-5.4-3-6.7
		c-10.8-4-21.5-8.6-32.3-12.6c-4.3-1.6-5.6-3.4-3.6-7.8c2.9-6.3,5.3-12.9,8.1-19.8c10.1,3.9,19.7,7.6,29.3,11.3
		c28.3,11.2,56.6,22.4,85,33.5c10.8,4.2,22.5,5.4,33.7,8.2c7.5,1.9,7.7,1.7,7.8,9.3c0.3,35.7,0.6,71.4,0.8,107.1c0,1.2,0,2.4,0,4
		c4.1-0.2,3.9-3.8,4.9-5.8c14.9-30.7,29.5-61.5,44.2-92.3c4-8.4,4-8.4,13.6-6.2c9.2,2.1,18.5,4.1,27.7,6.1c7.8,1.7,7.8,1.7,6.1,9.4
		c-6.9,30.9-13.8,61.9-20.7,92.8c-3.2,14.3-6.4,28.5-9.7,42.8c-1.4,6.2-1.5,6.2-7.7,5c-5.7-1.2-11.3-2.4-16.9-3.8
		c-5.6-1.4-5.8-1.6-4.4-7.5c7.5-33.6,15.1-67.2,22.6-100.8c0.4-1.8,0.5-3.6,0.8-5.4c1.2-0.7,1.4-1.9,1.5-3c0.1-0.9,0.1-2.4-0.2-2.5
		c-1.6-0.6-1.6,1.1-2.1,1.9C1097.9,2152.6,1097.8,2153.2,1097.7,2153.7z"/>
	<path class="st0" d="M1656,2194.9c-26.7,10.4-53.4,20.7-80,31c-5.1,2-10.2,3.9-15.4,5.8c-6.7,2.5-6.7,2.5-9.4-4.5
		c-10.3-26.7-20.7-53.4-31-80.1c-3.8-9.9-7.7-19.9-11.5-29.8c-12.4,4.2-24.9,6.1-37.2,9.4c-1.2,0.3-2.4,0.6-3.6,0.7
		c-4.4,0.5-5.3,2.8-4.3,6.9c3.4,13.6,6.5,27.2,9.8,40.9c5.5,23.4,10.8,46.9,16.7,70.2c1.2,5-0.4,6.5-4.6,7.4
		c-6.9,1.4-13.8,2.6-20.5,4.7c-4.7,1.5-5.9-0.4-6.8-4.2c-3.1-13.7-6.3-27.3-9.5-40.9c-5.4-23.1-10.9-46.2-16.4-69.4
		c-1.6-6.6-1.6-6.7-8.2-5.2c-10.7,2.5-21.3,5.1-32,7.6c-1.8-0.9-3.9,1.5-5.7-0.3l0.1,0.1c-0.6-0.6-1.9-5.9-2.9-8.6
		c-0.8-3.9-1.5-7.8-2.6-11.6c-1-3.8,0.3-5.2,4.1-6.1c22.6-5.1,45.1-10.6,67.6-15.9c13.3-3.1,26.8-5.7,40-9.5
		c10.2-3,19.9-7.4,29.9-11.2c25-9.6,50-19.2,74.9-29c5.7-2.3,6.2-2.6,8.6,3.5c1.9,4.8,3.5,9.8,5.7,14.4c2,4.1,0.7,5.8-3.3,7.3
		c-16.8,6.3-33.6,12.8-50.3,19.3c-6.5,2.5-13,5.1-19.9,7.9c3.3,8.6,6.6,16.7,9.5,25c1.5,4.3,3.6,4.6,7.4,3.1
		c17.5-6.9,35.2-13.7,52.8-20.5c11.1-4.3,11.1-4.3,15.4,6.9c1.7,4.3,3.3,8.5,5.4,13.7c-23,8.9-45.8,17.8-69.2,27
		c4.7,12.2,9.1,23.7,13.5,35.2c3.4,0.9,5.8-1.1,8.2-2c21.9-8.3,43.8-16.7,65.6-25.4c4.5-1.8,6.5-1.4,7.9,3.4c1.4,5,3.7,9.7,5.5,14.5
		C1662.2,2192.4,1662.1,2192.5,1656,2194.9z"/>
	<path class="st0" d="M2011.9,1922.1c-6,7-11.3,13.3-16.7,19.5c-4.5,5.2-4.5,5.2-9.8,0.7c-27.1-23.2-54.2-46.5-81.4-69.7
		c-2.8-2.4-5.2-5.1-9.8-7.3c-24.3,34.1-57.8,59.3-89,87.9c7.1,8,13.9,15.7,21.2,23.9c18.6-16.5,36.8-32.6,55.5-49.1
		c6,6.7,11.6,13,18,20c-18.6,16.6-37,32.9-55.5,49.4c8.7,9.8,17,19.1,25.7,29c21.2-18.7,41.9-37.1,62.9-55.7
		c6.5,5.5,11.2,12.2,16.8,18.1c1.6,1.7,1.3,3.2-0.4,4.6c-0.7,0.6-1.3,1.2-2,1.8c-27.2,24.1-54.3,48.2-82.4,73.1
		c-33.8-38.1-67.6-76.1-101.6-114.5c13.5-12.1,26.4-24.2,40-35.5c28.8-23.9,54.6-50.6,78.1-79.6c12.1-14.9,25-29.3,37.5-43.8
		c2-2.3,3.5-5,6.9-6.9c6.5,5.6,13.1,11.2,20.3,17.3c-10,11.7-19.7,23-29.8,34.8C1948.3,1867.5,1979.7,1894.4,2011.9,1922.1z"/>
	<path class="st0" d="M1609.3,2048.6c24.2-13.5,47.4-26.9,71-39.6c28.3-15.2,58.2,4,62.8,32.7c1.5,9.6-0.9,18.1-5.8,25.8
		c1,1.4,2.3,1.5,3.4,1.5c10.5,0,18,5.2,23.5,13.5c4,6.1,7.5,12.5,11.4,18.7c4,6.4,7.1,13.6,15.6,15.8c2.4,0.6,3.1,3,0.2,4.7
		c-8.4,4.9-16.9,9.6-25.4,14.5c-2.2,1.3-3.8,1-5.6-0.8c-4.7-4.9-8.6-10.3-12.1-16c-3.9-6.5-7.2-13.5-12.3-19.2
		c-5.9-6.7-10.4-8-18.7-4.5c-12.1,5-22.9,12.4-34.4,18.8c10.1,17.7,19.7,34.7,29.6,52.2c-8.9,5.1-17.6,10.1-27.2,15.6
		C1660.2,2137.8,1635.1,2093.8,1609.3,2048.6z M1670.4,2092.2c12.6-7.5,24.7-14,36-21.5c9.5-6.3,10.7-14.6,5.1-24.7
		c-6.1-11-14.6-15-24.9-10c-12.5,6.1-24.3,13.4-36.8,20.3C1656.9,2068.5,1663.3,2079.8,1670.4,2092.2z"/>
	<path class="st0" d="M575.9,1797.4c17.8,20.4,35,39.8,51.8,59.5c10.3,12.1,14.5,26,9.3,41.7c-5.5,16.5-17.4,26.2-33.9,30.1
		c-6.7,1.6-13.4,0.6-19.6-2.5c-0.4,0.6-1.1,1.2-1,1.6c3,13.6-3,23.7-12.6,32.3c-5.7,5.1-11.4,10.1-17,15.3
		c-3.7,3.4-6.3,7.2-7.1,12.4c-0.6,4.3-2.3,4.9-4.9,2c-6.4-7-12.5-14.2-18.8-21.2c-1.9-2.1-1.3-3.8,0-5.7c3.8-5.6,8.4-10.4,13.4-15
		c5.2-4.7,10.5-9.3,15.2-14.6c6.7-7.6,7.2-13.3,1-21.3c-7.8-10.1-16.4-19.5-24.9-29.5c-15.3,13.4-29.9,26.2-45.2,39.6
		c-6.9-7.8-13.5-15.2-20.8-23.5C498.9,1865,537.1,1831.5,575.9,1797.4z M576.4,1838.8c-10.6,9.3-20.5,18-30.8,27
		c9.3,10.3,18.1,20.4,27.2,30.3c4,4.3,9,7.6,15.3,6.9c16.4-2,24.6-20.7,14.5-33.6C594.6,1859,585.6,1849.4,576.4,1838.8z"/>
	<path class="st0" d="M712,2090.5c-0.2-4.1,0.9-10.8,2.8-17.2c5.6-19.4,15.3-36.5,29.6-50.8c21.7-21.8,50.5-26.7,78.1-13.3
		c5.2,2.5,10.3,5.3,15.1,8.6c25.5,17.3,36,44.5,28,74.2c-5.6,20.7-16,38.9-31.7,53.7c-19,17.8-46.2,26.5-75.2,12.6
		c-7.7-3.7-15.1-8-21.8-13.3C720,2131.7,712.3,2114.2,712,2090.5z M743.5,2091.3c-0.1,14.9,3.8,24.6,11.3,31.9
		c15.7,15.2,37.1,16.2,53.7,2c15.1-12.9,24.6-29.6,27.5-49.3c2.3-15.4-3.3-28.2-16.6-37.1s-27.5-10.7-41.3-2.1
		C756.7,2050.2,746.8,2070.9,743.5,2091.3z"/>
	<path class="st0" d="M585.7,2004.7c-0.2-5.4,0.2-11,1.9-16.2c11.5-34.6,32-60.9,68.5-71.1c15.1-4.2,30.2-2.1,44.2,5.7
		c9.2,5.1,17.3,11.4,24.6,18.8c16.6,16.6,23.7,36.9,18,59.4c-8.9,35.1-30.3,60.8-65.2,73.2c-16.2,5.8-32.4,3.9-47.8-4.3
		c-11.4-6.2-21.3-14.2-29.6-24C590.3,2034.1,585.4,2020.4,585.7,2004.7z M616.6,2006.9c0.2,5,0.4,8.9,1.7,12.7
		c7.9,23.7,34.4,34.6,56.4,22.3c17.6-9.9,29.7-25,36.6-44c2.3-6.3,3.2-12.9,1.8-19.8c-5-25.1-31.8-39.6-54.8-28.5
		c-20.7,10-33.9,27.2-40.8,49.2C616.7,2001.7,616.8,2004.9,616.6,2006.9z"/>
	<path class="st0" d="M1386.4,2145.2L1386.4,2145.2L1386.4,2145.2L1386.4,2145.2z"/>
	<path class="st0" d="M1377.4,2271.3c-8.3,4.8-17.4,7.5-26.8,8.7c-14.9,1.9-29.8,2.4-44.3-3c-16.3-6.1-27.1-17.1-30.6-34.6
		c-1.4-6.6-1.3-6.8,5.1-7.4c6.7-0.6,13.4-1.1,20-1.9c3.3-0.4,4.9,0.7,5.9,3.9c3.9,13.2,13.8,17.7,26.6,17.9c8,0.2,15.8-1.1,23.4-3.6
		c3.5-1.2,6.6-3.1,9.3-5.6c6.9-6.2,7.9-21.6-5.1-26c-8.2-2.8-16.6-3.8-25.1-4.9c-10.9-1.4-21.8-2.4-32.5-5.2
		c-29.4-7.6-41.7-38.9-25.5-64.8c5-8,11.8-14.1,20.4-17.8c17.6-7.6,35.8-9.8,54.5-5.2c10.5,2.6,19.9,7.7,27.3,15.9
		c3,2,6.5,10.3,8.2,14.2c3,13.5,4.9,12.6-9.8,13.5c-2.4,0.1-4.9,0.5-7.3,0.7c-3.3,0.3-6.9,1.3-9.9,0.5c-3.2-0.9-2.3-5.2-3.9-7.8
		c-3-5-7-8.4-12.5-10.1c-11.3-3.4-22.3-2.5-33,2.2c-2.8,1.2-5.3,3.1-7.2,5.5c-6.8,8.1-4.2,19.5,5.6,23.3c5.7,2.2,11.8,3,17.8,3.9
		c12.4,1.8,24.7,3.6,37.1,5.5c5.1,0.8,10.1,2.4,14.8,4.6c9.7,4.4,16.1,11.8,19.3,21.9C1406.2,2237.5,1397.5,2259.8,1377.4,2271.3z"
		/>
	<path class="st0" d="M1265.5,2284c-10.3,0.7-20.6-1.4-30.8-1.4c-2.7,0-3.5-1.7-4-4c-1.8-7.4-3.9-14.7-5.6-22.1
		c-1-4-2.7-6.2-7.3-6.4c-14.9-0.5-29.9-1.3-44.8-2.3c-4.6-0.3-6.4,1.6-7.8,5.5c-2.4,6.9-5.4,13.6-7.7,20.5c-1.3,3.8-3.5,5-7.5,4.6
		c-8.8-0.8-17.6-1.2-26.4-1.7c-2-2.6,0.2-4.7,1-6.7c19-45.9,38.2-91.6,57-137.5c2-4.9,4.6-6.3,9.5-5.8c7.6,0.8,15.2,1.4,22.8,1.2
		c5.8-0.2,7.8,2.5,9.2,7.5c7.9,27.5,16,54.9,24,82.4c5.7,19.6,11.4,39.2,17.2,58.7C1265,2278.8,1265.9,2281.1,1265.5,2284z
		 M1177.3,2222.4c7.6,0,13.7,0,19.7,0c6.2,0,12.3,1.7,19.1,0.6c-5.2-19.9-10.2-38.8-15.8-60
		C1192.3,2183.8,1185.1,2202.3,1177.3,2222.4z"/>
</g>
<g id="rosa">
	<polyline class="st1" points="1245.3,672.9 1248.4,1539.8 1170.8,1617.4 1170.8,1735.5 	"/>
	<polyline class="st1" points="1323,1253.9 1326.1,1502.5 1441.1,1605 1518.8,1605 	"/>
	<polyline class="st1" points="1170.8,1036.4 1093.1,958.7 1090,828.2 	"/>
	<polyline class="st1" points="1015.4,1502.5 1093.1,1502.5 1170.8,1424.8 1170.8,1036.4 	"/>
	<polyline class="st1" points="1326.1,1850.5 1326.1,1735.5 1248.4,1657.8 	"/>
	<polyline class="st1" points="1441.1,1098.5 1556.1,983.6 1658.6,983.6 	"/>
	<polyline class="st1" points="1248.4,1135.8 1400.7,983.6 1400.7,865.5 	"/>
	<circle class="st2" cx="975" cy="1502.5" r="43.5"/>
	<circle class="st2" cx="1170.8" cy="1754.2" r="43.5"/>
	<ellipse class="st2" cx="1326.2" cy="1856.7" rx="43.5" ry="43.5"/>
	<circle class="st2" cx="1531.2" cy="1605" r="43.5"/>
	<polyline class="st1" points="959.5,905.9 959.5,865.5 919.1,828.2 	"/>
	<line class="st1" x1="1052.7" y1="1073.7" x2="959.5" y2="983.6"/>
	<line class="st1" x1="1478.4" y1="787.8" x2="1400.7" y2="865.5"/>
	<polyline class="st1" points="959.5,983.6 841.4,983.6 763.7,905.9 	"/>
	<line class="st1" x1="1658.6" y1="983.6" x2="1736.3" y2="905.9"/>
	<g>
		<path class="st2" d="M2221.8,1286.9c1.1,15.8-0.8,37.2-2.2,58.4c-4.9,74.7-18.3,147.9-40.1,219.6
			c-18.7,61.5-43.9,120.2-73.7,177.1c-9.9,18.9-30.4,24.5-46.3,17.2c-15.6-7.1-25.3-27-17.1-44.6c3.2-6.9,6.8-13.6,10.4-20.4
			c34.4-66.4,59.8-136.1,76.7-208.9c7-30,12.3-60.2,15.9-90.8c2.5-20.9,4.2-41.8,5.7-62.7c2.1-30.2,2-60.4,0.8-90.6
			c-0.9-24.6-3.3-49.2-6.4-73.6c-5.2-41.5-13.3-82.3-24.1-122.7c-13.5-50.2-31.4-98.7-53.3-145.8c-19.6-42.2-42.5-82.4-68.3-121
			c-22.4-33.5-47-65.4-73.9-95.4c-2.9-3.2-5.3-6.7-8.4-9.6c-11.7-10.9-12.9-35.6,1.4-48.7c13.9-12.7,35.2-12.7,48.6,1.4
			c21.4,22.6,40.9,46.9,59.6,71.8c37.6,49.9,70.1,102.8,97.3,159c35.6,73.6,61.9,150.4,77.8,230.6c6.4,32.3,11.6,64.7,14.6,97.4
			c1.7,18.2,2.8,36.4,3.8,54.7C2221.3,1253.3,2221.4,1267.3,2221.8,1286.9z"/>
		<path class="st2" d="M278.2,1281.1c0-16.2-0.8-32.4,0.2-48.5c1.5-24.3,3.5-48.5,6.5-72.7c4.4-35.4,10.6-70.4,18.9-105.1
			c14.9-62.4,35.9-122.8,62.8-181.1c31.2-67.6,69.9-130.6,115.4-189.5c15.7-20.3,32.3-39.8,49.6-58.7c11.8-12.9,33.5-14.6,46.6-3.9
			c14.5,11.8,17.8,31.6,7,46.7c-5.7,7.9-12.6,14.9-18.9,22.3c-39.9,46-74.6,95.6-104.6,148.7c-27.4,48.5-49.9,99.1-67.8,151.8
			c-14.5,42.7-25.8,86.4-33.5,130.9c-5.4,31.2-9.5,62.5-11.5,94.2c-1.4,23.1-3.3,46.3-2.8,69.4c0.9,38.6,3.2,77.2,8.3,115.6
			c11.1,84.3,34,165.1,67.9,242.9c9.1,21,19.4,41.4,29.9,61.7c4.1,7.9,5.6,16,3.5,24.7c-3.4,13.7-12.1,22.8-25.7,25.7
			c-13.4,2.9-25.5-0.6-34.5-11.7c-1.7-2.1-3.1-4.5-4.4-6.9c-32.3-60.8-58-124.2-76.8-190.5c-10.4-36.7-18.8-73.8-24.8-111.4
			c-3.6-22.5-6.3-45.2-8.3-67.9C278.7,1339,277.5,1310.1,278.2,1281.1z"/>
	</g>
	<path class="st0" d="M1750.1,1961.4c7.3,10.1,14.3,19.7,21.2,29.3c21.6,29.9,43.1,59.8,64.6,89.7c3.8,5.3,3.8,5.4-1.2,9
		c-6.8,5-13.7,9.8-20.3,14.5c-2.7-1.2-3.6-3.3-4.8-5c-27.1-37.5-54.2-75.1-81.3-112.6c-4.4-6.1-4.4-6.2,1.4-10.4
		C1736.4,1971.3,1743.1,1966.5,1750.1,1961.4z"/>
	<path class="st0" d="M1196.8,2088.5c0.3,1.5,0.6,2.1,0.6,2.7c-0.6,6.9-1.2,13.8-1.8,20.7c-7.5,1.6-14.9-0.2-22.4,0
		c-3.8,0.1-4.6-1.9-4.2-5.2c0.4-3,0.6-6,0.8-9c0.7-11.1,0.7-11.1,12.4-10.2C1186.9,2087.9,1191.7,2088.2,1196.8,2088.5z"/>
	<path class="st0" d="M1237.9,2090.6c0,7.3-0.1,13.6,0,20c0.1,3.6-1.4,4.9-4.9,4.6c-6.1-0.5-12.2-0.9-18.3-1c-3-0.1-4.5-1-4.2-4.2
		c0.4-5.2,0.6-10.4,0.7-15.5c0.1-3.7,1.3-5.5,5.5-5.1C1223.7,2090,1230.7,2090.2,1237.9,2090.6z"/>
</g>
<g id="lila">
	<line class="st3" x1="1813.9" y1="1331.6" x2="1425.6" y2="1331.6"/>
	<line class="st3" x1="1074.4" y1="1331.6" x2="686.1" y2="1331.6"/>
	<circle class="st4" cx="1577.8" cy="884.2" r="43.5"/>
	<circle class="st4" cx="1090" cy="731.9" r="43.5"/>
</g>
</svg>
