<svg xmlns="http://www.w3.org/2000/svg" xmlns:xlink="http://www.w3.org/1999/xlink" viewBox="0 0 5747 5747"><defs><style>.cls-1,.cls-13,.cls-14,.cls-3{fill:#fff;}.cls-1,.cls-11,.cls-13,.cls-14,.cls-6,.cls-7{fill-rule:evenodd;}.cls-10,.cls-2,.cls-4{fill:none;}.cls-10,.cls-4{stroke:#fff;}.cls-4{stroke-width:10px;}.cls-5,.cls-6{fill:#f280a1;}.cls-7{fill:#d9708e;}.cls-8{mask:url(#mask);}.cls-9{fill:#ececec;}.cls-10{stroke-width:10px;}.cls-11{fill:#83609a;}.cls-12{mask:url(#mask-2);}.cls-13{stroke:#979797;isolation:isolate;opacity:0.41;}.cls-14{fill-opacity:0.5;}</style><mask id="mask" x="1404.51" y="1578.71" width="1518.38" height="1255.02" maskUnits="userSpaceOnUse"><g id="mask-8"><path id="path-7" class="cls-1" d="M2325.17,1792.62c25.81,6.48,122.54,32.45,182.77,128.55,53.49,85.49,44.27,172,40.66,197.14,16.94,2.17,137.81,19.7,203.22,127.84,47.18,77.92,37.1,155.94,33.61,180.37-20.67,144.15-145.33,217.55-163,227.57,4.08,16.59,11,56.79-8.93,97.73-35.71,73.69-129.71,89.43-157.15,79a189.82,189.82,0,0,1-19.54-6.82c-10.95-4.68-21.73-9.13-39-8.12-12.7.82-25.66,4.42-47.33,2.05-14.91-1.79-22.45-2.5-24.72-6.84-9.34-17.95,72.59-61.44,63-96-5-17.82-36.12-42.67-44.24-47.53a8.57,8.57,0,0,1-1.19-.89c-16.85-11.61-41.26-1.24-52.29,3.62-60.93,26.85-120.9,109.4-170.43,96.35-3.76-1-19.93-5.27-25.43-18.1-17.76-41,107.53-90.91,122.72-195.29,6.31-43.45-4.84-107.63-36.37-120.31-73.14-29.51-267.47,205.41-308.1,199.34-12.86-1.9-18-9.24-18-9.24-6.16-8.78-2.54-21.19-1.3-25.42,11.35-38.7,97.93-87.89,97.93-87.89,16.68-11.15,173.52-101.12,156.08-196.26-5.24-28.65-24.55-48.95-32.61-57.46-29-30.42-84.46-84.47-155.74-13.19-49.22,49.22-84.14,144.09-114.11,114.11-21.61-21.6,51.88-67.28,56.68-127.9,3-37.42-37.27-71.86-47-78.32-38-25.28-81.7,6-119.6,41.44-49.11,45.92-69.43,57.41-81.73,48.74-19.36-13.64-60.47,64.21-81.33,86.6-1.65,1.77-120.58,63.88-127.88,6.22s124.7-97,156.6-145.42c59.79-90.8,44-115.55,145.67-183.08,89.12-59.2,113.28-146.79,187.93-187.93,152.76-84.2,247.39-19.5,251.62-17A319.12,319.12,0,0,1,2325.17,1792.62Z"/></g></mask><mask id="mask-2" x="2954.63" y="1739.16" width="1238.5" height="1113.06" maskUnits="userSpaceOnUse"><g id="mask-16"><path id="path-15" class="cls-1" d="M3170.87,2010c19-19.58,91.55-92.09,207.67-96.3,103.25-3.67,175.3,48.84,195.73,64.9,10.61-13.91,88.08-112.17,217.52-114.81,93.3-2,157.35,47,177.24,62.57,117.3,92.17,118.58,240.37,118.4,261.2,16.81,4.88,56,19.33,82.13,58,47.09,69.44,12.9,160.89-10.39,179.9a194.4,194.4,0,0,1-16.07,13.85c-9.76,7.31-19.23,14.59-27.18,30.44-5.77,11.68-9.22,25-22.42,43-9.22,12.32-13.72,18.65-18.74,18.44-20.7-.92-17.32-95.88-52.87-105.07-18.36-4.71-56.36,10.2-64.83,14.91a9.08,9.08,0,0,1-1.4.6c-18.93,9-22.24,36-23.58,48.25-7.39,67.81,35.13,163.29-1.82,200.56-2.81,2.81-14.88,15-29.08,13.29-45.44-5.23-25.58-142-110.4-208.92-35.32-27.85-98-50.83-125.37-29.35-63.64,49.77,45.23,342.51,19,375.45-8.27,10.44-17.42,11.25-17.42,11.25-11,1-20.11-8.6-23.22-11.87-28.53-29.88-27.82-131.9-27.82-131.9-1.35-20.51-.83-205.75-94.17-239-28.11-10-56-3.29-67.68-.5-41.86,10.17-47.83,33.09-81.38,51.3-84.26,45.73-108,6.59-174.13,37.17-48.73,22.54,1.31,136.34-13.12,155.43a52,52,0,0,1-12.48,11.89,41,41,0,0,1-18,6.08c-10.53-.45-22.84-60.43-40.64-117.65-5.39-17.35-4.62-38.52-11.72-53.61-5-10.58-13.27-20.15-19.76-24.24-68.26-41-108.35-116-103.39-193.92,7-109.8,99.49-164.9,106.66-169A327,327,0,0,1,3170.87,2010Z"/></g></mask></defs><g id="Layer_2" data-name="Layer 2"><g id="Layer_2-2" data-name="Layer 2"><rect id="Rectangle" class="cls-2" width="5747" height="5747"/><path class="cls-3" d="M237,2810.16c6.76-14.6,8-30.42,8.85-46,9.23-170,37.74-337,80.94-501.49C366.59,2111,420.5,1964.37,486.68,1822.1c54.25-116.63,117.18-228.27,187.67-335.62,63.2-96.24,132.29-188.2,208.67-274.52,17-19.21,33.38-39,50.92-57.67,26.39-28.14,58.58-40.22,96.64-29.31,38.64,11.08,61.84,37.31,68.48,77,5.14,30.7-5.36,56.74-25.93,79.57-56.51,62.74-110.75,127.36-161.16,195.16q-217.89,293.05-341.11,636.8C515,2269.17,476.19,2429,452.67,2592.42c-13.44,93.33-21.53,187.23-22.65,281.77-.74,62-.09,124,1.46,186C433,3123,439.57,3185.62,447.56,3248c17.08,133.25,44.19,264.43,83,393.09,15.79,52.3,33,104.14,52.17,155.34,9.54,25.53,19.64,50.77,12.52,79.45-9,36.23-40.88,67-77.1,71.74C477.3,3953,440,3935.5,422,3900.73c-8.72-16.84-15.42-34.81-22-52.66a2602.93,2602.93,0,0,1-132.08-518.84c-10.32-70.35-19-141-22.05-212.16-.77-18.05-2.06-36.36-8.91-53.55Z"/><path class="cls-3" d="M5522.45,2989c-4.87,10.12-4.14,21-4.08,31.71,1,169.77-24.64,336.34-60.66,501.61-25.79,118.28-61.72,233.57-103.42,347.17-14.11,38.41-36.51,66.08-78.64,74.49-61.57,12.3-120.3-44.91-109.25-106.93,3.66-20.55,12.4-39.47,19.54-58.84,61.52-166.92,102.87-338.83,126.35-515,8.42-63.08,13.2-126.57,17.36-190.17,4.92-75.35,5.38-150.66,2.51-225.8a2455.45,2455.45,0,0,0-36.2-337.72c-32-179.21-82.41-353-153.14-520.63q-135-320-353.56-590.22c-31.25-38.58-63.12-76.61-97.3-112.69-18.7-19.74-30.4-42.46-30.13-71.17.39-42.19,19.49-71.4,57.68-87.19,37.28-15.41,72-8,101,19.5,31.26,29.62,58.08,63.46,85.79,96.35A2600.56,2600.56,0,0,1,5150.76,1587q166.86,279.65,260.53,591.6a2599.85,2599.85,0,0,1,84.85,385.15c13.64,95.81,24.41,192,22.27,289.18-.28,12.32-1.5,24.93,4,36.69Z"/><path class="cls-3" d="M2840,5711.31c-11.74-3.92-23.47-7.88-35.23-11.73-59.85-19.58-90.44-63.84-103-122.87-3.28-15.36-.81-19.09,15.19-22,19.49-3.52,39.28-5.37,59-7.74,9.58-1.16,15.86,3.19,18.77,12.39,1,3.16,1.88,6.36,3,9.46,19,51.43,49.5,58,89.67,59.68,10.6.44,21.53-1.63,32-4,17.54-4,32.1-13.38,42.08-28.64,15.2-23.23,8-49.88-16.5-62.94-13.32-7.1-27.88-10.29-42.32-13.93-36.07-9.11-72.77-16-107.55-29.77-33.75-13.38-60-35.27-74.68-68.85-26.13-59.77.68-128,61.48-156.24,37.6-17.46,77.75-22.67,118.76-19.15,22.18,1.9,44.47,4.71,65.39,13.47,44.64,18.69,72,51.63,81.25,99.17,3.56,18.31.28,23.78-17,25.42-21.39,2-43,2.12-64.46,3.09-8,.36-11.88-4.19-14.17-11.21-7.29-22.3-18.95-40.74-43.78-46.32-30-6.75-59.56-6-86.66,9.75-24.42,14.18-24.35,40.29-.55,56.07,14,9.27,30.33,13,46.29,17.34,31.91,8.71,64.81,13.48,96.14,24.55,20.38,7.2,40.27,15.31,57.15,29.24,69.68,57.54,59.71,172.07-19,218.19a170.14,170.14,0,0,1-48.36,18.95c-9.67,2.22-19.49,3.91-28.4,8.62Z"/><path class="cls-3" d="M3143,48.11c19.76,6.7,40.85,2.92,60.91,7.9,15.89,4,17.41,4.74,16.25,21.21-1.1,15.58-2.67,31.13-4.24,46.67-1,10.3-5.38,16.23-17.36,15.85-20.62-.67-41-3.37-61.36-5.93-10.45-1.32-14.34-8-12.86-17.32,3.62-22.71,1.11-46.2,8.72-68.38Z"/><path class="cls-3" d="M2883.18,756.82c1150.52-4,2117.29,930.38,2117.16,2117.26-.12,1174.08-949.66,2118.64-2120.35,2117.47C1710.34,4990.37,761.83,4044.8,764.05,2869.67,766.29,1684.53,1732.86,751.8,2883.18,756.82Zm-1.43,4079.33c1066.1,3.6,1960.91-858.63,1963.07-1958.83C4847,1795.26,3978.12,911.6,2883.9,910.62c-1093.15-1-1963.3,879.69-1964.32,1960.83C918.54,3973.92,1813.86,4839.22,2881.75,4836.15Z"/><path class="cls-3" d="M1583.35,4878.83c-9,1.83-12.19,10.26-17.63,16-12.44,13.21-14.47,14-28.52,2.45-33.25-27.31-66-55.16-99.07-82.75-19.05-15.92-38.4-31.48-57.16-47.73-9-7.76-15.58-6.83-22.75,2.17-12.37,15.53-24.82,31.05-38.1,45.79-9.14,10.15-6.31,16.48,3.15,24.27q63.21,52.11,125.65,105.13c37.6,31.88,33.59,23.85,5.34,57.95-27.2,32.82-20.57,34.57-56.41,4.91-40.79-33.77-81.15-68.05-121.9-101.88-17.54-14.56-18.52-14.5-33.67,3s-29.84,35.45-44.43,53.44c-12.51,15.43-12.58,17.07,2.6,30,32.8,27.84,66,55.16,99,82.79,20.3,17,40.28,34.39,60.75,51.17,9.54,7.83,11.21,15.32,2.71,25-10.38,11.79-20.42,23.91-30.27,36.16-7.46,9.28-14.84,8.44-23.23,1.39-16.47-13.84-33.23-27.33-49.74-41.12q-88.56-74-177-148.16c-1.91-1.6-3.85-3.14-5.72-4.78-17.27-15.16-17.67-16.31-3.28-33.69q57.77-69.8,116-139.18,66.07-79,132.26-158c2.13-2.54,4.34-5,6.52-7.5,19.42-22.27,19.55-22.43,43-2.87q77.27,64.32,154.28,128.94c44.33,37.19,87.07,76.54,138.92,103.58,14.43,7.52,18.82,19,18.64,34.58-.45,37.23.15,74.48.38,111.72a158.91,158.91,0,0,0,.72,17.33c.75,6.44,5,8.22,10.65,5.89,6.1-2.52,12-5.49,17.91-8.51,33.11-17,66.36-33.8,99.16-51.41,12.36-6.64,22.67-6.48,34.54,1.4,20,13.26,41.08,24.8,61.31,37.71,12,7.65,11.67,11.69-1.25,18.74s-26.66,13.27-40,19.79c-50.59,24.64-100.92,49.81-151.91,73.57-16.72,7.78-23,18.21-22.16,36.52,3.55,73.52,6,147.09,8.87,220.64.16,4.13.52,8.32,0,12.38-1.5,11.84-6.13,15-16.56,8.95-24.35-14.05-48.13-29.12-72.07-43.88-8.84-5.45-10.46-14.35-10.57-23.78-.26-21.51-.14-43-.8-64.54q-1.21-39.68-3.55-79.31c-.76-12.86-3.67-14.73-15.52-9.07-39.56,18.9-79.37,37.43-118,58-19.3,10.28-34.83,10.11-52.41-3-15.85-11.82-33.79-20.81-50.56-31.44-5.25-3.33-13.4-5.35-12.35-13.66.84-6.66,8-7.72,13-10.11q95.28-45.27,190.67-90.3c46.48-21.95,39.59-14.52,39-62.27-.7-52.92-2.84-105.83-4.54-158.75C1587.07,4887.92,1588.87,4882.42,1583.35,4878.83Z"/><path class="cls-3" d="M2213.5,5305.35c-7.49,4.57-10.71,12.45-15.24,19.11q-75.36,110.94-150.5,222c-14.18,20.88-14.33,20.85-38,12.44-14.81-5.25-29.51-10.86-44.36-16-11.79-4.1-17.15-11.83-15.9-24.48,2.53-25.52,4.41-51.11,7.09-76.61,7.36-69.93,15-139.83,22.45-209.75a19.88,19.88,0,0,0-3-13.27c-5.68,15.07-11.48,30.1-17,45.24q-40,109.64-79.91,219.31c-8.93,24.45-9.11,24.49-33.69,15.77-13.26-4.71-26.5-9.48-39.57-14.69-18-7.18-19.2-9.48-12.75-27.67,11.89-33.54,24.32-66.9,36.51-100.34q48.92-134.13,97.83-268.28c2.27-6.22,5-12.28,7.11-18.55,3.69-11,10.9-13.54,21.33-9.73,33.43,12.21,66.82,24.52,100.37,36.39,14.13,5,15.23,15.7,14.08,28q-5.88,63-11.66,126c-4.36,47.68-8.65,95.37-13.19,145.6,10.09-3.64,12.67-10.89,16.54-16.45,46.4-66.55,92.52-133.3,139-199.78,16.85-24.08,17.29-24,44.49-14.26,28,10.05,56.07,20.18,83.87,30.89,18.42,7.1,19.24,8.95,12.56,27.53q-34,94.65-68.59,189.08-33.61,92.15-67.45,184.21c-2,5.44-4,10.88-6.28,16.2-3.55,8.25-9.86,10.75-18.2,7.77-18.69-6.69-37.38-13.41-56-20.32-9.53-3.54-12.13-10.31-8.61-19.81,3.15-8.54,5.79-17.27,8.9-25.82q43.26-119,86.49-238.06C2213.43,5313.59,2217,5310,2213.5,5305.35Z"/><path class="cls-3" d="M4091.57,5157.91c79.45,11.7,139.7,58,205.61,91.81,12.41,6.36,12.09,11.5-.62,18.92-22.85,13.34-46.43,25.46-69.28,38.82-11.06,6.46-20.31,3.21-30.29-1.9q-50.81-26.06-101.86-51.59c-13.31-6.68-26.84-12.91-40.18-19.53-30.16-15-59.1-12.07-87.29,5.39-14.18,8.77-15.21,10.45-7.06,25.34,21.46,39.19,43.35,78.13,65.09,117.16,1.61,2.9,3.44,5.67,5,8.6,9.46,18.15,8.89,20.37-9.35,31q-19.29,11.25-39,21.86c-24.42,13.18-24.66,13.15-37.94-10.38q-28.65-50.81-56.92-101.82-68.2-122.52-136.28-245.12c-12.54-22.64-12.28-22.9,10.48-35.59,52.74-29.42,105.38-59,158.39-88a463.12,463.12,0,0,1,49.48-22.92c80.34-32.23,135.66,15.07,159.9,67.09,20.46,43.92,15.3,85.26-14.37,123.45C4108.55,5139,4101.22,5146.74,4091.57,5157.91Zm-44.86-79.69c.4-42.37-36-67.75-73.2-50.43-33.62,15.65-65.46,35.1-98.15,52.77-9,4.85-11.22,11.32-6.16,20.38,12.47,22.36,24.74,44.83,37.27,67.16,4.83,8.61,11.67,11,20.72,5.84,34.48-19.54,70-37.39,102-61C4041.27,5104,4047.09,5091.62,4046.71,5078.22Z"/><path class="cls-3" d="M1553.77,785.07c-1.14,44.46-16.25,80.15-44.18,110.74-18.58,20.37-40.75,36.26-63.24,51.79q-55.15,38.1-110.49,75.93c-20.4,13.88-21,13.94-34.92-6.15q-90.5-130.61-180.52-261.52c-16.45-23.85-33.14-47.53-49.22-71.61-10.52-15.75-10.32-17.93,4.34-28q73.61-50.72,147.78-100.56c17.21-11.54,35.75-21,55.92-26.38,56.58-15.19,107,.19,151.36,35,49.15,38.48,84.43,88.31,108,146.16C1548.64,735.17,1552.08,761.45,1553.77,785.07ZM1310.53,614.51c-6.56.67-13.46.25-19.62,2.19-36.92,11.64-66.51,36-97.62,57.59-4.7,3.26-5.17,8.31-2.39,13.2s6,9.88,9.25,14.63Q1266,798.09,1332,894c3.27,4.75,6.88,9.28,10.31,13.93,4.16,5.62,9.33,6.73,15,2.64,28.69-20.8,60.37-37.75,84.8-64,17.41-18.73,24.48-40.63,17.14-66.2-16.67-58-49.22-106-94-145.53C1350.11,621.51,1331.6,613.75,1310.53,614.51Z"/><path class="cls-3" d="M4734.14,4895.07c.64,8.15-4.22,11.88-8.39,15.71-15.24,14-30.69,27.71-46,41.58q-83.67,75.78-167.36,151.54c-28.48,25.67-28.72,25.55-53.88-2.33q-129.64-143.67-259.18-287.42c-17.33-19.23-17.25-19.52,2.13-37q104.91-94.81,209.88-189.58c19.07-17.19,19.34-17.06,37.36,1.93,8.54,9,16.62,18.41,25.09,27.47s8.29,16.32-1.5,25c-35.94,31.76-71.34,64.13-106.87,96.34-15.93,14.45-31.52,29.27-47.61,43.53-6.93,6.14-8.17,11.42-1.48,18.61,13.52,14.53,26.2,29.85,39.94,44.16,12.43,12.95,14,13,28.42.23,42.69-37.86,85-76.15,127.45-114.28,3.07-2.76,6.21-5.47,9.09-8.43,8.49-8.72,16.65-9.72,25.17.13,11.36,13.13,23,26,34.53,39,5.49,6.19,4.48,12-1.24,17.32-3.62,3.38-7.46,6.53-11.14,9.86-42.34,38.26-84.8,76.38-126.92,114.88-18,16.49-17.68,16.83-1,35.2,15,16.54,29.76,33.3,44.94,49.66s15.39,16.24,31.11,2.07q73.71-66.46,147.36-133c3.68-3.32,7.33-6.68,11.14-9.86,5.92-4.93,12-5.5,17.58.38q18.76,19.82,37.15,40C4732,4890.06,4733.14,4893.31,4734.14,4895.07Z"/><path class="cls-3" d="M3754.18,5133.13c.94,9.72-6.18,12.86-13.21,15.48-21.7,8.07-43.51,15.85-65.3,23.66-38.92,13.95-78,27.61-116.77,41.83-24.91,9.13-25.39,10.75-16.34,36.17,4.71,13.24,9.44,26.48,14.46,39.61,7.15,18.68,8.27,19.55,27.18,13,42.18-14.64,84.15-29.88,126.22-44.84,15.58-5.54,31.33-10.61,46.77-16.52,11.87-4.53,19-.66,23.14,10.74,4.75,13.23,9.92,26.33,14.18,39.71,5.63,17.69,5,19.39-12.13,25.81-34.06,12.76-68.36,24.9-102.59,37.24-23.34,8.41-46.79,16.51-70,25.14-16.6,6.16-17.22,7.06-11.76,23.36,7.89,23.51,16.32,46.86,25.06,70.07,7.07,18.79,9.68,20.09,29.67,13,56.14-19.8,112.12-40.07,168.16-60.15,8.57-3.07,17.17-6,25.69-9.19,11.12-4.14,19.12-2.18,23.24,10.21,4.69,14.12,10.61,27.84,15,42,4.72,15.27,3.58,17.83-12.3,24-23.1,9-46.62,16.94-70,25.33q-105.06,37.73-210.14,75.38c-24.61,8.77-25.23,8.66-34-15.8q-68-189.07-135.54-378.36c-7-19.62-6.18-21.13,14.3-28.52q134.17-48.39,268.5-96.35c24.63-8.77,26.23-7.64,35.47,17.87,4.23,11.66,8.09,23.45,12.06,35.21A41,41,0,0,1,3754.18,5133.13Z"/><path class="cls-3" d="M821.35,4677.33c.19-44.85,14.51-77.72,37.71-107,10.4-13.14,14.14-13.49,26.15-3.26,14.47,12.33,28.15,25.6,42.41,38.19,8.73,7.7,11.39,15.89,4,25.9a32.53,32.53,0,0,0-2.44,4.31c-28.28,54.76-6.6,114.9,50.32,139.57,10,4.34,20.41,6.63,31.42,5.73,26.66-2.18,42-19.86,40.39-46.46a73.51,73.51,0,0,0-8-28.48c-11.79-23.69-24.06-47.14-35.84-70.84-11.42-23-21.75-46.47-27.18-71.76-9.89-46.17,3-85.75,37.59-116.85,35-31.41,77.29-39.8,120.36-22.11,72.54,29.78,119.6,84.76,139.35,160.58,10.55,40.5-4.33,76.72-30.62,108.07-9.65,11.51-13.82,11.74-24.41,1.66-15-14.25-29-29.48-43.77-44-7.71-7.58-7.59-14.68-3-24.36,17.54-37.33,13.6-59.17-14.87-89.65-12.5-13.38-25.78-25.9-44-31.19-27.72-8.07-48.23,11.09-41.73,39.33,4.11,17.83,11.94,34.33,20.14,50.63,13.4,26.6,27.08,53.07,39.75,80,9.93,21.1,16.41,43.41,16.54,67,.36,65.61-58.6,126.67-125.56,131-30,1.95-57.66-4.48-82.93-20.31-48.15-30.16-85.22-70.45-109.23-122.23C825,4711.75,820.25,4691.75,821.35,4677.33Z"/><path class="cls-3" d="M2657.79,5703.21c-16.88-2.81-38.83-7-60.95-9.93-12.62-1.67-19.09-7.86-21.57-20-4.65-22.7-10.41-45.18-14.59-68-2.6-14.17-9.06-21.17-24-23.26-45.85-6.42-91.54-14-137.21-21.63-11.24-1.89-16.85,3.36-21.64,12.08-11.57,21-23.81,41.7-35,62.92-6.23,11.83-13.88,16.91-27.85,14-18.58-3.89-37.67-5.24-56.37-8.63-23.88-4.32-24.31-5.65-12.77-26.12q15.86-28.12,32-56.06,90.35-155.72,180.81-311.38c3.32-5.72,7-11.23,10.33-17,4.75-8.21,11.4-10.86,20.86-9.25,18.74,3.2,37.55,6.28,56.46,8.16,20.07,2,29.62,11.51,34.09,31.94,21.42,97.8,44.45,195.26,66.91,292.84q14.21,61.7,28.41,123.38c.75,3.23,1.53,6.45,2,9.72C2680.19,5703,2679,5704.4,2657.79,5703.21ZM2501.15,5350c-9.89,17.47-20,35-29.84,52.78-12,21.58-24.14,43.08-35.35,65.05-6.18,12.12-3.9,15.91,9.8,18.19,23.5,3.91,47.06,7.64,70.71,10.53,19.77,2.41,20.57,1.32,16.87-17.62-7.42-37.93-15.13-75.82-22.9-113.69C2509.35,5359.9,2509.75,5353.51,2501.15,5350Z"/><path class="cls-3" d="M2611,278.75c23.4-31.68,45.27-59.64,65.2-88.91,10.92-16.05,24.19-23.15,43.21-23.65,21.43-.57,42.78-3.81,64.21-4.64,12.67-.49,15.23,4.6,7.41,15-20.93,27.71-42.51,54.92-64.09,82.13-24.43,30.8-24.64,30.76-2.88,61.94q48.27,69.15,96.75,138.17c1.42,2,2.95,4,4.29,6.08,11.14,17.32,10.09,19.81-10.79,22.25-17.22,2-34.7,2.26-51.74,5.14-17.65,3-27.22-5-36.19-18.83-20.67-31.92-42.49-63.09-64.13-94.37-12.26-17.73-14-17.17-28.81-1-13.31,14.57-18.64,30.65-14.64,50,4,19.54,3.15,39.52,4.88,59.28,1,10.89-2.84,17.53-14.46,18.55-18.09,1.59-36.14,4-54.27,4.91-16.81.83-20.6-2.43-22.63-19.09-2.51-20.5-3.89-41.13-5.71-61.7q-14.62-165.44-29.23-330.85c-.22-2.47-.41-5-.55-7.42-1.46-26,.58-28.15,26.34-30.21,13.17-1.06,26.25-3.32,39.43-4.07,20.22-1.14,23.37,1.28,25.27,21,5.21,54.28,10,108.61,14.74,162.93C2603.57,252.76,2603.12,264.33,2611,278.75Z"/><path class="cls-3" d="M3270.93,390.24c.28-90.94,59.1-178.54,166.34-178.53,100.28,0,174.78,73.09,173.79,168.45-1,99.57-74.4,177.2-167.56,175.57C3361.76,554.31,3267.48,501.08,3270.93,390.24Zm170.3-101.81c-26.7,1.79-48.42,17.62-62.25,44.49-11.15,21.67-15.55,45.39-15.49,69.43.11,37.48,25.86,69.42,59.11,75.75s65.89-12.13,81.59-46.53c9.39-20.58,13.5-42.69,13.84-64.94C3518.68,322.84,3485.73,288.25,3441.23,288.43Z"/><path class="cls-3" d="M2132.62,368.9c-3.35-85.36,74.82-161.71,189.57-141.09,31.1,5.59,56.47,23.39,75.68,48.53,20.88,27.34,33.82,58.63,41.45,92,3.75,16.46,1.71,19.52-16,23.66-51.49,12-103.08,23.67-154.63,35.47-7.25,1.66-14.5,3.32-21.73,5.07s-9.13,6.41-6.9,13.1c13.6,40.75,51.38,56.52,84,44.29,16-6,25.23-17.6,30.51-33.49,7.09-21.38,7.43-21.09,29-22.33,14-.81,28-2.47,42-3.32,20-1.22,24.7,3.71,20.51,22.41-7.92,35.38-25.54,64.6-57.09,83.67-41.87,25.29-87,35.4-135.53,25.48-35.81-7.32-63.35-27.49-83.48-57.69C2144.36,466.39,2133.19,423.78,2132.62,368.9Zm149.58-72.19c-35.6-.49-61.55,27-58.19,61.52,1.34,13.67,5.7,18.1,19.22,15.35,28.22-5.73,56.16-12.81,84.26-19.14,10.94-2.46,12.31-8.88,9.12-18.42C2329,313.1,2307,297,2282.2,296.71Z"/><path class="cls-3" d="M4336.44,628.24c-.82,37.27-12.77,71.41-30.15,103.83-8.42,15.72-11.42,16.42-27.38,7.78-47.3-25.59-94.35-51.65-141.66-77.22-28-15.13-35.78-10.64-37.9,20.94-2.09,31.29,20.81,60.86,51.57,66.89,13.33,2.61,25-1.91,34.68-9.84,12.25-10,21.95-7.48,32.83,1.77,12.6,10.71,26.28,20.15,39,30.72,13.46,11.19,13.33,15.85-1.38,26.41-31.72,22.75-67.09,32.39-105.64,24.4-43.45-9-80.67-30.11-108.55-65-30.13-37.67-35.91-80.61-23.39-126.67,10.64-39.2,29.58-74.14,57.85-102.79,98.76-100.06,228.38-26.36,254.12,57.14C4334.62,600.19,4337,614,4336.44,628.24Zm-81.88-10.14c-.2-29.63-16.08-50.13-43.56-58.14-22.31-6.49-51.27,5.44-64.71,25.94-5.43,8.28-3.91,13.2,4.53,17.72,24.05,12.89,47.88,26.17,71.8,39.28,21.25,11.64,27.18,8.94,31.08-14.32A100.6,100.6,0,0,0,4254.56,618.1Z"/><path class="cls-3" d="M4526.14,725.4c44-6.45,79.77,2.37,111.64,26.8,49.64,38,60.38,89.77,26.17,141.84-40,60.89-86.29,117.31-129.9,175.63-10.27,13.73-12.53,13.67-26.26,3.92-14.84-10.53-29-22-43.75-32.69-10.17-7.33-11.37-15-3.68-25,13.14-17,25.85-34.41,38.66-51.71q34-45.88,67.85-91.87c3.42-4.66,6.55-9.57,9.49-14.55,15.13-25.61,14.24-46.5-2.56-63.69-18.62-19-47.83-24.13-70.93-12.34-12.83,6.55-22.58,16.81-31.73,27.46-32.41,37.7-60.31,78.88-90.64,118.19-5.05,6.55-10.12,13.11-15,19.8-5.93,8.14-12.79,9.9-21.13,3.65q-24.84-18.61-49.7-37.19c-8.45-6.3-8.46-13.32-2.28-21.24,5.1-6.52,9.88-13.29,14.85-19.91Q4385.47,768.28,4463.76,664c15.71-20.89,16.48-20.93,37-5.86,10,7.35,20,14.76,29.7,22.47,16,12.66,15.93,13.07,5.23,29.85C4533.51,713.9,4531.32,717.31,4526.14,725.4Z"/><path class="cls-3" d="M3815.61,353.31c8.84-2.9,16.53-5.82,24.43-7.95,50.92-13.7,95-.76,131.67,36.16,21.74,21.91,29.51,49,23.24,79.85-3.64,17.91-9.39,35.14-15.69,52.2q-30,81.42-60.48,162.71c-9.17,24.49-9.91,24.7-33.78,16-14-5.1-28-10.08-41.78-15.71-18-7.33-18.76-9.11-11.91-27.79,17.38-47.34,35.09-94.55,52.56-141.85,5.16-14,10.74-27.8,13.05-42.61,4.41-28.33-1.86-44.82-21.09-55.95s-49.92-8.8-68,5.23c-12.18,9.47-19.71,22.41-25.32,36.21-12.76,31.38-24.78,63.07-36.87,94.73-8,20.85-15.15,42-23.39,62.73-7.56,19-9.91,20-29.78,13.23q-23.48-8-46.47-17.3c-15.14-6.12-16.37-8.26-10.65-24.41,11.87-33.5,24.53-66.72,36.9-100q30.66-82.53,61.4-165c8.48-22.59,10-23.14,32.49-15.15,12.46,4.42,25,8.78,37.15,13.9,16.75,7,16.62,7.34,12.4,26C3814.84,342.43,3812.9,346.27,3815.61,353.31Z"/><path class="cls-3" d="M1944.11,329.2c31.13-1.35,56.76,10.54,78.47,31.59,14,13.59,13.47,17.86-2.37,28.19-8.31,5.41-17.42,9.7-25.33,15.62-17.12,12.81-33.17,19.62-52.67,2.83-9.71-8.37-23.64-6.47-35.89-3.1-15.22,4.18-29.72,10.26-42.63,19.58-7.88,5.69-13.13,13-10.71,23.24,2.69,11.39,12.22,12,21.58,12.32,28.29,1.11,56-4.6,83.83-7.81,25.57-2.94,51.15-4.84,76.51.71,45.17,9.88,75.37,54.89,68.11,100.66-6.1,38.51-27.24,67.05-59.57,87.35-33.35,20.94-69.8,34.49-109,38.63-40,4.22-75.22-8.51-104.83-35.48-16.77-15.29-15.78-21.89,3.36-33.25,14.22-8.44,29-16,43.19-24.43,9.69-5.71,17.14-5.63,26.5,2.45,29.56,25.51,77.35,21.05,104-8.5,8.52-9.43,11-22.55,5.71-32-6.38-11.52-17.27-12-28.2-10.21-31.84,5.16-63.92,8.05-96,10.9a174.41,174.41,0,0,1-37-.64c-39.33-4.85-65.85-25.28-77.49-63.31-12.2-39.86-.75-74.52,29.71-100.91C1843.32,348.93,1891.77,333.17,1944.11,329.2Z"/><path class="cls-3" d="M3154.38,5310.28c-22.3,3.73-46.75,7.81-71.19,11.94-4.89.82-9.72,2.07-14.62,2.7-22.65,2.88-23.7,2.24-28.22-19.51q-3.54-17-6-34.2c-2.59-18.35-.74-21.78,17.83-25.52,30-6,60.14-11,90.27-16.19q110-18.77,220-37.16c21.22-3.52,21.65-2.91,26.15,18.16,2.59,12.13,5.12,24.29,6.92,36.55,2.53,17.24.6,20.35-16.48,23.74-26.74,5.29-53.61,10-80.51,14.5-28.36,4.75-29.17,5.15-24.4,33q25.35,147.9,51.15,295.73c.57,3.26,1.38,6.47,1.89,9.74,4.68,29.72,4.43,30-24.81,35.13-14.65,2.57-29.21,5.75-43.92,7.88-16.75,2.43-20.75.25-24.12-16.65-6.62-33.24-12-66.71-17.87-100.1-12.81-73.3-25.38-146.64-38.45-219.89C3174.53,5310.62,3172.67,5309.63,3154.38,5310.28Z"/><path class="cls-3" d="M4731,4315.48c-.89,8.41-5.55,13.29-9.58,18.46-17.31,22.16-34.74,44.23-52,66.42-14.21,18.26-14.26,18.48,3.33,32.34q124.72,98.28,249.56,196.41c3.9,3.07,7.79,6.14,11.65,9.27,7.12,5.77,7.55,12.36,2.07,19.43q-20.52,26.47-41.17,52.83c-9,11.5-17.13,5-25.28-1.44q-56.59-44.4-113.27-88.76-71.24-55.9-142.44-111.86c-17.89-14-18.07-14-32.88,4.63-18,22.66-35.58,45.66-53.77,68.18-12.13,15-14.56,15.15-30.22,3.22-11.83-9-23.2-18.65-34.91-27.83-8.19-6.42-8.55-13.24-2.25-21.21,12.81-16.23,25.36-32.66,38.13-48.93q78.1-99.54,156.32-199a168.45,168.45,0,0,1,11.42-13.05c4.71-4.85,10.4-5.28,15.66-1.29q22.73,17.23,45,35.09C4728.73,4310.28,4729.89,4313.67,4731,4315.48Z"/><path class="cls-3" d="M2889.78,337.74c0-27.3.31-54.6-.11-81.9-.29-18.28-.67-19.39-19.19-21.82-12.77-1.67-17.18-7.64-16.93-19.39.25-11.57.27-23.16.29-34.74,0-11.88,5.24-17.56,17.71-18.95,21.24-2.38,21.18-3.13,21.89-23.82.17-5,.65-10,.11-14.88-1.92-17.4,6.63-27.72,21.46-35.17,16.25-8.16,31.8-17.69,47.86-26.25,21.21-11.3,23.8-9.64,23.38,13.57-.4,22.33-1,44.67-.73,67,.24,17.66,2.17,19.62,20.17,20.92,37.9,2.74,38.39,1.26,37.82,43.25-.07,5-.4,9.92-.76,14.86-.89,12-7.25,17.94-19.38,17.5-1.65-.06-3.32.17-5,.08-35.51-1.82-34.24,3.29-34.44,34.45-.25,37.22-4.64,74.28-3.66,111.57.87,33.29,5.26,37.86,37.59,35.12,18.56-1.57,19.68-.73,21.67,17.26,1.18,10.68,2,21.41,3.21,32.08,1.32,11.46-2.59,19.37-14.25,22.53-29.26,7.93-58.83,9.4-88.21,1.78-27.41-7.1-44-25.31-48.64-53.53a206.41,206.41,0,0,1-2.93-29.54c-.41-24-.13-48-.13-72Z"/><path class="cls-3" d="M4413,5169.9c-.14,7.09-5.48,10.14-10,13.52-14.59,10.89-29.13,21.87-44.08,32.25-17.42,12.08-19.43,11.73-31.83-5.16-20.08-27.34-39.87-54.91-59.72-82.43q-87.87-121.82-175.68-243.68c-2.9-4-5.62-8.18-8.38-12.3-4-6-2.44-11.21,2.9-15.12q28-20.55,56.36-40.67c8.59-6.13,15.44-3.17,21.17,4.59,6.89,9.32,13.95,18.51,20.73,27.9q108.27,150,216.43,300C4405.63,5155.44,4411.49,5161.57,4413,5169.9Z"/><path class="cls-3" d="M3208.54,202.16c-6,64-11.48,123.23-17,182.52q-3.95,42-8.05,83.95c-.81,8.21-1.77,16.44-3.26,24.54-1.37,7.4-6.24,12-13.92,11.39-20.58-1.72-41.12-3.86-61.64-6.13-12.67-1.4-15.73-9.25-14.57-21.09,6.77-69.14,13.11-138.31,19.64-207.47,2.41-25.52,4.74-51.05,7.47-76.54,2.11-19.76,5.87-22.69,25.27-20.92,13.17,1.2,26.3,2.78,39.47,3.83C3207.34,178.27,3209.54,180.7,3208.54,202.16Z"/><path class="cls-3" d="M1735.88,537.54c5.83-.86,9.45,2.41,11.91,7,9.77,18.18,19.36,36.45,29,54.69,5.34,10.1,2.4,17.14-7.62,22.15-19.93,10-39.76,20.18-59.57,30.39-21.29,11-42.57,21.93-63.73,33.12-10.85,5.74-18.7,3.76-24.26-7.52-8.39-17-17.07-33.92-25.71-50.83-4.39-8.58-4.17-16.18,5.17-21Q1666,572,1731.13,538.91A25.5,25.5,0,0,1,1735.88,537.54Z"/><path class="cls-3" d="M2638.18,5161.35c-2.25,14.66-4.45,29.33-6.77,44-1.68,10.57-7.48,16.54-18.65,14.83-16.27-2.5-32.47-5.45-48.67-8.38-8.68-1.57-13.12-7.05-11.89-15.79,2.31-16.31,5-32.56,7.88-48.79,1.75-10,8.48-13.83,18-12.39,15.47,2.34,30.81,5.54,46.29,7.71C2636,5144.14,2640,5150.31,2638.18,5161.35Z"/><path class="cls-3" d="M2509.58,5137.75c-2.89,18.89-5,33.56-7.4,48.18-1.76,10.73-8,15.86-19.09,14.06q-23.13-3.75-46.22-7.74c-9.48-1.62-15.11-6.76-13.56-16.93,2.48-16.26,5.34-32.48,8.27-48.67,1.85-10.27,9.11-13.11,18.34-11.82,14.66,2.06,29.24,4.68,43.88,6.87C2505.69,5123.48,2511.67,5129.38,2509.58,5137.75Z"/><g id="Group-6"><g id="Group-4"><g id="Group-2"><g id="D"><path id="Shape" d="M2909.67,3186.25a180.7,180.7,0,0,0-34.49-101.71c-25.13-35.1-60.35-61.95-97.37-83.51a441.44,441.44,0,0,0-82.21-38.15l5.92-10.88-11.12-6.06-257.83-17.81-27.41,50.32a57.43,57.43,0,0,1,23,77.45l-223.79,410.84,2.79-4.54a57.83,57.83,0,0,1-78.07,23l-6.24-3.34-30.46,55.8,290.47,158.24c54.23,29.52,117.72,52.07,180.31,40.24,46-8.75,82.95-36.3,114.21-69.84,39.94-42.8,72.22-92.69,101.88-143,35.32-59.93,68.08-122.09,94.21-186.51,17.58-43.45,33.63-89.81,36.08-137,.27-4.49.33-9,.25-13.54C2908.12,3109.67,2910.89,3250.27,2909.67,3186.25Zm-424.39,484-.64,1.15a39.16,39.16,0,0,1-52.88,16l-23.67-12.92,16-29.39-27.1-14.8a57.53,57.53,0,0,1-22.09-78.71l293.26-538.48q20.7-24.78,48.18-9.89l67.93,37a38.93,38.93,0,0,1,15.9,52.09Z"/><path id="Shape-2" data-name="Shape" class="cls-4" d="M2909.67,3186.25a180.7,180.7,0,0,0-34.49-101.71c-25.13-35.1-60.35-61.95-97.37-83.51a441.44,441.44,0,0,0-82.21-38.15l5.92-10.88-11.12-6.06-257.83-17.81-27.41,50.32a57.43,57.43,0,0,1,23,77.45l-223.79,410.84,2.79-4.54a57.83,57.83,0,0,1-78.07,23l-6.24-3.34-30.46,55.8,290.47,158.24c54.23,29.52,117.72,52.07,180.31,40.24,46-8.75,82.95-36.3,114.21-69.84,39.94-42.8,72.22-92.69,101.88-143,35.32-59.93,68.08-122.09,94.21-186.51,17.58-43.45,33.63-89.81,36.08-137,.27-4.49.33-9,.25-13.54C2908.12,3109.67,2910.89,3250.27,2909.67,3186.25Zm-424.39,484-.64,1.15a39.16,39.16,0,0,1-52.88,16l-23.67-12.92,16-29.39-27.1-14.8a57.53,57.53,0,0,1-22.09-78.71l293.26-538.48q20.7-24.78,48.18-9.89l67.93,37a38.93,38.93,0,0,1,15.9,52.09Z"/><path id="Path" class="cls-5" d="M2870.49,3195.26a177.71,177.71,0,0,0-4.9-35.11L2809,3129.32l-12.85,25.79Z"/><path id="Path-2" data-name="Path" class="cls-5" d="M2765.54,3214.16l95.48,52q2.63-9.69,6.68-28.82l-88.54-48.23Z"/><path id="Path-3" data-name="Path" class="cls-5" d="M2733.71,3272.57l107.09,58.34c4.54-10.93,8.15-19.9,10.76-26.93l-104.22-56.45Z"/><path id="Path-4" data-name="Path" class="cls-5" d="M2701.75,3331.23l110.82,60.24c5.21-10.46,9.51-19,12.85-25.79l-109.91-59.84Z"/><polygon id="Path-5" data-name="Path" class="cls-5" points="2683.58 3364.6 2670.42 3389.91 2781.23 3450.25 2794.85 3425.24 2683.58 3364.6"/><polygon id="Path-6" data-name="Path" class="cls-5" points="2638.8 3448.45 2749.37 3508.7 2763.03 3483.62 2652.45 3423.38 2638.8 3448.45"/><path id="Path-7-2" data-name="Path" class="cls-5" d="M2548.54,2969.07l-53.18-3.42,27.9,15.5a181.41,181.41,0,0,1,25.28-12.08Z"/><path id="Path-8" data-name="Path" class="cls-5" d="M2606.17,3506.71l109,59.34c3.36-5.28,8.54-13.49,15.15-24.45L2620,3481.35Z"/><path id="Path-9" data-name="Path" class="cls-5" d="M2470,3023.43q4.58-4.71,19.84-17.13l-29.43-16.07a93.63,93.63,0,0,1,9.59,33.2C2473,3020.23,2469.06,3012.5,2470,3023.43Z"/><path id="Path-10" data-name="Path" class="cls-5" d="M2574.35,3565.15l100.84,54.93c4.55-4.75,11-12.08,19.2-22l-106.39-58Z"/><path id="Path-11" data-name="Path" class="cls-5" d="M2542.52,3623.53l86.23,46.85a280.64,280.64,0,0,0,22.69-20.08l-95.27-51.91Z"/><path id="Path-12" data-name="Path" class="cls-5" d="M2506.51,3679.7l48.82,26.51a169.06,169.06,0,0,0,36.6-12.52l-69.74-38C2515.93,3665.38,2510.75,3673.41,2506.51,3679.7Z"/><path id="Path-13" data-name="Path" class="cls-5" d="M2218.41,3505l17.45,10.06a268.83,268.83,0,0,1,1.17-29.76,96.92,96.92,0,0,1-18.62,19.7Z"/><path id="Path-14" data-name="Path" class="cls-5" d="M2171.89,3524.75a102.11,102.11,0,0,1-33.19.27l-2.63,3.5L2259.83,3596a189.57,189.57,0,0,1-14.71-31.46Z"/><path id="Path-15-2" data-name="Path" class="cls-3" d="M2824.38,3057.66c2.4-2.16,18.14,12.73,30.44,32.61,11.31,18.28,19.2,41.14,22.36,51.21,22.6,74.36-27.91,182.39-34.32,190.1s-12,9.19-13.21-4.58,49.48-79.52,38.36-157.67C2858.05,3099.69,2813.41,3067.51,2824.38,3057.66Z"/><path id="Path-16" data-name="Path" class="cls-3" d="M2695.68,3585.58c-11-7-44.55,76.38-121.36,113.32-18.33,9.21-35.23,11.36-55.69,12.93-21.68,1.08-62.45-13.07-67-5.51s33.33,20,76.76,18.69c78.11-2.32,128.3-69.51,139.23-84.12C2687.81,3613.93,2705.8,3589.61,2695.68,3585.58Z"/><path id="Rectangle-2" data-name="Rectangle" class="cls-1" d="M2513.73,2997.39a8.38,8.38,0,0,1,3.27,11.4l-283.19,510.9a8.39,8.39,0,0,1-14.67-8.13l283.19-510.9A8.39,8.39,0,0,1,2513.73,2997.39Z"/></g><g id="Group"><path id="Combined-Shape" class="cls-1" d="M1166.44,3295.1l-.26-.16a110,110,0,0,1-39.42-150.48q159.32-272.41,347-578.22,188.1-306.6,353.41-563.23a110,110,0,0,1,147.48-35.69h0l650.25,375.42a110,110,0,0,1,42.83,145.57Q2528.09,2759.78,2356.62,3076q-171,315.39-327.28,589.57a110,110,0,0,1-150,41.11l-.26-.16h0l-712.6-411.41Z"/><path id="Oval" class="cls-1" d="M2001.24,3713.91c6.32-10.95,31.63-48.93,29.83-63.6-10.89-88.63-186.65-213-400.46-336.49-209.07-120.71-396.87-212.28-482.55-182.17-16.45,5.78-42.08,48.82-49.25,61.24-44.5,77.09,121.43,256.21,370.63,400.09S1956.73,3791,2001.24,3713.91Z"/><g id="Combined-Shape-2" data-name="Combined-Shape"><g id="Mask-3" data-name="Mask"><path id="path-1" class="cls-6" d="M1285.77,3189.09c-.72-.42-1.44-.84-2.15-1.28a100,100,0,0,1-33.18-137.47h0l600.65-982.84q291.44,219.11,514.88,184.31c53.67-8.36,212.58-6.58,202.93,165.15q-.51,9.16-12.15,29.47h0c42.32-12,62.41-8.16,56.58,18-1.07,4.84-222.3,417.91-356.75,670.83q-91.24,171.63-177,324.91a160,160,0,0,1-217.76,61.51l-1.88-1.07Z"/></g><g id="Oval-2" data-name="Oval"><path id="path-3-2" data-name="path-3" class="cls-7" d="M2039.46,3530.47c6.31-10.93,31.32-49,30.37-63.2-5.75-85.58-160.85-198.05-350.86-307.75-185.79-107.27-353.5-187.26-433.44-153.91-15.35,6.4-40.9,49.43-48.06,61.84-44.46,77,99,243.09,320.49,371S1995,3607.48,2039.46,3530.47Z"/></g><path id="path-5-2" data-name="path-5" class="cls-6" d="M2068.94,3474.05c-4.47,17-24,46.94-29.48,56.42-44.46,77-260,35.79-481.5-92.07s-365-293.94-320.49-371c5-8.74,19.23-32.69,32.53-48.31h0c-12.58,83.42,124.87,232.64,327.77,349.79,206,118.91,406.83,162.89,469.7,106.52Z"/></g></g></g><g id="Path-17" data-name="Path"><g id="Mask-4" data-name="Mask"><path id="path-7-3" data-name="path-7" class="cls-3" d="M2201.42,1769.81c26.62-.42,126.76-.38,209.82,76.87,73.8,68.73,87.28,154.7,90.29,179.89,16.93-2.28,138.22-16.63,229.39,70.89,65.74,63.05,76.19,141,79.15,165.53,17.34,144.58-84.07,247.75-98.57,262,8.23,15,25.33,52,16.67,96.7-15.42,80.43-102.15,120-131.34,117a190.09,190.09,0,0,1-20.65-1.52c-11.79-1.69-23.35-3.2-39.77,2.24-12,4.09-23.64,10.92-45.19,14.23-14.86,2.14-22.33,3.41-25.65-.2-13.66-14.93,54.22-78.14,36-109-9.41-15.92-45.93-31.86-55-34.46a8.27,8.27,0,0,1-1.38-.55c-19.29-6.85-40.18,9.48-49.58,17-51.9,41.7-88.46,137-139.68,137.18-3.89,0-20.62.07-29.25-10.9-27.75-35,80.33-115.65,68-220.4-5.15-43.6-32.53-102.71-66.26-106.79-78.29-9.58-205.19,267.62-246,272.28-12.92,1.5-19.79-4.26-19.79-4.26-8.22-6.89-7.94-19.81-7.84-24.22,1-40.31,71.85-110.24,71.85-110.24,13.22-15.09,141.44-142.58,100-230-12.48-26.32-36.39-40.93-46.37-47.06-35.92-21.87-103.45-59.73-153.85,27.57-34.81,60.28-44,160.95-80.69,139.76-26.47-15.28,32.7-78.42,21.65-138.22-6.83-36.91-54.61-59.76-65.66-63.49-43.27-14.58-77.37,27-104.8,71-35.55,57.07-52.21,73.43-66.33,68.24-22.23-8.17-41.8,77.67-56.15,104.69-1.13,2.14-99.94,92.91-121.92,39.11s95.36-125.95,113.64-181c34.25-103.18,12.59-123,93.31-214.54,70.77-80.25,71.43-171.11,132.89-230.17,125.77-120.86,233.92-82.86,238.63-81.58A319.15,319.15,0,0,1,2201.42,1769.81Z"/></g><g class="cls-8"><path class="cls-9" d="M2277.55,1578.77c28.13-.45,134-.4,221.74,81.23,78,72.64,92.24,163.5,95.43,190.12,17.88-2.41,146.07-17.58,242.41,74.91,69.48,66.64,80.53,149,83.65,174.94,18.33,152.79-88.85,261.83-104.17,276.89,8.7,15.82,26.78,55,17.62,102.2-8.38,43.68-62.93,128.67-116.61,149.33-50.77,19.54-95.13-11.77-110.12-39.46s-30.87-81.82-107.82-52.73-168.17,30.45-160.8-78.41c7.26-107.13-112.89-80.74-156.72-173.09-12.89-27.2-141.68-141.64-223.32-78.11s-77.64,25.07-141.32-11.69c-75.34-43.5-93.94,57-140.89,43.31s40.32-109.76,61.13-175.54c57.34-181.17-80.83-328.34-38.26-365.82,85.18-75,389.65-63.68,397.88-61.44A337.29,337.29,0,0,1,2277.55,1578.77Z"/></g></g></g><g id="Group-3"><g id="Group-2-2" data-name="Group-2"><g id="_6" data-name="6"><path id="Shape-3" data-name="Shape" d="M3407.89,3228.34q-90.26-26.12-178.87,23.42a232,232,0,0,0-78.23,68.56,215.56,215.56,0,0,0-36.52,94.94l-13.41-22.88q-68.68-122.91-64.15-217.18T3118.08,3038c30.53-17,84.92-31.82,155.17-11.8q70.26,20,141.41,85.81l-150.19-260.73q-52.74,63.33-69.66,76.56c-54.53,42.64-98.81,67.75-114.51,77.53-37.76,23.73-80.88,51.51-114.56,105.64A292.63,292.63,0,0,0,2926,3219.53q-23,140.86,69.59,306.47,87.75,156.8,204.92,205.72t240.67-20q102.87-57.48,133.28-162.09t-26.36-206.12Q3498.13,3254.43,3407.89,3228.34Zm16.67,439q-57.12,31.85-123.17-6.58t-120.16-135q-34.8-62.33-24.54-114.54t63.25-81.82q52.11-29.11,108.28.83t101.6,111.43q44.54,79.74,42.93,139.54t-48.33,86.13Z"/><path id="Shape-4" data-name="Shape" class="cls-10" d="M3407.89,3228.34q-90.26-26.12-178.87,23.42a232,232,0,0,0-78.23,68.56,215.56,215.56,0,0,0-36.52,94.94l-13.41-22.88q-68.68-122.91-64.15-217.18T3118.08,3038c30.53-17,84.92-31.82,155.17-11.8q70.26,20,141.41,85.81l-150.19-260.73q-52.74,63.33-69.66,76.56c-54.53,42.64-98.81,67.75-114.51,77.53-37.76,23.73-80.88,51.51-114.56,105.64A292.63,292.63,0,0,0,2926,3219.53q-23,140.86,69.59,306.47,87.75,156.8,204.92,205.72t240.67-20q102.87-57.48,133.28-162.09t-26.36-206.12Q3498.13,3254.43,3407.89,3228.34Zm16.67,439q-57.12,31.85-123.17-6.58t-120.16-135q-34.8-62.33-24.54-114.54t63.25-81.82q52.11-29.11,108.28.83t101.6,111.43q44.54,79.74,42.93,139.54t-48.33,86.13Z"/><path id="Combined-Shape-3" data-name="Combined-Shape" class="cls-11" d="M3458.84,3359.27c-5.2.82-13.9-.74-24.3-5.08s-21-10.24-26.69-28.4q-5.73-18.16-7-25.63l.4.18q-.33-1.82,2.13-3,28.26-10.29,55.93-1a194.56,194.56,0,0,1,16.71,10.31,91.25,91.25,0,0,1,14.93,12.83,64.48,64.48,0,0,1,11.41,17.14,8.65,8.65,0,0,1-3.69,3.65,15.67,15.67,0,0,1-6,.85,16.09,16.09,0,0,1-6.24-6q-2.89-4.44-6.08-9.23a24.55,24.55,0,0,0-6.6-7.06q-29-21.35-61.69-11.07c9.43,18.2,10.16,20.9,21.67,32.27,12,11.89,20.69,11.51,25.32,12.87A11.33,11.33,0,0,1,3458.84,3359.27Zm37.7,53.68c-.38-.15-1.71-.65-4-1.49a49.83,49.83,0,0,1-17.31-20.41q-8.16-17.51-7.84-48.28-5.42-11.59-10.57-10.87a6.84,6.84,0,0,0-2.72.31q-3.72,1.74-2.87,9.72l-4,.21a7,7,0,0,1-2.58-.24,5.25,5.25,0,0,1-2-1.7q-2-15.09,5.5-19.8c1.7-.48,4.78-.16,9.28.94q12.93,2.58,18.7,15a48,48,0,0,1,3.74,11.54q1.08,5.83,2.35,17.34t2.11,16.37a21.11,21.11,0,0,0,3.78,5.66q2.21,2.33,4.07,1.45,1.83-3.26,2.64-10t2.93-9.86h0l7,3.18q-.52,9.57-.82,16.3a68.48,68.48,0,0,1-1.76,12.79A33.4,33.4,0,0,1,3496.54,3413Zm15.31,29.64q-9.26,1.34-21.24-3.17a81.16,81.16,0,0,1-21.48-11.93,83.41,83.41,0,0,1-21.32-27.9q-7.76-16.64-5.77-33a8.12,8.12,0,0,1,1.68-2.22,8.8,8.8,0,0,1,2.42.68,23.57,23.57,0,0,0,5.78,1,2.85,2.85,0,0,1,1.77,1.58c.49,1.05.59,2.84.32,5.38a19.51,19.51,0,0,0,0,5.78q.78,11.43,4.19,18.75a48.57,48.57,0,0,0,13,16.8,88.76,88.76,0,0,0,19.1,12.15q10.65,5,23,9.87C3513.13,3439.82,3512.65,3441.88,3511.85,3442.59Zm44.52,18.1-9.14-12.08a96.13,96.13,0,0,0-8.14-54.38,90.4,90.4,0,0,0-9.32-15.85,53.33,53.33,0,0,0-18.75-13.13,101.47,101.47,0,0,0-24.12-6.05c-.58-2.95-1-4.91-1.21-5.93a5.19,5.19,0,0,1-.07-2.49,10,10,0,0,1,1.59-2.78q16.38.52,28,4a52.15,52.15,0,0,1,21.11,12.51,179.31,179.31,0,0,1,13.49,23.76,124.27,124.27,0,0,1,11.28,38.12,65.18,65.18,0,0,1-4.71,34.29Zm-34.89,41.36q-3.86,1.8-6.15.46-4.56-14.34-2.9-27.1t7.62-32.74q3.28-14.61.5-20.57a17.35,17.35,0,0,0-2.25-3.31,27.87,27.87,0,0,0-5,3,26.59,26.59,0,0,1-3.22,2.22,3.77,3.77,0,0,1-2.87-.08,6.16,6.16,0,0,1-3.18-2.76h0l14.38-24.93a3.8,3.8,0,0,1,.73-.71,4.08,4.08,0,0,0,.73-.7,60.86,60.86,0,0,1,7.37,12,47.75,47.75,0,0,1,4.8,23.11,168.5,168.5,0,0,1-4.4,27.53,218,218,0,0,0-4.77,26.49c1.17,1.86,2.62,2.4,4.34,1.6a26.81,26.81,0,0,0,4.06-3.71c1.41-1.54,2.58-2.85,3.49-3.92.95,1,1.89,2,2.83,3a21.91,21.91,0,0,1,2.17,2.61,7.85,7.85,0,0,1,.68,4.52q-1.54.72-8.14,6.32T3521.48,3502.05Zm25.95,26.62c-10.26,14-27.61,15.85-28.85,12.85a2.18,2.18,0,0,1-1.48-.31,48.63,48.63,0,0,1-13.33-14.2q-3.45-5.3-12.77-25.2a124.42,124.42,0,0,1-5-28.28,68.49,68.49,0,0,1,3.5-25h0l1.41-.92c2.41.5,4.34.85,5.83,1a8.78,8.78,0,0,1,3.47,1,22.33,22.33,0,0,0-.57,6.34q-4.54,14.88.47,31.76a133.6,133.6,0,0,0,16.41,34.41q5.67,8.73,8.65,12.6c7.06-6.46,15.89-14.23,18.68-23.34,3.78-12.33,3-29.58.93-34a52.79,52.79,0,0,0-11-15.54,10.19,10.19,0,0,1,.79-5.42q1.23-3.46,2.6-4.09c1.3-.61,2.55.4,3.78,3,6.54,8.17,7.34,5,14.51,22.34S3552.24,3522.13,3547.43,3528.67Z"/><path id="Combined-Shape-4" data-name="Combined-Shape" class="cls-11" d="M3242.83,2954.11q13.56,2.8,26.09,15.77,10.73,11.11,24,36.09h0l.4.41q-9.74-.9-15.75-1.49a99.41,99.41,0,0,1-13.88-2.5,56,56,0,0,1-13.33-4.84,42.28,42.28,0,0,1-10.4-8.06,10.58,10.58,0,0,1,1.31-2.82,4,4,0,0,1,2.55-1.1,5.72,5.72,0,0,0,3-1.1c4.15,2.36,7.78,4.45,10.85,6.25a21.09,21.09,0,0,0,8.39,3q3.76.34,7.3-3.08a41,41,0,0,0-9.22-14.56,108.54,108.54,0,0,0-12.28-10.61q-7.5-5.69-7.7-5.89Q3240.74,2956.13,3242.83,2954.11Zm-57.13,20.64q14-13.52,26.42-17.94a4.58,4.58,0,0,0-.44,2.84c.12,1.21.24,2.16.37,2.84a242.35,242.35,0,0,0-22.4,19.24,8.37,8.37,0,0,0-2.41,4.31,4.28,4.28,0,0,0,1,4.16h0l52.24-21.7c1.62,0,2.69.32,3.22.87.53,1.12-1.87,4.24-7.22,9.4q-12.66,5.85-21.54,9.84t-16.63,6.67a120.76,120.76,0,0,1-16.8,4.43,96.13,96.13,0,0,1-18.17,1.78Q3171.29,2988.68,3185.7,2974.75Zm50.79-42.73a48.23,48.23,0,0,1,15.38-10.06,23.27,23.27,0,0,1,6.26,14.33q.87,8.76-2.88,15.17h0l-5.39-5.59c-.78-1.36-1.16-3.67-1.11-6.93s-.33-5.41-1.12-6.52c-1.19-1.22-2.87-1.46-5.05-.69q-10.51,10.16-13.69,31.21c-4,2.78-6.23,3.88-6.76,3.33-.8-.83-1.18-3-1.12-6.53Q3223.91,2944.17,3236.49,2932Z"/><path id="Combined-Shape-5" data-name="Combined-Shape" class="cls-11" d="M3199,3643.92c-.26-3.82,3.92-6.37,12.55-7.6q7.22.72,28.1,12.75t52,30.84q31.13,18.81,39.33,22.55a91,91,0,0,1-34.86,12.12c-27.8,4-58.24,7.2-92.54-5.95q-7.07-3.9-14.58-8.16a85.24,85.24,0,0,1-13.71-9.6,32.6,32.6,0,0,1-9.08-12.42,14.24,14.24,0,0,1,8.2-4.08c4.63-.66,8.39.16,11.25,2.46q19.35,21,44.95,25.33c17.07,2.88,36.2-4.3,56.69-6.84-10.07-8.22-18.52-14.72-23.41-18.57a83.92,83.92,0,0,0-17.66-10.37,78.91,78.91,0,0,0-10.22-4.05,84.62,84.62,0,0,1-10.74-4.27h0l-18.27-1.13Zm-71-46.41q7.71-2.31,17.94,7.95t27.1,30.48q16.88,20.23,29.08,30.06t22.77,6.65a19,19,0,0,0,9.88-6.4,84.8,84.8,0,0,0,10.25,5.47q7.91,3.8,9.08,6.86-18.53,5.57-32,6.9a48.52,48.52,0,0,1-20.91-7.89,125.56,125.56,0,0,1-19.08-17q-10.32-10.92-19.19-21.08a99.71,99.71,0,0,0-17.83-16.35,5.62,5.62,0,0,0-1.91,2,4.63,4.63,0,0,0,0,2.39c.21,1.08.42,2.16.63,3.22s.5,2.59.85,4.53c-4.75,1.43-7.61,1.84-8.6,1.23a38.3,38.3,0,0,1-7.91-12.32Q3122,3607.9,3128,3597.51Zm-62.83-50.77a9.44,9.44,0,0,1,6.14-2.22c1.56.11,3.82,1.16,6.81,3.12,1.71,3,2.68,7.12,2.93,12.42s.51,10.83.81,16.57a42.91,42.91,0,0,0,2.68,14.06q18.08,50.14,60.61,59.06c0-.43.91,1.6,2.67,6.12s2.57,7.78,2.43,9.75c-.18,2.63-1.61,3.85-4.27,3.66q-36.2-6.48-59.79-38.5-6.2-12.32-11.41-25.56a155.81,155.81,0,0,1-8-27.65A118.59,118.59,0,0,1,3065.17,3546.74Zm54.82-9a52.83,52.83,0,0,1,14.25,9.42c3.57,3.44,8.49,8.7,14.8,15.72s11.23,12.27,14.79,15.73a307.19,307.19,0,0,1,18.75,30.64q6.45,12.55,5.19,24.61c-1.41-.36-2.67-.66-3.8-.9s-2.6-.44-4.36-.63q-4.49-18.6-14.59-32a286.19,286.19,0,0,0-26.87-30q-16.77-16.61-22.63-24.46A18.64,18.64,0,0,1,3120,3537.72Zm-60.37-104.51c.44.35,2,1.54,4.58,3.55a89.86,89.86,0,0,1,17.55,35.54c4.67,18.74,16.25,49.61,17.69,83.55q4.65,18.62,11,19.39a6.8,6.8,0,0,0,3.33.51q4.77-1.18,5-13l4.91,1.13a8.11,8.11,0,0,1,3.08,1.25,9.09,9.09,0,0,1,2.11,3.16q0,22.47-9.82,26.59-3.18.14-11-4.63-15.15-8.28-20.1-28.18a88.42,88.42,0,0,1-2.65-17.95c-.24-5.86-5.51-18.42-9-33.83s-9.11-34.26-10.63-37-3.08-3.93-4.67-3.54q-2.73,4-4.79,13.44t-5.12,13.18h0l-8-7.06q2.17-13.62,3.62-23.21a108.33,108.33,0,0,1,4.18-17.81A43.77,43.77,0,0,1,3059.62,3433.21Zm-23.68-36.09q11.74-.59,27.31,7.77a124.62,124.62,0,0,1,28.08,20.59,149.15,149.15,0,0,1,28.72,43.88q10.78,25.41,9.12,49c-1,1.85-1.69,2.84-2,3A11.53,11.53,0,0,1,3124,3520a29.86,29.86,0,0,0-7.45-2.37,4.82,4.82,0,0,1-2.34-2.57q-1-2.4-.69-7.9a32.32,32.32,0,0,0-.31-8.43q-1.6-16.78-6.34-28a86.53,86.53,0,0,0-17.5-26.45,139.77,139.77,0,0,0-25.06-20.56q-13.86-8.91-29.89-17.81Q3034.48,3398.48,3035.94,3397.12ZM2969.12,3367l13,18.54a168.63,168.63,0,0,0,16.12,79.95,166.91,166.91,0,0,0,13.57,24q11.85,14,25.35,21.07a134.59,134.59,0,0,0,31.47,11.35c1.05,4.34,1.76,7.24,2.16,8.75a8.81,8.81,0,0,1,.36,3.63,12.9,12.9,0,0,1-1.74,3.87q-21-2.49-36.2-8.78t-28.3-20.41a327.67,327.67,0,0,1-19.73-36q-13.7-29.37-18.42-56.64t2.41-49.38Zm31.51-61.59c3-1.68,5.61-1.85,7.75-.54q8.84,20.77,9.4,39.16T3015,3391q-1.09,21,3.7,29.66a32.7,32.7,0,0,0,3.56,4.82,27.07,27.07,0,0,0,5.7-4.25,26.07,26.07,0,0,1,3.64-3.13,4.27,4.27,0,0,1,3.67.18,10.4,10.4,0,0,1,4.63,4h0L3026.82,3458a3.75,3.75,0,0,1-.78,1,4.45,4.45,0,0,0-.78,1,111.9,111.9,0,0,1-11.92-17.49q-9.42-17-11-33.43a264.92,264.92,0,0,1-.21-39.62,335,335,0,0,0,.49-38.11c-1.88-2.71-3.84-3.52-5.86-2.4a28.35,28.35,0,0,0-4.39,5.26c-1.48,2.2-2.68,4.07-3.63,5.59-1.42-1.47-2.82-2.94-4.24-4.43a38.2,38.2,0,0,1-3.31-3.82,13.74,13.74,0,0,1-1.82-6.52q1.82-1,9-9T3000.63,3305.37Zm8.28-59.26a2.87,2.87,0,0,1,3.47.34q9.54,8.6,17.65,23.2,4.6,8.32,17.29,38.76,6.25,23.15,7.44,41.41a100.21,100.21,0,0,1-3.67,34.82h0l-1.79,1c-3.12-1.26-5.62-2.19-7.54-2.75a12.91,12.91,0,0,1-4.51-2.2,34.09,34.09,0,0,0,.53-8.9q5.35-20.19-1.68-45.35t-22.28-52.69q-8.1-14.61-12.08-20.66a15.29,15.29,0,0,0,3.81-3.6A15.53,15.53,0,0,1,3008.91,3246.11Zm-42.52-36.44q3.15,10.64.68,26.06t-5.31,31.79q-2.84,16.39-.33,27,4.7,26.68,15.33,45.89a94.36,94.36,0,0,0,17.43,22.59q1,2.86.06,7.84c-.6,3.33-1.46,5.3-2.54,5.9-1.57.87-3.4-.6-5.52-4.44q-15.17-17.82-23.28-32.46a131.52,131.52,0,0,1-11.18-25.31q-6-25.16-1.14-53.35A201.68,201.68,0,0,1,2966.39,3209.67Zm20.08-52.23q4.17-5.8,10-5.18,8.48,19.81,7.19,33.54t-7.39,44.59q-6.13,30.87-2.67,47.78,2.31-1.56,6.72-4.72c2.94-2.1,4.68-3.52,5.22-4.28a29.2,29.2,0,0,1,6,8.22c1.55,3.12,1.89,5.27,1,6.45h0l-10.44,14.53a32.73,32.73,0,0,0-5.38,2.61,8.47,8.47,0,0,1-6.2,1.24q-2.85-.64-7.95-5.53-8.6-16.87-7.19-33.54t8.58-42.69q7.18-26,8-38.56c.24-1.78-1-4-3.81-6.67a32.4,32.4,0,0,0-5.11.58c-2.1.39-3.47,1-4.11,1.91Q2982.78,3162.59,2986.47,3157.44Zm35.5-72.63q2.88,16.59,1.39,43.69-.57,14-1.21,29.95a206.76,206.76,0,0,1-2.79,27.94,91.15,91.15,0,0,1-7.81,23.65,1.9,1.9,0,0,1-2.71.12,43.69,43.69,0,0,1-5.37-6.15q8.75-20.31,9-56.49-.51-2.79.08-15.3t-1.9-17.84q-3.28-2.05-3.86-2.43c-.38-.25-.9-.08-1.55.51q-7,10-13.18,18.78a135.67,135.67,0,0,0-10.81,18,64.84,64.84,0,0,0-6.12,19.75,46.54,46.54,0,0,0,2.33,21.79,16.92,16.92,0,0,1-5,8.93q-8.74-11.2-8.91-34.26a128,128,0,0,1,16.43-37.34,158.43,158.43,0,0,1,26.48-31.66A94.66,94.66,0,0,1,3022,3084.81Z"/><path id="Path-18" data-name="Path" class="cls-3" d="M3062.79,3567.74a604.49,604.49,0,0,1-84.23-189.25,539.17,539.17,0,0,1-8.59-168.43c5.15-54.25,28.9-84.18,15.43-89.69s-40.85,73-34.75,189.44c4.72,90.11,35.7,153.41,58.89,199.82,0,0,42.5,85.13,104.06,142.08,23.91,22.12,41.74,43.25,50.18,37.66s-9.35-15.67-18-24.24C3116.53,3634.43,3086.52,3602.92,3062.79,3567.74Z"/><path id="Path-19" data-name="Path" class="cls-3" d="M3223.4,3279.06c2.38,5,30.7-9.09,60-17.75,24-7.12,50.25-8.78,50.25-8.78,59-3.75,108.65,27.65,116.06,32.48,62.76,40.8,79.07,109,88.08,105.7s-7-34.63-23.46-60.36c-31.41-49.12-77.55-70.43-100.22-78.65a190.33,190.33,0,0,0-79.1-12.11C3274.14,3243.65,3219.08,3270,3223.4,3279.06Z"/><path id="Path-20" data-name="Path" class="cls-3" d="M3034.43,3064.37c-7.9-7.65,32-37.28,80-65.51,65-38.26,130.64-52.92,131.47-43.51s-37.1,9.62-92.26,36.2C3078.57,3027.72,3042.32,3072,3034.43,3064.37Z"/></g><g id="Group-2-3" data-name="Group"><path id="Combined-Shape-6" data-name="Combined-Shape" class="cls-1" d="M4580.37,3295.1l.26-.16a110,110,0,0,0,39.42-150.48Q4460.74,2872,4273.11,2566.24,4085,2259.64,3919.69,2003a110,110,0,0,0-147.47-35.69h0L3122,2342.74a110,110,0,0,0-42.83,145.57q139.6,271.47,311.07,587.68,171,315.39,327.27,589.57a110,110,0,0,0,150,41.11l.27-.16h0l712.59-411.41Z"/><path id="Oval-3" data-name="Oval" class="cls-1" d="M3745.57,3713.91c-6.32-10.95-31.63-48.93-29.83-63.6,10.9-88.63,186.65-213,400.46-336.49,209.07-120.71,396.87-212.28,482.55-182.17,16.45,5.78,42.08,48.82,49.25,61.24,44.51,77.09-121.42,256.21-370.62,400.09S3790.08,3791,3745.57,3713.91Z"/><g id="Combined-Shape-7" data-name="Combined-Shape"><g id="Mask-5" data-name="Mask"><path id="path-9-2" data-name="path-9" class="cls-6" d="M4408.28,3219.55q1.49-.86,2.94-1.74a160,160,0,0,0,53.89-219.76h0l-587-968.45q-620.16,373-711.87,408.21-13.51,5.18-19.86,12.78-16.86-4.46-32.3-8,241.71,439.71,376.16,692.63,91.25,171.63,177,324.91A160,160,0,0,0,3885,3521.67l1.88-1.07Z"/></g><g id="Oval-4" data-name="Oval"><path id="path-11-2" data-name="path-11" class="cls-7" d="M3707.35,3530.47c-6.31-10.93-31.32-49-30.37-63.2,5.75-85.58,160.85-198.05,350.86-307.75,185.8-107.27,353.5-187.26,433.44-153.91,15.35,6.4,40.9,49.43,48.06,61.84,44.46,77-99,243.09-320.49,371S3751.82,3607.48,3707.35,3530.47Z"/></g><path id="path-13-2" data-name="path-13" class="cls-6" d="M3677.87,3474.05c4.47,17,24,46.94,29.48,56.42,44.47,77,260,35.79,481.5-92.07s364.95-293.94,320.49-371c-5.05-8.74-19.22-32.69-32.53-48.31h0c12.58,83.42-124.87,232.64-327.77,349.79-206,118.91-406.82,162.89-469.7,106.52Z"/></g></g></g><g id="Path-21" data-name="Path"><g id="Mask-6" data-name="Mask"><path id="path-15-3" data-name="path-15" class="cls-3" d="M3100.83,2125.8c13.26-23.83,64.6-112.66,175.68-146.78,98.78-30.26,182,1.81,205.86,12,6.64-16.18,56-131.15,180.38-167.2,89.62-26,164.15,4.64,187.4,14.57,137.16,58.67,176.75,201.49,182,221.66,17.5.36,59.12,4.16,94.34,34.74,63.46,54.88,54.1,152.07,36.52,176.46a193.12,193.12,0,0,1-11.93,17.53c-7.54,9.59-14.8,19.08-18.38,36.44-2.55,12.78-2.42,26.57-10.52,47.38-5.72,14.28-8.42,21.55-13.32,22.65-20.24,4.47-41.55-88.13-78.27-87.8-18.95.19-51.8,24.43-58.76,31.18a10.79,10.79,0,0,1-1.2.94c-16,13.6-12.17,40.5-10.29,52.71,10.42,67.41,76.2,148.63,50.16,194.19-2,3.45-10.5,18.33-24.65,20.37-45.25,6.7-61.46-130.51-160.72-173.22-41.32-17.76-107.78-23.75-128.69,4.09-48.59,64.55,132.34,319.13,115.57,357.73-5.29,12.23-13.92,15.38-13.92,15.38-10.33,3.76-21.65-3.1-25.51-5.46-35.28-21.49-61-120.21-61-120.21-6.61-19.46-54.05-198.52-152.83-206.49-29.74-2.41-54.94,11.31-65.5,17-37.8,20.67-37.63,44.34-65.32,70.61-69.56,66-102.63,34.32-158.58,81-41.24,34.39,36.55,131.35,27.55,153.53a51.87,51.87,0,0,1-9,14.71,41.15,41.15,0,0,1-15.81,10.54c-10.28,2.29-37.7-52.47-69.7-103.13-9.7-15.36-14.44-36-25.2-48.74-7.56-8.94-18-16-25.36-18.31-76.55-21.93-134.67-84-150-160.55-21.67-107.87,53.41-185,59.28-190.86A327.07,327.07,0,0,1,3100.83,2125.8Z"/></g><g class="cls-12"><path class="cls-9" d="M3057.6,2051.33c13.26-23.83,64.6-112.65,175.67-146.78,98.78-30.26,182,1.81,205.86,12,6.64-16.18,56-131.15,180.39-167.2,89.62-26,164.15,4.64,187.4,14.57,137.16,58.68,169.36,175.9,180.41,269.87s44,39.24,100.19,75.9c41.12,26.84,49.82,62.71,32.24,87.1-39.52,40.53-113.05,21.22-152.6,44.05-42.45,24.51-52,64.77-50.08,77,10.42,67.41-35.94,84-135.21,41.33-41.32-17.76-107.78-23.74-128.69,4.09-48.59,64.56-38.91,48.93-137.69,41-29.74-2.42-54.95,11.31-65.5,17-37.8,20.66-37.63,44.34-65.32,70.61-69.56,66-102.63,34.32-158.58,81-41.24,34.38-123.17,47.46-206.75,0s-45.42-75.38-60.8-151.95c-21.67-107.86,53.42-185,59.28-190.85A327,327,0,0,1,3057.6,2051.33Z"/></g></g></g><g id="Group-5"><path id="Combined-Shape-8" data-name="Combined-Shape" class="cls-13" d="M4017.81,2451.22l.29-.19.14-.08a20.91,20.91,0,0,1,28.76,6.86h0L4393,3021a21.24,21.24,0,0,1-6.84,29.12l-.14.08a20.91,20.91,0,0,1-28.76-6.87h0l-346-563.19a21.22,21.22,0,0,1,6.83-29.11ZM3735.32,3092.5a21,21,0,0,1,28.55,7.4l.18.3h0L3899,3334a21,21,0,0,1-36.25,21.33l-.18-.3h0l-134.94-233.75A21,21,0,0,1,3735.32,3092.5ZM3467.1,2900a21,21,0,0,1,28.72,7.7h0l223.73,387.56a21,21,0,1,1-36.42,21h0L3459.4,2928.76A21,21,0,0,1,3467.1,2900Z"/><path id="Combined-Shape-9" data-name="Combined-Shape" class="cls-14" d="M3455.48,2742.65a34.93,34.93,0,1,1-49,6A34.93,34.93,0,0,1,3455.48,2742.65ZM3634,2866a27.71,27.71,0,1,1-36.82,13.4A27.71,27.71,0,0,1,3634,2866Zm-83.35-270.44a27.71,27.71,0,1,1-38.9,4.77A27.72,27.72,0,0,1,3550.66,2595.52Zm283.26,305.64a27.72,27.72,0,1,1-32.87,21.34A27.72,27.72,0,0,1,3833.92,2901.16Zm-150.84-286a22.23,22.23,0,1,1-22.23,22.23A22.25,22.25,0,0,1,3683.08,2615.18Zm485.65,465a13.86,13.86,0,1,1-10.38,16.62A13.86,13.86,0,0,1,4168.73,3080.19Zm-108.17-140.82a17.9,17.9,0,1,1-8.24,23.93A17.9,17.9,0,0,1,4060.56,2939.37ZM3894.11,2662.1a27.49,27.49,0,1,1-38.66-4.06A27.48,27.48,0,0,1,3894.11,2662.1Z"/></g></g><g id="Group-5-2" data-name="Group-5"><path id="Combined-Shape-10" data-name="Combined-Shape" class="cls-13" d="M1743.38,2469.13l-.3-.19-.13-.08a20.9,20.9,0,0,0-28.75,6.86h0l-345.8,562.8a21.22,21.22,0,0,0,6.84,29.1h0l.13.08a20.9,20.9,0,0,0,28.75-6.86h0L1749.91,2498a21.21,21.21,0,0,0-6.83-29.1Zm282.41,640.92a21,21,0,0,0-28.54,7.39l-.18.31h0l-134.84,233.57a21,21,0,0,0,36.23,21.33l.18-.3,134.84-233.58A21,21,0,0,0,2025.79,3110.05Zm268.07-192.32a21,21,0,0,0-28.54,7.39l-.18.3-223.58,387.29a21,21,0,0,0,36.41,21h0l223.58-387.28A21,21,0,0,0,2293.86,2917.73Z"/><path id="Combined-Shape-11" data-name="Combined-Shape" class="cls-14" d="M2266.06,2775.32a34.91,34.91,0,1,0,47.9,11.94A34.92,34.92,0,0,0,2266.06,2775.32Zm-192.14,100.6a27.69,27.69,0,1,0,34.9,17.77A27.71,27.71,0,0,0,2073.92,2875.92Zm115.66-258.13a27.69,27.69,0,1,0,38,9.47A27.71,27.71,0,0,0,2189.58,2617.79Zm-318.25,268.73a27.69,27.69,0,1,0,30,25.17A27.71,27.71,0,0,0,1871.33,2886.52Zm184.5-265.34a22.22,22.22,0,1,0,19.34,24.76A22.24,22.24,0,0,0,2055.83,2621.18Zm-538.45,402.19a13.85,13.85,0,1,0,8.27,17.75A13.86,13.86,0,0,0,1517.38,3023.37Zm124.47-126.53a17.89,17.89,0,1,0,5.25,24.75A17.89,17.89,0,0,0,1641.85,2896.84ZM1840.76,2642a27.48,27.48,0,1,0,38.85.68A27.48,27.48,0,0,0,1840.76,2642Z"/></g></g></g></svg>