<svg xmlns="http://www.w3.org/2000/svg" viewBox="0 0 771.96 771.96"><defs><style>.cls-1{fill:#ffd232;}</style></defs><g id="Layer_2" data-name="Layer 2"><g id="Layer_2-2" data-name="Layer 2"><path class="cls-1" d="M386,772A386.08,386.08,0,0,1,235.73,30.34a386.08,386.08,0,0,1,300.5,711.28A383.64,383.64,0,0,1,386,772Zm0-732C195.21,40,40,195.21,40,386S195.21,732,386,732,732,576.75,732,386,576.75,40,386,40Zm0,645.7A299.72,299.72,0,0,1,174.05,174,299.72,299.72,0,1,1,597.91,597.91,297.75,297.75,0,0,1,386,685.7Zm0-589.44c-159.75,0-289.72,130-289.72,289.72S226.23,675.7,386,675.7,675.7,545.73,675.7,386,545.73,96.26,386,96.26Zm0,574c-7.91,0-15.89-.33-23.73-1a2.5,2.5,0,1,1,.41-5,284.63,284.63,0,0,0,29.7.89,2.5,2.5,0,1,1,.11,5C390.31,670.27,388.12,670.3,386,670.3Zm21.41-.8a2.5,2.5,0,0,1-.19-5,279.28,279.28,0,0,0,29.47-3.79,2.5,2.5,0,0,1,.9,4.92,286.53,286.53,0,0,1-30,3.86Zm-59.84-1.8-.34,0a283.82,283.82,0,0,1-29.7-5.67,2.5,2.5,0,1,1,1.2-4.86,276.53,276.53,0,0,0,29.18,5.58,2.5,2.5,0,0,1-.34,5Zm104.24-5.13a2.5,2.5,0,0,1-.58-4.93,279.58,279.58,0,0,0,28.49-8.45,2.5,2.5,0,0,1,1.68,4.71,283.92,283.92,0,0,1-29,8.6A2.3,2.3,0,0,1,451.79,662.57Zm-148.14-4.49a2.35,2.35,0,0,1-.73-.11,282.92,282.92,0,0,1-28.41-10.36,2.5,2.5,0,0,1,2-4.6,277.91,277.91,0,0,0,27.91,10.18,2.5,2.5,0,0,1-.73,4.89Zm190.9-9.46a2.49,2.49,0,0,1-1-4.8,281.46,281.46,0,0,0,26.77-12.91,2.5,2.5,0,0,1,2.4,4.38,282,282,0,0,1-27.25,13.14A2.49,2.49,0,0,1,494.55,648.62Zm-232.67-7a2.57,2.57,0,0,1-1.1-.26,285.2,285.2,0,0,1-26.39-14.76,2.5,2.5,0,0,1,2.67-4.23A279.89,279.89,0,0,0,263,636.83a2.5,2.5,0,0,1-1.11,4.75ZM534.52,628a2.5,2.5,0,0,1-1.32-4.62,283.38,283.38,0,0,0,24.37-17,2.5,2.5,0,0,1,3.07,4,286.52,286.52,0,0,1-24.81,17.3A2.43,2.43,0,0,1,534.52,628Zm-311.25-9.41a2.49,2.49,0,0,1-1.44-.46,286.8,286.8,0,0,1-23.72-18.76,2.5,2.5,0,1,1,3.31-3.75,280.9,280.9,0,0,0,23.3,18.43,2.5,2.5,0,0,1-1.45,4.54Zm347.42-17.28a2.5,2.5,0,0,1-1.64-4.39,283.2,283.2,0,0,0,21.37-20.64,2.5,2.5,0,1,1,3.66,3.41,289.46,289.46,0,0,1-21.75,21A2.51,2.51,0,0,1,570.69,601.33ZM188.78,589.81a2.53,2.53,0,0,1-1.75-.71,289.37,289.37,0,0,1-20.46-22.28,2.5,2.5,0,1,1,3.86-3.18,283,283,0,0,0,20.1,21.88,2.5,2.5,0,0,1-1.75,4.29Zm413.39-20.54a2.46,2.46,0,0,1-1.6-.59,2.49,2.49,0,0,1-.31-3.52A282.06,282.06,0,0,0,618.1,541.4a2.5,2.5,0,0,1,4.15,2.79,285.62,285.62,0,0,1-18.16,24.18A2.49,2.49,0,0,1,602.17,569.27Zm-442.9-13.36a2.51,2.51,0,0,1-2-1,285.06,285.06,0,0,1-16.67-25.24,2.5,2.5,0,0,1,4.31-2.53,284.8,284.8,0,0,0,16.38,24.8,2.5,2.5,0,0,1-2,4Zm468.91-23.27a2.63,2.63,0,0,1-1.28-.35,2.51,2.51,0,0,1-.86-3.43,278.91,278.91,0,0,0,13.83-26.29,2.5,2.5,0,0,1,4.55,2.09,285.43,285.43,0,0,1-14.09,26.76A2.51,2.51,0,0,1,628.18,532.64Zm-492.69-14.9a2.49,2.49,0,0,1-2.22-1.35,281.86,281.86,0,0,1-12.44-27.58,2.5,2.5,0,0,1,4.66-1.81,277.67,277.67,0,0,0,12.22,27.09,2.5,2.5,0,0,1-2.22,3.65ZM648,492.36a2.67,2.67,0,0,1-.92-.17,2.51,2.51,0,0,1-1.4-3.25,280.39,280.39,0,0,0,9.46-28.16,2.5,2.5,0,1,1,4.82,1.33,286.31,286.31,0,0,1-9.63,28.67A2.51,2.51,0,0,1,648,492.36ZM118.1,476.26a2.49,2.49,0,0,1-2.37-1.72,282.94,282.94,0,0,1-7.87-29.22,2.5,2.5,0,0,1,4.9-1,277.88,277.88,0,0,0,7.72,28.7,2.51,2.51,0,0,1-1.6,3.16A2.64,2.64,0,0,1,118.1,476.26Zm543.1-26.87a2.51,2.51,0,0,1-2.45-3A278.06,278.06,0,0,0,663.59,417a2.5,2.5,0,1,1,5,.55,285.52,285.52,0,0,1-4.92,29.84A2.5,2.5,0,0,1,661.2,449.39ZM107.59,432.56a2.5,2.5,0,0,1-2.47-2.11,284.85,284.85,0,0,1-3.1-30.08,2.5,2.5,0,0,1,5-.25,283.06,283.06,0,0,0,3,29.55,2.51,2.51,0,0,1-2.08,2.86A2.66,2.66,0,0,1,107.59,432.56Zm559.74-27.68h-.15a2.5,2.5,0,0,1-2.35-2.64c.31-5.38.47-10.85.47-16.25a284.38,284.38,0,0,0-1.56-29.67,2.5,2.5,0,0,1,5-.53A289.2,289.2,0,0,1,670.3,386c0,5.5-.16,11.06-.48,16.54A2.5,2.5,0,0,1,667.33,404.88ZM104.16,387.76h0a2.51,2.51,0,0,1-2.5-2.51,291.64,291.64,0,0,1,1.66-30.19,2.5,2.5,0,1,1,5,.54,287.13,287.13,0,0,0-1.63,29.66A2.5,2.5,0,0,1,104.16,387.76Zm560.09-44.08a2.49,2.49,0,0,1-2.46-2.1,278.53,278.53,0,0,0-6.25-29.05,2.5,2.5,0,1,1,4.82-1.31,280.8,280.8,0,0,1,6.36,29.57,2.5,2.5,0,0,1-2.07,2.86A2.69,2.69,0,0,1,664.25,343.68ZM107.82,343a2.69,2.69,0,0,1-.4,0,2.5,2.5,0,0,1-2.07-2.87,282.73,282.73,0,0,1,6.44-29.55,2.5,2.5,0,0,1,4.82,1.32,278.43,278.43,0,0,0-6.32,29A2.51,2.51,0,0,1,107.82,343Zm545.81-43a2.5,2.5,0,0,1-2.37-1.72,280.13,280.13,0,0,0-10.82-27.67,2.5,2.5,0,1,1,4.55-2.07,283.57,283.57,0,0,1,11,28.18,2.49,2.49,0,0,1-1.59,3.15A2.42,2.42,0,0,1,653.63,300Zm-535.08-.69a2.42,2.42,0,0,1-.79-.13,2.49,2.49,0,0,1-1.58-3.16,282.76,282.76,0,0,1,11.08-28.14,2.5,2.5,0,0,1,4.55,2.08,280.09,280.09,0,0,0-10.89,27.64A2.48,2.48,0,0,1,118.55,299.33Zm517.6-40.74a2.48,2.48,0,0,1-2.22-1.35,282.37,282.37,0,0,0-15.1-25.59,2.5,2.5,0,1,1,4.16-2.77,284.34,284.34,0,0,1,15.37,26.06,2.49,2.49,0,0,1-2.21,3.65Zm-500-.59a2.55,2.55,0,0,1-1.16-.29,2.5,2.5,0,0,1-1.05-3.37,281.46,281.46,0,0,1,15.43-26,2.5,2.5,0,1,1,4.15,2.78,280.68,280.68,0,0,0-15.15,25.54A2.5,2.5,0,0,1,136.12,258Zm476.16-37.51a2.51,2.51,0,0,1-2-1,281.87,281.87,0,0,0-19-22.87,2.5,2.5,0,1,1,3.68-3.39,288.06,288.06,0,0,1,19.3,23.28,2.49,2.49,0,0,1-2,4ZM160.06,220a2.5,2.5,0,0,1-2-4,287.94,287.94,0,0,1,19.35-23.23,2.5,2.5,0,1,1,3.67,3.4,282.25,282.25,0,0,0-19,22.83A2.5,2.5,0,0,1,160.06,220Zm422.62-33.32a2.44,2.44,0,0,1-1.74-.71,280.78,280.78,0,0,0-22.35-19.58,2.5,2.5,0,0,1,3.1-3.93,288.69,288.69,0,0,1,22.74,19.93,2.5,2.5,0,0,1-1.75,4.29Zm-392.95-.43a2.5,2.5,0,0,1-1.74-4.3A288.76,288.76,0,0,1,210.77,162a2.5,2.5,0,0,1,3.09,3.94,282.62,282.62,0,0,0-22.39,19.54A2.52,2.52,0,0,1,189.73,186.23ZM548.12,158a2.49,2.49,0,0,1-1.44-.46,279.07,279.07,0,0,0-25.16-15.79,2.5,2.5,0,1,1,2.43-4.37,281,281,0,0,1,25.61,16.08,2.5,2.5,0,0,1-1.44,4.54Zm-323.75-.38a2.5,2.5,0,0,1-1.44-4.54,284.93,284.93,0,0,1,25.66-16,2.5,2.5,0,1,1,2.42,4.38,279.36,279.36,0,0,0-25.21,15.74A2.42,2.42,0,0,1,224.37,157.57Zm285.09-22.48a2.49,2.49,0,0,1-1.09-.26A280.7,280.7,0,0,0,481,123.24a2.5,2.5,0,0,1,1.7-4.7,285.84,285.84,0,0,1,27.85,11.8,2.5,2.5,0,0,1-1.1,4.75Zm-246.33-.31A2.5,2.5,0,0,1,262,130a282.38,282.38,0,0,1,27.88-11.73,2.5,2.5,0,1,1,1.69,4.7,278.33,278.33,0,0,0-27.39,11.53A2.51,2.51,0,0,1,263.13,134.78Zm204.5-16.11a2.25,2.25,0,0,1-.72-.11,280.38,280.38,0,0,0-28.86-7.06,2.5,2.5,0,1,1,.92-4.91,281.51,281.51,0,0,1,29.38,7.19,2.5,2.5,0,0,1-.72,4.89ZM305,118.47a2.5,2.5,0,0,1-.72-4.9,284.07,284.07,0,0,1,29.4-7.11,2.5,2.5,0,0,1,.91,4.92,277,277,0,0,0-28.87,7A2.57,2.57,0,0,1,305,118.47Zm118.7-9.3-.33,0a283.8,283.8,0,0,0-29.61-2.37,2.5,2.5,0,0,1,.07-5h.06A288.29,288.29,0,0,1,424,104.19a2.5,2.5,0,0,1-.33,5Zm-74.76-.1a2.5,2.5,0,0,1-.32-5,288.41,288.41,0,0,1,30.15-2.34,2.5,2.5,0,1,1,.12,5,283.7,283.7,0,0,0-29.62,2.3ZM660.19,214.88c-6.94,4.58-11.71,3.23-13.89-.08s-1.55-8.23,5.39-12.8,11.74-3.3,13.95.05S667.15,210.29,660.19,214.88Zm-12.48-1c1,1.56,3.59,1.85,10.17-2.49s7.39-6.84,6.36-8.41-3.56-1.88-10.24,2.52S646.65,212.26,647.71,213.87Zm13,21-1.23.71L652.77,224l1.23-.72,3.17,3.62,2,3.52ZM676.51,220l-.06.6L672.1,223l-8.59,5c-2.07,1.2-4.19,2.47-6.25,3.74L655,227.88c2.13-1.15,4.28-2.36,6.35-3.56l10.37-6L669.45,215l1.48-.86Zm1.33,27c-7.41,3.75-12,1.88-13.79-1.66s-.6-8.35,6.81-12.11,12-1.94,13.85,1.64S685.28,243.28,677.84,247.05Zm-12.28-2.43c.85,1.68,3.35,2.26,10.39-1.31s8.11-6,7.27-7.63-3.33-2.28-10.46,1.34S664.69,242.91,665.56,244.62ZM676.11,267l-1.3.57-5.36-12.26,1.3-.57,2.74,4,1.63,3.73ZM693.48,254l-.13.59-4.59,1.85-9.1,4c-2.19,1-4.44,2-6.63,3l-1.77-4.06c2.24-.91,4.52-1.86,6.71-2.82l11-4.8L687,248.26l1.56-.68Zm-1.76,27c-7.79,2.89-12.13.5-13.5-3.22s.35-8.37,8.15-11.25,12.17-.55,13.57,3.21S699.55,278.16,691.72,281.05Zm-11.92-3.81c.65,1.76,3.07,2.62,10.47-.11s8.74-5,8.09-6.76-3-2.64-10.54.14S679.13,275.44,679.8,277.24Zm17.38,21.34c-7.94,2.43-12.13-.19-13.29-4s.83-8.33,8.77-10.76,12.19.14,13.36,4S705.16,296.14,697.18,298.58ZM685.5,294.1c.55,1.79,2.92,2.79,10.46.48s9-4.49,8.46-6.28-2.89-2.81-10.53-.47S684.94,292.26,685.5,294.1Zm6.57,23.78-1.38.34-3.18-13,1.38-.34,2,4.37,1,3.95Zm19.32-9.76-.22.56-4.84,1-9.65,2.36c-2.32.57-4.71,1.19-7,1.83l-1-4.3c2.36-.51,4.77-1.06,7.09-1.63l11.64-2.85-1.28-3.8,1.66-.41Zm-16,27.27-1.4.26-2.43-13.16,1.39-.26,1.77,4.48.74,4Zm19.84-8.64-.25.54-4.9.76-9.76,1.81c-2.35.43-4.77.92-7.13,1.43l-.81-4.36c2.39-.37,4.82-.78,7.17-1.22l11.79-2.18-1.07-3.87,1.68-.31Zm-7.11,33.78c-8.27.84-11.87-2.55-12.27-6.5s2.44-8,10.7-8.85,11.93,2.5,12.34,6.5S716.46,359.68,708.16,360.53Zm-10.59-6.67c.19,1.86,2.32,3.3,10.16,2.5s9.72-2.64,9.53-4.51S715,348.53,707,349.34,697.37,352,697.57,353.86Zm1.83,24.61-1.42.07-.6-13.37,1.42-.06,1.13,4.67.19,4.06Zm20.85-5.83-.33.5-4.95.08-9.92.45c-2.39.11-4.85.26-7.27.43l-.2-4.42c2.42,0,4.89-.12,7.28-.22l12-.55-.52-4,1.7-.08Zm-21,23.64-1.42,0,.22-13.37,1.42,0,.85,4.74-.07,4.06Zm21.17-4.55-.36.49-5-.22-9.93-.17c-2.39,0-4.86,0-7.27,0l.07-4.43c2.42.11,4.88.19,7.27.23l12,.19-.28-4,1.71,0ZM707.8,415.56c-8.28-.56-11.27-4.51-11-8.47s3.75-7.48,12-6.93,11.34,4.47,11.07,8.48S716.13,416.11,707.8,415.56Zm-9.31-8.36c-.13,1.88,1.73,3.65,9.59,4.18s10-1,10.15-2.85-1.7-3.66-9.68-4.19S698.61,405.29,698.49,407.2Zm-2.32,24.57-1.41-.18,1.65-13.27,1.4.17.34,4.8-.5,4Zm21.53-2.26-.41.44-4.9-.74L702.54,428c-2.37-.29-4.83-.56-7.23-.79l.54-4.39c2.39.36,4.84.7,7.21,1l11.9,1.47.15-4,1.69.21Zm-15.27,22.35c-8.18-1.49-10.7-5.76-10-9.66s4.58-7,12.75-5.53,10.76,5.73,10,9.68S710.63,453.35,702.43,451.86Zm-8.32-9.36c-.34,1.85,1.31,3.82,9.07,5.23s10.07.16,10.4-1.68-1.27-3.82-9.14-5.26S694.45,440.61,694.11,442.5ZM689,466.67l-1.38-.33,3.15-13,1.38.33-.22,4.81-1,3.95Zm21.65.2-.45.4-4.78-1.3-9.66-2.34c-2.32-.56-4.73-1.11-7.1-1.61l1-4.3c2.34.63,4.73,1.25,7.06,1.81l11.65,2.82.61-4,1.66.41ZM684,483.74l-1.36-.41,3.88-12.8,1.36.41-.49,4.79-1.18,3.89Zm21.59,1.45-.47.37-4.7-1.58-9.5-2.88c-2.29-.69-4.66-1.38-7-2l1.28-4.24c2.29.77,4.64,1.52,6.93,2.21l11.47,3.49.84-3.94,1.63.5Zm-21.86,26.73c-7.73-3.05-9.36-7.72-7.9-11.42s5.85-6,13.57-2.93,9.44,7.72,8,11.45S691.44,515,683.68,511.92Zm-6.33-10.79c-.69,1.74.54,4,7.87,6.9s9.85,2.12,10.54.37-.51-4-8-6.93S678.06,499.34,677.35,501.13Zm-9.72,22.7-1.28-.59L672,511.1l1.29.59-1.15,4.68-1.71,3.69Zm21.2,4.44-.52.29-4.44-2.21-9-4.17c-2.17-1-4.43-2-6.65-3l1.86-4c2.17,1.08,4.39,2.15,6.56,3.16l10.88,5,1.37-3.78,1.55.72ZM659.34,539.6l-1.25-.67,6.3-11.8,1.26.66-1.42,4.61L662.32,536Zm20.91,5.63-.54.26L675.4,543l-8.75-4.68c-2.11-1.12-4.31-2.26-6.47-3.34l2.08-3.9c2.11,1.2,4.26,2.39,6.38,3.52l10.57,5.65,1.58-3.69,1.51.8ZM658,560.58c-7.09-4.33-7.91-9.21-5.84-12.6s6.78-4.9,13.87-.57,8,9.2,5.9,12.63S665.08,564.92,658,560.58Zm-4.4-11.72c-1,1.61-.15,4,6.58,8.14s9.34,3.77,10.31,2.17.19-4-6.64-8.19S654.56,547.22,653.56,548.86Zm-6,26.88c-6.84-4.72-7.38-9.64-5.12-12.91s7-4.51,13.89.22,7.45,9.65,5.16,13S654.45,580.49,647.59,575.74Zm-3.73-12c-1.07,1.55-.38,4,6.11,8.51s9.11,4.29,10.18,2.74.41-4-6.17-8.55S645,562.21,643.86,563.79Zm-7.48,26.5c-6.56-5.11-6.82-10-4.38-13.18s7.3-4.11,13.85,1,6.9,10.06,4.43,13.23S643,595.41,636.38,590.29Zm-3-12.14c-1.15,1.48-.6,4,5.62,8.83s8.86,4.8,10,3.32.64-4-5.68-8.89S634.51,576.63,633.33,578.15Zm-9,26c-6.26-5.46-6.23-10.41-3.62-13.4s7.51-3.69,13.77,1.77S640.84,603,638.2,606,630.67,609.64,624.38,604.15ZM622,591.86c-1.23,1.41-.83,3.95,5.11,9.14s8.57,5.29,9.8,3.87.86-3.93-5.16-9.19S623.29,590.41,622,591.86ZM605.28,610l-1-1,9.35-9.57,1,1-2.64,4-2.85,2.9Zm18.5,11.25-.59.1-3.44-3.56-7.1-6.94c-1.71-1.67-3.5-3.37-5.28-5l3.09-3.17c1.69,1.74,3.43,3.49,5.14,5.16l8.57,8.38,2.55-3.1,1.22,1.19Zm-31.71,13.64c-5.45-6.27-4.75-11.17-1.76-13.78s8-2.62,13.41,3.65,4.82,11.2,1.8,13.83S597.55,641.2,592.07,634.91Zm-.64-12.5c-1.42,1.23-1.37,3.8,3.8,9.75s7.77,6.42,9.18,5.18,1.4-3.78-3.85-9.81S592.87,621.15,591.43,622.41Zm-19.07,15.68-.87-1.12,10.58-8.19.87,1.12-3.17,3.62L576.56,636Zm16.78,13.68-.6,0-2.92-4-6.08-7.85c-1.47-1.89-3-3.82-4.54-5.69l3.5-2.71c1.43,2,2.91,3.93,4.37,5.82l7.34,9.47,3-2.72,1,1.35Zm-31.39-3.49-.8-1.17,11-7.58.8,1.17-3.36,3.44-3.35,2.3Zm16,14.61-.6,0-2.69-4.15-5.63-8.18c-1.35-2-2.78-4-4.21-5.94l3.65-2.51c1.31,2,2.68,4.08,4,6.06l6.79,9.87,3.1-2.55,1,1.4Zm-31.15-5.25-.74-1.22,11.44-6.94.73,1.21-3.55,3.24L547,656Zm15.13,15.49-.6,0-2.45-4.3-5.16-8.49c-1.24-2-2.55-4.14-3.87-6.17l3.79-2.3c1.19,2.1,2.44,4.23,3.69,6.28l6.22,10.24,3.25-2.37.88,1.46Zm-27,1.87c-3.9-7.34-2.12-12,1.39-13.82s8.34-.76,12.24,6.57,2.18,12-1.36,13.88S534.62,682.37,530.7,675Zm2.18-12.32c-1.65.88-2.18,3.39,1.52,10.35s6.12,8,7.78,7.12,2.2-3.37-1.55-10.43S534.58,661.77,532.88,662.68Zm-22.1,11-.59-1.29,12.15-5.6.59,1.29-3.9,2.82-3.69,1.7Zm13.27,17.11-.59-.12-1.94-4.55-4.16-9c-1-2.17-2.07-4.4-3.14-6.56l4-1.86c1,2.23,2,4.48,3,6.66l5,10.88,3.49-2,.72,1.55ZM497,689.57c-3-7.73-.74-12.12,2.95-13.57s8.37.19,11.41,7.92.8,12.16-2.94,13.63S500,697.33,497,689.57Zm3.57-12c-1.75.69-2.56,3.13.33,10.46s5.16,8.65,6.91,8,2.58-3.1-.35-10.54S502.35,676.87,500.56,677.57Zm-21,17.81c-2.59-7.89-.05-12.14,3.72-13.38s8.35.67,10.94,8.56.11,12.2-3.7,13.45S482.18,703.31,479.57,695.38Zm4.25-11.77c-1.78.59-2.73,3-.27,10.47s4.67,8.92,6.45,8.34,2.75-2.95.25-10.55S485.65,683,483.82,683.61Zm-29.7,18.33c-1.93-8.08.95-12.1,4.81-13s8.26,1.35,10.2,9.43-.9,12.15-4.8,13.09S456.07,710.05,454.12,701.94Zm5.2-11.38c-1.82.44-3,2.74-1.12,10.4s3.92,9.28,5.74,8.84,3-2.71,1.12-10.48S461.19,690.11,459.32,690.56Zm-24.14,5.09-.25-1.4,13.16-2.37.25,1.4L443.86,695l-4,.72Zm8.55,19.89-.54-.26-.74-4.9-1.76-9.77c-.43-2.35-.9-4.77-1.4-7.14l4.36-.79c.36,2.39.76,4.83,1.19,7.18l2.13,11.8,3.87-1,.31,1.68Zm-26.22-17.62-.18-1.4,13.29-1.63.17,1.41-4.58,1.49-4,.49Zm7.41,20.35-.53-.29-.46-4.93-1.21-9.86c-.29-2.38-.62-4.82-1-7.21l4.39-.54c.23,2.41.49,4.86.78,7.24l1.46,11.9,3.93-.83.21,1.7Zm-25.18-19.08-.09-1.41,13.35-.87.1,1.41-4.66,1.23-4.05.27ZM406,719.93l-.51-.32-.18-5-.64-9.91c-.16-2.39-.35-4.85-.58-7.26l4.42-.29c.09,2.42.21,4.88.37,7.27l.78,12,4-.61.11,1.71Zm-24.76-10.77c-.13-8.3,3.56-11.6,7.52-11.67s7.77,3.12,7.91,11.42-3.52,11.67-7.53,11.74S381.37,717.5,381.23,709.16Zm7.55-10c-1.87,0-3.49,2-3.36,9.92s1.81,9.9,3.68,9.87,3.5-2,3.37-10S390.7,699.15,388.78,699.18Zm-24.67-.44.07-1.42,13.36.63-.06,1.42-4.76.7-4.07-.2ZM368,720l-.47-.37.37-4.94.47-9.92c.11-2.39.19-4.85.24-7.27l4.42.21c-.18,2.41-.33,4.87-.44,7.26L372,717l4-.16-.08,1.71Zm-23.43-13.52c.86-8.26,4.91-11.1,8.86-10.69s7.34,4,6.48,12.28S355,719.27,351,718.86,343.71,714.81,344.57,706.51Zm8.69-9c-1.87-.2-3.71,1.59-4.53,9.43s.62,10.06,2.48,10.25,3.71-1.56,4.54-9.52S355.17,697.7,353.26,697.51Zm-26.82,6.16c1.32-8.2,5.53-10.81,9.45-10.17s7.1,4.43,5.78,12.63-5.51,10.87-9.47,10.23S325.1,711.9,326.44,703.67Zm9.18-8.5c-1.85-.3-3.79,1.38-5.05,9.16s0,10.07,1.89,10.37,3.8-1.35,5.07-9.24S337.52,695.47,335.62,695.17Zm-34.79,2.64c2-8.07,6.4-10.32,10.25-9.37s6.72,5,4.73,13.06-6.38,10.39-10.27,9.43S298.83,705.91,300.83,697.81Zm9.85-7.73c-1.82-.45-3.9,1.07-5.78,8.73s-.78,10,1,10.49,3.89-1,5.81-8.8S312.54,690.54,310.68,690.08Zm-25.33,15-.36-.48,1.59-4.69,2.93-9.49c.7-2.28,1.4-4.65,2-7l4.23,1.3c-.78,2.3-1.54,4.64-2.24,6.93L290,703.14l3.92.85-.5,1.64Zm1.55-21.59.41-1.36,12.79,4-.42,1.35-4.78-.51-3.89-1.2Zm-19.54,15.35-.33-.49,1.86-4.6,3.46-9.3c.83-2.24,1.66-4.57,2.44-6.86l4.15,1.55c-.91,2.24-1.8,4.54-2.64,6.78l-4.18,11.23,3.87,1.08-.59,1.6Zm2.78-21.46.49-1.34,12.54,4.67-.49,1.33-4.75-.78-3.81-1.42Zm-21,1.43c3.34-7.6,8.07-9.06,11.7-7.47s5.77,6.07,2.43,13.67-8.06,9.15-11.73,7.53S245.81,686.47,249.16,678.83Zm11-5.92c-1.72-.76-4,.39-7.19,7.6s-2.49,9.76-.77,10.52,4-.36,7.23-7.68S261.94,673.68,260.19,672.91Zm-27.52,10.47-.28-.53,2.37-4.35,4.5-8.85c1.09-2.13,2.17-4.35,3.21-6.53l3.94,2c-1.15,2.13-2.3,4.31-3.39,6.44l-5.43,10.69,3.72,1.51-.77,1.52Zm5.2-21,.65-1.26,11.92,6.06-.64,1.27-4.63-1.32-3.63-1.85ZM216,674.18l-.25-.55,2.62-4.21,5-8.58c1.21-2.07,2.42-4.22,3.58-6.34l3.82,2.23c-1.27,2-2.55,4.17-3.75,6.23l-6,10.36,3.64,1.72-.86,1.48Zm6.39-20.69.72-1.22L234.69,659l-.72,1.23-4.54-1.58-3.52-2Zm-20.92-2.15c4.59-6.93,9.49-7.57,12.8-5.37s4.65,6.95.07,13.88-9.5,7.64-12.84,5.42S196.89,658.29,201.49,651.34Zm11.87-4c-1.56-1-4-.3-8.38,6.28s-4.1,9.19-2.54,10.23,4,.33,8.43-6.34S215,648.43,213.36,647.37ZM184.45,653l-.19-.57,3.08-3.89,5.94-7.95c1.43-1.92,2.88-3.92,4.27-5.9l3.55,2.65c-1.5,1.9-3,3.85-4.44,5.77l-7.17,9.61,3.41,2.12-1,1.37Zm8.7-19.82.85-1.14,10.72,8-.85,1.14-4.34-2.08-3.26-2.44Zm-29.69,2.58-.13-.58,3.38-3.63,6.56-7.45c1.58-1.79,3.18-3.66,4.73-5.53l3.32,2.93c-1.65,1.77-3.31,3.6-4.89,5.39l-7.92,9,3.23,2.38-1.12,1.29Zm10.27-19,.94-1.07,10,8.84-.94,1.07-4.15-2.43-3.05-2.69Zm-24.11,6-.11-.59,3.58-3.43,7-7.07c1.68-1.7,3.39-3.48,5-5.25l3.15,3.11c-1.75,1.67-3.51,3.4-5.19,5.11l-8.42,8.53,3.09,2.57-1.2,1.22ZM161,604.27l1-1,9.52,9.4-1,1-4-2.66-2.9-2.86ZM141.22,597c6.16-5.58,11.07-5,13.73-2s2.78,7.9-3.38,13.47-11.09,5-13.79,2.07S135,602.6,141.22,597Zm12.48-.9c-1.26-1.39-3.83-1.29-9.67,4s-6.26,7.9-5,9.29,3.81,1.31,9.74-4S155,597.53,153.7,596.1Zm-24.08-13.33c6.47-5.22,11.34-4.34,13.83-1.25s2.33,8-4.13,13.25-11.37,4.42-13.89,1.29S123.13,588,129.62,582.77Zm12.52-.19c-1.18-1.46-3.75-1.5-9.89,3.45s-6.69,7.52-5.51,9,3.72,1.53,10-3.49S143.34,584.07,142.14,582.58Zm-23.3-14.69c6.75-4.85,11.56-3.7,13.88-.47s1.87,8.16-4.88,13-11.6,3.76-13.93.5S112.06,572.75,118.84,567.89Zm12.5.51c-1.09-1.52-3.65-1.71-10.06,2.89s-7.11,7.13-6,8.65,3.63,1.74,10.13-2.92S132.46,570,131.34,568.4Zm-22.41-16c7-4.45,11.75-3,13.88.32s1.4,8.26-5.61,12.71-11.79,3.09-13.94-.29S101.88,556.9,108.93,552.43Zm12.45,1.23c-1-1.59-3.55-1.92-10.21,2.31s-7.5,6.71-6.5,8.3,3.53,1.94,10.28-2.35S122.41,555.28,121.38,553.66ZM92.69,547l.07-.59,4.39-2.29,8.67-4.84c2.09-1.17,4.23-2.4,6.31-3.64l2.15,3.87c-2.14,1.12-4.31,2.29-6.4,3.46l-10.47,5.84,2.25,3.32-1.49.84Zm16-14.54,1.24-.69,6.51,11.68-1.24.7-3.1-3.68-2-3.55ZM84,530.11l.1-.59,4.52-2,8.93-4.34c2.16-1,4.36-2.15,6.51-3.27l1.93,4c-2.21,1-4.44,2-6.59,3.09l-10.79,5.23,2.06,3.45-1.54.75Zm16.84-13.6,1.28-.62,5.84,12-1.27.62-2.9-3.84L102,521ZM73.29,505.1l.14-.58,4.67-1.66,9.26-3.6c2.23-.86,4.51-1.79,6.74-2.73l1.61,4.13c-2.28.81-4.59,1.67-6.82,2.54l-11.18,4.34,1.77,3.61-1.59.61Zm17.89-12.19,1.32-.51,4.84,12.47-1.32.51-2.57-4.06L92,497.52Zm-15-14.73c7.9-2.56,12.14,0,13.36,3.78s-.71,8.34-8.61,10.9-12.19.05-13.43-3.77S68.22,480.74,76.16,478.18Zm11.75,4.3c-.58-1.79-3-2.75-10.46-.32s-9,4.63-8.37,6.41,2.93,2.77,10.54.3S88.5,484.31,87.91,482.48Zm-26.1-13.61.21-.56,4.83-1.12,9.6-2.51c2.32-.61,4.69-1.26,7-1.94L84.59,467c-2.36.54-4.76,1.13-7.07,1.74l-11.6,3,1.35,3.79-1.65.43ZM81,458.81l1.37-.36,3.39,12.94-1.38.36-2.08-4.34-1-3.93ZM67.73,442.44c8.15-1.64,12.06,1.4,12.84,5.29s-1.65,8.21-9.8,9.84-12.11-1.34-12.9-5.27S59.55,444.09,67.73,442.44Zm11.19,5.62c-.37-1.84-2.63-3.07-10.36-1.51s-9.42,3.58-9.05,5.42,2.6,3.07,10.44,1.5S79.3,449.94,78.92,448.06ZM65.06,424.27c8.23-1.17,12,2.08,12.52,6s-2.12,8.1-10.34,9.27-12-2-12.59-6S56.8,425.45,65.06,424.27Zm10.85,6.25c-.27-1.86-2.45-3.21-10.26-2.1s-9.6,3-9.34,4.89,2.42,3.22,10.34,2.09S76.18,432.42,75.91,430.52ZM52.5,412.67l.31-.52,4.94-.28,9.9-.84c2.38-.21,4.83-.45,7.24-.72l.37,4.41c-2.41.13-4.87.31-7.26.51l-11.94,1,.68,4-1.7.14ZM73.1,406l1.41-.12,1.14,13.33-1.42.12-1.32-4.63-.34-4ZM62.82,387.65c8.31-.24,11.65,3.41,11.76,7.38s-3,7.81-11.32,8-11.71-3.37-11.82-7.38S54.49,387.89,62.82,387.65Zm10.07,7.43c0-1.88-2.07-3.47-10-3.24s-9.88,1.93-9.83,3.8,2,3.48,10,3.25S73,397,72.89,395.08Zm-9.65-25.79c8.3.23,11.44,4.06,11.33,8s-3.45,7.63-11.75,7.4-11.51-4-11.4-8S54.9,369.07,63.24,369.29Zm9.64,8c.05-1.87-1.87-3.58-9.76-3.79s-10,1.38-10,3.25,1.85,3.59,9.84,3.8S72.83,379.19,72.88,377.27Zm-7.25-34.13c8.26.9,11.08,5,10.65,8.91s-4,7.33-12.31,6.43-11.15-4.93-10.71-8.92S57.34,342.24,65.63,343.14Zm9,8.73c.2-1.87-1.58-3.72-9.42-4.57s-10.05.57-10.26,2.44,1.55,3.72,9.5,4.58S74.39,353.78,74.6,351.87Zm-18.28-23.1.42-.43,4.87,1,9.8,1.63c2.36.39,4.8.76,7.19,1.09l-.72,4.37c-2.38-.47-4.8-.91-7.16-1.3l-11.83-2-.32,4-1.68-.28Zm21.61-1.37,1.4.23-2.19,13.2-1.4-.23-.14-4.81.67-4ZM60.09,310.12l.44-.39L65.34,311,75,313.14c2.34.52,4.75,1,7.13,1.5l-1,4.32c-2.34-.6-4.74-1.18-7.07-1.71l-11.7-2.63-.55,4-1.66-.38ZM81.74,310l1.38.31-2.94,13.05-1.38-.31.13-4.81.9-4ZM64.92,291.73l.47-.37,4.72,1.5,9.54,2.73c2.31.66,4.69,1.31,7,1.91l-1.22,4.25c-2.31-.73-4.67-1.44-7-2.1L67,296.34l-.77,4-1.64-.47Zm21.62,1.11,1.36.39-3.68,12.86-1.37-.39.42-4.79L84.39,297ZM83.48,272c7.84,2.74,9.67,7.34,8.36,11.09s-5.61,6.22-13.45,3.47-9.74-7.32-8.42-11.11S75.6,269.26,83.48,272Zm6.76,10.53c.62-1.77-.7-4-8.14-6.58s-9.92-1.72-10.54,0,.66,4,8.21,6.61S89.61,284.36,90.24,282.55ZM90.45,255c7.67,3.18,9.23,7.88,7.7,11.55s-6,5.88-13.62,2.7-9.3-7.88-7.76-11.58S82.75,251.84,90.45,255Zm6.14,10.9c.72-1.73-.47-4-7.75-7s-9.8-2.28-10.52-.55.43,4,7.82,7.07S95.86,267.71,96.59,265.94Zm-11-27.3.52-.29,4.4,2.28L99.43,245c2.15,1,4.39,2.08,6.59,3.07l-1.92,4c-2.15-1.12-4.35-2.22-6.51-3.26L86.8,243.54l-1.43,3.75-1.54-.74Zm21.11,4.78L108,244l-5.83,12-1.28-.62,1.23-4.65,1.77-3.66ZM94.44,221.81l.54-.26,4.26,2.53,8.68,4.83c2.09,1.17,4.26,2.33,6.41,3.45l-2.15,3.87c-2.08-1.24-4.22-2.47-6.31-3.63L95.4,226.77l-1.65,3.67-1.49-.84Zm20.81,6,1.24.69L110,240.17l-1.24-.69,1.49-4.57,2-3.55Zm6.21-27.5c6.91,4.62,7.52,9.53,5.31,12.83s-7,4.62-13.89,0-7.6-9.53-5.37-12.87S114.52,195.65,121.46,200.29Zm3.91,11.89c1-1.56.32-4-6.24-8.41s-9.18-4.15-10.22-2.59-.35,4,6.3,8.46S124.3,213.78,125.37,212.18Zm-5.51-28.93.57-.18,3.87,3.09,7.93,6c1.91,1.44,3.9,2.89,5.88,4.29L135.44,200c-1.89-1.51-3.84-3-5.75-4.46l-9.57-7.22L118,191.7l-1.36-1ZM139.64,192l1.14.85-8.06,10.69-1.13-.86,2.1-4.32,2.45-3.25Zm-7.85-23.55.58-.15,3.69,3.31,7.58,6.41c1.83,1.55,3.73,3.11,5.63,4.62l-2.86,3.38c-1.81-1.61-3.67-3.23-5.49-4.78l-9.16-7.74-2.32,3.28-1.3-1.1Zm19.26,9.89,1.08.91-8.64,10.22-1.08-.92,2.34-4.2,2.63-3.1Zm-6.48-24,.59-.11,3.5,3.51,7.2,6.83c1.74,1.65,3.55,3.32,5.36,4.93l-3.05,3.21c-1.71-1.71-3.47-3.43-5.21-5.08l-8.7-8.24-2.51,3.14-1.23-1.18Zm18.67,11,1,1L155.06,176l-1-1,2.58-4.06,2.8-2.95Zm6.87-19.88c5.7,6.05,5.2,11,2.31,13.69s-7.84,2.94-13.54-3.11-5.26-11-2.34-13.74S164.39,139.41,170.11,145.48Zm1.15,12.46c1.37-1.28,1.21-3.85-4.19-9.59s-8-6.1-9.38-4.81-1.24,3.83,4.24,9.65S169.86,159.26,171.26,157.94Zm1.1-29.42.6,0,3.08,3.88,6.39,7.6c1.54,1.83,3.15,3.69,4.76,5.5l-3.38,2.85c-1.51-1.9-3.07-3.81-4.61-5.64l-7.71-9.17-2.85,2.84-1.1-1.31Zm17.31,13,.92,1.08-10.24,8.61-.91-1.08,3-3.75,3.11-2.61Zm9.1-19c5,6.65,3.92,11.48.74,13.86s-8.12,2-13.1-4.62-4-11.51-.78-13.92S193.77,115.86,198.77,122.54Zm-.27,12.51c1.5-1.13,1.64-3.7-3.09-10s-7.27-7-8.77-5.83-1.66,3.66,3.13,10.06S197,136.2,198.5,135.05ZM214,112.3c4.6,6.93,3.27,11.7,0,13.89s-8.22,1.57-12.82-5.35-3.33-11.73,0-14S209.42,105.35,214,112.3Zm-1,12.48c1.57-1,1.85-3.59-2.51-10.16s-6.87-7.37-8.43-6.33-1.87,3.57,2.55,10.23S211.45,125.85,213.05,124.78ZM236.8,99.24c4,7.27,2.3,11.92-1.18,13.84s-8.32.89-12.33-6.38-2.37-12,1.14-13.9S232.77,91.94,236.8,99.24Zm-2,12.36c1.64-.91,2.13-3.43-1.68-10.34s-6.24-7.9-7.89-7-2.15,3.4,1.71,10.4S233.13,112.52,234.81,111.6Zm8.4-28.24.59.11,2,4.52,4.3,9c1,2.16,2.13,4.37,3.24,6.52l-4,1.91c-1-2.21-2-4.44-3.06-6.6L241.13,88l-3.46,2-.74-1.53Zm13.53,16.9.62,1.28-12.06,5.79-.62-1.28,3.86-2.88,3.67-1.76Zm3.89-24.52.58.13L263,80.51l3.77,9.18c.91,2.21,1.88,4.48,2.87,6.69l-4.1,1.68c-.85-2.26-1.76-4.55-2.67-6.77l-4.56-11.08-3.57,1.84-.65-1.58Zm12.54,17.64.54,1.31-12.37,5.09-.54-1.31,4-2.65,3.76-1.55Zm14.42-15.31c2.72,7.85.24,12.13-3.51,13.43S275.73,91,273,83.11s-.29-12.18,3.5-13.49S284.87,70.19,287.59,78.07ZM283.53,89.9c1.77-.61,2.68-3,.11-10.46s-4.81-8.85-6.58-8.24-2.7,3-.09,10.55S281.71,90.53,283.53,89.9ZM305.25,73c2.26,8-.46,12.13-4.27,13.21s-8.31-1-10.58-9,.41-12.19,4.27-13.28S303,65,305.25,73Zm-4.73,11.59c1.8-.52,2.85-2.86.7-10.45s-4.29-9.11-6.1-8.59-2.86,2.82-.69,10.52S298.67,85.09,300.52,84.57ZM315.08,59l.55.24.94,4.86,2.16,9.69c.51,2.34,1.08,4.74,1.68,7.09l-4.33,1c-.45-2.38-.95-4.79-1.47-7.13L312,63l-3.83,1.2-.37-1.66Zm9.35,19.53.3,1.38L311.68,82.8l-.31-1.39,4.41-1.92,4-.89Zm16.84-12.63c1.34,8.2-1.84,12-5.76,12.64s-8.14-2-9.47-10.16,1.79-12,5.75-12.7S339.93,57.65,341.27,65.88Zm-6,11c1.85-.3,3.16-2.51,1.9-10.29s-3.23-9.54-5.08-9.24-3.17,2.48-1.89,10.37S333.35,77.16,335.24,76.85Zm17.42-23.76.52.29.38,4.94,1,9.88c.25,2.38.54,4.83.86,7.23l-4.4.46c-.19-2.41-.41-4.87-.66-7.25l-1.25-11.92-3.95.76-.18-1.7Zm7.06,20.46.15,1.41-13.31,1.4L346.42,75l4.6-1.41,4-.43Zm26-10.74c.2,8.31-3.46,11.64-7.43,11.74s-7.8-3.06-8-11.36,3.43-11.7,7.44-11.8S385.57,54.47,385.77,62.81Zm-7.47,10c1.87,0,3.47-2.06,3.28-9.94s-1.89-9.9-3.76-9.85-3.48,2-3.29,10S376.38,72.9,378.3,72.86Zm24.68.06,0,1.42-13.37-.42,0-1.42,4.75-.77,4.06.13Zm-4.21-21.23.47.36-.3,5-.31,9.92c-.07,2.4-.12,4.86-.12,7.28l-4.43-.14c.15-2.41.26-4.88.33-7.27l.38-12-4,.22.05-1.71Zm22,22.69-.12,1.41-13.33-1.18.12-1.41,4.79-.5,4,.35Zm-3-21.45.45.39-.57,4.93-.88,9.89c-.21,2.38-.39,4.84-.53,7.26L411.81,75c.28-2.4.53-4.86.74-7.24l1.05-11.94h-4l.15-1.71Zm20.64,23.9-.21,1.4-13.24-1.92.2-1.41,4.81-.23,4,.58Zm-1.8-21.58.43.41-.85,4.89-1.43,9.83c-.35,2.36-.67,4.81-.95,7.21L429.41,77c.42-2.39.81-4.82,1.15-7.19l1.73-11.87-4-.23.25-1.69Zm22,15.76c-1.66,8.14-6,10.56-9.86,9.77s-6.92-4.72-5.25-12.86,5.95-10.64,9.88-9.83S460.27,62.84,458.59,71Zm-9.53,8.11c1.84.38,3.85-1.23,5.43-9s.38-10.06-1.46-10.44-3.85,1.19-5.45,9S447.18,78.74,449.06,79.12Zm27.33-3.48c-2.13,8-6.57,10.2-10.41,9.18s-6.63-5.1-4.5-13.13,6.55-10.28,10.43-9.25S478.53,67.58,476.39,75.64Zm-10,7.55c1.82.48,3.92-1,5.93-8.62s1-10-.86-10.51-3.91,1-6,8.7S464.56,82.7,466.41,83.19Zm23.67,7-.44,1.35-12.72-4.17.44-1.35,4.78.6L486,87.86ZM492,68.6l.36.48-1.68,4.67-3.08,9.44c-.75,2.27-1.48,4.62-2.17,7l-4.21-1.38c.82-2.28,1.62-4.61,2.36-6.89l3.73-11.39-3.91-.92.53-1.63Zm19,19.28c-3,7.74-7.7,9.39-11.39,7.94s-6-5.83-3-13.57,7.68-9.46,11.42-8S514,80.11,511,87.88Zm-10.78,6.37c1.75.68,4-.56,6.88-7.9s2.09-9.85.34-10.54-4,.52-6.91,8S498.42,93.54,500.21,94.25ZM534.79,99c-3.65,7.46-8.44,8.73-12,7s-5.51-6.3-1.86-13.76,8.43-8.81,12-7S538.46,91.55,534.79,99Zm-11.26,5.46c1.69.83,4-.22,7.5-7.3s2.89-9.65,1.2-10.48-4,.19-7.54,7.38S521.8,103.66,523.53,104.5ZM545.39,116l-.7,1.23L533,110.65l.7-1.24,4.57,1.51,3.54,2Zm6.08-20.78.25.54L549.17,100l-4.87,8.66c-1.17,2.08-2.35,4.25-3.47,6.39L537,112.86c1.24-2.07,2.48-4.21,3.66-6.29l5.87-10.45-3.65-1.66.83-1.49Zm9,30.26-.77,1.2-11.27-7.21.77-1.19,4.47,1.76,3.43,2.19Zm7.24-20.4.22.55-2.78,4.1-5.35,8.37c-1.29,2-2.59,4.11-3.83,6.19l-3.73-2.39c1.36-2,2.71-4.06,4-6.07l6.46-10.1-3.56-1.87.92-1.44Zm13.59,23.43c-4.86,6.73-9.79,7.17-13,4.84s-4.36-7.14.51-13.88,9.8-7.24,13.05-4.89S586.16,121.72,581.27,128.48Zm-12,3.47c1.52,1.1,4,.47,8.63-5.92s4.48-9,3-10.12-4-.5-8.68,6S567.69,130.83,569.25,132Zm19.6,15L588,148l-10.38-8.43.89-1.1,4.25,2.26,3.16,2.56Zm9.5-19.45.16.58-3.23,3.76-6.26,7.7c-1.51,1.86-3,3.8-4.51,5.72l-3.44-2.79c1.58-1.84,3.16-3.73,4.67-5.59l7.56-9.3L590,125.31l1.08-1.33Zm10.85,24.8c-5.6,6.14-10.55,6-13.48,3.34s-3.53-7.59,2.07-13.73,10.56-6.09,13.52-3.39S614.81,146.12,609.2,152.29Zm-12.34,2.09c1.38,1.27,3.93.92,9.24-4.91s5.47-8.45,4.09-9.72-3.92-.94-9.31,5S595.44,153.09,596.86,154.38Zm25.26,11c-5.93,5.82-10.86,5.41-13.64,2.58s-3.09-7.79,2.84-13.6,10.89-5.49,13.7-2.62S628.08,159.52,622.12,165.36Zm-12.44,1.39c1.32,1.34,3.88,1.14,9.51-4.38s5.94-8.14,4.63-9.48-3.86-1.16-9.57,4.44S608.34,165.38,609.68,166.75Zm16.79,18.09-1.07.93-8.81-10.07,1.07-.93,3.8,2.94,2.68,3.06Zm12.65-17.57.06.6L635.36,171l-7.47,6.54c-1.81,1.58-3.64,3.23-5.41,4.87l-2.92-3.33c1.87-1.54,3.75-3.14,5.55-4.71l9-7.9-2.9-2.78,1.29-1.13ZM359.46,141.44H312v46.48h47.51ZM312,630.52h47.51V584H312ZM411.18,188c4.25.08,8.51.28,12.67.58a194.38,194.38,0,0,1,22.2,2.93V141.44H398.54v46.48h7.35C407.68,187.92,409.47,187.94,411.18,188Zm13.75,392c-4.2.78-8.41,1.47-12.54,2.07q-7.39,1.05-13.85,1.55v46.95h47.51v-55c-3,.75-6.13,1.47-9.38,2.15C432.51,578.51,428.55,579.29,424.93,580ZM538.6,282.32q-18.4-41.79-49.36-63.1A102.63,102.63,0,0,0,471,209.29a119.3,119.3,0,0,0-13.81-4.87,166.59,166.59,0,0,0-34.06-5.88q-5.89-.43-12.13-.56c-1.68,0-3.38-.06-5.09-.06H252v52h10.15q13.33,0,17.46,2.57a14.16,14.16,0,0,1,5.92,7.54q1.81,5,1.8,22.25V487.77q0,17.25-1.69,22.38-2.54,6.47-6.55,9.17c-2.7,1.79-8.33,2.69-16.94,2.69H252v52H387.58a169.83,169.83,0,0,0,23.4-1.92q5.73-.82,12.13-2,5.5-1,11.51-2.27a219.48,219.48,0,0,0,22.55-5.91,130.28,130.28,0,0,0,13.81-5.3,85.58,85.58,0,0,0,9-4.7q21.27-12.95,39.79-38.7a188.51,188.51,0,0,0,27.88-57.83Q557,423.32,557,382.62,557,324.11,538.6,282.32ZM471,443.68c-1.29,4.44-2.77,8.71-4.4,12.83a130.74,130.74,0,0,1-9.41,19.22q-9.46,15.72-22,24.55l-.06,0a63,63,0,0,1-12,6.51q-15.42,6.41-37.18,7c-1.56,0-3.14.06-4.76.06q-12.41,0-15.67-1.48a9.88,9.88,0,0,1-4.94-5.55c-.71-1.8-1.05-6.65-1.05-14.58V258.05H391.9q18,0,31.21,4.24a55.78,55.78,0,0,1,14.08,6.62h0c.77.5,1.51,1,2.24,1.57q9.8,7.33,17.73,20.91a139.83,139.83,0,0,1,10.14,21.91c1.35,3.64,2.56,7.4,3.67,11.26q7.61,26.52,7.59,60.21Q478.57,417.86,471,443.68Z"/></g></g></svg>