<?xml version="1.0" encoding="utf-8"?>
<!-- Generator: Adobe Illustrator 26.0.3, SVG Export Plug-In . SVG Version: 6.00 Build 0)  -->
<svg version="1.1" id="Layer_1" xmlns="http://www.w3.org/2000/svg" xmlns:xlink="http://www.w3.org/1999/xlink" x="0px" y="0px"
	 viewBox="0 0 850.4 850.4" enable-background="new 0 0 850.4 850.4" xml:space="preserve">
<path d="M699.1,411c-0.4,151-123,270-270.3,269.9c-147.2-0.1-270-119.2-269.8-270.3c0.1-151,123.1-270.1,270.4-269.7
	C578.4,141.2,699.2,262,699.1,411z M178.1,410.7c0.2,140.4,113.9,250.7,250.1,251.2c136.9,0.5,251.6-109.9,251.8-250.7
	c0.1-140.5-114-250.9-250.4-251.2C292.9,159.7,178.5,270,178.1,410.7z"/>
<path d="M91.4,419.2c0.3-37,6.1-72.9,18-107.9c14.2-41.9,35.9-79.6,64.9-113c2.1-2.5,4.3-4.9,6.6-7.3c4.8-4.8,12-5,16.8-0.6
	c4.7,4.3,5.2,11.5,1,16.6c-5.2,6.4-10.8,12.4-15.9,18.9c-24.9,31.5-43,66.6-54.4,105.1c-5.3,18.1-8.9,36.5-10.9,55.2
	c-1.6,15.3-2.2,30.6-1.5,45.8c1.2,29.5,6.4,58.3,15.8,86.3c1.6,4.7,3.4,9.3,5,14c1.9,5.5-0.4,11.4-5.3,14.3
	c-5,2.9-11.5,1.9-15.2-2.6c-1.1-1.3-1.8-2.8-2.4-4.4c-6.9-17.9-12.2-36.2-15.8-55c-2.5-12.9-4.4-25.8-5.2-38.9
	C92.3,436.9,91.9,428,91.4,419.2z"/>
<path d="M766.2,419.2c0,41.2-7.4,81-21.9,119.5c-0.6,1.6-1.3,3.2-2.3,4.5c-3.7,4.7-10.3,6-15.4,3c-5-2.9-7.2-8.9-5.4-14.5
	c2.9-8.7,6.1-17.3,8.7-26.1c4.9-16.4,8.1-33.2,10-50.2c1.2-10.6,1.8-21.2,2-31.9c0.7-47.1-8.8-92-28.4-134.8
	c-12.9-28.1-29.7-53.8-50.2-76.9c-1.5-1.7-3.2-3.4-4.6-5.2c-4.1-5.1-3.3-12,1.5-16.6c4-3.8,12.6-3.9,16.4,0.6
	c6.5,7.6,13.2,15.1,19.4,23c14,17.8,25.9,37,35.8,57.4c13.3,27.2,22.8,55.6,28.4,85.3c2.5,13.5,4.4,27.1,5.1,40.8
	C765.6,404.4,765.9,411.8,766.2,419.2z"/>
<path d="M346.4,712c5.8,1.3,11.2,2.5,16.8,3.7c0.6,12.9,1.1,25.7,1.7,38.4c0.2,0.1,0.4,0.1,0.6,0.2c5.8-11.3,11.6-22.6,17.6-34.1
	c5.6,1.2,11.1,2.5,16.9,3.7c-4.1,18.5-8.1,36.7-12.2,55.3c-3.6-0.4-6.9-1.3-10.5-2.3c3-13.6,6-27.1,8.9-40.5
	c-0.2-0.1-0.4-0.1-0.5-0.2c-6.4,12.7-12.8,25.4-19.3,38.4c-3.6-0.8-7.2-1.6-10.8-2.4c-0.4-14.5-0.9-28.7-1.3-42.8
	c-0.2,0-0.4,0-0.6-0.1c-3,13.3-5.9,26.7-9,40.3c-3.6-0.4-6.8-1.4-10.5-2.2C338.2,748.8,342.3,730.6,346.4,712z"/>
<path d="M575.1,683.5c0.9-0.7,1.4-1.2,2-1.6c6-4.4,12-8.9,18.2-13.2c2.7-1.9,5.5-3.6,8.4-5.1c5.2-2.6,10.3-1.8,14.9,1.7
	c6.9,5.4,9.5,14.7,3.1,22.6c-0.5,0.6-0.9,1.3-1.7,2.3c11-0.4,19.7,5.4,29.6,8.6c-0.8,0.8-1.2,1.4-1.7,1.8c-2.4,1.8-5,3.6-7.4,5.5
	c-1.2,1-2.4,1-3.8,0.5c-5.5-2.1-11.1-4-16.7-6c-1.2-0.4-2.4-0.8-3.6-1.2c-3.1-1-6-0.6-8.7,1.4c-1.1,0.8-2.2,1.6-3.7,2.6
	c4.6,6.4,9.2,12.7,13.9,19.2c-3.1,2.3-6.1,4.4-9.3,6.8C597.4,714,586.3,698.8,575.1,683.5z M598.6,696c4.6-3.6,9.1-6.9,13.4-10.5
	c3-2.5,3.1-5.9,0.9-9c-2.3-3.1-5.6-4.1-8.9-1.9c-4.7,3-9.1,6.4-13.9,9.8C592.9,688.3,595.7,692,598.6,696z"/>
<path d="M196.8,129.4c2.1-1.4,3.9-2.7,5.7-4c5.1-3.5,10.3-7.1,15.5-10.5c9.7-6.3,19-4.1,26.1,1.8c7.5,6.3,12.9,14.1,14.6,24.1
	c1.2,6.7-0.8,12.5-5.3,17.5c-0.8,0.9-1.6,1.7-2.5,2.4c-7.1,5.1-14.3,10.1-21.8,15.5C218.3,160.5,207.6,145,196.8,129.4z
	 M233.1,161.6c3.4-2.4,6.7-4.6,9.8-6.9c5.4-4.1,6.5-8.1,3.9-14.4c-2.2-5.3-5.5-10-9.5-14c-1.1-1.1-2.4-2-3.8-2.8
	c-2.8-1.6-5.8-1.9-8.8-0.6c-4.6,1.9-8.4,5-12.7,7.9C219,141.2,226,151.3,233.1,161.6z"/>
<path d="M191.8,678.8c-2.1-2.2-4.2-4.4-6.2-6.7c-3.8-4.4-3.8-4.4-1.8-9.9c2.7-7.7,5.4-15.3,8.2-23.3c-1.2-0.2-2.2-0.4-3.2-0.5
	c-2-0.2-4.1,0-6-0.4c-2.8-0.6-4.8,0.4-6.8,2.2c-3.2,2.9-6.5,5.6-10.1,8.6c-2.5-3-4.9-5.7-7.5-8.8c14.5-12.3,28.8-24.4,43.3-36.8
	c2.5,2.9,4.9,5.7,7.5,8.8c-6.2,5.3-12.2,10.4-18.3,15.6c0,0.2,0.1,0.4,0.1,0.6c1.3,0.1,2.6,0.2,3.9,0.3c8.3,0.3,16.7,0.7,25,0.8
	c2.9,0,5,0.8,6.7,3.2c2.1,2.9,4.6,5.5,7.4,8.8c-10.6-0.4-20.4-1.3-30.7-1.8C199.5,652.7,195.6,665.8,191.8,678.8
	C191.8,678.9,191.8,678.8,191.8,678.8z"/>
<path d="M670.1,664.4c6.9-8,13.7-15.8,20.7-24c2.5,2.1,4.8,4.2,7.3,6.3c-9.5,11-18.8,21.7-28.3,32.7c-14.4-12.4-28.6-24.7-43.1-37.2
	c9.2-10.7,18.3-21.2,27.6-31.9c2.5,2.1,4.7,4.1,7.3,6.4c-6.7,7.7-13.2,15.3-20,23.2c3.1,2.7,6.1,5.3,9.4,8.1
	c6.2-7.2,12.3-14.3,18.6-21.5c2.5,2.2,4.8,4.1,7.3,6.3c-6.2,7.2-12.4,14.3-18.6,21.6C662.4,657.7,666.1,661,670.1,664.4z"/>
<path d="M581.5,704.8c1.5,2.9,2.9,5.6,4.4,8.6c-8.5,4.3-16.7,8.5-25.4,12.9c2.3,4.5,4.5,8.9,6.9,13.6c9.5-4.8,18.7-9.5,28.3-14.3
	c1.5,2.9,2.8,5.6,4.4,8.6c-12.9,6.5-25.6,13-38.6,19.6c-8.6-16.9-17-33.6-25.7-50.7c12.6-6.4,24.9-12.6,37.6-19.1
	c1.5,2.9,2.9,5.6,4.4,8.6c-9.1,4.6-18,9.2-27.3,13.9c1.9,3.7,3.7,7.2,5.6,11.1C564.6,713.3,573,709.1,581.5,704.8z"/>
<path d="M451.3,762.3c3.4-0.8,6.8-1.7,10.4-2.6c0.6,1.1,1,2.1,1.5,3c2.2,4.3,5.8,6.4,10.6,6c2.3-0.2,4.6-0.8,6.7-1.5
	c2-0.6,3.4-2.1,4.3-4c1.7-3.4,0.5-7-3.2-8.2c-2.4-0.7-5-0.9-7.5-1.3c-4.4-0.7-8.8-1.1-13.1-2.2c-5.7-1.5-9.7-5.1-11.1-11
	c-1.5-6,0.3-11.1,4.9-15.1c1.7-1.5,3.9-2.6,6-3.4c5.3-2.1,10.9-2.6,16.5-1.9c7.5,0.9,12.7,5.8,14.4,13.9c-3.6,1.1-7.3,1.6-11,2.2
	c-0.3-0.5-0.6-0.8-0.8-1.2c-1.7-4.4-5.2-6-9.6-5.4c-2.4,0.3-4.7,1.1-6.9,2c-1.9,0.8-3.3,2.4-3.1,4.7c0.3,2.3,1.8,3.6,3.9,4
	c3.7,0.7,7.5,1.2,11.2,1.8c2.9,0.5,5.9,0.7,8.7,1.4c7.2,1.8,11.6,6.7,12.6,13.8c1,7.3-2.1,13.9-8.5,17.3c-7,3.8-14.6,4.9-22.4,3.5
	C458.2,776.8,452.2,770.1,451.3,762.3z"/>
<path d="M186.3,609.3c-2.1-3.1-4.1-6.1-6.3-9.1c0.5-0.6,0.9-1.2,1.4-1.8c2.4-2.8,2.8-5.8,1.3-9.1c-1.3-2.7-2.9-5.2-5.3-7
	c-1.7-1.3-3.6-1.9-5.6-0.7c-1.9,1.1-2.4,3-2,5c0.4,2.5,1.1,4.9,1.7,7.4c1,3.7,2.3,7.3,3.1,11c2.4,11-4.2,20-15.2,21.1
	c-4.2,0.4-8-0.7-11.3-3.4c-6.4-5.1-10.7-11.7-12.3-19.7c-1.6-8.1,2.1-14.3,8.1-19.3c1.9,1.3,4.9,5,7,8.7c-0.7,0.9-1.6,1.9-2.3,2.8
	c-2.6,3.4-3.1,7.2-1.2,11c1.1,2.1,2.4,4.2,4.1,5.9c1.3,1.3,3.2,2.1,4.9,2.5c3.9,0.9,7.2-2.1,6.9-6c-0.2-2.2-0.9-4.3-1.4-6.5
	c-1-3.8-2.3-7.5-3.2-11.3c-0.5-2-0.6-4.2-0.5-6.3c0.5-10.4,11.3-17,20.9-12.7c1.5,0.7,3,1.6,4.3,2.7c5.7,5.1,9.5,11.3,10.8,18.8
	C195.2,599.5,192.2,605.6,186.3,609.3z"/>
<path d="M191.8,678.9c1.1-0.5,2.3-0.9,3.4-1.5c15.7-8.3,31.3-16.6,47-24.9c1-0.5,2.1-1.1,3.4-1.7c3,2.6,6,5.2,9.2,7.9
	c-6.6,19.2-13.2,38.3-19.9,57.9c-3.3-2.8-6.3-5.4-9.5-8.2c1.5-4.3,3-8.5,4.6-13.1c-5.6-4.9-11.3-9.7-17-14.7
	c-3.9,2.2-7.8,4.3-12,6.6C198,684.4,194.3,682.4,191.8,678.9C191.8,678.8,191.8,678.9,191.8,678.9z M221.9,675.6
	c3.8,3.2,7,6.1,10.3,8.9c0.3,0.3,0.7,0.4,1,0.7c2-3.3,7.1-17.5,7-19.8C234.2,668.8,228.3,672.1,221.9,675.6z"/>
<path d="M416.4,724c4.2,0,8.1,0,12.3,0c7.2,18.9,14.3,37.8,21.5,56.7c-0.6,0.2-0.9,0.4-1.2,0.4c-3.6,0-7.2,0-11,0
	c-1.6-4.3-3.2-8.5-4.9-13.1c-7.4-0.2-14.9-0.3-22.5-0.5c-1.7,4.3-3.3,8.4-5,12.6c-4,0-7.9,0-12.3,0C401,761.3,408.7,742.7,416.4,724
	z M429.4,758c-2.4-6.8-4.6-13.3-6.9-19.8c-3.2,6.4-5.7,12.9-8.2,19.8C419.6,758,424.3,758,429.4,758z"/>
<path d="M417.9,65.5c-4,5.1-8,10.2-12.2,15.6c5.6,8.1,11.2,16.1,17,24.4c-1.1,0.3-1.8,0.5-2.6,0.6c-2.2,0.2-4.4,0.3-6.6,0.6
	c-1.7,0.3-2.7-0.3-3.7-1.7c-2.8-4.2-5.7-8.4-8.5-12.6c-0.6-0.9-1.2-1.7-2.1-2.9c-1.4,1.8-2.9,3.3-4,5c-0.5,0.9-0.4,2.2-0.3,3.4
	c0.2,3.3,0.6,6.5,0.9,10.2c-3.6,0.3-7,0.7-10.9,1c-1.8-18.9-3.4-37.5-5-56.6c3.7-0.3,7.1-0.7,10.9-1c0.9,9.8,1.8,19.3,2.7,29.4
	c0.9-1,1.5-1.5,1.9-2.1c2.7-3.6,5.4-7.3,8.1-10.9c0.6-0.8,1.5-1.7,2.4-1.8c3.8-0.5,7.7-0.8,11.6-1.1
	C417.6,65.1,417.7,65.3,417.9,65.5z"/>
<path d="M479,94.2c0.1-13.3,8.8-22.8,20.8-22.7c12.6,0.1,21.9,9.1,21.8,21.1c-0.1,12.7-9.2,22.3-21.1,22.2
	C488,114.5,479,105.9,479,94.2z M510.6,91.2c0-5.3-3-9.4-7.4-10.3c-4.9-1.1-9.3,1.3-11.4,6.3c-1.4,3.3-2.2,6.8-1.4,10.5
	c0.9,4.2,3.8,7.1,7.7,7.8c4,0.7,7.9-1.2,10.1-5C509.8,97.5,510.4,94.3,510.6,91.2z"/>
<path d="M585.8,126.4c-2.5,4.6-2.2,8.9,0.9,11.6c3.8,3.3,6.3,3,10.8-0.3c1.3,1,2.7,2.1,4.1,3.1c1.4,1.1,2.8,2.2,4.5,3.6
	c-4.4,3.8-9,5.6-14.4,4.7c-3.5-0.6-6.6-2-9.6-4c-7.1-4.8-9.8-11.5-7.7-19.8c1.4-5.5,4.1-10.4,8.3-14.3c12.6-11.6,29.1-1.4,31.1,9.1
	c0.4,1.8,0.5,3.8,0.4,5.7c-0.1,4.1-2.2,9.6-5,13.4c-3.8-2.1-7.7-4.2-11.6-6.3C593.8,130.8,589.9,128.6,585.8,126.4z M603,128.1
	c1.8-3.3,2.3-6.4,0.4-9.5c-1.7-2.6-4.2-3.8-7.3-3.5c-3.3,0.3-5.5,2.3-7.1,5.4C593.8,123,598.3,125.5,603,128.1z"/>
<path d="M373,93.2c-9.3,2.2-17.9,4.2-26.5,6.1c1,5,4.1,8,8.3,8.1c4.3,0.1,6.3-1.7,8.1-7.5c3.4-0.2,6.8-0.4,10.7-0.6
	c-0.5,4.9-2.3,8.8-5.8,11.8c-3.1,2.6-6.8,3.9-10.7,4.5c-10,1.6-17.4-2.7-21.1-12.1c-1.6-4.1-2.3-8.3-2.1-12.7
	c0.4-9.2,6.7-16.1,15.7-17.6c9-1.4,16.1,2.2,20,10.4C370.9,86.6,371.7,89.8,373,93.2z M360.4,89.1c-1.2-5.8-5.9-8.9-10.7-7.2
	c-4.3,1.5-6.2,5.9-4.5,10.7C350.2,91.5,355.2,90.3,360.4,89.1z"/>
<path d="M633.1,126.6c2.8,2.1,5.3,4,8,6.1c-1,1.5-1.9,2.8-2.9,4.4c1.1-0.1,1.7-0.2,2.4-0.2c6.8-0.7,12.2,1.9,16.1,7.5
	c2.6,3.7,2.8,7.7,0.7,11.7c-0.8,1.5-1.7,3-2.7,4.3c-5,6.8-10.1,13.5-15.2,20.3c-0.3,0.4-0.7,0.8-1.3,1.4c-2.8-2.1-5.6-4.2-8.5-6.4
	c0.6-0.9,1.1-1.7,1.6-2.5c4-5.3,8-10.6,11.9-16c1.2-1.6,2.3-3.3,3.2-5.1c1.3-2.8,0.6-5.4-1.8-7.3c-3.2-2.6-7.7-2.7-10.7,0.1
	c-1.9,1.7-3.5,3.7-5,5.7c-3.3,4.3-6.5,8.6-9.7,12.9c-0.6,0.8-1.3,1.6-2.1,2.7c-2.9-2.1-5.6-4.2-8.7-6.5
	C616.6,148.5,624.7,137.7,633.1,126.6z"/>
<path d="M560,133.2c-3.6-1.3-6.7-2.5-10.1-3.8c0.3-1,0.5-1.9,0.8-2.7c2.3-6.1,4.6-12.3,6.8-18.4c0.7-2,1.4-4,1.7-6.1
	c0.5-3.4-1-5.7-4.3-6.8c-3.7-1.3-7.6-0.1-9.7,3.2c-1.3,2.1-2.3,4.5-3.2,6.9c-2,5-3.8,10.1-5.7,15.1c-0.4,1-0.8,1.9-1.3,3.3
	c-3.4-1.2-6.6-2.4-10.2-3.8c4.8-12.9,9.5-25.6,14.3-38.6c3.2,1.2,6.2,2.3,9.4,3.5c-0.5,1.7-1,3.2-1.6,5.1c1.3-0.5,2.3-0.9,3.2-1.2
	c6.5-2.3,12.3-0.9,17.3,3.7c3,2.8,4.1,6.3,3.2,10.4c-0.1,0.7-0.2,1.5-0.5,2.2C566.9,114.3,563.6,123.5,560,133.2z"/>
<path d="M320.7,92.3c-3.2,1.9-6,3.6-8.7,5.2c-4.9-3.9-8-2.7-13.2,0.4c-1.2,0.7-2.1,1.8-1.7,3.4c0.4,1.7,1.9,1.9,3.3,1.8
	c3.6-0.3,7.1-0.7,10.7-1c2.5-0.2,5.1-0.4,7.6-0.3c7.2,0.4,11.8,6.6,10.4,13.7c-0.7,3.3-2.3,6.2-4.9,8.3c-5.6,4.5-12.1,6.9-19.3,6.6
	c-4.9-0.2-9.1-2.7-11.7-6.9c3-1.7,6-3.4,8.9-5.1c0.4,0.1,0.6,0.1,0.8,0.2c4.5,4.3,10.1,4.3,14.6-0.1c0.4-0.4,0.8-0.8,1-1.2
	c1-1.8,0.5-5.1-2.7-4.9c-3.5,0.3-6.9,0.8-10.4,1.1c-2.2,0.2-4.4,0.3-6.6,0.3c-4.6-0.1-8.2-2-10.2-6.3c-2.1-4.4-1.5-8.6,1.4-12.5
	c0.6-0.8,1.2-1.5,2-2c5.4-4.1,11.4-6.4,18.1-6.5C314.4,86.4,317.8,88.5,320.7,92.3z"/>
<path d="M255.8,729.8c-3.4-2.3-6.4-4.2-9.7-6.4c8.6-13.1,17.1-26.1,25.9-39.4c-4.6-3.1-9.2-6.1-14-9.3c1.8-2.7,3.4-5.3,5.3-8.1
	c12.6,8.3,25.1,16.5,37.8,24.9c-1.8,2.8-3.5,5.3-5.3,8.1c-4.8-3.1-9.3-6-14.1-9.1C273,703.7,264.5,716.6,255.8,729.8z"/>
<path d="M313.6,707.9c-5.2-2.4-10.1-4.6-15.3-6.9c1.3-2.9,2.5-5.7,3.9-8.8c13.8,6.1,27.4,12.2,41.3,18.4c-1.3,3-2.6,5.8-3.9,8.8
	c-5.2-2.3-10.1-4.4-15.4-6.7c-6.4,14.4-12.7,28.5-19.2,43c-3.6-1.6-7-3.1-10.6-4.7C300.9,736.5,307.2,722.4,313.6,707.9z"/>
<path d="M520.8,767.8c-4.6-15.1-9.1-29.9-13.8-45c-5.4,1.6-10.6,3.2-16.1,4.8c-1-3.1-1.9-6-2.8-9.2c14.4-4.4,28.6-8.7,43.2-13.2
	c0.9,3.1,1.8,6,2.8,9.3c-5.3,1.7-10.4,3.2-15.9,4.9c4.3,15,9.1,29.7,13.6,45C528.2,765.5,524.6,766.6,520.8,767.8z"/>
<path d="M674.3,597.4c-3,4.9-5.8,9.5-8.7,14.4c-2.8-1.6-5.3-3.2-8.3-5c7.8-12.9,15.5-25.7,23.3-38.8c2.9,1.7,5.4,3.3,8.3,5
	c-2.9,4.8-5.6,9.4-8.6,14.4c13.4,8.1,26.7,16.1,40.4,24.3c-2,3.4-3.9,6.5-6,9.9C701.1,613.5,687.9,605.6,674.3,597.4z"/>
<path d="M449,74c-2.4,0-4.6,0-6.9,0c-0.2,0.7-0.4,1.2-0.4,1.6c-0.2,6-0.4,12-0.4,18.1c0,4.2,1,5,5.2,4.3c0.6-0.1,1.2-0.2,2.1-0.3
	c0.3,2.7,0.5,5.3,0.8,8.3c-5.1,1.8-10.1,2.4-15-0.1c-1.8-0.9-3-2.4-3.4-4.4c-0.4-1.7-0.6-3.5-0.6-5.3c0-6.1,0.1-12.3,0.2-18.4
	c0-1.1,0-2.3,0-3.6c-1.6-0.2-3-0.4-4.5-0.6c0-2.8,0-5.5,0-8.4c1.6-0.1,3.1-0.2,4.8-0.3c0.1-1.9,0.2-3.8,0.2-5.7
	c0-1.5,0.4-2.5,1.9-3.3c3-1.5,5.9-3.2,9.1-5c0,4.9,0,9.4,0,14.2c2.4,0.2,4.7,0.4,7.1,0.6C449,68.4,449,71.1,449,74z"/>
<path d="M623.3,644.9c13,14,25.8,27.7,38.7,41.7c-2.9,2.7-5.6,5.1-8.5,7.9c-12.9-13.9-25.7-27.6-38.7-41.7
	C617.7,650.1,620.3,647.6,623.3,644.9z"/>
<path d="M466.7,108.3c-3.9-0.4-7.3-0.7-10.9-1.1c1.3-13.7,2.6-27.1,3.9-41c3.6,0.3,7.1,0.7,10.9,1C469.3,81.1,468,94.4,466.7,108.3z
	"/>
<path d="M283.4,112.5c1.7,3.4,3.3,6.5,5,9.8c-6.4,3.3-12.5,6.4-19.1,9.8c-1.7-3.3-3.3-6.4-5-9.8C270.7,119,276.8,115.9,283.4,112.5z
	"/>
<path d="M472,51.7c-0.3,3.5-0.6,6.7-1,10.1c-3.8-0.4-7.2-0.7-10.9-1.1c0.3-3.4,0.6-6.5,0.9-10C464.8,51.1,468.3,51.4,472,51.7z"/>
<path d="M418.7,711.4c0,3.2,0,6.1,0,9.1c-3.1,0-6,0-9.1,0c0-3.1,0-6,0-9.1C412.6,711.4,415.5,711.4,418.7,711.4z"/>
<path d="M426.2,720.7c0-3.1,0-6,0-9c3.1,0,6,0,9.1,0c0,3.1,0,6,0,9C432.2,720.7,429.2,720.7,426.2,720.7z"/>
<g>
	<polygon points="411.5,244.4 371.6,244.4 371.6,205.4 411.5,205.4 	"/>
	<rect x="371.6" y="577.4" width="39.9" height="39.1"/>
	<path d="M484.3,205.4v42.1c-6.2-1.2-12.4-2-18.7-2.5c-3.5-0.3-7.1-0.4-10.6-0.5c-1.4-0.1-2.9-0.1-4.4-0.1h-6.2v-39.1H484.3z"/>
	<path d="M484.3,570.3v46.2h-39.9V577c3.6-0.3,7.5-0.7,11.6-1.3c3.5-0.5,7-1.1,10.5-1.7c3-0.6,6.4-1.3,9.9-1.9
		C479.1,571.5,481.7,570.9,484.3,570.3z"/>
	<path d="M562,323.8c-10.3-23.4-24.1-41.1-41.5-53c-4.8-3.3-10-6.1-15.3-8.3c-3.8-1.6-7.7-3-11.6-4.1c-9.3-2.6-18.9-4.3-28.6-4.9
		c-3.3-0.2-6.7-0.4-10.2-0.5c-1.4,0-2.8-0.1-4.3-0.1H321.1v43.7h8.5c7.5,0,12.4,0.7,14.7,2.2c2.3,1.5,4.1,3.7,5,6.3
		c1,2.8,1.5,9,1.5,18.7v172.7c0,9.7-0.5,15.9-1.4,18.8c-1.4,3.6-3.3,6.2-5.5,7.7c-2.3,1.5-7,2.3-14.2,2.3h-8.5V569h114
		c6.6-0.1,13.2-0.6,19.7-1.6c3.2-0.5,6.6-1,10.2-1.7c3.1-0.6,6.3-1.2,9.7-1.9c6.4-1.3,12.7-3,19-5c4-1.3,7.8-2.8,11.6-4.5
		c2.6-1.2,5.1-2.5,7.6-4c11.9-7.3,23.1-18.1,33.4-32.5c10.5-14.7,18.5-31.2,23.4-48.6c5.2-18,7.9-38.4,7.9-61.2
		C577.5,375.3,572.4,347.2,562,323.8z M505.2,459.4c-1.1,3.7-2.3,7.3-3.7,10.8c-2.2,5.6-4.8,11-7.9,16.2
		c-5.3,8.8-11.5,15.7-18.5,20.6h-0.1c-3.2,2.2-6.5,4-10.1,5.5c-8.6,3.6-19.1,5.5-31.3,5.9c-1.3,0-2.6,0.1-4,0.1
		c-7,0-11.3-0.4-13.2-1.2c-1.9-1-3.4-2.6-4.2-4.7c-0.6-1.5-0.9-5.6-0.9-12.3V303.4h27.2c10.1,0,18.8,1.2,26.2,3.6
		c4.2,1.3,8.2,3.2,11.8,5.6c0.6,0.4,1.3,0.8,1.9,1.3c5.5,4.1,10.5,10,14.9,17.6c3.4,5.9,6.2,12,8.5,18.4c1.1,3.1,2.2,6.2,3.1,9.5
		c4.3,14.9,6.4,31.7,6.4,50.6C511.6,428.4,509.5,444.9,505.2,459.4z"/>
</g>
</svg>
