<?xml version="1.0" encoding="utf-8"?>
<!-- Generator: Adobe Illustrator 26.0.3, SVG Export Plug-In . SVG Version: 6.00 Build 0)  -->
<svg version="1.1" xmlns="http://www.w3.org/2000/svg" xmlns:xlink="http://www.w3.org/1999/xlink" x="0px" y="0px"
	 viewBox="0 0 1000 1000" enable-background="new 0 0 1000 1000" xml:space="preserve">
<g id="Layer_1">
	<path fill="#030202" d="M501.9,171.8c177.8,0.3,318.9,144.8,318.7,319.3C820.4,665,679.7,809.7,501.5,809.6
		C323,809.4,182.2,664.1,182.8,489.9C183.4,314.1,326,171.6,501.9,171.8z M501.9,194.2c-163.6-0.1-296.1,132.3-296.6,295.9
		c-0.5,162,130.6,296.7,296.2,297c163.4,0.3,296.1-132.3,296.6-295.9C798.6,328.9,667.1,194.5,501.9,194.2z"/>
	<path fill="#030202" d="M559.1,893.7c8,3.4,12.7,9.5,17.5,15.3c2.9,3.4,5.7,6.9,8.8,10.7c-5.2,1.2-10.1,1.4-14.9,2.2
		c-1.4,0.2-1.9-1-2.6-1.8c-3.8-4.3-7.6-8.6-11.4-12.9c-1.1-1.2-2.3-2.3-3.2-3.6c-4.5-5.9-10.3-7.4-17.5-5c0.6,4.7,1.2,9.5,1.8,14.3
		c0.5,3.7,0.9,7.4,1.5,11.1c0.3,1.5-0.1,2-1.5,2.2c-3.1,0.4-6.2,0.7-9.3,1.3c-2.1,0.4-2.6-0.6-2.8-2.3c-0.7-5.9-1.6-11.9-2.3-17.8
		c-1.9-14.5-3.7-28.9-5.6-43.4c-0.3-2.7-0.4-2.7,2.2-3.1c9.6-1.3,19.3-2.6,28.9-3.7c2.6-0.3,5.2-0.3,7.8-0.3
		c9.9,0.2,16.8,6.8,17.5,16.7c0.6,8.9-3.1,15.1-11.4,18.6C561.7,892.7,560.8,893.1,559.1,893.7z M551.1,868.4
		c-5.4,0.7-11.5,1.5-17.5,2.2c-1,0.1-1.6,0.5-1.4,1.7c0.7,4.7,1.3,9.3,2,14c0.1,0.8,0.4,1.4,1.4,1.2c6.3-1,12.6-1.4,18.8-3
		c4.4-1.1,6.6-4.7,5.9-9C559.5,870.9,556.5,868.4,551.1,868.4z"/>
	<path fill="#030202" d="M371.7,907.2c4.5-16.8,8.8-33.1,13.2-49.5c1.2-4.3,2.3-8.7,3.4-13c0.4-1.6,1-2.3,2.8-1.8
		c8.9,2.5,17.8,4.8,26.6,7.3c13.9,3.9,18.7,14.7,18.7,25.7c0,8.5-2,16.5-5.8,24.1c-0.9,1.8-2,3.4-3.2,5c-6.4,8.4-14.8,11.8-25.3,9.9
		C391.9,913.1,382.1,909.8,371.7,907.2z M387.7,899.7c5.4,1.5,10.4,3.1,15.6,3.9c6,1,10.5-1.2,13.4-6.6c3.7-7,6-14.5,6.1-22.5
		c0.1-6.9-3-11.3-9.5-13.6c-4-1.4-8.1-2.3-12.1-3.6c-1.7-0.5-2.2,0.1-2.5,1.6c-0.4,2.2-1.1,4.3-1.7,6.5
		C393.8,876.8,390.8,888.1,387.7,899.7z"/>
	<path fill="#030202" d="M697.1,860.2c0.2,8.9-3.8,15.7-10.8,20.7c-1.7,1.2-3.6,2.3-5.4,3.3c-7.2,3.7-14.4,7.4-21.6,11.1
		c-1.6,0.8-2.5,1.1-3.4-0.9c-9.4-18.6-18.9-37.1-28.4-55.6c-0.6-1.1-1.2-2.1,0.6-2.9c9.1-4.4,17.8-9.5,27.1-13.4
		c8.9-3.8,17.3-2.5,24.6,3.5C690.5,834.7,696.1,846.3,697.1,860.2z M684,862.4c0-0.5,0-1.1-0.1-1.7c-1.6-8.9-5.5-16.8-11.5-23.5
		c-4.1-4.5-9.4-5.5-15-3.2c-3.6,1.4-7,3.2-10.4,5c-3.3,1.6-3.3,1.7-1.7,4.8c5.1,10,10.2,19.9,15.3,29.9c0.8,1.7,1.7,3.3,2.5,5
		c0.4,0.9,1,1.4,2,0.8c4.8-2.6,10-4.6,14.3-8C682.4,869.3,684.1,866.4,684,862.4z"/>
	<path fill="#030202" d="M265.9,213c-1.3-0.6-1.7-1.7-2.3-2.6c-11.4-16.5-22.8-33-34.1-49.5c-0.3-0.4-0.5-0.9-0.9-1.2
		c-1-1.1-0.7-1.9,0.5-2.7c4.2-2.8,8.4-5.8,12.6-8.6c3.8-2.6,7.6-5.2,11.5-7.6c9.5-5.9,19.1-5.3,28,1.1c9.6,6.9,16.1,16.2,18.9,27.8
		c2.3,9.9-0.4,18.2-8,24.9c-4.5,4-9.7,7-14.5,10.5C273.6,207.8,269.7,210.4,265.9,213z M245.1,159.8c2.8,4,5.3,7.7,7.9,11.4
		c5.3,7.7,10.7,15.4,15.9,23.1c1,1.5,1.7,1.7,3.2,0.6c3.2-2.4,6.6-4.5,9.8-6.9c6.3-4.8,7.5-9.4,4.7-16.7c-1.9-4.9-4.9-9.2-8.1-13.4
		c-1.8-2.3-3.7-4.3-6.1-6c-4.4-3-9-3.4-13.8-0.9C253.9,153.5,249.6,156.6,245.1,159.8z"/>
	<path fill="#030202" d="M650.8,899.7c-4.5,1.4-8.7,2.6-12.8,4c-1.3,0.4-1.8-0.3-2.5-1.1c-2.5-3.1-5-6.2-7.4-9.4
		c-1-1.4-2-1.8-3.7-1.2c-7,2.3-14,4.4-21,6.5c-1.9,0.6-2.4,1.5-2.5,3.4c0,3.9-0.4,7.7-0.6,11.6c0,1,0,1.9-1.3,2.3
		c-4,1.2-8,2.5-12.5,3.8c0.4-6.3,0.8-12.1,1.2-17.9c0.9-12.7,1.8-25.4,2.7-38.1c0.3-4.1,0.6-8.2,0.8-12.3c0.1-1.5,0-2.7-1.2-4.1
		c-2.8-3.4-2.7-7.8-0.3-11c2.3-3.1,6.3-4.3,10-3.1c3.8,1.3,6.4,4.7,6,8.9c-0.2,2.1,0.7,3.3,1.8,4.6c11.3,13.9,22.7,27.9,34,41.8
		C644.6,892.1,647.5,895.7,650.8,899.7z M601.6,887.2c5.9-1.9,11.5-3.6,17.4-5.5c-5.4-7-10.4-13.5-15.5-20c-0.2,0.1-0.5,0.2-0.7,0.3
		C602.4,870.3,602,878.5,601.6,887.2z M597,837.6c-2.2,0-4.1,1.8-4.2,3.9c0,2.1,1.9,4.1,4,4.2c2.1,0.1,4.1-1.8,4.1-4
		C601,839.5,599.2,837.7,597,837.6z"/>
	<path fill="#030202" d="M514.3,928.2c-1.8,0-3.3,0-4.8,0c-14.5-0.5-28.9-0.9-43.4-1.4c-2.8-0.1-2.8-0.1-2.7-3
		c0.6-20.3,1.3-40.7,1.9-61c0.1-3.1,0.1-3.1,2.7-3.1c14.6,0.4,29.2,0.9,43.8,1.3c3.3,0.1,3.3,0.1,3.2,3.3c-0.1,2-0.2,4-0.1,6
		c0.1,1.8-0.6,2.3-2.4,2.3c-8.2-0.4-16.5-0.6-24.7-0.8c-2.4-0.1-4.7-0.1-7.1-0.3c-1.4-0.1-2,0.3-2.1,1.8c-0.1,3.6-0.2,7.2-0.5,10.8
		c-0.1,1.9,0.7,2.3,2.4,2.3c8.4,0.2,16.7,0.4,25.1,0.8c2,0.1,4.4-0.8,5.7,0.6c1.3,1.4,0.3,3.8,0.3,5.8c0,5-0.1,5-5.3,4.9
		c-8.6-0.3-17.2-0.5-25.8-0.8c-2.6-0.1-2.6,0-2.8,2.6c-0.2,4.4-0.2,8.7-0.5,13.1c-0.1,2.1,0.7,2.5,2.5,2.6c10.2,0.3,20.5,0.7,30.7,1
		c0.6,0,1.3,0.1,1.9,0c1.7-0.1,2.5,0.3,2.4,2.3C514.5,922.1,514.4,925.1,514.3,928.2z"/>
	<path fill="#030202" d="M723.7,790.1c-9.7,7.2-19.2,14.2-29.1,21.5c3,4,5.8,7.8,8.8,11.9c2.2-1.6,4.2-3.1,6.2-4.5
		c6.3-4.7,12.7-9.3,19-14c1.4-1,2.2-1.2,3.3,0.4c1.6,2.5,3.5,4.8,5.3,7.4c-9.1,6.7-18,13.3-27,20c3.2,4.4,6.4,8.6,9.4,12.9
		c1.1,1.5,1.8,1.5,3.2,0.4c8.3-6.2,16.6-12.3,25-18.4c1-0.7,1.9-1.6,3.1-2c0.2,0.1,0.5,0.2,0.6,0.3c2,2.7,4.2,5.3,5.9,8.2
		c-2.1,2.7-5.1,4.2-7.8,6.2c-9.9,7.4-19.9,14.7-29.8,22c-1,0.7-1.9,1.6-3.3,2c-13.2-17.9-26.3-35.7-39.6-53.7
		c4.9-3.6,9.5-7,14.1-10.4c7.9-5.8,15.9-11.7,23.8-17.5c2.1-1.5,2.1-1.5,3.7,0.6C720.2,785.3,721.9,787.6,723.7,790.1z"/>
	<path fill="#030202" d="M223.1,785.6c3,2.3,5.8,4.6,8.8,6.7c1.3,0.9,1.4,1.7,0.6,3.1c-1.8,3.2-2.9,6.6-1.8,10.4
		c1.8,6.1,8.8,11.9,14.5,11.8c6.2,0,9.3-4.7,6.8-10.4c-1.5-3.5-3.7-6.5-5.7-9.6c-2.4-3.8-4.8-7.6-6.3-11.8
		c-4-11.2,2.5-22.3,14.1-24.1c3.6-0.6,7,0.2,10.2,1.7c7.8,3.6,13.8,9.3,17.9,16.9c3.8,6.9,2.8,16.1-3.2,22.1
		c-3.1-2.6-6.2-5.3-9.3-7.9c-0.7-0.6-0.7-1.2-0.3-1.9c0.5-1,0.9-2,1.3-3.1c0.7-1.8,0.7-3.7-0.2-5.5c-2.4-5-6.1-8.5-11.4-10
		c-4.4-1.2-7.4,1.7-6.7,6.1c0.3,1.7,1.1,3.3,2,4.8c1.9,3.1,3.8,6.2,5.7,9.2c1.9,3.1,3.7,6.2,5.1,9.5c5.5,13.2-4.6,24.5-14.3,26.6
		c-4.9,1.1-9.4,0.3-13.8-1.9c-6-3-10.9-7.4-15-12.7C215.2,806,215.4,795.5,223.1,785.6z"/>
	<path fill="#030202" d="M374.2,835.9c4.2,2,8.1,3.8,12,5.5c-0.1,0.6-0.1,0.8-0.2,1c-6.2,13.5-12.1,27.1-18.8,40.3
		c-0.6,1.2-1.3,2.4-2.1,3.6c-5.3,8.4-13.1,11.6-22.8,9.2c-6-1.5-11.5-4.1-16.5-7.7c-8-5.7-10.8-14-8-23.3c1.1-3.4,2.4-6.8,3.8-10.1
		c4.9-10.9,9.9-21.8,14.9-32.6c1.2-2.6,1.2-2.6,3.8-1.4c2.5,1.1,5,2.3,7.5,3.5c2.3,1.1,2.3,1.1,1.2,3.5c-4.8,10.5-9.7,21-14.5,31.6
		c-1.2,2.7-2.3,5.5-3.4,8.3c-0.9,2.2-0.9,4.4-0.2,6.6c1.9,6.2,11,11.2,17.2,9.5c2.7-0.7,4.6-2.4,5.9-4.8c1.7-3.2,3.4-6.4,4.9-9.7
		c4.5-9.7,9-19.5,13.4-29.2C372.9,838.6,373.4,837.5,374.2,835.9z"/>
	<path fill="#030202" d="M466.3,111.1c-1.4,1.7-2.8,3.5-4.2,5.2c-0.8,1-0.9,1.9-0.8,3.1c0.4,3.6,0.7,7.2,1,10.8
		c0.2,2.8,0.2,2.8-2.7,3.1c-2.6,0.3-5.2,0.4-7.8,0.7c-1.7,0.2-2.1-0.4-2.2-2c-0.6-6.8-1.3-13.7-1.9-20.5c-1.3-14.5-2.5-29-3.8-43.9
		c4.1-1.2,8.4-0.5,12.7-1.6c1.1,11.8,2.1,23.1,3.1,34.5c1.5-0.2,1.8-1.3,2.3-2c3.3-4.4,6.5-8.8,9.7-13.3c0.9-1.3,1.9-2,3.6-2.1
		c4.2-0.2,8.4-0.7,12.7-1.1c0.6,1.1-0.3,1.6-0.8,2.2c-3.8,4.9-7.6,9.9-11.6,14.7c-1.4,1.6-1.4,2.7-0.1,4.5
		c5.8,8.1,11.5,16.3,17.2,24.5c0.4,0.6,0.8,1.2,1.2,1.9c-1.6,0.6-11.1,1.7-12.5,1.6c-1.3-0.1-1.6-1-2.2-1.8
		c-3.5-5.1-7-10.3-10.5-15.4C468.1,113.1,467.6,111.9,466.3,111.1z"/>
	<path fill="#030202" d="M585.4,89.9c12.2,0.1,21.7,6.9,24.8,17.7c3.6,12.5-3,31-21.4,33c-10.4,1.1-24.1-5.1-27-16.7
		c-2.6-10.4-0.5-19.8,7-27.6C573.3,91.6,579,89.8,585.4,89.9z M573.9,117.3c-0.1,6.5,3.4,11.4,9,12.5c5.9,1.1,11.1-1.9,13.5-8
		c1.2-3.2,1.9-6.4,1.7-9.9c-0.3-5.6-3.7-10-8.8-11.2c-5.1-1.2-10.2,1.2-12.8,6.2C574.7,110.2,573.9,113.7,573.9,117.3z"/>
	<path fill="#030202" d="M404.1,122.7c1,6.3,5.5,10.1,11.3,9.6c4-0.4,6.5-2.3,7.2-6.3c0.4-2.2,1.4-2.6,3.2-2.6c3-0.1,6-0.3,9-0.4
		c0.3,0,0.7,0.2,1,0.3c-1.3,10.2-7.5,16.6-18.1,18.6c-12.9,2.4-22.3-3-26.5-15.5c-1.8-5.2-2.8-10.6-1.8-16.2
		c1.9-10.8,9.9-17.8,20.9-18.5c9.1-0.5,15.9,3.3,20.4,11.2c1.8,3.2,2.9,6.6,3.8,10.1c0.6,2.5,0.5,2.6-2.1,3.2c-8,1.8-16,3.6-24,5.5
		C406.9,121.9,405.5,122.3,404.1,122.7z M401.7,111.6c0,0.3,0.1,0.9,0.1,1.6c0.1,1.2,0.6,1.8,1.9,1.5c5.2-1.2,10.4-2.4,15.6-3.6
		c1.2-0.3,1.3-0.9,1-1.9c-1.1-4.6-5.8-8.1-10.2-7.6C405.1,102.1,401.7,106,401.7,111.6z"/>
	<path fill="#030202" d="M686.7,154.5c-1.5,2.5-2.1,4.9-1.9,7.4c0.3,3.8,2.2,6.5,5.6,8.3c3.1,1.6,6.1,1.1,8.7-1.1
		c1-0.9,1.7-1,2.8-0.1c2.8,2.3,5.6,4.5,8.7,6.9c-5.4,5-11.4,6.8-18.3,5.3c-4.2-0.9-7.9-2.9-11.3-5.5c-7-5.3-9.5-12.4-7.9-20.8
		c1.4-7.3,4.9-13.6,10.5-18.6c6.4-5.7,13.8-7.4,21.9-4.2c8.2,3.2,13.9,8.8,14.9,18c0.8,6.9-1.8,13-5,18.9c-0.6,1.1-1.4,0.7-2.2,0.2
		c-3.1-1.7-6.1-3.3-9.2-5C698.3,160.8,692.6,157.7,686.7,154.5z M690.6,147.6c5.6,3.1,11,6,16.4,9c3.3-5.6,2.4-11.2-2.1-14
		C699.9,139.4,694.7,141.1,690.6,147.6z"/>
	<path fill="#030202" d="M748.9,220.4c-3.5-2.6-6.8-5.1-10.3-7.7c1.6-2.1,3-4.1,4.5-6c4.2-5.6,8.4-11.2,12.5-16.8
		c0.7-0.9,1.3-1.9,1.8-2.8c2.4-3.9,2.4-7,0.1-9.7c-2.7-3.1-7.5-4.3-11.2-2.7c-2,0.8-3.5,2.3-4.9,3.9c-4,4.5-7.4,9.5-11,14.2
		c-1.8,2.4-3.6,4.8-5.4,7.2c-0.8,1.1-1.5,1.5-2.7,0.5c-2.8-2.2-5.7-4.4-8.8-6.7c9.8-13,19.4-25.9,29.2-38.8c3.3,2.5,6.4,4.8,9.5,7.2
		c-1.3,1.7-2.3,3.2-3.8,5.2c1.7-0.1,3-0.2,4.3-0.3c7.7-0.5,13.5,2.7,17.8,8.9c3,4.4,3.2,9.1,0.8,13.8c-0.9,1.8-2,3.5-3.2,5.1
		c-6,8.1-12.1,16.2-18.2,24.3C749.6,219.5,749.3,219.9,748.9,220.4z"/>
	<path fill="#030202" d="M626.9,151.6c-3.5-1.3-6.5-2.4-9.6-3.6c-2.4-0.9-2.4-1-1.5-3.4c3.9-10.6,7.9-21.2,11.8-31.8
		c1.1-3,2.3-6.1,3.3-9.1c0.5-1.4,1.1-2.1,2.7-1.4c2.5,1,5.1,2,7.7,2.9c1.4,0.5,1.6,1.3,1,2.5c-0.6,1.2-0.9,2.5-1.5,4.2
		c2.9-0.8,5.3-2.2,8-2.5c7-0.8,12.8,1.3,17.5,6.4c3.3,3.5,3.6,7.8,2.6,12.3c-0.5,2.2-1.2,4.3-2,6.4c-3.1,8.5-6.3,17-9.5,25.5
		c-1,2.6-1,2.6-3.7,1.6c-2.2-0.8-4.4-1.6-6.6-2.5c-2.7-1-2.7-1-1.7-3.9c2.8-7.6,5.6-15.2,8.4-22.8c0.6-1.5,1-3.1,1.4-4.6
		c1.7-6.5-2.8-11.4-9.5-10.4c-3.2,0.5-5.5,2.1-7.2,4.8c-1.6,2.7-2.7,5.6-3.8,8.5C632.1,137.7,629.5,144.5,626.9,151.6z"/>
	<path fill="#030202" d="M341,151.3c3.5-2,6.6-3.7,9.7-5.6c1-0.6,1.6-0.5,2.5,0.4c5,4.6,13.4,3.7,17.4-1.7c1-1.4,1.4-2.9,0.5-4.5
		c-0.8-1.6-2.1-2-3.7-1.9c-3.1,0.3-6.2,0.6-9.3,1.1c-3.6,0.5-7.2,0.7-10.8,0.5c-10.5-0.3-16.4-10.9-11.4-20.1c1.4-2.6,3.5-4.5,6-6.1
		c5-3.2,10.5-5.1,16.4-5.9c6.2-0.8,11.1,1.6,15.3,6.8c-3.2,2-6.3,3.8-9.3,5.7c-0.9,0.5-1.4,0.3-2.3-0.3c-4.3-3.2-12.4-1.9-15.7,2.5
		c-1.7,2.3-0.6,4.7,2.5,4.9c3.2,0.2,6.5-0.4,9.7-0.7c4.6-0.5,9.1-1.1,13.8-0.7c9,0.7,13,10.1,11,17c-1,3.5-2.7,6.5-5.5,8.7
		c-7.2,5.6-15.3,8.8-24.6,7.6C348.2,158.4,344.2,155.8,341,151.3z"/>
	<path fill="#030202" d="M301.2,807.9c-5.6-3.8-10.8-7.5-16.2-11.2c1.9-3.3,4-6.3,6.4-9.4c14.6,10,29.1,20,43.8,30.1
		c-2.1,3.1-4.2,6.1-6.4,9.3c-5.4-3.7-10.7-7.3-16.4-11.1c-10.5,15.3-20.9,30.4-31.5,45.8c-3.7-2.6-7.3-5-11.2-7.7
		C280.2,838.5,290.6,823.4,301.2,807.9z"/>
	<path fill="#030202" d="M719.5,779.2c6-6.1,11.8-12.1,17.6-18.1c5.7-5.9,11.5-11.8,17.2-17.7c2.4-2.4,2-2.5,4.5,0
		c1.3,1.3,2.6,2.7,4,3.9c1.5,1.2,1.6,2.1,0.1,3.5c-4,3.9-7.9,8-12.2,12.4c13.1,13,26.4,25.7,39.8,38.9c-3.1,3.2-6.2,6.4-9.5,9.7
		c-13.4-13-26.5-25.9-39.4-38.4c-4.3,4.1-8.5,8-12.6,12c-1.4,1.4-2.2,1.7-3.5,0.1C723.8,783.4,721.7,781.5,719.5,779.2z"/>
	<path fill="#030202" d="M516.8,65.5c0,5.2,0.1,9.8,0,14.4c0,1.9,0.3,2.7,2.4,2.7c1.9-0.1,4.5-0.9,5.7,0.5c1.3,1.5,0.3,4,0.4,6.1
		c0,0.7,0,1.5,0,2.2c0,1.1-0.6,1.5-1.6,1.5c-1.7-0.1-3.5,0-5.2-0.1c-1.4-0.1-2,0.4-2,1.9c0,7.6-0.2,15.2-0.2,22.8
		c0,3.3,1.6,4.4,4.8,3.9c1.1-0.2,2.1-0.5,3.4-0.8c0.8,2.8,0.7,5.6,1,8.3c0.1,1.2-0.4,1.9-1.5,2.2c-4.7,1.3-9.3,1.7-14,0.1
		c-3.8-1.3-5.9-3.9-6.4-7.9c-0.4-3.5-0.4-7-0.3-10.5c0.1-5.9,0.3-11.7,0.4-17.6c0-2.7,0-2.7-2.6-2.8c-0.4,0-0.8-0.1-1.1,0
		c-1.9,0.3-2.4-0.7-2.2-2.4c0.1-1.1,0.1-2.2,0.1-3.4c0.1-4.2,0.1-4.3,4.3-4.5c1.3-0.1,1.8-0.5,1.7-1.8c0-1.5,0.3-3,0.1-4.5
		c-0.3-2.7,1-4,3.2-5.1C510.3,69.2,513.4,67.3,516.8,65.5z"/>
	<path fill="#030202" d="M459.9,858.1c-1.3,9.3-2.6,18.3-3.8,27.2c-1.6,11.6-3.3,23.2-5,34.7c-0.1,0.4-0.1,0.7-0.1,1.1
		c-0.6,3.6-0.7,3.5-3.6,2.8c-2.5-0.6-5.2-0.8-7.8-1.1c-1.7-0.2-2.6-0.5-2.2-2.8c1.8-11.8,3.4-23.7,5.1-35.5
		c1.2-8.3,2.4-16.5,3.5-24.8c0.1-0.4,0.1-0.7,0.1-1.1c0.5-2.6,0.5-2.7,3.1-2.4C452.6,856.9,456,857.5,459.9,858.1z"/>
	<path fill="#030202" d="M538.3,83.7c3.5,0.3,7.1,0.8,10.7,1c1.6,0.1,1.7,0.9,1.6,2.2c-1.4,14.8-2.9,29.5-4.2,44.3
		c-0.2,1.8-0.9,2-2.4,1.8c-2.8-0.4-5.7-0.7-8.6-0.8c-1.7-0.1-2.1-0.7-1.9-2.3c0.6-6.1,1.1-12.2,1.7-18.2c0.8-8.1,1.5-16.1,2.3-24.2
		C537.6,86.3,537.5,85,538.3,83.7z"/>
	<path fill="#030202" d="M335.5,149.8c-7.7,3.9-15,7.7-22.4,11.5c-1.8-3.5-3.5-6.8-5.2-10.1c-0.5-1-0.3-1.5,0.7-2
		c6.5-3.3,13.1-6.7,19.6-10.1c1.1-0.6,1.8-0.4,2.4,0.7C332,143,333.7,146.2,335.5,149.8z"/>
	<path fill="#030202" d="M538.8,73.2c0.2-1.5,0.5-3.9,0.6-6.2c0.1-1.3,0.5-1.8,1.8-1.7c3.2,0.3,6.4,0.6,9.7,0.9
		c1.1,0.1,1.5,0.7,1.4,1.7c-0.3,3-0.6,5.9-0.8,8.9c-0.1,0.9-0.5,1.4-1.4,1.3c-3.5-0.3-6.9-0.6-10.4-1
		C538.6,77.1,538.6,76.9,538.8,73.2z"/>
	<path fill="#F281A2" d="M515.5,583.7c0.3,0.1,0.7-0.1,0.8,0.3c-0.1,0-0.2,0.1-0.3,0.1C515.9,584,515.7,583.9,515.5,583.7
		C515.5,583.7,515.5,583.7,515.5,583.7z"/>
	<path fill="#F281A2" d="M545.5,586.7c-0.1,0.3-0.2,0.6-0.3,0.9c-0.1-0.1-0.2-0.1-0.3-0.2C544.9,587.1,545.1,586.8,545.5,586.7
		C545.5,586.7,545.5,586.7,545.5,586.7z"/>
</g>
<g id="Layer_2">
	<path fill="#F281A2" d="M902.1,497.8c0.4,8.8-0.1,18.9-0.9,29c-1.5,18.9-4.1,37.6-8.2,56.1c-4.9,22.1-11.5,43.6-20,64.5
		c-9,22.1-19.8,43.3-32.6,63.5c-5.7,9-11.6,17.7-18.1,26.2c-3.3,4.3-7.8,6.2-13.2,5.1c-5.2-1.1-8.6-4.4-10-9.5
		c-1.1-3.9-0.3-7.7,2.1-11c3.8-5.3,7.6-10.5,11.3-15.9c17.3-25.8,31.3-53.3,41.8-82.6c6.2-17.3,11.1-34.9,14.7-52.9
		c2.2-10.7,3.7-21.6,4.9-32.5c2.2-18.9,2.5-37.8,2-56.8c-0.3-10.7-1.4-21.4-2.7-32c-1.9-15.1-4.7-30-8.4-44.7
		c-6-23.9-14.3-46.9-24.9-69.2c-11.2-23.5-24.7-45.6-40.5-66.3c-7.4-9.7-15.2-19.1-23.7-28c-1.3-1.3-2.6-2.7-3.6-4.3
		c-2.8-4.3-3.2-9-0.6-13.5c2.4-4.1,5.9-6.6,11-6.7c4.1-0.1,7.5,1.2,10.4,4.2c9.3,9.9,18.1,20.2,26.4,31c16.6,21.6,31,44.7,42.9,69.2
		c15.1,31.1,26.1,63.6,32.7,97.6c2.8,14.4,4.8,29,6.1,43.6C901.7,473.6,902.2,485,902.1,497.8z"/>
	<path fill="#F281A2" d="M98.4,497.3c-0.1-12.7,0.5-24.4,1.6-36.1c2.6-29.2,8.2-57.9,17.1-85.9c6.7-21.2,15.1-41.7,25.3-61.5
		c13.3-25.9,29.2-50.2,47.8-72.7c5.8-7,11.7-14,18.2-20.4c6.8-6.7,17.8-4.3,21.1,4.6c1.8,5,1.1,9.8-2.7,13.9
		c-9.8,10.4-18.9,21.2-27.4,32.6c-11.9,15.9-22.5,32.7-31.7,50.3c-10.2,19.5-18.7,39.7-25.4,60.7c-5.5,17.4-9.8,35-12.6,53
		c-1.7,10.7-3,21.4-3.8,32.3c-0.9,12.2-1.6,24.4-1.2,36.6c0.5,12.1,1.2,24.1,2.6,36.1c3.3,28.5,9.8,56.2,19.5,83.1
		c9,25,20.5,48.7,34.6,71.2c4.8,7.6,9.8,15.1,15,22.4c5.4,7.5,1.9,16.8-5.3,19.8c-5.3,2.2-11.9,1.3-16.2-4.7
		c-5.5-7.7-10.9-15.5-15.9-23.6c-7.9-12.6-15-25.6-21.4-39c-14.2-30-24.8-61.2-31.3-93.7c-2.4-12.1-4.3-24.3-5.7-36.5
		c-0.9-8.5-1.6-17.1-1.8-25.7C98.8,508,98.2,502.2,98.4,497.3z"/>
	<path fill="#F281A2" d="M272.1,636.4c1.2-1.4,3-1.7,4.5-2.3c30.4-11.3,61-21.8,91.8-31.8c10-3.2,20.3-5.1,30.6-6.7
		c10.3-1.6,20.7-2.7,31.2-3.4c12.4-0.9,24.9-1.3,37.4-0.8c17.8,0.7,35.1,4,52.1,9.2c4.9,1.5,9.6,3.4,13.9,6.4c1,0.7,1.9,1.2,2.7-0.3
		c4.6-8.8,12.2-15.1,19.2-21.8c5-4.7,9.8-9.6,15.3-13.8c7.9-6.1,16.3-11.5,25.1-16.2c20.2-10.9,41.3-19.9,63.2-27.1
		c10.8-3.5,21.9-5.7,33.1-7.7c18.4-3.3,36.8-6.5,55.2-9.6c9.9-1.7,19.9-3,29.9-4.5c0.5-0.1,1-0.1,1.5-0.1c1.4,0.1,2.1,0.7,1.5,2.2
		c-0.2,0.5-0.4,0.9-0.6,1.4c-5.7,9.4-8.9,19.8-12.6,29.9c-4.8,13-9.3,26.1-13.8,39.1c-1.2,3.4-1.4,3.2-4.5,2.3
		c-12-3.4-24.3-5.2-36.7-6.2c-21.1-1.8-41.7,0.9-62.1,6.4c-13.6,3.6-27.2,7.2-40.3,12.4c-16,6.3-30.6,15.1-44.8,24.7
		c-7,4.7-13.9,9.7-20.4,15.2c-1.5,1.3-3,1.6-4.8,1.2c-12.6-2.4-25.3-3.8-38.2-4.6c-6.5-0.4-13-0.5-19.4-0.5
		c-12.2,0.1-24.3,1.8-36.3,4.4c-14.6,3.2-29.2,6.4-43.4,11.2c-19.3,6.6-36.7,16.6-52.7,29.2c-5,3.9-9.8,8.1-14.3,12.7
		c-2.2,2.2-2.3,2.2-4.5,0.2c-4.5-4-8.9-8-13.3-12.1c-9.7-8.8-19.3-17.8-29.3-26.2c-4.2-3.6-8.6-6.8-13.2-9.8
		C274,638.4,272.6,637.9,272.1,636.4z"/>
	<path fill="#F281A2" d="M520.3,593.5c-6.5-1.1-12.8-2.8-19.3-4.1c-7.8-1.5-15.7-2.6-23.6-3.7c-10.4-1.3-20.9-1.6-31.3-1.8
		c-9.4-0.1-18.9,0.2-28.4,0.9c-6.6,0.5-13.2,1-19.7,1.8c-7.7,0.9-15.3,1.9-22.9,3.1c-15.2,2.5-30.3,5.7-45.3,9.5
		c-13.6,3.5-27.2,7.3-40.4,12.1c-2.4,0.9-4.1,0.5-6-1.1c-6.1-5-12.3-9.8-18.5-14.6c-0.7-0.5-1.5-0.9-1.9-1.8c0.6-0.8,1.6-1,2.5-1.3
		c20.9-6.7,42.1-12.1,63.6-16.5c12.8-2.6,25.7-4.8,38.7-6.4c9.6-1.2,19.3-2.1,29-2.7c10.4-0.6,20.7-0.8,31-0.5
		c19.6,0.6,39,3.2,57.7,9.3c12,3.9,23.4,9.3,33.7,16.8C519.5,592.9,519.9,593.2,520.3,593.5z"/>
	<path fill="#F281A2" d="M545.5,586.7c1.4-4.9,4.2-9,6.9-13.2c8.6-13.5,19.7-24.7,32.1-34.7c20.4-16.4,43.1-28.7,66.9-39.2
		c31.2-13.7,63.7-23.7,96.8-31.6c7.3-1.8,14.7-3.4,22.5-4.5c-0.8,3.3-2.3,6-3.5,8.9c-2.3,5.5-4.6,11-6.9,16.6
		c-0.7,1.6-1.5,2.6-3.4,2.9c-17.6,2.8-34.9,6.9-52.1,11.6c-22.2,6.2-44,13.7-65.2,23c-26.5,11.6-51.6,25.5-74.4,43.6
		c-5.8,4.6-11.3,9.4-16.6,14.6C547.8,585.3,547.1,586.7,545.5,586.7L545.5,586.7z"/>
	<path fill="#F281A2" d="M762.2,431.8c0.2,1.1-0.5,1.9-1,2.8c-2.8,5-5.7,9.9-8.5,14.9c-0.7,1.2-1.3,2.2-3,2.3
		c-8.2,0.7-16.2,2.7-24.1,4.8c-28.5,7.4-55.8,17.7-81.9,31.3c-21.1,11-40.8,23.9-58.6,39.9c-15,13.5-28.1,28.6-38.3,46.2
		c-0.2,0.3-0.5,0.6-0.8,1c-0.5-1.2,0.2-2,0.5-2.8c5.3-13.1,12.2-25.4,20.7-36.7c17.8-23.4,40.3-41.4,65.3-56.3
		c35.7-21.2,74.1-35.4,114.3-45c3.8-0.9,7.6-1.6,11.3-2.3C759.5,431.6,760.8,431.3,762.2,431.8z"/>
	<path fill="#F281A2" d="M515.5,583.7c-3.2-0.9-5.7-3.1-8.5-4.6c-15.6-8.1-32-13.9-49-17.8c-11.7-2.7-23.5-4.4-35.4-5.4
		c-10.4-0.8-20.9-1.6-31.4-1.2c-10.4,0.4-20.9,0.9-31.3,1.9c-21.4,2.1-42.4,5.9-63.1,11.4c-6.3,1.7-12.5,3.5-18.5,6
		c-1.3,0.5-2.3,0.6-3.5-0.1c-5.8-3.6-11.7-7.2-17.6-10.9c0.8-1.6,2.3-1.6,3.5-2c12.2-4.3,24.8-7.3,37.5-10.1
		c11.1-2.4,22.2-4.4,33.5-5.8c8.8-1.1,17.6-2,26.4-2.6c11.7-0.9,23.4-0.8,35.2-0.6c17.1,0.2,34,2.5,50.7,6.4
		c15.7,3.7,30.8,9.1,45.1,16.7c8.8,4.7,17.1,10.3,24.8,16.7C514.4,582.1,515.5,582.5,515.5,583.7L515.5,583.7z"/>
</g>
<g id="Layer_3">
	<path fill="#9966CC" d="M502.6,478.8c-10.9,6.2-18,14.7-21.9,26.2c-3.5-1.9-6.1-4.6-8.9-6.9c-15.5-12.9-30.9-25.9-46.4-38.9
		c-15-12.6-29.9-25.2-44.8-37.8c-14.7-12.3-29.4-24.6-44.1-36.9c-8.1-6.8-16.2-13.6-24.3-20.5c-3.4-2.9-3.1-1.8-1.3-6.2
		c3.7-9.1,9.8-16.1,18.2-21.2c1.7-1.1,2.9-1.2,4.6,0.3c18.9,16,37.9,31.9,56.9,47.8c19.6,16.4,39.1,32.8,58.7,49.2
		c15,12.6,29.9,25.2,44.8,37.8C496.7,474,499.4,476.2,502.6,478.8z"/>
	<path fill="#9966CC" d="M531.8,530.4c-4.2-0.2-8.1-1.6-11.9-3.1c-10.6-4.2-20.7-9.1-30.6-14.7c-5.6-3.2-5.5-3.5-2.8-9.5
		c3.8-8.3,9.7-14.7,17.3-19.6c1.7-1.1,2.8-1.3,4.5,0.2c2.3,1.9,4.1,4,5.8,6.3c6.1,7.7,12.1,15.5,17.1,24c1.4,2.5,2.7,5,3.9,7.6
		c0.6,1.2,1,2.6,1.1,3.9C536.9,529.1,535.6,530.4,531.8,530.4z"/>
	<path fill="#9966CC" d="M327.7,332.1c-11,6-18,14.8-22,26.2c-2.8-1.5-4.7-3.7-6.9-5.5c-4.2-3.3-8.1-6.9-12.3-10.2
		c-1.4-1.1-1.7-2.4-1.5-3.9c0.6-3.4,1.3-6.8,2.7-10c3.3-7.9,9.9-11.4,17.6-13.6c1.6-0.4,2.7,0.3,3.7,1.2
		C315.1,321.3,321.1,326.5,327.7,332.1z"/>
</g>
</svg>
