<svg xmlns="http://www.w3.org/2000/svg" viewBox="0 0 1181.8354 835.7711"><defs><style>.cls-1{fill:#f280a1;}.cls-1,.cls-2{fill-rule:evenodd;}.cls-2{fill:#fff;}.cls-3{fill:#96c;}</style></defs><g id="Layer_2" data-name="Layer 2"><g id="inner"><g id="dark"><g id="megaphone"><path id="base" class="cls-1" d="M678.1867,21.9,934.8229,626.4573a35.9092,35.9092,0,1,1-66.09,28.1071l-16.7123-39.3753L482.4493,653.4249c2.7854,8.23,4.6845,17.9784,5.6974,29.6266A140.567,140.567,0,0,1,360.5249,835.2353c-77.2315,6.71-145.347-50.39-152.0573-127.6218a85.0451,85.0451,0,0,1,1.2661-25.8283l-76.2186,7.85,7.2167,17.0922a35.9092,35.9092,0,1,1-66.09,28.1071L2.8547,565.6847a35.9092,35.9092,0,0,1,66.09-28.1071l8.103,18.9913,551.7617-467.06-16.7123-39.502a35.9091,35.9091,0,1,1,66.09-28.107ZM405.471,661.2748,285.1925,673.6825a67.2217,67.2217,0,0,0-3.2918,27.2209,66.53,66.53,0,1,0,132.56-11.5213A68.0372,68.0372,0,0,0,405.471,661.2748Z"/><polygon id="reflection" class="cls-2" points="638.305 200.545 123.133 574.801 136.68 606.833 697.051 339.182 638.305 200.545"/></g><g id="shout"><polygon id="lower" class="cls-3" points="925.638 337.559 940.729 377.412 1148.596 352.884 1127.262 275.551 925.638 337.559"/><polygon id="upper" class="cls-3" points="864.447 238.167 899.287 282.888 1181.835 176.018 1125.36 86.332 864.447 238.167"/></g></g></g></g></svg>