<svg xmlns="http://www.w3.org/2000/svg" viewBox="0 0 904.2578 996.7428"><defs><style>.cls-1{fill:#f280a1;}.cls-2{fill:#fff;}.cls-3{fill:#9a68cd;}</style></defs><g id="Layer_2" data-name="Layer 2"><g id="inner"><g id="dark"><path id="plate" class="cls-1" d="M820.3815,940.3358c2.9827,33.3678-18.6412,54.2459-43.3407,56.39H62.5242A100.2,100.2,0,0,1,28.97,991.5991,45.298,45.298,0,0,1,1.0083,939.87Z"/><path id="cup" class="cls-1" d="M763.5259,485.5726c9.3205,1.1184,17.4294,1.6776,25.6316,3.2623a146.7988,146.7988,0,0,1,81.9279,42.5018,114.55,114.55,0,0,1,28.9871,111.2879c-11.8372,47.0691-42.3154,79.8776-83.8854,103.0858a184.6411,184.6411,0,0,1-125.7348,20.3188,9.3206,9.3206,0,0,0-11.0915,4.66c-16.2179,23.5811-32.5289,47.2555-49.3992,70.4636a443.4732,443.4732,0,0,1-49.0263,55.1779,15.0059,15.0059,0,0,1-12.1168,3.6351H283.5154a29.082,29.082,0,0,1-13.4217-3.2623,273.0947,273.0947,0,0,1-96.2817-89.0117,472.5536,472.5536,0,0,1-65.2442-147.545,729.6981,729.6981,0,0,1-18.6411-96.0953,423.4342,423.4342,0,0,1-4.1943-70.37A58.1605,58.1605,0,0,1,116.77,441.3a57.4175,57.4175,0,0,1,17.8024-4.94,121.75,121.75,0,0,1,16.4974,0H706.1111a52.7546,52.7546,0,0,1,53.78,37.2824A100.6227,100.6227,0,0,0,763.5259,485.5726Zm-51.45,228.3547a220.6246,220.6246,0,0,0,40.265-.4661,111.008,111.008,0,0,0,78.2929-53.9662,77.0811,77.0811,0,0,0-3.5418-85.2833,87.1477,87.1477,0,0,0-52.3817-32.2494c-3.8215-.9321-7.643-1.3048-11.1847-1.864-3.2623,20.8781-5.3128,41.01-9.3206,60.4907a443.4811,443.4811,0,0,1-17.0567,56.8556c-7.0837,18.8274-16.1247,36.7229-24.7928,56.4825Z"/><path id="reflection" class="cls-2" d="M307.7489,847.5845l1.4914.7457-.7457-1.398c-4.8467-10.3459-10.1594-20.4122-14.3537-30.9445-12.0236-29.6394-24.42-59.1858-35.0455-89.2913a460.1616,460.1616,0,0,1-27.9618-143.1643,215.5865,215.5865,0,0,1,10.9983-82.4873,45.1118,45.1118,0,0,0,1.4914-7.8293h-84.631c0,4.4739-.7457,7.3633-.6525,10.2528,0,12.49.6525,24.9791,1.771,37.2823,2.1437,23.0219,3.5418,46.603,7.4565,68.9724a436.6716,436.6716,0,0,0,48.6535,145.5876,234.6939,234.6939,0,0,0,84.631,89.5709A45.5756,45.5756,0,0,0,307.7489,847.5845Z"/><g id="smoke"><path class="cls-3" d="M516.9962,0C400.9549,145.6809,727.1756,230.4051,481.4848,385.5929,529.113,324.9159,529.3,261.9086,462.1911,194.8,402.4462,134.9622,428.9166,6.4312,516.9962,0Z"/><path class="cls-3" d="M352.4878,384.2881c32.8085-47.7215,33.6473-101.2217-13.1421-148.011-41.7563-41.7563-35.791-154.9083,40.0786-164.0424-95.07,117.253,167.3046,190.6993-26.0977,312.8923Z"/></g></g></g></g></svg>