<?xml version="1.0" encoding="utf-8"?>
<!-- Generator: Adobe Illustrator 26.0.2, SVG Export Plug-In . SVG Version: 6.00 Build 0)  -->
<svg version="1.1"
	 id="svg2" xmlns:inkscape="http://www.inkscape.org/namespaces/inkscape" xmlns:sodipodi="http://sodipodi.sourceforge.net/DTD/sodipodi-0.dtd" xmlns:svg="http://www.w3.org/2000/svg"
	 xmlns="http://www.w3.org/2000/svg" xmlns:xlink="http://www.w3.org/1999/xlink" x="0px" y="0px" viewBox="0 0 2229.5 2229.5"
	 style="enable-background:new 0 0 2229.5 2229.5;" xml:space="preserve">
<style type="text/css">
	.st0{fill:none;stroke:#000000;stroke-width:37.3333;stroke-miterlimit:10;}
</style>
<sodipodi:namedview  bordercolor="#666666" borderopacity="1.0" id="namedview4" inkscape:pagecheckerboard="0" inkscape:pageopacity="0.0" inkscape:pageshadow="2" pagecolor="#ffffff">
	</sodipodi:namedview>
<g id="g8" transform="matrix(1.3333333,0,0,-1.3333333,0,2229.4667)" inkscape:groupmode="layer" inkscape:label="ink_ext_XXXXXX">
	<g id="g10" transform="scale(0.1)">
		<path id="path12" class="st0" d="M16580.9,8360.5c0-4540-3680.4-8220.5-8220.4-8220.5C3820.4,140,140,3820.5,140,8360.5
			c0,4540,3680.4,8220.5,8220.5,8220.5C12900.5,16581,16580.9,12900.5,16580.9,8360.5L16580.9,8360.5z"/>
		<path id="path14" class="st0" d="M14148.7,8360.5c0-3196.7-2591.4-5788.1-5788.1-5788.1c-3196.7,0-5788.1,2591.4-5788.1,5788.1
			c0,3196.7,2591.4,5788.1,5788.1,5788.1C11557.3,14148.6,14148.7,11557.2,14148.7,8360.5L14148.7,8360.5z"/>
		<path id="path16" d="M11076.6,11882.1c-411.1,719.4-1200.3,1079.4-2366.8,1079.4c-304.5,0-578.7-21.9-822.4-65.5v134h-137
			L5209,11865v-619.5c171.2,0,317.4-60,438.3-180c120.6-120,181.2-265.6,181.2-436.7V5568.9l3,57.3c0-171.5-60.6-318-181.5-439.8
			c-120.9-121.8-268-182.7-441-182.7H5132v-688h3577.8c1166.5,0,1955.7,360.6,2366.8,1082.1c342.7,599.4,514.2,1679.7,514.2,3240.7
			C11590.8,10199.3,11419.3,11280.5,11076.6,11882.1z M6548.3,12107.8c-59.1-68.6-118.2-150.5-177.2-245.5l-345.4,2.7
			L6548.3,12107.8z M6402.7,5303.3l-217.2,5.8c38.1,91.4,62.7,185.5,74.3,282.6C6330.2,5437.6,6377.7,5341.4,6402.7,5303.3z
			 M5820,11451.1h362.8c-53.6-131.6-86.8-219.9-99.9-265.6C6018,11284.2,5930.3,11372.8,5820,11451.1z M5525.8,4658.2l5.8,48.4
			c91.4,28.6,195.8,86.5,314,174.2h899.7c102.6-89.5,203.5-163.9,302.4-222.6H5525.8z M11242.3,9460.7H9877.5V9772h1353.6
			C11234.7,9690.1,11238.4,9586.2,11242.3,9460.7L11242.3,9460.7z M11159.5,10494.4c11.6-80.1,23.7-183.9,37.1-311.2H9877.5v308.5
			L11159.5,10494.4z M11053.8,10902.9H9877.5c0,138.9,0,241.5,0,308.2h1090.7C11008.1,11075.9,11036.8,10973.2,11053.8,10902.9
			L11053.8,10902.9z M10548.5,11933.6c83.8-91.4,159.9-194.4,228.5-308.3l-913.8-3c-4,106.6-7.6,210.1-11.3,311.3H10548.5z
			 M9549.2,5089.2v-14.3c1.8-116-38.7-215.9-121.5-299.7c-82.8-83.8-182.2-125.5-298.2-125.5H8838v362.4h-333.8
			c-171.5,0-317.1,60.3-437.1,181.2c-120,120.9-179.7,267.1-179.7,438.6c0,5.5,0,10.3,0,14v6630.2
			c45.7,228.4,180.6,342.6,405.4,342.6h836.7c113.9,0,212.6-40.5,295.5-121.5c82.8-81,124.2-177.5,124.2-289.6L9549.2,5089.2z
			 M10425.8,5140.7h-599.7c7.6,81.6,15.2,184.6,22.8,308.5h859.5C10611.3,5319.4,10517.2,5216.8,10425.8,5140.7L10425.8,5140.7z
			 M10939.6,5860.4H9877.5c0,134.9,0,237.6,0,308.2h1173.6C11018.8,6062,10981.6,5959.1,10939.6,5860.4L10939.6,5860.4z
			 M11119.6,6579.8H9877.5c0,137.1,0,239.7,0,308.5h1310.6C11161.3,6751.3,11138.5,6648.3,11119.6,6579.8z M11219.5,7299.5h-1342
			v311h1359C11230.8,7471.6,11225,7367.7,11219.5,7299.5z M11248.1,8021.6h-1362v308.5h1362
			C11248.1,8130.4,11248.1,8027.4,11248.1,8021.6L11248.1,8021.6z M9883.3,8741.3l-5.8,308.2h1370.6v-308.2H9883.3"/>
		<path id="path18" d="M8242.5,16089.8c-35.6-156.7-12.5-314.3-19.2-470.9c70.1-35.6,147,30.7,211.4-19.2
			c-66.3-53.9-97-174-201.8-153.8l-19.2-19.2v-615.1l96.1-96.1c-44.2-49.9-60.6-145.1-144.2-144.1c-53.8,38.4-117.2,73-153.8,134.5
			v682.3c-50,60.6-141.3,6.8-211.4,9.6l-19.2,19.3c56.7,70.1,108.6,173.9,211.4,173l19.2,28.8c50.9,191.2-92.2,520.8,211.4,547.7
			L8242.5,16089.8"/>
		<path id="path20" d="M6166.7,15753.4c66.3-136.4,101.9-285.4,144.1-432.4c99,25.9,193.2,65.3,297.9,76.8
			c-9.6-70.1-23.1-188.3-115.3-211.4c-47.1-3.8-84.6-27.8-124.9-48c-16.3-115.3,64.4-190.3,67.2-297.9
			c41.3-134.6,69.2-274.9,125-403.7c38.4-28.8,152.8-3.8,115.3-86.4c-60.5-21.2-35.6-95.2-96.1-125c-63.4-5.7-116.3,13.5-163.4,48.1
			c-108.6,247.9-174.9,513.2-240.3,778.4c-64.4,54.8-131.6-53.8-192.2-9.6c21.1,73,29.8,175.8,124.9,192.2
			c15.4,149.9-154.7,281.5-38.4,413.2C6122.5,15674.6,6110,15737.1,6166.7,15753.4"/>
		<path id="path22" d="M8982.4,14667.5c-53.8,90.3-213.4,128.8-192.2,259.5c152.8,145.1,330.6,271.9,490.1,422.8
			c-29.8,115.3-131.7,200.8-182.6,307.5c-82.6-15.4-143.2-80.7-221-105.7c-395.9-91.3-199.9-544.9-278.7-826.5
			c69.2-85.5,154.7-214.2,269.1-230.6l259.5,230.6l-9.6,9.7C9071.8,14712.7,9031.4,14680,8982.4,14667.5z M8847.9,15474.7
			c30.8,20.2,58.6,44.2,96.1,48.1c27.8-109.6,183.5-202.8,115.3-317.2l-240.2-192.1C8828.7,15147,8838.3,15321,8847.9,15474.7"/>
		<path id="path24" d="M10260.6,15148c-3.9,132.6-94.2,239.3-163.4,336.3c-109.6-24.9-207.6-109.5-317.1-105.7
			c16.3,236.4,118.2,448.8,134.5,672.7c-16.3,200.9-185.5,29.8-259.5,0c-36.5-82.6,70.2-141.2,19.2-230.6
			c-83.6-410.4-180.7-814-249.8-1230.1c48-57.7,71.1-133.6,144.1-173c23.1,2.9,34.6,36.5,57.7,38.5c181.6,92.2-61.5,188.3,9.6,307.5
			c25,69.2,15.4,190.3,125,182.6c128.8,61.5,141.2-119.2,201.8-182.6c-19.2-153.8-139.3-337.3,28.8-461.3
			c63.4,2.9,128.8,42.3,153.7,96.1c-98,99-37.5,239.3,0,346c37.5,113.4-84.6,183.5-96.1,288.3
			C10115.5,15081.7,10194.2,15099,10260.6,15148z M9703.2,14984.6c17.3,116.3,40.4,228.7,76.9,336.4c60.5,16.3,116.2,46.1,182.6,48
			c26-89.4,71.2-171,76.9-269C9932.9,15047.1,9821.4,15008.7,9703.2,14984.6"/>
		<path id="path26" d="M7579.4,14677.1c-48.1,186.4-24,402.7-57.7,595.8c-19.2,153.8-198.9,165.3-317.1,201.8
			c-128.8-123.9-272-233.5-355.6-384.4l86.5-605.4l96.1-86.5c109.6-152.8,190.3,47.1,278.7,105.7c92.2,88.4,156.6-68.2,240.3-86.5
			l96.1,105.7C7738.9,14586.8,7602.4,14626.1,7579.4,14677.1L7579.4,14677.1z M7243,14542.6c-248,50.9-122,358.4-182.6,538.1
			c-6.7,57.7-26.9,121.1-19.2,173c26.9,32.7,65.4,66.3,105.7,38.4c42.3-51.9,125.9-29.8,153.8-96.1c32.7-196,55.7-408.4,57.6-605.4
			C7319.9,14574.3,7290.1,14509.9,7243,14542.6"/>
		<path id="path28" d="M12009.6,15100c-51-50-121.1-53.9-182.6-76.9c-22.1,76.9-131.7,195,19.2,230.6c49-4.8,108.6,67.3,134.5-9.6
			C11979.8,15192.2,12020.2,15156.6,12009.6,15100"/>
		<path id="path30" d="M10798.7,15138.4l-9.6-67.3c145.1,5.8,294.1,59.6,442.1,86.5c50-125.9,228.7-245.1,105.7-394
			c-58.6-86.5-38.5-205.7-105.7-288.3c-34.6-157.6-159.6-290.2-134.6-461.3c-49-49-119.1-47.1-173-86.5
			c-55.7,29.8-11.5,101.9-38.4,144.2c-17.3,111.4,65.4,205.6,76.9,317.1c1.9,232.6,331.5,461.3,67.3,672.7
			c-97.1-3.9-188.4-23.1-269.1-67.3c-88.4-195.1-130.7-409.4-192.2-615c50.9-61.5,36.5-148-48.1-173c-29.7-8.6-47.1-49-76.9-57.7
			c-267.1,167.3,12.5,410.4,19.3,615.1c19.2,127.8,168.1,250.8,57.6,384.4c-8.6,100.9,106.7,67.3,153.8,115.3
			C10743.9,15275.8,10771.8,15185.5,10798.7,15138.4"/>
		<path id="path32" d="M11903.9,14859.7c55.7-164.3-100-265.2-134.6-403.6c-64.4-141.3-141.2-295.1-211.4-442.1
			c-66.3-61.5,12.5-133.6-48-192.2c-57.7-16.3-109.6-46.1-173-48c-95.2,127.8,31.7,227.7,57.7,345.9
			c96,198.9,192.1,396.9,288.3,595.8l-9.7,134.6C11746.3,14863.5,11856.8,14950,11903.9,14859.7"/>
		<path id="path34" d="M6099.4,14350.4c-90.3,162.4-120.1,349.8-173,528.5c-25.9,76.9-108.6,96.1-163.4,144.2
			c-72.1,27.8-159.5,105.7-230.6,48l-240.2-480.5c81.7-217.2,140.3-443,259.5-643.9c93.2-8.6,176.8-41.3,278.7-28.8
			c50.9,20.2,61.5,73,76.9,115.3c32.7,154.7,138.4,12.5,221.1,28.9c62.4,42.2,72.1,123.9,115.3,182.5
			C6202.3,14295.6,6133.1,14300.4,6099.4,14350.4L6099.4,14350.4z M5878.4,14100.5l-221,38.4c-104.8,185.5-146.1,397.9-221,595.9
			c-22.1,65.3,34.6,106.6,57.7,144.1c111.5-53.8,287.3-71.1,307.5-221c14.4-163.4,89.4-300.8,134.5-451.7
			C5947.6,14158.1,5908.2,14132.2,5878.4,14100.5"/>
		<path id="path36" d="M5215.3,14196.6c-106.7,258.5-295,542-576.6,643.9c-121.1,31.7-271,79.7-394,19.2
			c-155.7-21.2-312.3-286.4-451.7-105.7c-26.9-61.5-69.2-128.8-38.4-201.8c-107.6-226.8-156.6-500.7-105.7-768.8
			c66.3-235.5,202.8-484.4,442.1-605.5c290.2-98,598.7-7.7,816.9,182.6C5118.2,13594.1,5299.9,13864.1,5215.3,14196.6z
			 M3850.7,13600.8c-147,188.3-213.4,433.4-153.8,682.3c159.5-297.9,445.9-534.3,663.1-816.8l19.2-86.6
			C4171.7,13327.9,3976.6,13447,3850.7,13600.8z M5100,13696.9c-148-174.9-355.6-290.2-586.2-307.5
			c29.8,239.3-216.2,365.1-278.7,566.9c63.4,3.9,146.1,20.2,153.8,96.1c-6.7,66.4,39.4,156.7-57.7,173c-50-23-125.9,15.4-163.4-38.4
			c1.9-44.2-16.4-78.8-9.6-124.9h-28.8c-105.7,137.4-251.8,258.5-317.1,413.2c179.7,1.9,329.6,175.8,518.9,201.8
			c246,33.6,437.2-105.7,576.6-288.3C5015.4,14176.4,5136.5,13957.3,5100,13696.9"/>
		<path id="path38" d="M12691.9,14148.5l-346,48.1c-37.4,20.2-133.5-9.6-96.1,76.9c101.9,75.9,125.9,209.5,221.1,288.3
			c44.2,148,209.5,258.5,163.3,432.4c-21.1,20.2-39.3,44.2-67.2,48.1c-57.7-12.5-121.1-11.6-173-38.5c2.9-57.6,35.5-115.3,9.6-172.9
			c-142.2-303.7-386.3-566.1-518.9-874.6c-69.2-138.3-248-244-192.3-422.8c44.3-80.7,119.2-7.7,182.6-19.2
			c52.9,46.1,19.2,127.8,28.9,192.2c66.3,58.6,91.3,247.9,230.6,163.3c47.1-11.5,137.4-5.7,115.3-86.4
			c93.3-232.6-313.3-328.7-144.1-557.4c48.1,6.7,108.6-16.4,144.1,19.2c-45.1,164.4,101.9,272.9,192.2,394
			c14.4,58.6-28.8,127.8,0,192.2l182.6-9.6c44.2,32.7,32.7,89.4,48.1,134.5C12679.4,14020.7,12742.8,14096.7,12691.9,14148.5
			L12691.9,14148.5z M12451.6,13879.5c-130.7-2-261.3-2.9-374.8,38.4c41.4,87.5,72.1,178.8,153.8,249.9l278.7-28.9
			C12504.5,14046.7,12485.3,13960.2,12451.6,13879.5"/>
		<path id="path40" d="M1957.5,9007.2c144.2-101.9,217.2-260.4,182.6-432.5c-46.1-95.1-145.1-185.5-249.9-201.8
			c-139.3,4.8-244.1,93.2-355.6,163.4c37.5,42.2,73-34.6,115.3-38.5c130.7,2.9,274.9,13.5,336.4,144.1
			c-19.2,92.3,76.9,148,28.8,240.3c-208.5,173-512.2,28.8-768.8,86.5c-62.5-2.9-104.8,41.3-163.4,48
			c22.1-146.1-70.2-269.1-105.7-403.7c-81.7-135.5-134.6-319-28.8-461.3c-68.2-27.9-89.4,70.2-134.6,105.7
			c-76.9,260.4,91.3,468,115.3,711.1c-11.5,66.3,64.4,122,9.6,182.6l19.2,48C1240.6,8976.4,1672.1,9244.6,1957.5,9007.2"/>
		<path id="path42" d="M1794.1,7902c-24-111.4-143.2-114.3-230.7-134.5l-442.1-38.4c-50-97-99-193.2-105.7-307.5
			c49-43.2,108.6,0,163.4,0c153.8-13.4,337.3-12.5,490.1,28.9c31.7,25.9,46.1,104.7,96.1,76.9c28.8-54.8,156.7-92.3,86.5-163.4
			l-105.7-105.7c-208.6-16.3-416.1-31.7-624.7-48.1c-29.8-39.4-54.8-80.7-96.1-115.3c-51.9,25-114.4,46.1-144.2,105.7
			c25,65.4,80.7,118.2,105.7,182.6c-42.3,70.1-167.2,134.5-115.3,240.2c39.4,92.3,42.3,216.2,134.5,269.1
			c195.1,16.3,402.7,2.9,586.2,48C1643.3,8079.8,1753.8,7964.5,1794.1,7902"/>
		<path id="path44" d="M1871,6979.5c-9.6-69.2-48.1-152.8-115.3-173v-48c54.8-93.2,235.4-171.1,124.9-297.9
			c-38.4-48-33.6-139.3-115.3-144.1c-185.5-45.2-383.4-60.6-557.4-134.6c-41.3-31.7-50-160.5-124.9-96.1
			c-54.8,44.2-100.9,103.8-67.3,173c18.3,39.4,25,109.5,86.5,105.7c186.4,55.7,402.6,40.4,576.6,124.9
			c26,64.4,81.7,115.3,76.9,192.2c-58.6,209.5-259.5,46.1-384.4,57.7l-192.2-57.7c-45.2-61.5-63.4-133.6-115.3-192.2
			c-63.4,14.4-112.4,85.5-153.8,134.5c26.9,363.3,451.7,254.7,691.9,346c46.1,26.9,53.8,87.5,96.1,124.9
			C1763.4,7074.6,1816.2,7023.7,1871,6979.5"/>
		<path id="path46" d="M2149.7,5903.1c-50.9-12.5-102.8,31.7-153.8,48.1c-153.8-50.9-313.3-88.4-461.3-153.8
			c4.8-107.6-142.3-266.2,19.2-326.7c239.3,46.1,469.9,110.5,682.3,221l173,394c53.8,33.6,96.1-19.2,144.1-28.9
			c71.1-98-55.8-162.4-67.3-249.8c-2.9-393-454.6-314.3-682.3-470.9c-183.6,7.7-328.7,164.3-499.7,230.6
			c-52.8,111.5,28.8,214.3,28.8,326.7c25,125.9,173,115.3,259.5,173c101.9,21.1,202.8,101.9,307.5,57.7
			C1989.2,6064.6,2093,5998.3,2149.7,5903.1"/>
		<path id="path48" d="M2514.9,5115.1c54.8-50.9,148-69.2,163.4-153.8c1.9-117.2-13.5-265.3,57.7-365.2
			c-155.7,53.8-261.4,228.7-269.1,394c-61.5,55.7-160.5,54.8-240.3,38.4c-35.6-28.8-74-47.1-105.7-86.5
			c156.6-106.7,286.4-273.9,307.5-461.3c-5.8-196-157.6-366.2-336.4-432.5l-163.4,105.7c-52.9,267.1-55.7,588.1-326.7,730.4
			c139.3-24,286.4-109.6,384.4-240.2l115.3-288.3c42.3,25,101.9,51.9,115.3,105.7c7.7,229.7-121.1,436.3-326.7,518.9
			c-15.4,15.4-44.2,37.5-19.2,57.7C2037.3,5239.1,2301.5,5145.9,2514.9,5115.1"/>
		<path id="path50" d="M16002.8,7690.1c198.8,32.9,14.4,187.3-21.4,258.6c-85.4,29.5-135-81.6-228.3-38.2
			c-415.9,49.4-826.1,112.7-1246.5,147.3c-53.5-52.6-127.2-81.9-160.5-158c4.8-22.7,39.3-31.4,43.1-54.3
			c106.9-173.4,182.6,76.9,307.2,15.9C14767.5,7842.2,15778.3,7687.9,16002.8,7690.1"/>
		<path id="path52" d="M15724.9,9001.7c-189-36.6-403.3,0.7-598.2-21.1c-154.6-9.8-177.2-188.4-220.9-304.2
			c115.9-136.1,216.5-285.8,362-378.4l609.6,49.3l92.2,90.6c159.2,100-35.4,192.8-88.5,284.6c-82.6,97.5,77.7,152.2,101,234.5
			l-99.6,102.4C15824.8,9155.4,15777.2,9021.5,15724.9,9001.7L15724.9,9001.7z M15838.6,8657.7c-66-244.4-365.2-99.9-548.3-149.3
			c-57.9-3.2-122.5-19.4-173.8-8.6c-31,28.8-62.2,69.3-31.9,107.9c54.4,39,37.4,123.8,105.3,147.6c197.7,20.6,411.1,30.6,607.8,20.5
			C15811.7,8736.4,15874.1,8702.7,15838.6,8657.7"/>
		<path id="path54" d="M14829.4,6336.6l16.2-348.9c-12.9-40.6,34-129.6-57.9-108.6c-93.3,86.2-229,85.3-323.9,164.4
			c-153.6,16.3-292.6,158.5-455.1,81.2c-16-24.5-36.2-46.8-34.9-75c22.8-54.4,33.6-116.9,69.5-163c56.2,13.4,106.8,56.1,168.3,41.2
			c324.6-84.1,627.3-275.9,954.9-349.6c148.7-42.6,285.4-198.9,450.9-111.4c71.3,58.3-14.3,118.5-14.6,183
			c-55,43.5-129.2-4.6-194.2-6.9c-69.8,54.4-260.5,44.2-202.9,196.7c2.7,48.4-19.6,136.2,63.8,129.2
			c211.5,134.3,380.6-247.7,574.4-39.4c-15.5,46-3.9,109.8-45.4,138.2c-153.2-74.5-287,50-422.6,116.6
			c-60.2,3.4-120.3-51.8-188.9-35.3l-24.1,181.2c-40.2,37.5-93.8,15.7-141,22.6C14957.3,6347.7,14871.1,6396.2,14829.4,6336.6
			L14829.4,6336.6z M15138,6149.8c25.9-128.1,50.8-256.4,31-375.5c-93.5,24.6-188.9,38.1-273.8,105.3l-22.8,279.2
			C14963.9,6171.1,15052.5,6168.1,15138,6149.8"/>
		<path id="path56" d="M14652.4,3817.8l-605.5,557.4c-50,49-134.5,58.6-182.6,134.6c-122,0-255.6-28.8-365.2-86.5l-57.6-518.9
			l19.2-57.7c164.3-136.5,301.7-319,480.5-442.1l297.9,57.7c57.7,106.7,43.3,243.1,86.5,355.6c68.2-40.4,127.8-102.9,192.2-153.8
			v-38.4c-111.5-93.2-193.1-215.3-259.5-336.4c-2.8-92.3-39.4-194.1,9.6-269.1c17.3,13.4,6.8,38.4,9.7,57.6
			c66.3,108.6,55.7,248.9,172.9,336.4c78.8,21.1,137.4,94.2,211.5,124.9C14673.5,3626.5,14727.3,3742.8,14652.4,3817.8
			L14652.4,3817.8z M14229.5,3664c-74-26.9-166.3-69.2-240.3-38.4c-160.4,133.6-300.7,275.8-451.6,413.2
			c25.9,70.1-64.4,239.3,76.9,211.4c80.7-14.4,185.4,28.8,259.4,0C13986.4,4060.9,14396.7,3962.9,14229.5,3664"/>
		<path id="path58" d="M12951.4,3740.9c-35.6-48-37.5-135.5-105.8-144.1c-61.4,23-131.6,26.9-182.5,76.9
			c21.1,79.8,26.9,173.9,105.7,221C12820.7,3823.5,13002.3,3868.7,12951.4,3740.9"/>
		<path id="path60" d="M12691.9,3423.8c-26-86.5-22.1-184.5-76.9-259.5c-67.3,28.8-160.5,14.4-201.8,86.5
			c19.2,85.5,34.6,180.7,96.1,240.2C12575.6,3483.4,12642.9,3474.7,12691.9,3423.8"/>
		<path id="path62" d="M13451.1,3337.3c-147,70.1-183.6,284.5-394,201.8c-279.7,47.1-201.8-273.9-297.9-413.2
			c-9.6-102.8-62.5-210.5-28.9-307.5l432.5-499.7l67.3-9.6c118.2,38.4,281.5-9.6,355.5,115.3c3.9,206.6,116.3,368.1,115.3,576.6
			C13711.5,3148.9,13534.7,3224.8,13451.1,3337.3L13451.1,3337.3z M13556.8,2655l-326.7-76.9c-116.3,101.9-227.8,214.3-336.4,336.3
			l-96.1,134.6l48,221.1c89.4,25.9,188.4,26.9,278.8,48l105.7-124.9c124.9-118.2,255.6-223,374.8-355.6L13556.8,2655"/>
		<path id="path64" d="M15383.6,7486.6c-162.3-14.4-302.8,151.5-441.9-26.8c-264.7-101.8-34.3-338.5-46.1-507.3
			c44-93.4,53.3-213,131.7-279.4l626.6-210.1l62.8,26c82.1,93.2,247.2,135,247.3,280.2c-101.8,179.8-87.2,376-194.2,555
			C15703.6,7457,15512.8,7432.4,15383.6,7486.6L15383.6,7486.6z M15821.9,6953.1l-242.2-232.5c-151.9,28.5-305.1,68.5-460.7,118.3
			l-151.2,66.9l-71.2,214.7c63.8,67.8,148.5,119,215.5,183.2l154.6-53.8c167.7-38.2,333.5-61.8,503.6-115.3L15821.9,6953.1"/>
		<path id="path66" d="M12048,3097c-35.5-60.6-41.3-142.2-105.7-182.6c-164.3,32.7-385.3,215.3-528.5,9.6
			c-67.3-234.5-177.8-546.8,57.6-740l48.1,57.7c93.2,173,156.6,358.5,278.7,519c179.7,15.4,393,122,557.4,0
			c185.4-172,256.5-391.1,384.3-586.2c4.9-174.9-76.8-314.3-115.3-470.9l-19.2-19.2c1.9,112.4,2.9,248.9-38.4,355.5
			c-98.1,176.8-198,354.6-326.8,519c-148,24-301.7,33.6-461.3,28.8c-104.7-146.1-178.7-304.6-259.4-461.3
			c50-161.4,167.2-295,230.6-451.7c54.8-81.6,170.1-58.6,259.5-76.9c44.2-56.7-6.7-122.1-9.6-182.6c-51.9-127.8-198-40.3-288.3-38.4
			c-134.6,100.9-169.1,260.4-269.1,384.4c-126.9,200.8-303.7,393.1-259.5,653.5c50,214.3,127.8,416.1,192.2,624.6
			c113.4,124.9,279.7,218.2,451.7,163.4C11904.8,3176.8,11978.8,3143.1,12048,3097"/>
		<path id="path68" d="M14365.1,5405.5c78.1-74,113-207.4,70.3-307.3c-22.2-94.5-123-104.2-166.2-177.5
			c38-80.9,98.4-140.4,182.2-178.9c148.9,167.4-120.6,439.4,145.5,546.6c219.6,42.9,476.4-91,610.5-259.4
			c24.5-75.7,110.8-113.3,97-203.2c-194.5-98.9-419.5-213.3-402-460.5c-7.6-67.3,29.6-138.3,11.1-206
			c-89.4,49.5-167.6,169.1-164.2,287c-54.9,255.8,184,418.9,369.6,528.2c36.4,30.8-15.1,42.9-23.6,63.7
			c-137.6,52.7-279.9,171-414.9,63.7c-54-135.9-29.2-275.3-20.8-413.5c-4.6-67.7-54.6-130.4-124.6-133.1
			c-220.9,74-287.5,320.3-382.8,524.9C14265.8,5143.3,14314.6,5307.1,14365.1,5405.5"/>
		<path id="path70" d="M4129.4,3692.9c149.9-162.4,321-317.1,518.9-384.4c-173-57.7-381.5-28.9-518.9,86.5
			c-31.7,38.4-53.8,80.7-96.1,115.3c-183.6-155.7-328.7-360.4-499.7-538.2c-113.4-42.3-238.3-85.5-365.2-67.2
			c178.8,84.6,275.8,288.3,413.2,432.4c-6.7,77.9-77.9,147.1-144.2,182.6c42.3,38.5,108.6,48.1,163.4,28.8
			c46.1-5.8,75-80.7,124.9-48.1c38.4,99,291.2,181.6,115.3,297.9c-137.4,79.8-205.7,349.8-394,221
			c-222.9-83.6-395-309.4-480.5-518.9c-72.1-329.6,23.1-637.1,278.7-855.3c229.7-174.9,563.2-271,845.7-144.1l9.6-9.6
			c-114.4-174.9-340.2-147-528.6-134.5c-322.9,48-637.1,302.7-749.6,615c-102.8,253.7,12.5,536.3,124.9,759.2
			c143.2,194.1,348.9,277.7,547.8,355.6c-2.9,53.8-78.8,51.9-115.3,86.5c-25.9,48-82.6,24-115.3,57.6
			c141.3,76.9,287.4,24,422.8-28.8C3877.6,4075.3,4022.7,3879.3,4129.4,3692.9"/>
		<path id="path72" d="M4965.4,2251.4c-26.9,98-40.4,200.8-48,307.5l-28.8,28.8c-145.1-4.8-324.8,19.2-451.7-57.7l-307.5-509.3
			c-6.7-118.2,25-246,67.3-355.6l38.4-38.4l403.6,48l48.1,48.1c-71.1,1.9-160.5-41.3-240.2-19.2c-44.2,77.9-68.2,165.3-96.1,249.9
			c18.3,200.9,235.4,121.1,365.2,153.8C4793.4,2169.7,4980.8,2088,4965.4,2251.4L4965.4,2251.4z M4494.5,2136
			c0,124.9,100.9,248.9,173,365.2c7.7,23.1,42.3,19.2,67.3,19.2c26.9-106.7,26-223.9,38.4-336.4
			C4684.8,2157.2,4591.6,2143.7,4494.5,2136"/>
		<path id="path74" d="M7367.9,1886.2c-24-41.3,61.5-49,19.2-86.5c-51.9-53.8-114.4-82.6-182.6-96.1
			c-39.4,53.8-106.7,106.7-86.5,173C7194,1896.8,7337.2,2076.5,7367.9,1886.2"/>
		<path id="path76" d="M5926.4,1847.7c-39.4,69.2-33.6,164.3-105.7,211.4c-133.6-25.9-257.5-101.9-384.4-115.3
			c82.6,251.8,266.2,461.3,307.5,730.3l-67.3,115.3c-75.9,12.5-142.2-53.8-211.4-86.5c-16.4-54.8,47.1-99.9,38.4-163.3
			c-151.8-406.5-365.2-788.1-547.8-1182.1c-37.5-86.5,34.6-150.9,67.3-221c70.2,23.1,142.2,39.4,201.8,86.5
			c-50,106.7,1.9,242.2,67.3,336.3c49,15.4,101.9,50,153.8,28.8c9.6-73.1,56.7-129.7,67.2-201.8c46.1-104.8-36.5-178.8-76.9-259.5
			c-56.7-76.9,19.2-146.1,48-211.4c73,8.6,140.3,26.9,192.2,86.5c4.8,34.6-4.8,63.4-28.8,86.5c-4.8,37.5,4.8,70.2,28.8,96.1
			c126.9,147-6.7,305.6-19.2,461.3l221,67.2C5953.4,1728.6,5938.9,1791.1,5926.4,1847.7L5926.4,1847.7z M5321,1645.9
			c50.9,87.4,35.5,252.7,182.6,249.9c49,13.4,89.4,48,144.2,48l67.3-221C5584.4,1715.1,5462.3,1648.8,5321,1645.9"/>
		<path id="path78" d="M6416.6,1722.8v-48.1c97,7.7,198.9,59.6,307.5,67.3c54.8-108.6,198.9-192.2,163.4-326.7
			c-50.9-192.2-131.7-371.9-153.8-576.6c29.8-37.5,58.6-75,57.7-124.9c-32.7-55.7-85.5-74-134.5-105.7
			c-92.3-14.4-117.2,75-153.8,134.6c20.2,208.5,103.8,390.2,153.8,586.2c41.3,106.7-68.2,174.9-86.5,269.1
			c-54.8,60.5-135.5,10.6-192.2-9.6c-56.7-193.2-114.4-386.3-201.8-567c-30.8-71.1,60.5-92.3,28.8-163.4
			c-51.9-60.5-122-75.9-182.6-115.3c-49,71.1-143.2,135.5-105.7,230.6l259.5,653.5c-16.3,60.5-46.1,116.3-48.1,182.6
			c61.5,47.1,125.9,85.5,201.8,96.1L6416.6,1722.8"/>
		<path id="path80" d="M10222.1,1194.2c-73,133.6-53.8,305.6-96.1,451.7l-38.4,48c-108.6,31.7-191.3,125.9-297.9,163.3
			c-91.3-153.8-298.9-250.8-365.2-422.8c32.7-246,121.1-468,182.6-701.5c55.8-49,123-69.2,192.2-86.5c35.6-50,108.6-7.7,144.1-57.7
			c39.4,47.1,90.4,106.7,105.7,173c59.6,146.1,147.1-25.9,221.1-38.4c75.9,27.9,79.7,121.1,115.3,182.6
			C10316.3,987.6,10191.4,1053.9,10222.1,1194.2L10222.1,1194.2z M9780.1,905.9c-75.9,205.6-143.2,414.2-182.6,634.3
			c16.3,49,34.6,93.2,86.5,115.3c88.4-27.8,151.9-116.3,240.2-144.1c45.2-201.8,103.8-397.9,134.6-605.4
			C10026.1,738.8,9881,924.2,9780.1,905.9"/>
		<path id="path82" d="M7406.4,1521c-12.5-269.1-126.9-519.9-124.9-807.2c16.3-45.2,62.5-76.9,48-134.6
			c-58.6-27.9-92.2-117.2-163.4-115.3c-69.2,67.3-156.6,139.4-115.3,240.3c53.8,231.6,87.5,472.8,124.9,711.1
			c-23,25-64.4,53.8-38.4,86.5c57.7,45.2,111.5,99.9,173,134.6L7406.4,1521"/>
		<path id="path84" d="M8386.6,1530.6c-34.6-101.9-141.3-189.3-249.9-192.2c-95.2-19.2-146.1,68.2-230.7,76.9
			c-57.6-68.2-86.4-148-86.4-240.2c214.3-65.3,348.8,293.1,557.4,96.1c130.6-181.6,116.2-470.9,19.2-663.1
			c-58.6-53.8-56.7-148-144.2-172.9c-171,135.5-369,292.1-586.2,172.9c-64.4-21.1-113.4-84.6-182.6-96.1
			c7.7,101.9,83.6,222.9,192.2,269.1c209.5,156.6,457.5,7.7,634.3-115.4c43.2-20.2,32.7,31.7,48,48.1
			c-9.6,147,38.4,325.8-115.3,403.6c-146.1-7.7-262.4-88.4-384.4-153.7c-63.4-24-141.2-4.8-173,57.7c-25,231.6,171,395,317.1,567
			C8107,1511.4,8276.1,1535.4,8386.6,1530.6"/>
		<path id="path86" d="M9405.3,608c-165.3,54.8-130.7,226.8-134.5,365.2l-163.4,192.2l144.2,163.3
			c2.9,106.7-125.9,199.9-201.8,269.1c-74-47.1-136.5-154.7-211.4-173c-86.5,223.9,115.3,566-173,672.7
			c-50-39.4-55.8-103.8-105.7-134.6c-58.6-63.4,27.9-112.4,57.7-163.4c37.5-425.7,5.8-858.2,28.8-1278.1l19.2-28.8
			c56.7-31.7,100.9-121.1,173-86.5c34.6,63.4,88.4,118.2,96.1,192.2c-139.3,69.2-75.9,222-105.7,336.3
			c13.5,53.8,73,80.7,115.3,105.7c222-95.1,125.9-320,163.3-509.3c60.6-49,127.8-76.9,192.2-115.3C9316.8,487,9437,515.8,9405.3,608
			L9405.3,608z M9040.1,1203.9l-192.2-144.2c-6.7,99.9-41.3,268.1,67.3,336.3c61.5-25.9,80.7-103.8,124.9-153.8V1203.9"/>
	</g>
</g>
</svg>
