<svg xmlns="http://www.w3.org/2000/svg" viewBox="0 0 1380.1732 998.1567"><defs><style>.cls-1{fill:#f280a1;}.cls-2{fill:#96c;}</style></defs><g id="Layer_2" data-name="Layer 2"><g id="inner"><g id="dark"><g id="book"><path id="frame" class="cls-1" d="M49.012,861.5465c3.1419-3.6656,7.8547-4.4511,11.7821-6.0219,79.5949-29.5863,159.7135-57.0779,240.3557-83.26,26.1825-8.3784,53.15-13.353,80.1186-17.5423s54.1979-7.0693,81.69-8.9021a871.9213,871.9213,0,0,1,97.9227-2.0946c46.6049,1.8328,91.9007,10.473,136.4109,24.088,12.8295,3.9274,25.1352,8.9021,36.3938,16.7569,2.6182,1.8328,4.9747,3.1419,7.0693-.7855,12.0439-23.0406,31.9427-39.5355,50.27-57.0779,13.0913-12.3058,25.6589-25.1351,40.0593-36.1318a468.8169,468.8169,0,0,1,65.718-42.4158,1015.8441,1015.8441,0,0,1,165.4737-70.9546c28.2771-9.1639,57.34-14.9241,86.6641-20.1606q72.2638-12.96,144.5276-25.1352c25.9208-4.4511,52.1033-7.8548,78.2859-11.7822a19.8183,19.8183,0,0,1,3.9274-.2618c3.6656.2618,5.4982,1.8328,3.9273,5.76-.5236,1.3091-1.0473,2.3564-1.5709,3.6655-14.924,24.6116-23.3025,51.8415-32.99,78.2858-12.5676,34.0373-24.35,68.3363-36.1318,102.3736-3.142,8.9022-3.6657,8.3785-11.7822,6.022-31.419-8.9021-63.6235-13.615-96.09-16.2332-55.2451-4.7128-109.1812,2.3565-162.5935,16.7569-35.6082,9.4256-71.2165,18.8514-105.5156,32.4664-41.892,16.4949-80.1185,39.5355-117.2977,64.6709A601.2084,601.2084,0,0,0,762.2245,853.43a13.2491,13.2491,0,0,1-12.5676,3.142c-32.99-6.2839-66.2418-9.9493-100.0173-12.0439-17.0187-1.0474-34.0373-1.3091-50.7941-1.3091-31.9427.2617-63.6235,4.7128-95.0426,11.52-38.2265,8.3785-76.453,16.7569-113.6322,29.3245-50.5322,17.28-96.09,43.4629-137.9819,76.453a373.601,373.601,0,0,0-37.441,33.2519c-5.76,5.76-6.022,5.76-11.7822.5237-11.7821-10.473-23.3024-20.9461-34.8227-31.6808-25.3971-23.0406-50.5323-46.6049-76.7148-68.5983a327.8973,327.8973,0,0,0-34.561-25.6589C53.9866,866.783,50.3211,865.4739,49.012,861.5465Z"/><g id="pages"><path id="br" class="cls-1" d="M754.8424,721.4193c3.6656-12.83,10.9967-23.5643,18.066-34.561,22.5169-35.3464,51.58-64.6709,84.0459-90.8534,53.4124-42.9394,112.8467-75.1439,175.1612-102.6356,81.6895-35.87,166.7828-62.0526,253.4469-82.7368a586.0846,586.0846,0,0,1,58.9107-11.7821c-2.0946,8.64-6.0219,15.71-9.1639,23.3024-6.0219,14.4-12.0439,28.8008-18.066,43.463-1.8328,4.1892-3.9274,6.8075-8.9021,7.5929-46.0812,7.3311-91.3771,18.066-136.411,30.3718-58.1252,16.2332-115.2031,35.87-170.71,60.22-69.3837,30.3717-135.1018,66.7655-194.7981,114.1558a546.69,546.69,0,0,0-43.463,38.2264c-2.0945,1.5711-3.9273,5.2367-8.1165,5.2367Z"/><path id="bl" class="cls-1" d="M688.8624,739.2234c-17.0186-2.88-33.5136-7.3311-50.5323-10.7348-20.4223-3.9274-41.1066-6.8074-61.7908-9.6876-27.23-3.4037-54.7214-4.1891-81.9513-4.7128-24.6115-.2618-49.4849.5237-74.3583,2.3565-17.28,1.3091-34.561,2.6183-51.58,4.7128-20.16,2.3565-40.0592,4.9748-59.9579,8.1165-39.7975,6.5457-79.3331,14.9241-118.6069,24.8735-35.6083,9.1638-71.2165,19.1132-105.7774,31.6808-6.2838,2.3564-10.7349,1.3091-15.71-2.88-15.9714-13.0912-32.2045-25.6588-48.4377-38.2264-1.8328-1.3091-3.9274-2.3565-4.9747-4.7128,1.571-2.0946,4.1892-2.6183,6.5457-3.4037a1586.3255,1586.3255,0,0,1,166.5209-43.2012c33.5136-6.8074,67.2891-12.5676,101.3264-16.7569,25.1353-3.1419,50.5323-5.4983,75.9294-7.0693,27.23-1.5709,54.1978-2.0946,81.1658-1.3091,51.3178,1.5709,102.1119,8.3784,151.0733,24.35,31.419,10.2112,61.2671,24.35,88.2351,43.9866A13.7186,13.7186,0,0,0,688.8624,739.2234Z"/><path id="tr" class="cls-1" d="M1312.218,305.8518c.5236,2.88-1.3092,4.9746-2.6183,7.3311-7.3311,13.0912-14.9241,25.9206-22.2552,39.0119-1.8328,3.1419-3.4037,5.76-7.8547,6.022-21.47,1.8328-42.4158,7.0693-63.1,12.5675-74.62,19.3751-146.0985,46.3432-214.435,81.9513C946.71,481.5364,895.13,515.3119,848.5253,557.2039c-39.2738,35.3465-73.5728,74.882-100.279,120.9634-.5237.7854-1.3092,1.5709-2.0946,2.6182-1.3091-3.1419.5237-5.2365,1.3091-7.331a423.8289,423.8289,0,0,1,54.1979-96.09c46.6049-61.2672,105.5156-108.3957,170.9719-147.4076,93.4717-55.507,194.0125-92.6862,299.2663-117.8214,9.9494-2.3564,19.8987-4.1892,29.5863-6.022C1305.1486,305.3282,1308.5523,304.5426,1312.218,305.8518Z"/><path id="tl" class="cls-1" d="M676.2948,703.5645c-8.3784-2.3565-14.9241-8.1165-22.2551-12.0439-40.8448-21.2078-83.7841-36.3938-128.2945-46.6049a655.04,655.04,0,0,0-92.6861-14.1386c-27.23-2.0946-54.7215-4.1891-82.2131-3.1419-27.23,1.0473-54.7215,2.3565-81.9513,4.9747a1035.7289,1035.7289,0,0,0-165.2119,29.8482c-16.4949,4.451-32.7281,9.1639-48.4376,15.71-3.4037,1.3091-6.022,1.5709-9.1639-.2618C30.8954,668.48,15.4477,659.0544,0,649.3668c2.0946-4.1891,6.022-4.1891,9.1639-5.2365,31.9427-11.2585,64.9326-19.1132,98.1845-26.4443,29.0626-6.2839,58.1252-11.52,87.7115-15.1858,23.0406-2.88,46.0813-5.2365,69.1218-6.8074,30.6336-2.3565,61.2672-2.0946,92.1626-1.5709,44.7721.5237,89.0206,6.5456,132.7455,16.7569,41.1066,9.6875,80.6421,23.826,118.0832,43.7248a386.3625,386.3625,0,0,1,64.9327,43.7249c1.3091,1.0467,4.1891,2.0941,4.1891,5.236Z"/></g></g><g id="pen"><g id="tip"><path class="cls-2" d="M728.9723,564.0117c-10.9967-.5237-21.2078-4.1892-31.1573-8.1166a643.423,643.423,0,0,1-80.1185-38.4883c-14.6623-8.3785-14.4-9.1639-7.3311-24.8734,9.9493-21.7315,25.3971-38.4884,45.2957-51.3178,4.4511-2.88,7.3311-3.4037,11.7822.5237a90.1889,90.1889,0,0,1,15.1859,16.4949c15.9713,20.1606,31.6808,40.583,44.7721,62.838,3.6656,6.5457,7.0693,13.0913,10.2112,19.8987a28.4353,28.4353,0,0,1,2.88,10.2112C742.3255,560.6078,738.9216,564.0117,728.9723,564.0117Z"/></g><path id="body" class="cls-2" d="M646.0447,423.6389c-.43.27-.84.52-1.22.77-23.79,15.33-41.5,35.45-52.64,59.8l-.06.12c-1.37,3.05-2.69,5.97-3.77,8.85-5.97-4.31-11.09-9.3-16.48-13.74-40.58-33.77-80.9-67.81-121.48-101.85q-58.92-49.4848-117.3-98.97-57.735-48.3-115.47-96.61c-21.21-17.8-42.41-35.61-63.62-53.67-.28-.24-.56-.48-.82-.7l2.67-7.61c9.15-26.05,24.95-44.92,48.31-57.66l7.31-3.99q73.65,62.325,147.8,124.15c51.32,42.94,102.37,85.88,153.69,128.82q58.92,49.4848,117.3,98.97C635.2546,414.729,640.3748,418.999,646.0447,423.6389Z"/><g id="butt"><path class="cls-2" d="M194.5869,44.812c-28.8008,15.71-47.1286,38.75-57.6016,68.5982-7.3311-3.9273-12.3058-9.6875-18.0659-14.4-10.9967-8.64-21.2079-18.0659-32.2045-26.7062-3.6656-2.88-4.4511-6.2838-3.9274-10.2112,1.571-8.902,3.4037-17.804,7.0693-26.1825C98.497,15.2257,115.7775,6.0618,135.9381.3017c4.1892-1.0473,7.0693.7854,9.6876,3.1419C161.5969,16.5348,177.3064,30.15,194.5869,44.812Z"/></g></g></g></g></g></svg>