<svg xmlns="http://www.w3.org/2000/svg" viewBox="0 0 2225.0162 2233.6881"><defs><style>.cls-1{fill:none;stroke:#000;stroke-linecap:round;stroke-miterlimit:10;stroke-width:55px;}</style></defs><g id="Layer_2" data-name="Layer 2"><g id="inner"><g id="silhouette"><g id="arrow"><polygon id="line" points="616.562 1470.441 545.851 1399.73 993.908 951.674 1173.826 1131.592 1444.656 860.763 1515.367 931.474 1173.826 1273.014 993.908 1093.095 616.562 1470.441"/><polygon id="head" points="1566.475 985.947 1630.979 745.15 1390.182 809.654 1566.475 985.947"/></g><g id="stonks"><path d="M749.2275,1243.5217l179.919-179.9182V1009.05H749.2275ZM1042.6064,950.144l.0005,0,179.918,179.9184.0005,0V839.5906h-179.919Zm293.379-280.0128v346.4709l113.26-113.26-68.3242-68.3238L1515.9043,798.86V670.1312Zm0,903.7829h179.9189V1062.9583l-179.9189,179.9184ZM1042.6069,1176.418l-.0005.0005v397.4956h179.919V1356.3364l-.0005.0005ZM749.2275,1573.9141h179.919V1289.8782l-179.919,179.9184Z" transform="translate(-48.6987 -40.896)"/></g></g></g><g id="outer"><g id="silhouette-2" data-name="silhouette"><g id="text"><path d="M209.5781,1147.1279c16.961-1.1445,24.5,6.6158,25.6787,24.0762.5723,8.4805-2.165,16.1826-9.3457,21.1777l-110.6582,79.38.0342.499,106.5078-7.1865c13.2207-.8916,20.211,6.1533,21.0352,18.376s-5.1553,20.1426-18.375,21.0352l-140.9317,9.5087c-16.2129,1.0938-25.914-5.2675-27.0742-22.4785-.875-12.9707,1.582-17.3965,9.46-23.1894l107.4492-78.6631-.0342-.499-103.5156,6.9843c-13.22.8926-20.21-6.1533-21.0352-18.375S53.93,1157.63,67.15,1156.7383Z" transform="translate(-48.6987 -40.896)"/><path d="M245.8164,1363.6279c9.82,1.1778,14.5352,6.708,16.9346,16.416l2.34,9.4649c2.22,8.9795,2.0156,17.5283-9.2812,24.957l-121.8428,81.1113c-3.5234,2.4161-9.9619,6.5831-14.33,7.6622-9.708,2.4-19.5742-4.1739-22.0937-14.3672-2.16-8.7364-.5645-15.8262,6.4814-20.6592L130.627,1450.82l-15.8389-64.07-31.7031-3.2363c-8.4258-.7491-12.961-5.5508-15.3008-15.0157-2.7-10.9218,2.2353-20.125,12.914-22.7646,4.3682-1.08,12.0069-.3936,16.2491.1035Zm-25.125,31.7061-.1191-.4854-75.9571-6.2011,11.52,46.5966Zm81.6152-46.959a18.25,18.25,0,1,1-22.0957-13.3359A18.3517,18.3517,0,0,1,302.3066,1348.375Zm12.2393,49.51a18.25,18.25,0,1,1-22.0967-13.3369A18.3519,18.3519,0,0,1,314.5459,1397.8848Z" transform="translate(-48.6987 -40.896)"/><path d="M259.6719,1475.8867c16.7158-7.3252,25.7949-.9316,31.6152,12.35l27.3936,62.5147c19.5673,44.6523.2822,67.2959-21.0127,76.6279-17.8614,7.8272-40.1094,5.02-52.0586-11.0351l-.4571.2c5.6807,20.44-6.7832,29.9952-23.499,37.32-19.0058,8.3281-23.8974,16.4765-31.6826,19.8877-8.7012,3.8134-18.5684-2.5079-22.3818-11.21-9.03-20.6084,10.1884-30.9414,16.8291-33.8516,28.8535-12.6425,38.2236-23.0273,29.1933-43.6357l-16.2558-37.0967L149.0391,1569.13c-11.2207,4.917-21.9883.9-27.0059-10.5488s-.6709-22.0879,10.55-27.0049Zm-34.8379,60.03,16.457,37.5547c6.2207,14.1972,16.1055,26.789,34.6533,18.6611,17.6319-7.7266,17.4961-20.4961,10.2715-36.9824l-16.958-38.6992Z" transform="translate(-48.6987 -40.896)"/><path d="M338.6885,1627.5029c10.5224-6.2734,21.7051-3.6269,28.1064,7.11s3.4112,21.833-7.1113,28.1064L234.707,1737.2275c-10.5215,6.2735-21.705,3.626-28.1064-7.11s-3.4111-21.833,7.11-28.1065Z" transform="translate(-48.6987 -40.896)"/><path d="M366.209,1684.9922c13.375-10.4961,23.9746-8.3272,34.7783,5.4394,5.2471,6.6875,7.3213,14.5938,4.1992,22.7637l-46.7627,127.9053.31.3935,83.9775-65.9043c10.4239-8.18,20.168-6.2929,27.7305,3.3438s7.08,19.55-3.3437,27.73l-111.1192,87.2031c-12.7832,10.0322-24.3818,10.2363-35.0312-3.334-8.0254-10.2266-8.4864-15.2676-5.2373-24.4912l44.5146-125.5059-.31-.3925-81.6181,64.0517c-10.4239,8.1807-20.167,6.293-27.7305-3.3437s-7.0791-19.55,3.3438-27.73Z" transform="translate(-48.6987 -40.896)"/><path d="M507.6094,2047.2334a13.6126,13.6126,0,0,1-19.584,1.2354c-8.8848-7.69-6.5977-15.2989,1.9824-29.0333-18.5371,3.4639-37.043.0137-56.3242-16.6748-48.0176-41.5546-37.7227-90.5068-4.6748-128.6933,39.7558-45.9365,90.4131-46.4,132.5693-9.917,34.4053,29.7764,34.91,66.2519,24.44,78.3506-9.3262,10.7744-19.72,6.7392-26.336,1.0127-15.3125-13.252,8.8457-29.7051-21.4-55.8819-21.3613-18.4873-50.2929-19.06-80.0693,15.3467-23.2314,26.8438-26.0322,56.8213-.7,78.7451,16.4453,14.2334,40.4658,15.5137,56.375.1875L493.66,1964.4053c-6.6172-5.7266-11.8633-14.5645-3.6827-24.0166,6.544-7.5616,14.6553-8.1465,22.4053-1.4385L550.57,1971.998c9.0733,7.8526,8.7383,15.4981,1.377,24.0049Z" transform="translate(-48.6987 -40.896)"/><path d="M675.32,2040.6064c27.9434,26.4122,24.7871,50.3985,14.0928,68.4717-16.5518,27.9688-49.9854,36.3614-92.585,11.1524-44.7519-26.4825-51.5195-60.6993-41.5879-77.4805,5.0918-8.6064,14.8965-10.9375,23.502-5.8447,19.1484,11.331-2.3516,36.372,33.3633,57.5068,18.2881,10.8223,34.3847,6.6943,40.4961-3.6328,3.6914-6.2393,4.7539-14.9063-5.5118-25.0488l-33.8183-33.666c-27.22-27.1456-22.5879-48.2256-12.7852-64.792,20.3711-34.4239,59.8526-28.49,89.7578-10.792,27.5391,16.2968,50.8594,51.0127,38.6368,71.667-5.2188,8.82-15.8047,9.5283-24.4112,4.4355-16.3515-9.6768.2842-30.915-32.6338-50.3945-16.3515-9.6768-29.8437-7.4942-36.21,3.2636s4.5058,21.8389,14.165,31.0411Z" transform="translate(-48.6987 -40.896)"/><path d="M758.3535,2019.0254c4.5469-11.375,15.0371-16.0674,26.6445-11.4287s15.9747,15.2685,11.4278,26.6435L748.834,2153.332l63.6074,25.42c10.9111,4.36,17.5059,13.457,13.332,23.9033-4.1757,10.4472-15.2236,12.4931-26.1347,8.1328L720.2441,2179.06c-13.4638-5.3809-20.1523-14.2461-13.3789-31.1924Z" transform="translate(-48.6987 -40.896)"/><path d="M886.4316,2066.8447c3.3145-11.7929,13.2471-17.5713,25.2813-14.19s17.5039,13.4883,14.1894,25.2812L886.5439,2218.01c-3.3134,11.7929-13.247,17.5713-25.28,14.1894-12.0352-3.3808-17.5039-13.4873-14.1914-25.28Z" transform="translate(-48.6987 -40.896)"/><path d="M1007.4336,2248.6924c-6.1006,10.9043-14.4,12.0742-26.9815,10.0049s-20.0693-5.833-22.3564-18.1162l-26.7949-148.3125a35.4119,35.4119,0,0,1-.52-12.2461c2.2305-13.5684,13.3213-16.3057,23.4356-14.6426,10.8545,1.7851,15.8418,8.4316,17.5547,21.1279l16.6367,126.88.4941.0811,57.8633-114.6309c5.6875-11.4795,12.541-16.18,21.9141-14.6387,10.1152,1.6621,19.7461,7.8067,17.5156,21.374a35.4032,35.4032,0,0,1-4.4141,11.4356Z" transform="translate(-48.6987 -40.896)"/><path d="M1184.8184,2166.5166c37.3574,9.1074,46.4941,31.5088,46.1523,52.5068-.5273,32.4961-25.418,56.3448-74.9121,55.5411-51.9932-.8438-74.8184-27.2178-74.502-46.7159.1622-9.999,7.5254-16.88,17.5245-16.7177,22.247.3613,15.97,32.7636,57.4658,33.4375,21.2461.3447,33.1855-11.2129,33.3808-23.211.1172-7.249-3.2519-15.3056-17.1933-19.0322l-46.0537-12.499c-37.0909-10.1035-43.5069-30.711-43.1944-49.959.6485-39.9951,37.8877-54.3926,72.6328-53.8281,31.9961.5195,69.4493,19.13,69.0606,43.1269-.166,10.249-9.0137,16.1065-19.0117,15.9444-18.9981-.3086-15.0645-26.9991-53.3086-27.62-18.9981-.3076-29.6387,8.27-29.8418,20.7686s14.73,16.7422,27.68,19.9521Z" transform="translate(-48.6987 -40.896)"/><path d="M1246.1133,2107.207c-2.0625-12.0752,4.4336-21.5547,16.7539-23.6611,12.3223-2.1055,21.5976,4.6787,23.66,16.7539l16.5938,97.0938c4.1269,24.1494,19.5332,32.6767,42.6973,28.7177,23.166-3.959,34.8652-17.1181,30.7382-41.2685l-16.5918-97.0928c-2.0644-12.0752,4.4317-21.5547,16.754-23.66,12.32-2.1064,21.5957,4.6788,23.66,16.753l16.0449,93.89c8.3379,48.794-17.9765,75.8633-65.0449,83.9072s-80.8809-8.75-89.2207-57.5429Z" transform="translate(-48.6987 -40.896)"/><path d="M1468.9277,2075.3945l-36.4746,13.084c-11.0605,3.9668-22.0273,1.5274-25.8261-9.0625s3.1171-19.4443,14.1777-23.4121l111.541-40.0107c11.06-3.9678,22.0293-1.5274,25.8281,9.0615,3.7969,10.59-3.1191,19.4453-14.1777,23.4121l-36.4766,13.084,43.3047,120.72c4.1348,11.5313-.6094,21.9981-12.375,26.2178s-22.082-.8438-26.2187-12.374Z" transform="translate(-48.6987 -40.896)"/><path d="M1675.1113,2026.2715c36.8985-10.8154,56.0215,4.0039,66.2383,22.3515,15.8086,28.3965,6.1992,61.502-37.0488,85.5811-45.4336,25.2959-78.3965,13.8887-87.8809-3.1484-4.8652-8.7373-1.9355-18.38,6.8008-23.2452,19.4414-10.8232,30.2266,20.37,66.4863.1827,18.5664-10.3379,23.1172-26.3194,17.2793-36.8037-3.5273-6.335-10.4765-11.6221-24.4121-7.87l-46.125,12.2325c-37.166,9.82-53.0371-4.8077-62.4-21.627-19.459-34.9482,5.5723-66.0527,35.9336-82.957,27.959-15.5664,69.6992-18.2032,81.3731,2.7666,4.9863,8.9551.26,18.4541-8.4766,23.3183-16.6016,9.2422-26.5547-15.832-59.9746,2.7744-16.6016,9.2432-21.5195,21.9961-15.4375,32.917,6.08,10.9219,21.1309,7.12,33.9492,3.417Z" transform="translate(-48.6987 -40.896)"/><path d="M1699.1562,1943.8418c-7.623-9.5889-6.4941-21.0254,3.2911-28.8047,9.7832-7.7783,21.18-6.2988,28.8027,3.29l37.0293,46.5752,6.3047-95.7168c.6055-6.87,1.4433-12.6455,7.1191-17.1572,7.6309-6.0674,18.9981-7.4385,25.5313.78,3.8906,4.8926,3.99,10.2422,3.43,15.1592l-5.34,60.7754,86.084,28.3349c6.5137,2.168,12.9121,3.7881,16.1777,7.8975,9.4922,11.9375,3.4864,22.4609-4.1464,28.5283-6.459,5.1338-11.2247,6.3691-20.9766,2.9424l-82.4141-27.7383-3.6113,31.6143,25.3594,31.8984c7.625,9.5889,6.4961,21.0254-3.2891,28.8047s-21.1816,6.2988-28.8047-3.29Z" transform="translate(-48.6987 -40.896)"/><path d="M1856.0566,1773.43c39.0762-44.2061,89.6778-42.1875,129.2012-7.252,38.0254,33.6114,52.7676,86.0147,12.0371,132.0948-42.7187,48.3271-91.7383,40.3671-132.5742,4.2714C1825.1973,1867.6084,1816.9824,1817.6367,1856.0566,1773.43Zm116.5118,102.9873c24.67-27.91,11.3867-56.67-14.4629-79.5195s-55.1348-26.712-77.3223-1.6114-14.7578,53.6895,11.0918,76.5381S1947.07,1905.2637,1972.5684,1876.417Z" transform="translate(-48.6987 -40.896)"/><path d="M1973.4629,1682.8057l-20.3008,33.0058c-6.1562,10.0078-16.2441,14.9561-25.8262,9.0615s-9.7148-17.1289-3.5605-27.1376l62.0859-100.9317c6.1563-10.0078,16.2442-14.956,25.8262-9.0615s9.7148,17.1289,3.5586,27.1367l-20.3008,33.0059,109.2363,67.1933c10.4336,6.418,13.27,17.5547,6.7188,28.2012-6.5488,10.6465-17.7656,13.1387-28.2012,6.7207Z" transform="translate(-48.6987 -40.896)"/><path d="M2049.6934,1539.252l-14.4493,35.957c-4.3808,10.9033-13.49,17.4814-23.93,13.2861s-12.4649-15.2471-8.084-26.1494l44.1855-109.959c4.3809-10.9023,13.49-17.4805,23.93-13.2861s12.4648,15.2471,8.082,26.15l-14.4472,35.957,119.0058,47.8193c11.3672,4.5674,16.0391,15.0674,11.377,26.6661-4.66,11.6-15.2988,15.9462-26.666,11.3789Z" transform="translate(-48.6987 -40.896)"/><path d="M2078.7812,1433.7744c-17.8105-3.9785-21.3515-14.5039-18.1894-28.6543l20.9824-93.9355c2.6172-11.7119,7.9414-19.4883,20.627-16.6543,12.6875,2.834,14.1972,12.1367,11.58,23.8486l-17.2773,77.3438,38.0625,8.5029,15.1524-67.8281c2.3437-10.4922,7.123-18.1338,19.5664-15.3536s13.52,11.73,11.1757,22.2207l-15.1523,67.8282,42.4531,9.4843,17.7149-79.2959c2.6152-11.7119,7.9394-19.4882,20.6269-16.6542s14.1953,12.1367,11.5781,23.8486l-21.42,95.8867c-3.16,14.1514-10.8437,22.17-28.6543,18.1914Z" transform="translate(-48.6987 -40.896)"/><path d="M2124.0488,1233.3838l-2.0527,38.6953c-.6231,11.7344-7.1172,20.9023-18.3516,20.3066s-16.7226-10.4-16.1015-22.1337l6.2793-118.334c.6211-11.7334,7.1172-20.9024,18.3515-20.3062s16.7227,10.4,16.1,22.1343l-2.0527,38.6953,128.07,6.7949c12.2324.6485,20.0469,9.0742,19.3848,21.5567s-9.3242,20.0341-21.5567,19.3857Z" transform="translate(-48.6987 -40.896)"/><path d="M393.6211,376.5034c-12.7168-15.06-8.8838-26.4243,3.082-36.5273l41.26-34.8389c36.9277-31.1807,84.3476-43.6572,133.4707,14.519,39.7148,47.0362,36.51,96.39-8.67,134.5386L522.123,488.5112c-11.9658,10.1031-23.8115,11.9781-36.5273-3.082Zm119.5361,72.9312,28.47-24.0391c27.0253-22.8193,15.3085-54.2725-4.0274-77.1714-24.7353-29.2944-50.8555-37.63-75.6113-16.7265l-28.2637,23.8647Z" transform="translate(-48.6987 -40.896)"/><path d="M658.6729,273.521c10.4267-6.2378,21.2626-7.0581,28.332,4.7578s1.2246,20.9775-9.2022,27.2153l-38.2285,22.8736c-10.4258,6.2383-21.2617,7.0581-28.332-4.7578s-1.2246-20.9771,9.2021-27.2154Z" transform="translate(-48.6987 -40.896)"/><path d="M731.2051,179.6484c27.4726-11.9746,59.9414-13.1665,67.17,3.417,3.668,8.4151,1.2109,18.3218-8.1943,22.4214-14.1084,6.1489-21.8311-10.2187-44.6026-.2934-12.623,5.5019-19.2812,12.5268-15.9365,20.2,3.668,8.4155,12.6982,6.8354,24.915,4.456l16.6094-3.1152c22.5938-4.2515,50.8731-6.2686,61.877,18.9775,12.8379,29.4541-9.6934,55.4737-36.92,67.34-32.6718,14.24-66.2626,11.5039-74.03-6.3174-3.4522-7.92-2.126-17.04,8.0224-21.4629,15.5938-6.7964,26.7871,14.8325,53.52,3.1811,12.87-5.6093,18.5566-14.8623,15.32-22.2876-3.9912-9.1582-12.5586-7.1909-26.8321-4.7988l-23.5517,4.08c-23.3037,3.9722-43.4151,2.4292-53.9873-21.8271C681.7461,214.1646,706.2051,190.5444,731.2051,179.6484Z" transform="translate(-48.6987 -40.896)"/><path d="M878.8232,211.4648c5.2666,20.1123,22.1553,31.32,44.3584,25.5069,28.7315-7.5225,23.8067-26.3291,39.2188-30.3643,9.1416-2.3935,17.7226,3.7329,19.57,10.7852,6.0176,22.9858-28.0078,43.3379-50.9932,49.3559-53.2841,13.9517-82.8349-16.8276-91.52-50-11.6269-44.4038,7.4805-81.2246,52.668-93.0561,43.8828-11.49,77.0957,13.0278,85.3027,44.3721,3.42,13.06.3907,17.4814-12.4082,20.8325Zm61.1221-39.4482c-6.6719-16.9536-23.082-26.333-40.06-21.8877-19.0674,4.9927-27.4825,19.7559-26.8067,39.3955Z" transform="translate(-48.6987 -40.896)"/><path d="M994.1484,67.0527c-1.3007-12.8945,5.8116-20.396,17.6309-21.5883s20.2881,4.7373,21.5889,17.6318l8.997,89.1855,38.6407-52.7436c3.5957-4.7046,8.375-8.4434,14.2841-9.04,8.8643-.894,19.3213,5.92,20.3243,15.86.7041,6.9844-1.4971,9.3774-4.6094,13.4907l-25.95,33.2818,46.3613,50.6816a21.5174,21.5174,0,0,1,5.3028,12.2192c1.0019,9.94-6.1348,19.8858-16.6114,20.9429-9.6709.9756-15.2627-3.3452-18.6513-7.3452l-42.3555-48.6431-12.4815,13.47,3.0088,29.8184c1.3008,12.894-5.8115,20.396-17.6318,21.5884s-20.2871-4.7378-21.5879-17.6319Z" transform="translate(-48.6987 -40.896)"/><path d="M1160.9043,118.3628l-6.749-.1411c-11.0674-.2315-15.5664-4.6465-15.3858-13.2847s4.8594-12.8613,15.9278-12.63l6.748.1411.5029-24.0249c.2706-12.9575,8.2413-19.5424,20.1182-19.2939s19.5645,7.1606,19.293,20.1182l-.502,24.0249,11.877.2485c11.6074.2427,17.7441,3.8818,17.5468,13.33-.1992,9.4482-6.48,12.8276-18.0878,12.5849l-11.877-.2485L1198.668,198.01c-.125,5.9389,3.0468,9.246,10.0644,9.3925l5.67.1187c8.6368.1806,13.6641,5.147,13.49,13.5151-.2383,11.3379-10.086,17.3433-28.98,16.9478-28.6152-.5982-40.2441-12.7241-39.7578-35.9395Z" transform="translate(-48.6987 -40.896)"/><path d="M1252.9922,112.5542c1.0879-10.4736,6.334-19.1577,21.6426-17.5669,15.3066,1.5908,18.6543,11.168,17.5664,21.6416l-11.2461,108.2275c-1.09,10.4737-6.336,19.1582-21.6426,17.5674-15.3086-1.5908-18.6563-11.1684-17.5664-21.6421Zm27.2519-71.5464a20.52,20.52,0,1,1-22.5312,18.2891A20.5111,20.5111,0,0,1,1280.2441,41.0078Z" transform="translate(-48.6987 -40.896)"/><path d="M1399.3887,115.45c46.3554,10.4521,63.9863,47.6406,54.8418,88.2017-8.6719,38.4536-35.0313,68.2133-87.4453,56.3955-52.4122-11.8184-63.4512-50.0113-54.7813-88.4649C1321.1484,131.0215,1353.0332,104.998,1399.3887,115.45Zm-26.1895,116.1519c22.9141,5.1665,37.291-13.18,42.5762-36.6211,5.6426-25.021-.4121-46.0376-22.8008-51.0855-22.3867-5.0478-36.875,11.3364-42.5176,36.3574C1345.1719,203.6938,1350.2852,226.4351,1373.1992,231.6021Z" transform="translate(-48.6987 -40.896)"/><path d="M1499.5625,161.7676c4.5039-10.9932,12.4687-16.1919,23.9629-11.4834,11.4922,4.7085,13.5215,14.001,9.0176,24.9941l-1.9453,4.7471.5.2051c15.7714-9.2954,32.9023-13.3648,53.6406-4.8692,21.9863,9.0074,41.4668,29.8267,26.3183,66.8042l-29.0683,70.9566c-3.9922,9.7441-11.4688,16.6015-25.711,10.7671s-14.76-15.9668-10.7675-25.711l26.1015-63.7109c6.0391-14.7412,3.0918-28.2031-12.6484-34.6514a30.612,30.612,0,0,0-39.5039,17.3711L1494.791,277.4c-3.9922,9.7441-11.4687,16.6011-25.7109,10.7671-14.24-5.8345-14.7578-15.9668-10.7656-25.7109Z" transform="translate(-48.6987 -40.896)"/><path d="M1655.0781,300.9663c-10.9472,17.6743-7.4316,37.6377,12.0781,49.7232,25.25,15.64,35.4864-.8868,49.0293,7.5019,8.0333,4.9761,9.5079,15.417,5.668,21.6143-12.5117,20.2-50.707,9.563-70.9062-2.9488-46.8243-29.0053-44.8789-71.6294-26.8223-100.7807,24.1719-39.0215,64.0234-50.544,103.7324-25.9468,38.5625,23.8867,43.68,64.8511,26.6172,92.3955-7.1094,11.4771-12.4,12.3281-23.6484,5.3613Zm70.7051,17.1172c7.6914-16.5161,3.1816-34.8726-11.74-44.1147-16.7559-10.379-33.2539-6.3057-47.0215,7.7163Z" transform="translate(-48.6987 -40.896)"/><path d="M1805.4922,325.3438c7.8281-8.9366,17.0508-11.2676,26.3926-3.0835s8.2441,17.6323.416,26.5683l-3.3809,3.8589.4063.356c17.9355-3.6724,35.4609-1.96,52.3164,12.8066,17.873,15.6567,29.541,41.6728,3.209,71.731L1834.3242,495.26c-6.9394,7.9209-16.2383,11.98-27.8144,1.8379s-8.7774-19.8931-1.8379-27.814l45.3691-51.7891c10.4961-11.9824,12.08-25.6718-.7148-36.8808a30.6125,30.6125,0,0,0-43.0039,3.6069l-42.8789,48.9458c-6.9375,7.9209-16.2364,11.98-27.8145,1.8379-11.5762-10.1411-8.7754-19.8931-1.8379-27.814Z" transform="translate(-48.6987 -40.896)"/></g><g id="circle"><path d="M1162.7358,380.45a776.7131,776.7131,0,0,1,436.4126,133.2847,783.0546,783.0546,0,0,1,282.8828,343.4983,779.5189,779.5189,0,0,1-71.9624,740.2471,783.0568,783.0568,0,0,1-343.498,282.8832,779.5177,779.5177,0,0,1-740.2476-71.9625A783.0543,783.0543,0,0,1,443.44,1464.902a779.5189,779.5189,0,0,1,71.9624-740.2471A783.0615,783.0615,0,0,1,858.9009,441.772,775.6817,775.6817,0,0,1,1162.7358,380.45m0-55c-461.499,0-835.6181,374.1185-835.6181,835.6174s374.1191,835.6178,835.6181,835.6178,835.6177-374.1189,835.6177-835.6178S1624.2349,325.45,1162.7358,325.45Z" transform="translate(-48.6987 -40.896)"/></g><g id="arcs"><path id="arc_base" data-name="arc base" class="cls-1" d="M172.2224,1050.8245A991.81,991.81,0,0,1,384.14,539.008" transform="translate(-48.6987 -40.896)"/><path id="arc_base-2" data-name="arc base" class="cls-1" d="M1941.3321,539.0085A991.8029,991.8029,0,0,1,2153.59,1053.97" transform="translate(-48.6987 -40.896)"/></g></g></g></g></svg>