<svg xmlns="http://www.w3.org/2000/svg" viewBox="0 0 2048.0841 2229.8466"><defs><style>.cls-1{fill:#f280a1;}.cls-2{fill:#96c;}.cls-3{fill:#fff;}.cls-4{fill:none;stroke:#f280a1;stroke-linecap:round;stroke-miterlimit:10;stroke-width:55px;}</style></defs><g id="Layer_2" data-name="Layer 2"><g id="inner"><g id="dark"><path id="_0_body" data-name="0 body" class="cls-1" d="M515.9476,1278.9748a447.651,447.651,0,0,0,29.4337,75.3942,404.4313,404.4313,0,0,0,38.6826,63.2264q89.4665,120.9091,222.4676,120.9,133.02,0,222.9983-120.9,86.7942-116.332,86.69-278.89,0-162.558-87.24-278.34-89.4666-119.033-222.4677-118.9287-133.02,0-222.4676,118.9287c-83.468,111.2338-86.8795,235.9051-87.24,278.34-.19,20.6016.8908,37.7918,1.9711,49.9785.5307,5.5531,1.08,10.026,1.611,13.2479.398,3.2789.2085,2.2364.777,6.1407m390.6167,43.2881c-22.9329,35.65-51.2294,53.5606-85.2686,53.5606s-64.1172-17.38-86.3488-52.31q-30.6181-48.358-30.6277-113.9251c0-43.7051,10.2156-82.2171,30.6277-113.3755q32.7789-50.2342,86.3488-50.3385c35.65,0,63.5866,17.02,85.7992,51.0588q31.1868,47.8178,31.1774,112.6742C923.4891,1181.88,912.9134,1218.5913,891.7811,1251.3606Z" transform="translate(0 -40.896)"/><g id="_1" data-name="1"><path id="body" class="cls-2" d="M1442.8519,805.4019q-6.7377,53.3331-6.7282,261.4535,0,69.9073.8529,209.8641c.7012,93.5509,1.0234,163.43,1.0234,210.0346q0,11.4-10.3483,21.2271c-6.8988,6.3871-14.3283,9.6659-22.44,9.6659-19.5024,0-48.6707.1706-87.5049.7013-38.8343.3411-67.832.5307-87.3344.5307-15.0107,0-22.27-6.3871-21.7389-19.3319l.5307-6.7282q8.5287-231.6976,8.4529-280.9559v-180.184c-.5307-6.046-1.213-16.9249-7.7706-16.9249q-12.1677,0-36.7495,7.24-24.5913,7.25-37.28,7.24c-12.6036,0-18.8012-7.43-18.8012-22.44,0-13.8165-.1706-34.3424-.7012-61.9566-.3412-27.4436-.5307-48.33-.5307-62.4683,0-8.1118,5.0036-14.1578,15.1812-18.1189q89.04-37.0148,140.1368-99.5779c6.8988-8.4529,12.7741-12.7741,17.6071-12.7741.7013,0,3.1083.5307,7.24,1.213,15.3707,3.2788,38.1519,8.4529,68.5143,15.1811,16.2235,2.0659,39.8576,5.6859,70.94,11.0495,5.6859,1.5541,8.6235,6.0459,8.6235,13.2859,0,2.407-.5307,6.7282-1.213,12.7742Z" transform="translate(0 -40.896)"/><path id="hands" class="cls-2" d="M1429.13,1271.6212a164.06,164.06,0,0,0,40.8054-26.7235c2.1984-1.9521,3.6958-3.3925,5.06-4.6623,39.327-37.3939,58.981-56.1,71.2435-64.1362,22.5917-14.7832,26.3444-9.8744,45.1076-25.1314,19.3129-15.6929,26.1928-29.7179,29.1684-37.318,3.07-7.8464,6.7282-17.6071,4.3023-29.87-.6823-3.3926-4.0938-18.5738-18.3084-27.7658a43.2968,43.2968,0,0,0-19.01-6.4629c-18.2705-1.7248-31.6133,8.2823-35.5744,11.4095-8.9647,8.434-10.67,10.1208-18.3653,24.3733-9.0973,34.8921-3.4115,15.3328-8.2823,7.8275-3.8853-5.9891-12.054-11.6939-19.0665-9.59-5.5152,1.6679-8.1876,7.3158-8.9268,9.0026-4.9277,11.2579,3.62,19.5782,1.232,36.1808a124.5476,124.5476,0,0,1-3.7526,17.5313c-12.3573,42.2268-32.8642,59.5117-62.3736,74.4655m-210.6223,44.122a165.042,165.042,0,0,1-47.5146-11.0684c-2.7292-1.08-4.6435-1.8953-6.3492-2.6534-49.77-21.6251-74.655-32.4282-88.9454-35.745-26.2874-6.1217-28.1448-.2274-51.0019-8.0928-23.5393-8.1118-34.8162-18.9149-40.2178-25.0177-5.5911-6.3112-12.3761-14.2145-14.29-26.5718-.5306-3.43-2.54-18.858,7.657-32.3713a42.9484,42.9484,0,0,1,15.636-12.5846c16.5647-7.9033,32.5419-3.0893,37.318-1.4973,11.3148,4.8519,13.4944,5.8375,25.6431,16.5837,20.5258,29.6421,8.4719,13.229,10.4809,4.5107,1.592-6.9556,7.3157-15.1243,14.6126-15.5412,5.7427-.3412,10.2155,4.0559,11.4664,5.3826,8.4908,8.87,3.3167,19.635,11.2579,34.3992a124.7669,124.7669,0,0,0,9.5522,15.1812c26.098,35.4227,71.1488,45.2782,103.9749,49.1825" transform="translate(0 -40.896)"/></g><path id="_0_hands" data-name="0 hands" class="cls-1" d="M1092.4341,1270.8062a164.9753,164.9753,0,0,0,47.8368-9.5522c2.7671-.9855,4.7-1.7626,6.425-2.4449,50.4333-20.0142,75.6595-30.0212,90.0257-32.9021,26.458-5.2878,28.1448.6823,51.2293-6.4818,23.7857-7.3537,35.4038-17.7967,40.9759-23.7289,5.7806-6.1407,12.8121-13.8166,15.1432-26.098.6444-3.4115,3.1272-18.7443-6.6334-32.5987a42.9549,42.9549,0,0,0-15.2191-13.0774c-16.2994-8.4151-32.4282-4.1128-37.2612-2.6913-11.4664,4.4918-13.6649,5.4015-26.1548,15.7687-21.4545,28.9787-8.8888,12.9447-10.5946,4.1885-1.3835-7.0125-6.823-15.3327-14.12-15.9961-5.7237-.5307-10.3293,3.7337-11.6559,5.0225-8.7752,8.5856-3.9422,19.5213-12.3572,34.02a124.8816,124.8816,0,0,1-10.0261,14.859c-27.2351,34.57-63.3591,42.8143-96.318,45.6761m-597.77-34.6077a65.3046,65.3046,0,0,0-21.4925,24.0132,167.6325,167.6325,0,0,0-12.6415,35.6312c-.6823,2.8619-1.08,4.9088-1.44,6.7282-10.5188,53.2383-15.7876,79.848-21.17,93.494-9.9123,25.0935-15.8256,23.274-22.3453,46.548-6.7093,23.9753-4.2454,39.4028-2.2744,47.3061,2.028,8.1876,4.6435,18.27,13.7408,26.875,2.5207,2.3881,14.063,12.7932,30.9878,12.1109a42.9667,42.9667,0,0,0,19.237-5.7048c15.9014-9.1353,21.0376-25.0177,22.4591-29.8506,2.4449-12.0729,2.8618-14.4231.9287-30.514-12.7173-33.7359-6.0649-14.48,2.2364-11.1821,6.6335,2.6533,16.5837,2.5775,21.0944-3.1841,3.5442-4.53,2.4639-10.7083,2.1038-12.5088-2.4639-12.035-14.2714-13.8924-21.89-28.8272a125.9945,125.9945,0,0,1-7.05-16.4889c-14.29-41.62-1.63-76.4555,13.8355-105.7" transform="translate(0 -40.896)"/><g id="hearts"><path id="right" class="cls-1" d="M1163.6165,791.6631c8.2008-7.3507,14.97-13.205,19.5319-17.1063,15.3131-13.0968,20.7893-17.052,26.8086-25.915,5.0057-7.3706,8.6958-12.8038,8.2978-20.4255a26.5984,26.5984,0,0,0-17.8723-23.234c-13.6973-4.5243-24.9387,4.8289-26.2978,6a29.7423,29.7423,0,0,0-9.1479,14.8239,34.065,34.065,0,0,0-14.98-14.9516c-3.3349-1.639-14.2751-7.0161-23.1065-1.5318-8.65,5.3715-8.8825,17.1916-8.9361,19.9147-.1532,7.7806,2.8882,13.3313,6.8936,20.4256,1.7094,3.0273,5.8487,9.9037,20.8085,25.0213C1149.9534,779.067,1156.0137,784.965,1163.6165,791.6631Z" transform="translate(0 -40.896)"/><path id="left" class="cls-2" d="M1075.4464,827.45c1.5888-1.666,12.8895-13.5106,15.9147-16.6808,15.5646-16.31,19.6315-20.562,22.9788-28a54.9133,54.9133,0,0,0,4.6809-22.0426c-.2412-1.995-1.3564-9.2186-7.4043-13.8723-8.8619-6.8191-20.4781-2.09-22.6684-1.198a28.9142,28.9142,0,0,0-13.7848,12.1912c-3.9119-13.5277-13.9156-22.8894-24.7383-23.5038-1.1234-.0637-9.9264-.43-16.0851,5.7872-6.1634,6.2216-5.7779,15.0982-5.5319,20.766.1543,3.5525.8294,8.6356,4,16.34,6.9152,16.804,18.2026,27.8569,28.9362,38.17C1067.4106,820.8524,1072.3231,824.9452,1075.4464,827.45Z" transform="translate(0 -40.896)"/></g></g></g><g id="outer"><g id="dark-2" data-name="dark"><g id="text"><path class="cls-3" d="M278.21,1771.8535l-25.1953-29.44c-7.6406-8.9277-9.2588-20.0469-.711-27.3613s19.2823-3.9981,26.9219,4.9287l77.05,90.0322c7.64,8.9277,9.2588,20.0469.711,27.3613s-19.2823,3.9981-26.9229-4.9287l-25.1953-29.4414-97.44,83.39c-9.3076,7.9648-20.7773,7.2509-28.9042-2.2461-8.129-9.4971-7.0625-20.9395,2.2451-28.9043Z" transform="translate(0 -40.896)"/><path class="cls-3" d="M357.5821,1846.59c11.6836-14.02,22.6631-12.3554,33.8027-3.0732l52.4326,43.6943c37.4522,31.209,30.3145,60.0821,15.43,77.9444-12.4844,14.98-33.6426,22.4072-51.5039,13.3808l-.32.3838c14.2129,15.749,7.33,29.8653-4.3535,43.8858-13.2832,15.9414-14.02,25.417-19.461,31.9463-6.082,7.2988-17.7343,6.0507-25.0332-.0313-17.2851-14.4043-4.705-32.2344-.0634-37.8047,20.166-24.1992,23.9111-37.6758,6.6259-52.08l-31.1152-25.9277-33.7695,40.5244c-7.8428,9.4112-19.27,10.6279-28.8731,2.625s-10.4678-19.4619-2.625-28.873ZM353.23,1915.86l31.4981,26.248c11.9082,9.9228,26.376,16.7734,39.34,1.2158,12.3242-14.7881,6.4981-26.1523-7.33-37.6758l-32.4589-27.0478Z" transform="translate(0 -40.896)"/><path class="cls-3" d="M495.9873,1946.98c6.6192-10.3066,17.8086-12.9258,28.3262-6.1719s12.791,18.0186,6.1719,28.3262l-78.6192,122.4287c-6.6191,10.3076-17.8085,12.9268-28.3261,6.1719s-12.792-18.0186-6.1729-28.3262Z" transform="translate(0 -40.896)"/><path class="cls-3" d="M558.4258,2156.2861c-9.0273,8.6387-17.3056,7.3252-28.7285,1.6612s-17.48-11.4571-16.0684-23.8721L531.462,1984.42a35.4462,35.4462,0,0,1,3.0917-11.8623c6.1075-12.3183,17.5137-11.6865,26.6973-7.1328,9.8555,4.8857,12.6768,12.7031,10.5947,25.3438L550.5791,2116.957l.4473.2217,88.91-92.6494c8.8017-9.31,16.7314-11.7959,25.2421-7.5762,9.1836,4.5537,16.5918,13.249,10.4844,25.5684a35.409,35.409,0,0,1-7.57,9.6406Z" transform="translate(0 -40.896)"/><path class="cls-3" d="M754.417,2129.877c33.34,19.1562,35.8731,43.2168,29.6953,63.2871-9.5605,31.0625-40.1113,47.0312-87.42,32.4687-49.6992-15.2978-64.2715-46.9873-58.5351-65.624,2.9414-9.5576,11.9306-14.1152,21.4882-11.1729,21.2657,6.5459,6.209,35.9161,45.8721,48.125,20.31,6.251,34.9971-1.5224,38.5264-12.9912,2.1328-6.9287,1.1416-15.6045-11.209-23.0683l-40.7471-24.8369c-32.8066-20.0381-33.2275-41.6163-27.5634-60.0147,11.7675-38.2295,51.5429-41.6816,84.7548-31.458,30.584,9.4141,61.3682,37.7227,54.3077,60.6611-3.0157,9.7969-13.1436,12.9571-22.7012,10.0147-18.1592-5.59-6.9444-30.126-43.502-41.3789-18.1592-5.59-30.7685-.3155-34.4453,11.6308s9.4815,20.1826,21.0235,26.875Z" transform="translate(0 -40.896)"/><path class="cls-3" d="M829.6084,2096.792c2.4551-18.084,12.6426-22.5029,27.0118-20.5518l95.374,12.9532c11.8916,1.6152,20.0908,6.2607,18.3408,19.1425s-10.8906,15.1729-22.7813,13.5577l-78.5292-10.6661-5.25,38.6455,68.8691,9.3536c10.6523,1.4472,18.6709,5.5634,16.9551,18.1982s-10.543,14.4619-21.1953,13.0156l-68.8672-9.3535-5.8545,43.1045,80.5107,10.9346c11.8906,1.6152,20.09,6.2607,18.3408,19.1426s-10.8916,15.1728-22.7822,13.5576l-97.3564-13.2227c-14.3682-1.9521-23.0078-8.9277-20.5518-27.0117Z" transform="translate(0 -40.896)"/><path class="cls-3" d="M982.4893,2108.3994c-.2012-12.249,7.6621-20.6289,20.16-20.834s20.6337,7.9121,20.8349,20.1612l2.1055,128.2343,68.4912-1.125c11.749-.1933,21.3467,5.65,21.5312,16.8985s-9.2158,17.4043-20.9648,17.5976l-85.4893,1.4034c-14.498.2382-24.0908-5.3555-24.3916-23.6026Z" transform="translate(0 -40.896)"/><path class="cls-3" d="M1121.0772,2112.3184c-3.2246-17.9629,5.11-25.3008,19.3818-27.8633l67.1748-12.06c47.9824-8.6133,65.5049,15.418,69.6133,38.3018,3.4453,19.1933-4.4726,40.1718-22.87,48.0468l.0879.4922c21.2-.7578,27.5849,13.5889,30.8105,31.5518,3.666,20.4228,10.4492,27.0791,11.9512,35.4453,1.6777,9.3506-6.7695,17.4707-16.12,19.1494-22.1455,3.9756-27.711-17.1221-28.9922-24.2578-5.5664-31.0049-13.4785-42.5381-35.624-38.5615l-39.8623,7.1562,9.32,51.919c2.165,12.0566-4.251,21.5908-16.5547,23.8s-21.6348-4.4981-23.8-16.5557Zm50.25,47.873,40.3545-7.2441c15.2558-2.7393,29.8047-9.4151,26.2265-29.3457-3.4013-18.9473-15.85-21.792-33.5664-18.6114l-41.5849,7.4649Z" transform="translate(0 -40.896)"/><path class="cls-3" d="M1323.3877,1976.6279a27,27,0,1,1-16.0449,34.65A26.8876,26.8876,0,0,1,1323.3877,1976.6279Zm13.7813,37.5518a13,13,0,1,0-16.6826-7.7256A12.9113,12.9113,0,0,0,1337.169,2014.18Zm-12.4287,36.5185c.0986-9.89,5.081-15.1806,14.4687-18.6259l9.1533-3.3594c8.6836-3.1865,17.2041-3.917,25.8213,6.5019l93.9307,112.2627c2.7861,3.2383,7.6309,9.1827,9.1816,13.4073,3.4453,9.3877-2.0127,19.9131-11.87,23.53-8.4492,3.1016-15.6709,2.29-21.2431-4.1865l-20.1934-24.5459-61.96,22.7393.2442,31.8672c.1748,8.458-4.1035,13.49-13.2559,16.85-10.5615,3.8759-20.249-.0254-24.039-10.3516-1.5508-4.2246-1.7012-11.8926-1.6719-16.1641Zm34.2607,21.5137-.47.1719,2.1279,76.1826,45.0615-16.5381Z" transform="translate(0 -40.896)"/><path class="cls-3" d="M1434.8037,2024.8818c-9.1337-15.7988-3.7871-25.5312,8.7657-32.789l43.2871-25.0235c38.74-22.3974,83.9951-26.0361,119.2793,34.9981,28.5273,49.3457,17.5566,93.8047-29.8408,121.207l-42.6377,24.6485c-12.5528,7.2578-23.6543,7.0341-32.7891-8.7657Zm97.0547,85.9649,29.8682-17.2676c28.3525-16.3906,22.8027-46.9687,8.9141-70.9922-17.7666-30.7334-40.2149-42.59-66.1866-27.5752l-29.65,17.1416Z" transform="translate(0 -40.896)"/><path class="cls-3" d="M1585.3116,1934.4463c-11.7149-13.9932-8.1211-24.5,2.997-33.8086l73.8028-61.7832c9.2021-7.7031,18.1582-10.6357,26.5029-.667s3.8818,18.2686-5.3193,25.9707l-60.7686,50.8711,25.0352,29.9053,53.291-44.6133c8.2431-6.9,16.6865-10.0557,24.8711-.2793s3.5918,17.5332-4.65,24.4336l-53.292,44.6123,27.9228,33.3555,62.3018-52.1553c9.2012-7.7031,18.1572-10.6358,26.5019-.668s3.8819,18.2695-5.3193,25.9717l-75.3369,63.0674c-11.1182,9.3076-22.0938,10.997-33.8086-2.9971Z" transform="translate(0 -40.896)"/><path class="cls-3" d="M1743.209,1803.0137l-25.1972,29.4384c-7.6407,8.9268-18.377,12.2422-26.9239,4.9268s-6.9267-18.4346.7139-27.36l77.0566-90.0254c7.6407-8.9268,18.376-12.2422,26.9229-4.9268s6.9277,18.4346-.7129,27.3613l-25.1982,29.4385,97.4326,83.3965c9.3056,7.9658,10.3711,19.4082,2.2431,28.9043s-19.5986,10.21-28.9043,2.2441Z" transform="translate(0 -40.896)"/><path class="cls-3" d="M254.9268,376.5034c-12.7168-15.06-8.8828-26.4243,3.082-36.5273l41.26-34.8389c36.9277-31.1807,84.3476-43.6572,133.4707,14.519,39.7158,47.0362,36.51,96.39-8.67,134.5386l-40.6407,34.3164c-11.9648,10.1031-23.81,11.9781-36.5273-3.082Zm119.5371,72.9312,28.4688-24.0391c27.0253-22.8193,15.3085-54.2725-4.0264-77.1714-24.7354-29.2944-50.8565-37.63-75.6123-16.7265L295.03,355.3623Z" transform="translate(0 -40.896)"/><path class="cls-3" d="M519.98,273.521c10.4258-6.2378,21.2617-7.0581,28.3321,4.7578s1.2246,20.9775-9.2022,27.2153l-38.2285,22.8736c-10.4268,6.2383-21.2627,7.0581-28.332-4.7578s-1.2246-20.9771,9.2021-27.2154Z" transform="translate(0 -40.896)"/><path class="cls-3" d="M592.5108,179.6484c27.4736-11.9746,59.9414-13.1665,67.17,3.417,3.668,8.4151,1.2109,18.3218-8.1934,22.4214-14.1093,6.1489-21.832-10.2187-44.6035-.2934-12.623,5.5019-19.28,12.5268-15.9355,20.2,3.6679,8.4155,12.6982,6.8354,24.915,4.456l16.6084-3.1152c22.5938-4.2515,50.8731-6.2686,61.877,18.9775,12.8379,29.4541-9.6934,55.4737-36.92,67.34-32.6709,14.24-66.2617,11.5039-74.0292-6.3174-3.4532-7.92-2.126-17.04,8.0214-21.4629,15.5938-6.7964,26.7881,14.8325,53.52,3.1811,12.8711-5.6093,18.5576-14.8623,15.3213-22.2876-3.9913-9.1582-12.56-7.1909-26.8331-4.7988l-23.5507,4.08c-23.3047,3.9722-43.416,2.4292-53.9883-21.8271C543.0518,214.1646,567.5118,190.5444,592.5108,179.6484Z" transform="translate(0 -40.896)"/><path class="cls-3" d="M740.13,211.4648c5.2656,20.1123,22.1553,31.32,44.3574,25.5069,28.7325-7.5225,23.8077-26.3291,39.2188-30.3643,9.1426-2.3935,17.7236,3.7329,19.57,10.7852,6.0176,22.9858-28.0068,43.3379-50.9922,49.3559-53.2851,13.9517-82.8359-16.8276-91.5215-50-11.6259-44.4038,7.4815-81.2246,52.669-93.0561,43.8818-11.49,77.0947,13.0278,85.3017,44.3721,3.42,13.06.3907,17.4814-12.4082,20.8325Zm61.1221-39.4482c-6.6719-16.9536-23.083-26.333-40.0615-21.8877-19.0664,4.9927-27.4825,19.7559-26.8057,39.3955Z" transform="translate(0 -40.896)"/><path class="cls-3" d="M855.4541,67.0527c-1.3007-12.8945,5.8125-20.396,17.6319-21.5883s20.2881,4.7373,21.5888,17.6318l8.9961,89.1855,38.6407-52.7436c3.5957-4.7046,8.375-8.4434,14.2851-9.04,8.8643-.894,19.32,5.92,20.3242,15.86.7041,6.9844-1.497,9.3774-4.6093,13.4907l-25.95,33.2818,46.36,50.6816a21.5106,21.5106,0,0,1,5.3028,12.2192c1.0029,9.94-6.1348,19.8858-16.6114,20.9429-9.67.9756-15.2617-3.3452-18.65-7.3452l-42.3554-48.6431-12.4815,13.47,3.0088,29.8184c1.3008,12.894-5.8125,20.396-17.6328,21.5884s-20.2871-4.7378-21.5879-17.6319Z" transform="translate(0 -40.896)"/><path class="cls-3" d="M1022.21,118.3628l-6.748-.1411c-11.0684-.2315-15.5665-4.6465-15.3868-13.2847.1817-8.6382,4.86-12.8613,15.9278-12.63l6.749.1411.5029-24.0249c.27-12.9575,8.24-19.5424,20.1172-19.2939s19.5654,7.1606,19.294,20.1182l-.502,24.0249,11.877.2485c11.6074.2427,17.7431,3.8818,17.5459,13.33s-6.48,12.8276-18.0879,12.5849l-11.877-.2485-1.6484,78.8233c-.125,5.9389,3.0468,9.246,10.0654,9.3925l5.6689.1187c8.6377.1806,13.6651,5.147,13.49,13.5151-.2373,11.3379-10.085,17.3433-28.9805,16.9478-28.6142-.5982-40.2441-12.7241-39.7578-35.9395Z" transform="translate(0 -40.896)"/><path class="cls-3" d="M1114.2989,112.5542c1.0879-10.4736,6.3339-19.1577,21.6416-17.5669s18.6552,11.168,17.5673,21.6416l-11.247,108.2275c-1.0889,10.4737-6.335,19.1582-21.6426,17.5674s-18.6553-11.1684-17.5664-21.6421ZM1141.55,41.0078a20.52,20.52,0,1,1-22.5312,18.2891A20.5111,20.5111,0,0,1,1141.55,41.0078Z" transform="translate(0 -40.896)"/><path class="cls-3" d="M1260.6953,115.45c46.3545,10.4521,63.9864,47.6406,54.8409,88.2017-8.6709,38.4536-35.0313,68.2133-87.4444,56.3955s-63.4521-50.0113-54.7822-88.4649C1182.4551,131.0215,1214.34,104.998,1260.6953,115.45Zm-26.19,116.1519c22.9151,5.1665,37.292-13.18,42.5772-36.6211,5.6416-25.021-.4131-46.0376-22.8008-51.0855s-36.876,11.3364-42.5176,36.3574C1206.4786,203.6938,1211.5909,226.4351,1234.5049,231.6021Z" transform="translate(0 -40.896)"/><path class="cls-3" d="M1360.8692,161.7676c4.5039-10.9932,12.4687-16.1919,23.9619-11.4834s13.5215,14.001,9.0176,24.9941l-1.9444,4.7471.5.2051c15.7705-9.2954,32.9024-13.3648,53.64-4.8692,21.9863,9.0074,41.4678,29.8267,26.3193,66.8042l-29.0693,70.9566c-3.9912,9.7441-11.4688,16.6015-25.711,10.7671s-14.7587-15.9668-10.7666-25.711l26.1006-63.7109c6.0391-14.7412,3.0928-28.2031-12.6474-34.6514a30.6117,30.6117,0,0,0-39.5039,17.3711L1356.0977,277.4c-3.9922,9.7441-11.47,16.6011-25.7109,10.7671S1315.628,272.2,1319.62,262.4561Z" transform="translate(0 -40.896)"/><path class="cls-3" d="M1516.3848,300.9663c-10.9473,17.6743-7.4326,37.6377,12.0781,49.7232,25.2491,15.64,35.4864-.8868,49.0283,7.5019,8.0342,4.9761,9.5079,15.417,5.668,21.6143-12.5117,20.2-50.706,9.563-70.9053-2.9488-46.8252-29.0053-44.8789-71.6294-26.8222-100.7807,24.1709-39.0215,64.0224-50.544,103.7324-25.9468,38.5625,23.8867,43.6787,64.8511,26.6162,92.3955-7.1084,11.4771-12.4,12.3281-23.6475,5.3613Zm70.7051,17.1172c7.69-16.5161,3.1806-34.8726-11.74-44.1147-16.7558-10.379-33.2539-6.3057-47.0214,7.7163Z" transform="translate(0 -40.896)"/><path class="cls-3" d="M1666.7989,325.3438c7.8281-8.9366,17.05-11.2676,26.3925-3.0835s8.2442,17.6323.4161,26.5683l-3.3809,3.8589.4062.356c17.9346-3.6724,35.46-1.96,52.3165,12.8066,17.872,15.6567,29.541,41.6728,3.2089,71.731L1695.63,495.26c-6.9385,7.9209-16.2373,11.98-27.8135,1.8379s-8.7773-19.8931-1.8378-27.814l45.3681-51.7891c10.4971-11.9824,12.08-25.6718-.7148-36.8808a30.6125,30.6125,0,0,0-43.0039,3.6069l-42.878,48.9458c-6.9384,7.9209-16.2373,11.98-27.8144,1.8379s-8.7764-19.8931-1.8379-27.814Z" transform="translate(0 -40.896)"/></g><g id="circle"><path class="cls-3" d="M1024.042,380.45a776.7179,776.7179,0,0,1,436.4126,133.2847,783.0546,783.0546,0,0,1,282.8828,343.4983A779.5189,779.5189,0,0,1,1671.375,1597.48a783.0533,783.0533,0,0,1-343.4985,282.8832,779.5181,779.5181,0,0,1-740.2471-71.9625A783.0634,783.0634,0,0,1,304.7466,1464.902a779.5165,779.5165,0,0,1,71.9627-740.2471A783.054,783.054,0,0,1,720.2073,441.772,775.6818,775.6818,0,0,1,1024.042,380.45m0-55c-461.499,0-835.6174,374.1185-835.6174,835.6174s374.1184,835.6178,835.6174,835.6178S1859.66,1622.5663,1859.66,1161.0674,1485.5411,325.45,1024.042,325.45Z" transform="translate(0 -40.896)"/></g><g id="arcs"><path id="arc_base" data-name="arc base" class="cls-4" d="M166.7538,1669.4589C78.2968,1520.617,27.5,1346.7743,27.5,1161.0674c0-235.31,81.5571-451.5717,217.946-622.0594" transform="translate(0 -40.896)"/><path id="arc_base-2" data-name="arc base" class="cls-4" d="M1802.6384,539.0085c136.3887,170.4876,217.9457,386.7489,217.9457,622.0589,0,185.706-50.7963,359.5479-139.2525,508.3893" transform="translate(0 -40.896)"/></g></g></g></g></svg>