<svg xmlns="http://www.w3.org/2000/svg" viewBox="0 0 1085.1286 903.7828"><defs><style>.cls-1{fill:#f280a1;}.cls-2{fill:#96c;}</style></defs><g id="Layer_2" data-name="Layer 2"><g id="inner"><g id="dark"><g id="arrow"><polygon id="line" class="cls-1" points="70.711 841.206 0 770.495 448.057 322.439 627.975 502.357 898.806 231.528 969.516 302.239 627.975 643.779 448.057 463.86 70.711 841.206"/><polygon id="head" class="cls-1" points="1020.625 356.712 1085.129 115.915 844.331 180.419 1020.625 356.712"/></g><g id="stonks"><path class="cls-2" d="M448.0571,280.0127l0,0,179.918,179.9185.0005,0V169.4594H448.0571ZM154.6779,573.3906l179.919-179.9182V338.9186H154.6779ZM741.4362,0V346.47l113.26-113.26-68.3247-68.3239,134.9829-36.1584V0ZM448.0573,506.2867l0,0V903.7828H627.9758V686.2053l-.0005,0ZM154.6779,903.7828h179.919V619.7469L154.6779,799.6655Zm586.7583,0H921.3547V392.8271L741.4362,572.7452Z"/></g></g></g></g></svg>