<svg xmlns="http://www.w3.org/2000/svg" viewBox="0 0 2049.9941 2234.4223"><defs><style>.cls-1,.cls-2,.cls-3,.cls-4{fill:none;stroke:#000;stroke-linecap:round;stroke-miterlimit:10;}.cls-1{stroke-width:43px;}.cls-2{stroke-width:30px;}.cls-3{stroke-width:65px;}.cls-4{stroke-width:55px;}</style></defs><g id="Layer_2" data-name="Layer 2"><g id="inner"><g id="silhouette"><g id="switch"><line class="cls-1" x1="1289.4607" y1="351.065" x2="1289.4607" y2="955.7393"/><circle cx="1289.4607" cy="1010.7166" r="74.5455"/></g><g id="light"><path id="bulb" d="M993.9449,1665.3372c-112.9962,23.1438-222.5888-53.7752-239.6063-168.1329-8.1684-55.1367,5.4456-104.8278,38.1193-149.754a388.1327,388.1327,0,0,0,43.5647-78.9613c4.7649-10.8911,6.1263-23.1437,8.8491-34.7156,3.4035-13.614,7.4877-26.5473,17.0175-38.1193,14.2948-17.0175,31.9929-24.5052,53.0947-25.1858,14.2944.6809,29.9505.6809,45.6067.6809h44.2455c26.5472,0,49.6911,19.74,53.7752,45.6068a260.01,260.01,0,0,0,29.27,86.4488,487.91,487.91,0,0,0,31.3121,51.0525C1200.8777,1472.699,1134.85,1636.7477,993.9449,1665.3372Zm-45.46-34.0658a322.42,322.42,0,0,1-153.26-186.5382,160.4336,160.4336,0,0,0,153.26,186.5382Z" transform="translate(-64.1251 -40.896)"/><g id="screw"><line id="lower" class="cls-2" x1="831.0673" y1="1070.1444" x2="947.5692" y2="1070.1444"/><line id="middle" class="cls-2" x1="831.0327" y1="1010.7166" x2="947.5346" y2="1010.7166"/><line id="upper" class="cls-2" x1="831.0327" y1="951.2888" x2="947.5346" y2="951.2888"/></g><line id="wire" class="cls-3" x1="889.2837" y1="347.2352" x2="889.2837" y2="859.7619"/></g></g></g><g id="outer"><g id="silhouette-2" data-name="silhouette"><g id="text"><path d="M207.332,1509.7578c11.0459-5.2959,21.9434-1.6494,27.3477,9.6211s1.4248,22.0518-9.62,27.3477l-53.65,25.7265,91.9072,27.459c6.5615,2.1211,12.0068,4.2236,15.1416,10.7608,4.2149,8.7919,3.0215,20.1767-6.4473,24.7167-5.6347,2.7022-10.872,1.6094-15.541-.0332l-58.0586-18.7373-46.791,77.61c-3.5644,5.8672-6.5683,11.7441-11.3017,14.0137-13.751,6.5937-22.6729-1.6045-26.8877-10.3955-3.5674-7.4385-3.709-12.3614,1.8017-21.1036l45.3926-74.167-30.0166-10.56-36.7422,17.6191c-11.0459,5.2969-21.9433,1.65-27.3476-9.62s-1.4258-22.0518,9.62-27.3477Z" transform="translate(-64.1251 -40.896)"/><path d="M311.21,1685.4092c9.5654-2.5166,15.9843.8916,21.7871,9.0361l5.6562,7.94c5.3682,7.5342,8.3223,15.5586.55,26.6221l-83.4677,120.2461c-2.3877,3.543-6.8418,9.7861-10.5069,12.3975-8.1445,5.8027-19.7373,3.3183-25.831-5.2334-5.2217-7.33-6.3457-14.5108-1.5713-21.5957l18.3408-25.96L197.87,1755.1084l-30.6719,8.6523c-8.1113,2.4024-14.0947-.3945-19.7519-8.3349-6.5283-9.1631-5.3242-19.5371,3.6348-25.92,3.665-2.6114,11.02-4.7813,15.1484-5.8809Zm-11.7,38.7256-.29-.4073-72.916,22.1739,27.8525,39.0937Zm58.6211-73.6885a18.25,18.25,0,1,1-25.4541-4.2744A18.3522,18.3522,0,0,1,358.1309,1650.4463Zm29.5927,41.5371a18.25,18.25,0,1,1-25.4531-4.2744A18.3519,18.3519,0,0,1,387.7236,1691.9834Z" transform="translate(-64.1251 -40.896)"/><path d="M370.8369,1779.0469c8.79-8.5313,20.2822-8.5371,28.9883.4326s8.3574,20.457-.4336,28.9883l-92.03,89.3232,47.708,49.1543c8.1836,8.4317,10.4942,19.4277,2.4219,27.2637s-18.9951,5.1963-27.1787-3.2354L270.7646,1909.62c-10.1-10.4053-12.59-21.2265.5059-33.9375Z" transform="translate(-64.1251 -40.896)"/><path d="M467.28,1876.1387c7.4785-9.7032,18.8515-11.3535,28.7519-3.7227s11.2012,19.05,3.7227,28.752l-78.293,101.581,54.2559,41.8174c9.3066,7.1729,13.1679,17.7246,6.3,26.6357s-18.0557,7.8633-27.3623.6905l-67.7207-52.1963c-11.4844-8.8516-15.4981-19.2051-4.3575-33.66Z" transform="translate(-64.1251 -40.896)"/><path d="M623.416,1975.8838c7.4756-6.4746,14.7393-6.2451,23.5381-1.4922l8.5781,4.6338c8.1377,4.3965,14.3272,10.2978,12.2266,23.6543L645.84,2147.4014c-.581,4.2324-1.8271,11.7988-3.9658,15.7578-4.7539,8.7988-16.2539,11.6787-25.4922,6.6875-7.9179-4.2774-12.0927-10.2256-10.93-18.6905l5.02-31.3847-58.0684-31.3692-23.7158,21.2862c-6.2217,5.7314-12.8252,5.8574-21.4033,1.2236-9.8985-5.3467-13.3906-15.1885-8.1621-24.8672,2.1386-3.959,7.7841-9.1494,11.0058-11.956Zm6.5664,39.918-.44-.2383-55.6738,52.042L616.1,2090.4189Z" transform="translate(-64.1251 -40.896)"/><path d="M715.8037,2041.1484c5.8262-17.2949,16.6641-19.7119,30.4063-15.083l64.68,21.7862c46.2,15.5615,49.9815,45.0625,42.56,67.0966-6.2246,18.48-23.2685,33.0518-43.1846,31.0918l-.16.4737c18.9443,9.5468,17.6309,25.1963,11.8047,42.4912-6.6231,19.665-3.8848,28.7646-6.5987,36.82-3.0322,9.0029-14.3476,12.0508-23.3505,9.0186-21.3233-7.1827-16.0391-28.3536-13.7246-35.2247,10.0556-29.8515,8.6757-43.7705-12.6465-50.9531l-38.3819-12.9277-16.8388,49.99c-3.91,11.6094-14.125,16.874-25.9707,12.8838s-16.795-14.3623-12.8848-25.9707Zm20.9795,66.1592,38.8555,13.0879c14.6894,4.9473,30.6552,6.1045,37.12-13.0859,6.1445-18.2432-3.3945-26.7325-20.4531-32.4785l-40.0411-13.4864Z" transform="translate(-64.1251 -40.896)"/><path d="M880.2012,2088.6279c2.0351-16.374,13.6621-18.708,24.5781-17.3515l11.9082,1.48c12.6533,1.5733,17.99,7.2744,20.5117,21.4444l21.23,119.0283.4971.0615,49.2275-110.2705c5.9141-13.1211,12.4854-17.3428,25.1377-15.7695l11.4131,1.4179c10.916,1.3575,21.6172,6.4668,19.582,22.8409l-18.041,145.1338c-1.2637,10.1718-7.4287,19.23-20.5771,17.5966s-16.9082-11.9267-15.6436-22.0986l13.7539-110.6494-.4961-.0615-52.6992,113.87c-3.7773,8.0957-10.4121,10.7978-18.8467,9.749s-14.206-5.292-15.8857-14.0664l-23.2188-123.3066-.4961-.0616-13.7539,110.6485c-1.2636,10.1718-7.4277,19.2314-20.5771,17.5967s-16.9082-11.9268-15.6436-22.0987Z" transform="translate(-64.1251 -40.896)"/><path d="M1126.5859,2099.1992c2.9053-9.4541,9.1856-13.1113,19.1651-13.7471l9.73-.62c9.2315-.5888,17.6075,1.1319,22.9092,13.57l58.1612,134.3243c1.7519,3.8964,4.708,10.9736,4.9941,15.4638.6357,9.9805-7.5879,18.5205-18.0664,19.1885-8.9824.5723-15.6758-2.2578-19.1787-10.0508l-12.3867-29.2715-65.8672,4.1973-8.82,30.6231c-2.2354,8.1591-7.7676,11.7675-17.4981,12.3876-11.2275.7159-19.4072-5.7773-20.1064-16.7548-.2862-4.4912,1.748-11.8858,2.99-15.9727Zm-4.9677-58.3027a18.25,18.25,0,1,1-17.0528,19.373A18.3519,18.3519,0,0,1,1121.6182,2040.8965Zm31.7031,88.664-.499.0313-19.6065,73.6475,47.9033-3.0528Zm19.1943-91.9082a18.25,18.25,0,1,1-17.0527,19.3741A18.3539,18.3539,0,0,1,1172.5156,2037.6523Z" transform="translate(-64.1251 -40.896)"/><path d="M1344.9238,2133.8613c38.45-.1953,52.7334,19.3321,57.4795,39.7881,7.3457,31.6592-11.04,60.8194-59.2588,72.0068-50.6543,11.753-79.1787-8.3193-83.5859-27.3154-2.2607-9.7412,3.22-18.1982,12.9609-20.458,21.6748-5.0293,23.419,27.93,63.8448,18.55,20.7-4.8027,29.49-18.9043,26.7783-30.5937-1.6387-7.0625-6.8565-14.0645-21.2852-14.31l-47.709-.9932c-38.4326-.8349-49.6416-19.2793-53.9922-38.03-9.041-38.9649,23.6114-61.9395,57.4629-69.794,31.1719-7.2324,72.0127,1.7705,77.4375,25.1494,2.3164,9.9844-4.8515,17.8067-14.5927,20.0674-18.5078,4.294-21.1446-22.5547-58.4043-13.91-18.5088,4.2939-26.76,15.1914-23.9346,27.3671s18.3418,12.6836,31.6826,12.667Z" transform="translate(-64.1251 -40.896)"/><path d="M1436.918,2060.7646l-35.8448,14.7159c-10.87,4.4619-21.9365,2.5195-26.2089-7.8877s2.2373-19.5645,13.1064-24.0264l109.6182-45.0019c10.87-4.462,21.9365-2.52,26.209,7.8876s-2.2374,19.5645-13.1065,24.0264l-35.8457,14.7158L1523.55,2163.832c4.6523,11.3321.3848,22.002-11.1787,26.7491s-22.0967.1533-26.7481-11.1788Z" transform="translate(-64.1251 -40.896)"/><path d="M1532.8,2008.0547c-9.5586-15.5469-4.4775-25.42,7.875-33.0147l81.9922-50.41c10.2217-6.2852,19.5088-7.8858,26.3174,3.1885s1.1885,18.6377-9.0342,24.9228L1572.44,1994.248l20.4257,33.2227,59.2051-36.4c9.1572-5.63,17.97-7.5264,24.6475,3.335s1.0078,17.8691-8.1494,23.499l-59.2051,36.4,22.7832,37.0566,69.2139-42.5547c10.2226-6.2851,19.51-7.8857,26.3183,3.1885s1.1875,18.6387-9.0351,24.9238l-83.6954,51.4571c-12.3525,7.5947-23.457,7.6719-33.0146-7.875Z" transform="translate(-64.1251 -40.896)"/><path d="M1663.95,1925.8486c-12.0508-13.707-8.7119-24.2978,2.1777-33.872l51.2588-45.0635c36.6123-32.1885,64.0391-20.6817,79.3906-3.2207,12.875,14.6455,16.9483,36.6963,5.2745,52.9512l.33.3759c17.753-11.6133,30.6387-2.6357,42.6885,11.07,13.7012,15.584,22.9483,17.7735,28.5606,24.1573,6.2734,7.1347,3.2421,18.4541-3.8926,24.7265-16.8985,14.8565-32.5742-.3232-37.36-5.7675-20.7988-23.6582-33.5361-29.4375-50.4345-14.5811l-30.417,26.7412,34.83,39.6172c8.0879,9.2,7.5274,20.6787-1.8613,28.9326s-20.8428,7.3389-28.9316-1.8613Zm67.7676,14.9864,30.7929-27.0713c11.6407-10.2344,20.6407-23.4727,7.27-38.6817-12.7109-14.457-24.8369-10.4541-38.3554,1.4307l-31.7315,27.8975Z" transform="translate(-64.1251 -40.896)"/><path d="M1784.4805,1804.5957c-9.1612-8.1328-10.0186-19.5928-1.72-28.94s19.78-9.8526,28.9414-1.72l108.8047,96.6036c9.1612,8.1338,10.0186,19.5937,1.72,28.94s-19.78,9.8525-28.9414,1.72Z" transform="translate(-64.1251 -40.896)"/><path d="M1833.2363,1761.7217c-14.9394-10.4834-14.1894-21.5625-5.8613-33.4326l55.2861-78.79c6.8936-9.8232,14.7842-14.9756,25.4258-7.5088s8.4815,16.6407,1.5889,26.4639l-45.5215,64.874,31.9248,22.4014L1936,1698.8369c6.1748-8.8,13.5137-14.0351,23.9512-6.7109s8.01,16.0049,1.8349,24.8047l-39.9209,56.8925,35.6094,24.9873,46.67-66.5117c6.8936-9.8232,14.7842-14.9756,25.4258-7.5088s8.4815,16.6407,1.5889,26.4639l-56.4356,80.4277c-8.3281,11.87-18.4922,16.3438-33.4316,5.86Z" transform="translate(-64.1251 -40.896)"/><path d="M1951.6738,1593.8594l-16.6767,34.9775c-5.0567,10.6065-14.5606,16.6-24.7159,11.7578s-11.4824-15.999-6.4257-26.6045l50.998-106.9638c5.0567-10.6065,14.5606-16.6,24.7158-11.7578s11.4825,15.999,6.4258,26.6044l-16.6767,34.9776,115.7646,55.1943c11.0576,5.2715,15.0615,16.043,9.6816,27.3262s-16.2685,14.9541-27.3261,9.6816Z" transform="translate(-64.1251 -40.896)"/><path d="M320.9619,376.5034c-12.7168-15.06-8.8828-26.4243,3.082-36.5273l41.26-34.8389c36.9277-31.1807,84.3477-43.6572,133.4707,14.519,39.7158,47.0362,36.51,96.39-8.67,134.5386l-40.6406,34.3164c-11.9649,10.1031-23.8106,11.9781-36.5274-3.082ZM440.499,449.4346l28.4688-24.0391c27.0254-22.8193,15.3086-54.2725-4.0264-77.1714-24.7353-29.2944-50.8564-37.63-75.6123-16.7265l-28.2637,23.8647Z" transform="translate(-64.1251 -40.896)"/><path d="M586.0146,273.521c10.4258-6.2378,21.2618-7.0581,28.3321,4.7578s1.2246,20.9775-9.2022,27.2153L566.916,328.3677c-10.4267,6.2383-21.2627,7.0581-28.332-4.7578s-1.2246-20.9771,9.2021-27.2154Z" transform="translate(-64.1251 -40.896)"/><path d="M658.5459,179.6484c27.4736-11.9746,59.9414-13.1665,67.17,3.417,3.668,8.4151,1.211,18.3218-8.1933,22.4214-14.1094,6.1489-21.8321-10.2187-44.6036-.2934-12.623,5.5019-19.28,12.5268-15.9355,20.2,3.668,8.4155,12.6982,6.8354,24.915,4.456l16.6084-3.1152c22.5938-4.2515,50.8731-6.2686,61.877,18.9775,12.8379,29.4541-9.6934,55.4737-36.92,67.34-32.6709,14.24-66.2618,11.5039-74.0293-6.3174-3.4532-7.92-2.126-17.04,8.0215-21.4629,15.5937-6.7964,26.788,14.8325,53.5195,3.1811,12.8711-5.6093,18.5576-14.8623,15.3213-22.2876-3.9912-9.1582-12.56-7.1909-26.833-4.7988l-23.5508,4.08c-23.3047,3.9722-43.416,2.4292-53.9883-21.8271C609.0869,214.1646,633.5469,190.5444,658.5459,179.6484Z" transform="translate(-64.1251 -40.896)"/><path d="M806.165,211.4648c5.2657,20.1123,22.1553,31.32,44.3575,25.5069,28.7324-7.5225,23.8076-26.3291,39.2187-30.3643,9.1426-2.3935,17.7236,3.7329,19.57,10.7852,6.0176,22.9858-28.0068,43.3379-50.9922,49.3559-53.2851,13.9517-82.8359-16.8276-91.5214-50-11.626-44.4038,7.4814-81.2246,52.6689-93.0561,43.8818-11.49,77.0947,13.0278,85.3018,44.3721,3.42,13.06.3906,17.4814-12.4082,20.8325Zm61.1221-39.4482c-6.6719-16.9536-23.083-26.333-40.0615-21.8877-19.0664,4.9927-27.4824,19.7559-26.8057,39.3955Z" transform="translate(-64.1251 -40.896)"/><path d="M921.4893,67.0527c-1.3008-12.8945,5.8125-20.396,17.6318-21.5883s20.2881,4.7373,21.5889,17.6318l8.9961,89.1855,38.6406-52.7436c3.5957-4.7046,8.375-8.4434,14.2851-9.04,8.8643-.894,19.32,5.92,20.3243,15.86.7041,6.9844-1.4971,9.3774-4.6094,13.4907l-25.95,33.2818,46.36,50.6816a21.5106,21.5106,0,0,1,5.3028,12.2192c1.0029,9.94-6.1348,19.8858-16.6114,20.9429-9.67.9756-15.2617-3.3452-18.65-7.3452l-42.3555-48.6431-12.4815,13.47,3.0088,29.8184c1.3008,12.894-5.8125,20.396-17.6328,21.5884s-20.2871-4.7378-21.5879-17.6319Z" transform="translate(-64.1251 -40.896)"/><path d="M1088.2451,118.3628l-6.748-.1411c-11.0684-.2315-15.5664-4.6465-15.3867-13.2847.1816-8.6382,4.86-12.8613,15.9277-12.63l6.749.1411.5029-24.0249c.2705-12.9575,8.24-19.5424,20.1172-19.2939s19.5655,7.1606,19.294,20.1182l-.502,24.0249,11.877.2485c11.6074.2427,17.7431,3.8818,17.5459,13.33s-6.4805,12.8276-18.0879,12.5849l-11.877-.2485-1.6484,78.8233c-.125,5.9389,3.0469,9.246,10.0654,9.3925l5.669.1187c8.6377.1806,13.665,5.147,13.49,13.5151-.2373,11.3379-10.085,17.3433-28.9805,16.9478-28.6142-.5982-40.2441-12.7241-39.7578-35.9395Z" transform="translate(-64.1251 -40.896)"/><path d="M1180.334,112.5542c1.0879-10.4736,6.334-19.1577,21.6416-17.5669s18.6553,11.168,17.5674,21.6416l-11.2471,108.2275c-1.0889,10.4737-6.335,19.1582-21.6426,17.5674s-18.6553-11.1684-17.5664-21.6421Zm27.251-71.5464a20.52,20.52,0,1,1-22.5313,18.2891A20.511,20.511,0,0,1,1207.585,41.0078Z" transform="translate(-64.1251 -40.896)"/><path d="M1326.7305,115.45c46.3545,10.4521,63.9863,47.6406,54.8408,88.2017-8.6709,38.4536-35.0313,68.2133-87.4443,56.3955s-63.4522-50.0113-54.7823-88.4649C1248.49,131.0215,1280.375,104.998,1326.7305,115.45Zm-26.19,116.1519c22.9151,5.1665,37.292-13.18,42.5772-36.6211,5.6416-25.021-.4131-46.0376-22.8008-51.0855s-36.876,11.3364-42.5176,36.3574C1272.5137,203.6938,1277.626,226.4351,1300.54,231.6021Z" transform="translate(-64.1251 -40.896)"/><path d="M1426.9043,161.7676c4.5039-10.9932,12.4687-16.1919,23.9619-11.4834s13.5215,14.001,9.0176,24.9941l-1.9443,4.7471.5.2051c15.7705-9.2954,32.9023-13.3648,53.64-4.8692,21.9863,9.0074,41.4678,29.8267,26.3193,66.8042l-29.0693,70.9566c-3.9912,9.7441-11.4687,16.6015-25.7109,10.7671s-14.7588-15.9668-10.7666-25.711l26.1005-63.7109c6.0391-14.7412,3.0928-28.2031-12.6474-34.6514a30.6117,30.6117,0,0,0-39.5039,17.3711L1422.1328,277.4c-3.9922,9.7441-11.47,16.6011-25.7109,10.7671s-14.7588-15.9668-10.7666-25.7109Z" transform="translate(-64.1251 -40.896)"/><path d="M1582.42,300.9663c-10.9472,17.6743-7.4326,37.6377,12.0781,49.7232,25.2491,15.64,35.4864-.8868,49.0284,7.5019,8.0341,4.9761,9.5078,15.417,5.6679,21.6143-12.5117,20.2-50.706,9.563-70.9052-2.9488-46.8252-29.0053-44.8789-71.6294-26.8223-100.7807,24.1709-39.0215,64.0225-50.544,103.7324-25.9468,38.5625,23.8867,43.6787,64.8511,26.6162,92.3955-7.1084,11.4771-12.4,12.3281-23.6474,5.3613Zm70.7051,17.1172c7.69-16.5161,3.1807-34.8726-11.74-44.1147-16.7559-10.379-33.2539-6.3057-47.0215,7.7163Z" transform="translate(-64.1251 -40.896)"/><path d="M1732.834,325.3438c7.8281-8.9366,17.05-11.2676,26.3926-3.0835s8.2441,17.6323.416,26.5683l-3.3809,3.8589.4063.356c17.9345-3.6724,35.46-1.96,52.3164,12.8066,17.872,15.6567,29.541,41.6728,3.209,71.731L1761.665,495.26c-6.9384,7.9209-16.2373,11.98-27.8134,1.8379s-8.7774-19.8931-1.8379-27.814l45.3681-51.7891c10.4971-11.9824,12.08-25.6718-.7148-36.8808a30.6125,30.6125,0,0,0-43.0039,3.6069l-42.8779,48.9458c-6.9385,7.9209-16.2373,11.98-27.8145,1.8379s-8.7764-19.8931-1.8379-27.814Z" transform="translate(-64.1251 -40.896)"/></g><g id="circle"><path d="M1090.0771,380.45A776.7179,776.7179,0,0,1,1526.49,513.7345a783.0541,783.0541,0,0,1,282.8829,343.4983A779.5189,779.5189,0,0,1,1737.41,1597.48a783.0541,783.0541,0,0,1-343.4986,282.8832,779.5189,779.5189,0,0,1-740.247-71.9625A783.0564,783.0564,0,0,1,370.7817,1464.902a779.5189,779.5189,0,0,1,71.9624-740.2471A783.0556,783.0556,0,0,1,786.2427,441.772,775.6793,775.6793,0,0,1,1090.0771,380.45m0-55c-461.499,0-835.6176,374.1185-835.6176,835.6174s374.1186,835.6178,835.6176,835.6178,835.6177-374.1189,835.6177-835.6178S1551.5762,325.45,1090.0771,325.45Z" transform="translate(-64.1251 -40.896)"/></g><g id="arcs"><path id="arc_base" data-name="arc base" class="cls-4" d="M129.6623,1427.9061a997.4968,997.4968,0,0,1-36.1272-266.8387c0-235.31,81.5571-451.5717,217.9461-622.0594" transform="translate(-64.1251 -40.896)"/><path id="arc_base-2" data-name="arc base" class="cls-4" d="M1868.6735,539.0085c136.3888,170.4876,217.9457,386.7489,217.9457,622.0589a997.4968,997.4968,0,0,1-36.1272,266.8387" transform="translate(-64.1251 -40.896)"/></g></g></g></g></svg>