<svg xmlns="http://www.w3.org/2000/svg" viewBox="0 0 676.1083 1313.8233"><defs><style>.cls-1,.cls-2,.cls-3{fill:none;stroke:#000;stroke-linecap:round;stroke-miterlimit:10;}.cls-1{stroke-width:43px;}.cls-2{stroke-width:30px;}.cls-3{stroke-width:65px;}</style></defs><g id="Layer_2" data-name="Layer 2"><g id="inner"><g id="silhouette"><g id="switch"><line class="cls-1" x1="601.5628" y1="36.3298" x2="601.5628" y2="641.0041"/><circle cx="601.5628" cy="695.9814" r="74.5455"/></g><g id="light"><path id="bulb" d="M241.922,1309.706C128.9257,1332.85,19.3331,1255.9307,2.3156,1141.5731c-8.1684-55.1367,5.4456-104.8278,38.1193-149.754A388.1279,388.1279,0,0,0,84,912.8578c4.7649-10.8911,6.1263-23.1437,8.8491-34.7156,3.4035-13.614,7.4877-26.5473,17.0175-38.1194,14.2948-17.0174,31.9929-24.5051,53.0947-25.1858,14.2944.681,29.9506.681,45.6067.681h44.2455c26.5472,0,49.6911,19.74,53.7752,45.6068a260.0108,260.0108,0,0,0,29.27,86.4488,487.91,487.91,0,0,0,31.3121,51.0525C448.8547,1117.0678,382.8269,1281.1165,241.922,1309.706Zm-45.46-34.0659a322.42,322.42,0,0,1-153.26-186.5382,160.4336,160.4336,0,0,0,153.26,186.5382Z"/><g id="screw"><line id="lower" class="cls-2" x1="143.1693" y1="755.4092" x2="259.6712" y2="755.4092"/><line id="middle" class="cls-2" x1="143.1348" y1="695.9814" x2="259.6367" y2="695.9814"/><line id="upper" class="cls-2" x1="143.1348" y1="636.5536" x2="259.6367" y2="636.5536"/></g><line id="wire" class="cls-3" x1="201.3858" y1="32.5" x2="201.3858" y2="545.0267"/></g></g></g></g></svg>