<svg xmlns="http://www.w3.org/2000/svg" viewBox="0 0 676.1083 1315.6606"><defs><style>.cls-1{fill:#96c;}.cls-2,.cls-5,.cls-6{fill:none;stroke-linecap:round;stroke-miterlimit:10;}.cls-2{stroke:#96c;stroke-width:43px;}.cls-3{fill:#fff;}.cls-4{fill:#f280a1;}.cls-5{stroke:#f180a1;stroke-width:30px;}.cls-6{stroke:#f280a1;stroke-width:65px;}</style></defs><g id="Layer_2" data-name="Layer 2"><g id="inner"><g id="dark"><g id="switch"><circle class="cls-1" cx="601.5628" cy="697.8187" r="74.5455"/><line class="cls-2" x1="601.5628" y1="41.338" x2="601.5628" y2="642.8414"/></g><g id="light"><g id="bulb"><path id="base" class="cls-3" d="M367.1706,1000.4634a487.91,487.91,0,0,1-31.3121-51.0525,260.0108,260.0108,0,0,1-29.27-86.4488c-4.0841-25.8666-27.228-45.6068-53.7752-45.6068H208.5676c-15.6561,0-31.3123,0-45.6067-.681-21.1018.6807-38.8,8.1684-53.0947,25.1858-9.53,11.5721-13.614,24.5054-17.0175,38.1194C90.1259,891.5514,88.7645,903.804,84,914.6951a388.1279,388.1279,0,0,1-43.5647,78.9613C7.7612,1038.5826-5.8528,1088.2736,2.3156,1143.41c17.0175,114.3576,126.61,191.2766,239.6064,168.1329C382.8269,1282.9538,448.8547,1118.9051,367.1706,1000.4634Z"/><path id="reflection" class="cls-4" d="M41.0507,1117.1914a161.4277,161.4277,0,0,1,2.151-26.2522,322.42,322.42,0,0,0,153.26,186.5382A160.3664,160.3664,0,0,1,41.0507,1117.1914Z"/></g><g id="screw"><line id="lower" class="cls-5" x1="143.1693" y1="757.2465" x2="259.6712" y2="757.2465"/><line id="middle" class="cls-5" x1="143.1348" y1="697.8187" x2="259.6367" y2="697.8187"/><line id="upper" class="cls-5" x1="143.1348" y1="638.3909" x2="259.6367" y2="638.3909"/></g><line id="wire" class="cls-6" x1="201.3858" y1="32.5" x2="201.3858" y2="546.864"/></g></g></g></g></svg>