<svg xmlns="http://www.w3.org/2000/svg" viewBox="0 0 2049.9942 2234.4223"><defs><style>.cls-1{fill:#96c;}.cls-2,.cls-5,.cls-6,.cls-7{fill:none;stroke-linecap:round;stroke-miterlimit:10;}.cls-2{stroke:#96c;stroke-width:43px;}.cls-3{fill:#f180a1;}.cls-4{fill:#fff;}.cls-5{stroke:#f180a1;stroke-width:30px;}.cls-6,.cls-7{stroke:#f280a1;}.cls-6{stroke-width:65px;}.cls-7{stroke-width:55px;}</style></defs><g id="Layer_2" data-name="Layer 2"><g id="inner"><g id="light"><g id="switch"><circle id="ball" class="cls-1" cx="1289.4608" cy="1010.7166" r="74.5455"/><line id="string" class="cls-2" x1="1289.4608" y1="354.2359" x2="1289.4608" y2="955.7393"/></g><g id="light-2" data-name="light"><g id="bulb"><path id="base" class="cls-3" d="M1119.1936,1354.2573a487.91,487.91,0,0,1-31.3121-51.0525,260.01,260.01,0,0,1-29.27-86.4488c-4.0841-25.8666-27.228-45.6068-53.7752-45.6068H960.5906c-15.6562,0-31.3123,0-45.6067-.6809-21.1018.6806-38.8,8.1683-53.0947,25.1858-9.53,11.572-13.614,24.5053-17.0175,38.1193-2.7228,11.5719-4.0842,23.8245-8.8491,34.7156a388.1327,388.1327,0,0,1-43.5647,78.9613c-32.6737,44.9262-46.2877,94.6173-38.1193,149.754,17.0175,114.3577,126.61,191.2767,239.6063,168.1329C1134.85,1636.7477,1200.8777,1472.699,1119.1936,1354.2573Z" transform="translate(-64.125 -40.896)"/><path id="reflection" class="cls-4" d="M793.0737,1470.9853a161.4264,161.4264,0,0,1,2.151-26.2521,322.42,322.42,0,0,0,153.26,186.5382A160.3665,160.3665,0,0,1,793.0737,1470.9853Z" transform="translate(-64.125 -40.896)"/></g><g id="screw"><line id="lower" class="cls-5" x1="831.0673" y1="1070.1444" x2="947.5692" y2="1070.1444"/><line id="middle" class="cls-5" x1="831.0328" y1="1010.7166" x2="947.5347" y2="1010.7166"/><line id="upper" class="cls-5" x1="831.0328" y1="951.2888" x2="947.5347" y2="951.2888"/></g><line id="wire" class="cls-6" x1="889.2838" y1="345.3979" x2="889.2838" y2="859.7619"/></g></g></g><g id="outer"><g id="light-3" data-name="light"><g id="text"><path d="M207.332,1509.7578c11.0454-5.2959,21.9434-1.6494,27.3477,9.6211s1.4248,22.0518-9.6206,27.3477L171.41,1572.4531l91.9067,27.459c6.562,2.1211,12.0064,4.2236,15.1411,10.7608,4.2158,8.7919,3.0215,20.1767-6.4463,24.7167-5.6352,2.7022-10.8725,1.6094-15.542-.0332l-58.0586-18.7373-46.791,77.61c-3.5634,5.8672-6.5674,11.7441-11.3012,14.0137-13.7505,6.5937-22.6724-1.6045-26.8882-10.3955-3.5669-7.4385-3.709-12.3614,1.8022-21.1036l45.3926-74.167-30.0161-10.56-36.7432,17.6191c-11.0454,5.2969-21.9433,1.65-27.3476-9.62s-1.4248-22.0518,9.6206-27.3477Z" transform="translate(-64.125 -40.896)"/><path d="M311.21,1685.4092c9.565-2.5166,15.9834.8916,21.7862,9.0361l5.6572,7.94c5.3677,7.5342,8.3223,15.5586.5493,26.6221l-83.4682,120.2461c-2.3872,3.543-6.8413,9.7861-10.5064,12.3975-8.1445,5.8027-19.7378,3.3183-25.8306-5.2334-5.2221-7.33-6.3466-14.5108-1.5717-21.5957l18.3408-25.96L197.87,1755.1084l-30.6714,8.6523c-8.1113,2.4024-14.0947-.3945-19.7524-8.3349-6.5278-9.1631-5.3237-19.5371,3.6353-25.92,3.665-2.6114,11.02-4.7813,15.1484-5.8809ZM299.51,1724.1348l-.2906-.4073-72.9155,22.1739,27.8525,39.0937Zm58.6211-73.6885a18.25,18.25,0,1,1-25.4537-4.2744A18.3521,18.3521,0,0,1,358.1309,1650.4463Zm29.5932,41.5371a18.25,18.25,0,1,1-25.4536-4.2744A18.352,18.352,0,0,1,387.7241,1691.9834Z" transform="translate(-64.125 -40.896)"/><path d="M370.8369,1779.0469c8.79-8.5313,20.2822-8.5371,28.9883.4326s8.3574,20.457-.4331,28.9883l-92.0308,89.3232,47.708,49.1543c8.1836,8.4317,10.4947,19.4277,2.4219,27.2637s-18.9951,5.1963-27.1787-3.2354L270.7642,1909.62c-10.0987-10.4053-12.5894-21.2265.5068-33.9375Z" transform="translate(-64.125 -40.896)"/><path d="M467.2808,1876.1387c7.478-9.7032,18.851-11.3535,28.7514-3.7227s11.2007,19.05,3.7227,28.752l-78.2935,101.581,54.2559,41.8174c9.3066,7.1729,13.168,17.7246,6.3,26.6357s-18.0552,7.8633-27.3618.6905l-67.7207-52.1963c-11.4844-8.8516-15.4991-19.2051-4.358-33.66Z" transform="translate(-64.125 -40.896)"/><path d="M623.416,1975.8838c7.4756-6.4746,14.7393-6.2451,23.5376-1.4922l8.5781,4.6338c8.1382,4.3965,14.3277,10.2978,12.2266,23.6543L645.84,2147.4014c-.5815,4.2324-1.8276,11.7988-3.9663,15.7578-4.7529,8.7988-16.2534,11.6787-25.4917,6.6875-7.9184-4.2774-12.0927-10.2256-10.93-18.6905l5.02-31.3847-58.0684-31.3692-23.7163,21.2862c-6.2217,5.7314-12.8252,5.8574-21.4038,1.2236-9.898-5.3467-13.39-15.1885-8.1616-24.8672,2.1391-3.959,7.7841-9.1494,11.0053-11.956Zm6.5664,39.918-.44-.2383-55.6743,52.042L616.1,2090.4189Z" transform="translate(-64.125 -40.896)"/><path d="M715.8042,2041.1484c5.8257-17.2949,16.6641-19.7119,30.4058-15.083l64.68,21.7862c46.2,15.5615,49.9815,45.0625,42.56,67.0966-6.2246,18.48-23.268,33.0518-43.1846,31.0918l-.16.4737c18.9438,9.5468,17.63,25.1963,11.8042,42.4912-6.6236,19.665-3.8853,28.7646-6.5987,36.82-3.0327,9.0029-14.3476,12.0508-23.3505,9.0186-21.3233-7.1827-16.0386-28.3536-13.7242-35.2247,10.0552-29.8515,8.6758-43.7705-12.6474-50.9531l-38.3814-12.9277-16.8383,49.99c-3.9107,11.6094-14.1255,16.874-25.9717,12.8838s-16.7945-14.3623-12.8838-25.9707Zm20.979,66.1592,38.8555,13.0879c14.6894,4.9473,30.6552,6.1045,37.12-13.0859,6.145-18.2432-3.3945-26.7325-20.4531-32.4785l-40.04-13.4864Z" transform="translate(-64.125 -40.896)"/><path d="M880.2012,2088.6279c2.0351-16.374,13.6621-18.708,24.5781-17.3515l11.9082,1.48c12.6528,1.5733,17.99,7.2744,20.5117,21.4444l21.23,119.0283.4966.0615,49.228-110.2705c5.9136-13.1211,12.4849-17.3428,25.1372-15.7695l11.4126,1.4179c10.916,1.3575,21.6177,6.4668,19.582,22.8409l-18.04,145.1338c-1.2646,10.1718-7.4292,19.23-20.5776,17.5966s-16.9082-11.9267-15.6441-22.0986l13.7539-110.6494-.4961-.0615-52.6987,113.87c-3.7778,8.0957-10.4116,10.7978-18.8467,9.749s-14.206-5.292-15.8862-14.0664l-23.2178-123.3066-.4961-.0616-13.7539,110.6485c-1.2641,10.1718-7.4287,19.2314-20.5776,17.5967s-16.9082-11.9268-15.6441-22.0987Z" transform="translate(-64.125 -40.896)"/><path d="M1126.5859,2099.1992c2.9053-9.4541,9.1856-13.1113,19.1651-13.7471l9.73-.62c9.2315-.5888,17.6075,1.1319,22.9092,13.57l58.1612,134.3243c1.7519,3.8964,4.708,10.9736,4.9941,15.4638.6357,9.9805-7.5879,18.5205-18.0664,19.1885-8.9824.5723-15.6758-2.2578-19.1787-10.0508l-12.3867-29.2715-65.8672,4.1973-8.82,30.6231c-2.2354,8.1591-7.7676,11.7675-17.4981,12.3876-11.227.7159-19.4067-5.7773-20.1059-16.7548-.2867-4.4912,1.7475-11.8858,2.99-15.9727Zm-4.9677-58.3027a18.25,18.25,0,1,1-17.0528,19.373A18.3519,18.3519,0,0,1,1121.6182,2040.8965Zm31.7031,88.664-.499.0313-19.6065,73.6475,47.9033-3.0528Zm19.1943-91.9082a18.25,18.25,0,1,1-17.0527,19.3741A18.3539,18.3539,0,0,1,1172.5156,2037.6523Z" transform="translate(-64.125 -40.896)"/><path d="M1344.9238,2133.8613c38.45-.1953,52.7334,19.3321,57.4795,39.7881,7.3457,31.6592-11.04,60.8194-59.2588,72.0068-50.6543,11.753-79.1787-8.3193-83.5859-27.3154-2.2607-9.7412,3.22-18.1982,12.9609-20.458,21.6748-5.0293,23.419,27.93,63.8448,18.55,20.7-4.8027,29.49-18.9043,26.7783-30.5937-1.6387-7.0625-6.8565-14.0645-21.2852-14.31l-47.709-.9932c-38.4326-.8349-49.6416-19.2793-53.9922-38.03-9.041-38.9649,23.6114-61.9395,57.4629-69.794,31.1719-7.2324,72.0127,1.7705,77.4375,25.1494,2.3164,9.9844-4.8515,17.8067-14.5927,20.0674-18.5078,4.294-21.1446-22.5547-58.4043-13.91-18.5088,4.2939-26.76,15.1914-23.9346,27.3671s18.3418,12.6836,31.6826,12.667Z" transform="translate(-64.125 -40.896)"/><path d="M1436.918,2060.7646l-35.8448,14.7159c-10.87,4.4619-21.9365,2.5195-26.2089-7.8877s2.2373-19.5645,13.1064-24.0264l109.6182-45.0019c10.87-4.462,21.9365-2.52,26.209,7.8876s-2.2374,19.5645-13.1065,24.0264l-35.8457,14.7158L1523.55,2163.832c4.6523,11.3321.3848,22.002-11.1787,26.7491s-22.0967.1533-26.7481-11.1788Z" transform="translate(-64.125 -40.896)"/><path d="M1532.8,2008.0547c-9.5586-15.5469-4.4775-25.42,7.875-33.0147l81.9922-50.41c10.2217-6.2852,19.5088-7.8858,26.3174,3.1885s1.1885,18.6377-9.0342,24.9228L1572.44,1994.248l20.4257,33.2227,59.2051-36.4c9.1572-5.63,17.97-7.5264,24.6475,3.335s1.0078,17.8691-8.1494,23.499l-59.2051,36.4,22.7832,37.0566,69.2139-42.5547c10.2226-6.2851,19.51-7.8857,26.3183,3.1885s1.1875,18.6387-9.0351,24.9238l-83.6954,51.4571c-12.3525,7.5947-23.457,7.6719-33.0146-7.875Z" transform="translate(-64.125 -40.896)"/><path d="M1663.95,1925.8486c-12.0508-13.707-8.7119-24.2978,2.1777-33.872l51.2588-45.0635c36.6123-32.1885,64.0391-20.6817,79.3906-3.2207,12.875,14.6455,16.9483,36.6963,5.2745,52.9512l.33.3759c17.753-11.6133,30.6387-2.6357,42.6885,11.07,13.7012,15.584,22.9483,17.7735,28.5606,24.1573,6.2734,7.1347,3.2421,18.4541-3.8926,24.7265-16.8985,14.8565-32.5742-.3232-37.36-5.7675-20.7988-23.6582-33.5361-29.4375-50.4345-14.5811l-30.417,26.7412,34.83,39.6172c8.0879,9.2,7.5274,20.6787-1.8613,28.9326s-20.8428,7.3389-28.9316-1.8613Zm67.7676,14.9864,30.7929-27.0713c11.6407-10.2344,20.6407-23.4727,7.27-38.6817-12.7109-14.457-24.8369-10.4541-38.3554,1.4307l-31.7315,27.8975Z" transform="translate(-64.125 -40.896)"/><path d="M1784.4805,1804.5957c-9.1612-8.1328-10.0186-19.5928-1.72-28.94s19.78-9.8526,28.9414-1.72l108.8047,96.6036c9.1612,8.1338,10.0186,19.5937,1.72,28.94s-19.78,9.8525-28.9414,1.72Z" transform="translate(-64.125 -40.896)"/><path d="M1833.2363,1761.7217c-14.9394-10.4834-14.1894-21.5625-5.8613-33.4326l55.2861-78.79c6.8936-9.8232,14.7842-14.9756,25.4258-7.5088s8.4815,16.6407,1.5889,26.4639l-45.5215,64.874,31.9248,22.4014L1936,1698.8369c6.1748-8.8,13.5137-14.0351,23.9512-6.7109s8.01,16.0049,1.8349,24.8047l-39.9209,56.8925,35.6094,24.9873,46.67-66.5117c6.8936-9.8232,14.7842-14.9756,25.4258-7.5088s8.4815,16.6407,1.5889,26.4639l-56.4356,80.4277c-8.3281,11.87-18.4922,16.3438-33.4316,5.86Z" transform="translate(-64.125 -40.896)"/><path d="M1951.6738,1593.8594l-16.6767,34.9775c-5.0567,10.6065-14.5606,16.6-24.7159,11.7578s-11.4824-15.999-6.4257-26.6045l50.998-106.9638c5.0567-10.6065,14.5606-16.6,24.7158-11.7578s11.4825,15.999,6.4258,26.6044l-16.6767,34.9776,115.7646,55.1943c11.0576,5.2715,15.0615,16.043,9.6816,27.3262s-16.2685,14.9541-27.3261,9.6816Z" transform="translate(-64.125 -40.896)"/><path d="M320.9619,376.5034c-12.7163-15.06-8.8833-26.4243,3.082-36.5273l41.26-34.8389c36.9277-31.1807,84.3477-43.6572,133.4707,14.519,39.7158,47.0362,36.51,96.39-8.67,134.5386l-40.6406,34.3164c-11.9654,10.1031-23.8111,11.9781-36.5274-3.082Zm119.5366,72.9312,28.4693-24.0391c27.0254-22.8193,15.3091-54.2725-4.0264-77.1714-24.7358-29.2944-50.8564-37.63-75.6123-16.7265l-28.2632,23.8647Z" transform="translate(-64.125 -40.896)"/><path d="M586.0142,273.521c10.4262-6.2378,21.2622-7.0581,28.332,4.7578s1.2246,20.9775-9.2017,27.2153L566.916,328.3677c-10.4263,6.2383-21.2622,7.0581-28.332-4.7578s-1.2246-20.9771,9.2016-27.2154Z" transform="translate(-64.125 -40.896)"/><path d="M658.5459,179.6484c27.4736-11.9746,59.9419-13.1665,67.17,3.417,3.668,8.4151,1.2114,18.3218-8.1938,22.4214-14.1084,6.1489-21.8316-10.2187-44.6026-.2934-12.623,5.5019-19.2807,12.5268-15.9365,20.2,3.668,8.4155,12.6987,6.8354,24.9155,4.456l16.6089-3.1152c22.5933-4.2515,50.8726-6.2686,61.8765,18.9775,12.8379,29.4541-9.6929,55.4737-36.9194,67.34-32.6714,14.24-66.2627,11.5039-74.03-6.3174-3.4522-7.92-2.1255-17.04,8.0224-21.4629,15.5933-6.7964,26.7876,14.8325,53.5191,3.1811,12.8706-5.6093,18.5576-14.8623,15.3213-22.2876-3.9917-9.1582-12.56-7.1909-26.8325-4.7988l-23.5518,4.08c-23.3037,3.9722-43.4155,2.4292-53.9878-21.8271C609.0869,214.1646,633.5469,190.5444,658.5459,179.6484Z" transform="translate(-64.125 -40.896)"/><path d="M806.1646,211.4648c5.2661,20.1123,22.1557,31.32,44.3579,25.5069,28.7319-7.5225,23.8076-26.3291,39.2187-30.3643,9.1421-2.3935,17.7236,3.7329,19.57,10.7852,6.0181,22.9858-28.0068,43.3379-50.9927,49.3559-53.2846,13.9517-82.8349-16.8276-91.52-50-11.6264-44.4038,7.481-81.2246,52.6685-93.0561,43.8818-11.49,77.0952,13.0278,85.3018,44.3721,3.42,13.06.3906,17.4814-12.4082,20.8325Zm61.1225-39.4482c-6.6719-16.9536-23.083-26.333-40.061-21.8877-19.0674,4.9927-27.4829,19.7559-26.8062,39.3955Z" transform="translate(-64.125 -40.896)"/><path d="M921.4893,67.0527c-1.3008-12.8945,5.812-20.396,17.6318-21.5883s20.2876,4.7373,21.5884,17.6318l8.997,89.1855,38.64-52.7436c3.5962-4.7046,8.375-8.4434,14.2846-9.04,8.8648-.894,19.3213,5.92,20.3243,15.86.7046,6.9844-1.4966,9.3774-4.6094,13.4907l-25.95,33.2818,46.36,50.6816a21.5133,21.5133,0,0,1,5.3028,12.2192c1.0029,9.94-6.1348,19.8858-16.6114,20.9429-9.67.9756-15.2622-3.3452-18.6508-7.3452l-42.3555-48.6431-12.481,13.47,3.0083,29.8184c1.3008,12.894-5.812,20.396-17.6318,21.5884s-20.2876-4.7378-21.5884-17.6319Z" transform="translate(-64.125 -40.896)"/><path d="M1088.2451,118.3628l-6.7485-.1411c-11.0679-.2315-15.5664-4.6465-15.3858-13.2847s4.86-12.8613,15.9278-12.63l6.7485.1411.5025-24.0249c.2709-12.9575,8.2407-19.5424,20.1176-19.2939s19.5655,7.1606,19.294,20.1182l-.502,24.0249,11.877.2485c11.6074.2427,17.7431,3.8818,17.5459,13.33s-6.4805,12.8276-18.0879,12.5849l-11.877-.2485-1.6484,78.8233c-.125,5.9389,3.0469,9.246,10.0654,9.3925l5.669.1187c8.6377.1806,13.665,5.147,13.49,13.5151-.2373,11.3379-10.085,17.3433-28.9805,16.9478-28.6142-.5982-40.2436-12.7241-39.7578-35.9395Z" transform="translate(-64.125 -40.896)"/><path d="M1180.334,112.5542c1.0879-10.4736,6.334-19.1577,21.6416-17.5669s18.6553,11.168,17.5674,21.6416l-11.2471,108.2275c-1.0889,10.4737-6.335,19.1582-21.6426,17.5674s-18.6553-11.1684-17.5664-21.6421Zm27.251-71.5464a20.52,20.52,0,1,1-22.5313,18.2891A20.511,20.511,0,0,1,1207.585,41.0078Z" transform="translate(-64.125 -40.896)"/><path d="M1326.7305,115.45c46.3545,10.4521,63.9863,47.6406,54.8408,88.2017-8.6709,38.4536-35.0313,68.2133-87.4443,56.3955s-63.4522-50.0113-54.7823-88.4649C1248.49,131.0215,1280.375,104.998,1326.7305,115.45Zm-26.19,116.1519c22.9151,5.1665,37.292-13.18,42.5772-36.6211,5.6416-25.021-.4131-46.0376-22.8008-51.0855s-36.876,11.3364-42.5176,36.3574C1272.5137,203.6938,1277.626,226.4351,1300.54,231.6021Z" transform="translate(-64.125 -40.896)"/><path d="M1426.9043,161.7676c4.5039-10.9932,12.4687-16.1919,23.9619-11.4834s13.5215,14.001,9.0176,24.9941l-1.9443,4.7471.5.2051c15.7705-9.2954,32.9023-13.3648,53.64-4.8692,21.9863,9.0074,41.4678,29.8267,26.3193,66.8042l-29.0693,70.9566c-3.9912,9.7441-11.4687,16.6015-25.7109,10.7671s-14.7588-15.9668-10.7666-25.711l26.1005-63.7109c6.0391-14.7412,3.0928-28.2031-12.6474-34.6514a30.6117,30.6117,0,0,0-39.5039,17.3711L1422.1328,277.4c-3.9922,9.7441-11.47,16.6011-25.7109,10.7671s-14.7588-15.9668-10.7666-25.7109Z" transform="translate(-64.125 -40.896)"/><path d="M1582.42,300.9663c-10.9472,17.6743-7.4326,37.6377,12.0781,49.7232,25.2491,15.64,35.4864-.8868,49.0284,7.5019,8.0341,4.9761,9.5078,15.417,5.6679,21.6143-12.5117,20.2-50.706,9.563-70.9052-2.9488-46.8252-29.0053-44.8789-71.6294-26.8223-100.7807,24.1709-39.0215,64.0225-50.544,103.7324-25.9468,38.5625,23.8867,43.6787,64.8511,26.6162,92.3955-7.1084,11.4771-12.4,12.3281-23.6474,5.3613Zm70.7051,17.1172c7.69-16.5161,3.1807-34.8726-11.74-44.1147-16.7559-10.379-33.2539-6.3057-47.0215,7.7163Z" transform="translate(-64.125 -40.896)"/><path d="M1732.834,325.3438c7.8281-8.9366,17.05-11.2676,26.3926-3.0835s8.2441,17.6323.416,26.5683l-3.3809,3.8589.4063.356c17.9345-3.6724,35.46-1.96,52.3164,12.8066,17.872,15.6567,29.541,41.6728,3.209,71.731L1761.665,495.26c-6.9384,7.9209-16.2373,11.98-27.8134,1.8379s-8.7774-19.8931-1.8379-27.814l45.3681-51.7891c10.4971-11.9824,12.08-25.6718-.7148-36.8808a30.6125,30.6125,0,0,0-43.0039,3.6069l-42.8779,48.9458c-6.9385,7.9209-16.2373,11.98-27.8145,1.8379s-8.7764-19.8931-1.8379-27.814Z" transform="translate(-64.125 -40.896)"/></g><g id="circle"><path d="M1090.0771,380.45A776.7159,776.7159,0,0,1,1526.49,513.7345a783.0579,783.0579,0,0,1,282.883,343.4983A779.5173,779.5173,0,0,1,1737.41,1597.48a783.0547,783.0547,0,0,1-343.4983,282.8832,779.5176,779.5176,0,0,1-740.247-71.9625A783.0587,783.0587,0,0,1,370.7814,1464.902,779.5173,779.5173,0,0,1,442.744,724.6549,783.0593,783.0593,0,0,1,786.2425,441.772,775.68,775.68,0,0,1,1090.0771,380.45m0-55c-461.4989,0-835.6178,374.1185-835.6178,835.6174s374.1189,835.6178,835.6178,835.6178,835.6175-374.1189,835.6175-835.6178S1551.576,325.45,1090.0771,325.45Z" transform="translate(-64.125 -40.896)"/></g><g id="arcs"><path id="arc_base" data-name="arc base" class="cls-7" d="M129.6623,1427.9061a997.4968,997.4968,0,0,1-36.1272-266.8387c0-235.31,81.5571-451.5717,217.9461-622.0594" transform="translate(-64.125 -40.896)"/><path id="arc_base-2" data-name="arc base" class="cls-7" d="M1868.6735,539.0085c136.3888,170.4876,217.9457,386.7489,217.9457,622.0589a997.4968,997.4968,0,0,1-36.1272,266.8387" transform="translate(-64.125 -40.896)"/></g></g></g></g></svg>