<?xml version="1.0" encoding="UTF-8"?>
<svg id="Lager_2" data-name="Lager 2" xmlns="http://www.w3.org/2000/svg" viewBox="0 0 1127.97 936.08">
  <defs>
    <style>
      .cls-1 {
        fill: #fff;
      }

      .cls-1, .cls-2, .cls-3 {
        stroke-width: 0px;
      }

      .cls-2 {
        fill: #96c;
      }

      .cls-3 {
        fill: #f280a1;
      }
    </style>
  </defs>
  <g id="outer">
    <g id="dark">
      <g id="symbol">
        <path class="cls-2" d="m96.33,738.9c0-11.88-5.71-22.46-14.61-29.29v-267.77l-47.53-28.23v296c-8.89,6.84-14.61,17.41-14.61,29.29,0,6.36,1.64,12.35,4.53,17.6-13.21,21.37-28.6,62.21-22.89,74.42,7.57,16.18,56.73,14.87,56.73,14.87,0,0,49.15,1.31,56.73-14.87,5.71-12.21-9.68-53.04-22.89-74.42,2.89-5.24,4.53-11.23,4.53-17.6Z"/>
        <path class="cls-3" d="m605.48,731.4c-10.64,6.74-24.69,6.93-35.54.48l-381.89-226.8v250.44c0,6.86,2.97,13.37,8.14,17.88,57.96,50.57,349.7,339.44,776.41-.23,5.14-4.09,7.53-10.77,7.53-17.34v-261.77l-374.64,237.33Z"/>
        <path class="cls-3" d="m1120.54,334.18L597.46,2.82c-5.78-3.66-13.43-3.77-19.33-.26L20.18,333.92c-10.49,6.23-10.49,20.24,0,26.47l549.76,326.5c10.85,6.45,24.9,6.25,35.54-.48l515.05-326.28c9.92-6.28,9.92-19.66,0-25.94Z"/>
        <path class="cls-1" d="m584.04,91.33l305.84,194c1.6,1.01,3.24,6.24-4.88,4.1l-337.1-168.08c-4.59-2.27-9.59-9.5-.27-14.62l26.11-15.53c3.19-1.89,7.16-1.84,10.3.13Z"/>
      </g>
    </g>
  </g>
</svg>