<svg xmlns="http://www.w3.org/2000/svg" viewBox="0 0 2048.0841 2230.9507"><defs><style>.cls-1{fill:#f281a2;}.cls-2{fill:#96c;}.cls-3{fill:#fff;}.cls-4{fill:none;stroke:#f280a1;stroke-linecap:round;stroke-miterlimit:10;stroke-width:55px;}</style></defs><g id="Layer_2" data-name="Layer 2"><g id="inner"><g id="dark"><g id="book"><path id="frame" class="cls-1" d="M419.7093,1553.695c3.1419-3.6656,7.8547-4.4511,11.7821-6.022,79.5949-29.5862,159.7135-57.0779,240.3557-83.26,26.1825-8.3784,53.1505-13.353,80.1186-17.5423s54.1979-7.0693,81.69-8.9022a871.9213,871.9213,0,0,1,97.9227-2.0945c46.6049,1.8328,91.9007,10.473,136.4109,24.0879,12.8295,3.9274,25.1352,8.9022,36.3938,16.7569,2.6183,1.8328,4.9747,3.142,7.0693-.7854,12.0439-23.0406,31.9427-39.5356,50.2705-57.0779,13.0913-12.3058,25.6589-25.1352,40.0593-36.1319a468.8114,468.8114,0,0,1,65.7181-42.4157,1015.8393,1015.8393,0,0,1,165.4736-70.9546c28.2771-9.1639,57.34-14.9241,86.6641-20.1606q72.2639-12.96,144.5276-25.1353c25.9208-4.451,52.1033-7.8547,78.2859-11.7821a19.8183,19.8183,0,0,1,3.9274-.2618c3.6656.2618,5.4982,1.8328,3.9273,5.76-.5236,1.3091-1.0473,2.3564-1.5708,3.6655-14.9241,24.6116-23.3026,51.8415-32.99,78.2858-12.5676,34.0372-24.35,68.3363-36.1318,102.3736-3.142,8.9021-3.6657,8.3784-11.7822,6.0219-31.419-8.9021-63.6235-13.6149-96.09-16.2332-55.2451-4.7128-109.1812,2.3565-162.5935,16.7569-35.6082,9.4257-71.2165,18.8515-105.5156,32.4664-41.892,16.495-80.1184,39.5356-117.2977,64.6709a601.21,601.21,0,0,0-53.4124,39.7975,13.2488,13.2488,0,0,1-12.5676,3.1419c-32.99-6.2838-66.2418-9.9493-100.0173-12.0439-17.0187-1.0473-34.0373-1.3091-50.7941-1.3091-31.9427.2618-63.6235,4.7128-95.0426,11.52-38.2265,8.3784-76.453,16.7569-113.6322,29.3245-50.5322,17.28-96.09,43.4629-137.9819,76.453a373.6124,373.6124,0,0,0-37.441,33.2518c-5.76,5.76-6.022,5.76-11.7822.5237-11.7821-10.473-23.3024-20.946-34.8227-31.6808-25.3971-23.0406-50.5323-46.6048-76.7148-68.5982a327.8973,327.8973,0,0,0-34.561-25.6589C424.6839,1558.9315,421.0184,1557.6224,419.7093,1553.695Z" transform="translate(0 -40.896)"/><g id="pages"><path id="br" class="cls-1" d="M1125.54,1413.5677c3.6656-12.83,10.9967-23.5642,18.066-34.5609,22.5169-35.3464,51.58-64.6709,84.0459-90.8535,53.4124-42.9394,112.8467-75.1439,175.1612-102.6355,81.69-35.87,166.7828-62.0527,253.4469-82.7368a586.0566,586.0566,0,0,1,58.9107-11.7822c-2.0946,8.64-6.0219,15.7095-9.1639,23.3025-6.0219,14.4-12.0439,28.8007-18.066,43.463-1.8328,4.1892-3.9274,6.8075-8.9021,7.5929-46.0812,7.3311-91.3771,18.0659-136.4109,30.3718-58.1253,16.2332-115.2032,35.87-170.71,60.22-69.3837,30.3716-135.1018,66.7654-194.7981,114.1557a546.7089,546.7089,0,0,0-43.463,38.2265c-2.0945,1.571-3.9273,5.2366-8.1165,5.2366Z" transform="translate(0 -40.896)"/><path id="bl" class="cls-1" d="M1059.56,1431.3718c-17.0186-2.88-33.5136-7.331-50.5323-10.7347-20.4223-3.9274-41.1066-6.8074-61.7907-9.6876-27.23-3.4037-54.7215-4.1891-81.9513-4.7128-24.6116-.2618-49.485.5237-74.3584,2.3565-17.2805,1.3091-34.561,2.6182-51.58,4.7128-20.1605,2.3565-40.0592,4.9747-59.9579,8.1165-39.7975,6.5456-79.3331,14.9241-118.6069,24.8734-35.6082,9.1639-71.2165,19.1132-105.7774,31.6808-6.2838,2.3565-10.7349,1.3091-15.71-2.88-15.9714-13.0913-32.2045-25.6588-48.4377-38.2264-1.8328-1.3092-3.9274-2.3565-4.9747-4.7129,1.571-2.0945,4.1892-2.6182,6.5457-3.4037A1586.3,1586.3,0,0,1,558.95,1385.5526c33.5136-6.8074,67.2891-12.5676,101.3264-16.7569,25.1353-3.142,50.5323-5.4983,75.9294-7.0693,27.23-1.5709,54.1979-2.0946,81.1658-1.3092,51.3178,1.5709,102.1119,8.3785,151.0733,24.35,31.419,10.2112,61.2671,24.35,88.2351,43.9866A13.7154,13.7154,0,0,0,1059.56,1431.3718Z" transform="translate(0 -40.896)"/><path id="tr" class="cls-1" d="M1682.9153,998c.5236,2.88-1.3092,4.9747-2.6183,7.3311-7.3311,13.0913-14.9241,25.9207-22.2551,39.012-1.8329,3.1419-3.4037,5.76-7.8548,6.0219-21.47,1.8328-42.4157,7.0693-63.1,12.5676-74.62,19.3751-146.0985,46.3431-214.435,81.9513-55.245,28.8008-106.8247,62.5762-153.4295,104.4683-39.2738,35.3464-73.5729,74.882-100.2791,120.9633-.5237.7855-1.3091,1.5709-2.0946,2.6183-1.3091-3.1419.5237-5.2365,1.3091-7.3311a423.8282,423.8282,0,0,1,54.1979-96.09c46.6049-61.2672,105.5156-108.3957,170.9719-147.4076,93.4717-55.5071,194.0125-92.6862,299.2664-117.8214,9.9493-2.3565,19.8986-4.1893,29.5862-6.022C1675.8459,997.4766,1679.25,996.6911,1682.9153,998Z" transform="translate(0 -40.896)"/><path id="tl" class="cls-1" d="M1046.9921,1395.713c-8.3784-2.3565-14.9241-8.1165-22.2551-12.0439-40.8448-21.2078-83.7841-36.3938-128.2944-46.6049a655.0267,655.0267,0,0,0-92.6862-14.1386c-27.23-2.0946-54.7215-4.1892-82.2131-3.142-27.23,1.0474-54.7215,2.3565-81.9513,4.9748A1035.7275,1035.7275,0,0,0,474.38,1354.6065c-16.495,4.4511-32.7282,9.1639-48.4377,15.71-3.4037,1.3091-6.022,1.5708-9.1639-.2618-15.1859-9.4257-30.6336-18.8515-46.0813-28.539,2.0946-4.1892,6.022-4.1892,9.1639-5.2365,31.9427-11.2585,64.9326-19.1133,98.1845-26.4443,29.0626-6.2839,58.1253-11.52,87.7115-15.1859,23.0406-2.88,46.0813-5.2365,69.1219-6.8074,30.6336-2.3565,61.2671-2.0945,92.1625-1.5709,44.7722.5237,89.0206,6.5457,132.7455,16.7569,41.1066,9.6876,80.6422,23.8261,118.0832,43.7249a386.3565,386.3565,0,0,1,64.9327,43.7249c1.3091,1.0467,4.1891,2.0941,4.1891,5.236Z" transform="translate(0 -40.896)"/></g></g><g id="pen"><g id="tip"><path class="cls-2" d="M1099.67,1256.16c-10.9967-.5237-21.2078-4.1891-31.1573-8.1165a643.41,643.41,0,0,1-80.1185-38.4884c-14.6623-8.3784-14.4-9.1638-7.3311-24.8734,9.9493-21.7314,25.3971-38.4883,45.2957-51.3178,4.4511-2.88,7.3311-3.4036,11.7822.5237a90.19,90.19,0,0,1,15.1859,16.495c15.9713,20.1606,31.6808,40.5829,44.7721,62.838,3.6656,6.5456,7.0693,13.0913,10.2112,19.8987a28.4353,28.4353,0,0,1,2.88,10.2112C1113.0228,1252.7563,1109.6189,1256.16,1099.67,1256.16Z" transform="translate(0 -40.896)"/></g><path id="body" class="cls-2" d="M1016.742,1115.7874c-.43.27-.84.52-1.22.77-23.79,15.33-41.5,35.45-52.64,59.8l-.06.12c-1.37,3.05-2.69,5.97-3.77,8.85-5.97-4.31-11.09-9.3-16.48-13.74-40.58-33.77-80.9-67.81-121.48-101.85q-58.92-49.485-117.3-98.97-57.735-48.3-115.47-96.61c-21.21-17.8-42.41-35.61-63.62-53.67-.28-.24-.56-.48-.82-.7l2.67-7.61c9.15-26.05,24.95-44.92,48.31-57.66l7.31-3.99q73.65,62.3252,147.8,124.15c51.32,42.94,102.37,85.88,153.69,128.82q58.92,49.485,117.3,98.97C1005.9519,1106.8774,1011.0721,1111.1475,1016.742,1115.7874Z" transform="translate(0 -40.896)"/><g id="butt"><path class="cls-2" d="M565.2842,736.96c-28.8008,15.7095-47.1286,38.75-57.6016,68.5983-7.3311-3.9274-12.3058-9.6876-18.0659-14.4-10.9967-8.64-21.2079-18.0659-32.2045-26.7062-3.6656-2.88-4.4511-6.2838-3.9274-10.2112,1.571-8.902,3.4037-17.8041,7.0693-26.1825,8.64-20.6842,25.9207-29.8481,46.0813-35.6083,4.1892-1.0473,7.0693.7855,9.6876,3.142C532.2942,708.6832,548.0037,722.2982,565.2842,736.96Z" transform="translate(0 -40.896)"/></g></g></g></g><g id="outer"><g id="dark-2" data-name="dark"><g id="text"><path class="cls-3" d="M317.5166,1876.3682c19.8125,32.9541,10.3233,55.208-4.8369,69.7392-23.4629,22.4893-57.9228,21.5821-92.1748-14.1533-35.98-37.54-33.2988-72.3154-19.2217-85.8086,7.22-6.92,17.29-6.5293,24.209.6895,15.3955,16.0625-12.0449,34.4,16.6709,64.36,14.7041,15.3408,31.3174,15.6924,39.9805,7.39,5.2344-5.0166,8.5879-13.0791,1.4267-25.6084l-23.52-41.52c-18.917-33.4648-8.788-52.5224,5.1094-65.8427,28.877-27.6788,65.3076-11.3467,89.3535,13.74,22.1426,23.1016,35.27,62.81,17.9434,79.416-7.4,7.0928-17.7871,4.9277-24.7061-2.292-13.1474-13.7158,8.586-29.6992-17.8818-57.3125-13.1465-13.7168-26.7285-15.2422-35.7529-6.5928s-1.5323,22.2461,5.2978,33.7071Z" transform="translate(0 -40.896)"/><path class="cls-3" d="M427.2432,1918.1494l-30.92-23.3574c-9.375-7.083-13.3389-17.5967-6.5576-26.5732s17.9785-8.0381,27.3545-.9551l94.5517,71.43c9.376,7.083,13.3389,17.5966,6.5576,26.5732s-17.9785,8.0381-27.3535.9551l-30.9189-23.3584L382.65,2045.1963c-7.3838,9.7744-18.74,11.5342-28.7139,4s-11.3838-18.94-4-28.7149Z" transform="translate(0 -40.896)"/><path class="cls-3" d="M523.7217,1968.5039c5.58-10.9053,16.461-14.6045,27.5879-8.91s14.49,16.6835,8.91,27.5878l-44.8731,87.6846c-11.1621,21.81-3.9336,37.8662,16.9863,48.5723s38.1719,7.1777,49.3331-14.6328l44.873-87.6846c5.5811-10.9043,16.4609-14.6045,27.5889-8.9092s14.49,16.6826,8.9091,27.5879l-43.3925,84.791c-22.5508,44.0654-59.8379,49.9776-102.3448,28.2237s-59.5214-55.4551-36.9707-99.52Z" transform="translate(0 -40.896)"/><path class="cls-3" d="M681.8467,2054.3164c5.1485-17.5078,15.8848-20.3437,29.7959-16.2519l47.9678,14.1084c42.9307,12.6269,76.7617,42.9023,56.8691,110.5371-16.084,54.6826-55.8545,77.3828-108.3789,61.9336l-47.248-13.8965c-13.91-4.0909-21.4024-12.2881-16.252-29.7959Zm4.627,129.5693,33.0976,9.7344c31.418,9.2412,49.7442-15.8574,57.5742-42.4795,10.0176-34.0566,3.1329-58.4922-25.6484-66.957l-32.8574-9.6641Z" transform="translate(0 -40.896)"/><path class="cls-3" d="M852.2315,2092.248c1.9482-12.0947,11.1582-18.9677,23.5-16.98s18.9277,11.4053,16.9805,23.499L869.5772,2242.42c-1.9473,12.0947-11.1572,18.9678-23.4981,16.9805s-18.9287-11.4053-16.98-23.499Z" transform="translate(0 -40.896)"/><path class="cls-3" d="M914.5733,2110.3721c.8281-18.2315,10.5791-23.545,25.0644-22.8867l96.1494,4.3642c11.9874.544,20.57,4.4375,19.98,17.4238s-9.4892,16.086-21.4765,15.542l-79.168-3.5937-1.7686,38.959,69.4278,3.1523c10.7392.4873,19.0937,3.87,18.5156,16.6065s-9.2051,15.3486-19.9434,14.86l-69.4287-3.1514-1.9726,43.4551,81.166,3.6846c11.9873.5439,20.5693,4.4375,19.98,17.4238s-9.4892,16.086-21.4775,15.542l-98.1475-4.456c-14.4853-.6573-23.7138-6.8321-22.8867-25.0635Z" transform="translate(0 -40.896)"/><path class="cls-3" d="M1069.2364,2116.1162c-2.2422-18.1123,6.4795-24.9863,20.87-26.7676l67.7334-8.3857c48.3808-5.9893,64.5683,18.9609,67.4258,42.0351,2.3955,19.3526-6.6524,39.8692-25.4522,46.7315l.0615.4961c21.21.3974,26.8047,15.0713,29.0479,33.1826,2.5488,20.5938,8.96,27.6084,10.0039,36.0449,1.167,9.4278-7.71,17.0762-17.1387,18.2432-22.3291,2.7646-26.7383-18.6055-27.6289-25.8008-3.8711-31.2617-11.1435-43.208-33.4736-40.4443l-40.1934,4.9765,6.4815,52.3506c1.5049,12.1572-5.4209,21.3281-17.8262,22.8633s-21.3584-5.6689-22.8643-17.8262Zm47.57,50.5381,40.6894-5.0371c15.3828-1.9043,30.2744-7.7783,27.7862-27.875-2.3653-19.1045-14.6407-22.6231-32.5049-20.4111l-41.93,5.19Z" transform="translate(0 -40.896)"/><path class="cls-3" d="M1278.6543,1991.6768a27,27,0,1,1-17.9179,33.7187A26.8877,26.8877,0,0,1,1278.6543,1991.6768Zm-2.706,74.0322c.6406-9.8692,5.9043-14.8789,15.4668-17.8047l9.3232-2.8535c8.8457-2.7061,17.3926-2.9688,25.4268,7.9062l87.64,117.2383c2.6045,3.3858,7.1172,9.5869,8.4336,13.8906,2.9258,9.5625-3.1006,19.7725-13.1406,22.8448-8.6065,2.6328-15.7725,1.4277-20.9824-5.3448l-18.8184-25.6152-63.1123,19.3125-1.501,31.832c-.289,8.4551-4.8359,13.2452-14.1591,16.0977-10.7579,3.292-20.2168-1.1338-23.4356-11.6524-1.3174-4.3037-1.0478-11.9677-.7842-16.2314Zm14.41-35.7832a13,13,0,1,0-16.2343-8.627A12.91,12.91,0,0,0,1290.3584,2029.9258Zm18.62,59.1406-.4786.1465-2.0478,76.1836,45.8994-14.0449Z" transform="translate(0 -40.896)"/><path class="cls-3" d="M1387.2911,2045.9463c-8.26-16.2734-2.3907-25.7,10.54-32.2627l44.5859-22.6289c39.9043-20.2529,85.29-21.42,117.1973,41.4463,25.7969,50.8281,12.4189,94.625-36.4023,119.4033l-43.918,22.2891c-12.93,6.5625-24.0029,5.7343-32.2627-10.5391Zm92.2275,91.1269,30.7646-15.6142c29.2041-14.8223,25.3291-45.6572,12.77-70.4024-16.0664-31.6562-37.8359-44.7177-64.5869-31.1406l-30.542,15.5Z" transform="translate(0 -40.896)"/><path class="cls-3" d="M1542.4854,1963.8447c-10.94-14.6064-6.7842-24.9043,4.82-33.5967l77.0342-57.7c9.6045-7.1944,18.706-9.6387,26.499.7666s2.8887,18.4511-6.7158,25.6445l-63.4278,47.51,23.38,31.2138,55.6241-41.664c8.6044-6.4454,17.206-9.14,24.85,1.0654s2.6386,17.7012-5.9659,24.1455l-55.624,41.6641,26.0772,34.8154,65.0293-48.708c9.6045-7.1944,18.705-9.6387,26.499.7666s2.8887,18.4512-6.7158,25.6445l-78.6348,58.8994c-11.6055,8.6934-22.6562,9.7862-33.5967-4.82Z" transform="translate(0 -40.896)"/><path class="cls-3" d="M1707.252,1841.1436l-26.752,28.0341c-8.1123,8.5-19.0107,11.2315-27.1494,3.4639s-5.9219-18.7812,2.19-27.2812l81.8085-85.7295c8.1124-8.5,19.0108-11.2305,27.15-3.4639s5.9209,18.7812-2.1914,27.2822l-26.7519,28.0332,92.7822,88.54c8.8623,8.457,9.3086,19.94.6787,28.9834s-20.1211,9.1347-28.9834.6777Z" transform="translate(0 -40.896)"/><path class="cls-3" d="M254.9268,376.5034c-12.7168-15.06-8.8828-26.4243,3.082-36.5273l41.26-34.8389c36.9277-31.1807,84.3476-43.6572,133.4707,14.519,39.7158,47.0362,36.51,96.39-8.67,134.5386l-40.6407,34.3164c-11.9648,10.1031-23.81,11.9781-36.5273-3.082Zm119.5371,72.9312,28.4688-24.0391c27.0253-22.8193,15.3085-54.2725-4.0264-77.1714-24.7354-29.2944-50.8565-37.63-75.6123-16.7265L295.03,355.3623Z" transform="translate(0 -40.896)"/><path class="cls-3" d="M519.98,273.521c10.4258-6.2378,21.2617-7.0581,28.3321,4.7578s1.2246,20.9775-9.2022,27.2153l-38.2285,22.8736c-10.4268,6.2383-21.2627,7.0581-28.332-4.7578s-1.2246-20.9771,9.2021-27.2154Z" transform="translate(0 -40.896)"/><path class="cls-3" d="M592.5108,179.6484c27.4736-11.9746,59.9414-13.1665,67.17,3.417,3.668,8.4151,1.2109,18.3218-8.1934,22.4214-14.1093,6.1489-21.832-10.2187-44.6035-.2934-12.623,5.5019-19.28,12.5268-15.9355,20.2,3.6679,8.4155,12.6982,6.8354,24.915,4.456l16.6084-3.1152c22.5938-4.2515,50.8731-6.2686,61.877,18.9775,12.8379,29.4541-9.6934,55.4737-36.92,67.34-32.6709,14.24-66.2617,11.5039-74.0292-6.3174-3.4532-7.92-2.126-17.04,8.0214-21.4629,15.5938-6.7964,26.7881,14.8325,53.52,3.1811,12.8711-5.6093,18.5576-14.8623,15.3213-22.2876-3.9913-9.1582-12.56-7.1909-26.8331-4.7988l-23.5507,4.08c-23.3047,3.9722-43.416,2.4292-53.9883-21.8271C543.0518,214.1646,567.5118,190.5444,592.5108,179.6484Z" transform="translate(0 -40.896)"/><path class="cls-3" d="M740.13,211.4648c5.2656,20.1123,22.1553,31.32,44.3574,25.5069,28.7325-7.5225,23.8077-26.3291,39.2188-30.3643,9.1426-2.3935,17.7236,3.7329,19.57,10.7852,6.0176,22.9858-28.0068,43.3379-50.9922,49.3559-53.2851,13.9517-82.8359-16.8276-91.5215-50-11.6259-44.4038,7.4815-81.2246,52.669-93.0561,43.8818-11.49,77.0947,13.0278,85.3017,44.3721,3.42,13.06.3907,17.4814-12.4082,20.8325Zm61.1221-39.4482c-6.6719-16.9536-23.083-26.333-40.0615-21.8877-19.0664,4.9927-27.4825,19.7559-26.8057,39.3955Z" transform="translate(0 -40.896)"/><path class="cls-3" d="M855.4541,67.0527c-1.3007-12.8945,5.8125-20.396,17.6319-21.5883s20.2881,4.7373,21.5888,17.6318l8.9961,89.1855,38.6407-52.7436c3.5957-4.7046,8.375-8.4434,14.2851-9.04,8.8643-.894,19.32,5.92,20.3242,15.86.7041,6.9844-1.497,9.3774-4.6093,13.4907l-25.95,33.2818,46.36,50.6816a21.5106,21.5106,0,0,1,5.3028,12.2192c1.0029,9.94-6.1348,19.8858-16.6114,20.9429-9.67.9756-15.2617-3.3452-18.65-7.3452l-42.3554-48.6431-12.4815,13.47,3.0088,29.8184c1.3008,12.894-5.8125,20.396-17.6328,21.5884s-20.2871-4.7378-21.5879-17.6319Z" transform="translate(0 -40.896)"/><path class="cls-3" d="M1022.21,118.3628l-6.748-.1411c-11.0684-.2315-15.5665-4.6465-15.3868-13.2847.1817-8.6382,4.86-12.8613,15.9278-12.63l6.749.1411.5029-24.0249c.27-12.9575,8.24-19.5424,20.1172-19.2939s19.5654,7.1606,19.294,20.1182l-.502,24.0249,11.877.2485c11.6074.2427,17.7431,3.8818,17.5459,13.33s-6.48,12.8276-18.0879,12.5849l-11.877-.2485-1.6484,78.8233c-.125,5.9389,3.0468,9.246,10.0654,9.3925l5.6689.1187c8.6377.1806,13.6651,5.147,13.49,13.5151-.2373,11.3379-10.085,17.3433-28.9805,16.9478-28.6142-.5982-40.2441-12.7241-39.7578-35.9395Z" transform="translate(0 -40.896)"/><path class="cls-3" d="M1114.2989,112.5542c1.0879-10.4736,6.3339-19.1577,21.6416-17.5669s18.6552,11.168,17.5673,21.6416l-11.247,108.2275c-1.0889,10.4737-6.335,19.1582-21.6426,17.5674s-18.6553-11.1684-17.5664-21.6421ZM1141.55,41.0078a20.52,20.52,0,1,1-22.5312,18.2891A20.5111,20.5111,0,0,1,1141.55,41.0078Z" transform="translate(0 -40.896)"/><path class="cls-3" d="M1260.6953,115.45c46.3545,10.4521,63.9864,47.6406,54.8409,88.2017-8.6709,38.4536-35.0313,68.2133-87.4444,56.3955s-63.4521-50.0113-54.7822-88.4649C1182.4551,131.0215,1214.34,104.998,1260.6953,115.45Zm-26.19,116.1519c22.9151,5.1665,37.292-13.18,42.5772-36.6211,5.6416-25.021-.4131-46.0376-22.8008-51.0855s-36.876,11.3364-42.5176,36.3574C1206.4786,203.6938,1211.5909,226.4351,1234.5049,231.6021Z" transform="translate(0 -40.896)"/><path class="cls-3" d="M1360.8692,161.7676c4.5039-10.9932,12.4687-16.1919,23.9619-11.4834s13.5215,14.001,9.0176,24.9941l-1.9444,4.7471.5.2051c15.7705-9.2954,32.9024-13.3648,53.64-4.8692,21.9863,9.0074,41.4678,29.8267,26.3193,66.8042l-29.0693,70.9566c-3.9912,9.7441-11.4688,16.6015-25.711,10.7671s-14.7587-15.9668-10.7666-25.711l26.1006-63.7109c6.0391-14.7412,3.0928-28.2031-12.6474-34.6514a30.6117,30.6117,0,0,0-39.5039,17.3711L1356.0977,277.4c-3.9922,9.7441-11.47,16.6011-25.7109,10.7671S1315.628,272.2,1319.62,262.4561Z" transform="translate(0 -40.896)"/><path class="cls-3" d="M1516.3848,300.9663c-10.9473,17.6743-7.4326,37.6377,12.0781,49.7232,25.2491,15.64,35.4864-.8868,49.0283,7.5019,8.0342,4.9761,9.5079,15.417,5.668,21.6143-12.5117,20.2-50.706,9.563-70.9053-2.9488-46.8252-29.0053-44.8789-71.6294-26.8222-100.7807,24.1709-39.0215,64.0224-50.544,103.7324-25.9468,38.5625,23.8867,43.6787,64.8511,26.6162,92.3955-7.1084,11.4771-12.4,12.3281-23.6475,5.3613Zm70.7051,17.1172c7.69-16.5161,3.1806-34.8726-11.74-44.1147-16.7558-10.379-33.2539-6.3057-47.0214,7.7163Z" transform="translate(0 -40.896)"/><path class="cls-3" d="M1666.7989,325.3438c7.8281-8.9366,17.05-11.2676,26.3925-3.0835s8.2442,17.6323.4161,26.5683l-3.3809,3.8589.4062.356c17.9346-3.6724,35.46-1.96,52.3165,12.8066,17.872,15.6567,29.541,41.6728,3.2089,71.731L1695.63,495.26c-6.9385,7.9209-16.2373,11.98-27.8135,1.8379s-8.7773-19.8931-1.8378-27.814l45.3681-51.7891c10.4971-11.9824,12.08-25.6718-.7148-36.8808a30.6125,30.6125,0,0,0-43.0039,3.6069l-42.878,48.9458c-6.9384,7.9209-16.2373,11.98-27.8144,1.8379s-8.7764-19.8931-1.8379-27.814Z" transform="translate(0 -40.896)"/></g><g id="circle"><path class="cls-3" d="M1024.042,380.45a776.7179,776.7179,0,0,1,436.4126,133.2847,783.0546,783.0546,0,0,1,282.8828,343.4983A779.5189,779.5189,0,0,1,1671.375,1597.48a783.0533,783.0533,0,0,1-343.4985,282.8832,779.5181,779.5181,0,0,1-740.2471-71.9625A783.0634,783.0634,0,0,1,304.7466,1464.902a779.5165,779.5165,0,0,1,71.9627-740.2471A783.054,783.054,0,0,1,720.2073,441.772,775.6818,775.6818,0,0,1,1024.042,380.45m0-55c-461.499,0-835.6174,374.1185-835.6174,835.6174s374.1184,835.6178,835.6174,835.6178S1859.66,1622.5663,1859.66,1161.0674,1485.5411,325.45,1024.042,325.45Z" transform="translate(0 -40.896)"/></g><g id="arcs"><path id="arc_base" data-name="arc base" class="cls-4" d="M1802.6384,539.0085c136.3887,170.4876,217.9457,386.7489,217.9457,622.0589,0,201.5278-59.8205,389.0837-162.6734,545.88" transform="translate(0 -40.896)"/><path id="arc_base-2" data-name="arc base" class="cls-4" d="M190.9271,1708.0945C87.6128,1551.0665,27.5,1363.087,27.5,1161.0674c0-235.31,81.5571-451.5717,217.946-622.0594" transform="translate(0 -40.896)"/></g></g></g></g></svg>