<svg xmlns="http://www.w3.org/2000/svg" viewBox="0 0 2048.0841 2233.6357"><defs><style>.cls-1{fill:#f280a1;}.cls-2{fill:#fff;}.cls-3,.cls-4{fill:none;stroke-linecap:round;stroke-miterlimit:10;}.cls-3{stroke:#96c;stroke-width:45px;}.cls-4{stroke:#f280a1;stroke-width:55px;}</style></defs><g id="Layer_2" data-name="Layer 2"><g id="inner"><g id="light"><path id="bag" class="cls-1" d="M1376.8972,1588.668c-27.4061,36.0847-68.4919,59.2157-113.4391,64.9554-70.5157,9.0047-168.6272,14.9871-224.0271,14.9871-68.3354,0-135.3091-2.9447-202.3468-11.8255-162.687-21.5177-193.88-151.5978-156.5588-299.9612a796.6049,796.6049,0,0,1,92.5412-209.6753A766.6314,766.6314,0,0,1,910.5842,983.8346c77.9838-9.4487,148.0408-11.6632,213.9481-6.7707,18.436,1.3683,37.039,3.2461,55.3338,5.5533a794.3563,794.3563,0,0,1,133.9747,158.4394c112.5834,165.8775,140.71,342.4292,64.6452,445.4894Q1377.706,1587.6029,1376.8972,1588.668Z" transform="translate(-28.7666 -40.896)"/><g id="D"><path class="cls-2" d="M1181.0062,1231.45q-17.582-39.9634-47.2481-60.3438a96.1331,96.1331,0,0,0-17.4168-9.4451,113,113,0,0,0-13.2058-4.6732q-6.2345-1.7484-12.612-2.9907c1.4954.2418,2.9909.5167,4.4862.8026v-51.0195h-48.2485v46.9512h-39.7821v-46.83H958.7414v46.83H906.7322v49.7551h9.6872c8.5326,0,14.1183.7916,16.7353,2.5068a14.1384,14.1384,0,0,1,5.6846,7.1692c1.1436,3.1887,1.7154,10.2478,1.7154,21.2874v196.6231c0,11.0506-.5718,18.11-1.5943,21.4084-1.5943,4.1014-3.7606,7.0592-6.2675,8.7635-2.617,1.7153-7.9718,2.628-16.1636,2.628h-9.676v49.744h51.8881v44.961h48.2377v-44.961h29.666q5.0634-.066,10.1161-.44v45.4008H1095.01V1501.491c2.7929-.77,5.5748-1.6054,8.3567-2.485a131.2507,131.2507,0,0,0,13.2057-5.124,87.9506,87.9506,0,0,0,8.6534-4.5521c13.5466-8.3128,26.3016-20.6058,38.0228-37a178.9568,178.9568,0,0,0,26.6423-55.33c5.9267-20.496,8.9943-43.7185,8.9943-69.6792C1198.6541,1290.09,1192.8484,1258.0926,1181.0062,1231.45Zm-64.6649,154.389c-1.2537,4.2114-2.6171,8.3127-4.2114,12.2932a125.9789,125.9789,0,0,1-8.9944,18.4505c-6.0365,10.017-13.0959,17.8679-21.0677,23.4536h-.11a62.5446,62.5446,0,0,1-11.5014,6.2565c-9.7861,4.1014-21.7382,6.2675-35.6368,6.7183-1.4733,0-2.9577.11-4.552.11-7.9718,0-12.8649-.4507-15.031-1.3634a10.06,10.06,0,0,1-4.7831-5.3438q-1.0229-2.573-1.0226-14.0084v-224.178h30.9746c11.49,0,21.3973,1.3634,29.8309,4.1013a51.6,51.6,0,0,1,13.4257,6.3773,21.6076,21.6076,0,0,1,2.1662,1.4736c6.2674,4.6731,11.9521,11.3914,16.9661,20.0449a128.6526,128.6526,0,0,1,9.6762,20.9466c1.2534,3.53,2.5069,7.0591,3.5295,10.8086,4.893,16.9663,7.29,36.0985,7.29,57.617C1123.6312,1350.5436,1121.2342,1369.335,1116.3413,1385.8393Z" transform="translate(-28.7666 -40.896)"/></g><path id="rope" class="cls-3" d="M903.8961,930.564c63.2662-8.7845,139.8349-15.0184,221.789-8.2723,19.586,1.6124,38.4627,3.7591,56.5969,6.32" transform="translate(-28.7666 -40.896)"/><path id="fray" class="cls-1" d="M1295.37,754.2444a770.1135,770.1135,0,0,0-58.5412,62.5329c-15.71,18.6485-30.7217,37.9215-45.2192,57.5372-.5388-.0979-1.0775-.1837-1.6285-.2571-19.75-2.7918-39.8683-5.0448-59.778-6.6856-67.749-5.5712-138.89-3.5018-216.9734,6.38L811.1711,731.347a63.6679,63.6679,0,0,1-5.4365-25.64A64.3581,64.3581,0,0,1,837.6562,650.46c14.02-8.1427,30.9666-9.6,46.5293-5.0449l61.137,17.8894,1.1877.3184a122.6335,122.6335,0,0,0,79.1733-5.9142l66.439-31.5665,1.6652-.5632c41.8641-14.1669,85.1242,17.4852,84.2672,61.688l-3.3183,82.4793a1.1341,1.1341,0,0,0,2.0816.6736l18.1586-27.1706a63.3369,63.3369,0,0,1,64.0512-24.3179,127.7865,127.7865,0,0,1,31.9216,11.363l1.2245.649A14.4883,14.4883,0,0,1,1295.37,754.2444Z" transform="translate(-28.7666 -40.896)"/></g></g><g id="outer"><g id="light-2" data-name="light"><g id="text"><path d="M199.0928,1692.332c11.6245,36.6524-2.77,56.0977-20.8887,66.7139-28.0405,16.4307-61.35,7.5518-86.3745-35.1563-26.2886-44.8652-15.61-78.0693,1.2143-87.9277,8.628-5.0557,18.3326-2.3389,23.3882,6.2891,11.2486,19.1963-19.6992,30.666,1.2813,66.4717,10.7431,18.3349,26.8213,22.5322,37.1748,16.4658,6.2554-3.6651,11.3882-10.7295,7.33-24.5781l-13.2442-45.8448c-10.6352-36.9414,3.64-53.1289,20.2486-62.8613,34.5117-20.2217,66.1586,4.1182,83.727,34.1,16.1777,27.6094,19.7319,69.28-.9751,81.4131-8.8437,5.1826-18.4438.666-23.5-7.9619-9.6055-16.3926,15.2437-26.8965-4.0938-59.8985-9.6054-16.3935-22.4633-21.0283-33.248-14.7089s-6.6528,21.2832-2.6689,34.0166Z" transform="translate(-28.7666 -40.896)"/><path d="M282.021,1714.541c9.42-7.831,20.8784-6.9531,28.8691,2.6592s6.7613,21.0381-2.6587,28.8691l-45.7543,38.0371,95.8315,4.211c6.8813.456,12.6743,1.167,17.3091,6.7422,6.2329,7.497,7.852,18.831-.2222,25.5429-4.8061,3.9961-10.1523,4.2139-15.081,3.76l-60.8775-4.01-26.4458,86.6827c-2.0244,6.56-3.5044,12.9921-7.5415,16.3486-11.727,9.749-22.3794,3.9746-28.6123-3.5234-5.2744-6.3438-6.6133-11.0831-3.4-20.9063l25.93-83.002-31.686-2.9179-31.336,26.0508c-9.42,7.831-20.8784,6.9531-28.87-2.6592s-6.7612-21.0381,2.6587-28.8692Z" transform="translate(-28.7666 -40.896)"/><path d="M425.5518,1859.6152c8.6665-4.7646,15.7207-3.0175,23.3276,3.4737l7.4165,6.3291c7.0361,6.0039,11.8516,13.0713,6.998,25.69l-51.7607,136.915c-1.4556,4.0166-4.26,11.1543-7.1807,14.5772-6.4912,7.6064-18.34,8.0127-26.3271,1.1963-6.8462-5.8418-9.6812-12.5332-6.77-20.5655l11.4858-29.6367-50.2051-42.8408-27.65,15.8428c-7.2846,4.3-13.768,3.04-21.185-3.2891-8.5576-7.3027-9.9092-17.6572-2.7691-26.0254,2.9214-3.4228,9.5288-7.3154,13.2666-9.3838Zm-1.9449,40.4073-.38-.3243-65.3443,39.2178,36.5127,31.1572Z" transform="translate(-28.7666 -40.896)"/><path d="M519.2461,1964.0439,486.5415,1943.26c-9.917-6.3028-14.7168-16.4619-8.6826-25.9571s17.27-9.4629,27.1875-3.1611L605.06,1977.7021c9.917,6.3028,14.7168,16.4629,8.6826,25.9571s-17.27,9.4638-27.1875,3.1611L553.85,1986.0361,485.06,2094.2783c-6.57,10.3389-17.7476,13.0108-28.2974,6.3057s-12.8769-17.958-6.3061-28.2979Z" transform="translate(-28.7666 -40.896)"/><path d="M661.66,2042.3779,625.92,2027.3994c-10.8374-4.542-17.28-13.748-12.9311-24.124s15.4292-12.2373,26.2666-7.6953l109.2924,45.8037c10.8374,4.542,17.28,13.748,12.9312,24.124s-15.4292,12.2373-26.2666,7.6963l-35.7393-14.9785-49.5727,118.2851c-4.7354,11.2979-15.3028,15.8145-26.8316,10.9834s-15.7182-15.5332-10.9829-26.831Z" transform="translate(-28.7666 -40.896)"/><path d="M767.0532,2068.1963c3.3838-16.1494,15.1641-17.5127,25.93-15.2568l11.7451,2.4609c12.4795,2.6142,17.3267,8.7383,18.6665,23.0684l11.3042,120.3779.4893.1025,58.1875-105.8174c6.98-12.5869,13.8779-16.25,26.3569-13.6347l11.2559,2.3584c10.7661,2.2558,21.0083,8.2334,17.6245,24.3828l-29.9927,143.1435c-2.102,10.0323-8.9956,18.55-21.9639,15.8321s-15.8628-13.2852-13.7607-23.3174l22.8662-109.1319-.49-.1025-61.9444,109.1172c-4.4345,7.7559-11.2695,9.8994-19.5888,8.1562s-13.7193-6.45-14.6675-15.3339l-12.9307-124.8057-.49-.1025-22.8662,109.1318c-2.1021,10.0322-8.9952,18.55-21.9639,15.832s-15.8628-13.2851-13.7608-23.3174Z" transform="translate(-28.7666 -40.896)"/><path d="M1011.376,2099.001c3.667-9.1846,10.2246-12.3164,20.2226-12.1358l9.7486.1768c9.248.168,17.4555,2.5674,21.7241,15.3965l46.9941,138.622c1.4268,4.0264,3.795,11.32,3.7129,15.8194-.1806,9.998-9.0742,17.8379-19.5722,17.6484-8.9981-.1631-15.4385-3.5312-18.293-11.584l-9.9541-30.1845-65.9878-1.1963-11.292,29.8c-2.8945,7.9482-8.7021,11.0937-18.4507,10.917-11.2475-.2041-18.87-7.3438-18.67-18.3408.0815-4.5,2.7124-11.7032,4.2847-15.6749Zm-.1895-58.5117a18.25,18.25,0,1,1-18.5776,17.915A18.3516,18.3516,0,0,1,1011.1865,2040.4893Zm24.355,90.9541-.5-.0088-25.5552,71.7968,47.9912.87Zm26.6362-90.03a18.25,18.25,0,1,1-18.5781,17.916A18.3521,18.3521,0,0,1,1062.1777,2041.4131Z" transform="translate(-28.7666 -40.896)"/><path d="M1226.4238,2151.5215c38.333,2.9951,50.9473,23.64,53.9795,44.4189,4.6934,32.1592-16.0478,59.6924-65.0283,66.8408-51.4541,7.51-78.2148-14.86-81.03-34.1552-1.4443-9.8955,4.7188-17.8692,14.6143-19.3125,22.0156-3.2129,21.0195,29.7754,62.084,23.7832,21.0273-3.0694,30.957-16.3926,29.2236-28.2666-1.0469-7.1739-5.665-14.584-20.0234-16.0264l-47.462-4.9473c-38.23-4.0214-47.87-23.331-50.6494-42.3789-5.7763-39.58,28.669-59.7656,63.0537-64.7841,31.6641-4.6211,71.6172,7.7382,75.0831,31.4863,1.48,10.1426-6.3116,17.3437-16.2061,18.7871-18.8008,2.7441-19.2-24.2305-57.0488-18.707-18.8008,2.7441-27.9268,12.9179-26.1221,25.2871s17.2256,14.1611,30.5225,15.2519Z" transform="translate(-28.7666 -40.896)"/><path d="M1324.18,2086.3174l-36.9453,11.6865c-11.2022,3.543-22.0694.6875-25.4619-10.0381s3.8554-19.3115,15.0576-22.8554l112.9814-35.7364c11.2031-3.5439,22.07-.6885,25.4629,10.0381s-3.8555,19.3115-15.0586,22.8555l-36.9453,11.6855,38.6768,122.2774c3.6943,11.68-1.4444,21.958-13.3623,25.7275s-22.0332-1.6836-25.7276-13.3633Z" transform="translate(-28.7666 -40.896)"/><path d="M1424.1113,2041.7666c-8.2392-16.2832-2.3584-25.7031,10.5791-32.25l85.8809-43.4541c10.708-5.418,20.0957-6.2451,25.9648,5.3545s-.3584,18.6728-11.0654,24.0908l-70.7129,35.7793,17.6074,34.7988,62.0127-31.3779c9.5928-4.8535,18.5313-6.0137,24.2871,5.3623s-.4736,17.8906-10.0654,22.7442l-62.0127,31.3779,19.64,38.8135,72.497-36.6827c10.7071-5.417,20.0948-6.2451,25.9639,5.3545s-.3584,18.6729-11.0654,24.0909l-87.666,44.3574c-12.9375,6.5469-24.0108,5.7051-32.25-10.5791Z" transform="translate(-28.7666 -40.896)"/><path d="M1561.623,1970.6787c-10.8818-14.6494-6.6855-24.9307,4.9551-33.5771l54.7862-40.6983c39.1337-29.07,65.5205-15.35,79.3847,3.3145,11.628,15.6533,13.875,37.9638.9053,53.2041l.2988.4013c18.6455-10.1142,30.75-.1093,41.6328,14.5411,12.3731,16.6562,21.41,19.5976,26.4786,26.4209,5.665,7.6259,1.7148,18.6582-5.9112,24.3232-18.0615,13.417-32.4365-2.999-36.76-8.8184-18.7842-25.2861-31.003-32.0927-49.0645-18.6757l-32.5107,24.15,31.456,42.3448c7.3047,9.833,5.8027,21.2265-4.2314,28.6806s-21.376,5.6016-28.6807-4.2314Zm66.3067,20.5039,32.9121-24.4482c12.4414-9.2432,22.499-21.6963,10.4238-37.9522-11.4795-15.4531-23.8926-12.46-38.3418-1.7256l-33.916,25.1944Z" transform="translate(-28.7666 -40.896)"/><path d="M1691.7119,1859.7383c-8.4609-8.8584-8.375-20.35.6631-28.9834s20.5225-8.1944,28.9834.6631l100.502,105.209c8.4619,8.8574,8.3759,20.3486-.6631,28.9834s-20.5215,8.1943-28.9834-.6631Z" transform="translate(-28.7666 -40.896)"/><path d="M1743.7969,1821.0322c-14.0264-11.6767-12.3682-22.6562-3.0918-33.8008l61.5781-73.9726c7.6777-9.2227,15.9658-13.709,25.957-5.3916s7.083,17.2812-.5947,26.5039l-50.7012,60.9082,29.9737,24.95,44.4638-53.4141c6.877-8.2617,14.6211-12.875,24.42-4.7187s6.667,16.6094-.211,24.8711l-44.4638,53.415,33.4326,27.83,51.9814-62.4453c7.6768-9.2227,15.9649-13.708,25.9561-5.3916s7.083,17.2812-.5938,26.5039l-62.8584,75.5107c-9.2763,11.1436-19.7734,14.7666-33.7988,3.0908Z" transform="translate(-28.7666 -40.896)"/><path d="M1875.6777,1663.4688l-19.5146,33.4785c-5.917,10.1513-15.8848,15.3369-25.6045,9.6718s-10.1191-16.8945-4.2012-27.0459l59.6768-102.3789c5.917-10.1513,15.8847-15.3369,25.6045-9.6718s10.1191,16.8945,4.2011,27.0459l-19.5146,33.4785,110.8027,64.5869c10.583,6.1689,13.6817,17.2353,7.3867,28.0351s-17.4511,13.5557-28.0351,7.3868Z" transform="translate(-28.7666 -40.896)"/><path d="M283.6934,376.5034c-12.7163-15.06-8.8833-26.4243,3.082-36.5273l41.26-34.8389c36.9277-31.1807,84.3476-43.6572,133.4707,14.519,39.7158,47.0362,36.51,96.39-8.67,134.5386l-40.6406,34.3164c-11.9653,10.1031-23.811,11.9781-36.5273-3.082ZM403.23,449.4346l28.4692-24.0391c27.0254-22.8193,15.3091-54.2725-4.0263-77.1714-24.7359-29.2944-50.8565-37.63-75.6124-16.7265l-28.2631,23.8647Z" transform="translate(-28.7666 -40.896)"/><path d="M548.7456,273.521c10.4263-6.2378,21.2622-7.0581,28.332,4.7578s1.2246,20.9775-9.2016,27.2153l-38.2285,22.8736c-10.4263,6.2383-21.2622,7.0581-28.3321-4.7578s-1.2246-20.9771,9.2017-27.2154Z" transform="translate(-28.7666 -40.896)"/><path d="M621.2773,179.6484c27.4737-11.9746,59.9419-13.1665,67.17,3.417,3.6679,8.4151,1.2114,18.3218-8.1939,22.4214-14.1084,6.1489-21.8315-10.2187-44.6025-.2934-12.6231,5.5019-19.2808,12.5268-15.9365,20.2,3.6679,8.4155,12.6987,6.8354,24.9155,4.456l16.6089-3.1152c22.5932-4.2515,50.8725-6.2686,61.8764,18.9775,12.8379,29.4541-9.6928,55.4737-36.9194,67.34-32.6714,14.24-66.2627,11.5039-74.03-6.3174-3.4521-7.92-2.1255-17.04,8.0225-21.4629,15.5932-6.7964,26.7876,14.8325,53.519,3.1811,12.8706-5.6093,18.5576-14.8623,15.3213-22.2876-3.9917-9.1582-12.5595-7.1909-26.8325-4.7988l-23.5518,4.08c-23.3037,3.9722-43.4155,2.4292-53.9878-21.8271C571.8184,214.1646,596.2783,190.5444,621.2773,179.6484Z" transform="translate(-28.7666 -40.896)"/><path d="M768.896,211.4648c5.2661,20.1123,22.1558,31.32,44.3579,25.5069,28.7319-7.5225,23.8076-26.3291,39.2188-30.3643,9.142-2.3935,17.7236,3.7329,19.57,10.7852,6.018,22.9858-28.0069,43.3379-50.9927,49.3559-53.2847,13.9517-82.835-16.8276-91.52-50-11.6265-44.4038,7.4809-81.2246,52.6684-93.0561C826.08,112.2021,859.2935,136.72,867.5,168.064c3.42,13.06.3906,17.4814-12.4082,20.8325Zm61.1226-39.4482c-6.6719-16.9536-23.0831-26.333-40.0611-21.8877-19.0674,4.9927-27.4829,19.7559-26.8061,39.3955Z" transform="translate(-28.7666 -40.896)"/><path d="M884.2207,67.0527c-1.3008-12.8945,5.812-20.396,17.6318-21.5883s20.2876,4.7373,21.5884,17.6318l8.9971,89.1855,38.64-52.7436c3.5962-4.7046,8.375-8.4434,14.2847-9.04,8.8647-.894,19.3213,5.92,20.3242,15.86.7046,6.9844-1.4966,9.3774-4.6094,13.4907l-25.95,33.2818,46.36,50.6816a21.514,21.514,0,0,1,5.3027,12.2192c1.0029,9.94-6.1348,19.8858-16.6113,20.9429-9.67.9756-15.2622-3.3452-18.6509-7.3452l-42.3555-48.6431-12.4809,13.47,3.0083,29.8184c1.3008,12.894-5.812,20.396-17.6319,21.5884s-20.2876-4.7378-21.5883-17.6319Z" transform="translate(-28.7666 -40.896)"/><path d="M1050.9766,118.3628l-6.7486-.1411c-11.0678-.2315-15.5664-4.6465-15.3857-13.2847s4.86-12.8613,15.9277-12.63l6.7486.1411.5024-24.0249c.271-12.9575,8.2407-19.5424,20.1177-19.2939s19.5654,7.1606,19.2939,20.1182l-.5019,24.0249,11.8769.2485c11.6074.2427,17.7432,3.8818,17.5459,13.33s-6.48,12.8276-18.0879,12.5849l-11.8769-.2485L1088.74,198.01c-.125,5.9389,3.0469,9.246,10.0655,9.3925l5.6689.1187c8.6377.1806,13.665,5.147,13.49,13.5151-.2373,11.3379-10.0849,17.3433-28.98,16.9478-28.6143-.5982-40.2437-12.7241-39.7578-35.9395Z" transform="translate(-28.7666 -40.896)"/><path d="M1143.0654,112.5542c1.0879-10.4736,6.334-19.1577,21.6416-17.5669s18.6553,11.168,17.5674,21.6416l-11.2471,108.2275c-1.0888,10.4737-6.3349,19.1582-21.6425,17.5674s-18.6553-11.1684-17.5664-21.6421Zm27.251-71.5464a20.52,20.52,0,1,1-22.5312,18.2891A20.5111,20.5111,0,0,1,1170.3164,41.0078Z" transform="translate(-28.7666 -40.896)"/><path d="M1289.4619,115.45c46.3545,10.4521,63.9863,47.6406,54.8408,88.2017-8.6709,38.4536-35.0312,68.2133-87.4443,56.3955s-63.4522-50.0113-54.7822-88.4649C1211.2217,131.0215,1243.1064,104.998,1289.4619,115.45Zm-26.19,116.1519c22.915,5.1665,37.292-13.18,42.5771-36.6211,5.6416-25.021-.4131-46.0376-22.8007-51.0855s-36.876,11.3364-42.5176,36.3574C1235.2451,203.6938,1240.3574,226.4351,1263.2715,231.6021Z" transform="translate(-28.7666 -40.896)"/><path d="M1389.6357,161.7676c4.5039-10.9932,12.4688-16.1919,23.962-11.4834s13.5214,14.001,9.0175,24.9941l-1.9443,4.7471.5.2051c15.77-9.2954,32.9023-13.3648,53.64-4.8692,21.9864,9.0074,41.4678,29.8267,26.3194,66.8042l-29.0694,70.9566c-3.9912,9.7441-11.4687,16.6015-25.7109,10.7671s-14.7588-15.9668-10.7666-25.711l26.1006-63.7109c6.0391-14.7412,3.0928-28.2031-12.6475-34.6514a30.6117,30.6117,0,0,0-39.5039,17.3711L1384.8643,277.4c-3.9922,9.7441-11.47,16.6011-25.711,10.7671s-14.7588-15.9668-10.7666-25.7109Z" transform="translate(-28.7666 -40.896)"/><path d="M1545.1514,300.9663c-10.9473,17.6743-7.4326,37.6377,12.0781,49.7232,25.249,15.64,35.4863-.8868,49.0283,7.5019,8.0342,4.9761,9.5078,15.417,5.668,21.6143-12.5117,20.2-50.7061,9.563-70.9053-2.9488-46.8252-29.0053-44.8789-71.6294-26.8223-100.7807,24.1709-39.0215,64.0225-50.544,103.7325-25.9468,38.5625,23.8867,43.6787,64.8511,26.6162,92.3955-7.1084,11.4771-12.4,12.3281-23.6475,5.3613Zm70.705,17.1172c7.6905-16.5161,3.1807-34.8726-11.74-44.1147-16.7558-10.379-33.2539-6.3057-47.0215,7.7163Z" transform="translate(-28.7666 -40.896)"/><path d="M1695.5654,325.3438c7.8282-8.9366,17.05-11.2676,26.3926-3.0835s8.2441,17.6323.416,26.5683l-3.3808,3.8589.4062.356c17.9346-3.6724,35.46-1.96,52.3164,12.8066,17.8721,15.6567,29.541,41.6728,3.209,71.731L1724.3965,495.26c-6.9385,7.9209-16.2373,11.98-27.8135,1.8379s-8.7773-19.8931-1.8379-27.814l45.3682-51.7891c10.4971-11.9824,12.08-25.6718-.7149-36.8808a30.6125,30.6125,0,0,0-43.0039,3.6069l-42.8779,48.9458c-6.9385,7.9209-16.2373,11.98-27.8145,1.8379s-8.7763-19.8931-1.8378-27.814Z" transform="translate(-28.7666 -40.896)"/></g><g id="circle"><path d="M1052.8086,380.45a776.7159,776.7159,0,0,1,436.4125,133.2847A783.0563,783.0563,0,0,1,1772.104,857.2328a779.5181,779.5181,0,0,1-71.9625,740.2471,783.0547,783.0547,0,0,1-343.4983,282.8832,779.5177,779.5177,0,0,1-740.2471-71.9625A783.057,783.057,0,0,1,333.5129,1464.902a779.5181,779.5181,0,0,1,71.9625-740.2471A783.0593,783.0593,0,0,1,748.9739,441.772,775.68,775.68,0,0,1,1052.8086,380.45m0-55c-461.4989,0-835.6179,374.1185-835.6179,835.6174s374.119,835.6178,835.6179,835.6178,835.6174-374.1189,835.6174-835.6178S1514.3075,325.45,1052.8086,325.45Z" transform="translate(-28.7666 -40.896)"/></g><g id="arcs"><path id="arc_base" data-name="arc base" class="cls-4" d="M111.09,1487.8739a995.11,995.11,0,0,1-54.823-326.8065c0-235.31,81.557-451.5717,217.946-622.0594" transform="translate(-28.7666 -40.896)"/><path id="arc_base-2" data-name="arc base" class="cls-4" d="M1831.405,539.0085c136.3887,170.4876,217.9456,386.7489,217.9456,622.0589a995.1075,995.1075,0,0,1-54.8231,326.8066" transform="translate(-28.7666 -40.896)"/></g></g></g></g></svg>