<svg xmlns="http://www.w3.org/2000/svg" viewBox="0 0 2202.0887 2232.6717"><defs><style>.cls-1{fill:none;stroke:#000;stroke-linecap:round;stroke-miterlimit:10;stroke-width:55px;}</style></defs><g id="Layer_2" data-name="Layer 2"><g id="inner"><g id="silhouette"><g id="box"><path d="M1438.0919,1548s4.7044,172.4925,3.92,168.5723,167.0042-278.34,167.0042-278.34l2.3522-186.6056Z" transform="translate(-51.6845 -40.896)"/><polygon points="654.882 1470.253 690.165 1630.2 1362.102 1684.3 1359.75 1513.376 654.882 1470.253"/><path d="M1275.7922,1419.4142l24.3058-19.6015,25.09-20.3854,31.3623-7.0566,32.1462-1.5681,30.5783,10.1928,3.92,29.01-.7841,29.01-29.01,25.09-35.2826,17.2493-39.2028-3.1363-38.4188-13.3289Zm-2.3522-214.8316-4.7043,32.93,38.4187,39.2029,9.4087,10.1928-10.1928,9.4086-30.5781,28.2261-31.3623,28.226-31.3623,28.2261-6.2725,5.4884-7.0565-3.1362L1157.4,1370.0185l-.784-.7839h0l-39.987-17.2493-43.9071-10.9768-24.3058-5.4884,18.8173-17.2493,28.2261-26.658,15.6812-19.6014-10.1928-10.9767-6.2725-7.0565,4.7044-8.6247,18.0334-32.1464-8.6247-14.897-88.5984-3.1362L881.4114,1324.5433l23.5217-1.5682h3.92l25.8739,4.7044,10.9768,1.5681,1.5681,11.7609,3.92,39.2028,1.5682,10.1928-9.4088,4.7044L919.83,1408.4374h0l-23.5217,11.7609-1.5681.784-2.3522.7841-25.09,3.92-1.5681.7841h-1.5681l-25.8739-1.5682H836.72l-26.658-3.92-11.7608-1.5681-1.5681-11.7609v-3.92l-91.7347,85.4623,708.7876,38.4188,192.878-309.7026Z" transform="translate(-51.6845 -40.896)"/></g><g id="stick"><polygon points="1023.389 1287.568 1068.864 1298.544 1109.635 1315.794 1151.974 1329.907 1183.337 1301.681 1213.915 1274.239 1244.493 1245.228 1202.154 1201.321 1208.426 1156.63 1206.074 1112.723 1207.642 1070.384 1177.064 1090.769 1147.27 1114.291 1093.954 1110.371 1039.854 1109.587 1061.808 1140.165 1079.841 1172.311 1058.672 1210.73 1076.705 1230.331 1053.183 1260.126 1023.389 1287.568"/><polygon points="1111.987 973.945 1123.748 1036.669 1136.293 1099.394 1070.432 1094.69 1059.456 1031.181 1046.127 968.456 1090.818 977.865 1111.987 973.945"/><polygon points="1159.031 941.014 1166.087 1005.307 1170.792 1067.248 1148.838 1093.121 1134.725 1033.533 1122.964 973.161 1159.031 941.014"/></g><g id="ball"><polygon points="1022.605 685.412 970.073 743.432 1024.957 814.781 1089.25 800.668 1101.011 726.967 1022.605 685.412"/><polygon points="1009.276 869.665 1001.435 937.878 992.027 941.798 981.834 944.151 980.266 944.935 935.575 913.572 898.724 873.585 898.724 866.529 907.349 842.223 973.993 836.735 1009.276 869.665"/><polygon points="923.03 662.674 917.541 726.967 887.747 767.738 866.578 753.625 861.089 750.488 884.611 663.458 890.883 663.458 923.03 662.674"/><polygon points="1049.263 576.428 1028.093 632.88 974.777 654.049 934.791 630.528 934.791 608.574 936.359 599.95 1021.037 559.179 1028.877 565.451 1049.263 576.428"/><polygon points="1249.982 686.98 1248.413 692.468 1209.211 725.399 1157.463 686.98 1171.576 615.631 1197.45 617.199 1209.211 616.415 1249.982 686.98"/><polygon points="1231.164 872.017 1171.576 930.822 1162.951 926.117 1129.237 905.732 1114.34 853.2 1153.543 820.27 1209.211 835.167 1225.676 866.529 1231.164 872.017"/><path d="M1121.3329,619.676l67.429,14.113,56.4521,35.2826,30.5782,67.4289,18.8173,72.1332-13.329,46.2594-14.113,46.2594-59.5884,46.2593-49.3956,25.8739-56.4521-1.568-61.1565-8.6247-.7841-.784-39.9869-27.442-27.442-36.8507-25.8739-50.18-10.9768-47.0435.784-.784,2.3522-3.92.7841-4.7043,18.8174-77.6217,41.555-58.02,77.6217-32.93,43.9073-3.1363m.784-22.7376-49.3956,4.7043L986.475,638.4933l-47.8274,66.6449-19.6014,83.11-7.0565,9.4087,14.113,60.3724,28.2261,54.1,30.5782,41.5551,43.1231,29.01,3.1363,3.1363,68.997,10.1927,63.5087,1.5681,56.4521-29.01,67.4289-51.7478,15.6812-53.3159,14.897-52.5318-20.3855-79.9738-34.4985-75.2695-65.8607-40.7709-75.27-18.0333Z" transform="translate(-51.6845 -40.896)"/></g></g></g><g id="outer"><g id="silhouette-2" data-name="silhouette"><g id="text"><path d="M230.0469,1303.2158c9.7207,1.82,14.0625,7.6485,15.8183,17.4932l1.7129,9.5976c1.625,9.1065.8594,17.6231-10.9023,24.293l-126.91,72.9268c-3.6748,2.1787-10.373,5.914-14.8027,6.7041-9.8447,1.7568-19.2568-5.4522-21.1016-15.7881-1.58-8.86.4766-15.83,7.8252-20.1885l27.6885-15.6064-11.5938-64.9727L66.36,1312.3613c-8.3584-1.3017-12.5674-6.3906-14.28-15.9892-1.9766-11.0752,3.5527-19.9336,14.3818-21.8662,4.4307-.79,12.0069.3974,16.208,1.1709Zm-27.1543,29.9863-.0879-.4921-75.3858-11.1817,8.4317,47.2529Z" transform="translate(-51.6845 -40.896)"/><path d="M243.3135,1413.6807c11.55-4.0811,21.9951.7129,26.1592,12.499s-.9483,22.0771-12.4981,26.1592l-56.1016,19.8242,88.4356,37.1592c6.2969,2.8125,11.4844,5.4873,13.9,12.3232,3.248,9.1924.84,20.3848-9.0606,23.8828-5.8925,2.083-10.9824.4346-15.4492-1.6992l-55.7168-24.8574-54.8457,72.1474c-4.1719,5.4512-7.789,10.9727-12.7392,12.7217-14.3789,5.0811-22.37-4.0273-25.6182-13.22-2.75-7.7793-2.3633-12.6885,4.0547-20.7891l53.0859-68.874L158.209,1487.24l-38.4219,13.5782c-11.5508,4.081-21.9941-.7129-26.16-12.4991-4.1641-11.7861.9492-22.0771,12.499-26.1591Z" transform="translate(-51.6845 -40.896)"/><path d="M305.11,1610.3828l-18.8125-33.8779c-5.7041-10.2725-5.07-21.4912,4.7646-26.9522s19.6934-.0693,25.3984,10.2032l57.5274,103.6c5.7051,10.2735,5.0713,21.4913-4.7637,26.9532s-19.6934.0683-25.3984-10.2041l-18.8116-33.878L212.89,1708.49c-10.71,5.9463-21.8056,2.958-27.874-7.9707s-2.74-21.9277,7.97-27.875Z" transform="translate(-51.6845 -40.896)"/><path d="M375.3408,1693.6475c9.9707-7.1172,21.333-5.3975,28.5947,4.7763s5.1944,21.4795-4.7773,28.5957l-118.4316,84.5254c-9.9707,7.1172-21.334,5.3975-28.5957-4.7763s-5.1934-21.48,4.7773-28.5957Z" transform="translate(-51.6845 -40.896)"/><path d="M355.5615,1911.1318c-11.5908,4.6651-18.7881.3692-27.2881-9.1338s-11.9707-17.1337-6.0468-28.1347L394.4,1741.5527a35.42,35.42,0,0,1,7.2783-9.8632c10.249-9.167,20.6025-4.3409,27.4365,3.2988,7.334,8.1992,7.0479,16.5049.417,27.4668l-66.64,109.248.334.3721,116.9746-52.9727c11.6308-5.372,19.916-4.7334,26.25,2.3477,6.833,7.6406,10.48,18.4668.23,27.6338a35.4255,35.4255,0,0,1-10.6113,6.1367Z" transform="translate(-51.6845 -40.896)"/><path d="M511.3242,1852.3711c8.1758-9.1221,19.6406-9.9258,28.9473-1.582,9.3086,8.3437,9.7588,19.8271,1.582,28.9482l-97.1181,108.3438c-8.1768,9.121-19.6407,9.9248-28.9483,1.581s-9.7578-19.8262-1.582-28.9482Z" transform="translate(-51.6845 -40.896)"/><path d="M583.04,1934.7588l-31.5654-22.4756c-9.57-6.8154-13.8291-17.2129-7.3047-26.377s17.7442-8.541,27.3164-1.7265l96.5264,68.7324c9.5713,6.8154,13.8291,17.2129,7.3047,26.377s-17.7442,8.541-27.3154,1.7255l-31.5645-22.4755-74.3867,104.47c-7.1055,9.9785-18.4082,12.0586-28.59,4.8086s-11.914-18.6113-4.8086-28.59Z" transform="translate(-51.6845 -40.896)"/><path d="M678.7285,1987.7734c8.0625-16.373,19.125-17.3349,32.1338-10.9287l86.3516,42.52c10.7656,5.3008,17.0693,12.3067,11.3271,23.97-5.7441,11.663-15.14,10.9375-25.9062,5.6367l-71.1-35.0108L694.3066,2048.95l62.3516,30.7031c9.6445,4.749,15.9453,11.1953,10.3125,22.6338s-14.583,10.375-24.2275,5.626L680.3906,2077.21l-19.2168,39.0263,72.8936,35.8946c10.7666,5.3007,17.0693,12.3066,11.3271,23.97s-15.14,10.9375-25.9052,5.6357l-88.1455-43.4033c-13.0088-6.4062-18.9922-15.7617-10.93-32.1348Z" transform="translate(-51.6845 -40.896)"/><path d="M862.86,2078.9551l-37.1377-11.0684c-11.26-3.3564-18.65-11.82-15.4375-22.6015s14.0312-13.8184,25.2929-10.462l113.5674,33.8487c11.2607,3.3564,18.6514,11.82,15.4385,22.6015s-14.0332,13.8184-25.293,10.462l-37.1377-11.0684L865.52,2213.5781c-3.499,11.74-13.5224,17.3614-25.5019,13.791s-17.291-13.7617-13.791-25.5019Z" transform="translate(-51.6845 -40.896)"/><path d="M1058.0693,2161.5361c36.1338,13.1475,42.7608,36.4151,40.12,57.2491-4.086,32.2421-31.44,53.2187-80.5479,46.9951-51.5869-6.5381-71.3838-35.2549-68.9326-54.6006,1.2578-9.92,9.33-15.9531,19.251-14.6963,22.0732,2.7978,12.2822,34.3174,53.4541,39.5352,21.081,2.6718,34.2148-7.5079,35.7236-19.4122.9111-7.1923-1.5547-15.5693-15.0029-20.8017l-44.4063-17.4717c-35.76-14.1084-39.8789-35.2949-37.459-54.3916,5.0293-39.6826,43.6221-49.9121,78.0967-45.543,31.7461,4.0235,66.9326,26.628,63.915,50.4375-1.288,10.168-10.7226,15.0205-20.6445,13.7627-18.8486-2.3886-12.0137-28.4863-49.959-33.2959-18.85-2.3886-30.3672,4.9717-31.9384,17.3731s12.8066,18.2549,25.3261,22.8652Z" transform="translate(-51.6845 -40.896)"/><path d="M1124.0029,2110.1631c-.5595-12.2363,7.0547-20.8438,19.542-21.4151s20.8555,7.3038,21.416,19.5411l4.503,98.3984c1.1191,24.4736,15.3584,34.834,38.834,33.76s36.708-12.6914,35.5878-37.1661l-4.5029-98.3974c-.56-12.2373,7.0547-20.8447,19.542-21.416s20.8555,7.3037,21.416,19.541l4.3545,95.1514c2.2627,49.4492-27.1885,73.07-74.8887,75.2529s-79.1865-18.6494-81.4492-68.0986Z" transform="translate(-51.6845 -40.896)"/><path d="M1348.9922,2106.168l-37.8184,8.4414c-11.4668,2.56-22.0459-1.2276-24.4961-12.2061s5.5137-18.9053,16.9815-21.4648l115.65-25.8135c11.4668-2.56,22.0459,1.2275,24.4961,12.2061s-5.5137,18.9052-16.9815,21.4648l-37.8183,8.44,27.9375,125.166c2.6689,11.9561-3.3418,21.75-15.5411,24.4727s-21.8046-3.5859-24.4726-15.541Z" transform="translate(-51.6845 -40.896)"/><path d="M1559.7256,2083.0576c37.9541-6.15,55.09,10.9268,62.9482,30.4,12.1621,30.1377-1.4824,61.793-47.3847,80.3164-48.22,19.458-79.5088,4.0488-86.8057-14.0342-3.7422-9.2724.3613-18.4765,9.6338-22.2187,20.6328-8.3262,27.4629,23.9629,65.9463,8.4336,19.7051-7.9522,26.2041-23.2451,21.7138-34.3721-2.7138-6.7236-8.9531-12.832-23.2451-10.8389l-47.2842,6.4112c-38.0976,5.13-52.0283-11.3545-59.2314-29.2051-14.9687-37.0918,13.7285-64.8467,45.9531-77.8506,29.6739-11.9746,71.4151-9.4092,80.3965,12.8457,3.835,9.5049-2.0332,18.3428-11.3066,22.085-17.6192,7.11-24.3828-19.0049-59.8526-4.6914-17.6191,7.1093-24.081,19.1523-19.4033,30.7441s20.084,9.6875,33.2608,7.6045Z" transform="translate(-51.6845 -40.896)"/><path d="M1593.8018,2004.2354c-6.3819-10.4561-3.8516-21.6661,6.8183-28.1788s21.7959-3.6386,28.1787,6.8174l30.9991,50.7881,18.0644-94.208c1.45-6.7432,2.9932-12.3711,9.1816-16.1484,8.3233-5.08,19.7715-5.0381,25.2413,3.9248,3.2568,5.3349,2.6962,10.6552,1.5322,15.4668l-12.7959,59.6523,81.9306,38.7393c6.1973,2.9541,12.3467,5.3515,15.0821,9.832,7.9453,13.0176.6865,22.72-7.6358,27.8-7.042,4.2979-11.9248,4.9355-21.1787.332l-78.3642-37.6943-7.4825,30.9277,21.23,34.7832c6.3819,10.4571,3.8516,21.667-6.8183,28.1787s-21.7959,3.6387-28.1788-6.8173Z" transform="translate(-51.6845 -40.896)"/><path d="M1770.4912,1854.4463c44.21-39.0674,94.1787-30.8457,129.1084,8.6807,33.6055,38.0283,41.794,91.8447-4.2891,132.5683-48.332,42.71-96,28.7852-132.0888-12.0527C1728.292,1944.1152,1726.28,1893.5146,1770.4912,1854.4463Zm102.9678,116.52c27.9121-24.665,18.2627-54.8389-4.582-80.69s-51.4317-33.2842-76.5342-11.1016-21.2432,51.4668,1.6015,77.3184S1844.6094,1996.4609,1873.459,1970.9668Z" transform="translate(-51.6845 -40.896)"/><path d="M1898.1416,1778.9443l-24.2168,30.252c-7.3428,9.1728-17.9639,12.84-26.7471,5.81s-7.53-18.1973-.1865-27.37l74.0547-92.5127c7.3437-9.1738,17.9648-12.8408,26.7471-5.8105s7.53,18.1973.1875,27.37l-24.2168,30.2529,100.125,80.1485c9.5634,7.6553,11.0049,19.0566,3.1933,28.8154s-19.2519,10.8486-28.8154,3.1934Z" transform="translate(-51.6845 -40.896)"/><path d="M1991.5264,1645.9307l-18.8,33.8847c-5.7012,10.2754-15.5567,15.6719-25.3946,10.2129s-10.4756-16.6758-4.7744-26.9512l57.4922-103.622c5.7012-10.2744,15.5566-15.6709,25.3945-10.2129s10.4746,16.6767,4.7745,26.9512l-18.8008,33.8847,112.1484,62.2227c10.7119,5.9433,14.0449,16.9424,7.98,27.873s-17.16,13.9229-27.8721,7.9795Z" transform="translate(-51.6845 -40.896)"/><path d="M2033.5,1544.8818c-17.1777-6.164-19.3809-17.0478-14.4834-30.6953l32.5107-90.5927c4.0528-11.295,10.3028-18.3487,22.5391-13.9571s12.5742,13.8086,8.5215,25.1035l-26.7686,74.5918,36.708,13.1729,23.4747-65.4151c3.6308-10.1181,9.3251-17.1054,21.3261-12.7988s11.9531,13.32,8.3223,23.4385l-23.4746,65.415,40.9433,14.6934,27.4434-76.4746c4.0527-11.2949,10.3027-18.3487,22.5391-13.9571s12.5742,13.8086,8.5214,25.1036l-33.1855,92.4746c-4.8984,13.6484-13.5186,20.6474-30.6963,14.4834Z" transform="translate(-51.6845 -40.896)"/><path d="M2103.3232,1351.6533l-6.8095,38.1475c-2.0645,11.5664-9.6407,19.8642-20.7149,17.8877s-15.3125-12.3838-13.248-23.95l20.8232-116.6563c2.0645-11.5664,9.6406-19.8642,20.7158-17.8877s15.3116,12.3828,13.2471,23.95l-6.81,38.1475,126.2539,22.5361c12.06,2.1524,18.7754,11.4776,16.5792,23.7832s-11.7237,18.73-23.7833,16.5782Z" transform="translate(-51.6845 -40.896)"/><path d="M389.0684,376.5034c-12.7168-15.06-8.8829-26.4243,3.082-36.5273l41.26-34.8389c36.9277-31.1807,84.3476-43.6572,133.4707,14.519,39.7158,47.0362,36.51,96.39-8.67,134.5386L517.57,488.5112c-11.9648,10.1031-23.81,11.9781-36.5273-3.082Zm119.5371,72.9312,28.4687-24.0391c27.0254-22.8193,15.3086-54.2725-4.0263-77.1714-24.7354-29.2944-50.8565-37.63-75.6124-16.7265l-28.2636,23.8647Z" transform="translate(-51.6845 -40.896)"/><path d="M654.1211,273.521c10.4258-6.2378,21.2617-7.0581,28.332,4.7578s1.2246,20.9775-9.2021,27.2153l-38.2285,22.8736c-10.4268,6.2383-21.2627,7.0581-28.3321-4.7578s-1.2246-20.9771,9.2022-27.2154Z" transform="translate(-51.6845 -40.896)"/><path d="M726.6523,179.6484c27.4737-11.9746,59.9415-13.1665,67.17,3.417,3.6679,8.4151,1.2109,18.3218-8.1934,22.4214-14.1094,6.1489-21.832-10.2187-44.6035-.2934-12.6231,5.5019-19.28,12.5268-15.9356,20.2,3.668,8.4155,12.6983,6.8354,24.9151,4.456l16.6084-3.1152c22.5937-4.2515,50.873-6.2686,61.8769,18.9775,12.8379,29.4541-9.6933,55.4737-36.92,67.34-32.6709,14.24-66.2617,11.5039-74.0293-6.3174-3.4531-7.92-2.126-17.04,8.0215-21.4629,15.5937-6.7964,26.7881,14.8325,53.5195,3.1811,12.8711-5.6093,18.5576-14.8623,15.3213-22.2876-3.9912-9.1582-12.5595-7.1909-26.833-4.7988l-23.5508,4.08c-23.3047,3.9722-43.416,2.4292-53.9883-21.8271C677.1934,214.1646,701.6533,190.5444,726.6523,179.6484Z" transform="translate(-51.6845 -40.896)"/><path d="M874.2715,211.4648c5.2656,20.1123,22.1553,31.32,44.3574,25.5069,28.7324-7.5225,23.8076-26.3291,39.2188-30.3643,9.1425-2.3935,17.7236,3.7329,19.57,10.7852,6.0175,22.9858-28.0069,43.3379-50.9922,49.3559-53.2852,13.9517-82.836-16.8276-91.5215-50-11.626-44.4038,7.4814-81.2246,52.6689-93.0561,43.8819-11.49,77.0948,13.0278,85.3018,44.3721,3.42,13.06.3906,17.4814-12.4082,20.8325Zm61.1221-39.4482c-6.6719-16.9536-23.0831-26.333-40.0616-21.8877-19.0664,4.9927-27.4824,19.7559-26.8056,39.3955Z" transform="translate(-51.6845 -40.896)"/><path d="M989.5957,67.0527c-1.3008-12.8945,5.8125-20.396,17.6318-21.5883s20.2881,4.7373,21.5889,17.6318l8.9961,89.1855,38.6406-52.7436c3.5957-4.7046,8.375-8.4434,14.2852-9.04,8.8642-.894,19.32,5.92,20.3242,15.86.7041,6.9844-1.4971,9.3774-4.6094,13.4907l-25.95,33.2818,46.36,50.6816a21.5106,21.5106,0,0,1,5.3027,12.2192c1.0029,9.94-6.1348,19.8858-16.6113,20.9429-9.67.9756-15.2617-3.3452-18.65-7.3452l-42.3555-48.6431-12.4814,13.47,3.0088,29.8184c1.3008,12.894-5.8125,20.396-17.6328,21.5884s-20.2872-4.7378-21.5879-17.6319Z" transform="translate(-51.6845 -40.896)"/><path d="M1156.3516,118.3628l-6.7481-.1411c-11.0683-.2315-15.5664-4.6465-15.3867-13.2847.1816-8.6382,4.86-12.8613,15.9277-12.63l6.7491.1411.5029-24.0249c.27-12.9575,8.24-19.5424,20.1172-19.2939s19.5654,7.1606,19.2939,20.1182l-.5019,24.0249,11.8769.2485c11.6074.2427,17.7432,3.8818,17.5459,13.33s-6.48,12.8276-18.0879,12.5849l-11.8769-.2485-1.6485,78.8233c-.125,5.9389,3.0469,9.246,10.0655,9.3925l5.6689.1187c8.6377.1806,13.665,5.147,13.49,13.5151-.2373,11.3379-10.0849,17.3433-28.98,16.9478-28.6143-.5982-40.2442-12.7241-39.7578-35.9395Z" transform="translate(-51.6845 -40.896)"/><path d="M1248.44,112.5542c1.0879-10.4736,6.334-19.1577,21.6416-17.5669s18.6553,11.168,17.5674,21.6416l-11.2471,108.2275c-1.0888,10.4737-6.3349,19.1582-21.6425,17.5674s-18.6553-11.1684-17.5664-21.6421Zm27.251-71.5464A20.52,20.52,0,1,1,1253.16,59.2969,20.5111,20.5111,0,0,1,1275.6914,41.0078Z" transform="translate(-51.6845 -40.896)"/><path d="M1394.8369,115.45c46.3545,10.4521,63.9863,47.6406,54.8408,88.2017-8.6709,38.4536-35.0312,68.2133-87.4443,56.3955s-63.4522-50.0113-54.7822-88.4649C1316.5967,131.0215,1348.4814,104.998,1394.8369,115.45Zm-26.19,116.1519c22.915,5.1665,37.292-13.18,42.5771-36.6211,5.6416-25.021-.4131-46.0376-22.8007-51.0855s-36.876,11.3364-42.5176,36.3574C1340.62,203.6938,1345.7324,226.4351,1368.6465,231.6021Z" transform="translate(-51.6845 -40.896)"/><path d="M1495.0107,161.7676c4.5039-10.9932,12.4688-16.1919,23.962-11.4834s13.5214,14.001,9.0175,24.9941l-1.9443,4.7471.5.2051c15.77-9.2954,32.9023-13.3648,53.64-4.8692,21.9864,9.0074,41.4678,29.8267,26.3194,66.8042l-29.0694,70.9566c-3.9912,9.7441-11.4687,16.6015-25.7109,10.7671s-14.7588-15.9668-10.7666-25.711l26.1006-63.7109c6.0391-14.7412,3.0928-28.2031-12.6475-34.6514a30.6117,30.6117,0,0,0-39.5039,17.3711L1490.2393,277.4c-3.9922,9.7441-11.47,16.6011-25.711,10.7671S1449.77,272.2,1453.7617,262.4561Z" transform="translate(-51.6845 -40.896)"/><path d="M1650.5264,300.9663c-10.9473,17.6743-7.4326,37.6377,12.0781,49.7232,25.249,15.64,35.4863-.8868,49.0283,7.5019,8.0342,4.9761,9.5078,15.417,5.668,21.6143-12.5117,20.2-50.7061,9.563-70.9053-2.9488-46.8252-29.0053-44.8789-71.6294-26.8223-100.7807,24.1709-39.0215,64.0225-50.544,103.7325-25.9468,38.5625,23.8867,43.6787,64.8511,26.6162,92.3955-7.1084,11.4771-12.4,12.3281-23.6475,5.3613Zm70.705,17.1172c7.6905-16.5161,3.1807-34.8726-11.74-44.1147-16.7558-10.379-33.2539-6.3057-47.0215,7.7163Z" transform="translate(-51.6845 -40.896)"/><path d="M1800.94,325.3438c7.8282-8.9366,17.05-11.2676,26.3926-3.0835s8.2441,17.6323.416,26.5683l-3.3808,3.8589.4062.356c17.9346-3.6724,35.46-1.96,52.3164,12.8066,17.8721,15.6567,29.541,41.6728,3.209,71.731L1829.7715,495.26c-6.9385,7.9209-16.2373,11.98-27.8135,1.8379s-8.7773-19.8931-1.8379-27.814l45.3682-51.7891c10.4971-11.9824,12.08-25.6718-.7149-36.8808a30.6125,30.6125,0,0,0-43.0039,3.6069l-42.8779,48.9458c-6.9385,7.9209-16.2373,11.98-27.8145,1.8379s-8.7763-19.8931-1.8378-27.814Z" transform="translate(-51.6845 -40.896)"/></g><g id="circle"><path d="M1158.1836,380.45a776.7179,776.7179,0,0,1,436.4126,133.2847A783.0546,783.0546,0,0,1,1877.479,857.2328a779.5189,779.5189,0,0,1-71.9624,740.2471,783.0533,783.0533,0,0,1-343.4985,282.8832,779.519,779.519,0,0,1-740.2471-71.9625A783.0569,783.0569,0,0,1,438.8882,1464.902a779.5189,779.5189,0,0,1,71.9624-740.2471A783.0549,783.0549,0,0,1,854.3491,441.772,775.68,775.68,0,0,1,1158.1836,380.45m0-55c-461.499,0-835.6177,374.1185-835.6177,835.6174s374.1187,835.6178,835.6177,835.6178,835.6177-374.1189,835.6177-835.6178S1619.6826,325.45,1158.1836,325.45Z" transform="translate(-51.6845 -40.896)"/></g><g id="arcs"><path id="arc_base" data-name="arc base" class="cls-1" d="M161.9011,1184.04q-.2591-11.4552-.26-22.973c0-235.31,81.557-451.5717,217.946-622.0594" transform="translate(-51.6845 -40.896)"/><path id="arc_base-2" data-name="arc base" class="cls-1" d="M1936.78,539.0085c136.3887,170.4876,217.9456,386.7489,217.9456,622.0589q0,11.5145-.2594,22.9671" transform="translate(-51.6845 -40.896)"/></g></g></g></g></svg>