<svg xmlns="http://www.w3.org/2000/svg" viewBox="0 0 1203.1303 834.7402"><g id="Layer_2" data-name="Layer 2"><g id="inner"><g id="silhouette"><path id="_0_body" data-name="0 body" d="M93.4707,575.22a447.651,447.651,0,0,0,29.4337,75.3942,404.4313,404.4313,0,0,0,38.6826,63.2264Q251.0536,834.75,384.0546,834.74q133.02,0,222.9984-120.9,86.7942-116.332,86.69-278.89,0-162.558-87.24-278.34Q517.0367,37.5772,384.0357,37.6814q-133.02,0-222.4677,118.9287c-83.468,111.2338-86.8795,235.9051-87.24,278.34-.1895,20.6016.8908,37.7918,1.9711,49.9785.5307,5.5531,1.08,10.026,1.611,13.2479.398,3.2789.2085,2.2364.7771,6.1407m390.6166,43.2881c-22.9329,35.65-51.2293,53.5606-85.2685,53.5606s-64.1173-17.38-86.3489-52.31q-30.6182-48.358-30.6277-113.9251c0-43.7051,10.2156-82.2171,30.6277-113.3755q32.7789-50.2342,86.3489-50.3385c35.65,0,63.5865,17.02,85.7992,51.0588q31.1866,47.8178,31.1773,112.6742C501.0122,478.1249,490.4366,514.8364,469.3042,547.6057Z"/><g id="_1" data-name="1"><path id="body" d="M1020.375,101.647q-6.7377,53.3331-6.7282,261.4535,0,69.9072.8529,209.8641c.7012,93.5509,1.0234,163.43,1.0234,210.0346q0,11.4-10.3483,21.2271c-6.8988,6.3871-14.3283,9.6659-22.44,9.6659-19.5024,0-48.6707.1706-87.5049.7013-38.8342.3411-67.832.5307-87.3344.5307-15.0106,0-22.2695-6.3871-21.7389-19.3319l.5307-6.7282q8.5287-231.6977,8.4529-280.9559V327.9241c-.5306-6.0459-1.213-16.9248-7.7706-16.9248q-12.1677,0-36.75,7.24-24.5913,7.2495-37.28,7.24c-12.6036,0-18.8012-7.43-18.8012-22.44,0-13.8166-.17-34.3424-.7012-61.9566-.3411-27.4436-.5307-48.33-.5307-62.4683,0-8.1118,5.0036-14.1578,15.1812-18.1189q89.04-37.0147,140.1368-99.5779c6.8988-8.4529,12.7742-12.7741,17.6071-12.7741.7013,0,3.1083.5307,7.24,1.213,15.3707,3.2788,38.152,8.4529,68.5143,15.1811,16.2235,2.0659,39.8577,5.6859,70.94,11.05,5.6859,1.5541,8.6235,6.0459,8.6235,13.2859,0,2.407-.5307,6.7282-1.213,12.7742Z"/><g id="hands"><path d="M1006.6532,567.8663a164.06,164.06,0,0,0,40.8054-26.7235c2.1984-1.9521,3.6958-3.3925,5.06-4.6623,39.327-37.3939,58.9811-56.1,71.2436-64.1362,22.5916-14.7832,26.3444-9.8744,45.1075-25.1314,19.3129-15.6929,26.1928-29.7179,29.1684-37.318,3.07-7.8464,6.7282-17.6071,4.3023-29.87-.6823-3.3926-4.0938-18.5738-18.3083-27.7658a43.2975,43.2975,0,0,0-19.01-6.4629c-18.2705-1.7248-31.6132,8.2823-35.5744,11.41-8.9646,8.434-10.67,10.1208-18.3653,24.3733-9.0973,34.8921-3.4114,15.3328-8.2823,7.8275-3.8853-5.9891-12.0539-11.6939-19.0665-9.59-5.5152,1.6679-8.1876,7.3158-8.9268,9.0026-4.9277,11.2579,3.62,19.5782,1.232,36.1808a124.5476,124.5476,0,0,1-3.7526,17.5313c-12.3573,42.2268-32.8642,59.5117-62.3735,74.4655Zm-207.3623-6.7472a165.0429,165.0429,0,0,1-47.5146-11.0684c-2.7292-1.08-4.6435-1.8953-6.3492-2.6534-49.77-21.6251-74.655-32.4282-88.9453-35.745-26.2875-6.1217-28.1449-.2274-51.002-8.0928-23.5393-8.1118-34.8162-18.9149-40.2177-25.0177-5.5911-6.3112-12.3762-14.2145-14.29-26.5718-.5307-3.43-2.54-18.858,7.6569-32.3713a42.9484,42.9484,0,0,1,15.636-12.5846c16.5647-7.9033,32.542-3.0894,37.318-1.4973,11.3148,4.8519,13.4944,5.8375,25.6431,16.5837,20.5259,29.6421,8.4719,13.229,10.4809,4.5107,1.592-6.9556,7.3158-15.1243,14.6126-15.5412,5.7427-.3412,10.2156,4.0559,11.4664,5.3826,8.4909,8.87,3.3167,19.635,11.2579,34.3992a124.7591,124.7591,0,0,0,9.5523,15.1812c26.0979,35.4227,71.1487,45.2782,103.9748,49.1825Z"/></g></g><g id="_0_hands" data-name="0 hands"><path d="M669.9572,567.0513a164.9753,164.9753,0,0,0,47.8368-9.5522c2.7671-.9855,4.7-1.7626,6.425-2.4449,50.4334-20.0142,75.6595-30.0212,90.0257-32.9021,26.458-5.2878,28.1449.6823,51.2293-6.4819,23.7857-7.3536,35.4038-17.7966,40.9759-23.7288,5.7806-6.1407,12.8121-13.8166,15.1432-26.098.6444-3.4115,3.1272-18.7443-6.6334-32.5987a42.9549,42.9549,0,0,0-15.2191-13.0774c-16.2994-8.4151-32.4282-4.1128-37.2612-2.6913-11.4664,4.4918-13.6649,5.4015-26.1548,15.7687-21.4545,28.9787-8.8888,12.9447-10.5945,4.1885-1.3836-7.0125-6.8231-15.3327-14.12-15.9961-5.7237-.5307-10.3293,3.7337-11.6559,5.0225-8.7752,8.5856-3.9422,19.5213-12.3572,34.02a124.8892,124.8892,0,0,1-10.026,14.859c-27.2352,34.57-63.3592,42.8143-96.3181,45.6761ZM83.4826,486.4072A65.3048,65.3048,0,0,0,61.99,510.42a167.6212,167.6212,0,0,0-12.6415,35.6312c-.6823,2.8619-1.08,4.9088-1.44,6.7282-10.5188,53.2383-15.7877,79.848-21.17,93.494-9.9123,25.0935-15.8256,23.274-22.3453,46.548-6.7093,23.9753-4.2454,39.4028-2.2743,47.3061,2.0279,8.1876,4.6434,18.2705,13.7407,26.875,2.5207,2.3881,14.063,12.7932,30.9878,12.1109A42.969,42.969,0,0,0,66.084,773.409c15.9013-9.1353,21.0375-25.0177,22.459-29.8506,2.4449-12.0729,2.8619-14.4231.9287-30.514-12.7173-33.7359-6.0649-14.48,2.2364-11.1821,6.6335,2.6533,16.5837,2.5775,21.0945-3.1841,3.5441-4.53,2.4638-10.7083,2.1037-12.5088-2.4638-12.0351-14.2714-13.8924-21.89-28.8272a125.9879,125.9879,0,0,1-7.05-16.4889c-14.29-41.62-1.63-76.4555,13.8355-105.7Z"/></g><g id="hearts"><path id="right" d="M741.14,87.9082c8.2008-7.3507,14.97-13.205,19.5319-17.1063,15.3131-13.0968,20.7893-17.052,26.8086-25.915,5.0057-7.3706,8.6958-12.8038,8.2978-20.4255a26.5984,26.5984,0,0,0-17.8723-23.234c-13.6973-4.5243-24.9387,4.8289-26.2978,6A29.7416,29.7416,0,0,0,742.46,22.0513,34.065,34.065,0,0,0,727.48,7.1c-3.3349-1.639-14.2751-7.0161-23.1065-1.5318-8.65,5.3715-8.8825,17.1916-8.9361,19.9147-.1532,7.7806,2.8881,13.3313,6.8936,20.4256,1.7094,3.0273,5.8487,9.9037,20.8085,25.0213C727.4765,75.3121,733.5368,81.21,741.14,87.9082Z"/><path id="left" d="M652.9694,123.6954c1.5889-1.666,12.89-13.5106,15.9148-16.6808,15.5646-16.31,19.6315-20.562,22.9788-28a54.9133,54.9133,0,0,0,4.6809-22.0426c-.2412-1.995-1.3564-9.2186-7.4043-13.8723-8.8619-6.8191-20.4781-2.09-22.6684-1.198a28.9142,28.9142,0,0,0-13.7848,12.1912c-3.9119-13.5277-13.9156-22.8894-24.7383-23.5038-1.1234-.0637-9.9264-.43-16.0851,5.7872-6.1635,6.2216-5.778,15.0982-5.5319,20.766.1543,3.5525.8294,8.6356,4,16.34,6.9152,16.804,18.2026,27.8569,28.9362,38.17C644.9337,117.0975,649.8462,121.19,652.9694,123.6954Z"/></g></g></g></g></svg>