<?xml version="1.0" encoding="utf-8"?>
<!-- Generator: Adobe Illustrator 26.0.2, SVG Export Plug-In . SVG Version: 6.00 Build 0)  -->
<svg version="1.1" id="Layer_1" xmlns="http://www.w3.org/2000/svg" xmlns:xlink="http://www.w3.org/1999/xlink" x="0px" y="0px"
	 viewBox="0 0 1672.1 1672.1" style="enable-background:new 0 0 1672.1 1672.1;" xml:space="preserve">
<style type="text/css">
	.st0{fill:#F280A1;stroke:#000000;stroke-width:28;}
	.st1{fill:#FFFFFF;stroke:#000000;stroke-width:28;}
	.st2{fill:#F280A1;}
</style>
<g>
	<circle class="st0" cx="836" cy="836" r="822"/>
	<circle class="st1" cx="836.1" cy="836" r="578.8"/>
	<g>
		<path d="M324.4,303.1c-12.7-15.3-14.7-17.4-22.7-11.9l-3.6,2.4c-1.8,0.1-4.1-2.7-3.5-4.6c10.7-10.4,23.1-21.5,38.7-34.4
			c15.2-12.5,27.1-20.2,42.2-25.7c25-8.8,52.5-3.1,72.1,20.7c14.6,17.7,20.9,43.2,9.4,69.6c-6.6,15.1-18.7,28.4-33.3,40.4
			c-9.7,8-18,13.3-23.9,18.2c-6.1,5-13.1,11.1-19.9,17.2c-1.8,0.4-4.3-2.3-4.1-4.4l3.1-3.4c6.7-7.2,7.8-8.8-6.2-25.7L324.4,303.1z
			 M386,340c12.8,15.5,20.8,22.9,37.7,8.9c28.4-23.5,24.6-54.1,2.3-81.1c-26.1-31.6-57.1-31.8-83.8-9.8c-6.7,5.5-10.8,11-11.1,12.9
			c-0.3,1.9,2.3,5.4,8.5,12.9L386,340z"/>
		<path d="M505.9,217c1.7,0.4,3.7,2.6,5,5c1.3,2,1.9,4.3,1.7,6.7l-40.3,28.7c-1.7-0.4-3.8-2.8-4.9-4.8c-1.3-2.1-1.9-4.4-1.8-6.8
			L505.9,217z"/>
		<path d="M563.3,149.1c3.3,3.3,8,10.3,11.8,17.9c-0.4,2.2-3,3.8-5,3.1c-8.5-9.4-17.4-11.7-26.5-7.7c-7.9,3.5-11,10.5-8,17.1
			c3.4,7.6,12.1,8.4,21.8,8.2c15.2-0.4,30.8,1.5,37.9,17.6c7.8,17.1-4.5,32.1-22.9,40.3c-11,4.9-21,6.2-28,4.3
			c-5.2-4-9.7-11.8-12.9-19.9c0.3-1.9,3-3.8,5.1-2.7c8.5,10,21.4,16.1,34.1,10.5c7.6-3.4,11.3-10.2,8.2-17.2
			c-3.9-8.9-12.9-11.2-23.7-11c-14.3,0.5-29.3-2.2-35.3-15.8c-7-15.7,2.5-30.6,21.6-39C550.6,150.6,557.8,150,563.3,149.1z"/>
		<path d="M632.9,161.9c1,3.4,1.2,3.5,5.6,2.2l7.4-2.2c10.9-3.2,12.7-3.9,12.5-10.3l-0.2-5.1c0.8-1.5,4.3-2.3,5.7-1.2
			c1.1,4.6,2.2,9.7,3.7,14.7c1.6,5.4,3.4,10.2,5,14.7c-0.6,1.7-3.9,2.9-5.4,2l-2.6-4.4c-3.3-5.5-5.2-5.2-16.1-2l-7.4,2.2
			c-4.4,1.3-4.5,1.5-3.4,5.3l3.6,12.3c1.7,6,3.7,11.2,6.1,12.9c2.4,1.5,7.2,1.1,19.5-2.5c16.1-4.7,18.2-9.9,19.7-21.7
			c1.2-1,4-1.8,5.8-0.8c0.7,8.9,1.2,19.5,0.5,23.8c-12.6,3.3-23.2,6.2-33.9,9.3l-21.3,6.2c-7.9,2.3-15.4,4.7-24.7,7.9
			c-1.6-0.4-3.1-4-1.9-5.7l6-2.4c7.1-2.9,6.9-5.9,3.1-19l-12.1-41.3c-3.8-13.1-5.2-15.5-12.9-14.6l-2.5,0.3
			c-1.9-0.7-2.6-4.6-1.5-5.8c5.7-1.2,13.3-3.2,21.2-5.6l32-9.4c8.7-2.6,16.6-5.1,18.3-6c1.3,2.2,5,11.3,8.2,20
			c-0.3,1.8-3.6,3-5.4,2.2c-1.8-2.6-3.8-5.1-6-7.3c-3.5-3.3-8.9-2.6-18.7,0.3l-10.5,3.1c-5,1.5-5,2.1-2.2,11.6L632.9,161.9z"/>
		<path d="M728.7,137.1c0.6,4.1,1,7.6,3.1,7.3c4.9-0.7,7.5-3.5,11.3-9l12.4-18.2c1-1.6,4.4-7.5,4.2-8.9c-0.1-1-0.8-1.6-2.9-1.7
			l-2.5-0.3c-2-0.8-2.3-4.7-0.4-6c5.6-0.3,11.6-0.9,17.3-1.7c5.1-0.7,12.7-1.9,17.1-2.9c1.9,0.4,2.5,4.3,1.2,5.9
			c-3.4,1-6.7,2.2-9.9,3.8c-5.3,2.6-11.1,9.4-18.5,19.2l-5.5,7.2c-1.8,2.3-2.2,3.8-2.1,4.7c0.1,1,0.7,2.4,6.8,8.7
			c9.7,10.2,22.1,24.4,30,30.4c3.9,2.8,7.8,3.5,12.2,3.6l2.9,0c1.2,1.5,1.7,4.6,0.4,6c-6,0.4-12.8,1.1-22.4,2.4
			c-7.8,1.1-15.4,2.1-23.1,3.7c-1.8-0.6-2.5-4.7-1-5.9l2.8-1c3.4-1.3,3.8-2.8,2.8-4.1c-1.3-1.7-6.7-7.7-9.4-10.6l-9.3-10
			c-3.7-4.1-7.8-9.6-11.9-9.1c-3.7,0.5-3.6,1.5-2.7,7.9l1.7,12.3c1.8,13.5,2.9,16.5,10.6,16.3l4.2-0.1c1.8,1,1.9,5,0.6,6
			c-7.4,0.6-15.3,1.4-23.1,2.5c-8.2,1.1-16,2.4-22.1,3.6c-1.5-0.6-2.5-4.5-1-5.9l2.8-0.8c7.5-2,7.7-5,5.9-18.5l-5.7-42.7
			c-1.8-13.5-2.9-16.5-10.6-16.3l-3.5,0.1c-2-1-2.3-4.9-0.2-6c6.4-0.4,14.2-1.3,22.4-2.4c7.8-1.1,15.6-2.3,22.3-3.6
			c1.8,0.6,2.5,4.5,1,5.9l-4,1.2c-6.8,2-7.1,4.7-5.3,18.3L728.7,137.1z"/>
		<path d="M836.6,110.2c0.1-5.6,0.3-5.8-4.7-5.9l-6.4-0.1c-5.4-0.1-10.1,0.2-13.7,3.7c-2.3,2.4-3.8,4.9-6,9.8
			c-1.3,1.4-4.6,0.7-5.6-0.9c2.5-8,4.5-16.1,6-24.3c0.6-1.2,3.7-1.2,4.6,0.1c0.4,3.1,3,3.6,9.5,3.7l60,1c7,0.1,9.1-0.1,10.6-3.8
			c1-0.8,4.2-0.8,4.5,0.5c-1.5,8.3-2.3,16.6-2.5,25c-0.9,1.4-4.4,1.6-5.6,0.3c-0.5-4.4-1.5-8.3-4.4-10.8c-2.4-2.3-7.2-3.4-14.6-3.6
			l-5.4-0.1c-3.5-0.1-3.9,0.1-4,5.7l-0.9,52.8c-0.2,13.7,0.3,16.6,8,17.5l5.6,0.7c1.6,1.3,1.2,5.2-0.3,6c-8.9-0.6-16.8-0.9-24.6-1
			c-8.3-0.1-16.1-0.1-25.9,0.2c-1.4-0.9-1.8-4.8-0.1-6l6.4-0.5c7.7-0.7,8.3-3.6,8.6-17.2L836.6,110.2z"/>
		<path d="M936.1,170.5c-1.8,13.5-1.6,16.7,5.9,18.5l4,1c1.5,1.4,0.5,5.3-1,5.9c-7.3-1.4-15.1-2.6-22.9-3.7
			c-8.2-1.1-16-1.9-23.5-2.5c-1.3-1-1.2-5,0.6-6l4.2,0.1c7.7,0.2,8.7-2.8,10.5-16.4l5.7-42.7c1.8-13.5,1.6-16.7-5.9-18.5l-4-1
			c-1.5-1.4-0.5-5.3,1-5.9c7.3,1.4,15.1,2.6,23.3,3.7c7.8,1,15.6,1.9,23.1,2.4c1.3,1,1.2,5-0.6,6l-4.2-0.1
			c-7.7-0.2-8.7,2.8-10.5,16.4L936.1,170.5z"/>
		<path d="M966.2,153.5c7.3-27,33.5-42.2,63.8-34.1c33,8.9,43.8,34.9,37.4,58.7c-7.4,27.6-33,41.5-62.2,33.6
			C972.6,203,959.6,178.1,966.2,153.5z M1007.8,204.4c13.8,3.7,27.5-3.5,34.1-27.9c6.2-23.2,2.9-44.9-15.9-50
			c-11.4-3.1-27.4,2.9-34.5,29.3C986,176.2,988.4,199.2,1007.8,204.4L1007.8,204.4z"/>
		<path d="M1155.5,242.6c-1.7,3.8-8.8,19-9.8,22.1c-1.4,0.5-2.9,0.5-4.4,0c-0.6-0.3-1.2-0.6-1.8-1.1c-0.7-3.5-2.1-9.2-7.9-26.3
			l-14.4-43.7c-3.3-10.2-5.5-17.6-6.9-20.5c-2.2,3.8-5.1,10-7.8,15.8l-5.8,12.6c-3.7,8.1-6.1,14.5-6.9,16.9
			c-2.8,7.6-2.7,10.8,2.8,14.1l4.1,2.4c1,1.8-0.6,5.2-2.9,5.3c-6.2-3.3-10.4-5.5-15.9-8c-5.4-2.5-9.1-4-16.4-6.9
			c-1.3-1.5-0.1-5.3,2.1-5.6l4.6,1.4c5.6,1.7,8-0.4,11.7-6.9c1.3-2.4,4.6-8.4,8.3-16.5l11.8-25.4c5-10.7,5.5-12.9,4.7-16.1
			c-0.6-2.1-5.4-6.1-7.1-7.4l-1.4-1.3c-0.8-1.7,1.3-5.3,3.1-5.2c6.9,3.9,12.9,6.7,18.1,9.1c4.1,1.9,7,3,12.7,5.2
			c-0.3,5.1,1.1,11.9,5.6,25.9l8.6,26.1c2,6,5.9,16.9,7.2,19.5c1.1-1.3,1.8-2.8,3.7-7l5-10.7c3.7-8.1,6.1-14.5,6.9-16.9
			c2.8-7.6,2.6-10.6-2.2-13.6l-4.8-2.9c-1-1.8,0.6-5.2,2.9-5.3c5.8,3.2,10.1,5.4,15.9,8.1c5.4,2.5,9.1,4,16.4,6.9
			c1.3,1.5,0.1,5.3-2.1,5.6l-4.6-1.4c-5.6-1.7-8.1,0.3-11.7,6.9c-1.3,2.4-4.6,8.4-8.3,16.5L1155.5,242.6z"/>
		<path d="M1220.4,246.4c-2,2.9-1.9,3.2,1.9,5.7l6.4,4.3c9.5,6.3,11.1,7.2,16,2.9l3.8-3.4c1.7-0.3,4.5,1.8,4.6,3.6
			c-2.8,3.8-6,7.9-8.9,12.2c-3.1,4.6-5.6,9.2-8.1,13.3c-1.7,0.6-4.7-1.2-5.1-2.9l1.7-4.8c2.1-6.1,0.6-7.3-8.8-13.6l-6.4-4.3
			c-3.8-2.5-4.1-2.5-6.3,0.8l-7.1,10.7c-3.4,5.2-6.2,10-5.9,13c0.4,2.8,3.8,6.3,14.5,13.4c13.9,9.3,19.3,7.7,29.3,1.2
			c1.5,0.3,4,1.9,4.4,3.9c-6.4,6.2-14.2,13.4-17.9,15.7c-10.6-7.6-19.6-13.9-28.9-20.1l-18.4-12.3c-6.9-4.6-13.5-8.8-21.9-13.9
			c-0.7-1.5,1.1-5,3.2-5.1l5.7,3c6.8,3.6,9,1.5,16.5-9.9l23.9-35.8c7.6-11.4,8.6-13.9,2.9-19.2l-1.8-1.7c-0.7-2,1.8-5,3.5-4.9
			c4.6,3.6,11,8.1,17.9,12.7l27.7,18.5c7.6,5.1,14.6,9.5,16.4,10.2c-0.9,2.4-5.4,11.1-10.1,19.2c-1.6,0.9-4.6-0.9-5.2-2.7
			c0.9-3,1.4-6.2,1.7-9.3c0.2-4.8-3.8-8.5-12.2-14.1l-9.1-6.1c-4.3-2.9-4.8-2.5-10.3,5.8L1220.4,246.4z"/>
		<path d="M1319.8,367.5c-2.8,3-14.1,15.4-16.1,18.1c-1.5,0-2.9-0.4-4.2-1.3c-0.5-0.5-1-1-1.4-1.6c0.4-3.5,0.8-9.4,0.4-27.4l-0.5-46
			c0-10.7,0.1-18.5-0.3-21.7c-3.2,2.9-7.9,8-12.2,12.7l-9.4,10.2c-6,6.6-10.2,12-11.7,14c-5,6.4-5.9,9.5-1.6,14.3l3.2,3.5
			c0.4,2-2.1,4.8-4.4,4.1c-4.9-5.1-8.3-8.4-12.7-12.5c-4.4-4.1-7.5-6.6-13.5-11.6c-0.8-1.9,1.5-5,3.8-4.7l3.9,2.8
			c4.8,3.3,7.7,2,13.2-3.1c2-1.8,6.9-6.6,12.9-13.2l18.9-20.6c8-8.7,9.2-10.6,9.4-13.9c0.1-2.2-3.2-7.5-4.5-9.2l-1-1.7
			c-0.2-1.9,2.9-4.7,4.5-4c5.4,5.8,10.3,10.3,14.5,14.2c3.4,3.1,5.8,5,10.5,8.8c-1.8,4.8-2.6,11.7-2.5,26.3l0.3,27.5
			c0.1,6.3,0.5,17.9,0.9,20.8c1.4-0.9,2.5-2.2,5.6-5.5l8-8.7c6-6.6,10.2-12,11.7-14c5-6.4,5.8-9.3,2.1-13.6l-3.7-4.2
			c-0.4-2,2.1-4.8,4.4-4.1c4.6,4.8,8,8.2,12.7,12.5c4.4,4.1,7.5,6.6,13.5,11.6c0.8,1.9-1.5,5-3.8,4.7l-3.9-2.8
			c-4.8-3.3-7.9-2.2-13.2,3.1c-2,1.8-6.9,6.6-12.9,13.2L1319.8,367.5z"/>
	</g>
	<g>
		<path d="M117.7,941.4c-8.9,1.4-15.2,2.8-17.8,6c-2.1,2.5-3.1,5.6-0.8,19.8c3.2,19.7,4.5,22.4,24.1,27.7c1.2,1.6,1.1,4.6-0.2,5.7
			c-7.7-0.2-21.8-2-27-3.3c-0.8-7.5-3.1-22.8-6.3-42.7l-3-18.5c-1.5-9.1-3.1-17.9-4.6-25.3c0.5-1.5,4-2.6,5.1-1.2l1.7,5.2
			c2.8,8.1,3.2,9.7,21.7,6.7l66.1-10.6c18.5-3,18.8-4.6,18.7-13.2l-0.1-5.1c0.7-1.4,4.2-2,5.2-0.5c1.1,8.9,2.2,17,3.5,25.1
			c1.3,7.8,2.7,15.8,4.3,23.6c-0.5,1.7-4,2.5-5.1,1.2l-1.3-3.8c-2.8-8.1-3.4-9.7-21.9-6.7L117.7,941.4z"/>
		<path d="M171.2,994.7c0.6-1.7,4-2.4,5-1.4c1.6,6.3,3.4,12.9,5.6,19.8c2,6.5,4.2,13,6.5,19.1c-0.3,1.4-3.5,2.8-4.9,1.7l-1.4-3.3
			c-2.7-6.1-5.4-5.9-16.8-2.3l-24.2,7.6c-15.5,4.8-24.7,13.9-20.4,27.8c4.6,14.8,16.9,17.2,32.7,12.2l14.3-4.4
			c7.4-2.3,12.9-4.6,14.9-5.4c6.5-2.6,8.4-4.5,7.5-9.3l-0.9-4.8c0.6-1.7,3.7-2.7,5.1-1.2c1.5,5.9,2.5,10,4.1,14.9
			c1.6,5,2.7,8.2,5.1,14.6c-0.2,1.8-3.4,3.1-4.9,1.9l-1.7-3.8c-2.2-4.6-5-5-11.3-3.5c-2.3,0.5-8.1,1.9-15.5,4.3l-15.1,4.7
			c-11,3.4-20.7,3.2-27.5-0.7c-6.9-3.9-12.3-12.2-15.1-21.3c-3.1-9.8-4.5-19.7-1.6-26.4c3.1-7.7,9.9-13.6,22.8-17.7l26.1-8.1
			c11.3-3.5,13.8-4.9,12.5-11.4L171.2,994.7z"/>
		<path d="M188.3,1184.9c-3.2,1.6-16.4,7.9-18.8,9.5c-1.2-0.5-2.2-1.3-2.9-2.4c-0.3-0.5-0.5-1.1-0.6-1.7c1.5-2.7,3.7-7.4,9.2-22
			l14.4-37.3c3.4-8.6,6-14.9,6.7-17.6c-3.6,1.3-8.9,3.9-13.9,6.3l-10.9,5.2c-7,3.4-12.1,6.4-14,7.5c-6.1,3.5-7.8,5.8-5.9,11l1.5,3.9
			c-0.3,1.8-3.3,3.2-4.9,1.9c-2.3-5.7-4-9.5-6.2-14.2c-2.3-4.7-3.9-7.7-7.2-13.7c-0.1-1.8,2.9-3.6,4.5-2.6l2.3,3.5
			c2.8,4.2,5.6,4.1,11.6,1.8c2.2-0.9,7.7-3.1,14.7-6.5l21.9-10.5c9.2-4.5,10.9-5.6,12-8.2c0.8-1.8-0.2-7.1-0.7-8.9l-0.2-1.7
			c0.4-1.6,3.8-2.8,4.9-1.8c2.5,6.4,5,11.6,7.2,16.1c1.7,3.6,3.1,5.9,5.6,10.5c-3,3.3-5.8,8.6-10.5,20.5l-8.6,22.3
			c-1.9,5.1-5.4,14.6-6,17.1c1.5-0.3,2.8-0.9,6.3-2.6l9.2-4.5c7-3.4,12.1-6.4,14-7.5c6.1-3.5,7.7-5.7,6-10.3l-1.6-4.6
			c0.3-1.8,3.3-3.2,4.9-1.9c2.2,5.3,3.8,9.2,6.2,14.2c2.3,4.7,3.9,7.7,7.2,13.7c0.1,1.8-2.9,3.6-4.5,2.6l-2.3-3.5
			c-2.8-4.2-5.7-4.3-11.6-1.8c-2.2,0.9-7.7,3.1-14.7,6.5L188.3,1184.9z"/>
		<path d="M237.9,1198.1c9.2-6.3,11.9-7.5,8.9-14.4l-0.7-1.7c-0.4-1.5,3-4,4.5-2.6c6.9,8.8,13.1,17.2,20.1,27.5
			c7.4,10.8,12.1,20.5,14.1,28.3c4.1,15.9-1.6,30.5-15.4,40c-12.9,8.8-26.8,8.9-40.3,1.6c-8.2-4.4-15.7-12.4-23-23.1
			c-4.5-6.5-8.6-14.4-11.3-18.4c-2-3-6-8.5-10-13.7c-0.1-1.4,2.5-3.7,4.2-3.1l2.3,2.8c4.4,5.1,6.9,4,16.7-2.7L237.9,1198.1z
			 M221.3,1232.9c-8.9,6.1-14.1,10.3-7.1,20.5c10.8,15.8,28,13.8,43.4,3.2c16.8-11.5,18.9-29.1,9.6-42.7c-5.7-8.3-6.4-8.1-12.9-3.6
			L221.3,1232.9z"/>
		<path d="M345.7,1303.1c-1.9,3.6-6.4,9.3-11.6,14.5c-1.9,0.3-4-1.5-3.9-3.3c5.5-9.5,5.1-17.6-0.7-24c-5-5.6-11.6-6.3-16.3-2.1
			c-5.4,4.8-3.7,12.3-1,20.2c4.4,12.5,7,25.9-4.4,36.1c-12.1,11.1-27.8,4.8-39.4-8.2c-7-7.8-10.7-15.8-11-22c2-5.4,7.1-11.2,13-16
			c1.7-0.3,4,1.5,3.6,3.5c-6,9.7-7.6,22,0.4,31c4.8,5.4,11.5,6.6,16.4,2.2c6.3-5.6,5.9-13.7,2.8-22.5c-4.2-11.7-6-24.8,3.7-33.5
			c11.1-10,26-6.1,38.1,7.5C341,1293,343.5,1298.8,345.7,1303.1z"/>
		<path d="M444.9,1355.5c4.4-6.1,4.5-6.5,0.7-9.3l-8.2-5.9c-13.4-9.7-18.5-11-32.5-3.1c-1.7,0.1-4.4-2.5-3.9-4.4
			c8.2-6.1,16.9-13.5,21.6-17.9c0.7-0.2,1.5,0.1,2,0.6c0.6,0.3,1,1,1,1.6c-1.9,4.2,0,5.8,9.9,13l59.4,43.1c7.1,5.2,9.6,6.3,13.8,4.2
			c0.8,0.1,1.5,0.3,2.2,0.7c0.8,0.5,1.3,1.2,1.4,2.1c-5.8,4.9-16,16.6-19,21.6c-1.6,0.6-4.3-0.9-4.8-2.8c6.4-12.7,5.6-17.5-10-28.8
			l-8.3-6c-3.8-2.8-4.1-2.6-8.6,3.6l-45.7,62.9c-11.2,15.4-10.2,16.8-3.9,22.5l4.8,4.4c0.3,1.8-1.8,4.3-3.4,4
			c-8.2-6.4-14.7-11.3-21.1-16c-6.4-4.7-13.4-9.5-22.9-16c-0.7-1.4,1.2-4.4,2.8-4.4l6.6,3.7c7.5,4.1,8.9,4.9,20.1-10.5L444.9,1355.5
			z"/>
		<path d="M485.8,1449.4c-1.5,2.7-1.4,2.9,2,4.8l5.8,3.2c8.6,4.8,10.2,5.5,14,1.4l3-3.2c1.5-0.4,4.1,1.2,4.2,2.8
			c-2.2,3.5-4.7,7.3-6.9,11.2c-2.4,4.2-4.2,8.4-6.1,12.1c-1.4,0.7-4.2-0.7-4.6-2.1l1.2-4.3c1.4-5.4,0-6.4-8.6-11.2l-5.8-3.2
			c-3.5-1.9-3.7-1.9-5.4,1.1l-5.4,9.7c-2.6,4.7-4.7,9.1-4.2,11.7c0.5,2.4,3.7,5.2,13.5,10.6c12.7,7.1,17.2,5.3,25.5-1
			c1.4,0.1,3.6,1.4,4.1,3.1c-5.1,5.8-11.4,12.6-14.4,14.8c-9.7-5.8-18-10.6-26.5-15.4l-16.8-9.4c-6.3-3.5-12.4-6.7-19.9-10.5
			c-0.7-1.2,0.6-4.4,2.4-4.6l5.1,2.2c6.2,2.6,7.9,0.7,13.6-9.7l18.2-32.7c5.8-10.4,6.5-12.7,1.2-16.9l-1.7-1.4
			c-0.7-1.6,1.2-4.5,2.7-4.5c4.2,2.8,10.1,6.3,16.4,9.8l25.3,14.1c6.9,3.9,13.3,7.2,14.9,7.7c-0.6,2.1-3.9,10-7.4,17.3
			c-1.3,0.9-4.1-0.4-4.7-2c0.5-2.7,0.8-5.4,0.9-8.2c-0.1-4.2-3.9-7.1-11.6-11.4l-8.3-4.6c-3.9-2.2-4.4-1.8-8.6,5.7L485.8,1449.4z"/>
		<path d="M564.8,1485.2c-1.3,3.3-2.4,6.2-0.8,6.9c4,1.6,7.2,0.5,12.4-2.1l17.1-8.5c1.5-0.8,6.5-3.8,7-5c0.3-0.8,0-1.5-1.5-2.5
			l-1.8-1.3c-1.2-1.4,0.2-4.5,2.3-4.7c4.4,2.1,9.2,4.2,13.9,6.1c4.2,1.7,10.4,3.9,14.3,5.1c1.3,1.1,0.1,4.3-1.6,5
			c-3-0.7-6.1-1.2-9.2-1.3c-5.1-0.3-12.4,2.5-22.2,6.7l-7.2,3.1c-2.3,1-3.3,2-3.6,2.7c-0.3,0.8-0.5,2.1,1.5,9.5
			c3.1,11.9,6.4,27.9,9.8,35.8c1.6,3.4,4.3,6.2,7.7,7.9l2.2,1.3c0.3,1.7-0.7,4.2-2.3,4.7c-4.7-2.3-10.2-4.6-18-7.7
			c-6.4-2.5-12.6-5-19.1-7c-1.1-1.2,0.1-4.6,1.8-4.9l2.5,0.4c3.1,0.5,4.1-0.5,3.9-2c-0.2-1.8-1.8-8.7-2.6-12.1l-2.8-11.6
			c-1.1-4.7-1.8-10.6-5.2-11.9c-3-1.2-3.3-0.4-5.4,4.8l-4,10c-4.4,11-4.9,13.8,1.1,16.9l3.2,1.7c0.9,1.5-0.7,4.6-2.1,4.8
			c-5.9-2.7-12.2-5.4-18.5-7.9c-6.7-2.6-13.1-5-18.3-6.6c-0.9-1.1,0-4.4,1.8-4.9l2.5,0.6c6.5,1.6,8-0.5,12.3-11.6l13.8-34.8
			c4.4-11,4.9-13.8-1.1-16.9l-2.7-1.5c-1.1-1.6,0.3-4.7,2.4-4.7c5.1,2.4,11.4,5.1,18,7.7c6.4,2.5,12.8,4.9,18.4,6.7
			c1.1,1.2,0,4.4-1.8,4.9l-3.5-0.8c-6-1.4-7.4,0.6-11.8,11.6L564.8,1485.2z"/>
		<path d="M699,1556.7c-0.8,3.5-4.2,17.7-4.5,20.6c-1.1,0.6-2.4,0.9-3.7,0.8c-0.6-0.1-1.2-0.3-1.7-0.6c-1.2-2.9-3.4-7.5-11.3-21
			l-19.9-34.7c-4.5-8.1-7.8-14.1-9.4-16.3c-1.2,3.6-2.6,9.4-3.9,14.8l-2.8,11.7c-1.8,7.5-2.6,13.4-3,15.6c-1.1,7-0.5,9.7,4.8,11.5
			l3.9,1.3c1.2,1.4,0.4,4.5-1.6,5c-5.9-1.8-9.9-2.9-14.9-4.1s-8.4-1.8-15.2-3.1c-1.4-1.1-1-4.5,0.9-5.2l4.2,0.4
			c5.1,0.5,6.7-1.7,8.7-7.9c0.7-2.2,2.4-7.9,4.2-15.5l5.6-23.6c2.4-10,2.5-12,1.2-14.5c-0.9-1.7-5.6-4.3-7.3-5.1l-1.5-0.9
			c-1-1.3,0.2-4.8,1.7-5c6.5,2.1,12.1,3.4,17,4.6c3.9,0.9,6.5,1.4,11.7,2.2c0.6,4.4,3,10,9.2,21.1l11.9,20.8
			c2.8,4.7,7.9,13.4,9.5,15.4c0.7-1.3,1-2.7,1.9-6.6l2.4-10c1.8-7.5,2.6-13.4,3-15.6c1.1-7,0.4-9.5-4.2-11.2l-4.6-1.6
			c-1.2-1.4-0.4-4.5,1.6-5c5.5,1.7,9.5,2.8,14.9,4.1c5.1,1.2,8.4,1.8,15.2,3.1c1.4,1.1,1,4.5-0.9,5.2l-4.2-0.4
			c-5.1-0.5-6.9,1.7-8.7,7.9c-0.7,2.2-2.4,7.9-4.2,15.5L699,1556.7z"/>
		<path d="M755.4,1564c-1.4,11.8-1.2,14.5,5.3,16.1l3.5,0.8c1.3,1.2,0.5,4.6-0.8,5.2c-6.4-1.1-13.2-2.1-19.9-3
			c-7.1-0.9-14-1.5-20.4-1.9c-1.2-0.9-1.1-4.3,0.5-5.2l3.6,0.1c6.7,0.1,7.6-2.5,9-14.3l4.5-37.2c1.4-11.8,1.2-14.5-5.3-16.1
			l-3.5-0.8c-1.3-1.2-0.5-4.6,0.8-5.2c6.4,1.1,13.2,2.1,20.3,3c6.8,0.8,13.6,1.5,20.1,1.9c1.2,0.9,1.1,4.3-0.5,5.2l-3.6-0.1
			c-6.7-0.1-7.6,2.5-9,14.3L755.4,1564z"/>
		<path d="M840.4,1511.5c1.3,3.8,2.4,11,2.6,18.4c-1.1,1.6-3.8,1.9-5.1,0.6c-3.1-10.5-9.3-15.7-17.9-16c-7.6-0.2-12.5,4.2-12.7,10.5
			c-0.2,7.2,6.4,11.2,14,14.6c12.1,5.4,23.6,12.7,23.2,28c-0.3,16.4-15.6,23.5-33,23c-10.4-0.3-18.8-3-23.6-7.1
			c-2.6-5.1-3.2-12.9-2.7-20.4c0.9-1.4,3.8-1.9,5-0.2c2.9,11.1,10.8,20.6,22.8,21c7.2,0.2,12.7-3.8,12.9-10.5
			c0.2-8.5-5.9-13.7-14.5-17.5c-11.4-5-22.2-12.7-21.8-25.6c0.4-14.9,13.4-23,31.6-22.5C829.9,1508,835.8,1510.2,840.4,1511.5z"/>
		<path d="M891.4,1536.5c0.3,3.6,0.6,6.6,2.4,6.5c4.3-0.4,6.6-2.8,10.1-7.5l11.4-15.4c1-1.4,4.1-6.4,4-7.6c-0.1-0.9-0.7-1.4-2.5-1.6
			l-2.2-0.3c-1.7-0.7-1.8-4.2-0.1-5.2c4.9-0.1,10.1-0.4,15.1-0.9c4.5-0.4,11.1-1.2,15-2c1.7,0.4,2,3.8,0.9,5.2c-3,0.7-5.9,1.7-8.8,3
			c-4.7,2.1-9.9,7.8-16.7,16.1l-5,6.1c-1.6,2-2,3.3-2,4c0.1,0.9,0.6,2.1,5.6,7.8c8.1,9.2,18.4,21.9,25.1,27.4
			c3,2.3,6.7,3.5,10.5,3.5l2.5,0.1c1,1.3,1.3,4,0.1,5.2c-5.2,0.1-11.2,0.5-19.6,1.3c-6.8,0.7-13.4,1.3-20.2,2.5
			c-1.5-0.6-2-4.1-0.7-5.2l2.5-0.8c3-1,3.4-2.3,2.6-3.5c-1.1-1.5-5.5-6.9-7.8-9.6l-7.7-9c-3.1-3.7-6.4-8.6-10-8.3
			c-3.2,0.3-3.1,1.2-2.6,6.8l1,10.8c1.1,11.8,1.9,14.5,8.6,14.5l3.6,0c1.5,0.9,1.5,4.4,0.3,5.2c-6.5,0.3-13.3,0.7-20.1,1.4
			c-7.2,0.7-14,1.5-19.3,2.4c-1.3-0.6-2-4-0.7-5.2l2.5-0.6c6.5-1.5,6.8-4.1,5.7-15.9l-3.6-37.3c-1.1-11.8-1.9-14.5-8.6-14.5
			l-3.1-0.1c-1.7-0.9-1.9-4.3,0-5.2c5.6-0.2,12.4-0.7,19.6-1.3c6.8-0.7,13.6-1.5,19.5-2.4c1.5,0.6,2,4,0.7,5.2l-3.5,0.9
			c-6,1.5-6.3,3.9-5.2,15.7L891.4,1536.5z"/>
		<path d="M986.3,1547.1c-3.5,0.8-3.7,0.9-4.2,4.9l-1.2,9.1c-0.9,6.7,0,7.8,3.8,7.4l4.3-0.5c1.5,0.8,1.7,4.2,0.5,5.2
			c-5.9,1-10.3,1.8-15,2.9c-4.1,0.9-8.1,2-12,3.3c-1.9-0.3-2.9-3.9-1.7-5l3-1.3c6.1-2.5,6.2-4.4,8.8-18.5l7.9-43.2
			c1-5.4,1.1-8,0.2-10.2c4.1-2.2,9.1-8.8,9.7-10.9c0.5-0.4,1-0.7,1.7-0.8c0.7-0.2,1.6,0.6,2.6,1.8c1.1,1.4,3.2,4.8,13.1,18.8
			l26.5,37.6c4.7,6.5,6.1,7.3,12.6,6.5l1.8-0.2c1.6,0.6,2.3,4.4,0.7,5.2c-5.3,0.9-11.2,2-18.2,3.7c-6.7,1.5-11.9,2.9-17.4,4.6
			c-1.9-0.1-3-3.4-1.7-5l2.8-1.4c3-1.4,3.9-2.4,1.9-5.4l-6.7-10.5c-2.1-3.4-2.4-3.3-7.2-2.2L986.3,1547.1z M997.4,1537.5
			c5.4-1.3,5.9-1.6,3.4-5.1c-4.9-6.8-10.3-14.8-13-18.4c-1.3,7-2.1,11.8-3.7,23.2c-0.4,3-0.7,3.5,3.9,2.4L997.4,1537.5z"/>
		<path d="M1126.1,1467.6c-8.2,4.1-8.5,4.7-6.4,9l11.8,23.7c8.5,17.1,10.1,16.7,18.2,13.9l5.2-1.8c1.7,0.6,3,3.5,2,4.8
			c-8.5,3.8-15.9,7.3-23,10.8c-7.1,3.5-14.3,7.3-20.2,10.7c-1.6,0-3.2-2.8-2.6-4.5l2.1-1.4c7-4.9,8.2-6.1-0.3-23.2l-29.8-60
			c-8.5-17.1-10.2-16.8-18.2-14l-3.8,1.3c-1.5-0.2-3-3.5-2-4.8c7.2-3.2,14.9-6.8,22-10.3c7.1-3.5,14.3-7.3,20.4-10.7
			c1.6,0,3.4,3.1,2.6,4.5l-2.5,1.8c-6.9,5.1-8.3,5.9,0.2,23l9.7,19.5c2.2,4.5,2.9,4.6,11.1,0.5l37.7-18.8c8.2-4.1,8.5-4.7,6.3-9.2
			l-9.7-19.5c-8.5-17.1-10.2-16.8-18.2-14l-3.8,1.3c-1.5-0.2-3-3.5-2-4.8c7.6-3.4,14.9-6.8,22-10.3c7.1-3.5,14.3-7.3,20.5-10.8
			c1.6,0,3.4,3.1,2.6,4.5l-2.7,1.9c-6.9,5.1-8.3,5.9,0.2,23l29.8,60c8.5,17.1,10.2,16.8,18.2,14l3.8-1.3c1.7,0.6,3,3.5,2,4.8
			c-7.2,3.2-14.6,6.7-21.7,10.2c-7.4,3.7-14.6,7.5-21.5,11.3c-1.6,0-3.2-2.8-2.6-4.5l3.3-2.2c7.1-4.7,8.3-5.9-0.2-23l-11.8-23.7
			c-2.2-4.4-2.8-4.4-11-0.3L1126.1,1467.6z"/>
		<path d="M1203.5,1371.8c-3.3-4.5-2.7-10.3,1.9-13.7c4.1-2.9,9.8-2.1,12.8,1.9c3.5,4.8,2.7,10.3-1.5,13.4
			C1212.3,1376.7,1207.3,1376.6,1203.5,1371.8z M1225.6,1436.8c-14.5-19.5-10.8-45.6,11.1-61.9c23.8-17.7,47.4-11.1,60.2,6.1
			c14.8,19.9,10.5,44.9-10.6,60.6C1262.8,1459.1,1238.8,1454.5,1225.6,1436.8z M1227.3,1354c-3.3-4.5-2.7-10.3,1.9-13.7
			c4.1-3,9.8-2.2,12.8,1.9c3.5,4.8,2.9,10.2-1.5,13.4C1236.1,1358.9,1231.1,1358.8,1227.3,1354z M1282.7,1435.8
			c10-7.4,12.4-20.7-0.7-38.3c-12.5-16.8-29.1-26.1-42.7-16c-8.2,6.1-12.7,20.3,1.4,39.3C1251.8,1435.5,1268.7,1446.2,1282.7,1435.8
			z"/>
		<path d="M1384.2,1334.1c3.2,3.2,4.6,4.3,7.6,2.3c1.1,0.4,1.9,1.4,2,2.5c-4.7,7.5-12.6,19-19.6,26c-10.9,11-23.3,17.5-35.9,17.9
			c-10.2,0.3-20.5-4.4-27.5-11.4c-6.9-6.9-12.2-16.5-12.3-28.5c0-11.7,6-25.8,17.6-37.6c8-8,18.7-14.4,21.7-16.2
			c5,4.7,10.3,9.1,15.8,13.2c0.6,1.4-1.4,3.9-3.2,3.9c-12.1-6.2-21.5-4.2-30.5,4.9c-12.5,12.5-8.9,29.8,4.5,43.1
			c15.9,15.9,34.5,16.1,46,4.7c5.1-5.1,5.2-6.5,1.5-10.2l-5.4-5.3c-4.8-4.8-6.1-5.6-12.6-0.9l-3.7,2.7c-1.7,0.4-4.1-2.3-3.3-4.1
			c5.1-4.6,10-9,15.8-14.8c4.2-4.2,7.6-8.2,11.7-12.7c1.8-0.8,4.5,1.6,3.9,3.4l-1.5,2.3c-2.9,4.5-2.2,5.5,2.8,10.4L1384.2,1334.1z"
			/>
		<path d="M1383.7,1231.1c3.9,1.2,10.3,4.6,16.3,8.9c0.6,1.8-0.8,4.2-2.5,4.4c-10.3-3.7-18.2-1.9-23.5,4.9c-4.7,6-4.1,12.6,0.9,16.4
			c5.7,4.4,12.8,1.5,20.1-2.6c11.5-6.5,24.2-11.4,36.3-2c13,9.9,9.7,26.5-1.1,40.3c-6.4,8.2-13.6,13.3-19.7,14.7
			c-5.6-1-12.3-5-18-10c-0.6-1.6,0.8-4.2,2.8-4.2c10.6,4.2,23,3.6,30.4-5.9c4.4-5.7,4.5-12.5-0.8-16.6c-6.7-5.2-14.5-3.3-22.7,1.2
			c-10.8,6.2-23.4,10.3-33.6,2.3c-11.8-9.2-10.6-24.5,0.6-38.8C1374.6,1237.5,1379.8,1234,1383.7,1231.1z"/>
		<path d="M1434,1204.9c3.1,1.8,5.7,3.4,6.6,1.9c2.2-3.7,1.7-7,0-12.6l-5.6-18.3c-0.5-1.6-2.7-7.1-3.8-7.7c-0.8-0.5-1.5-0.3-2.7,1.1
			l-1.6,1.6c-1.6,0.9-4.4-1-4.3-3c2.8-4,5.6-8.4,8.2-12.7c2.3-3.9,5.6-9.7,7.3-13.3c1.3-1.1,4.2,0.6,4.7,2.4
			c-1.2,2.8-2.1,5.8-2.8,8.8c-1.1,5,0.4,12.6,3,23l1.9,7.7c0.6,2.5,1.4,3.6,2,3.9c0.8,0.5,2,0.8,9.6,0.1c12.2-1.1,28.6-1.8,36.9-3.9
			c3.6-1.1,6.8-3.3,9-6.3l1.6-2c1.7,0,4,1.4,4.3,3c-3,4.3-6.2,9.3-10.5,16.6c-3.5,5.9-6.9,11.6-10,17.7c-1.4,0.9-4.5-0.8-4.6-2.5
			l0.8-2.4c1-3,0.1-4.1-1.3-4.1c-1.9-0.1-8.8,0.4-12.3,0.6l-11.9,0.9c-4.8,0.3-10.7,0.1-12.6,3.2c-1.7,2.8-0.9,3.2,3.9,6.1l9.3,5.5
			c10.2,6.1,12.8,7,16.8,1.7l2.2-2.9c1.7-0.7,4.4,1.4,4.4,2.8c-3.6,5.4-7.3,11.2-10.8,17c-3.7,6.2-7.1,12.1-9.5,17
			c-1.3,0.7-4.4-0.7-4.6-2.5l1-2.3c2.6-6.2,0.8-7.9-9.4-14l-32.1-19.2c-10.2-6.1-12.8-7-16.8-1.7l-1.9,2.4c-1.8,0.8-4.6-1.1-4.2-3.1
			c3.2-4.6,6.8-10.4,10.5-16.6c3.5-5.9,6.9-11.8,9.6-17.1c1.4-0.9,4.4,0.7,4.6,2.5l-1.4,3.4c-2.4,5.7-0.6,7.4,9.6,13.5L1434,1204.9z
			"/>
		<path d="M1477.6,1154.6c-22.4-9.4-32.4-33.8-21.8-59c11.5-27.4,35.3-33.6,55-25.3c22.9,9.7,31.8,33.4,21.6,57.6
			C1521,1155,1498,1163.2,1477.6,1154.6z M1526.3,1124.8c4.8-11.4,0.2-24.1-20-32.7c-19.2-8.1-38.3-7.8-44.9,7.8
			c-4,9.5-0.7,23.9,21.2,33.2C1499.5,1140.2,1519.6,1140.9,1526.3,1124.8z"/>
		<path d="M1539.9,1029.7c5.4,1.5,10.7,2.5,13.2,1.4c1.8-1,3.7-3.5,6.3-13c3.6-13.2,3.5-16.2-7.6-24.8c-0.5-1.8,0.3-3.8,2-4.7
			c6.2,2.4,14.7,7.2,18.4,10.4c-2.9,9.5-6,20-8.3,28.5l-4.7,17.4c-1.9,6.9-3.5,13.6-4.9,19.9c-1,1-4.4,0.5-5.1-1.2l0.6-3.6
			c1.1-6.6-1.4-7.8-12.9-11l-36.1-9.8c-11.5-3.1-13.9-3.2-16.5,3l-1.6,3.9c-1.4,1.1-4.6-0.1-5-1.5c2.2-6.7,4.2-13.2,6-20.2
			c1.8-6.6,3.4-13.2,4.8-19.6c1-1,4.4-0.5,5.1,1.2l-0.6,3.6c-1.1,6.6,1.4,7.8,12.9,11L1539.9,1029.7z"/>
		<path d="M1554.2,950.6c-0.5,3.6-0.5,3.7,3,5.7l8.1,4.4c5.9,3.2,7.2,2.8,8.3-0.8l1.1-4.2c1.2-1.1,4.6-0.1,5.1,1.4
			c-1.2,5.8-2,10.3-2.7,15.1c-0.6,4.1-1,8.2-1.2,12.4c-1,1.7-4.7,1.3-5.2-0.2l-0.1-3.3c-0.2-6.6-1.9-7.4-14.1-14.9l-37.5-22.9
			c-4.7-2.8-7.1-3.9-9.5-3.9c-0.6-4.6-4.9-11.6-6.7-12.9c-0.2-0.6-0.3-1.2-0.1-1.8c0.1-0.7,1.1-1.3,2.6-1.8
			c1.7-0.5,5.6-1.2,22.2-5.4l44.7-11.2c7.7-2,9-3.1,10.6-9.4l0.4-1.8c1.1-1.3,5-0.6,5.1,1.3c-1.1,5.3-2.1,11.2-3.1,18.3
			c-1,6.8-1.5,12.1-2,17.9c-0.8,1.7-4.2,1.6-5.2-0.2l-0.3-3.1c-0.3-3.3-0.8-4.5-4.4-3.7l-12.2,2.5c-3.9,0.7-4,1.1-4.6,5.9
			L1554.2,950.6z M1549.2,936.8c0.8-5.5,0.7-6.1-3.5-5c-8.1,2.1-17.5,4.3-21.9,5.5c6,3.8,10.2,6.2,20.3,11.8c2.7,1.5,3,1.9,3.7-2.8
			L1549.2,936.8z"/>
	</g>
	<g>
		<path d="M1107.7,483.9c-41.1-71.9-120-107.9-236.7-107.9c-30.5,0-57.9,2.2-82.2,6.5v-13.4H775L520.9,485.6v62
			c17.1,0,31.7,6,43.8,18c11.8,11.4,18.4,27.2,18.1,43.7v506l0.3-5.7c0.2,16.5-6.3,32.4-18.2,44c-12.1,12.2-26.8,18.3-44.1,18.3
			h-7.7v68.8H871c116.7,0,195.5-36.1,236.7-108.2c34.3-59.9,51.4-168,51.4-324.1C1159.1,652.2,1141.9,544,1107.7,483.9z
			 M942.8,1194.6c-7.8,8.2-18.6,12.7-29.8,12.5h-29.1v-36.2h-33.4c-17.1,0-31.7-6-43.7-18.1c-12-12.1-18-26.7-18-43.9V444.5
			c4.6-22.8,18.1-34.3,40.5-34.3h83.7c11.1-0.1,21.8,4.3,29.5,12.2c8.3,8.1,12.4,17.8,12.4,29v713.3
			C955.2,1175.9,950.8,1186.7,942.8,1194.6z"/>
		<g>
			<path class="st2" d="M986.3,509.9c-0.4-10.7-0.8-21-1.1-31.1h69.7c8.6,9.5,16.3,19.8,22.8,30.8L986.3,509.9z"/>
			<path class="st2" d="M987.8,581.8V551h109.1c4,13.5,6.8,23.8,8.6,30.8H987.8z"/>
			<path class="st2" d="M987.8,653.8v-30.9l128.2-0.3c1.2,8,2.4,18.4,3.7,31.1H987.8z"/>
			<path class="st2" d="M987.8,726v-31.1h135.4c0.4,8.2,0.7,18.6,1.1,31.1H987.8z"/>
			<polygon class="st2" points="988.3,798 987.8,767.1 1124.8,767.1 1124.8,798 			"/>
			<path class="st2" d="M1124.8,869.9H988.6v-30.9h136.2V869.9z"/>
			<path class="st2" d="M637.1,485.9l-34.5-0.3l52.3-24.3C648.3,469,642.4,477.2,637.1,485.9z"/>
			<path class="st2" d="M1121.9,942.1H987.8v-31.1h135.9C1123.1,924.9,1122.5,935.3,1121.9,942.1z"/>
			<path class="st2" d="M608.3,553.5c-6.5-9.9-15.2-18.7-26.3-26.6h36.3C612.9,540.1,609.6,549,608.3,553.5z"/>
			<path class="st2" d="M1112,1014.1H987.8v-30.9h131.1C1116.1,997,1113.8,1007.3,1112,1014.1z"/>
			<path class="st2" d="M1094,1086.1H987.8v-30.8h117.4C1102,1065.7,1098.2,1076,1094,1086.1z"/>
			<path class="st2" d="M1042.6,1158h-60c0.8-8.2,1.5-18.4,2.3-30.9h86C1061.1,1140.2,1051.7,1150.4,1042.6,1158z"/>
			<path class="st2" d="M618.6,1141.2c3.8-9,6.3-18.5,7.4-28.3c7,15.4,11.8,25,14.3,28.8L618.6,1141.2z"/>
			<path class="st2" d="M552.6,1206.3l0.6-4.8c9.1-2.9,19.6-8.7,31.4-17.4h90c9.4,8.3,19.5,15.8,30.2,22.3H552.6z"/>
		</g>
	</g>
</g>
</svg>
