<svg xmlns="http://www.w3.org/2000/svg" viewBox="0 0 906.37 1128.2581"><defs><style>.cls-1{fill:#f280a1;}.cls-2{fill:#8e68ad;}.cls-3{fill:#fff;}</style></defs><g id="Layer_2" data-name="Layer 2"><g id="inner"><g id="dark"><g id="box"><polygon class="cls-1" points="1.568 914.21 36.851 1074.158 708.788 1128.258 706.435 957.334 1.568 914.21"/><polygon class="cls-1" points="568.441 607.644 563.737 640.575 602.156 679.777 611.565 689.97 601.372 699.379 570.794 727.605 539.431 755.831 508.069 784.057 501.797 789.545 494.74 786.409 452.401 773.08 451.617 772.296 451.617 772.296 411.63 755.047 367.723 744.07 343.417 738.582 362.234 721.332 390.46 694.674 406.142 675.073 395.949 664.096 389.676 657.04 394.381 648.415 412.414 616.269 403.789 601.372 315.191 598.236 176.413 727.605 199.935 726.037 202.287 726.037 203.855 726.037 229.729 730.741 240.706 732.309 242.274 744.07 246.194 783.273 247.762 793.466 238.353 798.17 214.832 811.499 214.832 811.499 214.832 811.499 191.31 823.26 189.742 824.044 187.39 824.828 162.3 828.748 160.732 829.532 159.164 829.532 133.29 827.964 132.506 827.964 131.722 827.964 105.064 824.044 93.303 822.476 91.735 810.715 91.735 806.795 0 892.257 708.788 930.676 901.666 620.973 568.441 607.644"/><path class="cls-2" d="M733.0934,951.0612s4.7043,172.4926,3.92,168.5723,167.0042-278.34,167.0042-278.34L906.37,654.6876Z"/></g><g id="buttons"><polygon class="cls-2" points="87.814 840.509 127.801 848.35 166.22 845.214 202.287 829.532 230.513 803.658 233.649 775.432 229.729 746.422 198.366 740.15 166.22 742.502 133.29 745.638 105.848 762.888 83.894 784.841 87.03 812.283 87.814 840.509"/><polygon class="cls-2" points="575.498 867.951 613.917 881.28 653.12 884.416 688.402 867.167 717.412 842.077 718.196 813.067 714.276 784.057 683.698 773.864 651.551 775.432 620.189 782.489 595.099 802.874 570.794 822.476 575.498 867.951"/></g><g id="stick"><polygon class="cls-1" points="505.717 384.972 512.773 449.265 517.478 511.205 495.524 537.079 481.411 477.491 469.65 417.118 505.717 384.972"/><polygon class="cls-2" points="370.075 731.525 415.55 742.502 456.321 759.751 498.66 773.864 530.023 745.638 560.601 718.196 591.179 689.186 548.84 645.279 555.112 600.588 552.76 556.681 554.328 514.341 523.75 534.727 493.956 558.249 440.64 554.328 386.54 553.544 408.494 584.123 426.527 616.269 405.357 654.688 423.391 674.289 399.869 704.083 370.075 731.525"/><polygon class="cls-2" points="458.673 417.902 470.434 480.627 482.979 543.352 417.118 538.647 406.142 475.139 392.813 412.414 437.504 421.823 458.673 417.902"/></g><g id="ball"><circle class="cls-3" cx="414.2049" cy="201.1064" r="187.7859"/><path class="cls-1" d="M416.3343,22.7376l67.429,14.1131,56.4521,35.2825,30.5782,67.4289,18.8173,72.1332-13.329,46.2594-14.113,46.2594-59.5884,46.2594-49.3956,25.8739-56.4521-1.5681-61.1565-8.6246-.7841-.7841-39.9869-27.442-27.442-36.8506-25.8739-50.18-10.9768-47.0434.7841-.784,2.3521-3.92.7841-4.7044L253.25,116.8246l41.555-58.02,77.6217-32.93,43.9073-3.1364M417.1183,0,367.7227,4.7043,281.4764,41.555,233.649,108.2l-19.6014,83.11-7.0565,9.4086,14.113,60.3724,28.2261,54.1,30.5782,41.555,43.1231,29.01,3.1363,3.1362,68.997,10.1928,63.5087,1.5681,56.4521-29.01,67.4289-51.7478,15.6812-53.3159,14.897-52.5318-20.3855-79.9738L558.2487,58.8043,492.388,18.0333,417.1183,0Z"/><polygon class="cls-2" points="369.291 129.369 316.759 187.39 371.643 258.739 435.936 244.626 447.697 170.924 369.291 129.369"/><polygon class="cls-2" points="355.962 313.623 348.121 381.836 338.713 385.756 328.52 388.108 326.952 388.892 282.261 357.53 245.41 317.543 245.41 310.487 254.035 286.181 320.679 280.692 355.962 313.623"/><polygon class="cls-2" points="269.716 106.632 264.227 170.924 234.433 211.695 213.264 197.582 207.775 194.446 231.297 107.416 237.569 107.416 269.716 106.632"/><polygon class="cls-2" points="395.949 20.385 374.779 76.838 321.463 98.007 281.476 74.485 281.476 52.532 283.045 43.907 367.723 3.136 375.563 9.409 395.949 20.385"/><polygon class="cls-2" points="596.667 130.938 595.099 136.426 555.897 169.356 504.149 130.938 518.262 59.588 544.136 61.156 555.897 60.372 596.667 130.938"/><polygon class="cls-2" points="577.85 315.975 518.262 374.779 509.637 370.075 475.923 349.689 461.026 297.158 500.228 264.227 555.897 279.124 572.362 310.487 577.85 315.975"/></g></g></g></g></svg>