<svg xmlns="http://www.w3.org/2000/svg" viewBox="0 0 2202.0908 2232.6688"><defs><style>.cls-1{fill:#f280a1;}.cls-2{fill:#8e68ad;}.cls-3{fill:#fff;}.cls-4{fill:none;stroke:#f280a1;stroke-linecap:round;stroke-miterlimit:10;stroke-width:55px;}</style></defs><g id="Layer_2" data-name="Layer 2"><g id="inner"><g id="light"><g id="box"><polygon class="cls-1" points="654.889 1470.253 690.172 1630.2 1362.109 1684.3 1359.756 1513.376 654.889 1470.253"/><polygon class="cls-1" points="1221.762 1163.687 1217.058 1196.617 1255.477 1235.82 1264.886 1246.013 1254.693 1255.421 1224.115 1283.647 1192.752 1311.873 1161.39 1340.099 1155.118 1345.588 1148.061 1342.452 1105.722 1329.123 1104.938 1328.339 1104.938 1328.339 1064.951 1311.089 1021.044 1300.112 996.738 1294.624 1015.555 1277.375 1043.781 1250.717 1059.463 1231.115 1049.27 1220.139 1042.997 1213.082 1047.702 1204.457 1065.735 1172.311 1057.11 1157.414 968.512 1154.278 829.734 1283.647 853.256 1282.079 855.608 1282.079 857.176 1282.079 883.05 1286.783 894.027 1288.352 895.595 1300.112 899.515 1339.315 901.083 1349.508 891.674 1354.212 868.153 1367.541 868.153 1367.541 868.153 1367.541 844.631 1379.302 843.063 1380.086 840.711 1380.87 815.621 1384.791 814.053 1385.575 812.485 1385.575 786.611 1384.007 785.827 1384.007 785.043 1384.007 758.385 1380.086 746.624 1378.518 745.056 1366.757 745.056 1362.837 653.321 1448.299 1362.109 1486.718 1554.987 1177.015 1221.762 1163.687"/><path class="cls-2" d="M1438.0973,1548s4.7044,172.4925,3.92,168.5723,167.0042-278.34,167.0042-278.34l2.3522-186.6056Z" transform="translate(-51.683 -40.896)"/></g><g id="buttons"><polygon class="cls-2" points="741.135 1396.551 781.122 1404.392 819.541 1401.256 855.608 1385.575 883.834 1359.701 886.97 1331.475 883.05 1302.465 851.687 1296.192 819.541 1298.544 786.611 1301.681 759.169 1318.93 737.215 1340.883 740.351 1368.325 741.135 1396.551"/><polygon class="cls-2" points="1228.819 1423.993 1267.238 1437.322 1306.441 1440.459 1341.723 1423.209 1370.733 1398.12 1371.517 1369.109 1367.597 1340.099 1337.019 1329.907 1304.872 1331.475 1273.51 1338.531 1248.42 1358.917 1224.115 1378.518 1228.819 1423.993"/></g><g id="stick"><polygon class="cls-1" points="1159.038 941.014 1166.094 1005.307 1170.799 1067.248 1148.845 1093.121 1134.732 1033.533 1122.971 973.161 1159.038 941.014"/><polygon class="cls-2" points="1023.396 1287.568 1068.871 1298.544 1109.642 1315.794 1151.981 1329.907 1183.344 1301.681 1213.922 1274.239 1244.5 1245.228 1202.161 1201.321 1208.433 1156.63 1206.081 1112.723 1207.649 1070.384 1177.071 1090.769 1147.277 1114.291 1093.961 1110.371 1039.861 1109.587 1061.815 1140.165 1079.848 1172.311 1058.678 1210.73 1076.712 1230.331 1053.19 1260.126 1023.396 1287.568"/><polygon class="cls-2" points="1111.994 973.945 1123.755 1036.669 1136.3 1099.394 1070.439 1094.69 1059.463 1031.181 1046.134 968.456 1090.825 977.865 1111.994 973.945"/></g><g id="ball"><circle class="cls-3" cx="1067.5259" cy="757.1487" r="187.7859"/><path class="cls-1" d="M1121.3383,619.676l67.429,14.113,56.452,35.2826,30.5782,67.4289,18.8173,72.1332-13.3289,46.2594-14.1131,46.2594-59.5883,46.2593-49.3957,25.8739-56.452-1.568L1040.58,963.093l-.7841-.784-39.9869-27.442-27.442-36.8507-25.8739-50.18-10.9768-47.0435.784-.784,2.3522-3.92.7841-4.7043,18.8173-77.6217,41.5551-58.02,77.6216-32.93,43.9074-3.1363m.784-22.7376-49.3956,4.7043L986.48,638.4933l-47.8275,66.6449-19.6013,83.11-7.0566,9.4087,14.1131,60.3724,28.226,54.1,30.5783,41.5551,43.1231,29.01,3.1362,3.1363,68.9971,10.1927,63.5087,1.5681,56.452-29.01,67.429-51.7478,15.6811-53.3159,14.8971-52.5318-20.3856-79.9738-34.4984-75.2695-65.8608-40.7709-75.27-18.0333Z" transform="translate(-51.683 -40.896)"/><polygon class="cls-2" points="1022.612 685.412 970.08 743.432 1024.964 814.781 1089.257 800.668 1101.018 726.967 1022.612 685.412"/><polygon class="cls-2" points="1009.283 869.665 1001.442 937.878 992.034 941.798 981.841 944.151 980.273 944.935 935.582 913.572 898.731 873.585 898.731 866.529 907.356 842.223 974 836.735 1009.283 869.665"/><polygon class="cls-2" points="923.037 662.674 917.548 726.967 887.754 767.738 866.585 753.625 861.096 750.488 884.618 663.458 890.89 663.458 923.037 662.674"/><polygon class="cls-2" points="1049.27 576.428 1028.1 632.88 974.784 654.049 934.798 630.528 934.798 608.574 936.366 599.95 1021.044 559.179 1028.884 565.451 1049.27 576.428"/><polygon class="cls-2" points="1249.988 686.98 1248.42 692.468 1209.218 725.399 1157.47 686.98 1171.583 615.631 1197.457 617.199 1209.218 616.415 1249.988 686.98"/><polygon class="cls-2" points="1231.171 872.017 1171.583 930.822 1162.958 926.117 1129.244 905.732 1114.347 853.2 1153.549 820.27 1209.218 835.167 1225.683 866.529 1231.171 872.017"/></g></g></g><g id="outer"><g id="light-2" data-name="light"><g id="text"><path d="M230.0425,1303.1709c9.7207,1.8213,14.0615,7.6494,15.8174,17.4932l1.7124,9.5986c1.624,9.1055.8579,17.623-10.9038,24.291l-126.9136,72.919c-3.6743,2.1787-10.3726,5.913-14.8028,6.7031-9.8442,1.7558-19.2563-5.4531-21.1-15.79-1.58-8.8593.4775-15.8291,7.8261-20.1875l27.6895-15.6044-11.5894-64.9727-31.4209-5.3145c-8.3584-1.3027-12.5674-6.3925-14.2793-15.99-1.9756-11.0752,3.5547-19.9336,14.3833-21.8652,4.43-.79,12.0064.3974,16.2071,1.1718Zm-27.1558,29.9834-.0879-.4922-75.3838-11.1855,8.4288,47.2529Z" transform="translate(-51.683 -40.896)"/><path d="M243.3115,1413.665c11.55-4.08,21.9937.7139,26.1582,12.5s-.95,22.0772-12.5,26.1582l-56.1006,19.8213L289.3,1509.3076c6.2969,2.8125,11.4839,5.4873,13.8989,12.3233,3.2481,9.1933.8389,20.3847-9.061,23.8828-5.8931,2.082-10.9829.4336-15.4487-1.7012l-55.7139-24.8594-54.8491,72.1426c-4.1724,5.4512-7.79,10.9717-12.74,12.7207-14.3789,5.08-22.37-4.0283-25.6176-13.2207-2.7481-7.7793-2.3614-12.6885,4.0561-20.7891l53.0894-68.8691-28.71-13.7187-38.4219,13.5751c-11.55,4.08-21.9941-.7138-26.1582-12.5s.95-22.0771,12.5-26.1582Z" transform="translate(-51.683 -40.896)"/><path d="M305.1011,1610.3682l-18.81-33.878c-5.7036-10.2724-5.0693-21.49,4.7661-26.9511s19.6929-.0684,25.3965,10.205l57.521,103.6006c5.7036,10.2725,5.07,21.49-4.7661,26.9512s-19.6924.0684-25.396-10.2051l-18.81-33.8779-112.125,62.2549c-10.7094,5.9463-21.8056,2.956-27.8735-7.9717s-2.7383-21.9277,7.9717-27.874Z" transform="translate(-51.683 -40.896)"/><path d="M375.33,1693.6348c9.9712-7.1162,21.3335-5.3965,28.5942,4.7783s5.1924,21.4785-4.7783,28.5937l-118.4321,84.5166c-9.9712,7.1162-21.333,5.3965-28.5943-4.7783s-5.1924-21.4785,4.7788-28.5937Z" transform="translate(-51.683 -40.896)"/><path d="M355.55,1911.11c-11.5913,4.665-18.7881.3691-27.2886-9.1338s-11.97-17.1338-6.0459-28.1348L394.39,1741.5312a35.4111,35.4111,0,0,1,7.2779-9.8632c10.2485-9.167,20.603-4.3409,27.4365,3.2988,7.3335,8.1992,7.0479,16.5049.417,27.4668l-66.6392,109.248.3335.3721L480.19,1819.0811c11.6308-5.3721,19.9165-4.7334,26.25,2.3476,6.8334,7.6406,10.48,18.4668.2309,27.6338a35.43,35.43,0,0,1-10.6108,6.1367Z" transform="translate(-51.683 -40.896)"/><path d="M511.3,1852.3447c8.1777-9.1211,19.6411-9.9228,28.9482-1.5791s9.7564,19.8272,1.5791,28.9483L444.7,1988.0488c-8.1773,9.1211-19.6411,9.9229-28.9482,1.5791s-9.7564-19.8281-1.5787-28.9482Z" transform="translate(-51.683 -40.896)"/><path d="M583.0142,1934.73l-31.565-22.4785c-9.5713-6.8155-13.8291-17.2139-7.3032-26.378s17.7446-8.54,27.3159-1.7246l96.5274,68.7393c9.5712,6.8164,13.8291,17.2139,7.3032,26.3779s-17.7446,8.541-27.3159,1.7246l-31.565-22.4775-74.395,104.4687c-7.106,9.9786-18.4082,12.0586-28.59,4.8077s-11.9131-18.6123-4.8072-28.5909Z" transform="translate(-51.683 -40.896)"/><path d="M678.7114,1987.76c8.062-16.3731,19.1255-17.335,32.1338-10.9287l86.3516,42.52c10.7656,5.3007,17.07,12.3066,11.3266,23.97s-15.1391,10.9375-25.9052,5.6367l-71.1-35.0107-17.229,34.9892,62.352,30.7031c9.6445,4.7491,15.9453,11.1954,10.3125,22.6338s-14.5835,10.375-24.228,5.626l-62.3526-30.7031-19.2168,39.0264,72.8936,35.8945c10.7661,5.3008,17.07,12.3066,11.3271,23.97s-15.14,10.9375-25.9052,5.6358l-88.1455-43.4034c-13.0088-6.4062-18.9917-15.7617-10.93-32.1347Z" transform="translate(-51.683 -40.896)"/><path d="M862.8369,2078.9551l-37.1348-11.0694c-11.26-3.3564-18.65-11.8193-15.4365-22.6s14.0313-13.8174,25.2915-10.461l113.56,33.8487c11.26,3.3564,18.65,11.82,15.4365,22.6005s-14.0312,13.8174-25.2915,10.461l-37.1348-11.0684-36.6337,122.9033c-3.4991,11.7393-13.522,17.36-25.501,13.79s-17.2891-13.7617-13.79-25.501Z" transform="translate(-51.683 -40.896)"/><path d="M1058.0278,2161.5312c36.1333,13.1495,42.7588,36.418,40.1172,57.252-4.0884,32.2422-31.4443,53.2178-80.5512,46.9912-51.5875-6.542-71.3824-35.26-68.93-54.6055,1.2583-9.9209,9.331-15.9531,19.2519-14.6953,22.0733,2.7989,12.2808,34.3184,53.4512,39.5381,21.0815,2.6738,34.2163-7.5049,35.7261-19.41.9116-7.1924-1.5542-15.5694-15.003-20.8028l-44.4048-17.4746c-35.7592-14.11-39.8769-35.2969-37.4555-54.3935,5.0317-39.6836,43.625-49.91,78.1-45.5381,31.7461,4.0254,66.9321,26.6308,63.9131,50.44-1.29,10.169-10.7246,15.0205-20.6455,13.7627-18.8492-2.3906-12.0118-28.4873-49.9585-33.3-18.8491-2.39-30.3667,4.97-31.939,17.3711s12.8052,18.2559,25.3247,22.8672Z" transform="translate(-51.683 -40.896)"/><path d="M1123.9531,2110.16c-.56-12.2373,7.0547-20.8438,19.5415-21.4151s20.8565,7.3037,21.416,19.541l4.503,98.3985c1.12,24.4736,15.3584,34.834,38.834,33.76s36.7089-12.6914,35.5888-37.166l-4.5029-98.3974c-.5606-12.2373,7.0547-20.8448,19.541-21.4161s20.8565,7.3038,21.416,19.5411l4.3545,95.1513c2.2627,49.4492-27.1885,73.07-74.8887,75.253s-79.186-18.6495-81.4487-68.0987Z" transform="translate(-51.683 -40.896)"/><path d="M1348.9771,2106.1641l-37.82,8.4414c-11.4687,2.5595-22.0478-1.2276-24.498-12.208s5.5146-18.9053,16.9824-21.4649l115.6572-25.8135c11.4688-2.5595,22.0479,1.2276,24.4981,12.2071s-5.5137,18.9062-16.9824,21.4658l-37.82,8.44,27.9375,125.1738c2.6679,11.9561-3.3428,21.751-15.543,24.4737s-21.8057-3.586-24.4736-15.542Z" transform="translate(-51.683 -40.896)"/><path d="M1559.687,2083.0684c37.957-6.15,55.0928,10.9287,62.9512,30.4033,12.1621,30.14-1.4844,61.7959-47.3887,80.3193-48.2236,19.459-79.5137,4.0479-86.8115-14.0361-3.7412-9.2735.3623-18.4785,9.6357-22.2207,20.6338-8.3262,27.4639,23.9658,65.9492,8.4355,19.7071-7.9511,26.2061-23.2451,21.7159-34.374-2.7129-6.7227-8.9522-12.832-23.2451-10.8389l-47.2881,6.41c-38.1,5.1289-52.03-11.3555-59.2334-29.208-14.9688-37.0947,13.7314-64.8506,45.957-77.8545,29.6758-11.9746,71.42-9.4082,80.4,12.8486,3.8359,9.5059-2.0332,18.3438-11.3067,22.086-17.62,7.11-24.3847-19.0069-59.8564-4.6934-17.62,7.11-24.083,19.1533-19.4053,30.7461s20.085,9.6885,33.2627,7.6055Z" transform="translate(-51.683 -40.896)"/><path d="M1593.77,2004.2607c-6.3808-10.456-3.8506-21.666,6.8194-28.1777s21.7959-3.6367,28.1777,6.8193l30.9951,50.7881,18.0693-94.2041c1.45-6.7431,2.9942-12.3711,9.1827-16.1474,8.3222-5.0791,19.77-5.0371,25.24,3.9257,3.2559,5.335,2.6953,10.6553,1.5312,15.4659l-12.7988,59.65,81.9268,38.7421c6.1953,2.9541,12.3447,5.3516,15.08,9.8331,7.9443,13.0166.6855,22.7187-7.6368,27.7978-7.042,4.2979-11.9248,4.9346-21.1777.3311l-78.36-37.6973-7.4843,30.9268,21.2285,34.7832c6.3818,10.456,3.8506,21.666-6.8193,28.1777s-21.7959,3.6367-28.1778-6.8193Z" transform="translate(-51.683 -40.896)"/><path d="M1770.4761,1854.4629c44.21-39.0674,94.1787-30.8457,129.1084,8.6807,33.6054,38.0283,41.7939,91.8447-4.2891,132.5683-48.332,42.71-96,28.7852-132.0889-12.0527C1728.2769,1944.1318,1726.2651,1893.5312,1770.4761,1854.4629Zm102.9677,116.5205c27.9122-24.665,18.2627-54.8389-4.582-80.69s-51.4316-33.2842-76.5342-11.1016-21.2431,51.4668,1.6016,77.3184S1844.5942,1996.4775,1873.4438,1970.9834Z" transform="translate(-51.683 -40.896)"/><path d="M1898.14,1778.9648l-24.2168,30.25c-7.3427,9.1729-17.9629,12.8389-26.7451,5.8086s-7.5293-18.1963-.1865-27.3691l74.0557-92.5059c7.3427-9.1718,17.9638-12.8388,26.7451-5.8076s7.5293,18.1963.1865,27.3682l-24.2168,30.25,100.1172,80.1484c9.5635,7.6553,11.0039,19.0567,3.1924,28.8145s-19.252,10.8476-28.8145,3.1914Z" transform="translate(-51.683 -40.896)"/><path d="M1991.5317,1645.9316l-18.8,33.8848c-5.7011,10.2754-15.5566,15.6719-25.3945,10.2129s-10.4756-16.6758-4.7744-26.9512l57.4922-103.622c5.7011-10.2745,15.5566-15.6709,25.3945-10.2129s10.4746,16.6767,4.7744,26.9511l-18.8008,33.8848,112.1485,62.2227c10.7119,5.9433,14.0449,16.9423,7.98,27.873s-17.16,13.9229-27.872,7.9795Z" transform="translate(-51.683 -40.896)"/><path d="M2033.4976,1544.8955c-17.1778-6.165-19.38-17.0488-14.4815-30.6973l32.5156-90.5918c4.0547-11.2949,10.3047-18.3486,22.5411-13.957s12.5742,13.8106,8.5195,25.1045l-26.7725,74.5928,36.7071,13.1748,23.4794-65.4151c3.6319-10.1181,9.3272-17.1044,21.3272-12.7978s11.9531,13.3213,8.3213,23.4394l-23.4785,65.4151,40.9424,14.6953,27.4492-76.4736c4.0537-11.295,10.3037-18.3487,22.54-13.9561s12.5742,13.81,8.5205,25.1045l-33.1924,92.4746c-4.8984,13.6484-13.52,20.6475-30.6972,14.4815Z" transform="translate(-51.683 -40.896)"/><path d="M2103.3237,1351.68l-6.8095,38.1474c-2.0645,11.5665-9.6407,19.8643-20.7149,17.8877s-15.3125-12.3837-13.248-23.95l20.8232-116.6562c2.0645-11.5664,9.6406-19.8643,20.7158-17.8877s15.3116,12.3828,13.2471,23.95l-6.81,38.1475,126.2539,22.5361c12.06,2.1523,18.7754,11.4775,16.5791,23.7832s-11.7236,18.73-23.7832,16.5781Z" transform="translate(-51.683 -40.896)"/><path d="M389.0737,376.5034c-12.7163-15.06-8.8833-26.4243,3.0821-36.5273l41.26-34.8389c36.9278-31.1807,84.3477-43.6572,133.4707,14.519,39.7159,47.0362,36.51,96.39-8.67,134.5386l-40.6406,34.3164c-11.9653,10.1031-23.8111,11.9781-36.5274-3.082ZM508.61,449.4346,537.08,425.3955c27.0254-22.8193,15.3091-54.2725-4.0264-77.1714-24.7358-29.2944-50.8564-37.63-75.6123-16.7265l-28.2632,23.8647Z" transform="translate(-51.683 -40.896)"/><path d="M654.126,273.521c10.4262-6.2378,21.2622-7.0581,28.332,4.7578s1.2246,20.9775-9.2017,27.2153l-38.2285,22.8736c-10.4262,6.2383-21.2622,7.0581-28.332-4.7578s-1.2246-20.9771,9.2017-27.2154Z" transform="translate(-51.683 -40.896)"/><path d="M726.6577,179.6484c27.4736-11.9746,59.9419-13.1665,67.17,3.417,3.668,8.4151,1.2115,18.3218-8.1938,22.4214-14.1084,6.1489-21.8316-10.2187-44.6026-.2934-12.623,5.5019-19.2807,12.5268-15.9365,20.2,3.668,8.4155,12.6988,6.8354,24.9156,4.456l16.6088-3.1152c22.5933-4.2515,50.8726-6.2686,61.8765,18.9775,12.8379,29.4541-9.6929,55.4737-36.9194,67.34-32.6714,14.24-66.2627,11.5039-74.03-6.3174-3.4521-7.92-2.1255-17.04,8.0225-21.4629,15.5932-6.7964,26.7876,14.8325,53.519,3.1811,12.8706-5.6093,18.5576-14.8623,15.3213-22.2876-3.9917-9.1582-12.56-7.1909-26.8325-4.7988l-23.5518,4.08c-23.3037,3.9722-43.4155,2.4292-53.9878-21.8271C677.1987,214.1646,701.6587,190.5444,726.6577,179.6484Z" transform="translate(-51.683 -40.896)"/><path d="M874.2764,211.4648c5.2661,20.1123,22.1557,31.32,44.3579,25.5069,28.7319-7.5225,23.8076-26.3291,39.2187-30.3643,9.1421-2.3935,17.7237,3.7329,19.57,10.7852,6.0181,22.9858-28.0068,43.3379-50.9926,49.3559-53.2847,13.9517-82.835-16.8276-91.52-50-11.6265-44.4038,7.4809-81.2246,52.6684-93.0561,43.8818-11.49,77.0952,13.0278,85.3018,44.3721,3.42,13.06.3906,17.4814-12.4082,20.8325Zm61.1225-39.4482c-6.6718-16.9536-23.083-26.333-40.061-21.8877-19.0674,4.9927-27.4829,19.7559-26.8062,39.3955Z" transform="translate(-51.683 -40.896)"/><path d="M989.6011,67.0527c-1.3008-12.8945,5.812-20.396,17.6318-21.5883s20.2876,4.7373,21.5884,17.6318l8.9971,89.1855,38.64-52.7436c3.5962-4.7046,8.375-8.4434,14.2847-9.04,8.8647-.894,19.3213,5.92,20.3242,15.86.7046,6.9844-1.4966,9.3774-4.6094,13.4907l-25.95,33.2818,46.36,50.6816a21.514,21.514,0,0,1,5.3027,12.2192c1.0029,9.94-6.1348,19.8858-16.6113,20.9429-9.67.9756-15.2622-3.3452-18.6509-7.3452l-42.3555-48.6431-12.4809,13.47,3.0083,29.8184c1.3007,12.894-5.8121,20.396-17.6319,21.5884s-20.2876-4.7378-21.5884-17.6319Z" transform="translate(-51.683 -40.896)"/><path d="M1156.3569,118.3628l-6.7485-.1411c-11.0679-.2315-15.5664-4.6465-15.3857-13.2847s4.86-12.8613,15.9277-12.63l6.7485.1411.5025-24.0249c.271-12.9575,8.2407-19.5424,20.1176-19.2939s19.5655,7.1606,19.294,20.1182l-.502,24.0249,11.877.2485c11.6074.2427,17.7432,3.8818,17.5459,13.33s-6.48,12.8276-18.0879,12.5849l-11.877-.2485-1.6484,78.8233c-.125,5.9389,3.0469,9.246,10.0654,9.3925l5.669.1187c8.6377.1806,13.665,5.147,13.49,13.5151-.2373,11.3379-10.0849,17.3433-28.98,16.9478-28.6142-.5982-40.2436-12.7241-39.7578-35.9395Z" transform="translate(-51.683 -40.896)"/><path d="M1248.4458,112.5542c1.0879-10.4736,6.334-19.1577,21.6416-17.5669s18.6553,11.168,17.5674,21.6416l-11.2471,108.2275c-1.0889,10.4737-6.3349,19.1582-21.6426,17.5674s-18.6552-11.1684-17.5664-21.6421Zm27.251-71.5464a20.52,20.52,0,1,1-22.5313,18.2891A20.511,20.511,0,0,1,1275.6968,41.0078Z" transform="translate(-51.683 -40.896)"/><path d="M1394.8423,115.45c46.3545,10.4521,63.9863,47.6406,54.8408,88.2017-8.6709,38.4536-35.0312,68.2133-87.4443,56.3955s-63.4522-50.0113-54.7823-88.4649C1316.6021,131.0215,1348.4868,104.998,1394.8423,115.45Zm-26.19,116.1519c22.915,5.1665,37.2919-13.18,42.5771-36.6211,5.6416-25.021-.4131-46.0376-22.8008-51.0855s-36.876,11.3364-42.5176,36.3574C1340.6255,203.6938,1345.7378,226.4351,1368.6519,231.6021Z" transform="translate(-51.683 -40.896)"/><path d="M1495.0161,161.7676c4.5039-10.9932,12.4688-16.1919,23.9619-11.4834s13.5215,14.001,9.0176,24.9941l-1.9443,4.7471.5.2051c15.77-9.2954,32.9023-13.3648,53.64-4.8692,21.9863,9.0074,41.4678,29.8267,26.3194,66.8042l-29.0694,70.9566c-3.9912,9.7441-11.4687,16.6015-25.7109,10.7671s-14.7588-15.9668-10.7666-25.711l26.1006-63.7109c6.039-14.7412,3.0927-28.2031-12.6475-34.6514a30.6117,30.6117,0,0,0-39.5039,17.3711L1490.2446,277.4c-3.9922,9.7441-11.47,16.6011-25.7109,10.7671s-14.7588-15.9668-10.7666-25.7109Z" transform="translate(-51.683 -40.896)"/><path d="M1650.5317,300.9663c-10.9472,17.6743-7.4326,37.6377,12.0782,49.7232,25.249,15.64,35.4863-.8868,49.0283,7.5019,8.0342,4.9761,9.5078,15.417,5.668,21.6143-12.5118,20.2-50.7061,9.563-70.9053-2.9488-46.8252-29.0053-44.8789-71.6294-26.8223-100.7807,24.1709-39.0215,64.0225-50.544,103.7324-25.9468,38.5625,23.8867,43.6787,64.8511,26.6162,92.3955-7.1084,11.4771-12.4,12.3281-23.6474,5.3613Zm70.7051,17.1172c7.69-16.5161,3.1807-34.8726-11.74-44.1147-16.7559-10.379-33.2539-6.3057-47.0215,7.7163Z" transform="translate(-51.683 -40.896)"/><path d="M1800.9458,325.3438c7.8281-8.9366,17.05-11.2676,26.3926-3.0835s8.2441,17.6323.416,26.5683l-3.3809,3.8589.4063.356c17.9346-3.6724,35.46-1.96,52.3164,12.8066,17.8721,15.6567,29.541,41.6728,3.209,71.731L1829.7769,495.26c-6.9385,7.9209-16.2373,11.98-27.8135,1.8379s-8.7774-19.8931-1.8379-27.814l45.3682-51.7891c10.497-11.9824,12.08-25.6718-.7149-36.8808a30.6125,30.6125,0,0,0-43.0039,3.6069l-42.8779,48.9458c-6.9385,7.9209-16.2373,11.98-27.8145,1.8379s-8.7763-19.8931-1.8379-27.814Z" transform="translate(-51.683 -40.896)"/></g><g id="circle"><path d="M1158.189,380.45a776.715,776.715,0,0,1,436.4124,133.2847,783.0558,783.0558,0,0,1,282.883,343.4983,779.5181,779.5181,0,0,1-71.9625,740.2471,783.0562,783.0562,0,0,1-343.4983,282.8832,779.5177,779.5177,0,0,1-740.2471-71.9625A783.0587,783.0587,0,0,1,438.8932,1464.902a779.5173,779.5173,0,0,1,71.9626-740.2471A783.0593,783.0593,0,0,1,854.3543,441.772,775.68,775.68,0,0,1,1158.189,380.45m0-55c-461.4989,0-835.6179,374.1185-835.6179,835.6174s374.119,835.6178,835.6179,835.6178,835.6174-374.1189,835.6174-835.6178S1619.6879,325.45,1158.189,325.45Z" transform="translate(-51.683 -40.896)"/></g><g id="arcs"><path id="arc_base" data-name="arc base" class="cls-4" d="M161.9065,1184.04q-.2591-11.4552-.26-22.973c0-235.31,81.5571-451.5717,217.9461-622.0594" transform="translate(-51.683 -40.896)"/><path id="arc_base-2" data-name="arc base" class="cls-4" d="M1936.7853,539.0085c136.3888,170.4876,217.9457,386.7489,217.9457,622.0589q0,11.5145-.26,22.9671" transform="translate(-51.683 -40.896)"/></g></g></g></g></svg>