<svg xmlns="http://www.w3.org/2000/svg" viewBox="0 0 2048.0841 2233.2184"><defs><style>.cls-1,.cls-2{fill:none;stroke:#000;stroke-miterlimit:10;}.cls-1{stroke-width:30px;}.cls-2{stroke-linecap:round;stroke-width:55px;}</style></defs><g id="Layer_2" data-name="Layer 2"><g id="inner"><g id="silhouette"><g id="ball"><g id="reflections"><polygon points="1266.565 877.669 1307.237 1044.425 1472.114 1091.141 1439.085 1004.564 1396.765 948.512 1322.902 902.765 1266.565 877.669"/><polygon points="1119.256 1026.897 1119.256 1213.446 1307.237 1195.917 1307.237 1044.425 1119.256 1026.897"/><polygon points="947.717 1399.681 930.768 1215.385 1119.256 1213.446 1100.372 1399.672 947.717 1399.681"/><polygon points="789.776 1365.674 947.717 1399.681 988.713 1558.483 898.315 1528.458 836.72 1467.103 789.776 1365.674"/><polygon points="1051.656 1558.103 1107.507 1399.681 1266.565 1374.418 1202.231 1478.852 1119.256 1558.103 1051.656 1558.103"/><polygon points="789.776 874.669 947.712 840.673 928.828 1026.897 740.847 1044.427 763.708 934.391 789.776 874.669"/><polygon points="598.594 979.232 699.978 810.735 854.69 704.3 935.555 690.599 856.43 751.295 806.384 821.788 789.776 874.669 688.466 922.741 598.594 1011.576 598.594 979.232"/></g><g id="lines"><g id="vertical"><ellipse class="cls-1" cx="1024.042" cy="1120.1714" rx="283.1952" ry="448.0723"/><ellipse class="cls-1" cx="1024.042" cy="1120.1714" rx="95.214" ry="448.0723"/></g><g id="horizontal"><circle id="outer" class="cls-1" cx="1024.042" cy="1120.1714" r="448.0723"/><ellipse id="middle" class="cls-1" cx="1024.042" cy="1120.1714" rx="448.0723" ry="283.1952"/><ellipse id="inner-2" data-name="inner" class="cls-1" cx="1024.042" cy="1120.1714" rx="448.0723" ry="95.214"/></g></g></g><g id="stars"><path d="M577.71,868.8982c-49.5665,14.5533-63.4415,28.4283-77.9948,77.9947a2.3247,2.3247,0,0,1-4.4637,0c-14.5533-49.5664-28.4284-63.4414-77.9948-77.9947a2.3247,2.3247,0,0,1,0-4.4637c49.5664-14.5533,63.4415-28.4284,77.9948-77.9948a2.3247,2.3247,0,0,1,4.4637,0c14.5533,49.5664,28.4283,63.4415,77.9948,77.9948A2.3247,2.3247,0,0,1,577.71,868.8982Z" transform="translate(0 -40.896)"/><path d="M659.172,737.2851c-33.1891,10.0207-43.24,20.0718-53.2609,53.2609a2.3243,2.3243,0,0,1-4.4509,0c-10.0207-33.1891-20.0718-43.24-53.2609-53.2609a2.3243,2.3243,0,0,1,0-4.4509c33.1891-10.0207,43.24-20.0718,53.2609-53.2609a2.3243,2.3243,0,0,1,4.4509,0c10.0207,33.1891,20.0718,43.24,53.2609,53.2609A2.3243,2.3243,0,0,1,659.172,737.2851Z" transform="translate(0 -40.896)"/><path d="M1493.61,1641.3467c-49.5664,14.5533-63.4415,28.4284-77.9948,77.9948a2.3247,2.3247,0,0,1-4.4637,0c-14.5533-49.5664-28.4283-63.4415-77.9948-77.9948a2.3246,2.3246,0,0,1,0-4.4636c49.5665-14.5533,63.4415-28.4284,77.9948-77.9948a2.3247,2.3247,0,0,1,4.4637,0c14.5533,49.5664,28.4284,63.4415,77.9948,77.9948A2.3246,2.3246,0,0,1,1493.61,1641.3467Z" transform="translate(0 -40.896)"/><path d="M636.4274,1558.5607c-49.5665,14.5533-63.4415,28.4283-77.9948,77.9947a2.3247,2.3247,0,0,1-4.4637,0c-14.5533-49.5664-28.4284-63.4414-77.9948-77.9947a2.3247,2.3247,0,0,1,0-4.4637c49.5664-14.5533,63.4415-28.4284,77.9948-77.9948a2.3247,2.3247,0,0,1,4.4637,0c14.5533,49.5664,28.4283,63.4415,77.9948,77.9948A2.3247,2.3247,0,0,1,636.4274,1558.5607Z" transform="translate(0 -40.896)"/><path d="M1540.4333,741.3148c-49.5664,14.5532-63.4414,28.4283-77.9947,77.9947a2.3247,2.3247,0,0,1-4.4637,0c-14.5533-49.5664-28.4284-63.4415-77.9948-77.9947a2.3247,2.3247,0,0,1,0-4.4637c49.5664-14.5533,63.4415-28.4284,77.9948-77.9948a2.3247,2.3247,0,0,1,4.4637,0c14.5533,49.5664,28.4283,63.4415,77.9947,77.9948A2.3247,2.3247,0,0,1,1540.4333,741.3148Z" transform="translate(0 -40.896)"/><path d="M1588.7045,1499.8371c-33.1891,10.0207-43.24,20.0718-53.2609,53.2609a2.3243,2.3243,0,0,1-4.4509,0c-10.0207-33.1891-20.0718-43.24-53.2609-53.2609a2.3243,2.3243,0,0,1,0-4.4509c33.1891-10.0207,43.24-20.0718,53.2609-53.2609a2.3243,2.3243,0,0,1,4.4509,0c10.0207,33.1891,20.0718,43.24,53.2609,53.2609A2.3243,2.3243,0,0,1,1588.7045,1499.8371Z" transform="translate(0 -40.896)"/><path d="M1630.8477,899.3537c-33.1891,10.0207-43.24,20.0719-53.2609,53.2609a2.3243,2.3243,0,0,1-4.4509,0c-10.0207-33.189-20.0718-43.24-53.2609-53.2609a2.3243,2.3243,0,0,1,0-4.4509c33.1891-10.0207,43.24-20.0718,53.2609-53.2609a2.3243,2.3243,0,0,1,4.4509,0c10.0207,33.1891,20.0718,43.24,53.2609,53.2609A2.3243,2.3243,0,0,1,1630.8477,899.3537Z" transform="translate(0 -40.896)"/></g></g></g><g id="outer-2" data-name="outer"><g id="silhouette-2" data-name="silhouette"><g id="text"><path d="M223.9561,1698.9453l-22.3242-31.6738c-6.77-9.6035-7.3379-20.8262,1.8574-27.3067s19.5732-2.1728,26.3428,7.4307l68.2685,96.86c6.77,9.6045,7.3389,20.8261-1.8574,27.3076s-19.5723,2.1728-26.3418-7.4317l-22.3242-31.6738-104.8291,73.8867c-10.0127,7.0567-21.3653,5.27-28.5674-4.9463s-5.0664-21.51,4.9473-28.5664Z" transform="translate(0 -40.896)"/><path d="M322.419,1784.8828c9.1445-3.7685,15.959-1.2461,22.7949,6.0518l6.666,7.1162c6.3223,6.7519,10.32,14.3105,4.0908,26.3115l-66.7,130.293c-1.8945,3.8291-5.4765,10.6093-8.7607,13.6855-7.2988,6.836-19.1191,5.919-26.2969-1.7451-6.1523-6.5684-8.2236-13.5342-4.4355-21.1924l14.7178-28.1719-45.1172-48.17-29.2442,12.6612c-7.7187,3.4619-14.0215,1.4873-20.6865-5.6289-7.69-8.211-7.88-18.6524.1494-26.1719,3.2842-3.0762,10.2852-6.208,14.23-7.8477Zm-6.4356,39.9385-.3418-.3643-69.31,31.69,32.8125,35.0332Z" transform="translate(0 -40.896)"/><path d="M467.9356,1900.4043c37.2041,28.7207,39.56,67.8076,28.8652,81.66-7.0273,9.1025-16.2529,10.8242-25.9482,3.3388-18.8008-14.5137,6.6006-35.9619-23.083-58.8769-20.3828-15.7354-50.8-11.1094-74.6319,19.7617-20.0136,25.9238-27.1386,56.4277.961,78.1211,25.5283,19.708,46.0175-8.06,61.65,4.0088,7.916,6.1113,12.3183,16.7734,6.207,24.6894-15.8887,20.58-56.5586,21.7139-88.0225-2.5762-44.5263-34.374-51.1377-80.2207-13.2509-129.2968C371.6963,1881.0625,422.0245,1864.9619,467.9356,1900.4043Z" transform="translate(0 -40.896)"/><path d="M523.458,1967.2939c5.7247-10.83,16.6524-14.3857,27.7032-8.5449s14.2695,16.8731,8.5449,27.7031l-27.8027,52.6036,90.2011-32.63c6.5352-2.2012,12.1621-3.752,18.5723-.3643,8.6191,4.5567,14.4355,14.417,9.5293,23.7-2.9209,5.5254-7.78,7.7637-12.51,9.2227L579.8868,2058.48l8.5869,90.2178c.6289,6.8359,1.7109,13.3466-.7422,17.9882-7.125,13.4825-19.1738,12.2041-27.7949,7.6475-7.293-3.8545-10.337-7.7256-11.1114-18.0312l-7.6611-86.6182-30.4063,9.3779-19.0419,36.0264c-5.7237,10.83-16.6524,14.3857-27.7032,8.5449s-14.2685-16.873-8.5449-27.7031Z" transform="translate(0 -40.896)"/><path d="M661.1983,2040.2041c4.7715-15.7949,16.626-16.1309,27.1562-12.9492l11.4873,3.4707c12.2051,3.6875,16.503,10.21,16.5938,24.6015l.8154,120.9063.4785.1445,67.1514-100.37c8.0459-11.9326,15.2353-14.9834,27.44-11.2959l11.0088,3.3262c10.53,3.1816,20.2149,10.0254,15.4424,25.82L796.47,2233.86c-2.9649,9.8125-10.57,17.6992-23.2539,13.8671s-14.65-14.6123-11.6856-24.4248l32.25-106.7363-.4785-.1445-71.18,103.331c-5.0918,7.3418-12.0869,8.8838-20.2246,6.4258s-13.1074-7.6172-13.2813-16.55l-2.0507-125.458-.4785-.1445-32.25,106.7363c-2.9649,9.8125-10.5723,17.6992-23.2559,13.8672s-14.65-14.6123-11.6856-24.4248Z" transform="translate(0 -40.896)"/><path d="M902.2735,2092.0684c4.4345-8.84,11.2353-11.4034,21.1816-10.3731l9.6983,1.0049c9.2011.9531,17.1757,4.041,20.3378,17.1865l35.045,142.1192c1.08,4.1328,2.82,11.6015,2.3554,16.0781-1.0293,9.9472-10.5576,17.0029-21.0019,15.9209-8.9512-.9268-15.082-4.8291-17.2422-13.0957l-7.3535-30.9229-65.6494-6.8L865.86,2251.92c-3.56,7.6739-9.6133,10.3145-19.3125,9.31-11.19-1.1592-18.1777-8.92-17.044-19.8613.4639-4.4766,3.6973-11.4307,5.6016-15.2549Zm4.7842-58.3174a18.25,18.25,0,1,1-20.0332,16.2724A18.3523,18.3523,0,0,1,907.0577,2033.751Zm16.5371,92.6972-.4971-.0507-31.5654,69.3671,47.7461,4.9454Zm34.1914-87.4433a18.25,18.25,0,1,1-20.0332,16.2724A18.3537,18.3537,0,0,1,957.7862,2039.0049Z" transform="translate(0 -40.896)"/><path d="M1111.7032,2162.6953c37.9345,6.2744,48.73,27.9248,49.9677,48.8877,1.9161,32.4424-21.11,58.0938-70.5234,61.0127-51.9072,3.0654-76.6494-21.5176-77.7988-40.9824-.59-9.9824,6.2343-17.3975,16.2168-17.9873,22.2109-1.3115,18.3867,31.47,59.8134,29.0224,21.212-1.2529,32.2491-13.6748,31.5411-25.6533-.4268-7.2373-4.3926-15.0166-18.5743-17.6846l-46.8613-9.0029c-37.7432-7.2871-45.69-27.3525-46.8252-46.5683-2.3594-39.93,33.6914-57.084,68.38-59.1329,31.9434-1.8867,70.6875,13.8555,72.1025,37.8125.6045,10.2325-7.7763,16.7373-17.7588,17.3272-18.9658,1.12-17.05-25.7891-55.2314-23.5332-18.9668,1.12-28.9316,10.4736-28.1953,22.9512s15.9463,15.5869,29.1006,17.8144Z" transform="translate(0 -40.896)"/><path d="M1214.6866,2106.1953l-37.82,8.4365c-11.4677,2.5577-22.0468-1.23-24.496-12.21s5.5166-18.9043,16.9853-21.4629l115.6572-25.7988c11.4678-2.5586,22.0469,1.2294,24.4961,12.21s-5.5166,18.9043-16.9853,21.4629l-37.82,8.4356,27.9218,125.1738c2.667,11.956-3.3447,21.75-15.5449,24.4717s-21.8047-3.5889-24.4717-15.545Z" transform="translate(0 -40.896)"/><path d="M1318.0948,2070.49c-6.7989-16.9365-.125-25.8115,13.332-31.2138l89.3232-35.8594c11.1368-4.4707,20.5616-4.4824,25.4043,7.582s-1.9726,18.5733-13.1093,23.044l-73.5469,29.5254,14.5293,36.1933,64.499-25.8935c9.9766-4.0049,18.9824-4.3868,23.7324,7.4453s-2.0205,17.7832-11.997,21.7881l-64.4991,25.8935,16.2071,40.3692,75.4023-30.2705c11.1367-4.4708,20.5615-4.4825,25.4043,7.582s-1.9727,18.5732-13.1094,23.0439l-91.18,36.6035c-13.457,5.4024-24.415,3.6055-31.2148-13.332Z" transform="translate(0 -40.896)"/><path d="M1461.2452,2011.5723c-9.5831-15.5323-4.5166-25.4141,7.8242-33.0284l58.0859-35.8369c41.4893-25.5976,66.6-9.6572,78.8076,10.13,10.2393,16.5957,10.56,39.0176-3.6728,53.0869l.2617.4248c19.4482-8.4726,30.6475,2.5371,40.2305,18.0684,10.8955,17.66,19.6455,21.3682,24.1084,28.6025,4.9882,8.085.1035,18.7364-7.9815,23.7246-19.1494,11.8145-32.06-5.7773-35.8662-11.9472-16.54-26.81-28.1289-34.6416-47.2773-22.8272l-34.4688,21.2666,27.6983,44.8936c6.4326,10.4258,3.955,21.6484-6.6827,28.2119s-21.7793,3.7422-28.2119-6.6826Zm64.2988,26.1318,34.8945-21.5283c13.1914-8.14,24.2832-19.6826,13.6494-36.917-10.1074-16.3828-22.7334-14.4688-38.0527-5.0166l-35.958,22.1846Z" transform="translate(0 -40.896)"/><path d="M1600.3858,1912.2227c-7.6719-9.5508-6.6006-20.9932,3.1455-28.8213s21.1494-6.4053,28.82,3.1455l91.1152,113.4414c7.6709,9.5508,6.6006,20.9931-3.1455,28.82s-21.1494,6.4053-28.82-3.1455Z" transform="translate(0 -40.896)"/><path d="M1655.6241,1878.1006c-12.9746-12.835-10.3809-23.6328-.1836-33.9414l67.6875-68.4278c8.4384-8.5312,17.08-12.29,26.3222-3.1474s5.5772,17.8242-2.8613,26.3555l-55.7324,56.3417,27.7265,27.4268,48.875-49.41c7.5606-7.6426,15.6709-11.5762,24.7354-2.61s5.22,17.1191-2.3408,24.7617l-48.875,49.41,30.9258,30.5918,57.1386-57.7637c8.4385-8.5313,17.08-12.291,26.3223-3.1484s5.5771,17.8242-2.8613,26.3554l-69.0938,69.85c-10.1972,10.3086-20.9668,13.0186-33.9414.1846Z" transform="translate(0 -40.896)"/><path d="M1800.51,1732.457l-22.3252,31.6739c-6.7685,9.6045-17.1465,13.9121-26.3418,7.4316s-8.6269-17.7031-1.8574-27.3076l68.2695-96.8594c6.7686-9.6045,17.1465-13.9131,26.3418-7.4316s8.627,17.7031,1.8574,27.3066l-22.3242,31.6738,104.8291,73.8868c10.0127,7.0566,12.1475,18.3486,4.9463,28.5664s-18.5537,12.0029-28.5664,4.9463Z" transform="translate(0 -40.896)"/><path d="M254.9268,376.5034c-12.7168-15.06-8.8828-26.4243,3.082-36.5273l41.26-34.8389c36.9277-31.1807,84.3476-43.6572,133.4707,14.519,39.7158,47.0362,36.51,96.39-8.67,134.5386l-40.6407,34.3164c-11.9648,10.1031-23.81,11.9781-36.5273-3.082Zm119.5371,72.9312,28.4688-24.0391c27.0253-22.8193,15.3085-54.2725-4.0264-77.1714-24.7354-29.2944-50.8565-37.63-75.6123-16.7265L295.03,355.3623Z" transform="translate(0 -40.896)"/><path d="M519.98,273.521c10.4258-6.2378,21.2617-7.0581,28.3321,4.7578s1.2246,20.9775-9.2022,27.2153l-38.2285,22.8736c-10.4268,6.2383-21.2627,7.0581-28.332-4.7578s-1.2246-20.9771,9.2021-27.2154Z" transform="translate(0 -40.896)"/><path d="M592.5108,179.6484c27.4736-11.9746,59.9414-13.1665,67.17,3.417,3.668,8.4151,1.2109,18.3218-8.1934,22.4214-14.1093,6.1489-21.832-10.2187-44.6035-.2934-12.623,5.5019-19.28,12.5268-15.9355,20.2,3.6679,8.4155,12.6982,6.8354,24.915,4.456l16.6084-3.1152c22.5938-4.2515,50.8731-6.2686,61.877,18.9775,12.8379,29.4541-9.6934,55.4737-36.92,67.34-32.6709,14.24-66.2617,11.5039-74.0292-6.3174-3.4532-7.92-2.126-17.04,8.0214-21.4629,15.5938-6.7964,26.7881,14.8325,53.52,3.1811,12.8711-5.6093,18.5576-14.8623,15.3213-22.2876-3.9913-9.1582-12.56-7.1909-26.8331-4.7988l-23.5507,4.08c-23.3047,3.9722-43.416,2.4292-53.9883-21.8271C543.0518,214.1646,567.5118,190.5444,592.5108,179.6484Z" transform="translate(0 -40.896)"/><path d="M740.13,211.4648c5.2656,20.1123,22.1553,31.32,44.3574,25.5069,28.7325-7.5225,23.8077-26.3291,39.2188-30.3643,9.1426-2.3935,17.7236,3.7329,19.57,10.7852,6.0176,22.9858-28.0068,43.3379-50.9922,49.3559-53.2851,13.9517-82.8359-16.8276-91.5215-50-11.6259-44.4038,7.4815-81.2246,52.669-93.0561,43.8818-11.49,77.0947,13.0278,85.3017,44.3721,3.42,13.06.3907,17.4814-12.4082,20.8325Zm61.1221-39.4482c-6.6719-16.9536-23.083-26.333-40.0615-21.8877-19.0664,4.9927-27.4825,19.7559-26.8057,39.3955Z" transform="translate(0 -40.896)"/><path d="M855.4541,67.0527c-1.3007-12.8945,5.8125-20.396,17.6319-21.5883s20.2881,4.7373,21.5888,17.6318l8.9961,89.1855,38.6407-52.7436c3.5957-4.7046,8.375-8.4434,14.2851-9.04,8.8643-.894,19.32,5.92,20.3242,15.86.7041,6.9844-1.497,9.3774-4.6093,13.4907l-25.95,33.2818,46.36,50.6816a21.5106,21.5106,0,0,1,5.3028,12.2192c1.0029,9.94-6.1348,19.8858-16.6114,20.9429-9.67.9756-15.2617-3.3452-18.65-7.3452l-42.3554-48.6431-12.4815,13.47,3.0088,29.8184c1.3008,12.894-5.8125,20.396-17.6328,21.5884s-20.2871-4.7378-21.5879-17.6319Z" transform="translate(0 -40.896)"/><path d="M1022.21,118.3628l-6.748-.1411c-11.0684-.2315-15.5665-4.6465-15.3868-13.2847.1817-8.6382,4.86-12.8613,15.9278-12.63l6.749.1411.5029-24.0249c.27-12.9575,8.24-19.5424,20.1172-19.2939s19.5654,7.1606,19.294,20.1182l-.502,24.0249,11.877.2485c11.6074.2427,17.7431,3.8818,17.5459,13.33s-6.48,12.8276-18.0879,12.5849l-11.877-.2485-1.6484,78.8233c-.125,5.9389,3.0468,9.246,10.0654,9.3925l5.6689.1187c8.6377.1806,13.6651,5.147,13.49,13.5151-.2373,11.3379-10.085,17.3433-28.9805,16.9478-28.6142-.5982-40.2441-12.7241-39.7578-35.9395Z" transform="translate(0 -40.896)"/><path d="M1114.2989,112.5542c1.0879-10.4736,6.3339-19.1577,21.6416-17.5669s18.6552,11.168,17.5673,21.6416l-11.247,108.2275c-1.0889,10.4737-6.335,19.1582-21.6426,17.5674s-18.6553-11.1684-17.5664-21.6421ZM1141.55,41.0078a20.52,20.52,0,1,1-22.5312,18.2891A20.5111,20.5111,0,0,1,1141.55,41.0078Z" transform="translate(0 -40.896)"/><path d="M1260.6953,115.45c46.3545,10.4521,63.9864,47.6406,54.8409,88.2017-8.6709,38.4536-35.0313,68.2133-87.4444,56.3955s-63.4521-50.0113-54.7822-88.4649C1182.4551,131.0215,1214.34,104.998,1260.6953,115.45Zm-26.19,116.1519c22.9151,5.1665,37.292-13.18,42.5772-36.6211,5.6416-25.021-.4131-46.0376-22.8008-51.0855s-36.876,11.3364-42.5176,36.3574C1206.4786,203.6938,1211.5909,226.4351,1234.5049,231.6021Z" transform="translate(0 -40.896)"/><path d="M1360.8692,161.7676c4.5039-10.9932,12.4687-16.1919,23.9619-11.4834s13.5215,14.001,9.0176,24.9941l-1.9444,4.7471.5.2051c15.7705-9.2954,32.9024-13.3648,53.64-4.8692,21.9863,9.0074,41.4678,29.8267,26.3193,66.8042l-29.0693,70.9566c-3.9912,9.7441-11.4688,16.6015-25.711,10.7671s-14.7587-15.9668-10.7666-25.711l26.1006-63.7109c6.0391-14.7412,3.0928-28.2031-12.6474-34.6514a30.6117,30.6117,0,0,0-39.5039,17.3711L1356.0977,277.4c-3.9922,9.7441-11.47,16.6011-25.7109,10.7671S1315.628,272.2,1319.62,262.4561Z" transform="translate(0 -40.896)"/><path d="M1516.3848,300.9663c-10.9473,17.6743-7.4326,37.6377,12.0781,49.7232,25.2491,15.64,35.4864-.8868,49.0283,7.5019,8.0342,4.9761,9.5079,15.417,5.668,21.6143-12.5117,20.2-50.706,9.563-70.9053-2.9488-46.8252-29.0053-44.8789-71.6294-26.8222-100.7807,24.1709-39.0215,64.0224-50.544,103.7324-25.9468,38.5625,23.8867,43.6787,64.8511,26.6162,92.3955-7.1084,11.4771-12.4,12.3281-23.6475,5.3613Zm70.7051,17.1172c7.69-16.5161,3.1806-34.8726-11.74-44.1147-16.7558-10.379-33.2539-6.3057-47.0214,7.7163Z" transform="translate(0 -40.896)"/><path d="M1666.7989,325.3438c7.8281-8.9366,17.05-11.2676,26.3925-3.0835s8.2442,17.6323.4161,26.5683l-3.3809,3.8589.4062.356c17.9346-3.6724,35.46-1.96,52.3165,12.8066,17.872,15.6567,29.541,41.6728,3.2089,71.731L1695.63,495.26c-6.9385,7.9209-16.2373,11.98-27.8135,1.8379s-8.7773-19.8931-1.8378-27.814l45.3681-51.7891c10.4971-11.9824,12.08-25.6718-.7148-36.8808a30.6125,30.6125,0,0,0-43.0039,3.6069l-42.878,48.9458c-6.9384,7.9209-16.2373,11.98-27.8144,1.8379s-8.7764-19.8931-1.8379-27.814Z" transform="translate(0 -40.896)"/></g><g id="circle"><path d="M1024.042,380.45a776.7179,776.7179,0,0,1,436.4126,133.2847,783.0546,783.0546,0,0,1,282.8828,343.4983A779.5189,779.5189,0,0,1,1671.375,1597.48a783.0533,783.0533,0,0,1-343.4985,282.8832,779.5195,779.5195,0,0,1-740.2471-71.9625A783.0569,783.0569,0,0,1,304.7466,1464.902,779.5189,779.5189,0,0,1,376.709,724.6549,783.0542,783.0542,0,0,1,720.2076,441.772,775.6793,775.6793,0,0,1,1024.042,380.45m0-55c-461.499,0-835.6176,374.1185-835.6176,835.6174s374.1186,835.6178,835.6176,835.6178S1859.66,1622.5663,1859.66,1161.0674,1485.5411,325.45,1024.042,325.45Z" transform="translate(0 -40.896)"/></g><g id="arcs"><path id="arc_base" data-name="arc base" class="cls-2" d="M125.7962,1593.1642C62.8024,1462.4512,27.5,1315.8819,27.5,1161.0674c0-235.31,81.5571-451.5717,217.946-622.0594" transform="translate(0 -40.896)"/><path id="arc_base-2" data-name="arc base" class="cls-2" d="M1802.6384,539.0085c136.3887,170.4876,217.9457,386.7489,217.9457,622.0589,0,154.7929-35.2926,301.3429-98.27,432.0422" transform="translate(0 -40.896)"/></g></g></g></g></svg>