<svg xmlns="http://www.w3.org/2000/svg" viewBox="0 0 2223.3684 2234.0571"><defs><style>.cls-1{fill:#f280a1;}.cls-1,.cls-2{fill-rule:evenodd;}.cls-2,.cls-4{fill:#fff;}.cls-3{fill:#96c;}.cls-5{fill:none;stroke:#f280a1;stroke-linecap:round;stroke-miterlimit:10;stroke-width:55px;}</style></defs><g id="Layer_2" data-name="Layer 2"><g id="inner"><g id="dark"><g id="megaphone"><path id="base" class="cls-1" d="M1250.0053,764.5945l256.6362,604.5577a35.9092,35.9092,0,1,1-66.09,28.1071l-16.7123-39.3753L1054.2679,1396.12c2.7854,8.23,4.6845,17.9784,5.6974,29.6265A140.5669,140.5669,0,0,1,932.3435,1577.93c-77.2314,6.71-145.347-50.39-152.0573-127.6219a85.0446,85.0446,0,0,1,1.2661-25.8282l-76.2186,7.85,7.2167,17.0922a35.9092,35.9092,0,0,1-66.09,28.1071L574.6733,1308.38a35.9092,35.9092,0,1,1,66.09-28.1071l8.103,18.9913,551.7616-467.06-16.7123-39.502a35.9091,35.9091,0,1,1,66.09-28.1069ZM977.29,1403.97l-120.2785,12.4077a67.2212,67.2212,0,0,0-3.2918,27.2209,66.53,66.53,0,0,0,132.56-11.5214A68.0372,68.0372,0,0,0,977.29,1403.97Z" transform="translate(-49.349 -40.896)"/><polygon id="reflection" class="cls-2" points="1160.774 902.344 645.603 1276.6 659.15 1308.632 1219.521 1040.98 1160.774 902.344"/></g><g id="shout"><polygon id="lower" class="cls-3" points="1448.107 1039.358 1463.199 1079.211 1671.065 1054.683 1649.732 977.35 1448.107 1039.358"/><polygon id="upper" class="cls-3" points="1386.917 939.966 1421.757 984.687 1704.305 877.817 1647.83 788.131 1386.917 939.966"/></g></g></g><g id="outer"><g id="dark-2" data-name="dark"><g id="text"><path class="cls-4" d="M224.7793,1031.5913c12.17,1.3975,19.4531,10.2866,18.0273,22.7046s-10.5351,19.4253-22.705,18.0278L75.5527,1055.7261c-12.17-1.3975-19.4541-10.2866-18.0283-22.7051s10.5342-19.4248,22.7041-18.0273Z" transform="translate(-49.349 -40.896)"/><path class="cls-4" d="M211.5137,1094.3613c16.998-.2759,24.1308,7.8594,24.415,25.3575.1377,8.499-2.9892,16.0507-10.416,20.6718l-114.5713,73.62.0088.5,106.7373-1.7324c13.248-.2158,19.8691,7.1778,20.0684,19.4268s-6.18,19.8525-19.4278,20.0683l-141.2324,2.293c-16.248.2637-25.6113-6.585-25.8906-23.833-.211-12.998,2.47-17.293,10.6328-22.6758l111.33-73.0679-.0078-.5-103.7383,1.6846c-13.2481.2153-19.8692-7.1782-20.0684-19.4267s6.18-19.8536,19.4277-20.0684Z" transform="translate(-49.349 -40.896)"/><path class="cls-4" d="M214.4678,1275.7061c17.9521-3.2823,25.3174,5.0293,27.9238,19.2929l16.2275,88.7793c2.1582,11.8047.2891,21.041-12.5,23.3789-12.7871,2.3379-17.8046-5.6406-19.9619-17.4453l-13.1709-72.0557-41.3154,7.5518,11.1475,60.9893c1.9336,10.5752.5107,19.4756-12.0313,21.7685s-17.0215-5.5293-18.9551-16.1045l-11.1484-60.9892-55.332,10.1142c-12.0508,2.2022-21.6055-4.1836-23.8526-16.4795s4.4287-21.6494,16.4795-23.8525Z" transform="translate(-49.349 -40.896)"/><path class="cls-4" d="M294.6484,1481.2764c20.4258,55.3525-5.32,98.9619-54.8086,117.2236-47.6113,17.5693-100.746,5.7314-122.0371-51.9658-22.3281-60.5127,7.9-99.9141,59.0313-118.7813C226.3223,1409.4912,274.2227,1425.9248,294.6484,1481.2764Zm-145.8847,53.833c12.8945,34.9472,44.5156,36.8691,76.8828,24.9258s49.64-35.9053,38.043-67.334-40.295-38.4268-72.6622-26.4834S135.4346,1498.99,148.7637,1535.1094Z" transform="translate(-49.349 -40.896)"/><path class="cls-4" d="M307.9854,1589.9189c15.6259-9.4306,25.458-4.2675,32.95,8.1475l35.2657,58.4356c25.1914,41.7392,9.0049,66.6923-10.9024,78.706-16.6953,10.0762-39.1191,10.1768-53.0488-4.1934l-.4277.2579c8.2832,19.5312-2.8369,30.622-18.4629,40.0517-17.7656,10.7217-21.56,19.4356-28.8369,23.8281-8.1338,4.9092-18.7373-.08-23.6465-8.2148-11.626-19.2637,6.0918-32.001,12.3-35.7471,26.9707-16.2773,34.916-27.789,23.289-47.0527l-20.9277-34.6768-45.1641,27.2579c-10.4882,6.3291-21.6855,3.7431-28.1445-6.96s-3.5293-21.8145,6.959-28.1445ZM281.2236,1653.96l21.1856,35.1035c8.0088,13.2715,19.4433,24.4756,36.7812,14.0117,16.4815-9.9463,14.6914-22.5908,5.3907-38.002L322.75,1628.8984Z" transform="translate(-49.349 -40.896)"/><path class="cls-4" d="M402.7129,1732.417c12.1562-11.1572,22.5273-5.4043,29.9648,2.7l8.1153,8.8408c8.6211,9.3936,8.9941,17.1953,1.7382,29.624L381.61,1878.0234l.3388.3682L490.8809,1826.26c13.0039-6.166,20.7441-5.127,29.3662,4.2666l7.7763,8.4726c7.4385,8.1045,12.2832,18.9287.127,30.086l-107.751,98.8955c-7.5517,6.9316-18.1162,9.8408-27.0762.0791s-5.1572-20.0391,2.3946-26.9707l82.1484-75.3965-.3389-.3692-113.9062,52.626c-8.1231,3.7217-14.9277,1.4844-20.6758-4.7783s-7.3945-13.2344-2.9922-21.0078l62.1778-108.9873-.3379-.3692-82.1485,75.3975c-7.5517,6.9316-18.1162,9.8408-27.0761.0781s-5.1573-20.0381,2.3945-26.97Z" transform="translate(-49.349 -40.896)"/><path class="cls-4" d="M583.5938,1900.0273c8.33-5.331,15.4863-4.0576,23.5078,1.9131l7.8222,5.82c7.4209,5.5235,12.6953,12.2539,8.6934,25.169l-42.5313,140.0635c-1.1855,4.1045-3.5078,11.413-6.1953,15.0234-5.97,8.0225-17.7656,9.2168-26.1894,2.9473-7.2207-5.3731-10.4942-11.8614-8.125-20.07l9.4883-30.337-52.9493-39.4043L470.58,2018.8008c-6.9824,4.7763-13.5352,3.95-21.3574-1.87-9.0254-6.7168-11.0635-16.96-4.4961-25.7852,2.6875-3.6094,9.0214-7.9336,12.6132-10.2471Zm.75,40.4483-.4-.2979-62.5918,43.4834,38.5078,28.6582Z" transform="translate(-49.349 -40.896)"/><path class="cls-4" d="M684.0332,1997.9785l-34.0215-18.5469c-10.3164-5.624-15.7851-15.4394-10.4-25.3164s16.5977-10.5986,26.9141-4.9746l104.041,56.7188c10.3164,5.624,15.7852,15.4394,10.4,25.3164s-16.5967,10.5986-26.9131,4.9746l-34.0225-18.5479-61.3847,112.6026c-5.8633,10.7558-16.836,14.17-27.8106,8.1865s-14.0507-17.0547-8.1875-27.8105Z" transform="translate(-49.349 -40.896)"/><path class="cls-4" d="M787.93,2030.7109c4.6074-11.3505,15.123-15.9863,26.7051-11.2841s15.8916,15.3535,11.2851,26.7041l-54.7226,134.8164c-4.6075,11.3506-15.1231,15.9863-26.7051,11.2851s-15.8926-15.3545-11.2852-26.7051Z" transform="translate(-49.349 -40.896)"/><path class="cls-4" d="M931.3867,2056.92c57.1348,14.7139,78.335,60.7041,65.18,111.7862-12.6562,49.1455-52.6328,86.0918-112.1894,70.7548-62.461-16.0859-77.6485-63.3671-64.0567-116.1435C833.4756,2072.2354,874.252,2042.2061,931.3867,2056.92Zm-38.7793,150.584c36.0723,9.29,55.6514-15.6133,64.2559-49.0225s-1.2656-61.25-33.7061-69.6044-54.5283,11.2558-63.1328,44.665S855.3242,2197.9023,892.6074,2207.5039Z" transform="translate(-49.349 -40.896)"/><path class="cls-4" d="M1028.1641,2104.9141c.9824-16.9717,9.624-23.4834,27.0957-22.4727,8.4853.4922,15.7851,4.17,19.8437,11.918l64.9414,119.706.5.0293,6.17-106.5742c.7657-13.2285,8.629-19.2842,20.8594-18.5762s19.3408,7.6309,18.5752,20.8594l-8.164,141.0166c-.9395,16.2236-8.462,25.0537-25.6846,24.0567-12.9785-.751-17.0625-3.7422-21.8262-12.2823l-64.6308-116.4326-.4981-.0293-5.998,103.5791c-.7657,13.2285-8.6289,19.2842-20.8584,18.5762s-19.3418-7.6309-18.5752-20.8594Z" transform="translate(-49.349 -40.896)"/><path class="cls-4" d="M1309.9121,2155.7607c38.24,4.0137,50.3,24.9864,52.7783,45.8389,3.8369,32.2725-17.6289,59.2442-66.7812,65.0869-51.6348,6.1377-77.791-16.9345-80.0928-36.2978-1.1807-9.93,5.1924-17.7364,15.1221-18.917,22.0937-2.627,20.2207,30.3242,61.43,25.4258,21.1006-2.5088,31.3808-15.5635,29.9648-27.4795-.8564-7.1983-5.2764-14.7295-19.5908-16.5518l-47.3125-6.209c-38.1094-5.0361-47.2324-24.5947-49.5049-43.71-4.7217-39.72,30.2481-58.9815,64.7539-63.084,31.7754-3.7774,71.3858,9.6406,74.2188,33.4726,1.21,10.1778-6.7705,17.168-16.7,18.3487-18.8672,2.2431-18.5489-24.7325-56.53-20.2178-18.8672,2.2432-28.2608,12.1709-26.7852,24.584s16.8428,14.6133,30.1055,16.0576Z" transform="translate(-49.349 -40.896)"/><path class="cls-4" d="M1361.4775,2090.0078c-3.5361-11.7275,1.7413-21.9365,13.709-25.5449s22.0078,1.9805,25.5449,13.708l28.4366,94.3037c7.0722,23.457,23.4121,30.0186,45.9111,23.2344s32.4873-21.2852,25.415-44.7422l-28.4375-94.3037c-3.5361-11.7276,1.7413-21.9356,13.709-25.5449s22.0078,1.98,25.5449,13.7089l27.4981,91.1915c14.291,47.3916-8.4863,77.499-54.2022,91.2841s-81.34,1.2881-95.6308-46.1025Z" transform="translate(-49.349 -40.896)"/><path class="cls-4" d="M1578.6309,2030.9639l-34.5821,17.4785c-10.4863,5.3-21.6709,4.2295-26.7461-5.8106s.6983-19.68,11.1846-24.98l105.7559-53.4492c10.4863-5.3,21.6709-4.23,26.7451,5.81s-.6973,19.68-11.1836,24.98l-34.583,17.4775,57.8476,114.458c5.5254,10.9326,2.1065,21.9033-9.0488,27.542s-22.0166,1.8838-27.542-9.0488Z" transform="translate(-49.349 -40.896)"/><path class="cls-4" d="M1777.207,1956.8916c35.2969-15.2529,56.0909-2.8877,68.4766,14.0713,19.168,26.2451,13.6855,60.2783-26.2891,89.4726-41.9931,30.669-76.1025,23.3848-87.6035,7.6377-5.8974-8.0761-4.1719-18.0048,3.9043-23.9023,17.9678-13.123,32.4922,16.5137,66.0059-7.9619,17.16-12.5332,19.72-28.9522,12.6416-38.6426-4.2754-5.8545-11.82-10.251-25.19-4.82l-44.2793,17.7881c-35.6845,14.2978-53.2255,1.7246-64.5791-13.8213-23.5918-32.3018-2.5585-66.2373,25.504-86.7324,25.8417-18.8731,66.9433-26.6016,81.0976-7.22,6.0459,8.2774,2.5186,18.2832-5.5576,24.1807-15.3438,11.2061-28.294-12.46-59.1826,10.0986-15.3438,11.2061-18.6621,24.4649-11.29,34.56s21.8448,4.4775,34.1123-.7666Z" transform="translate(-49.349 -40.896)"/><path class="cls-4" d="M1790.9824,1872.15c-8.7353-8.5889-9.01-20.0772-.2451-28.99s20.2549-8.834,28.99-.2461l42.4278,41.7168-5.4063-95.7725c-.2353-6.8926-.1074-12.7275,4.9756-17.8975,6.8359-6.9521,17.95-9.6982,25.4375-2.3369,4.4561,4.3819,5.208,9.68,5.25,14.6289l2.1074,60.9737,88.8955,17.6338c6.73,1.3574,13.2774,2.1855,17.0205,5.8662,10.875,10.6923,6.1963,21.8691-.64,28.8222-5.7842,5.8828-10.3652,7.6895-20.4609,5.4766l-85.1817-17.4883.2686,31.8184,29.0586,28.57c8.7343,8.5888,9.0088,20.0781.2451,28.9912s-20.2559,8.834-28.9912.2451Z" transform="translate(-49.349 -40.896)"/><path class="cls-4" d="M1925.9385,1683.8838c33.3857-48.6475,83.8554-52.8223,127.35-22.9727,41.8437,28.7168,62.873,78.9287,28.0732,129.6368-36.498,53.1816-86.123,51.2656-131.06,20.4257C1906.8086,1781.125,1892.5527,1732.53,1925.9385,1683.8838Zm128.2138,87.99c21.0782-30.7129,4.3809-57.6357-24.0644-77.1582s-57.9834-19.78-76.94,7.8408-8.0918,55.09,20.3545,74.6123S2032.3662,1803.6182,2054.1523,1771.874Z" transform="translate(-49.349 -40.896)"/><path class="cls-4" d="M2031.37,1579.5791l-16.0937,35.249c-4.8809,10.6885-14.2842,16.8389-24.5186,12.166s-11.7461-15.8066-6.8652-26.4951l49.2178-107.7959c4.8808-10.6885,14.2841-16.8379,24.5185-12.166s11.7461,15.8067,6.8652,26.4951l-16.0947,35.25,116.6651,53.2676c11.1435,5.0879,15.3251,15.792,10.1337,27.1631s-16.0195,15.2217-27.163,10.1338Z" transform="translate(-49.349 -40.896)"/><path class="cls-4" d="M2089.3574,1427.72l-9.8974,37.4629c-3.001,11.36-11.2286,19.0117-22.1055,16.1387s-14.25-13.5908-11.249-24.9512l30.2685-114.5654c3.001-11.3594,11.2285-19.0117,22.1055-16.1377s14.25,13.5908,11.249,24.95l-9.8984,37.4639,123.9922,32.7587c11.8437,3.129,17.7754,12.9707,14.583,25.0557s-13.2129,17.7119-25.0557,14.583Z" transform="translate(-49.349 -40.896)"/><path class="cls-4" d="M2105.18,1319.4609c-18.1651-1.7607-22.9717-11.7714-21.5723-26.2041l9.2871-95.8037c1.1582-11.9443,5.4864-20.3164,18.4258-19.0615s15.5791,10.3018,14.4219,22.2461l-7.6475,78.8818,38.8194,3.7637,6.706-69.1777c1.0371-10.7,4.8438-18.8711,17.5342-17.6407s14.8574,9.9805,13.8193,20.6807l-6.706,69.1777,43.2978,4.1973,7.8408-80.873c1.1583-11.9444,5.4864-20.3164,18.4258-19.0616s15.5791,10.3018,14.4209,22.2461l-9.48,97.794c-1.3995,14.4326-8.0391,23.334-26.2051,21.5722Z" transform="translate(-49.349 -40.896)"/><path class="cls-4" d="M2125.6436,1115.05l2.6376,38.66c.7989,11.7226-4.54,21.6093-15.7646,22.375s-17.8564-8.3047-18.6553-20.0269l-8.0644-118.2251c-.8-11.7231,4.539-21.6094,15.7636-22.375s17.8565,8.3042,18.6563,20.0269l2.6367,38.66,127.9522-8.728c12.2216-.8335,20.997,6.5864,21.8476,19.0576s-6.8349,21.0137-19.0566,21.8472Z" transform="translate(-49.349 -40.896)"/><path class="cls-4" d="M393.6211,376.5034c-12.7168-15.06-8.8828-26.4243,3.082-36.5273l41.26-34.8389c36.9277-31.1807,84.3476-43.6572,133.4707,14.519,39.7158,47.0362,36.51,96.39-8.67,134.5386L522.123,488.5112c-11.9648,10.1031-23.8105,11.9781-36.5273-3.082Zm119.5371,72.9312,28.4688-24.0391c27.0253-22.8193,15.3085-54.2725-4.0264-77.1714-24.7354-29.2944-50.8565-37.63-75.6123-16.7265l-28.2637,23.8647Z" transform="translate(-49.349 -40.896)"/><path class="cls-4" d="M658.6738,273.521c10.4258-6.2378,21.2617-7.0581,28.3321,4.7578s1.2246,20.9775-9.2022,27.2153l-38.2285,22.8736c-10.4268,6.2383-21.2627,7.0581-28.332-4.7578s-1.2246-20.9771,9.2021-27.2154Z" transform="translate(-49.349 -40.896)"/><path class="cls-4" d="M731.2051,179.6484c27.4736-11.9746,59.9414-13.1665,67.17,3.417,3.668,8.4151,1.2109,18.3218-8.1934,22.4214-14.1093,6.1489-21.832-10.2187-44.6035-.2934-12.623,5.5019-19.28,12.5268-15.9355,20.2,3.6679,8.4155,12.6982,6.8354,24.915,4.456l16.6084-3.1152c22.5938-4.2515,50.8731-6.2686,61.877,18.9775,12.8379,29.4541-9.6934,55.4737-36.92,67.34-32.6709,14.24-66.2617,11.5039-74.0292-6.3174-3.4532-7.92-2.126-17.04,8.0214-21.4629,15.5938-6.7964,26.7881,14.8325,53.52,3.1811,12.8711-5.6093,18.5576-14.8623,15.3213-22.2876-3.9913-9.1582-12.56-7.1909-26.8331-4.7988l-23.5507,4.08c-23.3047,3.9722-43.4161,2.4292-53.9883-21.8271C681.7461,214.1646,706.2061,190.5444,731.2051,179.6484Z" transform="translate(-49.349 -40.896)"/><path class="cls-4" d="M878.8242,211.4648c5.2656,20.1123,22.1553,31.32,44.3574,25.5069,28.7325-7.5225,23.8077-26.3291,39.2188-30.3643,9.1426-2.3935,17.7236,3.7329,19.57,10.7852,6.0176,22.9858-28.0068,43.3379-50.9922,49.3559-53.2851,13.9517-82.8359-16.8276-91.5215-50-11.6259-44.4038,7.4815-81.2246,52.669-93.0561,43.8818-11.49,77.0947,13.0278,85.3017,44.3721,3.42,13.06.3907,17.4814-12.4082,20.8325Zm61.1221-39.4482c-6.6719-16.9536-23.083-26.333-40.0615-21.8877-19.0664,4.9927-27.4825,19.7559-26.8057,39.3955Z" transform="translate(-49.349 -40.896)"/><path class="cls-4" d="M994.1484,67.0527c-1.3007-12.8945,5.8125-20.396,17.6319-21.5883s20.2881,4.7373,21.5888,17.6318l8.9961,89.1855,38.6407-52.7436c3.5957-4.7046,8.375-8.4434,14.2851-9.04,8.8643-.894,19.32,5.92,20.3242,15.86.7041,6.9844-1.497,9.3774-4.6093,13.4907l-25.95,33.2818,46.36,50.6816a21.5106,21.5106,0,0,1,5.3028,12.2192c1.0029,9.94-6.1348,19.8858-16.6114,20.9429-9.67.9756-15.2617-3.3452-18.65-7.3452l-42.3554-48.6431-12.4815,13.47,3.0088,29.8184c1.3008,12.894-5.8125,20.396-17.6328,21.5884s-20.2871-4.7378-21.5879-17.6319Z" transform="translate(-49.349 -40.896)"/><path class="cls-4" d="M1160.9043,118.3628l-6.7481-.1411c-11.0683-.2315-15.5664-4.6465-15.3867-13.2847.1817-8.6382,4.86-12.8613,15.9278-12.63l6.749.1411.5029-24.0249c.2705-12.9575,8.24-19.5424,20.1172-19.2939s19.5654,7.1606,19.294,20.1182l-.502,24.0249,11.877.2485c11.6074.2427,17.7431,3.8818,17.5458,13.33s-6.48,12.8276-18.0878,12.5849l-11.877-.2485L1198.668,198.01c-.125,5.9389,3.0468,9.246,10.0654,9.3925l5.6689.1187c8.6377.1806,13.6651,5.147,13.49,13.5151-.2373,11.3379-10.085,17.3433-28.98,16.9478-28.6142-.5982-40.2441-12.7241-39.7578-35.9395Z" transform="translate(-49.349 -40.896)"/><path class="cls-4" d="M1252.9932,112.5542c1.0879-10.4736,6.3339-19.1577,21.6416-17.5669s18.6552,11.168,17.5673,21.6416l-11.247,108.2275c-1.0889,10.4737-6.335,19.1582-21.6426,17.5674s-18.6553-11.1684-17.5664-21.6421Zm27.2509-71.5464a20.52,20.52,0,1,1-22.5312,18.2891A20.5111,20.5111,0,0,1,1280.2441,41.0078Z" transform="translate(-49.349 -40.896)"/><path class="cls-4" d="M1399.39,115.45c46.3545,10.4521,63.9864,47.6406,54.8409,88.2017-8.6709,38.4536-35.0313,68.2133-87.4444,56.3955s-63.4521-50.0113-54.7822-88.4649C1321.1494,131.0215,1353.0342,104.998,1399.39,115.45Zm-26.19,116.1519c22.9151,5.1665,37.292-13.18,42.5772-36.6211,5.6416-25.021-.4131-46.0376-22.8008-51.0855s-36.876,11.3364-42.5176,36.3574C1345.1729,203.6938,1350.2852,226.4351,1373.1992,231.6021Z" transform="translate(-49.349 -40.896)"/><path class="cls-4" d="M1499.5635,161.7676c4.5039-10.9932,12.4687-16.1919,23.9619-11.4834s13.5215,14.001,9.0176,24.9941l-1.9444,4.7471.5.2051c15.77-9.2954,32.9024-13.3648,53.64-4.8692,21.9863,9.0074,41.4678,29.8267,26.3193,66.8042l-29.0693,70.9566c-3.9912,9.7441-11.4688,16.6015-25.711,10.7671s-14.7587-15.9668-10.7666-25.711l26.1006-63.7109c6.0391-14.7412,3.0928-28.2031-12.6474-34.6514A30.6117,30.6117,0,0,0,1519.46,217.187L1494.792,277.4c-3.9922,9.7441-11.47,16.6011-25.7109,10.7671s-14.7588-15.9668-10.7666-25.7109Z" transform="translate(-49.349 -40.896)"/><path class="cls-4" d="M1655.0791,300.9663c-10.9473,17.6743-7.4326,37.6377,12.0781,49.7232,25.249,15.64,35.4864-.8868,49.0283,7.5019,8.0342,4.9761,9.5079,15.417,5.668,21.6143-12.5117,20.2-50.706,9.563-70.9053-2.9488-46.8252-29.0053-44.8789-71.6294-26.8222-100.7807,24.1709-39.0215,64.0224-50.544,103.7324-25.9468,38.5625,23.8867,43.6787,64.8511,26.6162,92.3955-7.1084,11.4771-12.4,12.3281-23.6475,5.3613Zm70.7051,17.1172c7.69-16.5161,3.1806-34.8726-11.74-44.1147-16.7558-10.379-33.2539-6.3057-47.0214,7.7163Z" transform="translate(-49.349 -40.896)"/><path class="cls-4" d="M1805.4932,325.3438c7.8281-8.9366,17.05-11.2676,26.3925-3.0835s8.2442,17.6323.4161,26.5683l-3.3809,3.8589.4062.356c17.9346-3.6724,35.46-1.96,52.3165,12.8066,17.872,15.6567,29.541,41.6728,3.2089,71.731L1834.3242,495.26c-6.9385,7.9209-16.2373,11.98-27.8135,1.8379s-8.7773-19.8931-1.8378-27.814l45.3681-51.7891c10.4971-11.9824,12.08-25.6718-.7148-36.8808a30.6125,30.6125,0,0,0-43.0039,3.6069l-42.878,48.9458c-6.9384,7.9209-16.2373,11.98-27.8144,1.8379s-8.7764-19.8931-1.8379-27.814Z" transform="translate(-49.349 -40.896)"/></g><g id="circle"><path class="cls-4" d="M1162.7363,380.45a776.7179,776.7179,0,0,1,436.4126,133.2847,783.0546,783.0546,0,0,1,282.8828,343.4983,779.5189,779.5189,0,0,1-71.9624,740.2471,783.0533,783.0533,0,0,1-343.4985,282.8832,779.5181,779.5181,0,0,1-740.2471-71.9625,783.0559,783.0559,0,0,1-282.883-343.4986,779.5189,779.5189,0,0,1,71.9624-740.2471A783.0578,783.0578,0,0,1,858.9016,441.772,775.68,775.68,0,0,1,1162.7363,380.45m0-55c-461.499,0-835.6179,374.1185-835.6179,835.6174s374.1189,835.6178,835.6179,835.6178,835.6177-374.1189,835.6177-835.6178S1624.2354,325.45,1162.7363,325.45Z" transform="translate(-49.349 -40.896)"/></g><g id="arcs"><path id="arc_base" data-name="arc base" class="cls-5" d="M196.3153,916.9372A993.1291,993.1291,0,0,1,384.14,539.008" transform="translate(-49.349 -40.896)"/><path id="arc_base-2" data-name="arc base" class="cls-5" d="M1941.3327,539.0085a993.1279,993.1279,0,0,1,187.8246,377.9291" transform="translate(-49.349 -40.896)"/></g></g></g></g></svg>