<svg xmlns="http://www.w3.org/2000/svg" viewBox="0 0 2168.6761 2233.3861"><defs><style>.cls-1,.cls-5{fill:none;stroke:#f280a1;stroke-linecap:round;stroke-miterlimit:10;}.cls-1{stroke-width:115px;}.cls-2{fill:#f280a1;}.cls-3{fill:#96c;}.cls-4{fill:#fff;}.cls-5{stroke-width:55px;}</style></defs><g id="Layer_2" data-name="Layer 2"><g id="inner"><g id="dark"><g id="ball"><g id="stand"><line class="cls-1" x1="652.0028" y1="1516.1173" x2="1527.2475" y2="1516.1173"/><path class="cls-2" d="M1569.288,1451.1045a61.57,61.57,0,0,1-1.8759,15.1257H728.211a61.73,61.73,0,0,1,59.8314-76.8331h719.5382A61.7109,61.7109,0,0,1,1569.288,1451.1045Z" transform="translate(-58.1864 -40.896)"/></g><path id="crystal" class="cls-3" d="M1591.9488,1064.5937a442.3411,442.3411,0,0,1-107.4908,289.7H811.165a442.3415,442.3415,0,0,1-107.4907-289.7c0-245.2891,198.8481-444.1372,444.1372-444.1372S1591.9488,819.3046,1591.9488,1064.5937Z" transform="translate(-58.1864 -40.896)"/><g id="stars"><path class="cls-4" d="M965.0872,880.1349c-35.3558,8.6289-46.82,20.0934-55.4491,55.4491a4.8646,4.8646,0,0,1-9.4569,0c-8.6288-35.3557-20.0934-46.82-55.4491-55.4491a4.8646,4.8646,0,0,1,0-9.4569c35.3557-8.6288,46.82-20.0933,55.4491-55.4491a4.8647,4.8647,0,0,1,9.4569,0c8.6288,35.3558,20.0933,46.82,55.4491,55.4491A4.8647,4.8647,0,0,1,965.0872,880.1349Z" transform="translate(-58.1864 -40.896)"/><path class="cls-4" d="M1028.4632,781.6349c-14.476,3.902-20.4458,9.4542-24.699,22.8062a3.943,3.943,0,0,1-7.5059,0c-4.2532-13.352-10.223-18.9042-24.6991-22.8062a3.7048,3.7048,0,0,1,0-7.1595c14.4761-3.902,20.4459-9.4542,24.6991-22.8062a3.943,3.943,0,0,1,7.5059,0c4.2532,13.352,10.223,18.9042,24.699,22.8062A3.7048,3.7048,0,0,1,1028.4632,781.6349Z" transform="translate(-58.1864 -40.896)"/><path class="cls-4" d="M1086.3106,888.2837c-14.476,3.902-20.4458,9.4542-24.699,22.8062a3.943,3.943,0,0,1-7.506,0c-4.2532-13.352-10.223-18.9042-24.699-22.8062a3.7048,3.7048,0,0,1,0-7.16c14.476-3.9019,20.4458-9.4542,24.699-22.8061a3.943,3.943,0,0,1,7.506,0c4.2532,13.3519,10.223,18.9042,24.699,22.8061A3.7049,3.7049,0,0,1,1086.3106,888.2837Z" transform="translate(-58.1864 -40.896)"/></g></g></g></g><g id="outer"><g id="dark-2" data-name="dark"><g id="text"><path class="cls-4" d="M208.5381,1335.0254c17.71-4.4082,25.5849,3.4209,29.0879,17.4922l21.8027,87.5781c2.8984,11.6445,1.6152,20.9814-11,24.1221s-18.125-4.5049-21.0234-16.15L209.71,1376.9863l-40.7579,10.1465,14.9786,60.1641c2.5966,10.4316,1.7382,19.4052-10.6338,22.4853s-17.3369-4.4433-19.9346-14.875l-14.9766-60.165L83.8,1408.3311c-11.8867,2.9589-21.8252-2.8116-24.8457-14.9415s3.0547-21.8857,14.9414-24.8447Z" transform="translate(-58.1864 -40.896)"/><path class="cls-4" d="M243.6611,1472.7715c16.74-7.2666,25.7969-.8428,31.5713,12.458l27.1768,62.6064c19.4121,44.7178.0508,67.294-21.2764,76.5528-17.8877,7.7646-40.124,4.8808-52.0166-11.2149l-.459.1992c5.6094,20.4581-6.8857,29.97-23.6269,37.2374-19.0332,8.2626-23.9522,16.3935-31.75,19.7783-8.7139,3.7822-18.5586-2.5733-22.3418-11.2871-8.959-20.64,10.2949-30.9053,16.9453-33.792,28.8955-12.543,38.3008-22.8946,29.3418-43.5342l-16.127-37.15L132.7119,1565.63c-11.2373,4.8779-21.99.8242-26.9678-10.6416s-.5947-22.09,10.6416-26.9678ZM208.6182,1532.68l16.3261,37.6094c6.1719,14.2177,16.0127,26.8427,34.5879,18.7793,17.6582-7.6651,17.5664-20.4346,10.3985-36.9454l-16.8243-38.7558Z" transform="translate(-58.1864 -40.896)"/><path class="cls-4" d="M350.4316,1656.8672c9.6495-2.169,15.94,1.4687,21.4444,9.8183l5.3672,8.14c5.0908,7.7227,7.7529,15.85-.4151,26.624l-87.7617,117.1475c-2.5146,3.4541-7.19,9.5312-10.9482,12.0088-8.3487,5.5039-19.8438,2.6015-25.6231-6.1651-4.9541-7.5136-5.8183-14.7295-.791-21.6377l19.2676-25.2783-36.3262-55.1035-30.9648,7.5371c-8.1934,2.1074-14.07-.9043-19.4375-9.0449-6.1924-9.3926-4.6133-19.7158,4.57-25.7705,3.7568-2.4766,11.1855-4.38,15.3515-5.3291Zm-13.0947,38.2773-.2744-.4179-73.6689,19.5214,26.42,40.0752Z" transform="translate(-58.1864 -40.896)"/><path class="cls-4" d="M404.6592,1754.1738c11.83-11.5009,22.3613-6.05,30.0293,1.8369l8.3642,8.6045c8.8877,9.1416,9.4854,16.9287,2.5889,29.5606l-57.89,106.1455.3486.3584,107.3828-55.24c12.8213-6.5372,20.5889-5.7207,29.4766,3.4209l8.0166,8.2451c7.6679,7.8867,12.8213,18.5664.9912,30.0683L429.1094,1989.1221c-7.3487,7.1455-17.8252,10.3574-27.0615.8574s-5.7305-19.8818,1.6181-27.0274l79.9424-77.7246-.3477-.3584-112.3427,55.877c-8.0108,3.9541-14.878,1.9121-20.8028-4.1816s-7.7724-13.0157-3.5947-20.9122l59.0156-110.7265-.3486-.3584-79.9434,77.7246c-7.3486,7.1455-17.8252,10.3574-27.0615.8574s-5.7305-19.8818,1.6172-27.0264Z" transform="translate(-58.1864 -40.896)"/><path class="cls-4" d="M578.5342,1939.084,546.8,1916.8477c-9.623-6.7432-13.9609-17.1084-7.5039-26.3213,6.4551-9.2139,17.6787-8.6758,27.3008-1.9336l97.0488,68.0019c9.6231,6.7432,13.96,17.1084,7.5039,26.3213s-17.68,8.6758-27.3027,1.9336l-31.7344-22.2373-73.5967,105.0332c-7.03,10.0322-18.3154,12.1983-28.5527,5.0244s-12.0547-18.5205-5.0244-28.5527Z" transform="translate(-58.1864 -40.896)"/><path class="cls-4" d="M678.126,1983.2705c5.8535-10.7607,16.8222-14.1846,27.8027-8.2119s14.0654,17.043,8.2119,27.8037l-69.5263,127.81c-5.8536,10.7607-16.8233,14.1855-27.8028,8.2119s-14.0664-17.043-8.2129-27.8027Z" transform="translate(-58.1864 -40.896)"/><path class="cls-4" d="M730.26,2021.6221c6.6435-16.9981,17.5849-18.8955,31.09-13.6172l46.5693,18.2012c41.68,16.289,72.77,49.3759,47.1065,115.04-20.749,53.0889-62.333,72.2676-113.3272,52.3379l-45.8711-17.9278c-13.5058-5.2783-20.2607-14.0917-13.6171-31.09Zm-6.5869,129.4863,32.1328,12.5586c30.5039,11.9219,50.9306-11.5,61.0322-37.3457,12.9228-33.0645,8.1748-58.0039-19.7666-68.9248l-31.9-12.4668Z" transform="translate(-58.1864 -40.896)"/><path class="cls-4" d="M975.9688,2151.8232c35.0908,15.7188,40.0224,39.4043,35.8857,59.9932-6.4,31.8633-35.1973,50.8125-83.7266,41.0625-50.9824-10.2412-68.6552-40.3115-64.8144-59.43,1.97-9.8037,10.456-15.2392,20.26-13.2695,21.8145,4.3828,9.7754,35.1133,50.4629,43.2871,20.834,4.1855,34.668-5.02,37.0313-16.7852,1.4277-7.1074-.4278-15.6406-13.4639-21.8291l-43.03-20.6289c-34.6484-16.6513-37.2285-38.0791-33.4375-56.9521,7.8789-39.2158,47.1084-46.6348,81.1778-39.79,31.373,6.3028,64.8379,31.3858,60.1113,54.9151-2.0195,10.0488-11.7793,14.208-21.584,12.2383-18.6269-3.7422-9.9277-29.2784-47.4277-36.8125-18.6279-3.7422-30.6455,2.7685-33.1074,15.0234s11.456,19.1318,23.61,24.6328Z" transform="translate(-58.1864 -40.896)"/><path class="cls-4" d="M1045.3291,2105.3125c.31-12.2461,8.5147-20.292,21.0117-19.9766s20.2852,8.7637,19.9766,21.0108l-2.4834,98.47c-.6172,24.4922,12.8506,35.8359,36.3437,36.4277s37.5166-10.0576,38.1338-34.55l2.4824-98.47c.31-12.2471,8.5147-20.292,21.0108-19.9775s20.2861,8.7646,19.9775,21.0107l-2.4013,95.2207c-1.2481,49.4854-32.3,70.959-80.0342,69.7559-47.7363-1.2041-77.666-24.2158-76.418-73.7Z" transform="translate(-58.1864 -40.896)"/><path class="cls-4" d="M1270.1514,2117.3672l-38.3291,5.6885c-11.6231,1.7246-21.9-2.8164-23.5518-13.9434s6.8652-18.457,18.4873-20.1826l117.2129-17.3945c11.6221-1.7247,21.8994,2.8154,23.5508,13.9433s-6.8643,18.457-18.4873,20.1826l-38.3281,5.6875,18.8251,126.8565c1.7979,12.1172-4.9033,21.4521-17.2675,23.2871s-21.4883-5.1514-23.2871-17.2686Z" transform="translate(-58.1864 -40.896)"/><path class="cls-4" d="M1481.98,2109.5664c38.3027-3.3857,54.1572,14.8887,60.585,34.8818,9.9482,30.9405-5.9541,61.5264-53.0791,76.6778-49.5049,15.917-79.5987-1.7188-85.5674-20.2832-3.0606-9.5205,1.6992-18.4043,11.2187-21.4649,21.1826-6.8105,25.6572,25.8907,65.166,13.1875,20.2305-6.5049,27.82-21.2871,24.1475-32.7119-2.22-6.9023-8-13.4473-22.4-12.4931l-47.6269,2.97c-38.3711,2.3574-51.0723-15.0928-56.9649-33.419-12.2432-38.081,18.3906-63.6865,51.4727-74.3232,30.4648-9.7949,71.914-4.2139,79.26,18.6348,3.1377,9.7587-3.3554,18.1484-12.8759,21.21-18.0889,5.8154-22.9444-20.7226-59.3594-9.0146-18.0889,5.8154-25.4063,17.36-21.58,29.2607s19.33,11.1172,32.625,9.9932Z" transform="translate(-58.1864 -40.896)"/><path class="cls-4" d="M1521.6846,2033.4346c-5.6114-10.8887-2.28-21.8867,8.83-27.6133s22.001-2.0586,27.6133,8.8291l27.2588,52.8877L1610.19,1974.88c1.9317-6.6211,3.877-12.1231,10.3213-15.4444,8.666-4.4667,20.0811-3.6005,24.8916,5.7325,2.8633,5.5556,1.9219,10.8222.4141,15.5361l-17.06,58.5732,78.9238,44.5391c5.9678,3.3926,11.9278,6.2266,14.333,10.8936,6.9864,13.5546-.9511,22.7089-9.6181,27.1757-7.333,3.7793-12.249,4.0635-21.1465-1.1943l-75.4414-43.24-9.6914,30.3076,18.6689,36.2207c5.6123,10.8887,2.28,21.8867-8.83,27.6133s-22.001,2.0586-27.6133-8.83Z" transform="translate(-58.1864 -40.896)"/><path class="cls-4" d="M1708.68,1896.7158c46.8935-35.8056,96.1465-24.0293,128.1592,17.8965,30.7988,40.3359,35.1172,94.6006-13.7637,131.9229-51.2647,39.1435-97.8154,21.8437-130.89-21.4727C1660.1729,1983.1367,1661.7871,1932.5215,1708.68,1896.7158Zm94.3691,123.5908c29.6065-22.6054,22.1407-53.3925,1.2032-80.8125s-48.919-36.88-75.545-16.55-24.872,49.8164-3.9345,77.2364S1772.4492,2043.6719,1803.0488,2020.3066Z" transform="translate(-58.1864 -40.896)"/><path class="cls-4" d="M1841.42,1830.5361l-26.3183,28.44c-7.9815,8.624-18.837,11.5214-27.0938,3.8808s-6.208-18.6894,1.7725-27.3125l80.4843-86.9736c7.9805-8.6231,18.837-11.5205,27.0938-3.88s6.208,18.6885-1.7725,27.3125l-26.3183,28.44,94.1289,87.1075c8.99,8.32,9.6123,19.7949,1.1221,28.97s-19.9786,9.4424-28.97,1.1221Z" transform="translate(-58.1864 -40.896)"/><path class="cls-4" d="M1944.085,1704.5664l-21.1866,32.4443c-6.4248,9.8379-16.6425,14.5118-26.0615,8.36s-9.249-17.3857-2.8252-27.2236l64.791-99.2178c6.4239-9.8379,16.6416-14.5117,26.0616-8.36s9.249,17.3858,2.8242,27.2237l-21.1865,32.4443,107.3808,70.1211c10.2568,6.6982,12.79,17.9072,5.9561,28.373s-18.1162,12.6534-28.3731,5.9561Z" transform="translate(-58.1864 -40.896)"/><path class="cls-4" d="M1993.2051,1606.83c-16.6865-7.3916-18.0957-18.4063-12.2227-31.6641l38.9844-88.0019c4.86-10.9717,11.6045-17.5547,23.49-12.2891s11.542,14.6836,6.6817,25.6553l-32.0987,72.459,35.6582,15.7959,28.1495-63.545c4.3535-9.8281,10.54-16.3847,22.1972-11.2207s10.9571,14.15,6.6035,23.9795l-28.1494,63.544,39.7715,17.6191,32.9092-74.2871c4.86-10.9717,11.6045-17.5547,23.49-12.2891s11.542,14.6827,6.6817,25.6543l-39.794,89.8311c-5.873,13.2578-14.9775,19.6142-31.664,12.2226Z" transform="translate(-58.1864 -40.896)"/><path class="cls-4" d="M2076.8467,1419.1455l-9.5508,37.5557c-2.8955,11.3877-11.0518,19.1162-21.9551,16.3437s-14.3769-13.459-11.4814-24.8467l29.206-114.8476c2.8955-11.3877,11.0518-19.1162,21.9551-16.3438s14.377,13.459,11.4815,24.8467l-9.5508,37.5557,124.2968,31.6084c11.8731,3.02,17.8965,12.8056,14.8165,24.9209s-13.0489,17.8349-24.9209,14.8154Z" transform="translate(-58.1864 -40.896)"/><path class="cls-4" d="M378.6963,376.5034c-12.7168-15.06-8.8828-26.4243,3.082-36.5273l41.26-34.8389c36.9277-31.1807,84.3476-43.6572,133.4707,14.519,39.7158,47.0362,36.51,96.39-8.67,134.5386l-40.6407,34.3164c-11.9648,10.1031-23.81,11.9781-36.5273-3.082Zm119.5371,72.9312,28.4687-24.0391c27.0254-22.8193,15.3086-54.2725-4.0263-77.1714-24.7354-29.2944-50.8565-37.63-75.6123-16.7265L418.8,355.3623Z" transform="translate(-58.1864 -40.896)"/><path class="cls-4" d="M643.749,273.521c10.4258-6.2378,21.2617-7.0581,28.3321,4.7578s1.2246,20.9775-9.2022,27.2153L624.65,328.3677c-10.4268,6.2383-21.2627,7.0581-28.332-4.7578s-1.2246-20.9771,9.2021-27.2154Z" transform="translate(-58.1864 -40.896)"/><path class="cls-4" d="M716.28,179.6484c27.4736-11.9746,59.9414-13.1665,67.17,3.417,3.668,8.4151,1.2109,18.3218-8.1934,22.4214-14.1093,6.1489-21.832-10.2187-44.6035-.2934-12.623,5.5019-19.28,12.5268-15.9355,20.2,3.6679,8.4155,12.6982,6.8354,24.915,4.456l16.6084-3.1152c22.5938-4.2515,50.8731-6.2686,61.877,18.9775,12.8379,29.4541-9.6934,55.4737-36.92,67.34-32.6709,14.24-66.2617,11.5039-74.0293-6.3174-3.4531-7.92-2.1259-17.04,8.0215-21.4629,15.5938-6.7964,26.7881,14.8325,53.52,3.1811,12.8711-5.6093,18.5576-14.8623,15.3212-22.2876-3.9912-9.1582-12.5595-7.1909-26.833-4.7988l-23.5507,4.08c-23.3047,3.9722-43.4161,2.4292-53.9883-21.8271C666.8213,214.1646,691.2812,190.5444,716.28,179.6484Z" transform="translate(-58.1864 -40.896)"/><path class="cls-4" d="M863.8994,211.4648c5.2656,20.1123,22.1553,31.32,44.3574,25.5069,28.7325-7.5225,23.8077-26.3291,39.2188-30.3643,9.1426-2.3935,17.7236,3.7329,19.57,10.7852,6.0176,22.9858-28.0068,43.3379-50.9922,49.3559-53.2851,13.9517-82.8359-16.8276-91.5215-50-11.626-44.4038,7.4815-81.2246,52.669-93.0561,43.8818-11.49,77.0947,13.0278,85.3017,44.3721,3.42,13.06.3907,17.4814-12.4082,20.8325Zm61.1221-39.4482c-6.6719-16.9536-23.083-26.333-40.0615-21.8877-19.0664,4.9927-27.4825,19.7559-26.8057,39.3955Z" transform="translate(-58.1864 -40.896)"/><path class="cls-4" d="M979.2236,67.0527c-1.3007-12.8945,5.8125-20.396,17.6319-21.5883s20.2881,4.7373,21.5888,17.6318l8.9961,89.1855,38.6407-52.7436c3.5957-4.7046,8.375-8.4434,14.2851-9.04,8.8643-.894,19.32,5.92,20.3242,15.86.7041,6.9844-1.497,9.3774-4.6093,13.4907l-25.95,33.2818,46.36,50.6816a21.51,21.51,0,0,1,5.3027,12.2192c1.003,9.94-6.1347,19.8858-16.6113,20.9429-9.67.9756-15.2617-3.3452-18.65-7.3452l-42.3554-48.6431-12.4815,13.47,3.0088,29.8184c1.3008,12.894-5.8125,20.396-17.6328,21.5884s-20.2871-4.7378-21.5879-17.6319Z" transform="translate(-58.1864 -40.896)"/><path class="cls-4" d="M1145.98,118.3628l-6.7481-.1411c-11.0683-.2315-15.5664-4.6465-15.3867-13.2847.1817-8.6382,4.86-12.8613,15.9278-12.63l6.749.1411.5029-24.0249c.2705-12.9575,8.24-19.5424,20.1172-19.2939s19.5654,7.1606,19.2939,20.1182l-.5019,24.0249,11.8769.2485c11.6075.2427,17.7432,3.8818,17.5459,13.33s-6.48,12.8276-18.0878,12.5849l-11.877-.2485-1.6484,78.8233c-.125,5.9389,3.0468,9.246,10.0654,9.3925l5.6689.1187c8.6377.1806,13.6651,5.147,13.49,13.5151-.2373,11.3379-10.085,17.3433-28.98,16.9478-28.6143-.5982-40.2441-12.7241-39.7578-35.9395Z" transform="translate(-58.1864 -40.896)"/><path class="cls-4" d="M1238.0684,112.5542c1.0878-10.4736,6.3339-19.1577,21.6416-17.5669s18.6552,11.168,17.5673,21.6416L1266.03,224.8564c-1.0889,10.4737-6.335,19.1582-21.6426,17.5674s-18.6553-11.1684-17.5664-21.6421Zm27.2509-71.5464a20.52,20.52,0,1,1-22.5312,18.2891A20.5111,20.5111,0,0,1,1265.3193,41.0078Z" transform="translate(-58.1864 -40.896)"/><path class="cls-4" d="M1384.4648,115.45c46.3545,10.4521,63.9864,47.6406,54.8409,88.2017-8.6709,38.4536-35.0313,68.2133-87.4444,56.3955s-63.4521-50.0113-54.7822-88.4649C1306.2246,131.0215,1338.1094,104.998,1384.4648,115.45Zm-26.19,116.1519c22.9151,5.1665,37.292-13.18,42.5772-36.6211,5.6416-25.021-.4131-46.0376-22.8008-51.0855s-36.876,11.3364-42.5176,36.3574C1330.248,203.6938,1335.36,226.4351,1358.2744,231.6021Z" transform="translate(-58.1864 -40.896)"/><path class="cls-4" d="M1484.6387,161.7676c4.5039-10.9932,12.4687-16.1919,23.9619-11.4834s13.5215,14.001,9.0176,24.9941l-1.9444,4.7471.5.2051c15.7705-9.2954,32.9024-13.3648,53.64-4.8692,21.9863,9.0074,41.4677,29.8267,26.3193,66.8042l-29.0693,70.9566c-3.9912,9.7441-11.4688,16.6015-25.711,10.7671s-14.7587-15.9668-10.7666-25.711l26.1006-63.7109c6.0391-14.7412,3.0928-28.2031-12.6474-34.6514a30.6117,30.6117,0,0,0-39.5039,17.3711L1479.8672,277.4c-3.9922,9.7441-11.47,16.6011-25.711,10.7671S1439.3975,272.2,1443.39,262.4561Z" transform="translate(-58.1864 -40.896)"/><path class="cls-4" d="M1640.1543,300.9663c-10.9473,17.6743-7.4326,37.6377,12.0781,49.7232,25.249,15.64,35.4864-.8868,49.0283,7.5019,8.0342,4.9761,9.5079,15.417,5.668,21.6143-12.5117,20.2-50.706,9.563-70.9053-2.9488-46.8252-29.0053-44.8789-71.6294-26.8222-100.7807,24.1709-39.0215,64.0224-50.544,103.7324-25.9468,38.5625,23.8867,43.6787,64.8511,26.6162,92.3955-7.1084,11.4771-12.4,12.3281-23.6475,5.3613Zm70.7051,17.1172c7.69-16.5161,3.1806-34.8726-11.74-44.1147-16.7558-10.379-33.2539-6.3057-47.0214,7.7163Z" transform="translate(-58.1864 -40.896)"/><path class="cls-4" d="M1790.5684,325.3438c7.8281-8.9366,17.05-11.2676,26.3925-3.0835s8.2442,17.6323.4161,26.5683l-3.3809,3.8589.4062.356c17.9346-3.6724,35.46-1.96,52.3165,12.8066,17.872,15.6567,29.541,41.6728,3.2089,71.731L1819.3994,495.26c-6.9385,7.9209-16.2373,11.98-27.8135,1.8379s-8.7773-19.8931-1.8379-27.814l45.3682-51.7891c10.4971-11.9824,12.08-25.6718-.7148-36.8808a30.6125,30.6125,0,0,0-43.0039,3.6069l-42.878,48.9458c-6.9384,7.9209-16.2373,11.98-27.8144,1.8379s-8.7764-19.8931-1.8379-27.814Z" transform="translate(-58.1864 -40.896)"/></g><g id="circle"><path class="cls-4" d="M1147.8115,380.45a776.7179,776.7179,0,0,1,436.4126,133.2847,783.0546,783.0546,0,0,1,282.8828,343.4983,779.5189,779.5189,0,0,1-71.9624,740.2471,783.0533,783.0533,0,0,1-343.4985,282.8832,779.5181,779.5181,0,0,1-740.2471-71.9625A783.0634,783.0634,0,0,1,428.5161,1464.902a779.5165,779.5165,0,0,1,71.9627-740.2471A783.054,783.054,0,0,1,843.9768,441.772,775.6818,775.6818,0,0,1,1147.8115,380.45m0-55c-461.499,0-835.6174,374.1185-835.6174,835.6174s374.1184,835.6178,835.6174,835.6178,835.6177-374.1189,835.6177-835.6178S1609.3105,325.45,1147.8115,325.45Z" transform="translate(-58.1864 -40.896)"/></g><g id="arcs"><path id="arc_base" data-name="arc base" class="cls-5" d="M154.2022,1238.0945q-2.9148-38.1312-2.9327-77.0271c0-235.31,81.5571-451.5717,217.946-622.0594" transform="translate(-58.1864 -40.896)"/><path id="arc_base-2" data-name="arc base" class="cls-5" d="M1926.4079,539.0085c136.3887,170.4876,217.9457,386.7489,217.9457,622.0589q0,38.8781-2.9328,77.0272" transform="translate(-58.1864 -40.896)"/></g></g></g></g></svg>