<svg xmlns="http://www.w3.org/2000/svg" viewBox="0 0 1403.5502 810.5669"><defs><style>.cls-1,.cls-2,.cls-3{fill-rule:evenodd;}.cls-2,.cls-3,.cls-4{fill:none;stroke:#000;stroke-linecap:round;stroke-width:18px;}.cls-3,.cls-4{stroke-miterlimit:10;}</style></defs><g id="Layer_2" data-name="Layer 2"><g id="inner"><g id="silhouette"><g id="right"><path id="glass" class="cls-1" d="M1248.5912,746.5836c-102.2051,59.0127-199.8334,81.2132-218.0812,49.5722-1.6311-2.811-6.3035-9.9681-9.3831-16.4057-.758-1.0745-1.4584-2.197-2.12-3.3579Q954.8949,663.941,884.7961,534.6043,814.4967,404.9559,757.2249,293.6031a45.1161,45.1161,0,0,1,17.5667-59.6938L1041.4279,79.9352a45.087,45.087,0,0,1,60.4806,14.6213q67.81,105.2988,144.9363,231.0043,76.963,125.3885,142.2887,237.1059a46.3436,46.3436,0,0,1,3.348,7.0613c3.6076,5.1134,6.7065,10.371,8.1071,12.7982C1418.8463,614.1193,1350.7959,687.5709,1248.5912,746.5836Zm76.982-243.9849L1084.85,105.4264Q830.5039,258.3882,792.905,272.8321a19.6616,19.6616,0,0,0-8.1645,5.2288c-4.634-1.2377-9.0279-2.2931-13.2494-3.3Q870.6017,455.094,925.7434,558.82q37.4019,70.3577,72.5785,133.251a67.1126,67.1126,0,0,0,5.0275,7.6944c2.5807,7.1092,9.44,17.6338,11.4837,21.1931,18.2478,31.5931,106.6086,14.6693,197.4448-37.7427,90.8263-52.45,149.6565-120.5486,131.4087-152.1416-1.6043-2.7758-5.4836-9.33-9.6969-15.1258a112.5553,112.5553,0,0,1-7.6365-11.9307Z"/><g id="reflections"><path id="right-2" data-name="right" class="cls-2" d="M1187.0483,341.5127c40.212,69.3684,60.3858,104.1478,100.5978,173.5161"/><path id="middle" class="cls-2" d="M1030.5006,548.2554l54.8086,97.7022"/><path id="left" class="cls-2" d="M920.8834,470.6125q45.7023,80.7789,91.4043,161.5578"/></g><path id="foam" d="M766.0785,144.9044c5.4565-9.7667,26.5031-46.22,72.0351-60.205,40.4882-12.4262,74.6487.7337,84.4154,4.9062,2.7052-6.6486,22.9724-53.7855,73.9608-68.55,36.7741-10.6837,67.3122,1.88,76.85,5.9609,56.2615,24.0728,72.4936,82.6271,74.6486,90.8806,7.1989.1376,24.2562,1.6965,38.7,14.26,26.0445,22.5139,22.1928,62.36,14.9939,72.356a76.5827,76.5827,0,0,1-4.9063,7.1989c-3.0721,3.9434-6.0525,7.8409-7.52,14.9481-1.0546,5.2272-1.0087,10.9131-4.31,19.4416-2.3386,5.8693-3.439,8.85-5.4565,9.3082-8.2994,1.8341-17.0573-36.1321-32.0971-35.9946-7.7491.0917-21.23,9.996-24.1187,12.793a2.0339,2.0339,0,0,1-.5044.3668c-6.557,5.5941-4.9979,16.5988-4.2185,21.5968,4.2644,27.6494,31.2717,60.9386,20.588,79.6466-.8254,1.4215-4.31,7.52-10.0877,8.3452-18.57,2.7512-25.2191-53.51-65.8907-71.0262-16.9656-7.2906-44.2022-9.7208-52.7768,1.6966-19.946,26.4571,54.29,130.8643,47.4119,146.6836-2.155,4.9979-5.6857,6.3277-5.6857,6.3277-4.2184,1.559-8.8954-1.2839-10.4545-2.2468-14.49-8.8037-25.0358-49.2919-25.0358-49.2919-2.7052-7.9784-22.147-81.4349-62.6809-84.69-12.197-1.0088-22.5139,4.6312-26.87,6.97C911.57,305.0688,911.6159,314.79,900.29,325.5651c-28.5206,27.0532-42.0931,14.0768-65.02,33.1975-16.92,14.1227,14.9939,53.8772,11.28,62.9561a22.026,22.026,0,0,1-3.6682,6.0526,17.0587,17.0587,0,0,1-6.4653,4.31c-4.2185.9171-15.4525-21.505-28.5665-42.2764-3.9891-6.2818-5.915-14.7646-10.3169-19.9919-3.118-3.6683-7.3824-6.557-10.4086-7.52-31.4093-8.9872-55.2069-34.4356-61.5346-65.8449-8.8955-44.2481,21.9177-75.8866,24.302-78.271A133.2816,133.2816,0,0,1,766.0785,144.9044Z"/><path id="_6" data-name="6" d="M908.4917,609.8432q-34.5917-10.03-68.5833,8.9586a88.8585,88.8585,0,0,0-30.0052,26.276,82.9138,82.9138,0,0,0-14.0167,36.392l-5.1437-8.7872q-26.3617-47.13-24.6042-83.243,1.736-36.1349,31.2054-52.5948c11.702-6.5154,32.5771-12.2164,59.496-4.5437q26.94,7.6513,54.2237,32.8771l-57.5671-99.96q-20.1892,24.3042-26.7047,29.3622a417.381,417.381,0,0,1-43.8932,29.7052c-14.4883,9.0872-30.9911,19.7606-43.9362,40.507a111.5889,111.5889,0,0,0-15.2169,41.6215q-8.8087,54.0095,26.6617,117.4919,33.6273,60.1174,78.5708,78.8708,44.9434,18.7746,92.2874-7.6728Q960.68,773.05,972.36,732.95q11.6377-40.1211-10.1161-78.9994Q943.1478,619.8736,908.4917,609.8432Zm6.43,168.2863q-21.9252,12.2165-47.2367-2.5289-25.3329-14.724-46.0794-51.7375c-8.873-15.9456-12.045-30.5625-9.3873-43.8933s10.7161-23.79,24.2614-31.3769q19.9963-11.1876,41.4929.3,21.4752,11.4449,38.9638,42.7359,17.1032,30.541,16.46,53.495T914.8786,778.13Z"/></g><g id="left-2" data-name="left"><path id="glass-2" data-name="glass" class="cls-1" d="M14.3565,563.0094q65.25-111.54,142.09-236.78,77.0548-125.55,144.74-230.64a45.0275,45.0275,0,0,1,60.39-14.61l266.32,153.76a45.0656,45.0656,0,0,1,17.54,59.62q-57.2249,111.21-127.44,240.67-70.05,129.21-134.02,241.45c-.63,1.11-1.3,2.18-2.02,3.21-3.08,6.45-7.79,13.66-9.43,16.48-18.23,31.6-115.71,9.44-217.78-49.49-102.06-58.94-170.02-132.29-151.79-163.84m401.62,109.48q35.1-62.775,72.49-133.06c55.08-103.58,145.65-272.77,146.11-274.74,1.54-6.93-1.34-10.03-8.26-10.03-3.78,0-8.77.93-14.91,2.66,3.21-5.59,4.86-9.57,4.99-12.09,3.94-70.34-61.13-71.07-83.11-67.63q-91.485,14.28-210.86-75.47l-238.75,390.66a158.4413,158.4413,0,0,0-12.54,18.84c-18.23,31.55,40.52,99.55,131.23,151.93,90.71,52.34,178.95,69.24,197.17,37.69Z"/><path id="foam-2" data-name="foam" d="M454.4884.0243c10.8979-.1831,51.9257-.1372,85.9475,31.5036,30.2214,28.1609,35.7622,63.3733,36.9983,73.676,6.9143-.9158,56.5964-6.8226,93.9609,29.0308,26.9246,25.8255,31.1831,57.7412,32.4194,67.7691,7.0974,59.2063-34.434,101.4705-40.3867,107.2858,3.3884,6.1357,10.3943,21.2922,6.8228,39.6083-6.3191,32.9229-41.8521,49.1327-53.8035,47.8963a75.3165,75.3165,0,0,1-8.4709-.6411c-4.8079-.6868-9.57-1.3277-16.3013.9159-12.4563,4.152-16.8982,7.2355-18.4993,5.8153-.9565-.8485-1.1084-3.5552,3.793-12.6289-3.2837-8.9377-2.3848-13.9535-.79-16.9239a20.6517,20.6517,0,0,0,1.2361-2.3193,17.2375,17.2375,0,0,0,.02-12.8647c-2.4463-5.927-7.9973-8.5667-13.5279-11.1686a42.2177,42.2177,0,0,0-9.55-3.1636c-7.9219-2.7933-16.4387,3.8921-20.2849,6.96-21.2466,17.0795-36.22,56.0926-57.1917,56.1841-1.6025,0-8.4253.0459-11.9968-4.4415-11.3562-14.3324,32.8769-47.3468,27.84-90.252-2.1065-17.8581-13.325-42.081-27.1533-43.73-32.053-3.938-84.0247,109.6211-100.7381,111.4986-5.3115.5952-8.1045-1.74-8.1045-1.74-3.3886-2.8389-3.2512-8.1048-3.2053-9.9364.4119-16.53,29.4426-45.1488,29.4426-45.1488,5.4034-6.1818,57.9244-58.3824,40.9363-94.19-5.1284-10.7607-14.8816-16.7591-19.0029-19.2777-14.6985-8.9748-42.3555-24.4518-63.0068,11.31-14.24,24.6806-18.0413,65.9375-33.06,57.2374-10.8525-6.2732,13.3706-32.0987,8.8831-56.5963-2.793-15.1107-22.3455-24.4519-26.8787-26.0087-17.7207-5.9527-31.6865,11.0354-42.905,29.0766-14.5613,23.3529-21.3841,30.084-27.1536,27.9317-9.1121-3.3425-17.1252,31.8241-22.9866,42.86-.4577.87-40.936,38.0514-49.9109,16.0265-9.02-22.025,39.0586-51.5594,46.5225-74.1339,14.0117-42.264,5.1743-50.3689,38.2346-87.8707,28.9851-32.8773,29.26-70.0586,54.4441-94.2816,51.5137-49.4989,95.7927-33.93,97.7156-33.4266A130.5131,130.5131,0,0,1,454.4884.0243Z"/><g id="reflections-2" data-name="reflections"><path id="right-3" data-name="right" class="cls-3" d="M395.9473,635.7448q44.5533-80.8085,89.1063-161.6171"/><path id="middle-2" data-name="middle" class="cls-3" d="M322.733,651.5882q26.82-47.5814,53.64-95.1626"/><line id="left-3" data-name="left" class="cls-4" x1="120.7642" y1="524.1771" x2="257.8206" y2="287.4894"/></g><path id="D" d="M713.6673,596.4606a70.1574,70.1574,0,0,0-13.3309-39.3867c-9.7385-13.5905-23.3724-23.9782-37.6988-32.3317a169.7672,169.7672,0,0,0-31.8123-14.7592l2.294-4.1984-4.2849-2.3371-99.8086-6.8819-10.6041,19.477a22.2275,22.2275,0,0,1,8.9162,29.9945L440.6438,705.0554l1.0821-1.7746a22.4147,22.4147,0,0,1-30.2109,8.9162l-2.4239-1.2985-11.7727,21.5977L509.7653,793.74c20.9918,11.4264,45.5761,20.1695,69.814,15.5815,17.789-3.376,32.1153-14.0666,44.1911-27.0513,15.4517-16.577,27.96-35.8808,39.43-55.3577,13.6772-23.1992,26.3588-47.264,36.4868-72.1945,6.7953-16.8367,13.028-34.7556,13.98-53.0206.0865-1.7313.13-3.4626.0865-5.2372C713.1046,566.8124,714.1433,621.2613,713.6673,596.4606ZM549.4117,783.8288l-.26.4329A15.1318,15.1318,0,0,1,528.68,790.451l-9.1758-5.0207,6.1893-11.3833-10.4742-5.7132a22.2974,22.2974,0,0,1-8.6564-30.2974.3285.3285,0,0,0,.0865-.1731L620.178,529.4167q7.9855-9.6087,18.6546-3.8088l26.3155,14.3264a15.093,15.093,0,0,1,6.146,20.1695Z"/></g></g></g></g></svg>