<svg xmlns="http://www.w3.org/2000/svg" viewBox="0 0 2048.0841 2234.4294"><defs><style>.cls-1,.cls-4,.cls-6{fill:none;stroke-linecap:round;stroke-width:55px;}.cls-1,.cls-6{stroke:#f280a1;}.cls-1{stroke-linejoin:round;}.cls-2{fill:#96c;}.cls-3{fill:#f280a1;}.cls-4{stroke:#96c;}.cls-4,.cls-6{stroke-miterlimit:10;}.cls-5{fill:#fff;}</style></defs><g id="Layer_2" data-name="Layer 2"><g id="inner"><g id="dark"><g id="outer"><polyline id="branch_left" data-name="branch left" class="cls-1" points="535.165 737.458 625.371 827.664 759.988 827.664 850.194 917.87"/><polyline id="branch_right" data-name="branch right" class="cls-1" points="1536.241 737.458 1446.035 827.664 1311.418 827.664 1221.212 917.87"/><polyline id="twig" class="cls-1" points="682.23 655.278 718.766 691.814 718.766 743.484"/><circle id="fruit" class="cls-2" cx="1413.3402" cy="691.3881" r="45.1915"/></g><g id="middle"><g id="trunk"><g id="left"><polyline class="cls-1" points="850.194 645.278 850.194 791.95 937.269 875.916 937.269 1305.491 852.166 1387.825 720.895 1387.825"/><circle class="cls-3" cx="720.8947" cy="1387.8252" r="45.1915"/></g><g id="right"><polyline class="cls-1" points="1110.815 1108.916 1110.815 1387.655 1227.96 1507.909 1327.189 1507.909"/><circle class="cls-3" cx="1327.1893" cy="1507.9094" r="45.1915"/></g></g><circle id="fruit-2" data-name="fruit" class="cls-2" cx="850.1939" cy="526.1636" r="45.1915"/></g><g id="inner-2" data-name="inner"><g id="root"><polyline class="cls-1" points="1138.955 1736.112 1138.955 1608.291 1048.572 1517.908"/><circle class="cls-3" cx="1138.9548" cy="1736.1121" r="45.1915"/></g><g id="trunk-2" data-name="trunk"><polyline class="cls-1" points="1278.082 601.152 1188.315 690.919 1188.315 826.725 1024.051 990.989"/><polyline class="cls-1" points="935.807 1659.606 935.807 1514.185 1024.042 1425.95 1024.042 480.972"/><circle class="cls-3" cx="935.8075" cy="1659.6059" r="45.1915"/></g></g><g id="ground"><line class="cls-4" x1="414.7488" y1="1198.9985" x2="845.2668" y2="1198.9985"/><line class="cls-4" x1="1202.8173" y1="1198.9985" x2="1633.3353" y2="1198.9985"/></g></g></g><g id="outer-2" data-name="outer"><g id="dark-2" data-name="dark"><g id="text"><path class="cls-5" d="M192.8027,1618.042c15.3028-9.9434,25.3008-5.1094,33.2,7.05l37.1826,57.2314c26.5586,40.8809,11.209,66.3555-8.2871,79.0215-16.3515,10.6241-38.76,11.4678-53.1562-2.4326l-.42.2725c8.9257,19.2441-1.8194,30.6972-17.1231,40.64-17.4,11.3047-20.9023,20.1387-28.0312,24.77-7.9659,5.1757-18.7285.541-23.9043-7.4258-12.2578-18.8672,5.0273-32.1846,11.1074-36.1338,26.415-17.1612,33.9746-28.93,21.7158-47.7969l-22.0644-33.9619-44.2334,28.7383c-10.2735,6.6738-21.5489,4.46-28.3594-6.0225s-4.25-21.6846,6.0215-28.3584Zm-24.623,64.89,22.3359,34.3809c8.4453,12.998,20.2442,23.8164,37.2246,12.7842,16.1426-10.4873,13.9336-23.0645,4.127-38.1592L208.85,1656.5088Z" transform="translate(-8.4716 -40.896)"/><path class="cls-5" d="M364.8633,1800.9707c40.8222,42.6006,34.6221,92.8633-3.4658,129.36-36.6436,35.1142-90.0889,45.4677-132.64,1.0615-44.6269-46.5713-32.6367-94.7656,6.7149-132.4737C273.5605,1762.4219,324.041,1758.37,364.8633,1800.9707Zm-112.2783,107.59c25.7724,26.8965,55.5341,16.0372,80.4443-7.833s31.1846-52.7353,8.0059-76.9238-52.2842-19.1514-77.1954,4.7188S225.9473,1880.7617,252.585,1908.5605Z" transform="translate(-8.4716 -40.896)"/><path class="cls-5" d="M504.3125,1920.3291c48.3945,33.749,52.19,84.249,22.0166,127.5176-29.03,41.6269-79.3975,62.2793-129.8428,27.1-52.9062-36.8955-50.6181-86.5039-19.4433-131.208C407.2168,1900.47,455.918,1886.58,504.3125,1920.3291Zm-88.9492,127.5488c30.5537,21.3076,57.6006,4.8145,77.3359-23.4843s20.2149-57.8331-7.2637-76.9961-55.0273-8.5049-74.7617,19.7939S383.7832,2025.8555,415.3633,2047.8779Z" transform="translate(-8.4716 -40.896)"/><path class="cls-5" d="M607.8174,2026.5361l-35.126-16.3593c-10.6523-4.96-16.7305-14.41-11.9805-24.6084s15.8946-11.626,26.545-6.6651l107.42,50.0283c10.6513,4.96,16.73,14.41,11.98,24.6084s-15.8945,11.626-26.5458,6.6651l-35.126-16.3594L590.84,2160.1035c-5.1718,11.1045-15.9072,15.2061-27.2382,9.9287s-15.1-16.1338-9.9287-27.2383Z" transform="translate(-8.4716 -40.896)"/><path class="cls-5" d="M712.1426,2056.4492c4.01-16.0049,15.8349-16.9082,26.5058-14.2344l11.64,2.918c12.3681,3.1,16.9726,9.4082,17.7529,23.7793l6.6,120.7295.4854.1211,62.2724-103.4688c7.4649-12.3046,14.5-15.6962,26.8692-12.5966l11.1543,2.7959c10.6709,2.6738,20.6719,9.0459,16.66,25.0517l-35.5527,141.8672c-2.4922,9.9424-9.7129,18.1856-22.5654,14.9639s-15.333-13.8946-12.8409-23.8369L848.2285,2126.38l-.4844-.1211-66.1543,106.62c-4.7343,7.5772-11.6484,9.4522-19.8935,7.3857s-13.457-6.98-14.0576-15.8945l-8.0528-125.2178-.4863-.1211L711.9941,2207.19c-2.4921,9.9433-9.7129,18.1855-22.5644,14.9638-12.8535-3.2207-15.334-13.8935-12.8418-23.8369Z" transform="translate(-8.4716 -40.896)"/><path class="cls-5" d="M955.3887,2096.751c4.0117-9.0391,10.6836-11.92,20.6679-11.3594l9.7344.5459c9.2363.5186,17.3467,3.2275,21.125,16.209l41.7031,140.3047c1.2735,4.0781,3.3633,11.456,3.1114,15.9492-.5606,9.9844-9.7442,17.4814-20.2285,16.8926-8.9854-.5039-15.293-4.1133-17.84-12.2686l-8.8027-30.54-65.8946-3.6983-12.414,29.35c-3.1934,7.834-9.1172,10.7559-18.8516,10.21-11.2324-.6309-18.5781-8.0537-17.9609-19.0361.2519-4.4932,3.1543-11.5908,4.876-15.501Zm2.0293-58.4776a18.25,18.25,0,1,1-19.2442,17.1993A18.3521,18.3521,0,0,1,957.418,2038.2734Zm20.8886,91.8135-.5-.0283-28.26,70.7773,47.9238,2.6895Zm30.03-88.956a18.25,18.25,0,1,1-19.2431,17.1992A18.352,18.352,0,0,1,1008.3369,2041.1309Z" transform="translate(-8.4716 -40.896)"/><path class="cls-5" d="M1167.94,2157.4541c38.1914,4.4766,49.996,25.5938,52.2226,46.4766,3.4453,32.3173-18.3457,59.0283-67.5683,64.2763-51.7071,5.5127-77.5821-17.8759-79.65-37.2666-1.0606-9.9433,5.4062-17.6728,15.3515-18.7334,22.125-2.3584,19.8516,30.5684,61.1192,26.169,21.1308-2.253,31.5683-15.1826,30.2968-27.1153-.77-7.21-5.0976-14.7939-19.3886-16.79l-47.2364-6.78c-38.0488-5.498-46.9336-25.167-48.9746-44.3086-4.24-39.7754,30.961-58.6142,65.5157-62.2978,31.82-3.3926,71.2675,10.5039,73.8105,34.3691,1.0879,10.1924-6.9766,17.086-16.9219,18.1465-18.8926,2.0147-18.248-24.956-56.2832-20.9014-18.8945,2.0147-28.4062,11.8282-27.082,24.2579,1.3262,12.4306,16.666,14.8173,29.91,16.4228Z" transform="translate(-8.4716 -40.896)"/><path class="cls-5" d="M1268.127,2096.1211l-37.375,10.2334c-11.3321,3.1035-22.0782-.1738-25.0508-11.0244-2.9707-10.8506,4.6074-19.1465,15.9394-22.25l114.291-31.2949c11.3321-3.1036,22.08.1748,25.0508,11.0244s-4.6074,19.1465-15.9394,22.25L1307.67,2085.293l33.8711,123.6943c3.2344,11.8145-2.3027,21.8848-14.3574,25.1856-12.0566,3.3017-21.9512-2.543-25.1875-14.3575Z" transform="translate(-8.4716 -40.896)"/><path class="cls-5" d="M1369.7441,2055.498c-7.6-16.5927-1.3574-25.7763,11.8262-31.8144l87.5078-40.083c10.91-4.9971,20.3242-5.459,25.7364,6.36,5.414,11.8194-1.084,18.6455-11.9942,23.6426l-72.0508,33.0029,16.24,35.4581,63.1875-28.9424c9.7734-4.4766,18.7519-5.2891,24.0605,6.3027,5.3106,11.5918-1.168,17.8594-10.9414,22.3359l-63.1875,28.9434,18.1152,39.5488,73.8692-33.8359c10.91-4.9971,20.3242-5.459,25.7383,6.36,5.4121,11.8194-1.084,18.6456-11.9942,23.6426l-89.3281,40.916c-13.1836,6.0381-24.2148,4.7666-31.8145-11.8261Z" transform="translate(-8.4716 -40.896)"/><path class="cls-5" d="M1509.9,1989.8232c-10.3066-15.06-5.7149-25.1709,6.25-33.36l56.32-38.5488c40.2266-27.5352,66.0645-12.8037,79.1953,6.3818,11.0156,16.0918,12.3985,38.4717-1.1523,53.1992l.2832.4121c19.0234-9.3847,30.73,1.0811,41.039,16.1407,11.7207,17.123,20.6368,20.4121,25.4375,27.4257,5.3653,7.84.99,18.71-6.8476,24.0762-18.5684,12.708-32.2969-4.251-36.3906-10.2344-17.793-25.9931-29.7383-33.2666-48.3067-20.5586l-33.42,22.875,29.7949,43.5293c6.918,10.1094,4.9766,21.4356-5.3379,28.4951s-21.5761,4.7715-28.4961-5.3369Zm65.4629,23.0528,33.834-23.1572c12.791-8.7549,23.3222-20.81,11.8847-37.5206-10.873-15.8847-23.3925-13.374-38.2461-3.207l-34.8652,23.8633Z" transform="translate(-8.4716 -40.896)"/><path class="cls-5" d="M1644.1816,1883.9912c-8.1132-9.1777-7.5859-20.6562,1.7793-28.9365,9.3633-8.2793,20.8223-7.3975,28.9356,1.7793l96.373,109.001c8.1133,9.1767,7.584,20.6562-1.7793,28.9355-9.3652,8.2793-20.8222,7.3984-28.9355-1.7793Z" transform="translate(-8.4716 -40.896)"/><path class="cls-5" d="M1697.7227,1847.3047c-13.5665-12.208-11.4844-23.1162-1.7852-33.8945l64.3848-71.5479c8.0273-8.92,16.4824-13.083,26.1465-4.3867s6.4121,17.542-1.6153,26.4619l-53.0137,58.9111,28.99,26.0889,46.4922-51.6631c7.1914-7.9912,15.1074-12.3027,24.5839-3.7734,9.4786,8.5293,6.0215,16.8545-1.1679,24.8457l-46.4922,51.6621,32.3359,29.1,54.3516-60.3975c8.0273-8.92,16.4824-13.083,26.1445-4.3867,9.6641,8.6963,6.4121,17.542-1.6152,26.4619L1829.74,1933.82c-9.7011,10.7783-20.33,13.9932-33.8964,1.7852Z" transform="translate(-8.4716 -40.896)"/><path class="cls-5" d="M1835.58,1694.9785l-20.7969,32.6953c-6.3047,9.9141-16.4668,14.709-25.959,8.6719s-9.4551-17.2734-3.15-27.1875l63.5977-99.9844c6.3047-9.914,16.4668-14.71,25.959-8.6718s9.455,17.2734,3.15,27.1875l-20.7969,32.6953,108.2109,68.8291c10.336,6.5742,13.0039,17.7519,6.2949,28.2988s-17.9628,12.8691-28.2988,6.2949Z" transform="translate(-8.4716 -40.896)"/><path class="cls-5" d="M263.7148,376.5034c-12.7158-15.06-8.8828-26.4243,3.0821-36.5273l41.26-34.8389c36.9278-31.1807,84.3477-43.6572,133.4707,14.519,39.7168,47.0362,36.51,96.39-8.67,134.5386l-40.6406,34.3164c-11.9648,10.1031-23.8106,11.9781-36.5273-3.082ZM383.252,449.4346l28.4687-24.0391c27.0254-22.8193,15.31-54.2725-4.0254-77.1714-24.7363-29.2944-50.8574-37.63-75.6133-16.7265l-28.2627,23.8647Z" transform="translate(-8.4716 -40.896)"/><path class="cls-5" d="M528.7676,273.521c10.4258-6.2378,21.2617-7.0581,28.332,4.7578s1.2246,20.9775-9.2012,27.2153L509.67,328.3677c-10.4267,6.2383-21.2627,7.0581-28.332-4.7578s-1.2246-20.9771,9.2012-27.2154Z" transform="translate(-8.4716 -40.896)"/><path class="cls-5" d="M601.2988,179.6484c27.4746-11.9746,59.9424-13.1665,67.17,3.417,3.6679,8.4151,1.2119,18.3218-8.1934,22.4214-14.1084,6.1489-21.832-10.2187-44.6025-.2934-12.6231,5.5019-19.28,12.5268-15.9366,20.2,3.668,8.4155,12.6992,6.8354,24.916,4.456l16.6084-3.1152c22.5928-4.2515,50.8721-6.2686,61.876,18.9775,12.8379,29.4541-9.6924,55.4737-36.9189,67.34-32.6709,14.24-66.2627,11.5039-74.03-6.3174-3.4521-7.92-2.125-17.04,8.0225-21.4629,15.5927-6.7964,26.788,14.8325,53.5185,3.1811,12.8711-5.6093,18.5586-14.8623,15.3223-22.2876-3.9922-9.1582-12.5606-7.1909-26.833-4.7988l-23.5518,4.08c-23.3037,3.9722-43.416,2.4292-53.9883-21.8271C551.84,214.1646,576.3008,190.5444,601.2988,179.6484Z" transform="translate(-8.4716 -40.896)"/><path class="cls-5" d="M748.918,211.4648c5.2656,20.1123,22.1562,31.32,44.3574,25.5069,28.7324-7.5225,23.8086-26.3291,39.2187-30.3643,9.1426-2.3935,17.7247,3.7329,19.57,10.7852,6.0185,22.9858-28.0059,43.3379-50.9922,49.3559-53.2852,13.9517-82.835-16.8276-91.5205-50-11.626-44.4038,7.4814-81.2246,52.6689-93.0561,43.8809-11.49,77.0947,13.0278,85.3008,44.3721,3.42,13.06.3906,17.4814-12.4082,20.8325Zm61.123-39.4482c-6.6719-16.9536-23.084-26.333-40.0615-21.8877-19.0674,4.9927-27.4834,19.7559-26.8057,39.3955Z" transform="translate(-8.4716 -40.896)"/><path class="cls-5" d="M864.2422,67.0527c-1.3008-12.8945,5.8125-20.396,17.6328-21.5883s20.2871,4.7373,21.5879,17.6318l8.9971,89.1855L951.1,99.5381c3.5967-4.7046,8.375-8.4434,14.2852-9.04,8.8652-.894,19.3213,5.92,20.3242,15.86.7051,6.9844-1.4961,9.3774-4.6094,13.4907L955.15,153.1309l46.3594,50.6816a21.5106,21.5106,0,0,1,5.3027,12.2192c1.0039,9.94-6.1348,19.8858-16.6113,20.9429-9.67.9756-15.2617-3.3452-18.65-7.3452l-42.3555-48.6431-12.4805,13.47,3.0079,29.8184c1.3007,12.894-5.8125,20.396-17.6319,21.5884s-20.2881-4.7378-21.5888-17.6319Z" transform="translate(-8.4716 -40.896)"/><path class="cls-5" d="M1030.998,118.3628l-6.748-.1411c-11.0684-.2315-15.5664-4.6465-15.3857-13.2847s4.86-12.8613,15.9277-12.63l6.749.1411.502-24.0249c.2715-12.9575,8.24-19.5424,20.1172-19.2939,11.8789.2485,19.5664,7.1606,19.2949,20.1182l-.502,24.0249,11.877.2485c11.6074.2427,17.7422,3.8818,17.5449,13.33s-6.48,12.8276-18.0879,12.5849l-11.8769-.2485-1.6485,78.8233c-.125,5.9389,3.0469,9.246,10.0664,9.3925l5.668.1187c8.6387.1806,13.666,5.147,13.49,13.5151-.2363,11.3379-10.084,17.3433-28.98,16.9478-28.6133-.5982-40.2432-12.7241-39.7579-35.9395Z" transform="translate(-8.4716 -40.896)"/><path class="cls-5" d="M1123.0879,112.5542c1.0879-10.4736,6.334-19.1577,21.6406-17.5669,15.3086,1.5908,18.6563,11.168,17.5684,21.6416l-11.2481,108.2275c-1.0879,10.4737-6.334,19.1582-21.6426,17.5674-15.3066-1.5908-18.6542-11.1684-17.5664-21.6421Zm27.25-71.5464a20.52,20.52,0,1,1-22.5313,18.2891A20.5111,20.5111,0,0,1,1150.3379,41.0078Z" transform="translate(-8.4716 -40.896)"/><path class="cls-5" d="M1269.4844,115.45c46.3535,10.4521,63.9863,47.6406,54.84,88.2017-8.67,38.4536-35.0312,68.2133-87.4433,56.3955-52.4141-11.8184-63.4532-50.0113-54.7832-88.4649C1191.2441,131.0215,1223.1289,104.998,1269.4844,115.45ZM1243.293,231.6021c22.916,5.1665,37.2929-13.18,42.5781-36.6211,5.6406-25.021-.4141-46.0376-22.8008-51.0855-22.3887-5.0478-36.8769,11.3364-42.5176,36.3574C1215.2676,203.6938,1220.3789,226.4351,1243.293,231.6021Z" transform="translate(-8.4716 -40.896)"/><path class="cls-5" d="M1369.6582,161.7676c4.5039-10.9932,12.4688-16.1919,23.9609-11.4834,11.4942,4.7085,13.5215,14.001,9.0176,24.9941l-1.9433,4.7471.5.2051c15.7695-9.2954,32.9023-13.3648,53.6386-4.8692,21.9864,9.0074,41.4688,29.8267,26.32,66.8042l-29.07,70.9566c-3.99,9.7441-11.4687,16.6015-25.7109,10.7671-14.24-5.8345-14.7578-15.9668-10.7656-25.711l26.1-63.7109c6.039-14.7412,3.0937-28.2031-12.6465-34.6514a30.6114,30.6114,0,0,0-39.5039,17.3711L1364.8867,277.4c-3.9922,9.7441-11.4707,16.6011-25.7109,10.7671-14.2422-5.8345-14.76-15.9668-10.7676-25.7109Z" transform="translate(-8.4716 -40.896)"/><path class="cls-5" d="M1525.1738,300.9663c-10.9472,17.6743-7.4336,37.6377,12.0782,49.7232,25.248,15.64,35.4863-.8868,49.0273,7.5019,8.0352,4.9761,9.5078,15.417,5.668,21.6143-12.5118,20.2-50.7051,9.563-70.9043-2.9488-46.8262-29.0053-44.8789-71.6294-26.8223-100.7807,24.17-39.0215,64.0215-50.544,103.7324-25.9468,38.5625,23.8867,43.6778,64.8511,26.6153,92.3955-7.1075,11.4771-12.4,12.3281-23.6465,5.3613Zm70.7051,17.1172c7.69-16.5161,3.18-34.8726-11.74-44.1147-16.7559-10.379-33.2539-6.3057-47.0215,7.7163Z" transform="translate(-8.4716 -40.896)"/><path class="cls-5" d="M1675.5879,325.3438c7.8281-8.9366,17.0488-11.2676,26.3926-3.0835,9.3418,8.184,8.2441,17.6323.416,26.5683l-3.3809,3.8589.4063.356c17.9336-3.6724,35.459-1.96,52.3164,12.8066,17.8711,15.6567,29.541,41.6728,3.209,71.731L1704.418,495.26c-6.9375,7.9209-16.2364,11.98-27.8125,1.8379-11.5782-10.1412-8.7774-19.8931-1.8379-27.814l45.3672-51.7891c10.498-11.9824,12.08-25.6718-.7149-36.8808a30.6125,30.6125,0,0,0-43.0039,3.6069l-42.8769,48.9458c-6.9395,7.9209-16.2383,11.98-27.8145,1.8379s-8.7773-19.8931-1.8379-27.814Z" transform="translate(-8.4716 -40.896)"/></g><g id="circle"><path class="cls-5" d="M1032.5137,380.45a776.7188,776.7188,0,0,1,436.4126,133.2847,783.0546,783.0546,0,0,1,282.8828,343.4983,779.5189,779.5189,0,0,1-71.9624,740.2471,783.0526,783.0526,0,0,1-343.4986,282.8832,779.518,779.518,0,0,1-740.247-71.9625A783.0612,783.0612,0,0,1,313.2183,1464.902a779.5173,779.5173,0,0,1,71.9626-740.2471A783.0548,783.0548,0,0,1,728.679,441.772,775.6811,775.6811,0,0,1,1032.5137,380.45m0-55c-461.4991,0-835.6175,374.1185-835.6175,835.6174s374.1184,835.6178,835.6175,835.6178,835.6176-374.1189,835.6176-835.6178S1494.0127,325.45,1032.5137,325.45Z" transform="translate(-8.4716 -40.896)"/></g><g id="arcs"><path id="arc_base" data-name="arc base" class="cls-6" d="M105.5775,1527.6953a993.92,993.92,0,0,1-69.6059-366.6279c0-235.31,81.5571-451.5717,217.9461-622.0594" transform="translate(-8.4716 -40.896)"/><path id="arc_base-2" data-name="arc base" class="cls-6" d="M1811.11,539.0085c136.3887,170.4876,217.9456,386.7489,217.9456,622.0589a993.92,993.92,0,0,1-69.6059,366.6278" transform="translate(-8.4716 -40.896)"/></g></g></g></g></svg>