<?xml version="1.0" encoding="UTF-8"?>
<svg id="Lager_2" data-name="Lager 2" xmlns="http://www.w3.org/2000/svg" viewBox="0 0 2048.08 2234.72">
  <defs>
    <style>
      .cls-1 {
        fill: #000;
        stroke-width: 0px;
      }

      .cls-2 {
        fill: none;
        stroke: #000;
        stroke-linecap: round;
        stroke-miterlimit: 10;
        stroke-width: 55px;
      }
    </style>
  </defs>
  <g id="outer">
    <g id="silhouette">
      <g id="text">
        <g>
          <path class="cls-1" d="M208.87,1586.21c9.72-1.81,15.88,2.06,21.07,10.6l5.06,8.33c4.8,7.91,7.16,16.12-1.4,26.59l-92.02,113.83c-2.64,3.36-7.54,9.26-11.38,11.6-8.55,5.19-19.93,1.87-25.38-7.11-4.67-7.69-5.27-14.93,0-21.65l20.19-24.55-34.27-56.4-31.22,6.39c-8.26,1.8-14.03-1.42-19.09-9.76-5.84-9.61-3.88-19.87,5.52-25.58,3.85-2.34,11.34-3.96,15.54-4.76l147.38-27.53ZM194.37,1623.98l-.26-.43-74.34,16.79,24.92,41.02,49.67-57.38Z"/>
          <path class="cls-1" d="M261.5,1683.93c9.39-7.87,20.85-7.04,28.88,2.54,8.03,9.58,6.85,21.01-2.54,28.88l-98.29,82.39,44.01,52.5c7.55,9,9.05,20.14.43,27.37-8.62,7.23-19.32,3.8-26.87-5.2l-54.93-65.52c-9.32-11.11-11.01-22.09,2.97-33.81l106.33-89.14Z"/>
          <path class="cls-1" d="M345.79,1784.99c8.02-9.26,19.46-10.27,28.92-2.09,9.45,8.18,10.1,19.65,2.09,28.92l-64.45,74.48c-16.03,18.53-12.83,35.84,4.94,51.22,17.77,15.38,35.37,16.06,51.4-2.47l64.45-74.48c8.02-9.26,19.46-10.27,28.92-2.09,9.45,8.18,10.1,19.65,2.09,28.92l-62.33,72.02c-32.39,37.43-70.01,34.3-106.12,3.05-36.11-31.25-44.61-68.03-12.22-105.46l62.33-72.02Z"/>
          <path class="cls-1" d="M481.41,1901.03c8.06-14.4,19.71-12.17,29.31-6.8l10.47,5.86c11.12,6.23,13.92,13.52,10.91,27.6l-25.24,118.24.44.24,87.19-83.55c10.43-9.92,18.1-11.35,29.23-5.12l10.03,5.62c9.6,5.38,17.58,14.14,9.52,28.54l-71.46,127.6c-5.01,8.94-14.13,15.01-25.69,8.53-11.56-6.47-11.16-17.42-6.15-26.37l54.48-97.28-.44-.24-91.76,85.58c-6.55,6.07-13.72,6.07-21.13,1.92-7.42-4.15-11.16-10.26-9.41-19.02l25.01-122.95-.44-.24-54.48,97.28c-5.01,8.94-14.13,15.01-25.69,8.53s-11.16-17.42-6.15-26.37l71.46-127.6Z"/>
          <path class="cls-1" d="M663.26,2002.84c5.1-16.22,15.07-20.42,31.77-15.17,8.11,2.55,14.29,7.9,16.33,16.41l33.71,131.95.48.15,32.04-101.83c3.98-12.64,13.08-16.59,24.77-12.91,11.69,3.68,16.89,12.13,12.91,24.77l-42.39,134.74c-4.88,15.5-14.33,22.22-30.79,17.05-12.4-3.9-15.63-7.8-18.16-17.25l-34.21-128.7-.48-.15-31.14,98.97c-3.98,12.64-13.08,16.59-24.77,12.91-11.69-3.68-16.89-12.13-12.91-24.77l42.84-136.17Z"/>
          <path class="cls-1" d="M837.51,2048.54c2.14-12.06,11.46-18.79,23.77-16.61,12.31,2.18,18.74,11.7,16.6,23.76l-25.41,143.26c-2.14,12.06-11.46,18.79-23.77,16.61-12.31-2.18-18.74-11.7-16.6-23.76l25.41-143.26Z"/>
          <path class="cls-1" d="M1058.27,2221.6c-.34,7.49-6.36,13.48-14.6,13.11-11.74-.53-14.66-7.91-16.44-24.01-12.4,14.21-29.06,22.97-54.53,21.83-63.44-2.84-85.71-47.63-83.45-98.08,2.72-60.69,42.18-92.46,97.88-89.96,45.46,2.04,68.46,30.34,67.75,46.33-.64,14.24-11.29,17.51-20.04,17.12-20.23-.91-11.47-28.79-51.43-30.58-28.22-1.26-51.28,16.22-53.31,61.68-1.59,35.46,14.8,60.72,48.27,62.22,21.73.97,41.37-12.91,44.35-34.8l-26.72-1.2c-8.74-.39-18.34-4.08-17.78-16.56.45-9.99,6.45-15.48,16.69-15.02l50.45,2.26c11.99.54,16.46,6.74,15.96,17.98l-3.03,67.68Z"/>
          <path class="cls-1" d="M1086.11,2074.29c-2.56-18.07,6.04-25.1,20.39-27.13l67.58-9.58c48.27-6.84,64.89,17.82,68.16,40.84,2.74,19.31-5.95,39.98-24.62,47.17l.07.5c21.21.02,27.07,14.59,29.63,32.66,2.91,20.54,9.45,27.45,10.64,35.86,1.33,9.41-7.41,17.21-16.81,18.54-22.28,3.16-27.06-18.13-28.08-25.31-4.42-31.19-11.91-43-34.18-39.85l-40.1,5.69,7.41,52.23c1.72,12.13-5.04,21.42-17.42,23.17-12.38,1.75-21.46-5.29-23.17-17.42l-19.48-137.38ZM1134.56,2123.98l40.59-5.76c15.35-2.18,30.13-8.31,27.29-28.36-2.7-19.06-15.04-22.36-32.86-19.83l-41.83,5.93,6.81,48.02Z"/>
          <path class="cls-1" d="M1252.56,2042.26c-3.92-11.61,1.03-21.98,12.87-25.98,11.84-4,22.06,1.27,25.98,12.87l31.48,93.33c7.83,23.22,24.37,29.25,46.64,21.73,22.27-7.51,31.78-22.33,23.95-45.54l-31.48-93.33c-3.92-11.61,1.03-21.98,12.87-25.98,11.84-3.99,22.06,1.27,25.98,12.87l30.44,90.26c15.82,46.9-5.97,77.74-51.22,93-45.25,15.26-81.26,3.92-97.08-42.98l-30.44-90.26Z"/>
          <path class="cls-1" d="M1424.08,1988.44c-8.83-15.97-3.29-25.6,9.4-32.61l54.92-30.35c30.2-16.69,62.71-15.23,82.05,19.78,15.84,28.66,7.66,60.89-27.13,80.12l-39.82,22,23.58,42.67c5.92,10.72,2.91,21.81-8.03,27.86-10.94,6.05-21.93,2.69-27.86-8.03l-67.11-121.44ZM1488.26,2019.81l33.48-18.5c14.44-7.98,20.33-22.66,12.83-36.22-8.71-15.75-23.49-16.15-41.22-6.36l-29.76,16.44,24.67,44.64Z"/>
          <path class="cls-1" d="M1562.03,1910.24c-11.34-14.3-7.47-24.71,3.88-33.72l49.16-39c27.03-21.44,59.33-25.37,84.19,5.96,20.35,25.66,17.6,58.79-13.54,83.5l-35.64,28.28,30.3,38.19c7.61,9.6,6.47,21.03-3.32,28.8-9.79,7.77-21.19,6.28-28.8-3.32l-86.24-108.7ZM1630.51,1930.59l29.96-23.77c12.93-10.25,16.31-25.7,6.67-37.85-11.19-14.1-25.84-12.05-41.7.53l-26.64,21.13,31.7,39.95Z"/>
          <path class="cls-1" d="M1685.33,1809.89c-13.5-12.28-11.36-23.17-1.61-33.9l64.76-71.21c8.07-8.88,16.55-13,26.17-4.25,9.62,8.75,6.32,17.57-1.75,26.45l-53.32,58.63,28.85,26.24,46.76-51.42c7.23-7.95,15.17-12.22,24.6-3.64,9.43,8.58,5.93,16.88-1.3,24.84l-46.76,51.42,32.18,29.27,54.66-60.11c8.07-8.88,16.55-13,26.17-4.25s6.32,17.57-1.75,26.45l-66.1,72.69c-9.75,10.73-20.4,13.89-33.9,1.61l-97.65-88.81Z"/>
          <path class="cls-1" d="M1786.31,1692.73c-14.38-9.06-15.91-19.77-6.58-34.58,4.53-7.19,11.28-11.81,20.02-11.62l136.18.99.27-.42-90.33-56.9c-11.21-7.06-12.71-16.87-6.18-27.24,6.53-10.36,16.03-13.25,27.24-6.18l119.52,75.29c13.75,8.66,17.85,19.51,8.65,34.11-6.93,11-11.52,13.13-21.3,13.17l-133.17.32-.27.42,87.79,55.3c11.21,7.06,12.71,16.87,6.18,27.24s-16.03,13.25-27.24,6.18l-120.79-76.09Z"/>
        </g>
        <g>
          <path class="cls-1" d="M254.93,335.61c-12.72-15.06-8.88-26.42,3.08-36.53l41.26-34.84c36.93-31.18,84.35-43.66,133.47,14.52,39.72,47.04,36.51,96.39-8.67,134.54l-40.64,34.32c-11.96,10.1-23.81,11.98-36.53-3.08l-91.97-108.93ZM374.46,408.54l28.47-24.04c27.03-22.82,15.31-54.27-4.03-77.17-24.74-29.29-50.86-37.63-75.61-16.73l-28.26,23.86,79.43,94.07Z"/>
          <path class="cls-1" d="M519.98,232.62c10.43-6.24,21.26-7.06,28.33,4.76,7.07,11.82,1.22,20.98-9.2,27.22l-38.23,22.87c-10.43,6.24-21.26,7.06-28.33-4.76-7.07-11.82-1.22-20.98,9.2-27.22l38.23-22.87Z"/>
          <path class="cls-1" d="M592.51,138.75c27.47-11.97,59.94-13.17,67.17,3.42,3.67,8.42,1.21,18.32-8.19,22.42-14.11,6.15-21.83-10.22-44.6-.29-12.62,5.5-19.28,12.53-15.94,20.2,3.67,8.42,12.7,6.84,24.92,4.46l16.61-3.12c22.59-4.25,50.87-6.27,61.88,18.98,12.84,29.45-9.69,55.47-36.92,67.34-32.67,14.24-66.26,11.5-74.03-6.32-3.45-7.92-2.13-17.04,8.02-21.46,15.59-6.8,26.79,14.83,53.52,3.18,12.87-5.61,18.56-14.86,15.32-22.29-3.99-9.16-12.56-7.19-26.83-4.8l-23.55,4.08c-23.3,3.97-43.42,2.43-53.99-21.83-12.84-29.45,11.62-53.07,36.62-63.97Z"/>
          <path class="cls-1" d="M740.13,170.57c5.27,20.11,22.16,31.32,44.36,25.51,28.73-7.52,23.81-26.33,39.22-30.36,9.14-2.39,17.72,3.73,19.57,10.79,6.02,22.99-28.01,43.34-50.99,49.36-53.29,13.95-82.84-16.83-91.52-50-11.63-44.4,7.48-81.22,52.67-93.06,43.88-11.49,77.09,13.03,85.3,44.37,3.42,13.06.39,17.48-12.41,20.83l-86.2,22.57ZM801.25,131.12c-6.67-16.95-23.08-26.33-40.06-21.89-19.07,4.99-27.48,19.76-26.81,39.4l66.87-17.51Z"/>
          <path class="cls-1" d="M855.45,26.16c-1.3-12.89,5.81-20.4,17.63-21.59s20.29,4.74,21.59,17.63l9,89.19,38.64-52.74c3.6-4.7,8.38-8.44,14.29-9.04,8.86-.89,19.32,5.92,20.32,15.86.7,6.98-1.5,9.38-4.61,13.49l-25.95,33.28,46.36,50.68c1.53,1.75,4.65,5.77,5.3,12.22,1,9.94-6.13,19.89-16.61,20.94-9.67.98-15.26-3.35-18.65-7.35l-42.36-48.64-12.48,13.47,3.01,29.82c1.3,12.89-5.81,20.4-17.63,21.59-11.82,1.19-20.29-4.74-21.59-17.63l-16.26-161.18Z"/>
          <path class="cls-1" d="M1022.21,77.47l-6.75-.14c-11.07-.23-15.57-4.65-15.39-13.28.18-8.64,4.86-12.86,15.93-12.63l6.75.14.5-24.02c.27-12.96,8.24-19.54,20.12-19.29,11.88.25,19.57,7.16,19.29,20.12l-.5,24.02,11.88.25c11.61.24,17.74,3.88,17.55,13.33-.2,9.45-6.48,12.83-18.09,12.58l-11.88-.25-1.65,78.82c-.12,5.94,3.05,9.25,10.07,9.39l5.67.12c8.64.18,13.67,5.15,13.49,13.52-.24,11.34-10.08,17.34-28.98,16.95-28.61-.6-40.24-12.72-39.76-35.94l1.75-83.68Z"/>
          <path class="cls-1" d="M1114.3,71.66c1.09-10.47,6.33-19.16,21.64-17.57s18.66,11.17,17.57,21.64l-11.25,108.23c-1.09,10.47-6.33,19.16-21.64,17.57s-18.66-11.17-17.57-21.64l11.25-108.23ZM1141.55.11c11.28,1.17,19.46,11.25,18.29,22.53s-11.25,19.46-22.53,18.29c-11.28-1.17-19.46-11.25-18.29-22.53s11.25-19.46,22.53-18.29Z"/>
          <path class="cls-1" d="M1260.7,74.55c46.35,10.45,63.99,47.64,54.84,88.2-8.67,38.45-35.03,68.21-87.44,56.4-52.41-11.82-63.45-50.01-54.78-88.46,9.15-40.56,41.03-66.58,87.39-56.13ZM1234.5,190.71c22.92,5.17,37.29-13.18,42.58-36.62,5.64-25.02-.41-46.04-22.8-51.09s-36.88,11.34-42.52,36.36c-5.29,23.44-.17,46.18,22.74,51.35Z"/>
          <path class="cls-1" d="M1360.87,120.87c4.5-10.99,12.47-16.19,23.96-11.48s13.52,14,9.02,24.99l-1.94,4.75.5.21c15.77-9.3,32.9-13.36,53.64-4.87,21.99,9.01,41.47,29.83,26.32,66.8l-29.07,70.96c-3.99,9.74-11.47,16.6-25.71,10.77-14.24-5.83-14.76-15.97-10.77-25.71l26.1-63.71c6.04-14.74,3.09-28.2-12.65-34.65-12.74-5.22-32.03-.87-39.5,17.37l-24.67,60.21c-3.99,9.74-11.47,16.6-25.71,10.77-14.24-5.83-14.76-15.97-10.77-25.71l41.25-100.69Z"/>
          <path class="cls-1" d="M1516.38,260.07c-10.95,17.67-7.43,37.64,12.08,49.72,25.25,15.64,35.49-.89,49.03,7.5,8.03,4.98,9.51,15.42,5.67,21.61-12.51,20.2-50.71,9.56-70.91-2.95-46.83-29.01-44.88-71.63-26.82-100.78,24.17-39.02,64.02-50.54,103.73-25.95,38.56,23.89,43.68,64.85,26.62,92.4-7.11,11.48-12.4,12.33-23.65,5.36l-75.75-46.92ZM1587.09,277.19c7.69-16.52,3.18-34.87-11.74-44.11-16.76-10.38-33.25-6.31-47.02,7.72l58.76,36.4Z"/>
          <path class="cls-1" d="M1666.8,284.45c7.83-8.94,17.05-11.27,26.39-3.08,9.34,8.18,8.24,17.63.42,26.57l-3.38,3.86.41.36c17.93-3.67,35.46-1.96,52.32,12.81,17.87,15.66,29.54,41.67,3.21,71.73l-50.53,57.68c-6.94,7.92-16.24,11.98-27.81,1.84-11.58-10.14-8.78-19.89-1.84-27.81l45.37-51.79c10.5-11.98,12.08-25.67-.71-36.88-10.36-9.07-30.02-11.22-43,3.61l-42.88,48.95c-6.94,7.92-16.24,11.98-27.81,1.84-11.58-10.14-8.78-19.89-1.84-27.81l71.7-81.85Z"/>
        </g>
      </g>
      <g id="circle">
        <path class="cls-1" d="M1024.04,339.55c105.41,0,207.63,20.63,303.83,61.32,46.24,19.56,90.85,43.77,132.58,71.96,41.35,27.93,80.23,60.01,115.57,95.35,35.34,35.34,67.42,74.22,95.35,115.57,28.19,41.73,52.4,86.33,71.96,132.58,40.69,96.2,61.32,198.43,61.32,303.83s-20.63,207.63-61.32,303.83c-19.56,46.24-43.77,90.85-71.96,132.58-27.93,41.35-60.01,80.23-95.35,115.57-35.34,35.34-74.22,67.42-115.57,95.35-41.73,28.19-86.33,52.4-132.58,71.96-96.2,40.69-198.43,61.32-303.83,61.32s-207.63-20.63-303.83-61.32c-46.24-19.56-90.85-43.77-132.58-71.96-41.35-27.93-80.23-60.01-115.57-95.35-35.34-35.34-67.42-74.22-95.35-115.57-28.19-41.73-52.4-86.33-71.96-132.58-40.69-96.2-61.32-198.43-61.32-303.83s20.63-207.63,61.32-303.83c19.56-46.24,43.77-90.85,71.96-132.58,27.93-41.35,60.01-80.23,95.35-115.57,35.34-35.34,74.22-67.42,115.57-95.35,41.73-28.19,86.33-52.4,132.58-71.96,96.2-40.69,198.43-61.32,303.83-61.32M1024.04,284.55c-461.5,0-835.62,374.12-835.62,835.62s374.12,835.62,835.62,835.62,835.62-374.12,835.62-835.62-374.12-835.62-835.62-835.62h0Z"/>
      </g>
      <path id="arc_base" data-name="arc base" class="cls-2" d="M89.48,1466.91c-40.08-107.98-61.98-224.8-61.98-346.74,0-235.31,81.56-451.57,217.95-622.06"/>
      <path id="arc_base-2" data-name="arc base" class="cls-2" d="M1802.64,498.11c136.39,170.49,217.95,386.75,217.95,622.06,0,121.93-21.9,238.75-61.98,346.74"/>
      <g id="symbol">
        <path class="cls-1" d="M578.59,1361.9c0-11.88-5.71-22.46-14.61-29.29v-267.77l-47.53-28.23v296c-8.89,6.84-14.61,17.41-14.61,29.29,0,6.36,1.64,12.35,4.53,17.6-13.21,21.37-28.6,62.21-22.89,74.42,7.57,16.18,56.73,14.87,56.73,14.87,0,0,49.15,1.31,56.73-14.87,5.71-12.21-9.68-53.04-22.89-74.42,2.89-5.24,4.53-11.23,4.53-17.6Z"/>
        <path class="cls-1" d="M1087.75,1354.4c-10.64,6.74-24.69,6.93-35.54.48l-381.89-226.8v250.44c0,6.86,2.97,13.37,8.14,17.88,57.96,50.57,349.7,339.44,776.41-.23,5.14-4.09,7.53-10.77,7.53-17.34v-261.77l-374.64,237.33Z"/>
        <path class="cls-1" d="M1602.8,957.19l-523.08-331.36c-5.78-3.66-13.43-3.77-19.33-.26l-557.95,331.36c-10.49,6.23-10.49,20.24,0,26.47l549.76,326.5c10.85,6.45,24.91,6.25,35.54-.48l515.05-326.28c9.92-6.28,9.92-19.66,0-25.94ZM1367.27,912.43l-338.3-168.68c-5.6-2.72-5.94-9.92-.63-13.08l28-16.63c2.84-1.69,6.52-1.64,9.3.13l306.5,194.16c1.17.74,4.3,6.36-4.88,4.1Z"/>
      </g>
    </g>
  </g>
</svg>