<?xml version="1.0" encoding="UTF-8"?>
<svg id="Lager_2" data-name="Lager 2" xmlns="http://www.w3.org/2000/svg" viewBox="0 0 2080.13 2323.81">
  <defs>
    <style>
      .cls-1 {
        fill: none;
        stroke: #000;
        stroke-linecap: round;
        stroke-miterlimit: 10;
        stroke-width: 55px;
      }

      .cls-2 {
        stroke-width: 0px;
      }

      .cls-3 {
        font-size: 250px;
      }

      .cls-3, .cls-4 {
        font-family: HelveticaRounded-Bold, 'Helvetica Rounded';
        font-weight: 700;
      }

      .cls-4 {
        font-size: 270px;
      }
    </style>
  </defs>
  <g id="outer">
    <g id="silhouette">
      <g id="text">
        <text class="cls-3" transform="translate(51.7 1665.13) rotate(58.72)"><tspan x="0" y="0">A</tspan></text>
        <text class="cls-3" transform="translate(144.1 1814.82) rotate(50.03)"><tspan x="0" y="0">L</tspan></text>
        <text class="cls-3" transform="translate(244.45 1936.51) rotate(40.87)"><tspan x="0" y="0">U</tspan></text>
        <text class="cls-3" transform="translate(405.37 2075.22) rotate(29.25)"><tspan x="0" y="0">M</tspan></text>
        <text class="cls-3" transform="translate(617.58 2190.17) rotate(17.46)"><tspan x="0" y="0">N</tspan></text>
        <text class="cls-3" transform="translate(809.9 2246.36) rotate(10.06)"><tspan x="0" y="0">I</tspan></text>
        <text class="cls-3" transform="translate(891.5 2264.66) rotate(2.56)"><tspan x="0" y="0">G</tspan></text>
        <text class="cls-3" transform="translate(1108.72 2272.31) rotate(-8.07)"><tspan x="0" y="0">R</tspan></text>
        <text class="cls-3" transform="translate(1306.09 2243.45) rotate(-18.64)"><tspan x="0" y="0">U</tspan></text>
        <text class="cls-3" transform="translate(1502.42 2175.06) rotate(-28.92)"><tspan x="0" y="0">P</tspan></text>
        <text class="cls-3" transform="translate(1663.63 2085.15) rotate(-38.43)"><tspan x="0" y="0">P</tspan></text>
        <text class="cls-3" transform="translate(1806.81 1970.54) rotate(-47.72)"><tspan x="0" y="0">E</tspan></text>
        <text class="cls-3" transform="translate(1930.85 1833.95) rotate(-57.79)"><tspan x="0" y="0">N</tspan></text>
        <text class="cls-4" transform="translate(367.47 518.47) rotate(-40.18)"><tspan x="0" y="0">D</tspan></text>
        <text class="cls-4" transform="translate(521.06 393.1) rotate(-30.89)"><tspan x="0" y="0">-</tspan></text>
        <text class="cls-4" transform="translate(606.99 339.72) rotate(-23.55)"><tspan x="0" y="0">s</tspan></text>
        <text class="cls-4" transform="translate(728.12 285.03) rotate(-14.67)"><tspan x="0" y="0">e</tspan></text>
        <text class="cls-4" transform="translate(877.28 245.92) rotate(-5.76)"><tspan x="0" y="0">k</tspan></text>
        <text class="cls-4" transform="translate(1013.41 233.09) rotate(1.2)"><tspan x="0" y="0">t</tspan></text>
        <text class="cls-4" transform="translate(1103.17 235.05) rotate(5.93)"><tspan x="0" y="0">i</tspan></text>
        <text class="cls-4" transform="translate(1167.79 238.45) rotate(12.71)"><tspan x="0" y="0">o</tspan></text>
        <text class="cls-4" transform="translate(1318.51 271.51) rotate(22.28)"><tspan x="0" y="0">n</tspan></text>
        <text class="cls-4" transform="translate(1460.86 328.8) rotate(31.77)"><tspan x="0" y="0">e</tspan></text>
        <text class="cls-4" transform="translate(1592.17 409.06) rotate(41.22)"><tspan x="0" y="0">n</tspan></text>
      </g>
      <g id="circle">
        <path class="cls-2" d="m1043.56,380.45c105.41,0,207.63,20.63,303.83,61.32,46.24,19.56,90.85,43.77,132.58,71.96,41.35,27.93,80.23,60.01,115.57,95.35,35.34,35.34,67.42,74.22,95.35,115.57,28.19,41.73,52.4,86.33,71.96,132.58,40.69,96.2,61.32,198.43,61.32,303.83s-20.63,207.63-61.32,303.83c-19.56,46.24-43.77,90.85-71.96,132.58-27.93,41.35-60.01,80.23-95.35,115.57-35.34,35.34-74.22,67.42-115.57,95.35-41.73,28.19-86.33,52.4-132.58,71.96-96.2,40.69-198.43,61.32-303.83,61.32s-207.63-20.63-303.83-61.32c-46.24-19.56-90.85-43.77-132.58-71.96-41.35-27.93-80.23-60.01-115.57-95.35-35.34-35.34-67.42-74.22-95.35-115.57-28.19-41.73-52.4-86.33-71.96-132.58-40.69-96.2-61.32-198.43-61.32-303.83s20.63-207.63,61.32-303.83c19.56-46.24,43.77-90.85,71.96-132.58,27.93-41.35,60.01-80.23,95.35-115.57,35.34-35.34,74.22-67.42,115.57-95.35,41.73-28.19,86.33-52.4,132.58-71.96,96.2-40.69,198.43-61.32,303.83-61.32m0-55c-461.5,0-835.62,374.12-835.62,835.62s374.12,835.62,835.62,835.62,835.62-374.12,835.62-835.62-374.12-835.62-835.62-835.62h0Z"/>
      </g>
      <path id="arc_base" data-name="arc base" class="cls-1" d="m109,1507.8c-40.08-107.98-61.98-224.8-61.98-346.74,0-235.31,81.56-451.57,217.95-622.06"/>
      <path id="arc_base-2" data-name="arc base" class="cls-1" d="m1822.16,539.01c136.39,170.49,217.95,386.75,217.95,622.06,0,121.93-21.9,238.75-61.98,346.74"/>
      <g id="symbol">
        <path class="cls-2" d="m598.11,1402.8c0-11.88-5.71-22.46-14.61-29.29v-267.77l-47.53-28.23v296c-8.89,6.84-14.61,17.41-14.61,29.29,0,6.36,1.64,12.35,4.53,17.6-13.21,21.37-28.6,62.21-22.89,74.42,7.57,16.18,56.73,14.87,56.73,14.87,0,0,49.15,1.31,56.73-14.87,5.71-12.21-9.68-53.04-22.89-74.42,2.89-5.24,4.53-11.23,4.53-17.6Z"/>
        <path class="cls-2" d="m1107.27,1395.3c-10.64,6.74-24.69,6.93-35.54.48l-381.89-226.8v250.44c0,6.86,2.97,13.37,8.14,17.88,57.96,50.57,349.7,339.44,776.41-.23,5.14-4.09,7.53-10.77,7.53-17.34v-261.77l-374.64,237.33Z"/>
        <path class="cls-2" d="m1622.32,998.08l-523.08-331.36c-5.78-3.66-13.43-3.77-19.33-.26l-557.95,331.36c-10.49,6.23-10.49,20.24,0,26.47l549.76,326.5c10.85,6.45,24.91,6.25,35.54-.48l515.05-326.28c9.92-6.28,9.92-19.66,0-25.94Zm-235.53-44.75l-338.3-168.68c-5.6-2.72-5.94-9.92-.63-13.08l28-16.63c2.84-1.69,6.52-1.64,9.3.13l306.5,194.16c1.17.74,4.3,6.36-4.88,4.1Z"/>
      </g>
    </g>
  </g>
</svg>