<svg xmlns="http://www.w3.org/2000/svg" viewBox="0 0 906.37 1128.2581"><g id="Layer_2" data-name="Layer 2"><g id="inner"><g id="silhouette"><g id="box"><path d="M733.0934,951.0612s4.7043,172.4926,3.92,168.5723,167.0042-278.34,167.0042-278.34L906.37,654.6876Z"/><polygon points="1.568 914.21 36.851 1074.158 708.788 1128.258 706.435 957.334 1.568 914.21"/><path d="M570.7936,822.4758l24.3058-19.6014,25.09-20.3854,31.3623-7.0566,32.1462-1.5681,30.5783,10.1928,3.92,29.01-.7841,29.01-29.01,25.09L653.12,884.4164,613.9167,881.28l-38.4187-13.329Zm-2.3522-214.8316-4.7043,32.93,38.4187,39.2028,9.4087,10.1928-10.1928,9.4087L570.7936,727.605l-31.3623,28.226L508.069,784.0571l-6.2725,5.4883-7.0564-3.1361L452.4009,773.08l-.784-.784h0L411.63,755.047,367.7228,744.07l-24.3058-5.4884,18.8173-17.2492,28.2261-26.658,15.6812-19.6014-10.1928-10.9768-6.2725-7.0565,4.7044-8.6246,18.0334-32.1464-8.6247-14.8971-88.5984-3.1361L176.4128,727.605l23.5218-1.5682h3.92l25.8739,4.7044,10.9769,1.568,1.568,11.7609,3.92,39.2029,1.5682,10.1927-9.4087,4.7044-23.5218,13.329h0L191.31,823.26l-1.5681.784-2.3522.7841-25.09,3.92-1.5681.7841h-1.5681L133.29,827.9642h-1.5681l-26.6579-3.92-11.7609-1.5681L91.7347,810.715v-3.92L0,892.257l708.7877,38.4187L901.6656,620.9732Z"/></g><g id="stick"><polygon points="370.075 731.525 415.55 742.502 456.321 759.751 498.66 773.864 530.023 745.638 560.601 718.196 591.179 689.186 548.84 645.279 555.112 600.588 552.76 556.681 554.328 514.341 523.75 534.727 493.956 558.249 440.64 554.328 386.54 553.544 408.494 584.123 426.527 616.269 405.357 654.688 423.391 674.289 399.869 704.083 370.075 731.525"/><polygon points="458.673 417.902 470.434 480.627 482.979 543.352 417.118 538.647 406.142 475.139 392.813 412.414 437.504 421.823 458.673 417.902"/><polygon points="505.717 384.972 512.773 449.265 517.478 511.205 495.524 537.079 481.411 477.491 469.65 417.118 505.717 384.972"/></g><g id="ball"><polygon points="369.291 129.369 316.759 187.39 371.643 258.739 435.936 244.626 447.697 170.924 369.291 129.369"/><polygon points="355.962 313.623 348.121 381.836 338.713 385.756 328.52 388.108 326.952 388.892 282.261 357.53 245.41 317.543 245.41 310.487 254.035 286.181 320.679 280.692 355.962 313.623"/><polygon points="269.716 106.632 264.227 170.924 234.433 211.695 213.264 197.582 207.775 194.446 231.297 107.416 237.569 107.416 269.716 106.632"/><polygon points="395.949 20.385 374.779 76.838 321.463 98.007 281.476 74.485 281.476 52.532 283.045 43.907 367.723 3.136 375.563 9.409 395.949 20.385"/><polygon points="596.667 130.938 595.099 136.426 555.897 169.356 504.149 130.938 518.262 59.588 544.136 61.156 555.897 60.372 596.667 130.938"/><polygon points="577.85 315.975 518.262 374.779 509.637 370.075 475.923 349.689 461.026 297.158 500.228 264.227 555.897 279.124 572.362 310.487 577.85 315.975"/><path d="M416.3343,22.7376l67.429,14.1131,56.4521,35.2825,30.5782,67.4289,18.8173,72.1332-13.329,46.2594-14.113,46.2594-59.5884,46.2594-49.3956,25.8739-56.4521-1.5681-61.1565-8.6246-.7841-.7841-39.9869-27.442-27.442-36.8506-25.8739-50.18-10.9768-47.0434.7841-.784,2.3521-3.92.7841-4.7044L253.25,116.8246l41.555-58.02,77.6217-32.93,43.9073-3.1364M417.1183,0,367.7227,4.7043,281.4764,41.555,233.649,108.2l-19.6014,83.11-7.0565,9.4086,14.113,60.3724,28.2261,54.1,30.5782,41.555,43.1231,29.01,3.1363,3.1362,68.997,10.1928,63.5087,1.5681,56.4521-29.01,67.4289-51.7478,15.6812-53.3159,14.897-52.5318-20.3855-79.9738L558.2487,58.8043,492.388,18.0333,417.1183,0Z"/></g></g></g></g></svg>