<svg xmlns="http://www.w3.org/2000/svg" viewBox="0 0 2048.0841 2230.5452"><defs><style>.cls-1{fill:#96c;}.cls-2{fill:#f280a1;}.cls-3{fill:none;stroke:#f280a1;stroke-linecap:round;stroke-miterlimit:10;stroke-width:55px;}</style></defs><g id="Layer_2" data-name="Layer 2"><g id="inner"><g id="light"><g id="whale"><g id="belly"><path id="back" class="cls-1" d="M1395.2831,1246.5631a4.1264,4.1264,0,0,1,3.6,7.0785c-40.2409,37.0852-89.6392,76.6554-151.6127,107.8979-.1861-.3342-.3752-.6788-.5642-1.0234-14.4777-26.6961-32.0816-59.7428-46.0233-86.9556C1264.3238,1269.755,1340.003,1257.3992,1395.2831,1246.5631Z" transform="translate(-42.9257 -40.896)"/><path id="front" class="cls-1" d="M1014.7005,1418.9867c-255.0253,2.7758-422.7037-208.1021-492.2291-326.8711-.0225-.039-.0586-.0856-.084-.1353-1.4617-2.4984-2.8874-4.95-4.2559-7.361a.04.04,0,0,0-.0195-.0287c-4.9775-8.7379-9.3813-16.8992-13.21-24.3589-7.5139-14.6287-14.0736-27.9378-19.801-40.0617-3.7756-7.9923,5.9668-15.52,12.73-9.8288,45.4235,38.2222,94.9679,78.0892,148.31,113.8687,82.9686,55.6425,162.5765,92.9811,243.4619,114.1572l.0722.0135C912.2759,1283.074,967.49,1358.0368,1014.7005,1418.9867Z" transform="translate(-42.9257 -40.896)"/></g><g id="body"><path id="fin" class="cls-2" d="M722.93,1348.0843c5.3536,65.4687,24.5028,154.7751,82.2584,235.6338,17.0863,29.7,46.1992,25.7424,54.8182-19.9082,2.7206-14.41,13.3371-75.5771,23.494-138.1327C823.4155,1408.6569,769.892,1380.8984,722.93,1348.0843Z" transform="translate(-42.9257 -40.896)"/><path id="top" class="cls-2" d="M1742.9624,993.2979c14.1552,95.3344-63.5139,126.0594-209.0833,145.8482-17.4305,2.3769-37.7621,19.6073-63.2814,44.47a156.8311,156.8311,0,0,1-79.1923,41.4488c-68.3612,13.4586-160.0755,27.5541-225.5373,27.7763,15.4,32.1023,45.0222,87.5589,61.6291,118.18,56.9662,103.2628,107.837,186.21,91.24,196.496-25.6979,15.9468-110.73,5.568-205.9514-71.0288-23.9857-19.3028-48.2478-47.3032-71.1717-78.5638-49.1621-62.9676-117.7977-154.91-136.5949-198.3171-3.3451-.836-6.5835-1.5769-9.9376-2.4444-170.0957-44.5275-303.4249-155.247-416.7566-252.1072a94.7434,94.7434,0,0,1-33.1328-69.0165l-.0085-.2664c-.5545-17.1213,43.4131-29.6236,75.3492-8.4609,24.4874,16.2234,152.4252,43.9511,237.9242,61.9372,87.3047,18.3719,172.6919,64.1863,269.3163,65.9756,99.8831,1.8416,104.9834,34.9493,101.5359,53.2085,0,0,210.49,75.9418,273.9382,21.4641,45.1316-38.7518-26.7307-78.7937,25.8867-167.1967,20.532,11.4405,62.1508,51.4429,95.7762,93.718C1600.2965,977.7032,1700.6873,1026.9233,1742.9624,993.2979Z" transform="translate(-42.9257 -40.896)"/></g></g><g id="bubbles"><g id="bottom"><circle class="cls-1" cx="928.0692" cy="863.1682" r="18.2236"/></g><g id="middle"><circle class="cls-1" cx="873.9252" cy="784.1949" r="35.9203"/></g><g id="top-2" data-name="top"><circle class="cls-1" cx="942.6224" cy="718.4819" r="25.2766"/></g></g></g></g><g id="outer"><g id="light-2" data-name="light"><g id="text"><path d="M111.7891,1703.9941c-12.3579,1.8487-18.3609-4.0009-24.4229-15.2177s-7.6665-19.4444.65-28.77l100.9151-111.9443a35.4017,35.4017,0,0,1,9.3686-7.9043c12.0967-6.5381,21.0479.56,25.9214,9.5772,5.23,9.6777,3.0244,17.69-5.97,26.8134l-90.1787,90.7959.2377.4395,126.0762-24.3731c12.56-2.5254,20.4712.0186,24.9883,8.377,4.8735,9.0176,5.9067,20.3945-6.19,26.9316a35.3958,35.3958,0,0,1-11.7456,3.5069Z" transform="translate(-42.9257 -40.896)"/><path d="M300.7773,1703.7354c9.502-2.7432,16,.5126,21.9932,8.5175l5.8438,7.8047c5.5439,7.4043,8.6879,15.3565,1.1787,26.6006l-80.5967,122.1856c-2.3032,3.5986-6.6079,9.9453-10.21,12.6425-8.0049,5.9932-19.6533,3.7842-25.9467-4.6211-5.3941-7.2041-6.6885-14.3554-2.0826-21.5517l17.7207-26.3858-39.5581-52.831-30.4575,9.376c-8.0517,2.5937-14.1-.0616-19.9438-7.8663-6.7427-9.0048-5.7842-19.4043,3.021-25.998,3.602-2.6963,10.9038-5.041,15.0048-6.2373Zm-10.7812,38.9912-.2993-.4-72.3692,23.8926,28.77,38.4228Z" transform="translate(-42.9257 -40.896)"/><path d="M362.6084,1795.95c8.5859-8.7363,20.0742-9.0137,28.9893-.252s8.8378,20.253.2514,28.99l-89.894,91.4668,48.854,48.0136c8.38,8.2364,10.95,19.1739,3.0644,27.1973s-18.8662,5.6436-27.2465-2.5918l-60.9781-59.93c-10.3413-10.1631-13.0864-20.9228-.2944-33.9385Z" transform="translate(-42.9257 -40.896)"/><path d="M456.8521,1896.9951c10.58-14.87,21.6538-14.0478,33.4687-5.6426l44.4077,31.5948c24.4448,17.3916,49.6611,43.6162,26.6177,76.0048-8.84,12.4258-23.9688,19.4581-41.7334,15.1036l-.29.4072c12.583,15.0889,14.9423,33.335.5942,53.5019-21.8838,30.76-55.9253,25.5625-84.8516,4.9834l-49.0927-34.9277c-11.815-8.4062-16.2222-18.5986-5.6426-33.4687ZM418.0854,2022.209l28.1114,20c13.0371,9.2754,29.5879,17.0615,41.6172.1543,12.6084-17.7227-1.2788-30.9776-17.5752-42.5723L446.2017,1982.69Zm43.189-60.7041,27.5,19.5654c15.6851,11.1592,27.7149,10.2061,35.9761-1.4043,10-14.0556.9385-26.332-11.4873-35.1728l-26.482-18.8409Z" transform="translate(-42.9257 -40.896)"/><path d="M594.1377,1991.5986c7.93-16.4365,18.9839-17.4873,32.043-11.1875l86.6865,41.8213c10.8076,5.2149,17.167,12.169,11.5185,23.877s-15.05,11.0586-25.8574,5.8447l-71.3755-34.4355-16.9458,35.125,62.5943,30.1982c9.6816,4.6709,16.0337,11.0664,10.4936,22.55s-14.499,10.4912-24.1806,5.82L596.52,2081.0137l-18.9013,39.1777,73.1767,35.3037c10.8076,5.2139,17.1675,12.168,11.5186,23.877s-15.05,11.0586-25.8575,5.8437l-88.4873-42.69c-13.059-6.3-19.1167-15.6065-11.187-32.043Z" transform="translate(-42.9257 -40.896)"/><path d="M734.1245,2057.6582c5.0068-17.55,15.72-20.4727,29.6631-16.4941l65.6294,18.7246c46.8789,13.374,52.04,42.664,45.6621,65.0215-5.35,18.7509-21.69,34.1074-41.6758,33.0839l-.1372.4815c19.3706,8.6465,18.793,24.34,13.7861,41.8887-5.6928,19.9531-2.53,28.915-4.8623,37.0888-2.6064,9.1348-13.7656,12.711-22.9008,10.1045-21.6363-6.1728-17.3516-27.5683-15.3628-34.54,8.6421-30.291,6.6108-44.1289-15.0254-50.3018l-38.9448-11.1113-14.4722,50.7246c-3.3609,11.78-13.3174,17.5186-25.3374,14.0889s-17.4492-13.5576-14.0889-25.3369Zm24.062,65.0986,39.4258,11.2481c14.9053,4.2519,30.9072,4.6582,36.4629-14.8145,5.2817-18.5107-4.6455-26.542-21.9546-31.48l-40.6279-11.5918Z" transform="translate(-42.9257 -40.896)"/><path d="M900.4189,2102.123c1.9185-18.1484,11.97-22.8681,26.39-21.3447l95.7153,10.1162c11.9331,1.2617,20.2666,5.6612,18.9,18.59s-10.4355,15.4883-22.3691,14.2265l-78.81-8.3291-4.0991,38.7832,69.1142,7.3047c10.69,1.13,18.8277,5.0069,17.4873,17.6865s-10.1079,14.7686-20.7983,13.6387l-69.1138-7.3047-4.5722,43.2588,80.7988,8.5391c11.9336,1.2617,20.2671,5.6621,18.9,18.59s-10.4356,15.4883-22.3687,14.2276L907.89,2259.7783c-14.4194-1.5234-23.2622-8.24-21.3437-26.3887Z" transform="translate(-42.9257 -40.896)"/><path d="M1054.5059,2117.2363c-1.1944-18.2109,7.9091-24.57,22.3779-25.5185l49.8935-3.2715c44.6543-2.9277,86.8428,13.8476,91.4551,84.1973,3.7295,56.8779-25.7929,91.8847-80.4258,95.4668l-49.1455,3.2226c-14.4687.9492-24.3247-4.167-25.5185-22.3789Zm48.96,120.0547,34.4268-2.2568c32.68-2.1436,41.2431-32.0176,39.4277-59.708-2.3223-35.4248-17.2-55.9951-47.1367-54.0323l-34.1768,2.2413Z" transform="translate(-42.9257 -40.896)"/><path d="M1228.751,2100.7109c-4.252-16.4589,1.9844-25.3,18.9277-29.6767,8.2305-2.126,16.3047-.8555,22.5371,5.28l98.42,94.123.4844-.125-26.7-103.3555c-3.3144-12.8291,2.3213-20.998,14.1817-24.0615s20.748,1.3525,24.0615,14.1816l35.33,136.7579c4.0644,15.7334-.3994,26.44-17.1006,30.7548-12.5869,3.252-17.39,1.6524-24.5362-5.0224l-97.123-91.1016-.4844.125,25.95,100.4512c3.3145,12.8291-2.3213,20.998-14.1816,24.0615s-20.7481-1.3525-24.0615-14.1816Z" transform="translate(-42.9257 -40.896)"/><path d="M1400.8086,2047.2559c-4.5693-11.3663-.2236-22.0049,11.375-26.667s22.0976.0088,26.667,11.375l54.27,135.0029c4.5694,11.3662.2237,22.0049-11.375,26.667s-22.0976-.0078-26.667-11.374Z" transform="translate(-42.9257 -40.896)"/><path d="M1461.8447,2028.9844c-8.3105-14.8311-4.5361-24.9707,10.73-33.5264,7.415-4.1553,15.5469-4.9873,23.14-.6445l119.1817,65.8994.4365-.2441-52.1894-93.126c-6.4776-11.5586-3.1124-20.8965,7.5742-26.8848s20.4072-3.9853,26.8847,7.5732l69.0557,123.2237c7.9453,14.1758,6.36,25.667-8.6875,34.1006-11.3418,6.3554-16.3936,6.0341-25.0068,1.4043l-117.1573-63.3086-.4355.2441,50.7217,90.5088c6.4785,11.56,3.1133,20.8965-7.5733,26.8857s-20.4072,3.9844-26.8847-7.5742Z" transform="translate(-42.9257 -40.896)"/><path d="M1841.543,1944.8906a13.6139,13.6139,0,0,1-1.7823,19.543c-8.9609,7.6-16.1289,4.1728-28.3857-6.4121.58,18.85-5.667,36.6064-25.1143,53.1006-48.4277,41.0752-95.2207,23.3965-127.8867-15.1172-39.2969-46.33-31.9863-96.458,10.5313-132.52,34.6992-29.4317,70.82-24.336,81.17-12.1338,9.2178,10.8672,3.6357,20.52-3.0371,26.18-15.4434,13.0986-27.9981-13.2979-58.5029,12.5761-21.544,18.2745-26.5459,46.7754,2.8857,81.4747,22.9629,27.0742,52.1572,34.4384,77.7051,12.7685,16.5869-14.0684,21.5361-37.6074,8.831-55.6787l-20.4,17.3027c-6.6738,5.66-16.2109,9.4883-24.2968-.0449-6.4688-7.626-5.8028-15.73,2.0146-22.3613l38.5127-32.666c9.1514-7.7618,16.6553-6.2588,23.9326,2.3213Z" transform="translate(-42.9257 -40.896)"/><path d="M1761.5049,1817.3c-14.0879-11.6-12.4883-22.5879-3.2715-33.7812l61.1777-74.3028c7.628-9.2637,15.8916-13.7939,25.9268-5.5312s7.1758,17.2431-.4512,26.5068l-50.373,61.1787,30.1064,24.7891,44.1758-53.6524c6.833-8.2988,14.5518-12.9531,24.3945-4.85s6.7559,16.5733-.0771,24.8721l-44.1758,53.6523,33.5811,27.65,51.6435-62.7227c7.6279-9.2637,15.8916-13.7939,25.9268-5.5313s7.1757,17.2422-.4512,26.5059l-62.4492,75.8467c-9.2168,11.1933-19.6944,14.8721-33.7832,3.2724Z" transform="translate(-42.9257 -40.896)"/><path d="M1856.6152,1695.3115c-14.8134-8.3388-16.8662-18.9619-8.2822-34.2119,4.17-7.4062,10.6816-12.3476,19.4238-12.59l136.0606-5.7432.2461-.4355-93.0225-52.3653c-11.5459-6.499-13.5312-16.2236-7.5215-26.8984s15.3516-14.0215,26.8975-7.5215l123.0859,69.2881c14.16,7.9717,18.7862,18.6094,10.3252,33.6406-6.3779,11.3281-10.8584,13.6826-20.623,14.2109l-132.9834,6.9014-.2451.4356,90.4072,50.8935c11.5469,6.499,13.5312,16.2236,7.5224,26.8985s-15.3525,14.0214-26.8984,7.5214Z" transform="translate(-42.9257 -40.896)"/><path d="M297.8525,376.5034c-12.7163-15.06-8.8833-26.4243,3.0821-36.5273l41.26-34.8389c36.9278-31.1807,84.3477-43.6572,133.4707,14.519,39.7159,47.0362,36.51,96.39-8.67,134.5386l-40.6406,34.3164c-11.9653,10.1031-23.811,11.9781-36.5274-3.082Zm119.5367,72.9312,28.4692-24.0391c27.0254-22.8193,15.3091-54.2725-4.0264-77.1714-24.7358-29.2944-50.8564-37.63-75.6123-16.7265l-28.2632,23.8647Z" transform="translate(-42.9257 -40.896)"/><path d="M562.9048,273.521c10.4263-6.2378,21.2622-7.0581,28.332,4.7578s1.2246,20.9775-9.2016,27.2153l-38.2286,22.8736c-10.4262,6.2383-21.2622,7.0581-28.332-4.7578s-1.2246-20.9771,9.2017-27.2154Z" transform="translate(-42.9257 -40.896)"/><path d="M635.4365,179.6484c27.4737-11.9746,59.9419-13.1665,67.17,3.417,3.668,8.4151,1.2115,18.3218-8.1938,22.4214-14.1084,6.1489-21.8315-10.2187-44.6025-.2934-12.6231,5.5019-19.2808,12.5268-15.9366,20.2,3.668,8.4155,12.6988,6.8354,24.9156,4.456l16.6088-3.1152c22.5933-4.2515,50.8726-6.2686,61.8765,18.9775,12.8379,29.4541-9.6929,55.4737-36.9194,67.34-32.6714,14.24-66.2627,11.5039-74.03-6.3174-3.4521-7.92-2.1255-17.04,8.0225-21.4629,15.5932-6.7964,26.7876,14.8325,53.519,3.1811,12.8706-5.6093,18.5576-14.8623,15.3213-22.2876-3.9917-9.1582-12.56-7.1909-26.8325-4.7988l-23.5518,4.08c-23.3037,3.9722-43.4155,2.4292-53.9878-21.8271C585.9775,214.1646,610.4375,190.5444,635.4365,179.6484Z" transform="translate(-42.9257 -40.896)"/><path d="M783.0552,211.4648c5.2661,20.1123,22.1557,31.32,44.3579,25.5069,28.7319-7.5225,23.8076-26.3291,39.2187-30.3643,9.1421-2.3935,17.7237,3.7329,19.57,10.7852,6.0181,22.9858-28.0068,43.3379-50.9926,49.3559-53.2847,13.9517-82.835-16.8276-91.5205-50-11.6265-44.4038,7.4809-81.2246,52.6684-93.0561,43.8819-11.49,77.0952,13.0278,85.3018,44.3721,3.42,13.06.3906,17.4814-12.4082,20.8325Zm61.1225-39.4482c-6.6718-16.9536-23.083-26.333-40.061-21.8877-19.0674,4.9927-27.4829,19.7559-26.8062,39.3955Z" transform="translate(-42.9257 -40.896)"/><path d="M898.38,67.0527c-1.3008-12.8945,5.812-20.396,17.6318-21.5883S936.2993,50.2017,937.6,63.0962l8.9971,89.1855,38.64-52.7436c3.5962-4.7046,8.375-8.4434,14.2847-9.04,8.8647-.894,19.3213,5.92,20.3242,15.86.7046,6.9844-1.4966,9.3774-4.6094,13.4907l-25.95,33.2818,46.36,50.6816a21.514,21.514,0,0,1,5.3027,12.2192c1.0029,9.94-6.1348,19.8858-16.6113,20.9429-9.67.9756-15.2622-3.3452-18.6509-7.3452l-42.3555-48.6431-12.4809,13.47,3.0083,29.8184c1.3007,12.894-5.812,20.396-17.6319,21.5884S915.94,241.1255,914.64,228.2314Z" transform="translate(-42.9257 -40.896)"/><path d="M1065.1357,118.3628l-6.7485-.1411c-11.0679-.2315-15.5664-4.6465-15.3857-13.2847s4.86-12.8613,15.9277-12.63l6.7485.1411.5025-24.0249c.271-12.9575,8.2407-19.5424,20.1177-19.2939s19.5654,7.1606,19.2939,20.1182l-.502,24.0249,11.877.2485c11.6074.2427,17.7432,3.8818,17.5459,13.33s-6.48,12.8276-18.0879,12.5849l-11.8769-.2485-1.6485,78.8233c-.125,5.9389,3.0469,9.246,10.0654,9.3925l5.669.1187c8.6377.1806,13.665,5.147,13.49,13.5151-.2373,11.3379-10.0849,17.3433-28.98,16.9478-28.6143-.5982-40.2437-12.7241-39.7579-35.9395Z" transform="translate(-42.9257 -40.896)"/><path d="M1157.2246,112.5542c1.0879-10.4736,6.334-19.1577,21.6416-17.5669s18.6553,11.168,17.5674,21.6416l-11.2471,108.2275c-1.0888,10.4737-6.3349,19.1582-21.6426,17.5674s-18.6552-11.1684-17.5664-21.6421Zm27.251-71.5464a20.52,20.52,0,1,1-22.5313,18.2891A20.511,20.511,0,0,1,1184.4756,41.0078Z" transform="translate(-42.9257 -40.896)"/><path d="M1303.6211,115.45c46.3545,10.4521,63.9863,47.6406,54.8408,88.2017-8.6709,38.4536-35.0312,68.2133-87.4443,56.3955s-63.4522-50.0113-54.7822-88.4649C1225.3809,131.0215,1257.2656,104.998,1303.6211,115.45Zm-26.19,116.1519c22.915,5.1665,37.292-13.18,42.5771-36.6211,5.6416-25.021-.4131-46.0376-22.8008-51.0855s-36.8759,11.3364-42.5175,36.3574C1249.4043,203.6938,1254.5166,226.4351,1277.4307,231.6021Z" transform="translate(-42.9257 -40.896)"/><path d="M1403.7949,161.7676c4.5039-10.9932,12.4688-16.1919,23.9619-11.4834s13.5215,14.001,9.0176,24.9941l-1.9443,4.7471.5.2051c15.7705-9.2954,32.9023-13.3648,53.64-4.8692,21.9864,9.0074,41.4678,29.8267,26.3194,66.8042L1486.22,313.1221c-3.9912,9.7441-11.4687,16.6015-25.7109,10.7671s-14.7588-15.9668-10.7666-25.711l26.1006-63.7109c6.039-14.7412,3.0927-28.2031-12.6475-34.6514a30.6117,30.6117,0,0,0-39.5039,17.3711L1399.0234,277.4c-3.9922,9.7441-11.47,16.6011-25.7109,10.7671s-14.7588-15.9668-10.7666-25.7109Z" transform="translate(-42.9257 -40.896)"/><path d="M1559.3105,300.9663c-10.9472,17.6743-7.4326,37.6377,12.0782,49.7232,25.249,15.64,35.4863-.8868,49.0283,7.5019,8.0342,4.9761,9.5078,15.417,5.668,21.6143-12.5118,20.2-50.7061,9.563-70.9053-2.9488-46.8252-29.0053-44.8789-71.6294-26.8223-100.7807,24.1709-39.0215,64.0225-50.544,103.7324-25.9468,38.5625,23.8867,43.6788,64.8511,26.6163,92.3955-7.1084,11.4771-12.4,12.3281-23.6475,5.3613Zm70.7051,17.1172c7.6905-16.5161,3.1807-34.8726-11.74-44.1147-16.7559-10.379-33.2539-6.3057-47.0215,7.7163Z" transform="translate(-42.9257 -40.896)"/><path d="M1709.7246,325.3438c7.8281-8.9366,17.05-11.2676,26.3926-3.0835s8.2441,17.6323.416,26.5683l-3.3809,3.8589.4063.356c17.9346-3.6724,35.46-1.96,52.3164,12.8066,17.8721,15.6567,29.541,41.6728,3.209,71.731L1738.5557,495.26c-6.9385,7.9209-16.2373,11.98-27.8135,1.8379s-8.7774-19.8931-1.8379-27.814l45.3682-51.7891c10.497-11.9824,12.08-25.6718-.7149-36.8808a30.6125,30.6125,0,0,0-43.0039,3.6069l-42.8779,48.9458c-6.9385,7.9209-16.2373,11.98-27.8145,1.8379s-8.7763-19.8931-1.8379-27.814Z" transform="translate(-42.9257 -40.896)"/></g><g id="black_circle" data-name="black circle"><path d="M1066.9678,380.45A776.715,776.715,0,0,1,1503.38,513.7345a783.0558,783.0558,0,0,1,282.883,343.4983,779.5181,779.5181,0,0,1-71.9625,740.2471,783.0562,783.0562,0,0,1-343.4983,282.8832,779.5177,779.5177,0,0,1-740.2471-71.9625A783.057,783.057,0,0,1,347.6721,1464.902a779.5181,779.5181,0,0,1,71.9625-740.2471A783.0593,783.0593,0,0,1,763.1331,441.772,775.68,775.68,0,0,1,1066.9678,380.45m0-55c-461.4989,0-835.6179,374.1185-835.6179,835.6174s374.119,835.6178,835.6179,835.6178,835.6174-374.1189,835.6174-835.6178S1528.4667,325.45,1066.9678,325.45Z" transform="translate(-42.9257 -40.896)"/></g><g id="arcs"><path id="arc_base" data-name="arc base" class="cls-3" d="M121.0529,1475.519a995.5445,995.5445,0,0,1-50.6272-314.4516c0-235.31,81.5571-451.5717,217.9461-622.0594" transform="translate(-42.9257 -40.896)"/><path id="arc_base-2" data-name="arc base" class="cls-3" d="M1845.5642,539.0085C1981.9529,709.4961,2063.51,925.7574,2063.51,1161.0674a995.5426,995.5426,0,0,1-50.6273,314.4519" transform="translate(-42.9257 -40.896)"/></g></g></g></g></svg>