<svg xmlns="http://www.w3.org/2000/svg" viewBox="0 0 1299.4312 868.6319"><g id="Layer_2" data-name="Layer 2"><g id="inner"><g id="silhouette"><g id="whale"><g id="belly"><path id="back" d="M950.1042,512.4617a4.1264,4.1264,0,0,1,3.6,7.0786c-40.2409,37.0851-89.6392,76.6554-151.6127,107.8978-.1861-.3341-.3752-.6787-.5642-1.0233-14.4777-26.6961-32.0816-59.7428-46.0233-86.9556C819.1449,535.6537,894.8241,523.2978,950.1042,512.4617Z"/><path id="front" d="M569.5216,684.8854C314.4963,687.6611,146.8179,476.7833,77.2925,358.0143c-.0225-.039-.0586-.0856-.084-.1353-1.4617-2.4984-2.8874-4.95-4.2559-7.3611a.04.04,0,0,0-.02-.0286c-4.9775-8.7379-9.3812-16.8992-13.21-24.3589-7.5139-14.6287-14.0736-27.9379-19.801-40.0618-3.7756-7.9923,5.9668-15.52,12.73-9.8287,45.4236,38.2222,94.9679,78.0891,148.31,113.8687C283.9313,445.751,363.5392,483.09,444.4246,504.2657l.0722.0136C467.0971,548.9726,522.3107,623.9354,569.5216,684.8854Z"/></g><g id="body"><path id="fin" d="M277.7506,613.9829c5.3536,65.4688,24.5028,154.7752,82.2584,235.6339,17.0863,29.7,46.1992,25.7424,54.8182-19.9082,2.7206-14.41,13.3371-75.5771,23.494-138.1327C378.2366,674.5556,324.7132,646.797,277.7506,613.9829Z"/><path id="top" d="M1297.7835,259.1965C1311.9387,354.531,1234.27,385.256,1088.7,405.0447c-17.43,2.377-37.7621,19.6073-63.2814,44.47a156.8311,156.8311,0,0,1-79.1923,41.4488c-68.3612,13.4586-160.0755,27.554-225.5373,27.7762,15.4,32.1023,45.0223,87.559,61.6291,118.18,56.9662,103.2628,107.8371,186.2105,91.24,196.496-25.6979,15.9468-110.73,5.568-205.9514-71.0288-23.9857-19.3029-48.2478-47.3032-71.1717-78.5639-49.1621-62.9675-117.7977-154.91-136.5948-198.317-3.3452-.836-6.5836-1.577-9.9377-2.4444C279.8074,438.5338,146.4782,327.8143,33.1465,230.9541A94.7432,94.7432,0,0,1,.0137,161.9377l-.0085-.2664c-.5545-17.1213,43.4131-29.6237,75.3493-8.461,24.4873,16.2235,152.4251,43.9511,237.9241,61.9373,87.3047,18.3719,172.692,64.1863,269.3163,65.9756,99.8831,1.8416,104.9834,34.9493,101.5359,53.2084,0,0,210.49,75.9419,273.9382,21.4641,45.1316-38.7517-26.7307-78.7936,25.8868-167.1966,20.532,11.44,62.1507,51.4428,95.7761,93.718C1155.1176,243.6019,1255.5084,292.822,1297.7835,259.1965Z"/></g></g><g id="bubbles"><g id="bottom"><circle cx="525.816" cy="169.9629" r="18.2236"/></g><g id="middle"><circle cx="471.6721" cy="90.9896" r="35.9203"/></g><g id="top-2" data-name="top"><circle cx="540.3692" cy="25.2766" r="25.2766"/></g></g></g></g></g></svg>