<?xml version="1.0" encoding="utf-8"?>
<!-- Generator: Adobe Illustrator 26.0.2, SVG Export Plug-In . SVG Version: 6.00 Build 0)  -->
<svg version="1.1"
	 id="svg2" xmlns:inkscape="http://www.inkscape.org/namespaces/inkscape" xmlns:sodipodi="http://sodipodi.sourceforge.net/DTD/sodipodi-0.dtd" xmlns:svg="http://www.w3.org/2000/svg"
	 xmlns="http://www.w3.org/2000/svg" xmlns:xlink="http://www.w3.org/1999/xlink" x="0px" y="0px" viewBox="0 0 559.3 559.3"
	 style="enable-background:new 0 0 559.3 559.3;" xml:space="preserve">
<style type="text/css">
	.st0{fill:none;stroke:#000000;stroke-width:7.5591;stroke-miterlimit:10;}
</style>
<sodipodi:namedview  bordercolor="#666666" borderopacity="1.0" id="namedview4" inkscape:pagecheckerboard="0" inkscape:pageopacity="0.0" inkscape:pageshadow="2" pagecolor="#ffffff">
	</sodipodi:namedview>
<g id="g8" transform="matrix(1.3333333,0,0,-1.3333333,0,559.32)" inkscape:groupmode="layer" inkscape:label="ink_ext_XXXXXX">
	<g id="g10" transform="scale(0.1)">
		<path id="path12" d="M1925.5,1158c-65.5,14.2-129.8,34.2-193.1,60.1c-69.4,33.7-126.4,65-171.1,93.8
			c-44.7,28.8-85.9,61.6-123.7,98.5c-37.8,36.9-72,78.2-102.6,123.8c-30.6,45.6-63.4,101.6-98.4,167.9c-26.9,60-47.4,122-61.4,186.1
			s-21.1,130.8-21.1,200.3c0,88.8,11.1,176,33.3,261.7c22.2,85.7,54.6,165.4,97.2,239.2c40.1,63.8,85.1,121.2,135.2,172.6
			c50.1,51.3,104.7,96.6,163.8,136c59.1,39.4,124.4,72.7,195.8,99.9c71.4,27.2,144.9,46.1,220.7,56.8c67.6,3.7,135.5,5.6,203.8,5.6
			c63.2,0,131.4-1.4,204.7-4.2c73.2-2.8,151.3-6.7,234.2-11.7s154.6-8.7,215.1-11.2c60.4-2.5,121.3-3.7,182.7-3.7
			c-0.6-1.3-1.4-3-2.4-5.2c-0.9-2.2-1.4-4.9-1.4-7.9c-58.3-93.2-107.9-199.1-148.9-317.6c-41-118.5-79.7-253.5-116-404.9
			c-33.2,83.9-67.5,156.8-102.9,218.9c-35.4,62-78.8,120.6-130.1,175.7c-26.3,24.4-58.1,43.4-95.4,56.9
			c-37.3,13.4-76.9,20.8-118.8,22.1c-33.9,0-65.8-4.7-95.8-14.1c-58.9-21.9-116.7-62.5-173.3-121.6
			c-56.7-59.2-102.9-122.3-138.5-189.3c-55.1-100.2-82.7-211.4-82.7-333.5c0-69.5,9.8-138.7,29.6-207.6
			c19.7-68.9,48.4-131.8,86-188.8c118.3-174.1,269.6-277.8,453.7-311c10.6-1.2,25.6-1.8,45.1-1.8c83.3,0,159.1,20.2,227.3,60.6
			c68.2,40.4,146.2,98.1,233.9,173.3c-8.2-21.3-17.2-41.4-27.2-60.2c-10.1-18.8-21.6-38.9-34.8-60.2c-13.1-21.3-25.1-41.4-35.7-60.2
			c-68.3-110.4-163.1-190.9-284.3-241.7c-121.2-50.8-257-76.2-407.4-76.2C2056,1136,1991,1143.8,1925.5,1158L1925.5,1158z
			 M2289.7,1169.4c61,8.5,119.9,22.4,176.6,41.9c56.6,19.4,109.4,45.3,158.2,77.6c48.8,32.3,91.4,72.2,127.8,119.9
			c23.2,24.4,48.9,64.2,77,119.4c-60.1-45.1-122.5-82.1-186.9-111c-64.5-28.8-131.8-43.2-201.9-43.2c-88.9,0-173.5,25.7-253.6,77
			c-96.5,58.9-175.7,132.9-237.7,222.2c-62,89.2-104.6,192.1-127.7,308.6c-6.3,42.6-9.4,81.7-9.4,117.4c0,68.2,9.4,137.6,28.2,208.1
			c18.8,70.5,44.9,135.1,78.4,194c33.5,58.9,72.2,108.4,116,148.5c41.3,42.5,87.4,77.4,138.1,104.6c50.7,27.2,102.1,40.9,154.1,40.9
			c21.9,0,42.5-2.5,62-7.4c45.1-16.3,81.5-31.8,109.4-46.5c27.9-14.7,53.7-34.9,77.5-60.6c79.5-92.7,144.3-199.2,194.4-319.4
			c23.8,115.8,55.3,228.9,94.4,339.3c39.1,110.4,83.8,210.7,133.9,300.9c-53.9,0.6-108.5,2.6-163.6,6c-55.2,3.4-119.3,8-192.3,13.9
			c-73.1,5.9-142.8,11-209.3,15.3c-66.5,4.3-129.2,6.5-188.1,6.5c-74.6,0-145.3-3.8-212.1-11.3c-66.8-7.5-132.5-20.7-197.1-39.4
			c-64.6-18.8-127.6-45.1-189-78.9c-218.8-142.1-362.4-320.1-430.9-534.1c-28.1-85.2-42.1-175.6-42.1-271.4
			c0-115.8,20.6-229.4,61.8-340.8c41.2-111.4,96.5-206.6,165.9-285.4c18.1-18.2,33.9-34.3,47.4-48.4c13.4-14.1,26.6-27.1,39.4-39
			c12.8-11.9,23.7-20.7,32.4-26.3c48.8-40.7,105.2-76.3,169-106.7c63.9-30.4,130.2-54.2,199.1-71.5c68.9-17.2,139.3-28.4,211.3-33.3
			C2165.5,1156.7,2228.6,1160.9,2289.7,1169.4L2289.7,1169.4z M1576.6,1426.7c-59.1,51.6-111.6,110.9-157.5,177.6
			c-46,66.7-83.1,138.7-111.6,216.1c-28.4,77.3-45.5,157.4-51.1,240.1c0,77,7.8,150,23.5,218.9c15.6,68.9,39.2,135,70.9,198.2
			c31.6,63.2,68.2,120.1,109.9,170.6c41.6,50.4,90,96.9,145.1,139.5c83.9,65.1,178.6,110.7,284.1,136.7c105.4,26,221.8,39,348.9,39
			c56.9,0,109.4-1.4,157.3-4.3c47.9-2.8,100.2-6.6,156.8-11.2c56.6-4.7,119.7-9.7,189.2-15c69.5-5.3,120.5-8.6,153.1-9.8
			l-139.1-379.5c-30.1,52-63.9,102.1-101.5,150.3s-80.4,92.2-128.3,132c-47.9,39.8-97.6,69.4-149,88.8c-16.9,5.6-35.1,8.4-54.5,8.4
			c-40.7,0-78.8-9.6-114.2-28.7c-35.4-19.1-77.6-45.6-126.4-79.3c-39.5-38.2-69.7-68.1-90.7-89.8c-21-21.6-42.8-48.1-65.3-79.4
			c-61.4-70.2-110.5-154.7-147.1-253.6c-36.7-99-55-199.2-55-300.6c0-63.9,7.2-123.7,21.6-179.4c30.1-119,82.7-226,157.9-320.8
			c75.2-94.9,165.7-173,271.7-234.4c69.5-36.4,142.5-54.6,219-54.6c65.1,0,125,12.2,179.5,36.7c-26.3-29.6-68-53.4-125-71.6
			c-57-18.2-113.4-31.6-169.2-40.2c-55.8-8.6-92.4-12.9-109.9-12.9c-43.2,0.6-86.6,4.7-130.2,12.3c-43.6,7.6-80.7,15.7-111.4,24.2
			c-30.7,8.5-83.6,24.4-158.8,47.5C1700,1332.2,1635.7,1375,1576.6,1426.7L1576.6,1426.7z M1384.3,1946.1
			c-21.4,23.2-37.8,51.7-48.9,85.5c-5,24.4-7.5,50.7-7.5,78.9c0,81.4,22.2,157.2,66.7,227.4l-13.6,63.9
			c-36.7-32.6-63.5-74.4-80.2-125.4c-16.8-51.1-25.2-107.6-25.2-169.6c0-37.6,3.1-76.7,9.3-117.4c13.7-35.1,33.4-64.2,59.2-87.3
			c25.8-23.2,59.6-45.4,101.2-66.7c5.6,3.1,9.3,5.8,11.2,7.9c1.8,2.2,3.3,5.5,4.2,9.9c0.9,4.4,3,12.8,6.1,25.3
			C1433.3,1900.3,1405.8,1922.9,1384.3,1946.1z M1696.4,1497.1c0,5.6-3.7,14.7-11.1,27.2c-7.4,12.5-11.1,18.1-11.1,16.9
			c-102.5,11.2-179.4,63.2-230.7,155.9c-6.2,10-10.6,23.2-13.1,39.4c-2.5,16.3-4.8,31.9-7,47c-2.2,15-6.7,26.6-13.5,34.8
			c-11.1,5-19.5,7.5-25.1,7.5c-6.8,0-13.9-2.5-21.3-7.5c0-31.3,4.5-60.4,13.5-87.4c9-26.9,20.8-52.6,35.3-77.1
			c14.6-24.4,30.2-47.9,47-70.4c61.4-57.6,135.6-90.1,222.7-97.6C1691.7,1485.8,1696.4,1489.6,1696.4,1497.1L1696.4,1497.1z
			 M1512.6,2149.5c0,5.2-2.5,10.7-7.5,16.5c-3.7,3.6-7.5,5.5-11.2,5.5c-2.5,0-8.1-0.9-16.8-2.8c-8.7-1.9-17.1-2.8-25.2-2.8
			c-1.9,7.5-2.8,13.2-2.8,17c0,18.8,13.3,45.2,39.8,79.1c40.1,44.6,70.2,82.4,90.3,113.5c20.1,31.1,32.9,68,38.5,110.7
			c-4.4,6.2-12.8,9.4-25.1,9.4c-13.7,0-32.6-3.3-56.8-9.9c-24.2-6.6-38.8-9.8-43.7-9.8c-3.8-5.7-5.6-11.9-5.6-18.8
			c0.6-3.8,1.8-8.5,3.7-14.1c1.8-5.7,3.7-11.3,5.6-16.9c5.6,2.5,12.6,5.5,21,8.9c8.4,3.4,16,5.8,22.9,7.1c8.2,0,13-4.7,14.2-14.1
			c-15.5-25.7-38-57.1-67.6-94.4c-29.6-37.3-52.3-70.3-68-99.1c-15.7-28.8-23.6-61.7-23.6-98.6c0-20.7,2.3-40.7,7-60.1
			c1.2,0.6,2.6,1.1,4.2,1.4c1.6,0.3,3,0.8,4.2,1.4L1512.6,2149.5z M1457.6,2445.8c0,41.9,10.3,87.4,30.8,136.3
			c6.8,20,22.4,42.4,46.6,67.1c24.2,24.7,47.6,48.8,70,72.3s36.4,45.6,42,66.2c-48.5-28.8-93.6-64.5-135.3-107
			c-41.7-42.6-70.6-87.7-86.7-135.2c-5.8-21.9-8.7-48.3-8.7-78.9c0-32,5.4-69.8,16.1-113.6c0-12.6,3.1-18.8,9.3-18.8
			c4.3,0,10.3,3.7,17.8,11.3c7.5,7.5,11.8,14.1,13.1,19.7C1462.5,2391.3,1457.6,2418.2,1457.6,2445.8L1457.6,2445.8z M1606.5,1722.5
			c-1.2,5-2.8,8.4-4.6,10.3c-1.8,1.9-5.1,3.8-9.7,5.7c-4.6,1.9-10,4.1-16.2,6.6c-7.5-21.9-17.1-32.9-28.9-32.9
			c-2.5,0-6.2,1.2-11.2,3.7c-14.3,4.4-21.4,25.1-21.4,62c38.2,80.1,57.2,148.1,57.2,203.8c0,40.1-10.1,77.4-30.4,111.8
			c-7.4,7.5-11.7,11.9-12.9,13.1c-17.9-10.1-32.4-22.1-43.5-36.2c-11.1-14.1-21.2-29.8-30.1-47c-8.9-17.2-19.9-38.1-32.9-62.5
			l21.7-25.3c9.3,5.6,19.1,16.8,29.4,33.3c10.2,16.6,19.7,28,28.5,34.3c5.9,0,10.3-4.4,13.2-13.2c2.9-8.8,4.4-18.5,4.4-29.1
			c-3.7-13.8-10.9-36.5-21.5-68.1c-10.7-31.6-18.1-55.8-22.4-72.3c-4.3-16.6-6.4-34-6.4-52.1c0-39.4,15.2-70.5,45.7-93
			c15.6-12.6,27-19.4,34.5-20.7C1574.3,1658,1593.5,1680.5,1606.5,1722.5L1606.5,1722.5z M1690.9,1963.2
			c0,50.2-10.8,99.4-32.3,147.7c-15.6,30.8-36.2,59.3-61.8,85.6c-25.6,26.3-51.2,43.3-76.7,51c-4.4-1.3-10-8.5-16.8-21.6
			c26.1-27.6,49.9-54.4,71.4-80.4c21.4-26,38.8-53.4,52.2-82.2c13.4-28.8,20.1-58.6,20.1-89.3c0-23.2-5.9-50.1-17.7-80.8
			c-1.3-5.7-4.8-13.2-10.4-22.6c-5.7-9.4-8.5-16.6-8.5-21.6c0-3.8,1.3-6.9,4-9.4c8.9-5,15.8-9.9,20.6-14.6c4.8-4.7,7.5-7.1,8.2-7.1
			c1.3,0,4.8,1.8,10.5,5.6C1678.5,1864.1,1690.9,1910.6,1690.9,1963.2L1690.9,1963.2z M1631.1,2539.8c5,0,9.5,4.5,13.6,13.6
			c4.1,9.1,6.1,18.6,6.1,28.7c-3.2,0-10.9,1.7-23.1,5.1c-12.3,3.4-21.5,6.1-27.8,8c22.7,25,64.5,50.4,125.6,76.1
			c61.1,25.7,104,45.4,128.9,59.2c24.8,13.8,47.1,38.8,66.6,75.1c-8.2,10-20.4,15-36.7,15c-14.4,0-37.3-5.6-68.6-16.9
			c3.7,0,8.6-2.2,14.6-6.6c5.9-4.4,10.5-8.2,13.6-11.3c0-11.3-2.5-18.2-7.6-20.7c-22.1-13.1-60.5-29-115.2-47.4
			c-54.8-18.5-97.1-36.2-127-53.1c-29.9-16.9-52.1-42-66.6-75.1c0-13.8,1.7-23.3,5.2-28.7c3.4-5.3,9.4-9.6,17.9-12.7
			c8.5-3.1,14.9-5.9,19.3-8.4H1631.1z M1823.1,1640.8c-18.3,22.5-44.1,49.8-77.4,81.7c-13.8,8.8-33.2,22.2-58,40.4
			c-24.8,18.1-44.1,31.6-58,40.4c-13.8,8.8-31.7,16.3-53.7,22.6c-5.9-5.7-10.2-13.8-12.8-24.4c15.7-13.8,45.3-34.8,88.8-62.9
			c43.4-28.2,78.7-54.1,105.8-77.5c27.1-23.4,48.2-52.4,63.3-86.9c6.3,0,11.5-0.2,15.6-0.5c4.1-0.3,8.6-0.8,13.7-1.4
			C1850.5,1595.4,1841.3,1618.2,1823.1,1640.8z M1687.1,2313.9c18.9,31.6,35.3,69.6,49.2,114.1c8.8,62.6,13.3,103,13.3,121.2
			c0,31.9-5.1,59.5-15.2,82.7c-1.9,3.8-5.4,5.7-10.4,5.7c-3.1,0-8.6-1.3-16.6-3.8c-8-2.5-14.1-3.7-18.4-3.7c1.3-13.8,2-36.6,2-68.6
			c0-60.2-7.3-114.5-21.9-163c-14.6-48.6-39.4-87.2-74.3-116c-3.9-6.9-9.6-14.1-17.3-21.6c1.9-3.8,5.4-7.7,10.4-11.8
			s11.4-9.9,19-17.4h7.4C1643.9,2254.8,1668.2,2282.2,1687.1,2313.9L1687.1,2313.9z M1928.8,1396.5c-14.2,11.3-23.1,19.1-26.9,23.5
			c-11.3-6.3-24.8-9.4-40.6-9.4c-25.8,0-48,12.3-66.6,37.1c-18.6,24.8-37.9,60.3-58.1,106.7c-20.2,46.3-37.2,81.7-51,106.1
			c-13.8,24.4-30.2,36.7-49.1,36.7c-22-15.7-32.9-40.1-32.9-73.3c0-13.2,3.5-26.6,10.6-40.4c2.5-2.5,12.4-3.7,29.9-3.7
			c1.3,5.6,2.2,10,2.9,13.2c0.6,3.1,1.3,6.2,2,9.4c0.7,3.1,1.6,5.3,2.9,6.6s4.2,2.5,8.7,3.8c14.4-16.3,27.2-36.2,38.2-59.6
			c11-23.5,23.2-48.1,36.7-73.8c13.5-25.7,27.3-46.5,41.5-62.5c14.1-16,33.8-29,59-39c30.8-5,68.8-7.5,114.1-7.5
			C1950.1,1376.5,1943,1385.2,1928.8,1396.5L1928.8,1396.5z M2090.7,1253c52,0,100.6,7.7,145.7,23.2
			c-18.8,10.7-62.5,41.2-131.1,91.7c-68.6,50.4-126.1,91.9-172.4,124.5c-46.4,32.6-78.6,50.8-96.8,54.5c-34.5,0-52.9-6.3-55.4-18.9
			l18.9-46.1l69.5-12.2c5.6-3.8,18.1-10.1,37.6-18.9c19.4-8.8,31.3-14.8,35.7-17.9c23.8-13.2,43.3-27.2,58.7-42
			c15.3-14.8,38.7-37.9,70-69.3c-81.4,1.2-153.7,10.5-217,27.9c-63.2,17.3-113.3,51.7-150.3,103.3c-8.9,8.8-22.7,13.2-41.2,13.2
			c-12.8,0-24.6-3.2-35.4-9.4c3.1-16.3,11-31.2,23.7-44.6c12.6-13.5,27.3-26,44.1-37.6s33-22.7,48.8-33.3
			C1864.1,1282.3,1979.8,1253,2090.7,1253L2090.7,1253z M1869,2661.4c25.7,17.2,53.2,39.1,82.7,65.7c29.4,26.6,57,51.5,82.7,74.7
			c50.8,44.4,87.4,83.3,110,116.5c-25.7,4.3-53.3,6.5-82.8,6.5c-57.7,0-115-6.4-172.1-19.2c-57.1-12.9-108.2-32.1-153.3-57.8
			c-40-40.1-59.9-76.7-59.9-109.9c14.3,0,27.8,3.7,40.3,11.3c11.3,25.6,27.7,46.3,49.4,62c21.6,15.6,45.8,27.9,72.4,36.7
			c26.6,8.8,54.5,15.8,83.7,21.1s60.3,11.1,93.6,17.4c3.7,0,5.9-0.8,6.6-2.4c0.6-1.5,2.8-6.7,6.6-15.4
			c-3.8-13.1-17.2-30.1-40.4-50.7c-23.2-20.7-36.6-33.8-40.4-39.4c-63.9-62-123.4-103.7-178.6-124.9c0-15,0.6-24.6,1.9-28.7
			c1.2-4.1,4.4-6.1,9.4-6.1C1813.9,2630,1843.3,2644.2,1869,2661.4L1869,2661.4z M2723.1,2807.5c0,2.5-1.9,5.6-5.6,9.4l-172.9,67.7
			c0,5,2.3,9,7.1,12.2c4.7,3.1,9.8,4.7,15.5,4.7c33.8,0,66.1-1.9,96.8-5.6c1.2,1.9,3.1,4.4,5.6,7.5c2.5,3.1,5,5,7.5,5.7
			c-26.3,11.9-60.8,17.8-103.3,17.8c-43.9,0-81.8-4.1-113.7-12.2c14.4-13.8,30-26.2,47-37.1c16.9-11,33.5-20.2,49.8-27.8
			c16.2-7.5,34.4-14.9,54.5-22.1c20-7.2,44.5-15.8,73.3-25.8C2709,2801.8,2721.8,2803.7,2723.1,2807.5L2723.1,2807.5z
			 M2777.6,2751.1c0,39.4-8.5,71.7-25.4,96.7c-6.3,0-9.4-5.3-9.4-15.9c0-0.6,1.5-11.1,4.7-31.4c3.1-20.4,4.7-38,4.7-53.1
			c0-20-3.8-38.5-11.3-55.4c-10.6,0-18.6,3.1-24,9.4c-5.3,6.3-9.6,15-12.7,26.3c-3.1,11.2-6.9,24.4-11.3,39.5
			c-3.8,0.6-6.9,2-9.4,4.2c-2.5,2.1-5.3,3.2-8.4,3.2c-1.3,0-4.4-1.2-9.4-3.7c0-15.7,2-29.9,6.1-42.8c4-12.9,10.8-26.8,20.2-41.8
			c9.4-15,18.3-27.5,26.8-37.6c8.5-10.1,19.6-23.2,33.4-39.4v1.9C2769.1,2670.7,2777.6,2717.3,2777.6,2751.1L2777.6,2751.1z
			 M2788.9,2910.8c-38.2,0-71.4-10-99.6-30c-8.2-8.2-12.2-14.1-12.2-17.9c0-2.5,7.8-5,23.5-7.5c36.9,28.2,71.4,42.3,103.3,42.3
			c6.9-3.1,10.3-7.5,10.3-13.1c-0.6-4.4-4.7-10.4-12.2-17.9c-7.5-7.6-11.9-13.8-13.2-18.8v-25.4c15.6,4.4,29.4,14.1,41.3,29.1
			c11.9,15,17.9,31,17.9,47.9C2829.2,2907.1,2809.5,2910.8,2788.9,2910.8"/>
		<path id="path14" class="st0" d="M4166.5,2097.4c0-1142.7-926.4-2069.1-2069.1-2069.1C954.7,28.4,28.3,954.7,28.3,2097.4
			c0,1142.7,926.4,2069.1,2069.1,2069.1C3240.2,4166.5,4166.5,3240.2,4166.5,2097.4z"/>
		<path id="path16" class="st0" d="M3551.5,2097.4c0-803.1-651-1454.1-1454.1-1454.1c-803.1,0-1454.1,651-1454.1,1454.1
			c0,803.1,651,1454.1,1454.1,1454.1C2900.5,3551.5,3551.5,2900.5,3551.5,2097.4L3551.5,2097.4z"/>
		<path id="path18" d="M242.2,1684.4l-30.1,187l322.7,52l7-43.2l-284.5-45.8l23.1-143.8L242.2,1684.4"/>
		<path id="path20" d="M314.5,1440.9l-12.3,39.4l25.9,8.1c-14.4,8.8-26.1,17.8-35,27c-8.9,9.2-15.5,20.4-19.6,33.8
			c-3.2,10.2-4.5,20.3-3.9,30.3c0.5,10,3.4,19.6,8.6,28.5c5.2,9,12.7,17,22.6,24.2c9.9,7.2,22.8,13.2,38.6,18.1l152.2,47.5
			l12.3-39.4l-133.5-41.7c-12.5-3.9-22.7-7.6-30.6-11c-7.9-3.5-14.4-7.8-19.6-12.9c-5-5.1-8.1-10.8-9.2-17.2
			c-1.1-6.4,0-14.7,3.2-25.1c3-9.6,8.9-19,17.8-28.2c8.8-9.2,18.7-17.1,29.4-23.7l175.2,54.7l12.3-39.4L314.5,1440.9"/>
		<path id="path22" d="M433.5,1180.5l-18.1,37.1l125.8,61.3c10.2,4.9,19.4,10.1,27.7,15.3c8.3,5.2,14.4,10.5,18.3,15.9
			c4.1,5.7,6.1,11.9,6.2,18.6c0.1,6.7-2.1,14.7-6.7,24c-4.5,9.2-11.6,17.5-21.3,24.9c-9.7,7.4-20.8,13.8-33.2,19.3l-164.9-80.3
			l-18.1,37.1L570,1461.1l18.1-37.1l-24.5-11.9c15.3-6.2,28.1-13.4,38.7-21.7c10.5-8.2,18.7-18.3,24.5-30.2
			c10.6-21.7,11.7-42.1,3.3-61.3c-8.3-19.2-26.1-35.4-53.3-48.6L433.5,1180.5"/>
		<path id="path24" d="M586.9,945.8l-23.4,34l20.6,14.2c-8.1,2.3-15,4.3-20.5,6.2c-5.6,1.9-11.3,4.6-17.3,8.1
			c-5.6,3.3-10.9,7.1-15.7,11.4c-4.8,4.3-9.6,10-14.4,16.9c-7.6,11-12.3,22.8-14.2,35.3c-1.9,12.5-0.6,25.1,3.7,37.7
			c4.4,12.8,11.8,25.5,22.5,38.2c10.6,12.6,24.4,24.8,41.5,36.5c17.8,12.2,34.7,20.5,50.9,24.8c16.1,4.3,31.9,5.8,47.1,4.3
			c13.9-1.3,26.9-5.5,39.2-12.5c12.2-7,22.3-16.3,30.2-27.8c7-10.2,11.9-19.8,14.9-28.8c2.9-9,4.9-19.4,6-30.9l87.4,60.1l23.4-34
			L586.9,945.8z M612.7,1013.7l116.9,80.4c-1.8,11.2-4.3,20.8-7.4,28.5c-3.1,7.8-7.4,15.6-12.8,23.5c-12.1,17.6-28.1,26.8-48,27.8
			c-19.9,0.9-42.2-7.1-67-24.1c-23.8-16.3-39.3-32.7-46.7-49c-7.4-16.3-5.2-32.9,6.4-49.7c6.2-9,14.4-16.6,24.7-22.9
			C589,1021.7,600.3,1016.9,612.7,1013.7"/>
		<path id="path26" d="M683.9,823.9c-11,12.2-19.7,25-26,38.5c-6.3,13.5-10.8,25.4-13.4,35.7l34.3,31.1l1.5-1.6
			c0.3-4.5,0.8-9.6,1.5-15.3c0.7-5.8,2.4-12.8,5-21.1c2.3-7.3,5.4-15,9.2-22.8c3.8-7.9,8.8-15.2,14.8-21.9c4.4-4.9,9.7-9.6,15.8-14
			c6.1-4.5,11.3-7.3,15.5-8.4c5.9-1.5,11.1-1.9,15.4-1c4.3,0.9,9.3,3.9,15,9c7.3,6.6,11,13.5,11.1,20.8c0.1,7.3-3.1,17-9.6,29.2
			c-2.6,4.8-6.1,10.9-10.5,18.3c-4.4,7.5-8.3,14.5-11.7,21.2c-8.6,17.5-11.5,33.2-8.8,47.1c2.7,13.9,10,26.2,22,37.1
			c16.4,14.8,35.3,20.7,56.8,17.7c21.5-3,41.6-14.8,60.2-35.4c9.2-10.1,17.1-21.4,23.9-33.9c6.8-12.5,11.4-23.9,13.9-34.3L887,890.1
			l-1.5,1.6c-0.9,13.4-3.9,26.5-9.1,39.3c-5.1,12.8-12.1,24.1-20.9,33.8c-9.1,10.1-18.9,16.7-29.4,19.8c-10.5,3.1-20,0.8-28.6-7
			c-7.6-6.9-11.4-14-11.4-21.5c0-7.5,2.8-16.8,8.6-28c2.9-5.6,6.4-11.8,10.3-18.4c3.9-6.6,7.9-13.7,12-21.3
			c8.8-16.5,12.4-31.7,10.7-45.5c-1.7-13.8-9.2-26.9-22.7-39c-7.8-7.1-16.6-12.2-26.4-15.5c-9.8-3.2-19.9-4.1-30.3-2.7
			c-11.3,1.6-22.1,5.2-32.3,10.9C705.8,802.5,695.1,811.5,683.9,823.9"/>
		<path id="path28" d="M988.5,558l165.9,235.6l-89.9,63.3l22.3,31.7l215.7-151.9l-22.3-31.7l-89.9,63.3l-165.9-235.6L988.5,558"/>
		<path id="path30" d="M1215.9,410.8c-34.5,18.5-56.1,42.5-64.7,72.2c-8.6,29.6-3.4,62.4,15.8,98.2c18.9,35.3,43.2,58.4,72.8,69.4
			c29.6,11,59.3,8.5,89.2-7.5c13.4-7.2,24.2-15.5,32.5-24.9c8.2-9.4,14-20.3,17.3-32.7c3.3-12.4,3.8-25.7,1.6-39.8
			c-2.3-14.1-8-29.9-17.3-47.2l-10.6-19.7l-150.4,80.6c-13.5-25.2-17.4-47.8-11.8-67.9c5.6-20.1,19.6-36.2,42.1-48.2
			c8-4.3,16.4-7.6,25.1-10c8.7-2.3,16.9-3.8,24.6-4.3c8.2-0.6,15.3-0.7,21.3-0.4c6,0.3,11.2,0.9,15.4,1.7l2.1-1.2l-21.2-39.6
			c-5.2,0.6-11.6,1.3-19.3,2.2s-14.4,2-20.2,3.2c-8.2,1.9-15.4,3.8-21.7,5.9C1232.3,402.7,1224.7,406.1,1215.9,410.8L1215.9,410.8z
			 M1332.3,525.7c5,10,8.4,19.2,10.2,27.5c1.8,8.3,2,15.9,0.8,23c-1.4,7.8-4.6,14.9-9.8,21.3c-5.2,6.4-12.7,12.3-22.5,17.6
			c-9.7,5.2-18.8,8.2-27.2,8.9c-8.4,0.7-16.9-0.2-25.4-2.8c-8.5-2.8-16.1-6.9-22.7-12.4c-6.6-5.4-12.8-12.6-18.5-21.4L1332.3,525.7"
			/>
		<path id="path32" d="M1555.3,274.9l-51.1,18.8l-45,142.9l-20.9-9.1l-35.5-96.3l-38.7,14.3l118.3,320.8l38.7-14.3l-69.2-187.8
			l127.3,63.8l48.2-17.8l-130.2-61.5L1555.3,274.9"/>
		<path id="path34" d="M1794.5,222l-40.3,8.6l29.2,136.8c2.3,11,4,21.4,5,31.2c1,9.8,0.6,17.8-1.2,24.2c-2,6.7-5.6,12.2-10.8,16.4
			c-5.2,4.2-12.9,7.4-23.1,9.5c-10,2.1-20.9,1.6-32.7-1.5c-11.8-3.1-23.7-7.9-35.6-14.3l-38.3-179.4l-40.3,8.6l51.3,240.2l40.3-8.6
			l-5.7-26.6c14.3,8.2,27.9,13.9,40.9,17.1c12.9,3.2,25.9,3.5,38.9,0.7c23.6-5,40.4-16.7,50.3-35.1c10-18.4,11.8-42.4,5.5-71.9
			L1794.5,222"/>
		<path id="path36" d="M1917.6,208.7l-41,4.3l25.6,244.3l41-4.3L1917.6,208.7z M1950.6,493.1L1904,498l4.5,42.9l46.6-4.9
			L1950.6,493.1"/>
		<path id="path38" d="M2064.1,195.1c-16.4,0.2-31.7,2.7-45.9,7.2c-14.2,4.6-26,9.5-35.3,14.6l0.7,46.3l2.2,0
			c3.5-2.8,7.6-6,12.2-9.4c4.7-3.4,11-7,18.8-10.8c7-3.3,14.6-6.3,23-8.9c8.4-2.6,17.1-4,26.1-4.1c6.6-0.1,13.6,0.6,21.1,2
			c7.5,1.4,13.1,3.3,16.8,5.6c5.1,3.3,8.9,6.8,11.2,10.6c2.3,3.8,3.6,9.5,3.7,17.1c0.1,9.8-2.4,17.2-7.6,22.3
			c-5.2,5-14.5,9.4-27.9,12.9c-5.3,1.3-12.1,3-20.6,4.8c-8.5,1.8-16.3,3.8-23.4,5.9c-18.7,5.7-32.1,14.3-40.4,25.7
			c-8.3,11.5-12.4,25.2-12.1,41.3c0.3,22.1,8.9,40,25.8,53.6c16.9,13.7,39.2,20.3,66.9,19.9c13.6-0.2,27.3-2.1,41-5.7
			c13.7-3.6,25.2-8,34.6-13.2l-0.7-44.1l-2.2,0c-10.4,8.5-22,15.2-34.9,20.2c-12.9,5-25.9,7.6-39,7.8c-13.6,0.2-25.1-2.5-34.6-8
			c-9.4-5.5-14.2-14.1-14.4-25.6c-0.2-10.2,2.5-17.9,7.9-23c5.4-5.1,14.2-9.4,26.3-12.8c6.1-1.7,12.9-3.4,20.4-5
			c7.5-1.7,15.4-3.6,23.8-5.7c18.1-4.8,31.6-12.5,40.6-23.2c9-10.6,13.4-25.1,13.1-43.2c-0.2-10.5-2.4-20.5-6.7-29.8
			c-4.3-9.4-10.6-17.4-18.7-24c-8.9-7.2-18.9-12.6-30-16.2S2080.8,194.8,2064.1,195.1"/>
		<path id="path40" d="M2429.6,225.5l-54.1-6l-104.1,107.7l-14.6-17.5l11.3-102.1l-41-4.5l-37.6,339.8l41,4.5l22-198.9l85.3,114
			l51.1,5.7L2300,354.9L2429.6,225.5"/>
		<path id="path42" d="M2605.9,295.8c-2.6-3.2-6.2-7.7-10.6-13.4c-4.4-5.7-8.8-10.5-13.3-14.4c-6.2-5.5-12.3-10.1-18.4-13.7
			c-6.1-3.7-15.1-7-27.1-10c-9.8-2.5-19.6-3-29.3-1.5c-9.8,1.4-18.8,4.7-27.2,9.6c-8.1,4.9-15.2,11.7-21.5,20.3
			c-6.3,8.6-10.8,18.2-13.4,28.9c-4.2,16.4-4.2,31.3-0.2,44.7c4.1,13.3,12.7,25.3,26.1,35.9c11.8,9.5,26.5,17.7,44.1,24.7
			c17.6,6.9,36.8,13.7,57.5,20.1l-1.9,7.7c-2.4,9.4-5.8,16.7-10.1,21.8c-4.3,5.1-9.4,8.5-15.3,10.4c-5.9,2-12.8,2.6-20.4,1.8
			c-7.6-0.8-15.4-2.2-23.2-4.2c-9.2-2.3-19.8-6.5-31.6-12.5c-11.8-6-23.3-13.2-34.4-21.7l-2.4-0.6l-10.3,40.6c6.9,4,16.9,9,30,15.1
			c13.1,6.1,26.5,10.8,40,14.2c16.4,4.1,30.5,6.4,42.4,6.7c11.9,0.3,23.1-1.8,33.8-6.2c10.3-4.3,18.9-11.1,25.8-20.4
			c6.9-9.3,12.2-21.4,16-36.3l41.2-162.6l-40-10.1L2605.9,295.8z M2597.5,329l-16.7,65.7c-9.3-3.3-21.1-7.5-35.3-12.7
			c-14.2-5.2-25.5-10.3-33.8-15.2c-9.8-6-17.4-13.2-22.7-21.7c-5.3-8.5-6.4-18.7-3.3-30.7c3.4-13.6,9.9-22.8,19.3-27.8
			c9.4-5,21.6-5.6,36.4-1.8c12.7,3.2,23.4,8.8,32.3,16.9C2582.6,309.7,2590.6,318.8,2597.5,329"/>
		<path id="path44" d="M3102.4,483.8l-38.5-20.8l-76.1,140.8l-132-71.3l76.1-140.8l-38.5-20.8l-155.4,287.6l38.5,20.8l60.9-112.7
			l132,71.3l-60.9,112.7l38.5,20.8L3102.4,483.8"/>
		<path id="path46" d="M3063.8,808.4l-34.6-26.8l-26.4,34.1l34.6,26.8L3063.8,808.4z M3269.1,760.5c25.3-32.7,37-64.1,35-94.1
			c-2-30-16.1-55.1-42.3-75.4c-27-20.9-55.4-28.1-85.1-21.7c-29.7,6.4-56.8,25.4-81.2,56.9c-25.1,32.5-36.7,63.9-34.7,94.2
			c2,30.3,16.1,55.6,42.1,75.7c26.2,20.3,54.1,27.5,83.7,21.8C3216.5,812.3,3243.9,793.1,3269.1,760.5z M3135.9,864.2l-34.6-26.8
			l-26.4,34.1l34.6,26.8L3135.9,864.2z M3235.5,734.5c-19.4,25-38.3,40-56.9,45.1c-18.6,5.1-36.4,1-53.3-12.1
			c-17.1-13.2-25.5-29.5-25.4-48.8c0.2-19.3,9.9-41.5,29.3-66.5c18.7-24.2,37.5-39,56.5-44.3c18.9-5.4,36.9-1.4,54,11.8
			c16.8,13,25.1,29.2,24.9,48.7C3264.3,687.8,3254.6,709.8,3235.5,734.5"/>
		<path id="path48" d="M3433.6,693.4c2.8,1.2,6.8,3,12,5.6c5.2,2.5,10.8,5.7,16.9,9.4c6.7,4.2,12.7,8.2,18,12
			c5.3,3.8,10.6,8.5,15.9,14c8.9,9.2,15.1,18.2,18.9,26.9c3.7,8.7,5.1,17,4.3,24.7c-1.1,7.5-3.8,14.7-8.1,21.6
			c-4.4,6.8-10.2,13.8-17.4,20.8l-15.5,14.9c-0.8-14.7-3.2-27.6-7.3-38.5c-4.1-10.9-11.8-22.2-23-33.8c-19.5-20.2-42.4-29.1-69-26.6
			c-26.5,2.5-53.9,17.3-82.1,44.4c-14.7,14.1-25.8,28.8-33.2,43.8c-7.4,15.1-11.7,29.9-13,44.5c-1.2,14,0.5,27.5,5.1,40.6
			c4.6,13.1,11.6,24.5,21,34.2c8.9,9.2,17.6,16.1,26.2,20.8c8.6,4.6,18.2,8.4,28.7,11.3l-5.9,9l26.9,28l156.9-151
			c30-28.9,45.7-56.6,47.2-83.2c1.4-26.6-10.8-53.4-36.7-80.3c-8.4-8.7-17.6-16.9-27.6-24.6c-10.1-7.7-20-14.4-29.9-19.9l-31.1,29.9
			L3433.6,693.4z M3454,866.7l-97.6,93.8c-10.8-3.9-20-8.3-27.6-13.1c-7.6-4.8-14.5-10.3-20.5-16.6c-14.6-15.2-20.5-32.5-17.7-51.9
			c2.8-19.4,14.6-39.1,35.4-59.2c19.8-19,38-30.2,54.7-33.4c16.7-3.3,32.1,2.5,46.4,17.4c7.4,7.7,13.6,17.2,18.4,28.4
			C3450.4,843.3,3453.2,854.8,3454,866.7"/>
		<path id="path50" d="M3630.2,970.1c-9.7-13.2-20.5-24.3-32.5-33.2c-12-8.9-22.8-15.7-32.3-20.3l-37.3,27.3l1.3,1.8
			c4.3,1.2,9.2,2.7,14.7,4.6c5.5,1.9,12.1,4.9,19.7,9.1c6.7,3.8,13.6,8.3,20.5,13.6c7,5.3,13.1,11.6,18.5,18.9
			c3.9,5.3,7.4,11.4,10.6,18.3c3.2,6.9,4.9,12.5,5.2,16.9c0.3,6.1-0.4,11.2-2.1,15.3c-1.7,4.1-5.6,8.4-11.8,12.8
			c-7.9,5.8-15.4,8-22.6,6.7c-7.1-1.3-16-6.4-26.7-15.3c-4.1-3.5-9.4-8.2-15.8-14c-6.4-5.8-12.5-11.1-18.4-15.7
			c-15.4-11.9-30.2-17.9-44.4-18.1c-14.2-0.1-27.7,4.5-40.7,14.1c-17.8,13.1-27.4,30.4-28.7,52.1c-1.3,21.7,6.2,43.7,22.6,66.1
			c8.1,11,17.5,21.1,28.4,30.2c10.9,9.1,21.1,15.9,30.8,20.5l35.6-26.1l-1.3-1.8c-12.9-3.6-25.1-9.2-36.7-16.8
			c-11.5-7.6-21.2-16.7-29-27.3c-8-11-12.5-21.9-13.5-32.8c-0.9-10.9,3.2-19.8,12.5-26.6c8.2-6,16-8.3,23.3-6.9s15.9,6.1,25.6,14.1
			c4.9,4,10.2,8.6,15.9,13.8s11.8,10.5,18.4,16c14.4,11.9,28.5,18.5,42.4,19.7c13.9,1.1,28.2-3.7,42.8-14.4
			c8.5-6.2,15.3-13.8,20.5-22.8c5.1-8.9,8-18.7,8.7-29.1c0.7-11.4-0.7-22.7-4.2-33.9C3646.8,995.8,3640.1,983.5,3630.2,970.1"/>
		<path id="path52" d="M3817,1286.1l-26.4-47.7l-148-22.7l5.8-22l89.8-49.8l-20-36.1l-299.1,165.6l20,36.1l175.1-97l-43.7,135.5
			l24.9,45l41-138L3817,1286.1"/>
		<path id="path54" d="M3793.3,1562.5c38.6-14.9,64.8-35.7,78.7-62.3c13.9-26.7,14.8-55.5,2.9-86.4c-12.3-31.9-32.8-52.8-61.5-62.7
			c-28.7-9.9-61.7-7.7-98.9,6.7c-38.3,14.8-64.5,35.6-78.4,62.6c-14,27-15,55.8-3.2,86.6c11.9,30.9,32,51.6,60.3,62
			C3721.4,1579.5,3754.8,1577.3,3793.3,1562.5z M3778,1522.8c-29.5,11.4-53.5,14.4-72,9.1c-18.5-5.3-31.6-18-39.3-38
			c-7.8-20.2-6.6-38.4,3.6-54.9c10.1-16.4,30-30.3,59.5-41.7c28.6-11,52.3-13.9,71.3-8.7c19,5.2,32.3,17.9,40.1,38.1
			c7.7,19.9,6.3,38-3.9,54.5C3826.8,1497.8,3807.1,1511.6,3778,1522.8"/>
		<path id="path56" d="M3934.7,1622.7l-10.7-39.8l-330.1,88.9l10.7,39.8L3934.7,1622.7"/>
		<path id="path58" d="M3951.9,1843.4c1.9-3.7,4.6-8.7,8.1-15c3.5-6.3,6.1-12.3,7.9-17.9c2.6-7.8,4.3-15.3,5.3-22.3
			c0.9-7.1,0.4-16.7-1.6-28.8c-1.6-10-5.1-19.2-10.3-27.5c-5.2-8.4-11.8-15.4-19.7-21.1c-7.7-5.4-16.7-9.3-27.1-11.6
			c-10.4-2.3-21-2.6-31.8-0.8c-16.8,2.7-30.4,8.6-41.1,17.6c-10.6,9-18.1,21.7-22.6,38.2c-4,14.6-5.7,31.4-5.1,50.3
			c0.6,18.9,2.1,39.2,4.4,60.8l-7.9,1.3c-9.6,1.6-17.6,1.4-23.9-0.6c-6.4-1.9-11.6-5.3-15.6-9.9c-4.2-4.7-7.4-10.7-9.8-18
			c-2.3-7.3-4.1-15-5.4-23c-1.5-9.4-1.9-20.7-1.1-33.9c0.8-13.2,2.8-26.6,6.2-40.2l-0.4-2.4l-41.4,6.7c-0.9,7.9-1.6,19.1-1.9,33.5
			c-0.3,14.5,0.6,28.6,2.9,42.3c2.7,16.7,6.3,30.5,10.7,41.5c4.5,11,10.8,20.5,19.1,28.6c8.1,7.8,17.8,12.9,29,15.6
			c11.3,2.6,24.5,2.7,39.6,0.2l165.6-26.9l-6.6-40.7L3951.9,1843.4z M3918.1,1848.9l-66.9,10.9c-0.7-9.9-1.5-22.3-2.4-37.4
			c-0.9-15.1-0.7-27.4,0.5-37c1.6-11.4,5.2-21.2,10.8-29.4c5.7-8.2,14.6-13.3,26.9-15.3c13.8-2.2,24.9,0,33.2,6.7
			c8.3,6.7,13.7,17.6,16.1,32.6c2.1,12.9,1.2,25-2.6,36.3C3929.9,1827.5,3924.6,1838.4,3918.1,1848.9"/>
		<path id="path60" d="M1401.4,3510.7l-123.2-67.8l-17.8,32.3l40.5,22.3l-139.8,254.1l-40.5-22.3l-17.8,32.3l123.2,67.8l17.8-32.3
			l-40.5-22.3l139.8-254.1l40.5,22.3L1401.4,3510.7"/>
		<path id="path62" d="M1639.4,3607.1l-42.7-16.2l-55.1,144.9c-4.4,11.7-9.2,22.4-14.2,32.1c-5,9.7-10.2,16.9-15.8,21.8
			c-5.9,5-12.6,7.9-20.1,8.7c-7.5,0.7-16.6-1-27.5-5.1c-10.7-4.1-20.7-11.1-29.9-21.1c-9.2-10-17.5-21.7-24.9-34.9l72.3-190.1
			l-42.7-16.2l-96.8,254.7l42.7,16.2l10.8-28.3c8.5,16.3,17.8,29.8,28,40.6c10.2,10.8,22.2,18.9,36.1,24.1
			c25.1,9.6,47.9,8.8,68.4-2.3c20.4-11.1,36.6-32.3,48.5-63.6L1639.4,3607.1"/>
		<path id="path64" d="M1754.4,3978.9l-2.4-0.6c-4.3,0.5-10.3,0.5-18.1,0.1c-7.8-0.4-14.6-1.3-20.5-2.7
			c-18.9-4.4-31.3-11.9-37.3-22.3s-6.4-26.8-1.2-49.1l2.1-9.1l74.2,17.4l8.8-37.7l-73-17.1l53.4-227.6l-44.4-10.4l-53.4,227.6
			l-30.4-7.1l-8.9,37.7l30.4,7.1l-2.1,8.8c-7.5,32.1-5.6,58.3,5.9,78.6c11.5,20.3,31.5,33.8,60.2,40.6c8.2,1.9,16.4,3.4,24.6,4.4
			s15.6,1.7,22.3,2.1L1754.4,3978.9"/>
		<path id="path66" d="M2040.5,3810.4c4.7-45.6-2.6-82-22.1-109.1c-19.5-27.1-47.5-42.6-84.1-46.3c-37.7-3.9-68.7,5.8-93,29.2
			c-24.3,23.4-38.7,57.1-43.3,101.1c-4.7,45.3,2.8,81.6,22.5,109c19.7,27.4,47.7,42.9,84.2,46.7c36.6,3.8,67.2-5.7,91.8-28.4
			C2021.1,3889.9,2035.8,3855.9,2040.5,3810.4L2040.5,3810.4z M1993.2,3805.5c-3.6,34.9-12.7,60.2-27.2,75.9
			c-14.5,15.7-33.6,22.3-57.2,19.8c-23.8-2.5-41.2-12.9-52.3-31.2c-11.1-18.3-14.8-44.9-11.2-79.8c3.5-33.8,12.6-58.8,27.2-74.9
			c14.7-16.1,33.9-23,57.7-20.5c23.4,2.4,40.7,12.9,51.8,31.3C1993.1,3744.6,1996.8,3771.1,1993.2,3805.5"/>
		<path id="path68" d="M2232.5,3658.6c-23.7,1.6-45.2,7-64.6,16.3c-19.3,9.3-35.7,22.3-49.1,39c-13.4,16.7-23.3,37.1-29.6,61.2
			c-6.4,24.1-8.5,51.4-6.5,82c2,30.4,7.6,56.6,16.9,78.7c9.2,22.1,21.8,41,37.7,56.7c15.5,15.3,33.5,26.5,53.8,33.7
			s42.8,10,67.3,8.4c12.2-0.8,23.5-2.5,34-5c10.5-2.5,20.2-5.4,29.1-8.8c7.6-3,15.4-6.6,23.4-10.8c7.9-4.2,15.8-8.8,23.4-13.7
			l-3.9-58.4l-3.9,0.3c-4,4.1-9.1,9.2-15.4,15.1c-6.3,5.9-14,11.9-23.3,17.8c-8.9,5.6-18.7,10.4-29.4,14.4
			c-10.7,3.9-23.1,6.4-37.4,7.4c-15.4,1-30.3-1.1-44.5-6.5c-14.2-5.4-27-13.9-38.2-25.5c-11.1-11.6-20.1-26.6-27-44.9
			c-6.9-18.3-11.2-39.1-12.8-62.4c-1.7-24.8-0.1-46.4,4.7-64.7c4.8-18.3,12-34,21.6-47c9.3-12.7,20.5-22.5,33.8-29.5
			c13.2-7,27.5-11,42.8-12c14-0.9,27-0.1,39.1,2.5c12.1,2.6,22.9,6.2,32.5,10.7c9.3,4.4,17.3,9,24.2,13.8
			c6.9,4.8,12.3,8.9,16.3,12.4l3.7-0.2l-3.9-57.4c-8.2-3.2-16-6.3-23.2-9.2c-7.3-2.9-16.1-5.7-26.3-8.2c-10.8-2.7-20.7-4.6-29.9-5.8
			C2258.7,3657.7,2246.9,3657.6,2232.5,3658.6"/>
		<path id="path70" d="M2622,3729.6c-10.9-44.5-30-76.3-57.4-95.3c-27.4-19-59-24.1-94.8-15.4c-36.9,9-62.8,28.6-77.8,58.8
			c-15,30.2-17.3,66.8-6.8,109.7c10.8,44.2,30,75.9,57.8,95.1c27.7,19.2,59.4,24.4,95,15.8c35.8-8.7,61.4-27.9,77-57.6
			C2630.4,3811,2632.8,3774,2622,3729.6L2622,3729.6z M2575.8,3740.9c8.3,34.1,8.2,61-0.2,80.6c-8.4,19.6-24.2,32.2-47.2,37.9
			c-23.2,5.7-43.1,1.7-59.7-11.8s-29.1-37.3-37.4-71.4c-8-33-7.9-59.6,0.5-79.7c8.4-20.1,24.2-33,47.4-38.7
			c22.9-5.6,42.7-1.5,59.3,12.1C2555.2,3683.6,2567.6,3707.2,2575.8,3740.9"/>
		<path id="path72" d="M2899.4,3458l68.4,141.9c5.4,11.3,10,21.9,13.8,31.9c3.7,10,5.5,18.4,5.3,25.2c-0.1,7.3-2.2,13.6-6.4,19
			c-4.1,5.4-10.8,10.4-20.1,14.8c-8.5,4.1-19,5.9-31.2,5.4c-12.3-0.5-26.1-3.1-41.2-7.9c-1.1-2.6-2.3-5.6-3.7-9.2
			c-1.4-3.6-3.3-7.7-5.5-12.4l-77.8-161.4l-41.1,19.8l68.4,141.9c5.4,11.3,10,21.9,13.8,31.9c3.7,10,5.5,18.4,5.3,25.2
			c-0.1,7.3-2.2,13.6-6.4,19c-4.1,5.4-10.8,10.4-20.1,14.8c-9,4.3-19.8,6.1-32.3,5.3c-12.6-0.8-25.5-3.3-39-7.5l-88.3-183.2
			l-41.1,19.8l118.3,245.5l41.1-19.8l-13.2-27.3c16.1,5.6,30.9,8.8,44.4,9.6c13.5,0.8,26.6-1.9,39.4-8c14.5-7,25.8-16.5,33.9-28.5
			c8.1-12,11.4-27,10-44.9c19.2,7.9,36.4,12.6,51.8,14.1c15.4,1.4,30-1.2,44-7.9c10.6-5.1,19.4-11.4,26.5-18.9
			c7.1-7.5,12.1-16.4,15-26.9c3-10.6,3.6-22.4,1.9-35.3c-1.8-12.9-6.7-27.7-14.8-44.6l-77.8-161.5L2899.4,3458"/>
	</g>
</g>
</svg>
