<?xml version="1.0" encoding="utf-8"?>
<!-- Generator: Adobe Illustrator 26.0.2, SVG Export Plug-In . SVG Version: 6.00 Build 0)  -->
<svg version="1.1" id="Layer_1" xmlns="http://www.w3.org/2000/svg" xmlns:xlink="http://www.w3.org/1999/xlink" x="0px" y="0px"
	 viewBox="0 0 421 420" style="enable-background:new 0 0 421 420;" xml:space="preserve">
<style type="text/css">
	.st0{fill:#8E68AD;stroke:#000000;stroke-width:5.6693;}
	.st1{fill:#FFFFFF;stroke:#000000;stroke-width:5.6693;}
	.st2{fill:#8E68AD;}
	.st3{fill:#FFFFFF;}
</style>
<ellipse transform="matrix(0.7071 -0.7071 0.7071 0.7071 -86.9523 210.3142)" class="st0" cx="210.4" cy="210.1" rx="206.9" ry="206.9"/>
<ellipse transform="matrix(0.7071 -0.7071 0.7071 0.7071 -86.9525 210.3142)" class="st1" cx="210.4" cy="210.1" rx="145.4" ry="145.4"/>
<path d="M193.2,304.1c-6.5-1.4-13-3.4-19.3-6c-6.9-3.4-12.6-6.5-17.1-9.4c-4.5-2.9-8.6-6.2-12.4-9.8c-3.8-3.7-7.2-7.8-10.3-12.4
	c-3.1-4.6-6.3-10.2-9.8-16.8c-2.7-6-4.7-12.2-6.1-18.6c-1.4-6.4-2.1-13.1-2.1-20c0-8.9,1.1-17.6,3.3-26.2c2.2-8.6,5.5-16.5,9.7-23.9
	c4-6.4,8.5-12.1,13.5-17.3c5-5.1,10.5-9.7,16.4-13.6c5.9-3.9,12.4-7.3,19.6-10c7.1-2.7,14.5-4.6,22.1-5.7c6.8-0.4,13.6-0.6,20.4-0.6
	c6.3,0,13.1,0.1,20.5,0.4c7.3,0.3,15.1,0.7,23.4,1.2c8.3,0.5,15.5,0.9,21.5,1.1c6,0.2,12.1,0.4,18.3,0.4c-0.1,0.1-0.1,0.3-0.2,0.5
	c-0.1,0.2-0.1,0.5-0.1,0.8c-5.8,9.3-10.8,19.9-14.9,31.8c-4.1,11.9-8,25.4-11.6,40.5c-3.3-8.4-6.7-15.7-10.3-21.9
	c-3.5-6.2-7.9-12.1-13-17.6c-2.6-2.4-5.8-4.3-9.5-5.7c-3.7-1.3-7.7-2.1-11.9-2.2c-3.4,0-6.6,0.5-9.6,1.4
	c-5.9,2.2-11.7,6.2-17.3,12.2c-5.7,5.9-10.3,12.2-13.9,18.9c-5.5,10-8.3,21.1-8.3,33.3c0,7,1,13.9,3,20.8c2,6.9,4.8,13.2,8.6,18.9
	c11.8,17.4,27,27.8,45.4,31.1c1.1,0.1,2.6,0.2,4.5,0.2c8.3,0,15.9-2,22.7-6.1c6.8-4,14.6-9.8,23.4-17.3c-0.8,2.1-1.7,4.1-2.7,6
	c-1,1.9-2.2,3.9-3.5,6c-1.3,2.1-2.5,4.1-3.6,6c-6.8,11-16.3,19.1-28.4,24.2c-12.1,5.1-25.7,7.6-40.7,7.6
	C206.3,306.3,199.8,305.5,193.2,304.1z"/>
<path class="st2" d="M229.6,302.9c6.1-0.8,12-2.2,17.7-4.2c5.7-1.9,10.9-4.5,15.8-7.8c4.9-3.2,9.1-7.2,12.8-12
	c2.3-2.4,4.9-6.4,7.7-11.9c-6,4.5-12.2,8.2-18.7,11.1c-6.4,2.9-13.2,4.3-20.2,4.3c-8.9,0-17.3-2.6-25.4-7.7
	c-9.6-5.9-17.6-13.3-23.8-22.2c-6.2-8.9-10.5-19.2-12.8-30.9c-0.6-4.3-0.9-8.2-0.9-11.7c0-6.8,0.9-13.8,2.8-20.8
	c1.9-7,4.5-13.5,7.8-19.4c3.4-5.9,7.2-10.8,11.6-14.8c4.1-4.3,8.7-7.7,13.8-10.5c5.1-2.7,10.2-4.1,15.4-4.1c2.2,0,4.3,0.2,6.2,0.7
	c4.5,1.6,8.2,3.2,10.9,4.6c2.8,1.5,5.4,3.5,7.8,6.1c7.9,9.3,14.4,19.9,19.4,31.9c2.4-11.6,5.5-22.9,9.4-33.9
	c3.9-11,8.4-21.1,13.4-30.1c-5.4-0.1-10.8-0.3-16.4-0.6c-5.5-0.3-11.9-0.8-19.2-1.4c-7.3-0.6-14.3-1.1-20.9-1.5
	c-6.6-0.4-12.9-0.6-18.8-0.6c-7.5,0-14.5,0.4-21.2,1.1c-6.7,0.8-13.2,2.1-19.7,3.9c-6.5,1.9-12.8,4.5-18.9,7.9
	c-21.9,14.2-36.2,32-43.1,53.4c-2.8,8.5-4.2,17.6-4.2,27.1c0,11.6,2.1,22.9,6.2,34.1c4.1,11.1,9.7,20.7,16.6,28.5
	c1.8,1.8,3.4,3.4,4.7,4.8c1.3,1.4,2.7,2.7,3.9,3.9c1.3,1.2,2.4,2.1,3.2,2.6c4.9,4.1,10.5,7.6,16.9,10.7c6.4,3,13,5.4,19.9,7.1
	c6.9,1.7,13.9,2.8,21.1,3.3C217.2,304.2,223.5,303.8,229.6,302.9z"/>
<path d="M158.3,277.2c-5.9-5.2-11.2-11.1-15.8-17.8c-4.6-6.7-8.3-13.9-11.2-21.6c-2.8-7.7-4.6-15.7-5.1-24c0-7.7,0.8-15,2.3-21.9
	c1.6-6.9,3.9-13.5,7.1-19.8c3.2-6.3,6.8-12,11-17.1c4.2-5,9-9.7,14.5-14c8.4-6.5,17.9-11.1,28.4-13.7c10.5-2.6,22.2-3.9,34.9-3.9
	c5.7,0,10.9,0.1,15.7,0.4c4.8,0.3,10,0.7,15.7,1.1c5.7,0.5,12,1,18.9,1.5c6.9,0.5,12.1,0.9,15.3,1l-13.9,38c-3-5.2-6.4-10.2-10.2-15
	c-3.8-4.8-8-9.2-12.8-13.2c-4.8-4-9.8-6.9-14.9-8.9c-1.7-0.6-3.5-0.8-5.4-0.8c-4.1,0-7.9,1-11.4,2.9c-3.5,1.9-7.8,4.6-12.6,7.9
	c-3.9,3.8-7,6.8-9.1,9c-2.1,2.2-4.3,4.8-6.5,7.9c-6.1,7-11,15.5-14.7,25.4c-3.7,9.9-5.5,19.9-5.5,30.1c0,6.4,0.7,12.4,2.2,17.9
	c3,11.9,8.3,22.6,15.8,32.1c7.5,9.5,16.6,17.3,27.2,23.4c7,3.6,14.3,5.5,21.9,5.5c6.5,0,12.5-1.2,18-3.7c-2.6,3-6.8,5.3-12.5,7.2
	c-5.7,1.8-11.3,3.2-16.9,4c-5.6,0.9-9.2,1.3-11,1.3c-4.3-0.1-8.7-0.5-13-1.2c-4.4-0.8-8.1-1.6-11.1-2.4c-3.1-0.9-8.4-2.4-15.9-4.7
	C170.6,286.6,164.2,282.4,158.3,277.2z"/>
<path class="st3" d="M279.5,128.8c-3.8,0-7.1,1-10,3c-0.8,0.8-1.2,1.4-1.2,1.8c0,0.2,0.8,0.5,2.3,0.8c3.7-2.8,7.1-4.2,10.3-4.2
	c0.7,0.3,1,0.8,1,1.3c-0.1,0.4-0.5,1-1.2,1.8c-0.8,0.8-1.2,1.4-1.3,1.9v2.5c1.6-0.4,2.9-1.4,4.1-2.9c1.2-1.5,1.8-3.1,1.8-4.8
	C283.6,129.2,281.6,128.8,279.5,128.8"/>
<path class="st3" d="M278.4,144.7c0-3.9-0.8-7.2-2.5-9.7c-0.6,0-0.9,0.5-0.9,1.6c0,0.1,0.2,1.1,0.5,3.1c0.3,2,0.5,3.8,0.5,5.3
	c0,2-0.4,3.8-1.1,5.5c-1.1,0-1.9-0.3-2.4-0.9c-0.5-0.6-1-1.5-1.3-2.6c-0.3-1.1-0.7-2.4-1.1-3.9c-0.4-0.1-0.7-0.2-0.9-0.4
	c-0.2-0.2-0.5-0.3-0.8-0.3c-0.1,0-0.4,0.1-0.9,0.4c0,1.6,0.2,3,0.6,4.3c0.4,1.3,1.1,2.7,2,4.2c0.9,1.5,1.8,2.8,2.7,3.8
	c0.8,1,2,2.3,3.3,3.9v-0.2C277.6,152.8,278.4,148.1,278.4,144.7z"/>
<path class="st3" d="M273,139.1c0-0.2-0.2-0.6-0.6-0.9l-17.3-6.8c0-0.5,0.2-0.9,0.7-1.2c0.5-0.3,1-0.5,1.6-0.5
	c3.4,0,6.6,0.2,9.7,0.6c0.1-0.2,0.3-0.4,0.6-0.8c0.2-0.3,0.5-0.5,0.8-0.6c-2.6-1.2-6.1-1.8-10.3-1.8c-4.4,0-8.2,0.4-11.4,1.2
	c1.4,1.4,3,2.6,4.7,3.7c1.7,1.1,3.4,2,5,2.8c1.6,0.8,3.4,1.5,5.4,2.2c2,0.7,4.4,1.6,7.3,2.6C271.6,139.7,272.8,139.5,273,139.1z"/>
<path class="st3" d="M187.6,153.7c2.6-1.7,5.3-3.9,8.3-6.6c2.9-2.7,5.7-5.2,8.3-7.5c5.1-4.4,8.7-8.3,11-11.6
	c-2.6-0.4-5.3-0.7-8.3-0.7c-5.8,0-11.5,0.6-17.2,1.9c-5.7,1.3-10.8,3.2-15.3,5.8c-4,4-6,7.7-6,11c1.4,0,2.8-0.4,4-1.1
	c1.1-2.6,2.8-4.6,4.9-6.2c2.2-1.6,4.6-2.8,7.2-3.7c2.7-0.9,5.5-1.6,8.4-2.1c2.9-0.5,6-1.1,9.4-1.7c0.4,0,0.6,0.1,0.7,0.2
	c0.1,0.2,0.3,0.7,0.7,1.5c-0.4,1.3-1.7,3-4,5.1c-2.3,2.1-3.7,3.4-4,3.9c-6.4,6.2-12.3,10.4-17.9,12.5c0,1.5,0.1,2.5,0.2,2.9
	c0.1,0.4,0.4,0.6,0.9,0.6C182,156.9,185,155.4,187.6,153.7z"/>
<path class="st3" d="M209.7,294.6c5.2,0,10.1-0.8,14.6-2.3c-1.9-1.1-6.3-4.1-13.1-9.2c-6.9-5-12.6-9.2-17.2-12.5
	c-4.6-3.3-7.9-5.1-9.7-5.5c-3.4,0-5.3,0.6-5.5,1.9l1.9,4.6l6.9,1.2c0.6,0.4,1.8,1,3.8,1.9c1.9,0.9,3.1,1.5,3.6,1.8
	c2.4,1.3,4.3,2.7,5.9,4.2c1.5,1.5,3.9,3.8,7,6.9c-8.1-0.1-15.4-1.1-21.7-2.8c-6.3-1.7-11.3-5.2-15-10.3c-0.9-0.9-2.3-1.3-4.1-1.3
	c-1.3,0-2.5,0.3-3.5,0.9c0.3,1.6,1.1,3.1,2.4,4.5c1.3,1.3,2.7,2.6,4.4,3.8c1.7,1.2,3.3,2.3,4.9,3.3
	C187.1,291.6,198.6,294.6,209.7,294.6z"/>
<path class="st3" d="M193.5,280.2c-1.4-1.1-2.3-1.9-2.7-2.4c-1.1,0.6-2.5,0.9-4.1,0.9c-2.6,0-4.8-1.2-6.7-3.7
	c-1.9-2.5-3.8-6-5.8-10.7c-2-4.6-3.7-8.2-5.1-10.6c-1.4-2.4-3-3.7-4.9-3.7c-2.2,1.6-3.3,4-3.3,7.3c0,1.3,0.4,2.7,1.1,4
	c0.2,0.2,1.2,0.4,3,0.4c0.1-0.6,0.2-1,0.3-1.3c0.1-0.3,0.1-0.6,0.2-0.9c0.1-0.3,0.2-0.5,0.3-0.7c0.1-0.1,0.4-0.2,0.9-0.4
	c1.4,1.6,2.7,3.6,3.8,6c1.1,2.4,2.3,4.8,3.7,7.4c1.3,2.6,2.7,4.6,4.2,6.2c1.4,1.6,3.4,2.9,5.9,3.9c3.1,0.5,6.9,0.8,11.4,0.8
	C195.7,282.2,195,281.3,193.5,280.2z"/>
<path class="st3" d="M169.4,188.5c1.9-3.2,3.5-7,4.9-11.4c0.9-6.3,1.3-10.3,1.3-12.1c0-3.2-0.5-5.9-1.5-8.3c-0.2-0.4-0.5-0.6-1-0.6
	c-0.3,0-0.9,0.1-1.7,0.4c-0.8,0.2-1.4,0.4-1.8,0.4c0.1,1.4,0.2,3.7,0.2,6.9c0,6-0.7,11.4-2.2,16.3c-1.5,4.9-3.9,8.7-7.4,11.6
	c-0.4,0.7-1,1.4-1.7,2.2c0.2,0.4,0.5,0.8,1,1.2c0.5,0.4,1.1,1,1.9,1.7h0.7C165,194.4,167.5,191.6,169.4,188.5z"/>
<path class="st3" d="M183,255.8c-1.8-2.3-4.4-5-7.7-8.2c-1.4-0.9-3.3-2.2-5.8-4c-2.5-1.8-4.4-3.2-5.8-4c-1.4-0.9-3.2-1.6-5.4-2.3
	c-0.6,0.6-1,1.4-1.3,2.4c1.6,1.4,4.5,3.5,8.9,6.3c4.3,2.8,7.9,5.4,10.6,7.8c2.7,2.3,4.8,5.2,6.3,8.7c0.6,0,1.1,0,1.6,0
	c0.4,0,0.9,0.1,1.4,0.1C185.7,260.3,184.8,258,183,255.8z"/>
<path class="st3" d="M163.8,165.9c0.5,0,1-0.5,1.4-1.4c0.4-0.9,0.6-1.9,0.6-2.9c-0.3,0-1.1-0.2-2.3-0.5c-1.2-0.3-2.2-0.6-2.8-0.8
	c2.3-2.5,6.4-5,12.6-7.6c6.1-2.6,10.4-4.5,12.9-5.9c2.5-1.4,4.7-3.9,6.7-7.5c-0.8-1-2-1.5-3.7-1.5c-1.4,0-3.7,0.6-6.9,1.7
	c0.4,0,0.9,0.2,1.5,0.7c0.6,0.4,1,0.8,1.4,1.1c0,1.1-0.3,1.8-0.8,2.1c-2.2,1.3-6,2.9-11.5,4.7c-5.5,1.8-9.7,3.6-12.7,5.3
	c-3,1.7-5.2,4.2-6.7,7.5c0,1.4,0.2,2.3,0.5,2.9c0.3,0.5,0.9,1,1.8,1.3c0.8,0.3,1.5,0.6,1.9,0.8H163.8z"/>
<path class="st3" d="M169.7,223.5c0-5-1.1-9.9-3.2-14.8c-1.6-3.1-3.6-5.9-6.2-8.6c-2.6-2.6-5.1-4.3-7.7-5.1c-0.4,0.1-1,0.8-1.7,2.2
	c2.6,2.8,5,5.4,7.1,8c2.1,2.6,3.9,5.3,5.2,8.2c1.3,2.9,2,5.9,2,8.9c0,2.3-0.6,5-1.8,8.1c-0.1,0.6-0.5,1.3-1,2.3
	c-0.6,0.9-0.9,1.7-0.9,2.2c0,0.4,0.1,0.7,0.4,0.9c0.9,0.5,1.6,1,2.1,1.5c0.5,0.5,0.8,0.7,0.8,0.7c0.1,0,0.5-0.2,1.1-0.6
	C168.5,233.4,169.7,228.8,169.7,223.5z"/>
<path class="st3" d="M161.3,247.6c-0.1-0.5-0.3-0.8-0.5-1c-0.2-0.2-0.5-0.4-1-0.6c-0.5-0.2-1-0.4-1.6-0.7c-0.7,2.2-1.7,3.3-2.9,3.3
	c-0.2,0-0.6-0.1-1.1-0.4c-1.4-0.4-2.1-2.5-2.1-6.2c3.8-8,5.7-14.8,5.7-20.4c0-4-1-7.7-3-11.2c-0.7-0.7-1.2-1.2-1.3-1.3
	c-1.8,1-3.2,2.2-4.4,3.6c-1.1,1.4-2.1,3-3,4.7c-0.9,1.7-2,3.8-3.3,6.2l2.2,2.5c0.9-0.6,1.9-1.7,2.9-3.3c1-1.7,2-2.8,2.8-3.4
	c0.6,0,1,0.4,1.3,1.3c0.3,0.9,0.4,1.8,0.4,2.9c-0.4,1.4-1.1,3.6-2.2,6.8c-1.1,3.2-1.8,5.6-2.2,7.2c-0.4,1.7-0.6,3.4-0.6,5.2
	c0,3.9,1.5,7,4.6,9.3c1.6,1.3,2.7,1.9,3.5,2.1C158.1,254.1,160,251.8,161.3,247.6z"/>
<path class="st3" d="M146.4,175.3c0-4.2,1-8.7,3.1-13.6c0.7-2,2.2-4.2,4.7-6.7c2.4-2.5,4.8-4.9,7-7.2c2.2-2.3,3.6-4.6,4.2-6.6
	c-4.9,2.9-9.4,6.4-13.5,10.7c-4.2,4.3-7.1,8.8-8.7,13.5c-0.6,2.2-0.9,4.8-0.9,7.9c0,3.2,0.5,7,1.6,11.4c0,1.3,0.3,1.9,0.9,1.9
	c0.4,0,1-0.4,1.8-1.1c0.7-0.7,1.2-1.4,1.3-2C146.9,180.7,146.4,178,146.4,175.3z"/>
<path class="st3" d="M151.9,204.9c0-0.5-0.2-1.1-0.7-1.7c-0.4-0.4-0.7-0.6-1.1-0.6c-0.2,0-0.8,0.1-1.7,0.3c-0.9,0.2-1.7,0.3-2.5,0.3
	c-0.2-0.8-0.3-1.3-0.3-1.7c0-1.9,1.3-4.5,4-7.9c4-4.5,7-8.2,9-11.4c2-3.1,3.3-6.8,3.8-11.1c-0.4-0.6-1.3-0.9-2.5-0.9
	c-1.4,0-3.3,0.3-5.7,1c-2.4,0.7-3.9,1-4.4,1c-0.4,0.6-0.6,1.2-0.6,1.9c0.1,0.4,0.2,0.8,0.4,1.4c0.2,0.6,0.4,1.1,0.6,1.7
	c0.6-0.2,1.3-0.5,2.1-0.9c0.8-0.3,1.6-0.6,2.3-0.7c0.8,0,1.3,0.5,1.4,1.4c-1.5,2.6-3.8,5.7-6.8,9.4c-3,3.7-5.2,7-6.8,9.9
	c-1.6,2.9-2.4,6.2-2.4,9.9c0,2.1,0.2,4.1,0.7,6c0.1-0.1,0.3-0.1,0.4-0.1c0.2,0,0.3-0.1,0.4-0.1L151.9,204.9z"/>
<path class="st3" d="M170.3,270.2c0-0.6-0.4-1.5-1.1-2.7c-0.7-1.3-1.1-1.8-1.1-1.7c-10.3-1.1-17.9-6.3-23.1-15.6
	c-0.6-1-1.1-2.3-1.3-3.9c-0.2-1.6-0.5-3.2-0.7-4.7c-0.2-1.5-0.7-2.7-1.4-3.5c-1.1-0.5-1.9-0.8-2.5-0.8c-0.7,0-1.4,0.3-2.1,0.8
	c0,3.1,0.4,6,1.3,8.7c0.9,2.7,2.1,5.3,3.5,7.7c1.5,2.4,3,4.8,4.7,7c6.1,5.8,13.6,9,22.3,9.8C169.8,271.3,170.3,270.9,170.3,270.2z"
	/>
<path class="st3" d="M139.1,225.3c-2.1-2.3-3.8-5.2-4.9-8.5c-0.5-2.4-0.7-5.1-0.7-7.9c0-8.1,2.2-15.7,6.7-22.7l-1.4-6.4
	c-3.7,3.3-6.3,7.4-8,12.5c-1.7,5.1-2.5,10.8-2.5,17c0,3.8,0.3,7.7,0.9,11.7c1.4,3.5,3.3,6.4,5.9,8.7c2.6,2.3,6,4.5,10.1,6.7
	c0.6-0.3,0.9-0.6,1.1-0.8c0.2-0.2,0.3-0.5,0.4-1c0.1-0.4,0.3-1.3,0.6-2.5C144,229.8,141.2,227.6,139.1,225.3z"/>
<polyline points="24.9,251.4 21.9,232.7 54.1,227.5 54.8,231.8 26.4,236.4 28.7,250.8 "/>
<path d="M32.1,275.8l-1.2-3.9l2.6-0.8c-1.4-0.9-2.6-1.8-3.5-2.7c-0.9-0.9-1.5-2-2-3.4c-0.3-1-0.4-2-0.4-3c0.1-1,0.3-2,0.9-2.9
	c0.5-0.9,1.3-1.7,2.3-2.4c1-0.7,2.3-1.3,3.9-1.8l15.2-4.7L51,254l-13.4,4.2c-1.2,0.4-2.3,0.8-3.1,1.1c-0.8,0.3-1.4,0.8-2,1.3
	c-0.5,0.5-0.8,1.1-0.9,1.7c-0.1,0.6,0,1.5,0.3,2.5c0.3,1,0.9,1.9,1.8,2.8c0.9,0.9,1.9,1.7,2.9,2.4l17.5-5.5l1.2,3.9"/>
<path d="M44,301.8l-1.8-3.7l12.6-6.1c1-0.5,1.9-1,2.8-1.5c0.8-0.5,1.4-1.1,1.8-1.6c0.4-0.6,0.6-1.2,0.6-1.9c0-0.7-0.2-1.5-0.7-2.4
	c-0.4-0.9-1.2-1.8-2.1-2.5c-1-0.7-2.1-1.4-3.3-1.9l-16.5,8l-1.8-3.7l22.1-10.8l1.8,3.7l-2.4,1.2c1.5,0.6,2.8,1.3,3.9,2.2
	c1.1,0.8,1.9,1.8,2.5,3c1.1,2.2,1.2,4.2,0.3,6.1c-0.8,1.9-2.6,3.5-5.3,4.9"/>
<path d="M61.9,318.5l11.7-8c-0.2-1.1-0.4-2.1-0.7-2.9c-0.3-0.8-0.7-1.6-1.3-2.3c-1.2-1.8-2.8-2.7-4.8-2.8c-2-0.1-4.2,0.7-6.7,2.4
	c-2.4,1.6-3.9,3.3-4.7,4.9c-0.7,1.6-0.5,3.3,0.6,5c0.6,0.9,1.4,1.7,2.5,2.3C59.6,317.7,60.7,318.2,61.9,318.5 M59.3,325.3l-2.3-3.4
	l2.1-1.4c-0.8-0.2-1.5-0.4-2.1-0.6c-0.6-0.2-1.1-0.5-1.7-0.8c-0.6-0.3-1.1-0.7-1.6-1.1c-0.5-0.4-1-1-1.4-1.7
	c-0.8-1.1-1.2-2.3-1.4-3.5c-0.2-1.3-0.1-2.5,0.4-3.8c0.4-1.3,1.2-2.6,2.2-3.8c1.1-1.3,2.4-2.5,4.1-3.7c1.8-1.2,3.5-2,5.1-2.5
	c1.6-0.4,3.2-0.6,4.7-0.4c1.4,0.1,2.7,0.5,3.9,1.2c1.2,0.7,2.2,1.6,3,2.8c0.7,1,1.2,2,1.5,2.9c0.3,0.9,0.5,1.9,0.6,3.1l8.7-6
	l2.3,3.4L59.3,325.3z"/>
<path d="M69,337.5c-1.1-1.2-2-2.5-2.6-3.9c-0.6-1.4-1.1-2.5-1.3-3.6l3.4-3.1l0.1,0.2c0,0.4,0.1,1,0.2,1.5c0.1,0.6,0.2,1.3,0.5,2.1
	c0.2,0.7,0.5,1.5,0.9,2.3c0.4,0.8,0.9,1.5,1.5,2.2c0.4,0.5,1,1,1.6,1.4c0.6,0.5,1.1,0.7,1.5,0.8c0.6,0.2,1.1,0.2,1.5,0.1
	c0.4-0.1,0.9-0.4,1.5-0.9c0.7-0.7,1.1-1.3,1.1-2.1c0-0.7-0.3-1.7-1-2.9c-0.3-0.5-0.6-1.1-1.1-1.8c-0.4-0.7-0.8-1.5-1.2-2.1
	c-0.9-1.8-1.1-3.3-0.9-4.7c0.3-1.4,1-2.6,2.2-3.7c1.6-1.5,3.5-2.1,5.7-1.8c2.2,0.3,4.2,1.5,6,3.5c0.9,1,1.7,2.1,2.4,3.4
	c0.7,1.2,1.1,2.4,1.4,3.4l-3.3,3l-0.1-0.2c-0.1-1.3-0.4-2.6-0.9-3.9c-0.5-1.3-1.2-2.4-2.1-3.4c-0.9-1-1.9-1.7-2.9-2
	c-1.1-0.3-2-0.1-2.9,0.7c-0.8,0.7-1.1,1.4-1.1,2.1c0,0.7,0.3,1.7,0.9,2.8c0.3,0.6,0.6,1.2,1,1.8c0.4,0.7,0.8,1.4,1.2,2.1
	c0.9,1.6,1.2,3.2,1.1,4.5c-0.2,1.4-0.9,2.7-2.3,3.9c-0.8,0.7-1.7,1.2-2.6,1.5c-1,0.3-2,0.4-3,0.3c-1.1-0.2-2.2-0.5-3.2-1.1
	C71.2,339.6,70.2,338.7,69,337.5"/>
<polyline points="99.5,364.1 116.1,340.5 107.1,334.2 109.3,331 130.9,346.2 128.7,349.4 119.7,343 103.1,366.6 "/>
<path d="M133.9,367.3c0.5-1,0.8-1.9,1-2.7c0.2-0.8,0.2-1.6,0.1-2.3c-0.1-0.8-0.5-1.5-1-2.1c-0.5-0.6-1.3-1.2-2.3-1.8
	c-1-0.5-1.9-0.8-2.7-0.9c-0.8-0.1-1.7,0-2.5,0.3c-0.9,0.3-1.6,0.7-2.3,1.2c-0.7,0.5-1.3,1.3-1.8,2.1 M122.2,378.8
	c-3.4-1.8-5.6-4.3-6.5-7.2c-0.9-3-0.3-6.2,1.6-9.8c1.9-3.5,4.3-5.8,7.3-6.9c3-1.1,5.9-0.9,8.9,0.7c1.3,0.7,2.4,1.5,3.2,2.5
	c0.8,0.9,1.4,2,1.7,3.3c0.3,1.2,0.4,2.6,0.2,4c-0.2,1.4-0.8,3-1.7,4.7l-1.1,2l-15-8.1c-1.3,2.5-1.7,4.8-1.2,6.8c0.6,2,2,3.6,4.2,4.8
	c0.8,0.4,1.6,0.8,2.5,1c0.9,0.2,1.7,0.4,2.5,0.4c0.8,0.1,1.5,0.1,2.1,0c0.6,0,1.1-0.1,1.5-0.2l0.2,0.1l-2.1,4
	c-0.5-0.1-1.2-0.1-1.9-0.2c-0.8-0.1-1.4-0.2-2-0.3c-0.8-0.2-1.5-0.4-2.2-0.6C123.9,379.6,123.1,379.3,122.2,378.8z"/>
<polyline points="156.2,392.4 151.1,390.5 146.6,376.2 144.5,377.1 140.9,386.7 137.1,385.3 148.9,353.2 152.8,354.7 145.8,373.4 
	158.6,367.1 163.4,368.8 150.4,375 "/>
<path d="M180.1,397.7l-4-0.9l2.9-13.7c0.2-1.1,0.4-2.1,0.5-3.1c0.1-1,0.1-1.8-0.1-2.4c-0.2-0.7-0.6-1.2-1.1-1.6
	c-0.5-0.4-1.3-0.7-2.3-1c-1-0.2-2.1-0.2-3.3,0.1c-1.2,0.3-2.4,0.8-3.6,1.4l-3.8,17.9l-4-0.9l5.1-24l4,0.9l-0.6,2.7
	c1.4-0.8,2.8-1.4,4.1-1.7c1.3-0.3,2.6-0.3,3.9-0.1c2.4,0.5,4,1.7,5,3.5c1,1.8,1.2,4.2,0.6,7.2"/>
<path d="M195.7,370.6l-4.7-0.5l0.5-4.3l4.7,0.5 M192.4,399l-4.1-0.4l2.6-24.4l4.1,0.4L192.4,399z"/>
<path d="M207.1,400.4c-1.6,0-3.2-0.3-4.6-0.7c-1.4-0.5-2.6-0.9-3.5-1.5l0.1-4.6l0.2,0c0.3,0.3,0.8,0.6,1.2,0.9
	c0.5,0.3,1.1,0.7,1.9,1.1c0.7,0.3,1.5,0.6,2.3,0.9c0.8,0.3,1.7,0.4,2.6,0.4c0.7,0,1.4-0.1,2.1-0.2c0.7-0.1,1.3-0.3,1.7-0.6
	c0.5-0.3,0.9-0.7,1.1-1.1c0.2-0.4,0.4-0.9,0.4-1.7c0-1-0.2-1.7-0.8-2.2c-0.5-0.5-1.5-0.9-2.8-1.3c-0.5-0.1-1.2-0.3-2.1-0.5
	c-0.8-0.2-1.6-0.4-2.3-0.6c-1.9-0.6-3.2-1.4-4-2.6c-0.8-1.1-1.2-2.5-1.2-4.1c0-2.2,0.9-4,2.6-5.4c1.7-1.4,3.9-2,6.7-2
	c1.4,0,2.7,0.2,4.1,0.6c1.4,0.4,2.5,0.8,3.5,1.3l-0.1,4.4l-0.2,0c-1-0.8-2.2-1.5-3.5-2c-1.3-0.5-2.6-0.8-3.9-0.8
	c-1.4,0-2.5,0.2-3.5,0.8c-0.9,0.6-1.4,1.4-1.4,2.6c0,1,0.2,1.8,0.8,2.3c0.5,0.5,1.4,0.9,2.6,1.3c0.6,0.2,1.3,0.3,2,0.5
	c0.8,0.2,1.5,0.4,2.4,0.6c1.8,0.5,3.2,1.3,4.1,2.3c0.9,1.1,1.3,2.5,1.3,4.3c0,1.1-0.2,2-0.7,3c-0.4,0.9-1.1,1.7-1.9,2.4
	c-0.9,0.7-1.9,1.3-3,1.6C210.1,400.2,208.7,400.4,207.1,400.4"/>
<polyline points="243.6,397.3 238.2,397.9 227.8,387.1 226.3,388.9 227.5,399.1 223.4,399.6 219.6,365.6 223.7,365.1 225.9,385 
	234.4,373.6 239.5,373.1 230.6,384.4 "/>
<path d="M260.4,387l-1.7-6.6c-0.9,0.3-2.1,0.7-3.5,1.3c-1.4,0.5-2.5,1-3.4,1.5c-1,0.6-1.7,1.3-2.3,2.2c-0.5,0.8-0.6,1.9-0.3,3.1
	c0.3,1.4,1,2.3,1.9,2.8c0.9,0.5,2.2,0.6,3.6,0.2c1.3-0.3,2.3-0.9,3.2-1.7C258.9,388.9,259.7,388,260.4,387 M261.2,390.3
	c-0.3,0.3-0.6,0.8-1.1,1.3c-0.4,0.6-0.9,1.1-1.3,1.4c-0.6,0.5-1.2,1-1.8,1.4c-0.6,0.4-1.5,0.7-2.7,1c-1,0.2-2,0.3-2.9,0.2
	c-1-0.1-1.9-0.5-2.7-1c-0.8-0.5-1.5-1.2-2.1-2c-0.6-0.9-1.1-1.8-1.3-2.9c-0.4-1.6-0.4-3.1,0-4.5c0.4-1.3,1.3-2.5,2.6-3.6
	c1.2-0.9,2.7-1.8,4.4-2.5c1.8-0.7,3.7-1.4,5.8-2l-0.2-0.8c-0.2-0.9-0.6-1.7-1-2.2c-0.4-0.5-0.9-0.9-1.5-1c-0.6-0.2-1.3-0.3-2-0.2
	c-0.8,0.1-1.5,0.2-2.3,0.4c-0.9,0.2-2,0.7-3.2,1.2c-1.2,0.6-2.3,1.3-3.4,2.2l-0.2,0.1l-1-4.1c0.7-0.4,1.7-0.9,3-1.5
	c1.3-0.6,2.6-1.1,4-1.4c1.6-0.4,3-0.6,4.2-0.7c1.2,0,2.3,0.2,3.4,0.6c1,0.4,1.9,1.1,2.6,2c0.7,0.9,1.2,2.1,1.6,3.6l4.1,16.3l-4,1
	L261.2,390.3z"/>
<polyline points="310.9,371.5 307,373.6 299.4,359.5 286.2,366.6 293.8,380.7 290,382.8 274.5,354 278.3,351.9 284.4,363.2 
	297.6,356.1 291.5,344.8 295.4,342.7 "/>
<path d="M324.2,346.4c-1.9-2.5-3.8-4-5.7-4.5c-1.9-0.5-3.6-0.1-5.3,1.2c-1.7,1.3-2.6,2.9-2.5,4.9c0,1.9,1,4.1,2.9,6.6
	c1.9,2.4,3.8,3.9,5.6,4.4c1.9,0.5,3.7,0.1,5.4-1.2c1.7-1.3,2.5-2.9,2.5-4.9C327.1,351.1,326.1,348.9,324.2,346.4 M314.2,333.4
	l-3.5,2.7l-2.6-3.4l3.5-2.7L314.2,333.4z M327.6,343.8c2.5,3.3,3.7,6.4,3.5,9.4c-0.2,3-1.6,5.5-4.2,7.5c-2.7,2.1-5.5,2.8-8.5,2.2
	c-3-0.6-5.7-2.5-8.1-5.7c-2.5-3.2-3.7-6.4-3.5-9.4c0.2-3,1.6-5.6,4.2-7.6c2.6-2,5.4-2.8,8.4-2.2C322.3,338.6,325,340.6,327.6,343.8z
	 M307,339l-3.5,2.7l-2.6-3.4l3.5-2.7L307,339z"/>
<path d="M346,333.2l-9.8-9.4c-1.1,0.4-2,0.8-2.8,1.3c-0.8,0.5-1.4,1-2,1.7c-1.5,1.5-2,3.2-1.8,5.2c0.3,1.9,1.5,3.9,3.5,5.9
	c2,1.9,3.8,3,5.5,3.3c1.7,0.3,3.2-0.2,4.6-1.7c0.7-0.8,1.4-1.7,1.8-2.8C345.7,335.5,346,334.4,346,333.2 M344,350.5
	c0.3-0.1,0.7-0.3,1.2-0.6c0.5-0.3,1.1-0.6,1.7-0.9c0.7-0.4,1.3-0.8,1.8-1.2c0.5-0.4,1.1-0.8,1.6-1.4c0.9-0.9,1.5-1.8,1.9-2.7
	c0.4-0.9,0.5-1.7,0.4-2.5c-0.1-0.8-0.4-1.5-0.8-2.2c-0.4-0.7-1-1.4-1.7-2.1l-1.5-1.5c-0.1,1.5-0.3,2.8-0.7,3.9
	c-0.4,1.1-1.2,2.2-2.3,3.4c-1.9,2-4.2,2.9-6.9,2.7c-2.7-0.2-5.4-1.7-8.2-4.4c-1.5-1.4-2.6-2.9-3.3-4.4c-0.7-1.5-1.2-3-1.3-4.5
	c-0.1-1.4,0.1-2.8,0.5-4.1c0.5-1.3,1.2-2.4,2.1-3.4c0.9-0.9,1.8-1.6,2.6-2.1c0.9-0.5,1.8-0.8,2.9-1.1l-0.6-0.9l2.7-2.8l15.7,15.1
	c3,2.9,4.6,5.7,4.7,8.3c0.1,2.7-1.1,5.3-3.7,8c-0.8,0.9-1.8,1.7-2.8,2.5c-1,0.8-2,1.4-3,2l-3.1-3L344,350.5z"/>
<path d="M363.7,322.9c-1,1.3-2.1,2.4-3.3,3.3c-1.2,0.9-2.3,1.6-3.2,2l-3.7-2.7l0.1-0.2c0.4-0.1,0.9-0.3,1.5-0.5
	c0.6-0.2,1.2-0.5,2-0.9c0.7-0.4,1.4-0.8,2.1-1.4c0.7-0.5,1.3-1.2,1.8-1.9c0.4-0.5,0.7-1.1,1.1-1.8c0.3-0.7,0.5-1.3,0.5-1.7
	c0-0.6,0-1.1-0.2-1.5c-0.2-0.4-0.6-0.8-1.2-1.3c-0.8-0.6-1.5-0.8-2.3-0.7c-0.7,0.1-1.6,0.6-2.7,1.5c-0.4,0.3-0.9,0.8-1.6,1.4
	c-0.6,0.6-1.3,1.1-1.8,1.6c-1.5,1.2-3,1.8-4.4,1.8c-1.4,0-2.8-0.5-4.1-1.4c-1.8-1.3-2.7-3-2.9-5.2c-0.1-2.2,0.6-4.4,2.3-6.6
	c0.8-1.1,1.8-2.1,2.8-3c1.1-0.9,2.1-1.6,3.1-2l3.6,2.6l-0.1,0.2c-1.3,0.4-2.5,0.9-3.7,1.7c-1.2,0.8-2.1,1.7-2.9,2.7
	c-0.8,1.1-1.3,2.2-1.3,3.3c-0.1,1.1,0.3,2,1.3,2.7c0.8,0.6,1.6,0.8,2.3,0.7c0.7-0.1,1.6-0.6,2.6-1.4c0.5-0.4,1-0.9,1.6-1.4
	c0.6-0.5,1.2-1,1.8-1.6c1.4-1.2,2.9-1.8,4.2-2c1.4-0.1,2.8,0.4,4.3,1.4c0.8,0.6,1.5,1.4,2,2.3c0.5,0.9,0.8,1.9,0.9,2.9
	c0.1,1.1-0.1,2.3-0.4,3.4C365.3,320.3,364.7,321.5,363.7,322.9"/>
<polyline points="382.4,291.2 379.7,296 364.9,298.3 365.5,300.5 374.5,305.5 372.5,309.1 342.6,292.5 344.6,288.9 362.1,298.6 
	357.7,285 360.2,280.6 364.3,294.3 "/>
<path d="M378.5,267.6c-3-1.1-5.4-1.4-7.2-0.9c-1.9,0.5-3.2,1.8-3.9,3.8c-0.8,2-0.7,3.8,0.4,5.5c1,1.6,3,3,5.9,4.2
	c2.9,1.1,5.2,1.4,7.1,0.9c1.9-0.5,3.2-1.8,4-3.8c0.8-2,0.6-3.8-0.4-5.4C383.3,270.1,381.4,268.7,378.5,267.6 M380,263.6
	c3.9,1.5,6.5,3.6,7.9,6.2c1.4,2.7,1.5,5.5,0.3,8.6c-1.2,3.2-3.3,5.3-6.1,6.3c-2.9,1-6.2,0.8-9.9-0.7c-3.8-1.5-6.4-3.6-7.8-6.3
	c-1.4-2.7-1.5-5.6-0.3-8.7c1.2-3.1,3.2-5.2,6-6.2C372.8,261.9,376.1,262.1,380,263.6z"/>
<polyline points="394.1,257.6 393,261.6 360,252.7 361.1,248.7 "/>
<path d="M392.5,235l-6.7-1.1c-0.1,1-0.2,2.2-0.2,3.7c-0.1,1.5-0.1,2.7,0.1,3.7c0.2,1.1,0.5,2.1,1.1,2.9c0.6,0.8,1.5,1.3,2.7,1.5
	c1.4,0.2,2.5,0,3.3-0.7c0.8-0.7,1.4-1.8,1.6-3.3c0.2-1.3,0.1-2.5-0.3-3.6C393.6,237.1,393.1,236,392.5,235 M395.8,235.5
	c0.2,0.4,0.5,0.9,0.8,1.5c0.4,0.6,0.6,1.2,0.8,1.8c0.3,0.8,0.4,1.5,0.5,2.2c0.1,0.7,0,1.7-0.2,2.9c-0.2,1-0.5,1.9-1,2.8
	c-0.5,0.8-1.2,1.5-2,2.1c-0.8,0.5-1.7,0.9-2.7,1.2c-1,0.2-2.1,0.3-3.2,0.1c-1.7-0.3-3-0.9-4.1-1.8c-1.1-0.9-1.8-2.2-2.3-3.8
	c-0.4-1.5-0.6-3.1-0.5-5c0.1-1.9,0.2-3.9,0.4-6.1l-0.8-0.1c-1-0.2-1.8-0.1-2.4,0.1c-0.6,0.2-1.2,0.5-1.6,1c-0.4,0.5-0.7,1.1-1,1.8
	c-0.2,0.7-0.4,1.5-0.5,2.3c-0.2,0.9-0.2,2.1-0.1,3.4c0.1,1.3,0.3,2.7,0.6,4l0,0.2l-4.1-0.7c-0.1-0.8-0.2-1.9-0.2-3.4
	c0-1.4,0.1-2.9,0.3-4.2c0.3-1.7,0.6-3,1.1-4.2c0.4-1.1,1.1-2.1,1.9-2.9c0.8-0.8,1.8-1.3,2.9-1.6c1.1-0.3,2.4-0.3,4,0l16.6,2.7
	l-0.7,4.1L395.8,235.5z"/>
<polyline points="140.8,68.8 128.5,75.6 126.7,72.3 130.7,70.1 116.8,44.7 112.7,46.9 110.9,43.7 123.3,36.9 125,40.1 121,42.4 
	135,67.8 139,65.6 "/>
<path d="M164.6,59.2l-4.3,1.6l-5.5-14.5c-0.4-1.2-0.9-2.2-1.4-3.2c-0.5-1-1-1.7-1.6-2.2c-0.6-0.5-1.3-0.8-2-0.9
	c-0.7-0.1-1.7,0.1-2.7,0.5c-1.1,0.4-2.1,1.1-3,2.1c-0.9,1-1.8,2.2-2.5,3.5l7.2,19l-4.3,1.6l-9.7-25.5l4.3-1.6l1.1,2.8
	c0.8-1.6,1.8-3,2.8-4.1c1-1.1,2.2-1.9,3.6-2.4c2.5-1,4.8-0.9,6.8,0.2c2,1.1,3.7,3.2,4.9,6.4"/>
<path d="M176.1,22l-0.2,0.1c-0.4,0-1,0-1.8,0c-0.8,0-1.5,0.1-2,0.3c-1.9,0.4-3.1,1.2-3.7,2.2c-0.6,1-0.6,2.7-0.1,4.9l0.2,0.9
	l7.4-1.7l0.9,3.8l-7.3,1.7l5.3,22.8l-4.4,1l-5.3-22.8l-3,0.7l-0.9-3.8l3-0.7l-0.2-0.9c-0.8-3.2-0.6-5.8,0.6-7.9c1.1-2,3.2-3.4,6-4.1
	c0.8-0.2,1.6-0.3,2.5-0.4c0.8-0.1,1.6-0.2,2.2-0.2"/>
<path d="M200,39.3c-0.4-3.5-1.3-6-2.7-7.6c-1.5-1.6-3.4-2.2-5.7-2c-2.4,0.2-4.1,1.3-5.2,3.1c-1.1,1.8-1.5,4.5-1.1,8
	c0.4,3.4,1.3,5.9,2.7,7.5c1.5,1.6,3.4,2.3,5.8,2c2.3-0.2,4.1-1.3,5.2-3.1C200,45.4,200.3,42.8,200,39.3 M204.7,38.8
	c0.5,4.6-0.3,8.2-2.2,10.9c-1.9,2.7-4.7,4.3-8.4,4.6c-3.8,0.4-6.9-0.6-9.3-2.9c-2.4-2.3-3.9-5.7-4.3-10.1c-0.5-4.5,0.3-8.2,2.2-10.9
	c2-2.7,4.8-4.3,8.4-4.7c3.7-0.4,6.7,0.6,9.2,2.8C202.8,30.9,204.2,34.3,204.7,38.8z"/>
<path d="M223.9,54c-2.4-0.2-4.5-0.7-6.5-1.6c-1.9-0.9-3.6-2.2-4.9-3.9c-1.3-1.7-2.3-3.7-3-6.1c-0.6-2.4-0.9-5.1-0.6-8.2
	c0.2-3,0.8-5.7,1.7-7.9c0.9-2.2,2.2-4.1,3.8-5.7c1.6-1.5,3.3-2.7,5.4-3.4c2-0.7,4.3-1,6.7-0.8c1.2,0.1,2.4,0.2,3.4,0.5
	c1,0.3,2,0.5,2.9,0.9c0.8,0.3,1.5,0.7,2.3,1.1c0.8,0.4,1.6,0.9,2.3,1.4l-0.4,5.8l-0.4,0c-0.4-0.4-0.9-0.9-1.5-1.5
	c-0.6-0.6-1.4-1.2-2.3-1.8c-0.9-0.6-1.9-1-2.9-1.4c-1.1-0.4-2.3-0.6-3.7-0.7c-1.5-0.1-3,0.1-4.4,0.7c-1.4,0.5-2.7,1.4-3.8,2.6
	c-1.1,1.2-2,2.7-2.7,4.5c-0.7,1.8-1.1,3.9-1.3,6.2c-0.2,2.5,0,4.6,0.5,6.5c0.5,1.8,1.2,3.4,2.2,4.7c0.9,1.3,2.1,2.3,3.4,2.9
	c1.3,0.7,2.7,1.1,4.3,1.2c1.4,0.1,2.7,0,3.9-0.2c1.2-0.3,2.3-0.6,3.3-1.1c0.9-0.4,1.7-0.9,2.4-1.4c0.7-0.5,1.2-0.9,1.6-1.2l0.4,0
	l-0.4,5.7c-0.8,0.3-1.6,0.6-2.3,0.9c-0.7,0.3-1.6,0.6-2.6,0.8c-1.1,0.3-2.1,0.5-3,0.6C226.5,54.1,225.3,54.1,223.9,54"/>
<path d="M258.2,45.8c0.8-3.4,0.8-6.1,0-8.1c-0.8-2-2.4-3.2-4.7-3.8c-2.3-0.6-4.3-0.2-6,1.2c-1.7,1.4-2.9,3.7-3.7,7.1
	c-0.8,3.3-0.8,6,0.1,8c0.8,2,2.4,3.3,4.7,3.9c2.3,0.6,4.3,0.2,5.9-1.2C256.2,51.5,257.4,49.1,258.2,45.8 M262.9,46.9
	c-1.1,4.5-3,7.6-5.7,9.5c-2.7,1.9-5.9,2.4-9.5,1.5c-3.7-0.9-6.3-2.9-7.8-5.9c-1.5-3-1.7-6.7-0.7-11c1.1-4.4,3-7.6,5.8-9.5
	c2.8-1.9,5.9-2.4,9.5-1.6c3.6,0.9,6.1,2.8,7.7,5.8C263.7,38.8,263.9,42.5,262.9,46.9z"/>
<path d="M290.6,74.1l6.8-14.2c0.5-1.1,1-2.2,1.4-3.2c0.4-1,0.6-1.8,0.5-2.5c0-0.7-0.2-1.4-0.6-1.9c-0.4-0.5-1.1-1-2-1.5
	c-0.9-0.4-1.9-0.6-3.1-0.5c-1.2,0-2.6,0.3-4.1,0.8c-0.1,0.3-0.2,0.6-0.4,0.9c-0.1,0.4-0.3,0.8-0.6,1.2l-7.8,16.1l-4.1-2l6.8-14.2
	c0.5-1.1,1-2.2,1.4-3.2c0.4-1,0.6-1.8,0.5-2.5c0-0.7-0.2-1.4-0.6-1.9c-0.4-0.5-1.1-1-2-1.5c-0.9-0.4-2-0.6-3.2-0.5
	c-1.3,0.1-2.6,0.3-3.9,0.7l-8.8,18.3l-4.1-2l11.8-24.5l4.1,2l-1.3,2.7c1.6-0.6,3.1-0.9,4.4-1c1.4-0.1,2.7,0.2,3.9,0.8
	c1.5,0.7,2.6,1.7,3.4,2.9c0.8,1.2,1.1,2.7,1,4.5c1.9-0.8,3.6-1.3,5.2-1.4c1.5-0.1,3,0.1,4.4,0.8c1.1,0.5,1.9,1.1,2.6,1.9
	c0.7,0.7,1.2,1.6,1.5,2.7c0.3,1.1,0.4,2.2,0.2,3.5c-0.2,1.3-0.7,2.8-1.5,4.5L294.7,76"/>
</svg>
