<svg xmlns="http://www.w3.org/2000/svg" viewBox="0 0 1273.5865 1327.8314"><defs><style>.cls-1,.cls-4{fill:none;stroke-linecap:round;stroke-width:55px;}.cls-1{stroke:#f280a1;stroke-linejoin:round;}.cls-2{fill:#96c;}.cls-3{fill:#f280a1;}.cls-4{stroke:#96c;stroke-miterlimit:10;}</style></defs><g id="Layer_2" data-name="Layer 2"><g id="inner"><g id="dark"><g id="outer"><polyline id="branch_left" data-name="branch left" class="cls-1" points="147.916 283.986 238.122 374.192 372.739 374.192 462.945 464.398"/><polyline id="branch_right" data-name="branch right" class="cls-1" points="1148.992 283.986 1058.786 374.192 924.169 374.192 833.963 464.398"/><polyline id="twig" class="cls-1" points="294.981 201.806 331.517 238.342 331.517 290.012"/><circle id="fruit" class="cls-2" cx="1026.0914" cy="237.916" r="45.1915"/></g><g id="middle"><g id="trunk"><g id="left"><polyline class="cls-1" points="462.945 191.806 462.945 338.478 550.02 422.444 550.02 852.019 464.917 934.353 333.646 934.353"/><circle class="cls-3" cx="333.6459" cy="934.3531" r="45.1915"/></g><g id="right"><polyline class="cls-1" points="723.566 655.444 723.566 934.183 840.711 1054.437 939.941 1054.437"/><circle class="cls-3" cx="939.9405" cy="1054.4373" r="45.1915"/></g></g><circle id="fruit-2" data-name="fruit" class="cls-2" cx="462.9451" cy="72.6915" r="45.1915"/></g><g id="inner-2" data-name="inner"><g id="root"><polyline class="cls-1" points="751.706 1282.64 751.706 1154.819 661.323 1064.436"/><circle class="cls-3" cx="751.706" cy="1282.64" r="45.1915"/></g><g id="trunk-2" data-name="trunk"><polyline class="cls-1" points="890.833 147.68 801.066 237.447 801.066 373.252 636.802 537.517"/><polyline class="cls-1" points="548.559 1206.134 548.559 1060.713 636.793 972.478 636.793 27.5"/><circle class="cls-3" cx="548.5587" cy="1206.1338" r="45.1915"/></g></g><g id="ground"><line class="cls-4" x1="27.5" y1="745.5264" x2="458.018" y2="745.5264"/><line class="cls-4" x1="815.5685" y1="745.5264" x2="1246.0865" y2="745.5264"/></g></g></g></g></svg>